<?xml version="1.0" encoding="UTF-8" standalone="no"?>
<!-- Created with Inkscape (http://www.inkscape.org/) -->

<svg
   xmlns:dc="http://purl.org/dc/elements/1.1/"
   xmlns:cc="http://creativecommons.org/ns#"
   xmlns:rdf="http://www.w3.org/1999/02/22-rdf-syntax-ns#"
   xmlns:svg="http://www.w3.org/2000/svg"
   xmlns="http://www.w3.org/2000/svg"
   xmlns:xlink="http://www.w3.org/1999/xlink"
   xmlns:sodipodi="http://sodipodi.sourceforge.net/DTD/sodipodi-0.dtd"
   xmlns:inkscape="http://www.inkscape.org/namespaces/inkscape"
   id="svg2783"
   version="1.1"
   viewBox="0 0 210 297"
   height="297mm"
   width="210mm"
   inkscape:version="0.92.4 (5da689c313, 2019-01-14)"
   sodipodi:docname="AboutDiffOfSin.svg">
  <defs
     id="defs2777">
    <marker
       inkscape:isstock="true"
       style="overflow:visible;"
       id="marker9931"
       refX="0.0"
       refY="0.0"
       orient="auto"
       inkscape:stockid="Arrow2Lend">
      <path
         transform="scale(1.1) rotate(180) translate(1,0)"
         d="M 8.7185878,4.0337352 L -2.2072895,0.016013256 L 8.7185884,-4.0017078 C 6.9730900,-1.6296469 6.9831476,1.6157441 8.7185878,4.0337352 z "
         style="fill-rule:evenodd;stroke-width:0.625;stroke-linejoin:round;stroke:#000000;stroke-opacity:1;fill:#000000;fill-opacity:1"
         id="path9929" />
    </marker>
    <marker
       inkscape:isstock="true"
       style="overflow:visible;"
       id="marker1293"
       refX="0.0"
       refY="0.0"
       orient="auto"
       inkscape:stockid="Arrow2Lend">
      <path
         transform="scale(1.1) rotate(180) translate(1,0)"
         d="M 8.7185878,4.0337352 L -2.2072895,0.016013256 L 8.7185884,-4.0017078 C 6.9730900,-1.6296469 6.9831476,1.6157441 8.7185878,4.0337352 z "
         style="fill-rule:evenodd;stroke-width:0.625;stroke-linejoin:round;stroke:#000000;stroke-opacity:1;fill:#000000;fill-opacity:1"
         id="path1291" />
    </marker>
    <marker
       inkscape:stockid="Arrow2Lend"
       orient="auto"
       refY="0.0"
       refX="0.0"
       id="Arrow2Lend"
       style="overflow:visible;"
       inkscape:isstock="true"
       inkscape:collect="always">
      <path
         id="path864"
         style="fill-rule:evenodd;stroke-width:0.625;stroke-linejoin:round;stroke:#000000;stroke-opacity:1;fill:#000000;fill-opacity:1"
         d="M 8.7185878,4.0337352 L -2.2072895,0.016013256 L 8.7185884,-4.0017078 C 6.9730900,-1.6296469 6.9831476,1.6157441 8.7185878,4.0337352 z "
         transform="scale(1.1) rotate(180) translate(1,0)" />
    </marker>
    <marker
       inkscape:isstock="true"
       style="overflow:visible;"
       id="marker3358"
       refX="0.0"
       refY="0.0"
       orient="auto"
       inkscape:stockid="Arrow2Mend">
      <path
         transform="scale(0.6) rotate(180) translate(0,0)"
         d="M 8.7185878,4.0337352 L -2.2072895,0.016013256 L 8.7185884,-4.0017078 C 6.9730900,-1.6296469 6.9831476,1.6157441 8.7185878,4.0337352 z "
         style="fill-rule:evenodd;stroke-width:0.625;stroke-linejoin:round;stroke:#000000;stroke-opacity:1;fill:#000000;fill-opacity:1"
         id="path3356" />
    </marker>
  </defs>
  <sodipodi:namedview
     id="base"
     pagecolor="#ffffff"
     bordercolor="#666666"
     borderopacity="1.0"
     inkscape:pageopacity="0.0"
     inkscape:pageshadow="2"
     inkscape:zoom="0.7"
     inkscape:cx="444.99767"
     inkscape:cy="450.65464"
     inkscape:document-units="mm"
     inkscape:current-layer="layer1"
     showgrid="true"
     inkscape:window-width="1858"
     inkscape:window-height="1057"
     inkscape:window-x="-8"
     inkscape:window-y="-8"
     inkscape:window-maximized="1">
    <inkscape:grid
       type="xygrid"
       id="grid3328" />
  </sodipodi:namedview>
  <metadata
     id="metadata2780">
    <rdf:RDF>
      <cc:Work
         rdf:about="">
        <dc:format>image/svg+xml</dc:format>
        <dc:type
           rdf:resource="http://purl.org/dc/dcmitype/StillImage" />
        <dc:title />
      </cc:Work>
    </rdf:RDF>
  </metadata>
  <g
     inkscape:label="レイヤー 1"
     inkscape:groupmode="layer"
     id="layer1">
    <rect
       style="opacity:1;fill:none;fill-opacity:1;stroke:#000000;stroke-width:0;stroke-linecap:butt;stroke-linejoin:round;stroke-miterlimit:4;stroke-dasharray:none;stroke-dashoffset:0;stroke-opacity:1;paint-order:normal"
       id="rect3330"
       width="199.905"
       height="199.90495"
       x="2.6430528"
       y="17.722834"
       inkscape:export-xdpi="300.10001"
       inkscape:export-ydpi="300.10001" />
    <path
       style="fill:none;stroke:#000000;stroke-width:0.40000001;stroke-linecap:butt;stroke-linejoin:miter;stroke-miterlimit:4;stroke-dasharray:none;stroke-opacity:1;marker-end:url(#marker1293)"
       d="m 2.6458333,196.45843 c 197.3522467,0 197.3522467,0 197.3522467,0"
       id="path3332"
       inkscape:connector-curvature="0" />
    <path
       style="fill:none;stroke:#000000;stroke-width:0.40000001;stroke-linecap:butt;stroke-linejoin:miter;stroke-miterlimit:4;stroke-dasharray:none;stroke-opacity:1;marker-end:url(#Arrow2Lend)"
       d="m 24.870806,217.625 c 0,-197.384137 0,-197.384137 0,-197.384137"
       id="path3334"
       inkscape:connector-curvature="0" />
    <g
       title="\large$y$"
       style="fill:#000000"
       id="equation_00"
       transform="translate(-66.489422,-33.767567)">
      <defs
         id="defs3396">
        <path
           d="M 3.144209,1.338979 C 2.82142,1.793275 2.355168,2.199751 1.769365,2.199751 c -0.143462,0 -0.71731,-0.02391 -0.896638,-0.573848 0.035866,0.011955 0.095642,0.011955 0.119552,0.011955 0.358655,0 0.597758,-0.310834 0.597758,-0.585803 0,-0.274969 -0.227148,-0.37061 -0.406475,-0.37061 -0.191283,0 -0.609714,0.143462 -0.609714,0.729265 0,0.609713 0.514072,1.028144 1.195517,1.028144 1.195517,0 2.402989,-1.099875 2.737733,-2.426899 L 5.678705,-4.65056 C 5.69066,-4.710336 5.71457,-4.782067 5.71457,-4.853798 c 0,-0.179328 -0.143462,-0.298879 -0.322789,-0.298879 -0.107597,0 -0.358655,0.04782 -0.454297,0.406475 l -0.884682,3.51482 c -0.059776,0.215193 -0.059776,0.239103 -0.155417,0.37061 -0.239104,0.334745 -0.633624,0.74122 -1.207472,0.74122 -0.66949,0 -0.729265,-0.657534 -0.729265,-0.980323 0,-0.681445 0.322789,-1.601993 0.645579,-2.462765 0.131506,-0.3467 0.203238,-0.514072 0.203238,-0.753176 0,-0.502117 -0.358656,-0.956413 -0.944459,-0.956413 -1.099875,0 -1.542216,1.733499 -1.542216,1.829141 0,0.04782 0.04782,0.107596 0.131506,0.107596 0.107597,0 0.119552,-0.047821 0.167373,-0.215193 0.286924,-1.004234 0.74122,-1.482441 1.207472,-1.482441 0.107596,0 0.310834,0 0.310834,0.394521 0,0.310834 -0.131507,0.657534 -0.310834,1.11183 -0.585804,1.566127 -0.585804,1.960648 -0.585804,2.247572 0,1.135741 0.812952,1.398755 1.41071,1.398755 0.3467,0 0.777086,-0.107597 1.195517,-0.549938 l 0.011955,0.011955 C 3.682192,0.286924 3.56264,0.753176 3.144209,1.338979 Z"
           id="equation_00_00"
           inkscape:connector-curvature="0" />
      </defs>
      <g
         id="equation_00_g">
        <use
           id="use3398"
           xlink:href="#equation_00_00"
           y="62.764633"
           x="76.712326"
           width="100%"
           height="100%" />
      </g>
    </g>
    <g
       title="\large$x$"
       style="fill:#000000"
       id="equation_01"
       transform="translate(112.71617,147.01252)">
      <defs
         id="defs3445">
        <path
           d="m 5.66675,-4.877709 c -0.382566,0.071731 -0.526028,0.358655 -0.526028,0.585804 0,0.286924 0.227148,0.382565 0.394521,0.382565 0.358655,0 0.609713,-0.310834 0.609713,-0.633624 0,-0.502117 -0.573848,-0.729265 -1.075965,-0.729265 -0.729265,0 -1.135741,0.71731 -1.243337,0.944458 -0.274969,-0.896637 -1.016189,-0.944458 -1.231383,-0.944458 -1.219427,0 -1.865006,1.566127 -1.865006,1.829141 0,0.04782 0.047821,0.107596 0.131507,0.107596 0.095641,0 0.119552,-0.071731 0.143462,-0.119552 0.406476,-1.327023 1.207472,-1.578082 1.554172,-1.578082 0.537983,0 0.645579,0.502117 0.645579,0.789041 0,0.263014 -0.071731,0.537983 -0.215193,1.111831 l -0.406476,1.637858 c -0.179327,0.71731 -0.526027,1.374844 -1.159651,1.374844 -0.059776,0 -0.358655,0 -0.609714,-0.155417 0.430386,-0.083686 0.526028,-0.442341 0.526028,-0.585803 0,-0.239103 -0.179328,-0.382565 -0.406476,-0.382565 -0.286924,0 -0.597758,0.251058 -0.597758,0.633623 0,0.502117 0.561893,0.729266 1.075965,0.729266 0.573848,0 0.980324,-0.454297 1.231382,-0.944459 0.191283,0.705355 0.789041,0.944459 1.231382,0.944459 1.219428,0 1.865007,-1.566127 1.865007,-1.829141 0,-0.059776 -0.047821,-0.107597 -0.119552,-0.107597 -0.107596,0 -0.119552,0.059776 -0.155417,0.155418 -0.32279,1.052054 -1.016189,1.542216 -1.554172,1.542216 -0.418431,0 -0.645579,-0.310834 -0.645579,-0.800996 0,-0.263014 0.047821,-0.454296 0.239103,-1.243337 l 0.418431,-1.625903 c 0.179328,-0.71731 0.585803,-1.243338 1.135741,-1.243338 0.02391,0 0.358655,0 0.609714,0.155417 z"
           id="equation_01_00"
           inkscape:connector-curvature="0" />
      </defs>
      <g
         id="equation_01_g">
        <use
           id="use3447"
           xlink:href="#equation_01_00"
           y="62.764633"
           x="76.712326"
           width="100%"
           height="100%" />
      </g>
    </g>
    <g
       title="\large$O$"
       style="fill:#000000"
       id="equation_02"
       transform="translate(-63.418275,146.2115)">
      <defs
         id="defs3564">
        <path
           d="m 8.679452,-5.236364 c 0,-1.972602 -1.291158,-3.180074 -2.964882,-3.180074 -2.558406,0 -5.140722,2.749688 -5.140722,5.511332 0,1.876962 1.243338,3.156165 2.976837,3.156165 2.510585,0 5.128767,-2.618182 5.128767,-5.487423 z M 3.622416,-0.02391 c -0.980324,0 -2.020423,-0.71731 -2.020423,-2.582317 0,-1.08792 0.39452,-2.86924 1.374844,-4.064757 0.872727,-1.052055 1.876961,-1.482441 2.677958,-1.482441 1.052054,0 2.068244,0.765131 2.068244,2.486675 0,1.06401 -0.454297,2.725779 -1.255293,3.86152 -0.872727,1.219427 -1.960648,1.78132 -2.84533,1.78132 z"
           id="equation_02_00"
           inkscape:connector-curvature="0" />
      </defs>
      <g
         id="equation_02_g">
        <use
           id="use3566"
           xlink:href="#equation_02_00"
           y="62.764633"
           x="76.712326"
           width="100%"
           height="100%" />
      </g>
    </g>
    <rect
       style="opacity:1;fill:none;fill-opacity:1;fill-rule:evenodd;stroke:#050000;stroke-width:0.5;stroke-linecap:butt;stroke-linejoin:bevel;stroke-miterlimit:4;stroke-dasharray:none;stroke-dashoffset:0;stroke-opacity:1;paint-order:normal"
       id="rect9007"
       width="130"
       height="130"
       x="-349.25"
       y="-15.208333" />
    <path
       id="path9607"
       title="sqrt(1-x*x/100)"
       d="m 25.064731,72.106833 c 0.04338,0 0.08675,2.4e-5 0.13013,7.1e-5 0.04338,4.8e-5 0.08675,1.19e-4 0.130131,2.13e-4 0.04338,9.5e-5 0.08675,2.13e-4 0.13013,3.55e-4 0.04338,1.42e-4 0.08675,3.07e-4 0.13013,4.96e-4 0.04338,1.89e-4 0.08675,4.02e-4 0.13013,6.39e-4 0.04338,2.36e-4 0.08675,4.96e-4 0.13013,7.8e-4 0.04338,2.83e-4 0.08675,5.91e-4 0.13013,9.22e-4 0.04338,3.31e-4 0.08675,6.85e-4 0.13013,0.0011 0.04338,3.78e-4 0.08675,7.8e-4 0.130131,0.0012 0.04338,4.25e-4 0.08675,8.74e-4 0.13013,0.0013 0.04338,4.73e-4 0.08675,9.7e-4 0.13013,0.0015 0.04338,5.2e-4 0.08675,0.0011 0.13013,0.0016 0.04338,5.68e-4 0.08675,0.0012 0.13013,0.0018 0.04338,6.15e-4 0.08675,0.0013 0.13013,0.0019 0.04338,6.62e-4 0.08675,0.0013 0.13013,0.0021 0.04338,7.09e-4 0.08675,0.0014 0.13013,0.0022 0.04338,7.56e-4 0.08675,0.0015 0.130131,0.0023 0.04338,8.04e-4 0.08675,0.0016 0.13013,0.0025 0.04338,8.52e-4 0.08675,0.0017 0.13013,0.0026 0.04338,8.99e-4 0.08675,0.0018 0.13013,0.0028 0.04338,9.46e-4 0.08675,0.0019 0.13013,0.0029 0.04338,9.94e-4 0.08675,0.002 0.13013,0.0031 0.04338,10e-4 0.08675,0.0021 0.13013,0.0032 0.04338,0.0011 0.08675,0.0022 0.13013,0.0033 0.04338,0.0011 0.08675,0.0023 0.130131,0.0035 0.04338,0.0012 0.08675,0.0024 0.13013,0.0036 0.04338,0.0012 0.08675,0.0025 0.13013,0.0038 0.04338,0.0013 0.08675,0.0026 0.13013,0.0039 0.04338,0.0013 0.08675,0.0027 0.13013,0.004 0.04338,0.0014 0.08675,0.0028 0.13013,0.0042 0.04338,0.0014 0.08675,0.0029 0.13013,0.0043 0.04338,0.0015 0.08675,0.003 0.13013,0.0045 0.04338,0.0015 0.08675,0.0031 0.130131,0.0046 0.04338,0.0016 0.08675,0.0031 0.13013,0.0048 0.04338,0.0016 0.08675,0.0032 0.13013,0.0049 0.04338,0.0017 0.08675,0.0033 0.13013,0.005 0.04338,0.0017 0.08675,0.0034 0.13013,0.0052 0.04338,0.0018 0.08675,0.0035 0.13013,0.0053 0.04338,0.0018 0.08675,0.0036 0.13013,0.0055 0.04338,0.0018 0.08675,0.0037 0.130131,0.0056 0.04338,0.0019 0.08675,0.0038 0.13013,0.0057 0.04338,0.0019 0.08675,0.0039 0.13013,0.0059 0.04338,0.002 0.08675,0.004 0.13013,0.006 0.04338,0.002 0.08675,0.0041 0.13013,0.0062 0.04338,0.0021 0.08675,0.0042 0.13013,0.0063 0.04338,0.0021 0.08675,0.0043 0.13013,0.0065 0.04338,0.0022 0.08675,0.0044 0.13013,0.0066 0.04338,0.0022 0.08675,0.0045 0.130131,0.0067 0.04338,0.0023 0.08675,0.0046 0.13013,0.0069 0.04338,0.0023 0.08675,0.0047 0.13013,0.007 0.04338,0.0024 0.08675,0.0048 0.13013,0.0072 0.04338,0.0024 0.08675,0.0049 0.13013,0.0073 0.04338,0.0025 0.08675,0.0049 0.13013,0.0075 0.04338,0.0025 0.08675,0.005 0.13013,0.0076 0.04338,0.0026 0.08675,0.0051 0.13013,0.0077 0.04338,0.0026 0.08675,0.0052 0.130131,0.0079 0.04338,0.0027 0.08675,0.0053 0.13013,0.008 0.04338,0.0027 0.08675,0.0054 0.13013,0.0082 0.04338,0.0027 0.08675,0.0055 0.13013,0.0083 0.04338,0.0028 0.08675,0.0056 0.13013,0.0085 0.04338,0.0028 0.08675,0.0057 0.13013,0.0086 0.04338,0.0029 0.08675,0.0058 0.13013,0.0087 0.04338,0.0029 0.08675,0.0059 0.130131,0.0089 0.04338,0.003 0.08675,0.006 0.13013,0.009 0.04338,0.003 0.08675,0.0061 0.13013,0.0092 0.04338,0.0031 0.08675,0.0062 0.13013,0.0093 0.04338,0.0031 0.08675,0.0063 0.13013,0.0095 0.04338,0.0032 0.08675,0.0064 0.13013,0.0096 0.04338,0.0032 0.08675,0.0065 0.13013,0.0097 0.04338,0.0033 0.08675,0.0066 0.13013,0.0099 0.04338,0.0033 0.08675,0.0067 0.130131,0.01002 0.04338,0.0034 0.08675,0.0068 0.13013,0.01017 0.04338,0.0034 0.08675,0.0069 0.13013,0.01031 0.04338,0.0035 0.08675,0.0069 0.13013,0.01045 0.04338,0.0035 0.08675,0.007 0.13013,0.0106 0.04338,0.0036 0.08675,0.0071 0.13013,0.01074 0.04338,0.0036 0.08675,0.0072 0.13013,0.01088 0.04338,0.0037 0.08675,0.0073 0.13013,0.01103 0.04338,0.0037 0.08675,0.0074 0.130131,0.01117 0.04338,0.0037 0.08675,0.0075 0.13013,0.01131 0.04338,0.0038 0.08675,0.0076 0.13013,0.01146 0.04338,0.0038 0.08675,0.0077 0.13013,0.0116 0.04338,0.0039 0.08675,0.0078 0.13013,0.01174 0.04338,0.0039 0.08675,0.0079 0.13013,0.01189 0.04338,0.004 0.08675,0.008 0.13013,0.01203 0.04338,0.004 0.08675,0.0081 0.130131,0.01217 0.04338,0.0041 0.08675,0.0082 0.13013,0.01232 0.04338,0.0041 0.08675,0.0083 0.13013,0.01246 0.04338,0.0042 0.08675,0.0084 0.13013,0.0126 0.04338,0.0042 0.08675,0.0085 0.13013,0.01275 0.04338,0.0043 0.08675,0.0086 0.13013,0.01289 0.04338,0.0043 0.08675,0.0087 0.13013,0.01303 0.04338,0.0044 0.08675,0.0088 0.13013,0.01318 0.04338,0.0044 0.08675,0.0089 0.130131,0.01332 0.04338,0.0045 0.08675,0.009 0.13013,0.01346 0.04338,0.0045 0.08675,0.009 0.13013,0.01361 0.04338,0.0046 0.08675,0.0091 0.13013,0.01375 0.04338,0.0046 0.08675,0.0092 0.13013,0.0139 0.04338,0.0047 0.08675,0.0093 0.13013,0.01404 0.04338,0.0047 0.08675,0.0094 0.13013,0.01418 0.04338,0.0048 0.08675,0.0095 0.13013,0.01433 0.04338,0.0048 0.08675,0.0096 0.130131,0.01447 0.04338,0.0048 0.08675,0.0097 0.13013,0.01462 0.04338,0.0049 0.08675,0.0098 0.13013,0.01476 0.04338,0.0049 0.08675,0.0099 0.13013,0.0149 0.04338,0.005 0.08675,0.01001 0.13013,0.01505 0.04338,0.005 0.08675,0.0101 0.13013,0.01519 0.04338,0.0051 0.08675,0.0102 0.13013,0.01534 0.04338,0.0051 0.08675,0.0103 0.130131,0.01548 0.04338,0.0052 0.08675,0.01039 0.13013,0.01563 0.04338,0.0052 0.08675,0.01049 0.13013,0.01577 0.04338,0.0053 0.08675,0.01059 0.13013,0.01591 0.04338,0.0053 0.08675,0.01068 0.13013,0.01606 0.04338,0.0054 0.08675,0.01078 0.13013,0.0162 0.04338,0.0054 0.08675,0.01087 0.13013,0.01635 0.04338,0.0055 0.08675,0.01097 0.13013,0.01649 0.04338,0.0055 0.08675,0.01107 0.130131,0.01664 0.04338,0.0056 0.08675,0.01116 0.13013,0.01678 0.04338,0.0056 0.08675,0.01126 0.13013,0.01693 0.04338,0.0057 0.08675,0.01136 0.13013,0.01707 0.04338,0.0057 0.08675,0.01145 0.13013,0.01722 0.04338,0.0058 0.08675,0.01155 0.13013,0.01736 0.04338,0.0058 0.08675,0.01165 0.13013,0.01751 0.04338,0.0059 0.08675,0.01174 0.13013,0.01765 0.04338,0.0059 0.08675,0.01184 0.130131,0.0178 0.04338,0.006 0.08675,0.01194 0.13013,0.01794 0.04338,0.006 0.08675,0.01203 0.13013,0.01809 0.04338,0.0061 0.08675,0.01213 0.13013,0.01823 0.04338,0.0061 0.08675,0.01223 0.13013,0.01838 0.04338,0.0062 0.08675,0.01233 0.13013,0.01852 0.04338,0.0062 0.08675,0.01242 0.13013,0.01867 0.04338,0.0062 0.08675,0.01252 0.130131,0.01881 0.04338,0.0063 0.08675,0.01262 0.13013,0.01896 0.04338,0.0063 0.08675,0.01271 0.13013,0.0191 0.04338,0.0064 0.08675,0.01281 0.13013,0.01925 0.04338,0.0064 0.08675,0.01291 0.13013,0.0194 0.04338,0.0065 0.08675,0.013 0.13013,0.01954 0.04338,0.0065 0.08675,0.0131 0.13013,0.01969 0.04338,0.0066 0.08675,0.0132 0.13013,0.01984 0.04338,0.0066 0.08675,0.0133 0.130131,0.01998 0.04338,0.0067 0.08675,0.01339 0.13013,0.02013 0.04338,0.0067 0.08675,0.01349 0.13013,0.02027 0.04338,0.0068 0.08675,0.01359 0.13013,0.02042 0.04338,0.0068 0.08675,0.01369 0.13013,0.02057 0.04338,0.0069 0.08675,0.01378 0.13013,0.02071 0.04338,0.0069 0.08675,0.01388 0.13013,0.02086 0.04338,0.007 0.08675,0.01398 0.13013,0.021 0.04338,0.007 0.08675,0.01408 0.130131,0.02115 0.04338,0.0071 0.08675,0.01417 0.13013,0.0213 0.04338,0.0071 0.08675,0.01427 0.13013,0.02144 0.04338,0.0072 0.08675,0.01437 0.13013,0.02159 0.04338,0.0072 0.08675,0.01447 0.13013,0.02174 0.04338,0.0073 0.08675,0.01457 0.13013,0.02188 0.04338,0.0073 0.08675,0.01466 0.13013,0.02203 0.04338,0.0074 0.08675,0.01476 0.130131,0.02218 0.04338,0.0074 0.08675,0.01486 0.13013,0.02233 0.04338,0.0075 0.08675,0.01496 0.13013,0.02247 0.04338,0.0075 0.08675,0.01506 0.13013,0.02262 0.04338,0.0076 0.08675,0.01515 0.13013,0.02277 0.04338,0.0076 0.08675,0.01525 0.13013,0.02291 0.04338,0.0077 0.08675,0.01535 0.13013,0.02306 0.04338,0.0077 0.08675,0.01545 0.13013,0.02321 0.04338,0.0078 0.08675,0.01555 0.130131,0.02336 0.04338,0.0078 0.08675,0.01565 0.13013,0.0235 0.04338,0.0079 0.08675,0.01574 0.13013,0.02365 0.04338,0.0079 0.08675,0.01584 0.13013,0.0238 0.04338,0.008 0.08675,0.01594 0.13013,0.02395 0.04338,0.008 0.08675,0.01604 0.13013,0.0241 0.04338,0.0081 0.08675,0.01614 0.13013,0.02424 0.04338,0.0081 0.08675,0.01624 0.13013,0.02439 0.04338,0.0082 0.08675,0.01633 0.130131,0.02454 0.04338,0.0082 0.08675,0.01643 0.13013,0.02469 0.04338,0.0083 0.08675,0.01653 0.13013,0.02484 0.04338,0.0083 0.08675,0.01663 0.13013,0.02498 0.04338,0.0084 0.08675,0.01673 0.13013,0.02513 0.04338,0.0084 0.08675,0.01683 0.13013,0.02528 0.04338,0.0085 0.08675,0.01693 0.13013,0.02543 0.04338,0.0085 0.08675,0.01703 0.13013,0.02558 0.04338,0.0086 0.08675,0.01713 0.130131,0.02573 0.04338,0.0086 0.08675,0.01723 0.13013,0.02588 0.04338,0.0087 0.08675,0.01732 0.13013,0.02602 0.04338,0.0087 0.08675,0.01742 0.13013,0.02617 0.04338,0.0087 0.08675,0.01752 0.13013,0.02632 0.04338,0.0088 0.08675,0.01762 0.13013,0.02647 0.04338,0.0088 0.08675,0.01772 0.13013,0.02662 0.04338,0.0089 0.08675,0.01782 0.130131,0.02677 0.04338,0.0089 0.08675,0.01792 0.13013,0.02692 0.04338,0.009 0.08675,0.01802 0.13013,0.02707 0.04338,0.009 0.08675,0.01812 0.13013,0.02722 0.04338,0.0091 0.08675,0.01822 0.13013,0.02737 0.04338,0.0091 0.08675,0.01832 0.13013,0.02752 0.04338,0.0092 0.08675,0.01842 0.13013,0.02767 0.04338,0.0092 0.08675,0.01852 0.13013,0.02782 0.04338,0.0093 0.08675,0.01862 0.130131,0.02797 0.04338,0.0093 0.08675,0.01872 0.13013,0.02812 0.04338,0.0094 0.08675,0.01882 0.13013,0.02827 0.04338,0.0094 0.08675,0.01892 0.13013,0.02842 0.04338,0.0095 0.08675,0.01902 0.13013,0.02857 0.04338,0.0095 0.08675,0.01912 0.13013,0.02872 0.04338,0.0096 0.08675,0.01922 0.13013,0.02887 0.04338,0.0096 0.08675,0.01932 0.13013,0.02902 0.04338,0.0097 0.08675,0.01942 0.130131,0.02917 0.04338,0.0097 0.08675,0.01952 0.13013,0.02932 0.04338,0.0098 0.08675,0.01962 0.13013,0.02947 0.04338,0.0099 0.08675,0.01972 0.13013,0.02962 0.04338,0.0099 0.08675,0.01983 0.13013,0.02978 0.04338,0.01 0.08675,0.01993 0.13013,0.02993 0.04338,0.01 0.08675,0.02003 0.13013,0.03008 0.04338,0.01005 0.08675,0.02013 0.130131,0.03023 0.04338,0.0101 0.08675,0.02023 0.13013,0.03038 0.04338,0.01015 0.08675,0.02033 0.13013,0.03053 0.04338,0.0102 0.08675,0.02043 0.13013,0.03068 0.04338,0.01025 0.08675,0.02053 0.13013,0.03083 0.04338,0.0103 0.08675,0.02063 0.13013,0.03099 0.04338,0.01036 0.08675,0.02074 0.13013,0.03114 0.04338,0.0104 0.08675,0.02083 0.13013,0.03129 0.04338,0.01046 0.08675,0.02094 0.130131,0.03144 0.04338,0.01051 0.08675,0.02104 0.13013,0.0316 0.04338,0.01056 0.08675,0.02114 0.13013,0.03175 0.04338,0.01061 0.08675,0.02124 0.13013,0.0319 0.04338,0.01066 0.08675,0.02134 0.13013,0.03205 0.04338,0.01071 0.08675,0.02145 0.13013,0.03221 0.04338,0.01076 0.08675,0.02155 0.13013,0.03236 0.04338,0.01081 0.08675,0.02165 0.13013,0.03251 0.04338,0.01086 0.08675,0.02175 0.130131,0.03266 0.04338,0.01091 0.08675,0.02185 0.13013,0.03282 0.04338,0.01096 0.08675,0.02195 0.13013,0.03297 0.04338,0.01102 0.08675,0.02206 0.13013,0.03312 0.04338,0.01107 0.08675,0.02216 0.13013,0.03328 0.04338,0.01112 0.08675,0.02226 0.13013,0.03343 0.04338,0.01117 0.08675,0.02236 0.13013,0.03359 0.04338,0.01122 0.08675,0.02247 0.130131,0.03374 0.04338,0.01127 0.08675,0.02257 0.13013,0.03389 0.04338,0.01132 0.08675,0.02267 0.13013,0.03405 0.04338,0.01137 0.08675,0.02277 0.13013,0.0342 0.04338,0.01143 0.08675,0.02288 0.13013,0.03436 0.04338,0.01148 0.08675,0.02298 0.13013,0.03451 0.04338,0.01153 0.08675,0.02308 0.13013,0.03466 0.04338,0.01158 0.08675,0.02319 0.13013,0.03482 0.04338,0.01163 0.08675,0.02329 0.130131,0.03497 0.04338,0.01168 0.08675,0.02339 0.13013,0.03513 0.04338,0.01174 0.08675,0.0235 0.13013,0.03528 0.04338,0.01179 0.08675,0.0236 0.13013,0.03544 0.04338,0.01184 0.08675,0.0237 0.13013,0.03559 0.04338,0.01189 0.08675,0.02381 0.13013,0.03575 0.04338,0.01194 0.08675,0.02391 0.13013,0.0359 0.04338,0.01199 0.08675,0.02401 0.13013,0.03606 0.04338,0.01205 0.08675,0.02412 0.130131,0.03622 0.04338,0.0121 0.08675,0.02422 0.13013,0.03637 0.04338,0.01215 0.08675,0.02433 0.13013,0.03653 0.04338,0.0122 0.08675,0.02443 0.13013,0.03668 0.04338,0.01225 0.08675,0.02453 0.13013,0.03684 0.04338,0.01231 0.08675,0.02464 0.13013,0.03699 0.04338,0.01236 0.08675,0.02474 0.13013,0.03715 0.04338,0.01241 0.08675,0.02484 0.130131,0.03731 0.04338,0.01246 0.08675,0.02495 0.13013,0.03746 0.04338,0.01251 0.08675,0.02506 0.13013,0.03762 0.04338,0.01257 0.08675,0.02516 0.13013,0.03778 0.04338,0.01262 0.08675,0.02526 0.13013,0.03794 0.04338,0.01267 0.08675,0.02537 0.13013,0.03809 0.04338,0.01272 0.08675,0.02547 0.13013,0.03825 0.04338,0.01278 0.08675,0.02558 0.13013,0.03841 0.04338,0.01283 0.08675,0.02568 0.130131,0.03856 0.04338,0.01288 0.08675,0.02579 0.13013,0.03872 0.04338,0.01293 0.08675,0.02589 0.13013,0.03888 0.04338,0.01299 0.08675,0.026 0.13013,0.03904 0.04338,0.01304 0.08675,0.0261 0.13013,0.0392 0.04338,0.01309 0.08675,0.02621 0.13013,0.03935 0.04338,0.01314 0.08675,0.02631 0.13013,0.03951 0.04338,0.0132 0.08675,0.02642 0.13013,0.03967 0.04338,0.01325 0.08675,0.02653 0.130131,0.03983 0.04338,0.0133 0.08675,0.02663 0.13013,0.03999 0.04338,0.01336 0.08675,0.02674 0.13013,0.04015 0.04338,0.01341 0.08675,0.02684 0.13013,0.04031 0.04338,0.01346 0.08675,0.02695 0.13013,0.04046 0.04338,0.01351 0.08675,0.02706 0.13013,0.04062 0.04338,0.01357 0.08675,0.02716 0.13013,0.04078 0.04338,0.01362 0.08675,0.02727 0.130131,0.04094 0.04338,0.01367 0.08675,0.02738 0.13013,0.0411 0.04338,0.01373 0.08675,0.02748 0.13013,0.04126 0.04338,0.01378 0.08675,0.02759 0.13013,0.04142 0.04338,0.01383 0.08675,0.02769 0.13013,0.04158 0.04338,0.01389 0.08675,0.0278 0.13013,0.04174 0.04338,0.01394 0.08675,0.02791 0.13013,0.0419 0.04338,0.01399 0.08675,0.02802 0.13013,0.04206 0.04338,0.01405 0.08675,0.02812 0.130131,0.04222 0.04338,0.0141 0.08675,0.02823 0.13013,0.04239 0.04338,0.01415 0.08675,0.02834 0.13013,0.04255 0.04338,0.01421 0.08675,0.02844 0.13013,0.04271 0.04338,0.01426 0.08675,0.02855 0.13013,0.04287 0.04338,0.01432 0.08675,0.02866 0.13013,0.04303 0.04338,0.01437 0.08675,0.02877 0.13013,0.04319 0.04338,0.01443 0.08675,0.02888 0.13013,0.04335 0.04338,0.01448 0.08675,0.02898 0.130131,0.04351 0.04338,0.01453 0.08675,0.02909 0.13013,0.04368 0.04338,0.01459 0.08675,0.0292 0.13013,0.04384 0.04338,0.01464 0.08675,0.02931 0.13013,0.044 0.04338,0.01469 0.08675,0.02942 0.13013,0.04416 0.04338,0.01475 0.08675,0.02952 0.13013,0.04433 0.04338,0.0148 0.08675,0.02963 0.13013,0.04449 0.04338,0.01486 0.08675,0.02974 0.130131,0.04465 0.04338,0.01491 0.08675,0.02985 0.13013,0.04482 0.04338,0.01497 0.08675,0.02996 0.13013,0.04498 0.04338,0.01502 0.08675,0.03007 0.13013,0.04514 0.04338,0.01507 0.08675,0.03018 0.13013,0.04531 0.04338,0.01513 0.08675,0.03029 0.13013,0.04547 0.04338,0.01518 0.08675,0.03039 0.13013,0.04563 0.04338,0.01524 0.08675,0.0305 0.13013,0.0458 0.04338,0.01529 0.08675,0.03061 0.130131,0.04596 0.04338,0.01535 0.08675,0.03072 0.13013,0.04613 0.04338,0.0154 0.08675,0.03083 0.13013,0.04629 0.04338,0.01546 0.08675,0.03094 0.13013,0.04646 0.04338,0.01551 0.08675,0.03105 0.13013,0.04662 0.04338,0.01557 0.08675,0.03116 0.13013,0.04679 0.04338,0.01562 0.08675,0.03127 0.13013,0.04695 0.04338,0.01568 0.08675,0.03138 0.13013,0.04712 0.04338,0.01573 0.08675,0.03149 0.130131,0.04728 0.04338,0.01579 0.08675,0.0316 0.13013,0.04745 0.04338,0.01584 0.08675,0.03172 0.13013,0.04761 0.04338,0.0159 0.08675,0.03183 0.13013,0.04778 0.04338,0.01595 0.08675,0.03194 0.13013,0.04795 0.04338,0.01601 0.08675,0.03205 0.13013,0.04811 0.04338,0.01606 0.08675,0.03216 0.13013,0.04828 0.04338,0.01612 0.08675,0.03227 0.13013,0.04845 0.04338,0.01618 0.08675,0.03238 0.130131,0.04861 0.04338,0.01623 0.08675,0.03249 0.13013,0.04878 0.04338,0.01629 0.08675,0.0326 0.13013,0.04895 0.04338,0.01634 0.08675,0.03272 0.13013,0.04912 0.04338,0.0164 0.08675,0.03283 0.13013,0.04928 0.04338,0.01646 0.08675,0.03294 0.13013,0.04945 0.04338,0.01651 0.08675,0.03305 0.13013,0.04962 0.04338,0.01657 0.08675,0.03316 0.130131,0.04979 0.04338,0.01662 0.08675,0.03328 0.13013,0.04996 0.04338,0.01668 0.08675,0.03339 0.13013,0.05012 0.04338,0.01674 0.08675,0.0335 0.13013,0.05029 0.04338,0.01679 0.08675,0.03361 0.13013,0.05046 0.04338,0.01685 0.08675,0.03373 0.13013,0.05063 0.04338,0.01691 0.08675,0.03384 0.13013,0.0508 0.04338,0.01696 0.08675,0.03395 0.13013,0.05097 0.04338,0.01702 0.08675,0.03407 0.130131,0.05114 0.04338,0.01708 0.08675,0.03418 0.13013,0.05131 0.04338,0.01713 0.08675,0.03429 0.13013,0.05148 0.04338,0.01719 0.08675,0.0344 0.13013,0.05165 0.04338,0.01725 0.08675,0.03452 0.13013,0.05182 0.04338,0.0173 0.08675,0.03463 0.13013,0.05199 0.04338,0.01736 0.08675,0.03475 0.13013,0.05216 0.04338,0.01742 0.08675,0.03486 0.13013,0.05233 0.04338,0.01747 0.08675,0.03498 0.130131,0.05251 0.04338,0.01753 0.08675,0.03509 0.13013,0.05268 0.04338,0.01759 0.08675,0.0352 0.13013,0.05285 0.04338,0.01765 0.08675,0.03532 0.13013,0.05302 0.04338,0.0177 0.08675,0.03543 0.13013,0.05319 0.04338,0.01776 0.08675,0.03555 0.13013,0.05337 0.04338,0.01782 0.08675,0.03566 0.13013,0.05354 0.04338,0.01787 0.08675,0.03578 0.130131,0.05371 0.04338,0.01793 0.08675,0.03589 0.13013,0.05388 0.04338,0.01799 0.08675,0.03601 0.13013,0.05406 0.04338,0.01805 0.08675,0.03612 0.13013,0.05423 0.04338,0.01811 0.08675,0.03624 0.13013,0.0544 0.04338,0.01816 0.08675,0.03636 0.13013,0.05458 0.04338,0.01822 0.08675,0.03647 0.13013,0.05475 0.04338,0.01828 0.08675,0.03659 0.13013,0.05492 0.04338,0.01834 0.08675,0.0367 0.130131,0.0551 0.04338,0.0184 0.08675,0.03682 0.13013,0.05528 0.04338,0.01845 0.08675,0.03694 0.13013,0.05545 0.04338,0.01851 0.08675,0.03705 0.13013,0.05563 0.04338,0.01857 0.08675,0.03717 0.13013,0.0558 0.04338,0.01863 0.08675,0.03729 0.13013,0.05598 0.04338,0.01869 0.08675,0.0374 0.13013,0.05615 0.04338,0.01875 0.08675,0.03752 0.13013,0.05633 0.04338,0.01881 0.08675,0.03764 0.130131,0.0565 0.04338,0.01886 0.08675,0.03776 0.13013,0.05668 0.04338,0.01892 0.08675,0.03787 0.13013,0.05686 0.04338,0.01898 0.08675,0.03799 0.13013,0.05703 0.04338,0.01904 0.08675,0.03811 0.13013,0.05721 0.04338,0.0191 0.08675,0.03823 0.13013,0.05739 0.04338,0.01916 0.08675,0.03835 0.13013,0.05756 0.04338,0.01922 0.08675,0.03847 0.130131,0.05774 0.04338,0.01928 0.08675,0.03858 0.13013,0.05792 0.04338,0.01934 0.08675,0.0387 0.13013,0.0581 0.04338,0.0194 0.08675,0.03882 0.13013,0.05828 0.04338,0.01946 0.08675,0.03894 0.13013,0.05846 0.04338,0.01951 0.08675,0.03906 0.13013,0.05863 0.04338,0.01957 0.08675,0.03918 0.13013,0.05881 0.04338,0.01964 0.08675,0.0393 0.13013,0.05899 0.04338,0.01969 0.08675,0.03942 0.130131,0.05917 0.04338,0.01975 0.08675,0.03954 0.13013,0.05935 0.04338,0.01981 0.08675,0.03966 0.13013,0.05953 0.04338,0.01987 0.08675,0.03978 0.13013,0.05971 0.04338,0.01993 0.08675,0.0399 0.13013,0.05989 0.04338,0.01999 0.08675,0.04002 0.13013,0.06007 0.04338,0.02005 0.08675,0.04014 0.13013,0.06026 0.04338,0.02012 0.08675,0.04026 0.13013,0.06044 0.04338,0.02018 0.08675,0.04038 0.130131,0.06062 0.04338,0.02024 0.08675,0.0405 0.13013,0.0608 0.04338,0.0203 0.08675,0.04062 0.13013,0.06098 0.04338,0.02036 0.08675,0.04075 0.13013,0.06117 0.04338,0.02042 0.08675,0.04087 0.13013,0.06135 0.04338,0.02048 0.08675,0.04099 0.13013,0.06153 0.04338,0.02054 0.08675,0.04111 0.13013,0.06171 0.04338,0.0206 0.08675,0.04123 0.130131,0.0619 0.04338,0.02066 0.08675,0.04136 0.13013,0.06208 0.04338,0.02072 0.08675,0.04148 0.13013,0.06226 0.04338,0.02079 0.08675,0.0416 0.13013,0.06245 0.04338,0.02085 0.08675,0.04172 0.13013,0.06263 0.04338,0.02091 0.08675,0.04185 0.13013,0.06282 0.04338,0.02097 0.08675,0.04197 0.13013,0.063 0.04338,0.02103 0.08675,0.04209 0.13013,0.06319 0.04338,0.02109 0.08675,0.04222 0.130131,0.06337 0.04338,0.02116 0.08675,0.04234 0.13013,0.06356 0.04338,0.02122 0.08675,0.04247 0.13013,0.06374 0.04338,0.02128 0.08675,0.04259 0.13013,0.06393 0.04338,0.02134 0.08675,0.04271 0.13013,0.06412 0.04338,0.0214 0.08675,0.04284 0.13013,0.0643 0.04338,0.02147 0.08675,0.04296 0.13013,0.06449 0.04338,0.02153 0.08675,0.04309 0.13013,0.06468 0.04338,0.02159 0.08675,0.04321 0.130131,0.06487 0.04338,0.02165 0.08675,0.04334 0.13013,0.06505 0.04338,0.02172 0.08675,0.04346 0.13013,0.06524 0.04338,0.02178 0.08675,0.04359 0.13013,0.06543 0.04338,0.02184 0.08675,0.04371 0.13013,0.06562 0.04338,0.0219 0.08675,0.04384 0.13013,0.06581 0.04338,0.02197 0.08675,0.04397 0.13013,0.066 0.04338,0.02203 0.08675,0.04409 0.130131,0.06619 0.04338,0.02209 0.08675,0.04422 0.13013,0.06638 0.04338,0.02216 0.08675,0.04435 0.13013,0.06657 0.04338,0.02222 0.08675,0.04447 0.13013,0.06676 0.04338,0.02228 0.08675,0.0446 0.13013,0.06695 0.04338,0.02235 0.08675,0.04473 0.13013,0.06714 0.04338,0.02241 0.08675,0.04485 0.13013,0.06733 0.04338,0.02248 0.08675,0.04498 0.13013,0.06752 0.04338,0.02254 0.08675,0.04511 0.130131,0.06771 0.04338,0.0226 0.08675,0.04524 0.13013,0.0679 0.04338,0.02267 0.08675,0.04537 0.13013,0.0681 0.04338,0.02273 0.08675,0.0455 0.13013,0.06829 0.04338,0.0228 0.08675,0.04562 0.13013,0.06848 0.04338,0.02286 0.08675,0.04575 0.13013,0.06868 0.04338,0.02292 0.08675,0.04588 0.13013,0.06887 0.04338,0.02299 0.08675,0.04601 0.13013,0.06907 0.04338,0.02305 0.08675,0.04614 0.130131,0.06926 0.04338,0.02312 0.08675,0.04627 0.13013,0.06945 0.04338,0.02318 0.08675,0.0464 0.13013,0.06965 0.04338,0.02325 0.08675,0.04653 0.13013,0.06984 0.04338,0.02331 0.08675,0.04666 0.13013,0.07004 0.04338,0.02338 0.08675,0.04679 0.13013,0.07023 0.04338,0.02344 0.08675,0.04692 0.13013,0.07043 0.04338,0.02351 0.08675,0.04705 0.130131,0.07063 0.04338,0.02358 0.08675,0.04718 0.13013,0.07082 0.04338,0.02364 0.08675,0.04731 0.13013,0.07102 0.04338,0.02371 0.08675,0.04745 0.13013,0.07122 0.04338,0.02377 0.08675,0.04758 0.13013,0.07142 0.04338,0.02384 0.08675,0.04771 0.13013,0.07161 0.04338,0.0239 0.08675,0.04784 0.13013,0.07181 0.04338,0.02397 0.08675,0.04797 0.13013,0.07201 0.04338,0.02404 0.08675,0.04811 0.130131,0.07221 0.04338,0.0241 0.08675,0.04824 0.13013,0.07241 0.04338,0.02417 0.08675,0.04837 0.13013,0.07261 0.04338,0.02424 0.08675,0.04851 0.13013,0.07281 0.04338,0.0243 0.08675,0.04864 0.13013,0.07301 0.04338,0.02437 0.08675,0.04878 0.13013,0.07321 0.04338,0.02444 0.08675,0.04891 0.13013,0.07341 0.04338,0.02451 0.08675,0.04904 0.13013,0.07362 0.04338,0.02457 0.08675,0.04918 0.130131,0.07382 0.04338,0.02464 0.08675,0.04931 0.13013,0.07402 0.04338,0.02471 0.08675,0.04945 0.13013,0.07422 0.04338,0.02478 0.08675,0.04958 0.13013,0.07443 0.04338,0.02484 0.08675,0.04972 0.13013,0.07463 0.04338,0.02491 0.08675,0.04985 0.13013,0.07483 0.04338,0.02498 0.08675,0.04999 0.13013,0.07504 0.04338,0.02505 0.08675,0.05013 0.13013,0.07524 0.04338,0.02511 0.08675,0.05026 0.130131,0.07545 0.04338,0.02518 0.08675,0.0504 0.13013,0.07565 0.04338,0.02525 0.08675,0.05054 0.13013,0.07586 0.04338,0.02532 0.08675,0.05067 0.13013,0.07606 0.04338,0.02539 0.08675,0.05081 0.13013,0.07627 0.04338,0.02546 0.08675,0.05095 0.13013,0.07647 0.04338,0.02553 0.08675,0.05109 0.13013,0.07668 0.04338,0.0256 0.08675,0.05122 0.130131,0.07689 0.04338,0.02566 0.08675,0.05136 0.13013,0.0771 0.04338,0.02573 0.08675,0.0515 0.13013,0.0773 0.04338,0.0258 0.08675,0.05164 0.13013,0.07751 0.04338,0.02587 0.08675,0.05178 0.13013,0.07772 0.04338,0.02594 0.08675,0.05192 0.13013,0.07793 0.04338,0.02601 0.08675,0.05206 0.13013,0.07814 0.04338,0.02608 0.08675,0.0522 0.13013,0.07835 0.04338,0.02615 0.08675,0.05234 0.130131,0.07856 0.04338,0.02622 0.08675,0.05248 0.13013,0.07877 0.04338,0.02629 0.08675,0.05262 0.13013,0.07898 0.04338,0.02636 0.08675,0.05276 0.13013,0.07919 0.04338,0.02643 0.08675,0.0529 0.13013,0.07941 0.04338,0.0265 0.08675,0.05304 0.13013,0.07962 0.04338,0.02657 0.08675,0.05318 0.13013,0.07983 0.04338,0.02665 0.08675,0.05333 0.13013,0.08004 0.04338,0.02672 0.08675,0.05347 0.130131,0.08026 0.04338,0.02679 0.08675,0.05361 0.13013,0.08047 0.04338,0.02686 0.08675,0.05375 0.13013,0.08069 0.04338,0.02693 0.08675,0.0539 0.13013,0.0809 0.04338,0.027 0.08675,0.05404 0.13013,0.08112 0.04338,0.02707 0.08675,0.05418 0.13013,0.08133 0.04338,0.02715 0.08675,0.05433 0.13013,0.08155 0.04338,0.02722 0.08675,0.05447 0.130131,0.08176 0.04338,0.02729 0.08675,0.05462 0.13013,0.08198 0.04338,0.02736 0.08675,0.05476 0.13013,0.0822 0.04338,0.02744 0.08675,0.05491 0.13013,0.08242 0.04338,0.02751 0.08675,0.05505 0.13013,0.08263 0.04338,0.02758 0.08675,0.0552 0.13013,0.08285 0.04338,0.02765 0.08675,0.05535 0.13013,0.08307 0.04338,0.02773 0.08675,0.05549 0.13013,0.08329 0.04338,0.0278 0.08675,0.05564 0.130131,0.08351 0.04338,0.02787 0.08675,0.05578 0.13013,0.08373 0.04338,0.02795 0.08675,0.05593 0.13013,0.08395 0.04338,0.02802 0.08675,0.05608 0.13013,0.08417 0.04338,0.02809 0.08675,0.05623 0.13013,0.0844 0.04338,0.02817 0.08675,0.05637 0.13013,0.08462 0.04338,0.02824 0.08675,0.05652 0.13013,0.08484 0.04338,0.02832 0.08675,0.05667 0.13013,0.08506 0.04338,0.02839 0.08675,0.05682 0.130131,0.08529 0.04338,0.02847 0.08675,0.05697 0.13013,0.08551 0.04338,0.02854 0.08675,0.05712 0.13013,0.08573 0.04338,0.02861 0.08675,0.05727 0.13013,0.08596 0.04338,0.02869 0.08675,0.05742 0.13013,0.08619 0.04338,0.02877 0.08675,0.05757 0.13013,0.08641 0.04338,0.02884 0.08675,0.05772 0.13013,0.08664 0.04338,0.02892 0.08675,0.05787 0.130131,0.08686 0.04338,0.02899 0.08675,0.05802 0.13013,0.08709 0.04338,0.02907 0.08675,0.05817 0.13013,0.08732 0.04338,0.02914 0.08675,0.05833 0.13013,0.08755 0.04338,0.02922 0.08675,0.05848 0.13013,0.08778 0.04338,0.0293 0.08675,0.05863 0.13013,0.08801 0.04338,0.02937 0.08675,0.05878 0.13013,0.08823 0.04338,0.02945 0.08675,0.05894 0.13013,0.08846 0.04338,0.02953 0.08675,0.05909 0.130131,0.0887 0.04338,0.0296 0.08675,0.05925 0.13013,0.08893 0.04338,0.02968 0.08675,0.0594 0.13013,0.08916 0.04338,0.02976 0.08675,0.05956 0.13013,0.08939 0.04338,0.02984 0.08675,0.05971 0.13013,0.08962 0.04338,0.02991 0.08675,0.05987 0.13013,0.08986 0.04338,0.02999 0.08675,0.06002 0.13013,0.09009 0.04338,0.03007 0.08675,0.06018 0.13013,0.09032 0.04338,0.03015 0.08675,0.06033 0.130131,0.09056 0.04338,0.03023 0.08675,0.06049 0.13013,0.09079 0.04338,0.0303 0.08675,0.06065 0.13013,0.09103 0.04338,0.03038 0.08675,0.06081 0.13013,0.09127 0.04338,0.03046 0.08675,0.06096 0.13013,0.0915 0.04338,0.03054 0.08675,0.06112 0.13013,0.09174 0.04338,0.03062 0.08675,0.06128 0.13013,0.09198 0.04338,0.0307 0.08675,0.06144 0.130131,0.09222 0.04338,0.03078 0.08675,0.0616 0.13013,0.09246 0.04338,0.03086 0.08675,0.06176 0.13013,0.0927 0.04338,0.03094 0.08675,0.06192 0.13013,0.09294 0.04338,0.03102 0.08675,0.06208 0.13013,0.09318 0.04338,0.0311 0.08675,0.06224 0.13013,0.09342 0.04338,0.03118 0.08675,0.0624 0.13013,0.09366 0.04338,0.03126 0.08675,0.06256 0.13013,0.0939 0.04338,0.03134 0.08675,0.06272 0.130131,0.09414 0.04338,0.03142 0.08675,0.06289 0.13013,0.09439 0.04338,0.0315 0.08675,0.06305 0.13013,0.09463 0.04338,0.03159 0.08675,0.06321 0.13013,0.09488 0.04338,0.03167 0.08675,0.06337 0.13013,0.09512 0.04338,0.03175 0.08675,0.06354 0.13013,0.09537 0.04338,0.03183 0.08675,0.0637 0.13013,0.09561 0.04338,0.03191 0.08675,0.06387 0.13013,0.09586 0.04338,0.03199 0.08675,0.06403 0.130131,0.09611 0.04338,0.03208 0.08675,0.0642 0.13013,0.09636 0.04338,0.03216 0.08675,0.06436 0.13013,0.09661 0.04338,0.03224 0.08675,0.06453 0.13013,0.09686 0.04338,0.03233 0.08675,0.0647 0.13013,0.09711 0.04338,0.03241 0.08675,0.06486 0.13013,0.09736 0.04338,0.03249 0.08675,0.06503 0.13013,0.09761 0.04338,0.03258 0.08675,0.0652 0.130131,0.09786 0.04338,0.03266 0.08675,0.06537 0.13013,0.09811 0.04338,0.03275 0.08675,0.06553 0.13013,0.09837 0.04338,0.03283 0.08675,0.0657 0.13013,0.09862 0.04338,0.03292 0.08675,0.06587 0.13013,0.09887 0.04338,0.033 0.08675,0.06604 0.13013,0.09913 0.04338,0.03308 0.08675,0.06621 0.130134,0.09938 0.0434,0.03317 0.0868,0.06638 0.13013,0.09964 0.0434,0.03326 0.0868,0.06656 0.13013,0.0999 0.0434,0.03334 0.0867,0.06673 0.13013,0.100155 0.0434,0.03343 0.0868,0.0669 0.13014,0.100413 0.0434,0.03351 0.0867,0.06707 0.13013,0.100672 0.0434,0.0336 0.0868,0.06724 0.13013,0.100931 0.0434,0.03369 0.0867,0.06742 0.13013,0.101192 0.0434,0.03377 0.0867,0.06759 0.13013,0.101453 0.0434,0.03386 0.0868,0.06777 0.13013,0.101714 0.0434,0.03395 0.0867,0.06794 0.13014,0.101976 0.0434,0.03404 0.0868,0.06812 0.13013,0.102239 0.0434,0.03412 0.0867,0.06829 0.13013,0.102503 0.0434,0.03421 0.0868,0.06847 0.13013,0.102768 0.0434,0.0343 0.0868,0.06864 0.13013,0.103032 0.0434,0.03439 0.0867,0.06882 0.13013,0.103297 0.0434,0.03448 0.0867,0.069 0.13013,0.103565 0.0434,0.03457 0.0868,0.06918 0.13013,0.103831 0.0434,0.03466 0.0867,0.06935 0.13013,0.104098 0.0434,0.0347 0.0868,0.0695 0.13013,0.10437 0.0434,0.0348 0.0867,0.0697 0.13013,0.10463 0.0434,0.0349 0.0867,0.0699 0.13013,0.104912 0.0434,0.035 0.0868,0.0701 0.13013,0.10519 0.0434,0.0351 0.0867,0.0703 0.13013,0.10545 0.0434,0.0352 0.0868,0.0704 0.13013,0.10573 0.0434,0.0353 0.0867,0.0706 0.13013,0.10599 0.0434,0.0354 0.0868,0.0708 0.13013,0.10627 0.0434,0.0355 0.0868,0.071 0.13013,0.10654 0.0434,0.0356 0.0868,0.0712 0.13013,0.10682 0.0434,0.0357 0.0868,0.0713 0.13013,0.10709 0.0434,0.0358 0.0868,0.0715 0.13013,0.10737 0.0434,0.0358 0.0868,0.0717 0.13013,0.10765 0.0434,0.0359 0.0868,0.0719 0.13013,0.10792 0.0434,0.036 0.0868,0.0721 0.13013,0.10821 0.0434,0.0361 0.0868,0.0723 0.13013,0.10848 0.0434,0.0362 0.0868,0.0725 0.13013,0.10877 0.0434,0.0363 0.0868,0.0727 0.13013,0.10905 0.0434,0.0364 0.0868,0.0728 0.13013,0.10932 0.0434,0.0365 0.0868,0.073 0.13013,0.10962 0.0434,0.0366 0.0868,0.0732 0.13013,0.10989 0.0434,0.0367 0.0868,0.0734 0.13013,0.11018 0.0434,0.0368 0.0868,0.0736 0.13013,0.11047 0.0434,0.0369 0.0868,0.0738 0.13013,0.11075 0.0434,0.037 0.0868,0.074 0.13013,0.11104 0.0434,0.0371 0.0868,0.0742 0.13013,0.11133 0.0434,0.0371 0.0868,0.0744 0.13013,0.11161 0.0434,0.0373 0.0868,0.0746 0.13013,0.11191 0.0434,0.0374 0.0868,0.0748 0.13013,0.1122 0.0434,0.0374 0.0868,0.0749 0.13013,0.11248 0.0434,0.0375 0.0868,0.0751 0.13013,0.11278 0.0434,0.0376 0.0868,0.0753 0.13013,0.11308 0.0434,0.0377 0.0868,0.0755 0.13013,0.11336 0.0434,0.0378 0.0868,0.0757 0.13014,0.11367 0.0434,0.0379 0.0868,0.0759 0.13013,0.11395 0.0434,0.038 0.0867,0.0761 0.13013,0.11426 0.0434,0.0381 0.0867,0.0763 0.13013,0.11455 0.0434,0.0382 0.0868,0.0765 0.13013,0.11485 0.0434,0.0383 0.0867,0.0767 0.13013,0.11515 0.0434,0.0384 0.0868,0.0769 0.13013,0.11545 0.0434,0.0385 0.0867,0.0771 0.13013,0.11575 0.0434,0.0386 0.0867,0.0773 0.13013,0.11606 0.0434,0.0387 0.0867,0.0775 0.13013,0.11635 0.0434,0.0388 0.0867,0.0777 0.13013,0.11666 0.0434,0.0389 0.0868,0.0779 0.13013,0.11697 0.0434,0.039 0.0867,0.0781 0.13013,0.11727 0.0434,0.0391 0.0868,0.0783 0.13013,0.11758 0.0434,0.0392 0.0867,0.0785 0.13013,0.11789 0.0434,0.0393 0.0867,0.0787 0.13013,0.11819 0.0434,0.0395 0.0868,0.0789 0.13013,0.11851 0.0434,0.0395 0.0867,0.0792 0.13013,0.11881 0.0434,0.0397 0.0868,0.0794 0.13013,0.11913 0.0434,0.0398 0.0867,0.0796 0.13013,0.11944 0.0434,0.0399 0.0867,0.0798 0.13013,0.11976 0.0434,0.04 0.0867,0.08 0.13013,0.12007 0.0434,0.0401 0.0867,0.0802 0.13013,0.12039 0.0434,0.0402 0.0868,0.0804 0.13013,0.1207 0.0434,0.0403 0.0867,0.0806 0.13013,0.12102 0.0434,0.0404 0.0868,0.0808 0.13013,0.12134 0.0434,0.0405 0.0867,0.0811 0.13013,0.12166 0.0434,0.0406 0.0867,0.0813 0.13013,0.12198 0.0434,0.0407 0.0868,0.0815 0.13013,0.1223 0.0434,0.0408 0.0867,0.0817 0.13013,0.12263 0.0434,0.0409 0.0868,0.0819 0.13013,0.12295 0.0434,0.041 0.0867,0.0821 0.13013,0.12328 0.0434,0.0412 0.0867,0.0823 0.13013,0.1236 0.0434,0.0413 0.0867,0.0826 0.13013,0.12393 0.0434,0.0414 0.0867,0.0828 0.13013,0.12426 0.0434,0.0415 0.0868,0.083 0.13013,0.12459 0.0434,0.0416 0.0867,0.0832 0.13013,0.12492 0.0434,0.0417 0.0868,0.0834 0.13013,0.12526 0.0434,0.0418 0.0867,0.0837 0.13013,0.12558 0.0434,0.0419 0.0867,0.0839 0.13013,0.12593 0.0434,0.042 0.0868,0.0841 0.13013,0.12625 0.0434,0.0421 0.0867,0.0843 0.13013,0.1266 0.0434,0.0422 0.0868,0.0846 0.13013,0.12693 0.0434,0.0424 0.0867,0.0848 0.13013,0.12727 0.0434,0.0425 0.0867,0.085 0.13013,0.12761 0.0434,0.0426 0.0868,0.0853 0.13013,0.12795 0.0434,0.0427 0.0867,0.0855 0.13013,0.1283 0.0434,0.0428 0.0868,0.0857 0.13013,0.12864 0.0434,0.0429 0.0867,0.0859 0.13013,0.12899 0.0434,0.043 0.0868,0.0862 0.13013,0.12933 0.0434,0.0432 0.0867,0.0864 0.13013,0.12968 0.0434,0.0433 0.0867,0.0866 0.13013,0.13003 0.0434,0.0434 0.0868,0.0869 0.13013,0.13038 0.0434,0.0435 0.0868,0.0871 0.13013,0.13073 0.0434,0.0436 0.0868,0.0873 0.13013,0.13108 0.0434,0.0438 0.0868,0.0876 0.13013,0.13144 0.0434,0.0439 0.0868,0.0878 0.13013,0.1318 0.0434,0.044 0.0868,0.088 0.13013,0.13215 0.0434,0.0441 0.0868,0.0883 0.13013,0.13251 0.0434,0.0442 0.0868,0.0885 0.13013,0.13287 0.0434,0.0444 0.0868,0.0888 0.13013,0.13323 0.0434,0.0445 0.0868,0.089 0.13013,0.13359 0.0434,0.0446 0.0868,0.0892 0.13013,0.13396 0.0434,0.0447 0.0868,0.0895 0.13013,0.13432 0.0434,0.0448 0.0868,0.0897 0.13013,0.13469 0.0434,0.045 0.0868,0.09 0.13013,0.13505 0.0434,0.0451 0.0868,0.0902 0.13013,0.13543 0.0434,0.0452 0.0868,0.0905 0.13013,0.13579 0.0434,0.0453 0.0868,0.0907 0.13013,0.13617 0.0434,0.0455 0.0868,0.091 0.13013,0.13654 0.0434,0.0456 0.0868,0.0912 0.13013,0.13692 0.0434,0.0457 0.0868,0.0915 0.13013,0.1373 0.0434,0.0458 0.0868,0.0917 0.13013,0.13767 0.0434,0.046 0.0868,0.092 0.13013,0.13805 0.0434,0.0461 0.0868,0.0922 0.13013,0.13843 0.0434,0.0462 0.0868,0.0925 0.13013,0.13882 0.0434,0.0463 0.0868,0.0927 0.13013,0.1392 0.0434,0.0465 0.0868,0.093 0.13014,0.13958 0.0434,0.0466 0.0867,0.0933 0.13013,0.13997 0.0434,0.0467 0.0868,0.0935 0.13013,0.14037 0.0434,0.0468 0.0867,0.0938 0.13013,0.14075 0.0434,0.047 0.0868,0.094 0.13013,0.14114 0.0434,0.0471 0.0867,0.0943 0.13013,0.14154 0.0434,0.0472 0.0867,0.0946 0.13013,0.14193 0.0434,0.0474 0.0867,0.0948 0.13013,0.14233 0.0434,0.0475 0.0867,0.0951 0.13013,0.14273 0.0434,0.0476 0.0868,0.0953 0.13013,0.14313 0.0434,0.0478 0.0867,0.0956 0.13013,0.14353 0.0434,0.0479 0.0868,0.0959 0.13013,0.14394 0.0434,0.048 0.0867,0.0962 0.13013,0.14434 0.0434,0.0482 0.0867,0.0964 0.13013,0.14474 0.0434,0.0483 0.0868,0.0967 0.13013,0.14516 0.0434,0.0485 0.0867,0.097 0.13013,0.14557 0.0434,0.0486 0.0868,0.0973 0.13013,0.14598 0.0434,0.0487 0.0867,0.0975 0.13013,0.14639 0.0434,0.0489 0.0867,0.0978 0.13013,0.14681 0.0434,0.049 0.0867,0.0981 0.13013,0.14723 0.0434,0.0491 0.0867,0.0984 0.13013,0.14765 0.0434,0.0493 0.0868,0.0986 0.13013,0.14806 0.0434,0.0494 0.0867,0.0989 0.13013,0.1485 0.0434,0.0496 0.0868,0.0992 0.13013,0.14891 0.0434,0.0497 0.0867,0.0995 0.13013,0.14935 0.0434,0.0499 0.0867,0.0998 0.13013,0.14977 0.0434,0.05 0.0868,0.10007 0.13013,0.15021 0.0434,0.0501 0.0867,0.10035 0.13013,0.15064 0.0434,0.0503 0.0868,0.10064 0.13013,0.15107 0.0434,0.0504 0.0867,0.10093 0.13013,0.15151 0.0434,0.0506 0.0867,0.10122 0.13013,0.15195 0.0434,0.0507 0.0867,0.10152 0.13013,0.15239 0.0434,0.0509 0.0867,0.10181 0.13013,0.15283 0.0434,0.051 0.0868,0.10211 0.13013,0.15328 0.0434,0.0512 0.0867,0.10241 0.13013,0.15372 0.0434,0.0513 0.0868,0.10271 0.13013,0.15418 0.0434,0.0515 0.0867,0.10301 0.13013,0.15462 0.0434,0.0516 0.0867,0.10331 0.13013,0.15508 0.0434,0.0518 0.0868,0.10362 0.13013,0.15554 0.0434,0.0519 0.0867,0.10392 0.13013,0.15599 0.0434,0.0521 0.0868,0.10422 0.13013,0.15645 0.0434,0.0522 0.0867,0.10454 0.13013,0.15692 0.0434,0.0524 0.0867,0.10484 0.13013,0.15738 0.0434,0.0525 0.0868,0.10515 0.13013,0.15784 0.0434,0.0527 0.0867,0.10547 0.13013,0.15832 0.0434,0.0529 0.0868,0.10578 0.13013,0.15879 0.0434,0.053 0.0867,0.10609 0.13013,0.15926 0.0434,0.0532 0.0868,0.10641 0.13013,0.15974 0.0434,0.0533 0.0867,0.10673 0.13013,0.16021 0.0434,0.0535 0.0867,0.10705 0.13013,0.1607 0.0434,0.0536 0.0868,0.10737 0.13013,0.16118 0.0434,0.0538 0.0868,0.10769 0.13013,0.16166 0.0434,0.054 0.0868,0.10802 0.13013,0.16215 0.0434,0.0541 0.0868,0.10835 0.13013,0.16265 0.0434,0.0543 0.0868,0.10867 0.13013,0.16314 0.0434,0.0545 0.0868,0.109 0.13013,0.16363 0.0434,0.0546 0.0868,0.10934 0.13013,0.16413 0.0434,0.0548 0.0868,0.10967 0.13013,0.16463 0.0434,0.055 0.0868,0.11001 0.13013,0.16514 0.0434,0.0551 0.0868,0.11034 0.13013,0.16564 0.0434,0.0553 0.0868,0.11068 0.13013,0.16615 0.0434,0.0555 0.0868,0.11102 0.13013,0.16666 0.0434,0.0556 0.0868,0.11137 0.13013,0.16718 0.0434,0.0558 0.0868,0.11171 0.13013,0.16769 0.0434,0.056 0.0868,0.11206 0.13013,0.16821 0.0434,0.0562 0.0868,0.11241 0.13013,0.16874 0.0434,0.0563 0.0868,0.11275 0.13013,0.16926 0.0434,0.0565 0.0868,0.1131 0.13013,0.16979 0.0434,0.0567 0.0868,0.11346 0.13013,0.17032 0.0434,0.0569 0.0868,0.11381 0.13013,0.17085 0.0434,0.057 0.0868,0.11417 0.13013,0.17139 0.0434,0.0572 0.0868,0.11453 0.13013,0.17194 0.0434,0.0574 0.0868,0.11489 0.13013,0.17247 0.0434,0.0576 0.0868,0.11526 0.13013,0.17302 0.0434,0.0578 0.0868,0.11562 0.13013,0.17357 0.0434,0.0579 0.0868,0.11599 0.13013,0.17412 0.0434,0.0581 0.0868,0.11636 0.13013,0.17468 0.0434,0.0583 0.0868,0.11673 0.13014,0.17524 0.0434,0.0585 0.0867,0.1171 0.13013,0.1758 0.0434,0.0587 0.0868,0.11748 0.13013,0.17636 0.0434,0.0589 0.0867,0.11786 0.13013,0.17693 0.0434,0.0591 0.0867,0.11824 0.13013,0.1775 0.0434,0.0593 0.0867,0.11863 0.13013,0.17808 0.0434,0.0595 0.0867,0.11901 0.13013,0.17866 0.0434,0.0597 0.0868,0.1194 0.13013,0.17924 0.0434,0.0598 0.0867,0.11978 0.13013,0.17982 0.0434,0.06 0.0868,0.12018 0.13013,0.18042 0.0434,0.0602 0.0867,0.12057 0.13013,0.181 0.0434,0.0604 0.0867,0.12097 0.13013,0.18161 0.0434,0.0606 0.0868,0.12136 0.13013,0.1822 0.0434,0.0608 0.0867,0.12177 0.13013,0.18281 0.0434,0.061 0.0868,0.12217 0.13013,0.18341 0.0434,0.0612 0.0867,0.12258 0.13013,0.18402 0.0434,0.0614 0.0867,0.12299 0.13013,0.18464 0.0434,0.0616 0.0867,0.1234 0.13013,0.18526 0.0434,0.0618 0.0867,0.12381 0.13013,0.18588 0.0434,0.0621 0.0868,0.12423 0.13013,0.18651 0.0434,0.0623 0.0867,0.12465 0.13013,0.18713 0.0434,0.0625 0.0868,0.12508 0.13013,0.18777 0.0434,0.0627 0.0867,0.1255 0.13013,0.18841 0.0434,0.0629 0.0867,0.12593 0.13013,0.18906 0.0434,0.0631 0.0867,0.12636 0.13013,0.1897 0.0434,0.0633 0.0867,0.12679 0.13013,0.19035 0.0434,0.0636 0.0867,0.12723 0.13013,0.19101 0.0434,0.0638 0.0868,0.12766 0.13013,0.19166 0.0434,0.064 0.0867,0.12811 0.13013,0.19233 0.0434,0.0642 0.0867,0.12856 0.13013,0.193 0.0434,0.0644 0.0868,0.12901 0.13013,0.19368 0.0434,0.0647 0.0867,0.12945 0.13013,0.19435 0.0434,0.0649 0.0867,0.12991 0.13013,0.19503 0.0434,0.0651 0.0867,0.13037 0.13013,0.19572 0.0434,0.0654 0.0867,0.13083 0.13013,0.19642 0.0434,0.0656 0.0867,0.13129 0.13013,0.19711 0.0434,0.0658 0.0867,0.13175 0.13013,0.19781 0.0434,0.0661 0.0868,0.13222 0.13013,0.19851 0.0434,0.0663 0.0867,0.13271 0.13013,0.19923 0.0434,0.0665 0.0867,0.13318 0.13013,0.19995 0.0434,0.0668 0.0867,0.13366 0.13013,0.20067 0.0434,0.067 0.0867,0.13414 0.13013,0.20139 0.0434,0.0673 0.0867,0.13463 0.13013,0.20213 0.0434,0.0675 0.0867,0.13512 0.13013,0.20286 0.0434,0.0678 0.0868,0.13562 0.13013,0.20361 0.0434,0.068 0.0867,0.13611 0.13013,0.20435 0.0434,0.0683 0.0867,0.13662 0.13013,0.20511 0.0434,0.0685 0.0868,0.13712 0.13013,0.20587 0.0434,0.0687 0.0867,0.13763 0.13013,0.20664 0.0434,0.069 0.0867,0.13814 0.13013,0.2074 0.0434,0.0693 0.0867,0.13866 0.13013,0.20819 0.0434,0.0695 0.0868,0.13918 0.13013,0.20896 0.0434,0.0698 0.0868,0.13971 0.13013,0.20976 0.0434,0.0701 0.0868,0.14023 0.13013,0.21055 0.0434,0.0703 0.0868,0.14076 0.13013,0.21135 0.0434,0.0706 0.0868,0.1413 0.13013,0.21215 0.0434,0.0709 0.0868,0.14185 0.13013,0.21298 0.0434,0.0711 0.0868,0.14239 0.13013,0.21379 0.0434,0.0714 0.0868,0.14294 0.13013,0.21462 0.0434,0.0717 0.0868,0.1435 0.13013,0.21545 0.0434,0.072 0.0868,0.14406 0.13013,0.2163 0.0434,0.0722 0.0868,0.14462 0.13013,0.21714 0.0434,0.0725 0.0868,0.14519 0.13013,0.21799 0.0434,0.0728 0.0868,0.14577 0.13013,0.21886 0.0434,0.0731 0.0868,0.14634 0.13013,0.21973 0.0434,0.0734 0.0868,0.14692 0.13013,0.2206 0.0434,0.0737 0.0868,0.14751 0.13013,0.22148 0.0434,0.074 0.0868,0.14811 0.13013,0.22238 0.0434,0.0743 0.0868,0.1487 0.13013,0.22327 0.0434,0.0746 0.0868,0.14931 0.13013,0.22418 0.0434,0.0749 0.0868,0.14991 0.13013,0.2251 0.0434,0.0752 0.0868,0.15052 0.13013,0.22602 0.0434,0.0755 0.0868,0.15114 0.13013,0.22694 0.0434,0.0758 0.0868,0.15177 0.13013,0.22789 0.0434,0.0761 0.0868,0.15239 0.13013,0.22883 0.0434,0.0764 0.0868,0.15303 0.13013,0.22979 0.0434,0.0768 0.0868,0.15367 0.13013,0.23075 0.0434,0.0771 0.0868,0.15432 0.13014,0.23172 0.0434,0.0774 0.0868,0.15497 0.13013,0.23271 0.0434,0.0777 0.0867,0.15563 0.13013,0.23369 0.0434,0.0781 0.0867,0.1563 0.13013,0.2347 0.0434,0.0784 0.0868,0.15697 0.13013,0.23571 0.0434,0.0787 0.0867,0.15764 0.13013,0.23672 0.0434,0.0791 0.0867,0.15833 0.13013,0.23776 0.0434,0.0794 0.0867,0.15902 0.13013,0.23879 0.0434,0.0798 0.0867,0.15972 0.13013,0.23984 0.0434,0.0801 0.0867,0.16043 0.13013,0.2409 0.0434,0.0805 0.0867,0.16114 0.13013,0.24197 0.0434,0.0808 0.0868,0.16186 0.13013,0.24305 0.0434,0.0812 0.0867,0.16258 0.13013,0.24414 0.0434,0.0816 0.0867,0.16332 0.13013,0.24525 0.0434,0.0819 0.0867,0.16405 0.13013,0.24635 0.0434,0.0823 0.0867,0.1648 0.13013,0.24748 0.0434,0.0827 0.0867,0.16556 0.13013,0.24862 0.0434,0.0831 0.0867,0.16632 0.13013,0.24977 0.0434,0.0834 0.0868,0.16708 0.13013,0.25092 0.0434,0.0838 0.0867,0.16787 0.13013,0.2521 0.0434,0.0842 0.0867,0.16865 0.13013,0.25328 0.0434,0.0846 0.0867,0.16945 0.13013,0.25448 0.0434,0.085 0.0867,0.17025 0.13013,0.25568 0.0434,0.0854 0.0867,0.17107 0.13013,0.25692 0.0434,0.0858 0.0867,0.17189 0.13013,0.25815 0.0434,0.0862 0.0868,0.17272 0.13013,0.2594 0.0434,0.0867 0.0867,0.17356 0.13013,0.26066 0.0434,0.0871 0.0867,0.17442 0.13013,0.26195 0.0434,0.0875 0.0868,0.17527 0.13013,0.26323 0.0434,0.088 0.0867,0.17615 0.13013,0.26455 0.0434,0.0884 0.0867,0.17703 0.13013,0.26587 0.0434,0.0888 0.0867,0.17792 0.13013,0.26721 0.0434,0.0893 0.0867,0.17882 0.13013,0.26857 0.0434,0.0898 0.0867,0.17972 0.13013,0.26993 0.0434,0.0902 0.0867,0.18065 0.13013,0.27133 0.0434,0.0907 0.0868,0.18158 0.13013,0.27273 0.0434,0.0911 0.0867,0.18253 0.13013,0.27415 0.0434,0.0916 0.0867,0.18348 0.13013,0.27559 0.0434,0.0921 0.0867,0.18445 0.13013,0.27705 0.0434,0.0926 0.0867,0.18543 0.13013,0.27852 0.0434,0.0931 0.0867,0.18643 0.13013,0.28002 0.0434,0.0936 0.0867,0.18743 0.13013,0.28153 0.0434,0.0941 0.0868,0.18846 0.13013,0.28307 0.0434,0.0946 0.0867,0.18949 0.13013,0.28462 0.0434,0.0951 0.0867,0.19053 0.13013,0.28619 0.0434,0.0957 0.0868,0.1916 0.13013,0.28779 0.0434,0.0962 0.0867,0.19267 0.13013,0.28941 0.0434,0.0967 0.0867,0.19376 0.13013,0.29105 0.0434,0.0973 0.0867,0.19486 0.13013,0.2927 0.0434,0.0979 0.0868,0.19598 0.13013,0.2944 0.0434,0.0984 0.0867,0.19711 0.13013,0.2961 0.0434,0.099 0.0868,0.19826 0.13013,0.29783 0.0434,0.0996 0.0868,0.19943 0.13013,0.29959 0.0434,0.10016 0.0868,0.20062 0.13013,0.30138 0.0434,0.10076 0.0868,0.20182 0.13013,0.30318 0.0434,0.10137 0.0868,0.20304 0.13013,0.30502 0.0434,0.10198 0.0868,0.20428 0.13013,0.30689 0.0434,0.1026 0.0868,0.20553 0.13013,0.30877 0.0434,0.10325 0.0868,0.20681 0.13013,0.3107 0.0434,0.10389 0.0868,0.20811 0.13013,0.31265 0.0434,0.10454 0.0868,0.20942 0.13013,0.31463 0.0434,0.10521 0.0868,0.21076 0.13013,0.31665 0.0434,0.10588 0.0868,0.21211 0.13013,0.31869 0.0434,0.10657 0.0868,0.21349 0.13013,0.32077 0.0434,0.10727 0.0868,0.2149 0.13013,0.32288 0.0434,0.10798 0.0868,0.21632 0.13013,0.32503 0.0434,0.10871 0.0868,0.21778 0.13013,0.32722 0.0434,0.10944 0.0868,0.21925 0.13013,0.32944 0.0434,0.11018 0.0868,0.22075 0.13013,0.3317 0.0434,0.11094 0.0868,0.22227 0.13013,0.334 0.0434,0.11172 0.0868,0.22383 0.13013,0.33634 0.0434,0.11251 0.0868,0.22541 0.13013,0.33872 0.0434,0.11331 0.0868,0.22703 0.13013,0.34115 0.0434,0.11413 0.0868,0.22867 0.13013,0.34363 0.0434,0.11496 0.0868,0.23033 0.13013,0.34614 0.0434,0.11581 0.0868,0.23204 0.13013,0.34871 0.0434,0.11667 0.0868,0.23377 0.13014,0.35132 0.0434,0.11755 0.0867,0.23554 0.13013,0.35399 0.0434,0.11845 0.0867,0.23735 0.13013,0.35671 0.0434,0.11936 0.0868,0.23919 0.13013,0.35948 0.0434,0.1203 0.0867,0.24107 0.13013,0.36232 0.0434,0.12125 0.0867,0.24298 0.13013,0.3652 0.0434,0.12222 0.0867,0.24494 0.13013,0.36815 0.0434,0.12322 0.0867,0.24694 0.13013,0.37117 0.0434,0.12423 0.0867,0.24897 0.13013,0.37424 0.0434,0.12527 0.0867,0.25106 0.13013,0.37739 0.0434,0.12632 0.0868,0.25319 0.13013,0.3806 0.0434,0.12741 0.0867,0.25537 0.13013,0.38389 0.0434,0.12852 0.0867,0.25761 0.13013,0.38726 0.0434,0.12966 0.0867,0.25989 0.13013,0.3907 0.0434,0.13082 0.0867,0.26222 0.13013,0.39423 0.0434,0.13201 0.0867,0.26461 0.13013,0.39784 0.0434,0.13322 0.0867,0.26707 0.13013,0.40154 0.0434,0.13447 0.0868,0.26958 0.13013,0.40533 0.0434,0.13576 0.0867,0.27216 0.13013,0.40923 0.0434,0.13707 0.0867,0.2748 0.13013,0.41322 0.0434,0.13841 0.0867,0.27751 0.13013,0.41731 0.0434,0.1398 0.0867,0.28031 0.13013,0.42153 0.0434,0.14122 0.0867,0.28317 0.13013,0.42585 0.0434,0.14268 0.0867,0.28611 0.13013,0.4303 0.0434,0.14419 0.0868,0.28914 0.13013,0.43487 0.0434,0.14574 0.0867,0.29226 0.13013,0.43959 0.0434,0.14733 0.0867,0.29547 0.13013,0.44443 0.0434,0.14897 0.0868,0.29878 0.13013,0.44944 0.0434,0.15066 0.0867,0.30218 0.13013,0.45459 0.0434,0.1524 0.0867,0.3057 0.13013,0.4599 0.0434,0.15421 0.0867,0.30934 0.13013,0.46541 0.0434,0.15607 0.0867,0.31308 0.13013,0.47108 0.0434,0.15799 0.0867,0.31696 0.13013,0.47695 0.0434,0.15998 0.0867,0.32098 0.13013,0.48302 0.0434,0.16205 0.0868,0.32515 0.13013,0.48933 0.0434,0.16418 0.0867,0.32945 0.13013,0.49585 0.0434,0.1664 0.0867,0.33392 0.13013,0.50262 0.0434,0.1687 0.0867,0.33858 0.13013,0.50967 0.0434,0.17109 0.0867,0.3434 0.13013,0.51698 0.0434,0.17358 0.0867,0.34843 0.13013,0.52461 0.0434,0.17617 0.0867,0.35367 0.13013,0.53254 0.0434,0.17888 0.0868,0.35914 0.13013,0.54083 0.0434,0.1817 0.0867,0.36485 0.13013,0.5495 0.0434,0.18465 0.0867,0.37081 0.13013,0.55855 0.0434,0.18774 0.0868,0.37707 0.13013,0.56805 0.0434,0.19098 0.0867,0.38363 0.13013,0.57802 0.0434,0.19438 0.0867,0.39052 0.13013,0.58849 0.0434,0.19796 0.0867,0.39778 0.13013,0.59952 0.0434,0.20174 0.0868,0.40543 0.13013,0.61116 0.0434,0.20573 0.0867,0.41352 0.13013,0.62347 0.0434,0.20995 0.0867,0.42208 0.13013,0.63651 0.0434,0.21442 0.0868,0.43116 0.13013,0.65035 0.0434,0.21919 0.0868,0.44084 0.13013,0.66511 0.0434,0.22427 0.0868,0.45116 0.13013,0.68086 0.0434,0.2297 0.0868,0.46221 0.13013,0.69773 0.0434,0.23552 0.0868,0.47407 0.13013,0.71587 0.0434,0.24179 0.0868,0.48686 0.13013,0.73543 0.0434,0.24858 0.0868,0.50069 0.13013,0.75663 0.0434,0.25594 0.0868,0.51573 0.13013,0.7797 0.0434,0.26398 0.0868,0.53216 0.13013,0.80494 0.0434,0.27279 0.0868,0.5502 0.13013,0.83271 0.0434,0.28251 0.0868,0.57015 0.13013,0.86348 0.0434,0.29332 0.0868,0.59236 0.13013,0.8978 0.0434,0.30545 0.0868,0.61733 0.13013,0.93648 0.0434,0.31916 0.0868,0.64563 0.13013,0.98047"
       style="opacity:1;fill:none;fill-opacity:1;fill-rule:evenodd;stroke:#050000;stroke-width:1;stroke-linecap:butt;stroke-linejoin:bevel;stroke-miterlimit:4;stroke-dasharray:none;stroke-dashoffset:0;stroke-opacity:1;paint-order:normal"
       inkscape:connector-curvature="0" />
    <path
       style="fill:none;stroke:#000000;stroke-width:0.4;stroke-linecap:butt;stroke-linejoin:miter;stroke-opacity:1;stroke-miterlimit:4;stroke-dasharray:none"
       d="M 24.870833,196.45832 C 108.47917,105.17707 108.47917,105.17707 108.47917,105.17707"
       id="path9613"
       inkscape:connector-curvature="0" />
    <path
       style="fill:none;stroke:#000000;stroke-width:0.26458332px;stroke-linecap:butt;stroke-linejoin:miter;stroke-opacity:1"
       d="m 30.95625,189.84374 c 2.969516,0.18949 4.986251,2.78369 3.439583,6.61458"
       id="path9617"
       inkscape:connector-curvature="0"
       sodipodi:nodetypes="cc" />
    <g
       title="{\Large$1$}"
       style="fill:#000000"
       id="equation_03"
       transform="translate(-63.30408,13.7827)">
      <defs
         id="defs9657">
        <path
           d="m 4.131704,-9.195911 c 0,-0.329963 0,-0.344309 -0.286924,-0.344309 -0.344308,0.387347 -1.061618,0.918156 -2.539276,0.918156 v 0.41604 c 0.329962,0 1.047272,0 1.836313,-0.373001 v 7.474368 c 0,0.516463 -0.043039,0.688617 -1.305504,0.688617 H 1.391581 V 0 c 0.387347,-0.028692 1.778928,-0.028692 2.252353,-0.028692 0.473425,0 1.850659,0 2.238006,0.028692 V -0.41604 H 5.437208 c -1.262465,0 -1.305504,-0.172154 -1.305504,-0.688617 z"
           id="equation_03_00"
           inkscape:connector-curvature="0" />
      </defs>
      <g
         id="equation_03_g">
        <use
           id="use9659"
           xlink:href="#equation_03_00"
           y="62.764633"
           x="76.712326"
           width="100%"
           height="100%" />
      </g>
    </g>
    <path
       style="fill:none;stroke:#000000;stroke-width:0.4;stroke-linecap:butt;stroke-linejoin:miter;stroke-opacity:1;marker-end:url(#marker9931);stroke-miterlimit:4;stroke-dasharray:none"
       d="M 108.90577,104.85299 C 65.249478,66.488484 65.249478,66.488484 65.249478,66.488484"
       id="path9921"
       inkscape:connector-curvature="0" />
    <path
       style="fill:none;stroke:#000000;stroke-width:0.4;stroke-linecap:butt;stroke-linejoin:miter;stroke-opacity:1;stroke-miterlimit:4;stroke-dasharray:none"
       d="m 104.51042,109.41041 c -5.291671,-4.23334 -5.291671,-4.23334 -5.291671,-4.23334"
       id="path9969"
       inkscape:connector-curvature="0" />
    <path
       style="fill:none;stroke:#000000;stroke-width:0.4;stroke-linecap:butt;stroke-linejoin:miter;stroke-opacity:1;stroke-miterlimit:4;stroke-dasharray:none"
       d="m 99.254185,105.34241 c 4.197895,-4.92784 4.197895,-4.92784 4.197895,-4.92784"
       id="path9971"
       inkscape:connector-curvature="0" />
    <g
       title="{$A=(1,0)$}"
       style="fill:#000000"
       id="equation_04"
       transform="translate(83.113999,125.63277)">
      <defs
         id="defs1143">
        <path
           d="m 2.022416,-0.009963 c 0,-0.657534 -0.249066,-1.046077 -0.637609,-1.046077 -0.328767,0 -0.52802,0.249066 -0.52802,0.52802 C 0.856787,-0.259029 1.05604,0 1.384807,0 1.504359,0 1.633873,-0.039851 1.733499,-0.129514 1.763387,-0.14944 1.77335,-0.159402 1.783313,-0.159402 c 0.00996,0 0.019925,0.009962 0.019925,0.149439 0,0.737236 -0.348693,1.334994 -0.67746,1.663761 C 1.016189,1.763387 1.016189,1.783313 1.016189,1.8132 c 0,0.069739 0.049813,0.10959 0.099627,0.10959 0.109589,0 0.9066,-0.767124 0.9066,-1.932753 z"
           id="equation_04_00"
           inkscape:connector-curvature="0" />
        <path
           d="M 1.783313,-1.145704 C 1.384807,-0.478207 0.996264,-0.33873 0.557908,-0.308842 0.438356,-0.298879 0.348692,-0.298879 0.348692,-0.109589 0.348692,-0.049813 0.398506,0 0.478207,0 0.747198,0 1.05604,-0.029888 1.334994,-0.029888 1.663761,-0.029888 2.012453,0 2.331258,0 c 0.059776,0 0.18929,0 0.18929,-0.18929 0,-0.109589 -0.089664,-0.119552 -0.159402,-0.119552 -0.229141,-0.019925 -0.468244,-0.099626 -0.468244,-0.348692 0,-0.119552 0.059775,-0.229141 0.139477,-0.368618 l 0.75716,-1.275218 h 2.500623 c 0.019925,0.209216 0.159402,1.564135 0.159402,1.663761 0,0.298879 -0.518057,0.328767 -0.71731,0.328767 -0.139477,0 -0.239103,0 -0.239103,0.199253 C 4.493151,0 4.612702,0 4.632628,0 5.041096,0 5.469489,-0.029888 5.877958,-0.029888 6.127024,-0.029888 6.75467,0 7.003736,0 c 0.059776,0 0.179328,0 0.179328,-0.199253 0,-0.109589 -0.099627,-0.109589 -0.229141,-0.109589 -0.617684,0 -0.617684,-0.069738 -0.647572,-0.358655 L 5.69863,-6.894147 C 5.678705,-7.0934 5.678705,-7.13325 5.50934,-7.13325 c -0.159402,0 -0.199253,0.069738 -0.259029,0.169365 z m 1.195516,-1.464508 1.96264,-3.287671 0.318805,3.287671 z"
           id="equation_04_01"
           inkscape:connector-curvature="0" />
        <path
           d="m 3.297634,2.391034 c 0,-0.029888 0,-0.049814 -0.169365,-0.219178 -1.24533,-1.255293 -1.564135,-3.138232 -1.564135,-4.662516 0,-1.733499 0.378581,-3.466999 1.603986,-4.712329 0.129514,-0.119551 0.129514,-0.139477 0.129514,-0.169365 0,-0.069738 -0.039851,-0.099626 -0.099627,-0.099626 -0.099626,0 -0.996264,0.677459 -1.584059,1.942715 -0.508095,1.09589 -0.627647,2.201743 -0.627647,3.038605 0,0.777086 0.109589,1.982565 0.657535,3.108344 0.597758,1.225404 1.454545,1.872976 1.554171,1.872976 0.059776,0 0.099627,-0.029888 0.099627,-0.099626 z"
           id="equation_04_02"
           inkscape:connector-curvature="0" />
        <path
           d="m 2.879203,-2.49066 c 0,-0.777086 -0.109589,-1.982565 -0.657534,-3.108344 C 1.62391,-6.824408 0.767123,-7.47198 0.667497,-7.47198 c -0.059776,0 -0.099627,0.03985 -0.099627,0.099626 0,0.029888 0,0.049814 0.189291,0.229141 0.976338,0.986301 1.544209,2.570361 1.544209,4.652553 0,1.703611 -0.368618,3.457036 -1.603985,4.712329 C 0.56787,2.34122 0.56787,2.361146 0.56787,2.391034 c 0,0.059775 0.039851,0.099626 0.099627,0.099626 0.099626,0 0.996264,-0.67746 1.58406,-1.942715 0.508094,-1.09589 0.627646,-2.201743 0.627646,-3.038605 z"
           id="equation_04_03"
           inkscape:connector-curvature="0" />
        <path
           d="m 4.582814,-3.188045 c 0,-0.797011 -0.049813,-1.594022 -0.398505,-2.331258 -0.458282,-0.956413 -1.275218,-1.115815 -1.693649,-1.115815 -0.597758,0 -1.325031,0.259028 -1.733499,1.185554 -0.318805,0.687422 -0.368618,1.464508 -0.368618,2.261519 0,0.747198 0.039851,1.643836 0.448319,2.400996 0.428393,0.806974 1.155666,1.006227 1.643835,1.006227 0.537983,0 1.295144,-0.209215 1.7335,-1.155666 0.318804,-0.687422 0.368617,-1.464508 0.368617,-2.251557 z M 2.480697,0 C 2.092154,0 1.504359,-0.249066 1.325031,-1.205479 1.215442,-1.803238 1.215442,-2.719801 1.215442,-3.307597 c 0,-0.637608 0,-1.295143 0.079701,-1.833125 0.18929,-1.185554 0.936488,-1.275218 1.185554,-1.275218 0.328768,0 0.986302,0.179327 1.175592,1.165629 0.099626,0.557908 0.099626,1.315068 0.099626,1.942714 0,0.747198 0,1.424658 -0.109589,2.062267 C 3.496887,-0.298879 2.929016,0 2.480697,0 Z"
           id="equation_04_04"
           inkscape:connector-curvature="0" />
        <path
           d="m 2.929016,-6.37609 c 0,-0.239103 0,-0.259028 -0.229141,-0.259028 -0.617683,0.637609 -1.494396,0.637609 -1.8132,0.637609 v 0.308842 c 0.199253,0 0.787049,0 1.305106,-0.259029 v 5.160647 c 0,0.358655 -0.029888,0.478207 -0.926526,0.478207 H 0.946451 V 0 c 0.348692,-0.029888 1.215442,-0.029888 1.613948,-0.029888 0.398506,0 1.265255,0 1.613947,0.029888 V -0.308842 H 3.855542 c -0.896638,0 -0.926526,-0.109589 -0.926526,-0.478207 z"
           id="equation_04_05"
           inkscape:connector-curvature="0" />
        <path
           d="m 6.844334,-3.257783 c 0.149439,0 0.33873,0 0.33873,-0.199253 0,-0.199253 -0.189291,-0.199253 -0.328768,-0.199253 H 0.886675 c -0.139477,0 -0.328767,0 -0.328767,0.199253 0,0.199253 0.18929,0.199253 0.33873,0.199253 z m 0.00996,1.932752 c 0.139477,0 0.328768,0 0.328768,-0.199253 0,-0.199253 -0.189291,-0.199253 -0.33873,-0.199253 H 0.896638 c -0.14944,0 -0.33873,0 -0.33873,0.199253 0,0.199253 0.18929,0.199253 0.328767,0.199253 z"
           id="equation_04_06"
           inkscape:connector-curvature="0" />
      </defs>
      <g
         id="equation_04_g">
        <use
           id="use1145"
           xlink:href="#equation_04_01"
           y="62.764633"
           x="76.712326"
           width="100%"
           height="100%" />
        <use
           id="use1147"
           xlink:href="#equation_04_06"
           y="62.764633"
           x="86.95166"
           width="100%"
           height="100%" />
        <use
           id="use1149"
           xlink:href="#equation_04_02"
           y="62.764633"
           x="97.467743"
           width="100%"
           height="100%" />
        <use
           id="use1151"
           xlink:href="#equation_04_05"
           y="62.764633"
           x="101.34212"
           width="100%"
           height="100%" />
        <use
           id="use1153"
           xlink:href="#equation_04_00"
           y="62.764633"
           x="106.32346"
           width="100%"
           height="100%" />
        <use
           id="use1155"
           xlink:href="#equation_04_04"
           y="62.764633"
           x="110.75126"
           width="100%"
           height="100%" />
        <use
           id="use1157"
           xlink:href="#equation_04_03"
           y="62.764633"
           x="115.7326"
           width="100%"
           height="100%" />
      </g>
    </g>
    <g
       title="{$P=(\cos x,\sin x)$}"
       style="fill:#000000"
       id="equation_06"
       transform="translate(35.488999,35.674441)">
      <defs
         id="defs1010">
        <path
           d="m 2.022416,-0.009963 c 0,-0.657534 -0.249066,-1.046077 -0.637609,-1.046077 -0.328767,0 -0.52802,0.249066 -0.52802,0.52802 C 0.856787,-0.259029 1.05604,0 1.384807,0 1.504359,0 1.633873,-0.039851 1.733499,-0.129514 1.763387,-0.14944 1.77335,-0.159402 1.783313,-0.159402 c 0.00996,0 0.019925,0.009962 0.019925,0.149439 0,0.737236 -0.348693,1.334994 -0.67746,1.663761 C 1.016189,1.763387 1.016189,1.783313 1.016189,1.8132 c 0,0.069739 0.049813,0.10959 0.099627,0.10959 0.109589,0 0.9066,-0.767124 0.9066,-1.932753 z"
           id="equation_06_00"
           inkscape:connector-curvature="0" />
        <path
           d="m 3.01868,-3.148194 h 1.693649 c 1.414695,0 2.799502,-1.036115 2.799502,-2.151931 0,-0.767123 -0.657535,-1.504358 -1.96264,-1.504358 H 2.321295 c -0.18929,0 -0.298879,0 -0.298879,0.18929 0,0.119552 0.089664,0.119552 0.288917,0.119552 0.129514,0 0.308841,0.00996 0.428393,0.019925 0.159402,0.019925 0.219178,0.049813 0.219178,0.159402 0,0.039851 -0.00996,0.069739 -0.03985,0.18929 L 1.58406,-0.777086 c -0.099627,0.388543 -0.119552,0.468244 -0.9066,0.468244 -0.169365,0 -0.278954,0 -0.278954,0.18929 C 0.398506,0 0.518057,0 0.547945,0 0.826899,0 1.534247,-0.029888 1.8132,-0.029888 c 0.209216,0 0.428394,0.009963 0.637609,0.009963 C 2.669988,-0.019925 2.889166,0 3.098381,0 3.16812,0 3.297634,0 3.297634,-0.199253 c 0,-0.109589 -0.089664,-0.109589 -0.278954,-0.109589 -0.368618,0 -0.647572,0 -0.647572,-0.179327 0,-0.059776 0.019926,-0.109589 0.029888,-0.169365 z m 0.71731,-2.968867 c 0.089664,-0.348692 0.109589,-0.37858 0.537983,-0.37858 h 0.956413 c 0.826899,0 1.354919,0.268991 1.354919,0.956413 0,0.388543 -0.199253,1.24533 -0.587796,1.603985 -0.498132,0.448319 -1.09589,0.52802 -1.534246,0.52802 H 3.058531 Z"
           id="equation_06_01"
           inkscape:connector-curvature="0" />
        <path
           d="m 3.327522,-3.008717 c 0.059776,-0.259029 0.288916,-1.175592 0.986301,-1.175592 0.049813,0 0.288917,0 0.498132,0.129514 -0.278954,0.049814 -0.478207,0.29888 -0.478207,0.537983 0,0.159402 0.109589,0.348692 0.378581,0.348692 0.219178,0 0.537982,-0.179327 0.537982,-0.577833 0,-0.518057 -0.587795,-0.657534 -0.926525,-0.657534 -0.577833,0 -0.926526,0.52802 -1.046077,0.757161 -0.249066,-0.657535 -0.787049,-0.757161 -1.075966,-0.757161 -1.036114,0 -1.603985,1.285181 -1.603985,1.534247 0,0.099626 0.099627,0.099626 0.119552,0.099626 0.079701,0 0.109589,-0.019925 0.129514,-0.109589 0.33873,-1.05604 0.996264,-1.305106 1.334994,-1.305106 0.18929,0 0.537983,0.089664 0.537983,0.667497 0,0.308842 -0.169365,0.976339 -0.537983,2.371108 -0.159402,0.617684 -0.508094,1.036115 -0.946451,1.036115 -0.059775,0 -0.288916,0 -0.498132,-0.129514 0.249066,-0.049814 0.468244,-0.259029 0.468244,-0.537983 0,-0.268991 -0.219178,-0.348692 -0.368617,-0.348692 -0.298879,0 -0.547945,0.259028 -0.547945,0.577833 0,0.458281 0.498132,0.657534 0.936488,0.657534 0.657534,0 1.016189,-0.697385 1.046077,-0.757161 0.119552,0.368618 0.478207,0.757161 1.075965,0.757161 1.026152,0 1.594022,-1.285181 1.594022,-1.534247 0,-0.099626 -0.089663,-0.099626 -0.119551,-0.099626 -0.089664,0 -0.109589,0.039851 -0.129515,0.109589 -0.328767,1.066003 -1.006226,1.305106 -1.325031,1.305106 -0.388543,0 -0.547945,-0.318805 -0.547945,-0.657534 0,-0.219178 0.059776,-0.438356 0.169365,-0.876713 z"
           id="equation_06_02"
           inkscape:connector-curvature="0" />
        <path
           d="m 3.297634,2.391034 c 0,-0.029888 0,-0.049814 -0.169365,-0.219178 -1.24533,-1.255293 -1.564135,-3.138232 -1.564135,-4.662516 0,-1.733499 0.378581,-3.466999 1.603986,-4.712329 0.129514,-0.119551 0.129514,-0.139477 0.129514,-0.169365 0,-0.069738 -0.039851,-0.099626 -0.099627,-0.099626 -0.099626,0 -0.996264,0.677459 -1.584059,1.942715 -0.508095,1.09589 -0.627647,2.201743 -0.627647,3.038605 0,0.777086 0.109589,1.982565 0.657535,3.108344 0.597758,1.225404 1.454545,1.872976 1.554171,1.872976 0.059776,0 0.099627,-0.029888 0.099627,-0.099626 z"
           id="equation_06_03"
           inkscape:connector-curvature="0" />
        <path
           d="m 2.879203,-2.49066 c 0,-0.777086 -0.109589,-1.982565 -0.657534,-3.108344 C 1.62391,-6.824408 0.767123,-7.47198 0.667497,-7.47198 c -0.059776,0 -0.099627,0.03985 -0.099627,0.099626 0,0.029888 0,0.049814 0.189291,0.229141 0.976338,0.986301 1.544209,2.570361 1.544209,4.652553 0,1.703611 -0.368618,3.457036 -1.603985,4.712329 C 0.56787,2.34122 0.56787,2.361146 0.56787,2.391034 c 0,0.059775 0.039851,0.099626 0.099627,0.099626 0.099626,0 0.996264,-0.67746 1.58406,-1.942715 0.508094,-1.09589 0.627646,-2.201743 0.627646,-3.038605 z"
           id="equation_06_04"
           inkscape:connector-curvature="0" />
        <path
           d="m 6.844334,-3.257783 c 0.149439,0 0.33873,0 0.33873,-0.199253 0,-0.199253 -0.189291,-0.199253 -0.328768,-0.199253 H 0.886675 c -0.139477,0 -0.328767,0 -0.328767,0.199253 0,0.199253 0.18929,0.199253 0.33873,0.199253 z m 0.00996,1.932752 c 0.139477,0 0.328768,0 0.328768,-0.199253 0,-0.199253 -0.189291,-0.199253 -0.33873,-0.199253 H 0.896638 c -0.14944,0 -0.33873,0 -0.33873,0.199253 0,0.199253 0.18929,0.199253 0.328767,0.199253 z"
           id="equation_06_05"
           inkscape:connector-curvature="0" />
        <path
           d="m 1.165629,-2.171856 c 0,-1.62391 0.816936,-2.042341 1.344956,-2.042341 0.089664,0 0.71731,0.00996 1.066003,0.368618 -0.408468,0.029888 -0.468244,0.328767 -0.468244,0.458281 0,0.259029 0.179327,0.458282 0.458281,0.458282 0.259029,0 0.458282,-0.169365 0.458282,-0.468244 0,-0.67746 -0.757161,-1.066003 -1.524284,-1.066003 -1.24533,0 -2.161893,1.075965 -2.161893,2.311333 0,1.275218 0.986301,2.261519 2.141967,2.261519 1.334994,0 1.653799,-1.195517 1.653799,-1.295143 0,-0.099626 -0.099627,-0.099627 -0.129515,-0.099627 -0.089663,0 -0.109589,0.039851 -0.129514,0.099627 -0.288917,0.926525 -0.936488,1.046077 -1.305106,1.046077 -0.52802,0 -1.404732,-0.428393 -1.404732,-2.032379 z"
           id="equation_06_06"
           inkscape:connector-curvature="0" />
        <path
           d="m 1.763387,-4.403487 -1.394769,0.109589 v 0.308842 c 0.647571,0 0.737235,0.059776 0.737235,0.547945 v 2.67995 c 0,0.448319 -0.109589,0.448319 -0.777086,0.448319 V 0 c 0.318805,-0.009963 0.856787,-0.029888 1.095891,-0.029888 0.348692,0 0.697384,0.019925 1.036114,0.029888 v -0.308842 c -0.657534,0 -0.697385,-0.049813 -0.697385,-0.438356 z m 0.039851,-1.733499 c 0,-0.318805 -0.249066,-0.52802 -0.52802,-0.52802 -0.308842,0 -0.52802,0.268991 -0.52802,0.52802 0,0.268991 0.219178,0.52802 0.52802,0.52802 0.278954,0 0.52802,-0.209216 0.52802,-0.52802 z"
           id="equation_06_07"
           inkscape:connector-curvature="0" />
        <path
           d="m 1.09589,-3.427148 v 2.669987 c 0,0.448319 -0.109589,0.448319 -0.777086,0.448319 V 0 c 0.348693,-0.009963 0.856788,-0.029888 1.125779,-0.029888 0.259028,0 0.777086,0.019925 1.115816,0.029888 v -0.308842 c -0.667497,0 -0.777086,0 -0.777086,-0.448319 v -1.833125 c 0,-1.036115 0.707347,-1.594023 1.344956,-1.594023 0.627646,0 0.737235,0.537983 0.737235,1.105853 v 2.321295 c 0,0.448319 -0.109589,0.448319 -0.777086,0.448319 V 0 c 0.348693,-0.009963 0.856787,-0.029888 1.125779,-0.029888 0.259028,0 0.777086,0.019925 1.115815,0.029888 v -0.308842 c -0.518057,0 -0.767123,0 -0.777085,-0.298879 v -1.902864 c 0,-0.856787 0,-1.165629 -0.308842,-1.524284 -0.139477,-0.169365 -0.468244,-0.368618 -1.046078,-0.368618 -0.727272,0 -1.195516,0.428394 -1.47447,1.046077 v -1.046077 l -1.404733,0.109589 v 0.308842 c 0.697385,0 0.777086,0.069738 0.777086,0.557908 z"
           id="equation_06_08"
           inkscape:connector-curvature="0" />
        <path
           d="m 4.692403,-2.132005 c 0,-1.275218 -0.996264,-2.331258 -2.201743,-2.331258 -1.24533,0 -2.211706,1.085928 -2.211706,2.331258 0,1.285181 1.036114,2.241594 2.201743,2.241594 1.20548,0 2.211706,-0.976339 2.211706,-2.241594 z M 2.49066,-0.139477 c -0.428393,0 -0.86675,-0.209215 -1.135741,-0.667497 -0.249066,-0.438356 -0.249066,-1.046077 -0.249066,-1.404732 0,-0.388543 0,-0.926526 0.239103,-1.364882 0.268992,-0.458281 0.737236,-0.667497 1.135741,-0.667497 0.438357,0 0.86675,0.219178 1.125779,0.647572 0.259029,0.428394 0.259028,1.006227 0.259028,1.384807 0,0.358655 0,0.896638 -0.219178,1.334994 -0.219178,0.448318 -0.657534,0.737235 -1.155666,0.737235 z"
           id="equation_06_09"
           inkscape:connector-curvature="0" />
        <path
           d="m 2.072229,-1.932752 c 0.219178,0.03985 1.036115,0.199253 1.036115,0.916563 0,0.508094 -0.348693,0.9066 -1.125779,0.9066 -0.836861,0 -1.195516,-0.567871 -1.384807,-1.414695 -0.029888,-0.129514 -0.03985,-0.169365 -0.139477,-0.169365 -0.129514,0 -0.129514,0.069739 -0.129514,0.249066 v 1.315069 c 0,0.169365 0,0.239103 0.109589,0.239103 0.049813,0 0.059776,-0.009963 0.249066,-0.199253 0.019925,-0.019925 0.019925,-0.03985 0.199253,-0.22914 0.438356,0.41843 0.886675,0.428393 1.09589,0.428393 1.145704,0 1.603985,-0.667497 1.603985,-1.384807 0,-0.52802 -0.298879,-0.826899 -0.41843,-0.946451 C 2.839352,-2.540473 2.450809,-2.620174 2.032379,-2.699875 1.474471,-2.809465 0.806974,-2.938979 0.806974,-3.516812 c 0,-0.348692 0.259028,-0.757161 1.115816,-0.757161 1.09589,0 1.145703,0.896638 1.165628,1.20548 0.00996,0.089664 0.099627,0.089664 0.119552,0.089664 0.129514,0 0.129514,-0.049814 0.129514,-0.239104 v -1.006226 c 0,-0.169365 0,-0.239104 -0.109589,-0.239104 -0.049813,0 -0.069738,0 -0.199252,0.119552 -0.029888,0.03985 -0.129515,0.129514 -0.169365,0.159402 -0.378581,-0.278954 -0.787049,-0.278954 -0.936488,-0.278954 -1.215443,0 -1.594023,0.667497 -1.594023,1.225405 0,0.348692 0.159402,0.627646 0.428394,0.846824 0.318804,0.259029 0.597758,0.318805 1.315068,0.458282 z"
           id="equation_06_10"
           inkscape:connector-curvature="0" />
      </defs>
      <g
         id="equation_06_g">
        <use
           id="use1012"
           xlink:href="#equation_06_01"
           y="62.764633"
           x="76.712326"
           width="100%"
           height="100%" />
        <use
           id="use1014"
           xlink:href="#equation_06_05"
           y="62.764633"
           x="87.259521"
           width="100%"
           height="100%" />
        <use
           id="use1016"
           xlink:href="#equation_06_03"
           y="62.764633"
           x="97.775604"
           width="100%"
           height="100%" />
        <use
           id="use1018"
           xlink:href="#equation_06_06"
           y="62.764633"
           x="101.64998"
           width="100%"
           height="100%" />
        <use
           id="use1020"
           xlink:href="#equation_06_09"
           y="62.764633"
           x="106.07783"
           width="100%"
           height="100%" />
        <use
           id="use1022"
           xlink:href="#equation_06_10"
           y="62.764633"
           x="111.05917"
           width="100%"
           height="100%" />
        <use
           id="use1024"
           xlink:href="#equation_06_02"
           y="62.764633"
           x="116.64925"
           width="100%"
           height="100%" />
        <use
           id="use1026"
           xlink:href="#equation_06_00"
           y="62.764633"
           x="122.34319"
           width="100%"
           height="100%" />
        <use
           id="use1028"
           xlink:href="#equation_06_10"
           y="62.764633"
           x="126.771"
           width="100%"
           height="100%" />
        <use
           id="use1030"
           xlink:href="#equation_06_07"
           y="62.764633"
           x="130.70071"
           width="100%"
           height="100%" />
        <use
           id="use1032"
           xlink:href="#equation_06_08"
           y="62.764633"
           x="133.46812"
           width="100%"
           height="100%" />
        <use
           id="use1034"
           xlink:href="#equation_06_02"
           y="62.764633"
           x="140.66333"
           width="100%"
           height="100%" />
        <use
           id="use1036"
           xlink:href="#equation_06_04"
           y="62.764633"
           x="146.35725"
           width="100%"
           height="100%" />
      </g>
    </g>
    <g
       title="{$x$}"
       style="fill:#000000"
       id="equation_08"
       transform="translate(-36.086043,128.138)">
      <defs
         id="defs1189">
        <path
           d="m 3.327522,-3.008717 c 0.059776,-0.259029 0.288916,-1.175592 0.986301,-1.175592 0.049813,0 0.288917,0 0.498132,0.129514 -0.278954,0.049814 -0.478207,0.29888 -0.478207,0.537983 0,0.159402 0.109589,0.348692 0.378581,0.348692 0.219178,0 0.537982,-0.179327 0.537982,-0.577833 0,-0.518057 -0.587795,-0.657534 -0.926525,-0.657534 -0.577833,0 -0.926526,0.52802 -1.046077,0.757161 -0.249066,-0.657535 -0.787049,-0.757161 -1.075966,-0.757161 -1.036114,0 -1.603985,1.285181 -1.603985,1.534247 0,0.099626 0.099627,0.099626 0.119552,0.099626 0.079701,0 0.109589,-0.019925 0.129514,-0.109589 0.33873,-1.05604 0.996264,-1.305106 1.334994,-1.305106 0.18929,0 0.537983,0.089664 0.537983,0.667497 0,0.308842 -0.169365,0.976339 -0.537983,2.371108 -0.159402,0.617684 -0.508094,1.036115 -0.946451,1.036115 -0.059775,0 -0.288916,0 -0.498132,-0.129514 0.249066,-0.049814 0.468244,-0.259029 0.468244,-0.537983 0,-0.268991 -0.219178,-0.348692 -0.368617,-0.348692 -0.298879,0 -0.547945,0.259028 -0.547945,0.577833 0,0.458281 0.498132,0.657534 0.936488,0.657534 0.657534,0 1.016189,-0.697385 1.046077,-0.757161 0.119552,0.368618 0.478207,0.757161 1.075965,0.757161 1.026152,0 1.594022,-1.285181 1.594022,-1.534247 0,-0.099626 -0.089663,-0.099626 -0.119551,-0.099626 -0.089664,0 -0.109589,0.039851 -0.129515,0.109589 -0.328767,1.066003 -1.006226,1.305106 -1.325031,1.305106 -0.388543,0 -0.547945,-0.318805 -0.547945,-0.657534 0,-0.219178 0.059776,-0.438356 0.169365,-0.876713 z"
           id="equation_08_00"
           inkscape:connector-curvature="0" />
      </defs>
      <g
         id="equation_08_g">
        <use
           id="use1191"
           xlink:href="#equation_08_00"
           y="62.764633"
           x="76.712326"
           width="100%"
           height="100%" />
      </g>
    </g>
  </g>
</svg>
