<?xml version="1.0" encoding="UTF-8" standalone="no"?>
<!-- Created with Inkscape (http://www.inkscape.org/) -->

<svg
   xmlns:dc="http://purl.org/dc/elements/1.1/"
   xmlns:cc="http://creativecommons.org/ns#"
   xmlns:rdf="http://www.w3.org/1999/02/22-rdf-syntax-ns#"
   xmlns:svg="http://www.w3.org/2000/svg"
   xmlns="http://www.w3.org/2000/svg"
   xmlns:xlink="http://www.w3.org/1999/xlink"
   xmlns:sodipodi="http://sodipodi.sourceforge.net/DTD/sodipodi-0.dtd"
   xmlns:inkscape="http://www.inkscape.org/namespaces/inkscape"
   id="svg2783"
   version="1.1"
   viewBox="0 0 210 297"
   height="297mm"
   width="210mm"
   inkscape:version="0.92.4 (5da689c313, 2019-01-14)"
   sodipodi:docname="arcsin x.svg">
  <defs
     id="defs2777">
    <marker
       inkscape:isstock="true"
       style="overflow:visible;"
       id="marker1293"
       refX="0.0"
       refY="0.0"
       orient="auto"
       inkscape:stockid="Arrow2Lend">
      <path
         transform="scale(1.1) rotate(180) translate(1,0)"
         d="M 8.7185878,4.0337352 L -2.2072895,0.016013256 L 8.7185884,-4.0017078 C 6.9730900,-1.6296469 6.9831476,1.6157441 8.7185878,4.0337352 z "
         style="fill-rule:evenodd;stroke-width:0.625;stroke-linejoin:round;stroke:#000000;stroke-opacity:1;fill:#000000;fill-opacity:1"
         id="path1291" />
    </marker>
    <marker
       inkscape:stockid="Arrow2Lend"
       orient="auto"
       refY="0.0"
       refX="0.0"
       id="Arrow2Lend"
       style="overflow:visible;"
       inkscape:isstock="true"
       inkscape:collect="always">
      <path
         id="path864"
         style="fill-rule:evenodd;stroke-width:0.625;stroke-linejoin:round;stroke:#000000;stroke-opacity:1;fill:#000000;fill-opacity:1"
         d="M 8.7185878,4.0337352 L -2.2072895,0.016013256 L 8.7185884,-4.0017078 C 6.9730900,-1.6296469 6.9831476,1.6157441 8.7185878,4.0337352 z "
         transform="scale(1.1) rotate(180) translate(1,0)" />
    </marker>
    <marker
       inkscape:isstock="true"
       style="overflow:visible;"
       id="marker3358"
       refX="0.0"
       refY="0.0"
       orient="auto"
       inkscape:stockid="Arrow2Mend">
      <path
         transform="scale(0.6) rotate(180) translate(0,0)"
         d="M 8.7185878,4.0337352 L -2.2072895,0.016013256 L 8.7185884,-4.0017078 C 6.9730900,-1.6296469 6.9831476,1.6157441 8.7185878,4.0337352 z "
         style="fill-rule:evenodd;stroke-width:0.625;stroke-linejoin:round;stroke:#000000;stroke-opacity:1;fill:#000000;fill-opacity:1"
         id="path3356" />
    </marker>
  </defs>
  <sodipodi:namedview
     id="base"
     pagecolor="#ffffff"
     bordercolor="#666666"
     borderopacity="1.0"
     inkscape:pageopacity="0.0"
     inkscape:pageshadow="2"
     inkscape:zoom="1"
     inkscape:cx="642.22191"
     inkscape:cy="728.98889"
     inkscape:document-units="mm"
     inkscape:current-layer="layer1"
     showgrid="true"
     inkscape:window-width="1858"
     inkscape:window-height="1057"
     inkscape:window-x="-8"
     inkscape:window-y="-8"
     inkscape:window-maximized="1">
    <inkscape:grid
       type="xygrid"
       id="grid3328" />
  </sodipodi:namedview>
  <metadata
     id="metadata2780">
    <rdf:RDF>
      <cc:Work
         rdf:about="">
        <dc:format>image/svg+xml</dc:format>
        <dc:type
           rdf:resource="http://purl.org/dc/dcmitype/StillImage" />
        <dc:title />
      </cc:Work>
    </rdf:RDF>
  </metadata>
  <g
     inkscape:label="レイヤー 1"
     inkscape:groupmode="layer"
     id="layer1">
    <rect
       style="opacity:1;fill:none;fill-opacity:1;stroke:#000000;stroke-width:0;stroke-linecap:butt;stroke-linejoin:round;stroke-miterlimit:4;stroke-dasharray:none;stroke-dashoffset:0;stroke-opacity:1;paint-order:normal"
       id="rect3330"
       width="199.90494"
       height="199.90495"
       x="2.6430528"
       y="17.722834"
       inkscape:export-xdpi="300.10001"
       inkscape:export-ydpi="300.10001" />
    <path
       style="fill:none;stroke:#000000;stroke-width:0.40000001;stroke-linecap:butt;stroke-linejoin:miter;stroke-miterlimit:4;stroke-dasharray:none;stroke-opacity:1;marker-end:url(#marker1293)"
       d="m 2.6458333,117.61211 c 197.3522467,0 197.3522467,0 197.3522467,0"
       id="path3332"
       inkscape:connector-curvature="0" />
    <path
       style="fill:none;stroke:#000000;stroke-width:0.40000001;stroke-linecap:butt;stroke-linejoin:miter;stroke-miterlimit:4;stroke-dasharray:none;stroke-opacity:1;marker-end:url(#Arrow2Lend)"
       d="m 102.65837,217.625 c 0,-197.384137 0,-197.384137 0,-197.384137"
       id="path3334"
       inkscape:connector-curvature="0" />
    <g
       title="\large$y$"
       style="fill:#000000"
       id="equation_00"
       transform="translate(30.877273,-38.000911)">
      <defs
         id="defs3396">
        <path
           d="M 3.144209,1.338979 C 2.82142,1.793275 2.355168,2.199751 1.769365,2.199751 c -0.143462,0 -0.71731,-0.02391 -0.896638,-0.573848 0.035866,0.011955 0.095642,0.011955 0.119552,0.011955 0.358655,0 0.597758,-0.310834 0.597758,-0.585803 0,-0.274969 -0.227148,-0.37061 -0.406475,-0.37061 -0.191283,0 -0.609714,0.143462 -0.609714,0.729265 0,0.609713 0.514072,1.028144 1.195517,1.028144 1.195517,0 2.402989,-1.099875 2.737733,-2.426899 L 5.678705,-4.65056 C 5.69066,-4.710336 5.71457,-4.782067 5.71457,-4.853798 c 0,-0.179328 -0.143462,-0.298879 -0.322789,-0.298879 -0.107597,0 -0.358655,0.04782 -0.454297,0.406475 l -0.884682,3.51482 c -0.059776,0.215193 -0.059776,0.239103 -0.155417,0.37061 -0.239104,0.334745 -0.633624,0.74122 -1.207472,0.74122 -0.66949,0 -0.729265,-0.657534 -0.729265,-0.980323 0,-0.681445 0.322789,-1.601993 0.645579,-2.462765 0.131506,-0.3467 0.203238,-0.514072 0.203238,-0.753176 0,-0.502117 -0.358656,-0.956413 -0.944459,-0.956413 -1.099875,0 -1.542216,1.733499 -1.542216,1.829141 0,0.04782 0.04782,0.107596 0.131506,0.107596 0.107597,0 0.119552,-0.047821 0.167373,-0.215193 0.286924,-1.004234 0.74122,-1.482441 1.207472,-1.482441 0.107596,0 0.310834,0 0.310834,0.394521 0,0.310834 -0.131507,0.657534 -0.310834,1.11183 -0.585804,1.566127 -0.585804,1.960648 -0.585804,2.247572 0,1.135741 0.812952,1.398755 1.41071,1.398755 0.3467,0 0.777086,-0.107597 1.195517,-0.549938 l 0.011955,0.011955 C 3.682192,0.286924 3.56264,0.753176 3.144209,1.338979 Z"
           id="equation_00_00"
           inkscape:connector-curvature="0" />
      </defs>
      <g
         id="equation_00_g">
        <use
           id="use3398"
           xlink:href="#equation_00_00"
           y="62.764633"
           x="76.712326"
           width="100%"
           height="100%" />
      </g>
    </g>
    <g
       title="\large$x$"
       style="fill:#000000"
       id="equation_01"
       transform="translate(116.99994,67.092535)">
      <defs
         id="defs3445">
        <path
           d="m 5.66675,-4.877709 c -0.382566,0.071731 -0.526028,0.358655 -0.526028,0.585804 0,0.286924 0.227148,0.382565 0.394521,0.382565 0.358655,0 0.609713,-0.310834 0.609713,-0.633624 0,-0.502117 -0.573848,-0.729265 -1.075965,-0.729265 -0.729265,0 -1.135741,0.71731 -1.243337,0.944458 -0.274969,-0.896637 -1.016189,-0.944458 -1.231383,-0.944458 -1.219427,0 -1.865006,1.566127 -1.865006,1.829141 0,0.04782 0.047821,0.107596 0.131507,0.107596 0.095641,0 0.119552,-0.071731 0.143462,-0.119552 0.406476,-1.327023 1.207472,-1.578082 1.554172,-1.578082 0.537983,0 0.645579,0.502117 0.645579,0.789041 0,0.263014 -0.071731,0.537983 -0.215193,1.111831 l -0.406476,1.637858 c -0.179327,0.71731 -0.526027,1.374844 -1.159651,1.374844 -0.059776,0 -0.358655,0 -0.609714,-0.155417 0.430386,-0.083686 0.526028,-0.442341 0.526028,-0.585803 0,-0.239103 -0.179328,-0.382565 -0.406476,-0.382565 -0.286924,0 -0.597758,0.251058 -0.597758,0.633623 0,0.502117 0.561893,0.729266 1.075965,0.729266 0.573848,0 0.980324,-0.454297 1.231382,-0.944459 0.191283,0.705355 0.789041,0.944459 1.231382,0.944459 1.219428,0 1.865007,-1.566127 1.865007,-1.829141 0,-0.059776 -0.047821,-0.107597 -0.119552,-0.107597 -0.107596,0 -0.119552,0.059776 -0.155417,0.155418 -0.32279,1.052054 -1.016189,1.542216 -1.554172,1.542216 -0.418431,0 -0.645579,-0.310834 -0.645579,-0.800996 0,-0.263014 0.047821,-0.454296 0.239103,-1.243337 l 0.418431,-1.625903 c 0.179328,-0.71731 0.585803,-1.243338 1.135741,-1.243338 0.02391,0 0.358655,0 0.609714,0.155417 z"
           id="equation_01_00"
           inkscape:connector-curvature="0" />
      </defs>
      <g
         id="equation_01_g">
        <use
           id="use3447"
           xlink:href="#equation_01_00"
           y="62.764633"
           x="76.712326"
           width="100%"
           height="100%" />
      </g>
    </g>
    <g
       title="\large$O$"
       style="fill:#000000"
       id="equation_02"
       transform="translate(30.478883,68.344692)">
      <defs
         id="defs3564">
        <path
           d="m 8.679452,-5.236364 c 0,-1.972602 -1.291158,-3.180074 -2.964882,-3.180074 -2.558406,0 -5.140722,2.749688 -5.140722,5.511332 0,1.876962 1.243338,3.156165 2.976837,3.156165 2.510585,0 5.128767,-2.618182 5.128767,-5.487423 z M 3.622416,-0.02391 c -0.980324,0 -2.020423,-0.71731 -2.020423,-2.582317 0,-1.08792 0.39452,-2.86924 1.374844,-4.064757 0.872727,-1.052055 1.876961,-1.482441 2.677958,-1.482441 1.052054,0 2.068244,0.765131 2.068244,2.486675 0,1.06401 -0.454297,2.725779 -1.255293,3.86152 -0.872727,1.219427 -1.960648,1.78132 -2.84533,1.78132 z"
           id="equation_02_00"
           inkscape:connector-curvature="0" />
      </defs>
      <g
         id="equation_02_g">
        <use
           id="use3566"
           xlink:href="#equation_02_00"
           y="62.764633"
           x="76.712326"
           width="100%"
           height="100%" />
      </g>
    </g>
    <rect
       style="opacity:1;fill:none;fill-opacity:1;fill-rule:evenodd;stroke:#e80000;stroke-width:0.35696051;stroke-linecap:butt;stroke-linejoin:bevel;stroke-miterlimit:4;stroke-dasharray:none;stroke-dashoffset:0;stroke-opacity:1;paint-order:normal"
       id="rect5245"
       width="79.643036"
       height="199.98732"
       x="-227.53532"
       y="-4.6186709" />
    <path
       id="path6735"
       title="asin(x/10)"
       d="m 62.842989,206.93455 c 0.02657,-0.29267 0.05315,-0.57107 0.07972,-0.8386 0.02657,-0.26753 0.05315,-0.52411 0.07972,-0.77205 0.02657,-0.24794 0.05315,-0.48717 0.07972,-0.71931 0.02657,-0.23213 0.05315,-0.45712 0.07972,-0.67616 0.02657,-0.21904 0.05315,-0.43208 0.07972,-0.64003 0.02657,-0.20795 0.05315,-0.41078 0.07972,-0.6092 0.02657,-0.19841 0.05315,-0.39238 0.07972,-0.58248 0.02658,-0.19009 0.05315,-0.37628 0.07972,-0.55904 0.02657,-0.18275 0.05315,-0.36205 0.07972,-0.53827 0.02657,-0.17621 0.05315,-0.34934 0.07972,-0.51968 0.02657,-0.17035 0.05315,-0.3379 0.07972,-0.50294 0.02658,-0.16503 0.05315,-0.32753 0.07972,-0.48774 0.02657,-0.1602 0.05315,-0.31808 0.07972,-0.47386 0.02657,-0.15578 0.05315,-0.30944 0.07972,-0.46115 0.02657,-0.15171 0.05315,-0.30146 0.07972,-0.44941 0.02658,-0.14795 0.05315,-0.29409 0.07972,-0.43856 0.02657,-0.14447 0.05315,-0.28725 0.07972,-0.42847 0.02657,-0.14123 0.05315,-0.28088 0.07972,-0.41908 0.02657,-0.13819 0.05315,-0.27492 0.07972,-0.41028 0.02658,-0.13536 0.05315,-0.26934 0.07972,-0.40204 0.02657,-0.1327 0.05315,-0.2641 0.07972,-0.39429 0.02657,-0.1302 0.05315,-0.25917 0.07972,-0.38699 0.02657,-0.12783 0.05315,-0.25451 0.07972,-0.3801 0.02658,-0.12559 0.05315,-0.25009 0.07972,-0.37356 0.02657,-0.12348 0.05315,-0.24592 0.07972,-0.36738 0.02657,-0.12146 0.05315,-0.24194 0.07972,-0.36149 0.02657,-0.11956 0.05315,-0.23817 0.07972,-0.3559 0.02658,-0.11774 0.05315,-0.23458 0.07972,-0.35057 0.02657,-0.116 0.05315,-0.23115 0.07972,-0.34548 0.02657,-0.11434 0.05315,-0.22787 0.07972,-0.34062 0.02657,-0.11275 0.05315,-0.22473 0.07972,-0.33597 0.02657,-0.11123 0.05315,-0.22172 0.07972,-0.3315 0.02657,-0.10978 0.05315,-0.21885 0.07972,-0.32723 0.02657,-0.10838 0.05315,-0.21608 0.07972,-0.32312 0.02657,-0.10704 0.05315,-0.21342 0.07972,-0.31918 0.02657,-0.10575 0.05315,-0.21086 0.07972,-0.31537 0.02658,-0.10451 0.05315,-0.20841 0.07972,-0.31172 0.02657,-0.10331 0.05315,-0.20604 0.07972,-0.30819 0.02657,-0.10216 0.05315,-0.20375 0.07972,-0.30479 0.02657,-0.10105 0.05315,-0.20154 0.07972,-0.30151 0.02658,-0.1 0.05315,-0.1994 0.07972,-0.29833 0.02657,-0.0989 0.05315,-0.19734 0.07972,-0.29527 0.02657,-0.0979 0.05315,-0.19534 0.07972,-0.29229 0.02657,-0.0969 0.05315,-0.19341 0.07972,-0.28942 0.02658,-0.096 0.05315,-0.19154 0.07972,-0.28663 0.02657,-0.0951 0.05315,-0.18972 0.07972,-0.28393 0.02657,-0.0942 0.05315,-0.18796 0.07972,-0.2813 0.02657,-0.0934 0.05315,-0.18626 0.07972,-0.27877 0.02658,-0.0925 0.05315,-0.1846 0.07972,-0.27629 0.02657,-0.0917 0.05315,-0.18299 0.07972,-0.27389 0.02657,-0.0909 0.05315,-0.18142 0.07972,-0.27156 0.02657,-0.0901 0.05315,-0.1799 0.07972,-0.26929 0.02658,-0.0894 0.05315,-0.17841 0.07972,-0.26707 0.02657,-0.0887 0.05315,-0.17697 0.07972,-0.26493 0.02657,-0.088 0.05315,-0.17556 0.07972,-0.26283 0.02657,-0.0873 0.05315,-0.17419 0.07972,-0.26079 0.02658,-0.0866 0.05315,-0.17285 0.07972,-0.25879 0.02658,-0.0859 0.05315,-0.17156 0.07972,-0.25686 0.02657,-0.0853 0.05315,-0.17028 0.07972,-0.25496 0.02657,-0.0847 0.05315,-0.16904 0.07972,-0.25311 0.02657,-0.0841 0.05315,-0.16783 0.07972,-0.2513 0.02657,-0.0835 0.05315,-0.16665 0.07972,-0.24955 0.02657,-0.0829 0.05315,-0.16549 0.07972,-0.24782 0.02657,-0.0823 0.05315,-0.16436 0.07972,-0.24613 0.02657,-0.0818 0.05315,-0.16327 0.07972,-0.24449 0.02657,-0.0812 0.05315,-0.16219 0.07972,-0.24288 0.02657,-0.0807 0.05315,-0.16113 0.07972,-0.24131 0.02657,-0.0802 0.05315,-0.1601 0.07972,-0.23976 0.02657,-0.0797 0.05315,-0.15909 0.07972,-0.23826 0.02658,-0.0792 0.05315,-0.1581 0.07972,-0.23678 0.02657,-0.0787 0.05315,-0.15713 0.07972,-0.23533 0.02657,-0.0782 0.05315,-0.15618 0.07972,-0.23392 0.02657,-0.0777 0.05315,-0.15525 0.07972,-0.23253 0.02658,-0.0773 0.05315,-0.15433 0.07972,-0.23116 0.02657,-0.0768 0.05315,-0.15344 0.07972,-0.22984 0.02657,-0.0764 0.05315,-0.15256 0.07972,-0.22852 0.02657,-0.076 0.05315,-0.15171 0.07972,-0.22724 0.02658,-0.0755 0.05315,-0.15086 0.07972,-0.22598 0.02657,-0.0751 0.05315,-0.15004 0.07972,-0.22475 0.02657,-0.0747 0.05315,-0.14922 0.07972,-0.22354 0.02657,-0.0743 0.05315,-0.14842 0.07972,-0.22234 0.02658,-0.0739 0.05315,-0.14764 0.07972,-0.22118 0.02657,-0.0735 0.05315,-0.14687 0.07972,-0.22002 0.02657,-0.0732 0.05315,-0.14612 0.07972,-0.21891 0.02657,-0.0728 0.05315,-0.14537 0.07972,-0.21779 0.02658,-0.0724 0.05315,-0.14465 0.07972,-0.21671 0.02658,-0.072 0.05315,-0.14393 0.07972,-0.21563 0.02657,-0.0717 0.05315,-0.14323 0.07972,-0.21459 0.02657,-0.0713 0.05315,-0.14253 0.07972,-0.21355 0.02657,-0.071 0.05315,-0.14186 0.07972,-0.21253 0.02658,-0.0707 0.05315,-0.14119 0.07972,-0.21154 0.02657,-0.0703 0.05315,-0.14053 0.07972,-0.21055 0.02657,-0.07 0.05315,-0.13988 0.07972,-0.20959 0.02657,-0.0697 0.05315,-0.13924 0.07972,-0.20863 0.02658,-0.0694 0.05315,-0.13862 0.07972,-0.2077 0.02657,-0.0691 0.05315,-0.138 0.07972,-0.20677 0.02657,-0.0688 0.05315,-0.1374 0.07972,-0.20587 0.02657,-0.0685 0.05315,-0.1368 0.07972,-0.20498 0.02657,-0.0682 0.05315,-0.13621 0.07972,-0.20409 0.02657,-0.0679 0.05315,-0.13563 0.07972,-0.20323 0.02657,-0.0676 0.05315,-0.13506 0.07972,-0.20238 0.02657,-0.0673 0.05315,-0.13449 0.07972,-0.20153 0.02658,-0.067 0.05315,-0.13394 0.07972,-0.20071 0.02657,-0.0668 0.05315,-0.1334 0.07972,-0.19989 0.02657,-0.0665 0.05315,-0.13286 0.07972,-0.19909 0.02657,-0.0662 0.05315,-0.13233 0.07972,-0.1983 0.02658,-0.066 0.05315,-0.1318 0.07972,-0.19751 0.02657,-0.0657 0.05315,-0.13129 0.07972,-0.19674 0.02657,-0.0655 0.05315,-0.13079 0.07972,-0.19599 0.02657,-0.0652 0.05315,-0.13028 0.07972,-0.19524 0.02658,-0.0649 0.05315,-0.12979 0.07972,-0.1945 0.02657,-0.0647 0.05315,-0.1293 0.07972,-0.19377 0.02657,-0.0645 0.05315,-0.12882 0.07972,-0.19305 0.02657,-0.0642 0.05315,-0.12835 0.07972,-0.19235 0.02658,-0.064 0.05315,-0.12788 0.07972,-0.19165 0.02658,-0.0638 0.05315,-0.12742 0.07972,-0.19095 0.02657,-0.0635 0.05315,-0.12697 0.07972,-0.19028 0.02657,-0.0633 0.05315,-0.12652 0.07972,-0.18961 0.02657,-0.0631 0.05315,-0.12607 0.07972,-0.18894 0.02658,-0.0629 0.05315,-0.12564 0.07972,-0.18829 0.02657,-0.0627 0.05315,-0.12521 0.07972,-0.18765 0.02657,-0.0624 0.05315,-0.12478 0.07972,-0.18701 0.02657,-0.0622 0.05315,-0.12436 0.07972,-0.18638 0.02658,-0.062 0.05315,-0.12394 0.07972,-0.18576 0.02657,-0.0618 0.05315,-0.12353 0.07972,-0.18514 0.02657,-0.0616 0.05315,-0.12313 0.07972,-0.18454 0.02657,-0.0614 0.05315,-0.12273 0.07972,-0.18394 0.02658,-0.0612 0.05315,-0.12234 0.07972,-0.18336 0.02657,-0.061 0.05315,-0.12194 0.07972,-0.18276 0.02657,-0.0608 0.05315,-0.12156 0.07972,-0.18219 0.02657,-0.0606 0.05315,-0.12118 0.07972,-0.18163 0.02657,-0.0604 0.05315,-0.12079 0.07972,-0.18106 0.02657,-0.0603 0.05315,-0.12042 0.07972,-0.1805 0.02657,-0.0601 0.05315,-0.12006 0.07972,-0.17995 0.02657,-0.0599 0.05315,-0.1197 0.07972,-0.17941 0.02658,-0.0597 0.05315,-0.11934 0.07972,-0.17888 0.02657,-0.0595 0.05315,-0.11898 0.07972,-0.17834 0.02657,-0.0594 0.05315,-0.11864 0.07972,-0.17782 0.02657,-0.0592 0.05315,-0.11829 0.07972,-0.1773 0.02658,-0.059 0.05315,-0.11795 0.07972,-0.17679 0.02657,-0.0589 0.05315,-0.11761 0.07972,-0.17629 0.02657,-0.0587 0.05315,-0.11727 0.07972,-0.17578 0.02657,-0.0585 0.05315,-0.11694 0.07972,-0.17529 0.02657,-0.0583 0.05315,-0.11661 0.07972,-0.17479 0.02658,-0.0582 0.05315,-0.11629 0.07972,-0.17432 0.02657,-0.058 0.05315,-0.11597 0.07972,-0.17383 0.02657,-0.0579 0.05315,-0.11566 0.07972,-0.17337 0.02657,-0.0577 0.05315,-0.11534 0.07972,-0.17289 0.02658,-0.0575 0.05315,-0.11503 0.07972,-0.17243 0.02657,-0.0574 0.05315,-0.11472 0.07972,-0.17197 0.02657,-0.0572 0.05315,-0.11442 0.07972,-0.17152 0.02657,-0.0571 0.05315,-0.11412 0.07972,-0.17107 0.02658,-0.057 0.05315,-0.11382 0.07972,-0.17063 0.02657,-0.0568 0.05315,-0.11353 0.07972,-0.17018 0.02657,-0.0567 0.05315,-0.11324 0.07972,-0.16976 0.02657,-0.0565 0.05315,-0.11295 0.07972,-0.16932 0.02658,-0.0564 0.05315,-0.11267 0.07972,-0.1689 0.02657,-0.0562 0.05315,-0.11238 0.07972,-0.16847 0.02657,-0.0561 0.05315,-0.11211 0.07972,-0.16806 0.02657,-0.056 0.05315,-0.11184 0.07972,-0.16765 0.02658,-0.0558 0.05315,-0.11156 0.07972,-0.16724 0.02657,-0.0557 0.05315,-0.11129 0.07972,-0.16684 0.02657,-0.0555 0.05315,-0.11102 0.07972,-0.16643 0.02657,-0.0554 0.05315,-0.11076 0.07972,-0.16604 0.02657,-0.0553 0.05315,-0.1105 0.07972,-0.16565 0.02657,-0.0551 0.05315,-0.11024 0.07972,-0.16526 0.02657,-0.055 0.05315,-0.10999 0.07972,-0.16488 0.02657,-0.0549 0.05315,-0.10973 0.07972,-0.1645 0.02657,-0.0548 0.05315,-0.10947 0.07972,-0.16412 0.02657,-0.0546 0.05315,-0.10922 0.07972,-0.16374 0.02657,-0.0545 0.05315,-0.10898 0.07972,-0.16338 0.02657,-0.0544 0.05315,-0.10874 0.07972,-0.16301 0.02657,-0.0543 0.05315,-0.1085 0.07972,-0.16265 0.02658,-0.0542 0.05315,-0.10826 0.07972,-0.1623 0.02657,-0.054 0.05315,-0.10801 0.07972,-0.16193 0.02657,-0.0539 0.05315,-0.10778 0.07972,-0.16159 0.02657,-0.0538 0.05315,-0.10755 0.07972,-0.16124 0.02658,-0.0537 0.05315,-0.10731 0.07972,-0.16089 0.02657,-0.0536 0.05315,-0.10709 0.07972,-0.16055 0.02657,-0.0535 0.05315,-0.10686 0.07972,-0.16021 0.02657,-0.0533 0.05315,-0.10664 0.07972,-0.15987 0.02658,-0.0532 0.05315,-0.10642 0.07972,-0.15955 0.02657,-0.0531 0.05315,-0.1062 0.07972,-0.15921 0.02657,-0.053 0.05315,-0.10598 0.07972,-0.15889 0.02657,-0.0529 0.05315,-0.10577 0.07972,-0.15857 0.02658,-0.0528 0.05315,-0.10555 0.07972,-0.15824 0.02657,-0.0527 0.05315,-0.10534 0.07972,-0.15793 0.02657,-0.0526 0.05315,-0.10513 0.07972,-0.15762 0.02657,-0.0525 0.05315,-0.10492 0.07972,-0.1573 0.02658,-0.0524 0.05315,-0.10471 0.07972,-0.15699 0.02657,-0.0523 0.05315,-0.10451 0.07972,-0.15669 0.02657,-0.0522 0.05315,-0.10431 0.07972,-0.15639 0.02657,-0.0521 0.05315,-0.10411 0.07972,-0.15608 0.02658,-0.052 0.05315,-0.10391 0.07972,-0.15579 0.02657,-0.0519 0.05315,-0.10371 0.07972,-0.1555 0.02657,-0.0518 0.05315,-0.10351 0.07972,-0.1552 0.02657,-0.0517 0.05315,-0.10332 0.07972,-0.15491 0.02657,-0.0516 0.05315,-0.10313 0.07972,-0.15462 0.02657,-0.0515 0.05315,-0.10294 0.07972,-0.15434 0.02657,-0.0514 0.05315,-0.10275 0.07972,-0.15406 0.02657,-0.0513 0.05315,-0.10256 0.07972,-0.15378 0.02657,-0.0512 0.05315,-0.10238 0.07972,-0.1535 0.02658,-0.0511 0.05315,-0.10219 0.07972,-0.15322 0.02657,-0.051 0.05315,-0.10202 0.07972,-0.15296 0.02657,-0.0509 0.05315,-0.10183 0.07972,-0.15268 0.02657,-0.0509 0.05315,-0.10166 0.07972,-0.15242 0.02658,-0.0508 0.05315,-0.10147 0.07972,-0.15215 0.02657,-0.0507 0.05315,-0.1013 0.07972,-0.15188 0.02657,-0.0506 0.05315,-0.10113 0.07972,-0.15163 0.02657,-0.0505 0.05315,-0.10095 0.07972,-0.15137 0.02658,-0.0504 0.05315,-0.10078 0.07972,-0.15111 0.02657,-0.0503 0.05315,-0.10061 0.07972,-0.15086 0.02657,-0.0502 0.05315,-0.10044 0.07972,-0.1506 0.02657,-0.0502 0.05315,-0.10028 0.07972,-0.15036 0.02658,-0.0501 0.05315,-0.10011 0.07972,-0.1501 0.02657,-0.05 0.05315,-0.1 0.07972,-0.14987 0.02657,-0.0499 0.05315,-0.0998 0.07972,-0.14961 0.02657,-0.0498 0.05315,-0.0996 0.07972,-0.14938 0.02658,-0.0498 0.05315,-0.0995 0.07972,-0.14914 0.02657,-0.0497 0.05315,-0.0993 0.07972,-0.1489 0.02657,-0.0496 0.05315,-0.0991 0.07972,-0.14866 0.02657,-0.0495 0.05315,-0.099 0.07972,-0.14843 0.02658,-0.0494 0.05315,-0.0988 0.07972,-0.1482 0.02657,-0.0494 0.05315,-0.0987 0.07972,-0.14796 0.02657,-0.0493 0.05315,-0.0985 0.07972,-0.14774 0.02657,-0.0492 0.05315,-0.0984 0.07972,-0.14752 0.02658,-0.0491 0.05315,-0.0982 0.07972,-0.14729 0.02657,-0.0491 0.05315,-0.0981 0.07972,-0.14706 0.02657,-0.049 0.05315,-0.0979 0.07972,-0.14685 0.02657,-0.0489 0.05315,-0.0978 0.07972,-0.14663 0.02657,-0.0488 0.05315,-0.0976 0.07972,-0.14641 0.02658,-0.0488 0.05315,-0.0975 0.07972,-0.14619 0.02657,-0.0487 0.05315,-0.0974 0.07972,-0.14599 0.02657,-0.0486 0.05315,-0.0972 0.07972,-0.14577 0.02657,-0.0486 0.05315,-0.0971 0.07972,-0.14556 0.02658,-0.0485 0.05315,-0.0969 0.07972,-0.14535 0.02657,-0.0484 0.05315,-0.0968 0.07972,-0.14514 0.02657,-0.0483 0.05315,-0.0967 0.07972,-0.14494 0.02657,-0.0483 0.05315,-0.0965 0.07972,-0.14474 0.02658,-0.0482 0.05315,-0.0964 0.07972,-0.14453 0.02657,-0.0481 0.05315,-0.0963 0.07972,-0.14434 0.02657,-0.0481 0.05315,-0.0961 0.07972,-0.14413 0.02657,-0.048 0.05315,-0.096 0.07972,-0.14394 0.02658,-0.0479 0.05315,-0.0959 0.07972,-0.14374 0.02657,-0.0479 0.05315,-0.0957 0.07972,-0.14355 0.02657,-0.0478 0.05315,-0.0956 0.07972,-0.14336 0.02657,-0.0478 0.05315,-0.0955 0.07972,-0.14317 0.02658,-0.0477 0.05315,-0.0953 0.07972,-0.14297 0.02657,-0.0476 0.05315,-0.0952 0.07972,-0.14279 0.02657,-0.0476 0.05315,-0.0951 0.07972,-0.1426 0.02657,-0.0475 0.05315,-0.095 0.07972,-0.14242 0.02658,-0.0474 0.05315,-0.0948 0.07972,-0.14224 0.02657,-0.0474 0.05315,-0.0947 0.07972,-0.14205 0.02657,-0.0473 0.05315,-0.0946 0.07972,-0.14187 0.02657,-0.0473 0.05315,-0.0945 0.07972,-0.14169 0.02658,-0.0472 0.05315,-0.0944 0.07972,-0.14152 0.02657,-0.0471 0.05315,-0.0943 0.07972,-0.14133 0.02657,-0.0471 0.05315,-0.0941 0.07972,-0.14117 0.02657,-0.047 0.05315,-0.094 0.07972,-0.14099 0.02657,-0.047 0.05315,-0.0939 0.07972,-0.14082 0.02657,-0.0469 0.05315,-0.0938 0.07972,-0.14064 0.02657,-0.0469 0.05315,-0.0937 0.07972,-0.14048 0.02657,-0.0468 0.05315,-0.0936 0.07972,-0.14031 0.02657,-0.0467 0.05315,-0.0934 0.07972,-0.14014 0.02658,-0.0467 0.05315,-0.0933 0.07972,-0.13998 0.02657,-0.0466 0.05315,-0.0932 0.07972,-0.13981 0.02657,-0.0466 0.05315,-0.0931 0.07972,-0.13965 0.02657,-0.0465 0.05315,-0.093 0.07972,-0.13948 0.02658,-0.0465 0.05315,-0.0929 0.07972,-0.13933 0.02657,-0.0464 0.05315,-0.0928 0.07972,-0.13917 0.02657,-0.0464 0.05315,-0.0927 0.07972,-0.13901 0.02657,-0.0463 0.05315,-0.0926 0.07972,-0.13885 0.02658,-0.0463 0.05315,-0.0925 0.07972,-0.13869 0.02657,-0.0462 0.05315,-0.0924 0.07972,-0.13855 0.02657,-0.0462 0.05315,-0.0923 0.07972,-0.13838 0.02657,-0.0461 0.05315,-0.0922 0.07972,-0.13824 0.02658,-0.046 0.05315,-0.0921 0.07972,-0.13809 0.02657,-0.046 0.05315,-0.092 0.07972,-0.13793 0.02657,-0.046 0.05315,-0.0919 0.07972,-0.13779 0.02657,-0.0459 0.05315,-0.0918 0.07972,-0.13764 0.02658,-0.0459 0.05315,-0.0917 0.07972,-0.13749 0.02657,-0.0458 0.05315,-0.0916 0.07972,-0.13735 0.02657,-0.0458 0.05315,-0.0915 0.07972,-0.13721 0.02657,-0.0457 0.05315,-0.0914 0.07972,-0.13706 0.02658,-0.0457 0.05315,-0.0913 0.07972,-0.13692 0.02657,-0.0456 0.05315,-0.0912 0.07972,-0.13677 0.02657,-0.0456 0.05315,-0.0911 0.07972,-0.13664 0.02657,-0.0455 0.05315,-0.091 0.07972,-0.1365 0.02657,-0.0455 0.05315,-0.0909 0.07972,-0.13637 0.02658,-0.0454 0.05315,-0.0908 0.07972,-0.13622 0.02657,-0.0454 0.05315,-0.0908 0.07972,-0.13609 0.02657,-0.0453 0.05315,-0.0907 0.07972,-0.13596 0.02657,-0.0453 0.05315,-0.0906 0.07972,-0.13582 0.02657,-0.0453 0.05315,-0.0905 0.07972,-0.1357 0.02657,-0.0452 0.05315,-0.0904 0.07972,-0.13556 0.02657,-0.0452 0.05315,-0.0903 0.07972,-0.13543 0.02657,-0.0451 0.05315,-0.0902 0.07972,-0.1353 0.02657,-0.0451 0.05315,-0.0901 0.07972,-0.13517 0.02657,-0.045 0.05315,-0.09 0.07972,-0.13504 0.02657,-0.045 0.05315,-0.09 0.07972,-0.13492 0.02657,-0.045 0.05315,-0.0899 0.07972,-0.13479 0.02658,-0.0449 0.05315,-0.0898 0.07972,-0.13467 0.02657,-0.0449 0.05315,-0.0897 0.07972,-0.13455 0.02657,-0.0448 0.05315,-0.0896 0.07972,-0.13442 0.02657,-0.0448 0.05315,-0.0896 0.07972,-0.13431 0.02658,-0.0447 0.05315,-0.0895 0.07972,-0.13418 0.02657,-0.0447 0.05315,-0.0894 0.07972,-0.13406 0.02657,-0.0447 0.05315,-0.0893 0.07972,-0.13394 0.02657,-0.0446 0.05315,-0.0892 0.07972,-0.13383 0.02658,-0.0446 0.05315,-0.0892 0.07972,-0.13371 0.02657,-0.0446 0.05315,-0.0891 0.07972,-0.13359 0.02657,-0.0445 0.05315,-0.089 0.07972,-0.13348 0.02657,-0.0445 0.05315,-0.0889 0.07972,-0.13336 0.02658,-0.0444 0.05315,-0.0889 0.07972,-0.13325 0.02658,-0.0444 0.05315,-0.0888 0.07972,-0.13314 0.02657,-0.0444 0.05315,-0.0887 0.07972,-0.13303 0.02657,-0.0443 0.05315,-0.0886 0.07972,-0.13292 0.02657,-0.0443 0.05315,-0.0885 0.07972,-0.1328 0.02658,-0.0443 0.05315,-0.0885 0.07972,-0.1327 0.02657,-0.0442 0.05315,-0.0884 0.07972,-0.13259 0.02657,-0.0442 0.05315,-0.0883 0.07972,-0.13249 0.02657,-0.0441 0.05315,-0.0883 0.07972,-0.13238 0.02658,-0.0441 0.05315,-0.0882 0.07972,-0.13227 0.02657,-0.0441 0.05315,-0.0881 0.07972,-0.13217 0.02657,-0.044 0.05315,-0.0881 0.07972,-0.13206 0.02657,-0.044 0.05315,-0.088 0.07972,-0.13196 0.02657,-0.044 0.05315,-0.0879 0.07972,-0.13186 0.02657,-0.0439 0.05315,-0.0879 0.07972,-0.13176 0.02657,-0.0439 0.05315,-0.0878 0.07972,-0.13166 0.02657,-0.0439 0.05315,-0.0877 0.07972,-0.13156 0.02657,-0.0438 0.05315,-0.0876 0.07972,-0.13146 0.02657,-0.0438 0.05315,-0.0876 0.07972,-0.13136 0.02657,-0.0438 0.05315,-0.0875 0.07972,-0.13126 0.02657,-0.0437 0.05315,-0.0875 0.07972,-0.13117 0.02658,-0.0437 0.05315,-0.0874 0.07972,-0.13108 0.02657,-0.0437 0.05315,-0.0873 0.07972,-0.13097 0.02657,-0.0436 0.05315,-0.0873 0.07972,-0.13089 0.02657,-0.0436 0.05315,-0.0872 0.07972,-0.13079 0.02658,-0.0436 0.05315,-0.0871 0.07972,-0.1307 0.02657,-0.0435 0.05315,-0.0871 0.07972,-0.13061 0.02657,-0.0435 0.05315,-0.087 0.07972,-0.13051 0.02657,-0.0435 0.05315,-0.087 0.07972,-0.13043 0.02658,-0.0435 0.05315,-0.0869 0.07972,-0.13033 0.02658,-0.0434 0.05315,-0.0868 0.07972,-0.13025 0.02657,-0.0434 0.05315,-0.0868 0.07972,-0.13016 0.02657,-0.0434 0.05315,-0.0867 0.07972,-0.13008 0.02657,-0.0433 0.05315,-0.0867 0.07972,-0.12998 0.02658,-0.0433 0.05315,-0.0866 0.07972,-0.1299 0.02657,-0.0433 0.05315,-0.0866 0.07972,-0.12982 0.02657,-0.0433 0.05315,-0.0865 0.07972,-0.12973 0.02657,-0.0432 0.05315,-0.0864 0.07972,-0.12965 0.02658,-0.0432 0.05315,-0.0864 0.07972,-0.12957 0.02657,-0.0432 0.05315,-0.0863 0.07972,-0.12948 0.02657,-0.0431 0.05315,-0.0863 0.07972,-0.1294 0.02657,-0.0431 0.05315,-0.0862 0.07972,-0.12932 0.02658,-0.0431 0.05315,-0.0862 0.07972,-0.12924 0.02657,-0.0431 0.05315,-0.0861 0.07972,-0.12917 0.02657,-0.043 0.05315,-0.0861 0.07972,-0.12908 0.02657,-0.043 0.05315,-0.086 0.07972,-0.12901 0.02658,-0.043 0.05315,-0.086 0.07972,-0.12893 0.02657,-0.043 0.05315,-0.0859 0.07972,-0.12885 0.02657,-0.0429 0.05315,-0.0859 0.07972,-0.12877 0.02657,-0.0429 0.05315,-0.0858 0.07972,-0.12871 0.02657,-0.0429 0.05315,-0.0858 0.07972,-0.12862 0.02657,-0.0429 0.05315,-0.0857 0.07972,-0.12856 0.02657,-0.0428 0.05315,-0.0857 0.07972,-0.12848 0.02657,-0.0428 0.05315,-0.0856 0.07972,-0.1284 0.02658,-0.0428 0.05315,-0.0856 0.07972,-0.12834 0.02657,-0.0428 0.05315,-0.0855 0.07972,-0.12826 0.02657,-0.0428 0.05315,-0.0855 0.07972,-0.1282 0.02657,-0.0427 0.05315,-0.0854 0.07972,-0.12812 0.02658,-0.0427 0.05315,-0.0854 0.07972,-0.12806 0.02658,-0.0427 0.05315,-0.0853 0.07972,-0.12799 0.02657,-0.0426 0.05315,-0.0853 0.07972,-0.12791 0.02657,-0.0426 0.05315,-0.0853 0.07972,-0.12786 0.02657,-0.0426 0.05315,-0.0852 0.07972,-0.12778 0.02658,-0.0426 0.05315,-0.0852 0.07972,-0.12772 0.02657,-0.0426 0.05315,-0.0851 0.07972,-0.12766 0.02657,-0.0425 0.05315,-0.0851 0.07972,-0.12758 0.02657,-0.0425 0.05315,-0.085 0.07972,-0.12753 0.02658,-0.0425 0.05315,-0.085 0.07972,-0.12746 0.02657,-0.0425 0.05315,-0.0849 0.07972,-0.1274 0.02657,-0.0425 0.05315,-0.0849 0.07972,-0.12734 0.02657,-0.0424 0.05315,-0.0849 0.07972,-0.12727 0.02658,-0.0424 0.05315,-0.0848 0.07972,-0.12722 0.02657,-0.0424 0.05315,-0.0848 0.07972,-0.12715 0.02657,-0.0424 0.05315,-0.0847 0.07972,-0.1271 0.02657,-0.0423 0.05315,-0.0847 0.07972,-0.12703 0.02658,-0.0423 0.05315,-0.0847 0.07972,-0.12698 0.02657,-0.0423 0.05315,-0.0846 0.07972,-0.12692 0.02657,-0.0423 0.05315,-0.0846 0.07972,-0.12686 0.02657,-0.0423 0.05315,-0.0845 0.07972,-0.12681 0.02658,-0.0423 0.05315,-0.0845 0.07972,-0.12675 0.02657,-0.0422 0.05315,-0.0845 0.07972,-0.12669 0.02657,-0.0422 0.05315,-0.0844 0.07972,-0.12664 0.02657,-0.0422 0.05315,-0.0844 0.07972,-0.12658 0.02657,-0.0422 0.05315,-0.0844 0.07972,-0.12653 0.02657,-0.0422 0.05315,-0.0843 0.07972,-0.12648 0.02657,-0.0422 0.05315,-0.0843 0.07972,-0.12642 0.02657,-0.0421 0.05315,-0.0843 0.07972,-0.12638 0.02657,-0.0421 0.05315,-0.0842 0.07972,-0.12632 0.02658,-0.0421 0.05315,-0.0842 0.07972,-0.12627 0.02657,-0.0421 0.05315,-0.0842 0.07972,-0.12622 0.02657,-0.0421 0.05315,-0.0841 0.07972,-0.12617 0.02657,-0.042 0.05315,-0.0841 0.07972,-0.12612 0.02658,-0.042 0.05315,-0.0841 0.07972,-0.12608 0.02657,-0.042 0.05315,-0.084 0.07972,-0.12602 0.02657,-0.042 0.05315,-0.084 0.07972,-0.12598 0.02657,-0.042 0.05315,-0.084 0.07972,-0.12593 0.02657,-0.042 0.05315,-0.0839 0.07972,-0.12589 0.02657,-0.0419 0.05315,-0.0839 0.07972,-0.12584 0.02657,-0.0419 0.05315,-0.0839 0.07972,-0.12579 0.02657,-0.0419 0.05315,-0.0838 0.07972,-0.12575 0.02657,-0.0419 0.05315,-0.0838 0.07972,-0.12571 0.02657,-0.0419 0.05315,-0.0838 0.07972,-0.12566 0.02657,-0.0419 0.05315,-0.0838 0.07972,-0.12562 0.02657,-0.0419 0.05315,-0.0837 0.07972,-0.12557 0.02657,-0.0419 0.05315,-0.0837 0.07972,-0.12554 0.02657,-0.0418 0.05315,-0.0837 0.07972,-0.12549 0.02657,-0.0418 0.05315,-0.0836 0.07972,-0.12546 0.02657,-0.0418 0.05315,-0.0836 0.07972,-0.12541 0.02658,-0.0418 0.05315,-0.0836 0.07972,-0.12537 0.02657,-0.0418 0.05315,-0.0836 0.07972,-0.12534 0.02657,-0.0418 0.05315,-0.0835 0.07972,-0.12529 0.02657,-0.0418 0.05315,-0.0835 0.07972,-0.12526 0.02657,-0.0418 0.05315,-0.0835 0.07972,-0.12522 0.02657,-0.0417 0.05315,-0.0835 0.07972,-0.12518 0.02657,-0.0417 0.05315,-0.0834 0.07972,-0.12515 0.02657,-0.0417 0.05315,-0.0834 0.07972,-0.12511 0.02657,-0.0417 0.05315,-0.0834 0.07972,-0.12508 0.02658,-0.0417 0.05315,-0.0834 0.07972,-0.12504 0.02657,-0.0417 0.05315,-0.0833 0.07972,-0.125 0.02657,-0.0417 0.05315,-0.0833 0.07972,-0.12498 0.02657,-0.0417 0.05315,-0.0833 0.07972,-0.12494 0.02657,-0.0416 0.05315,-0.0833 0.07972,-0.1249 0.02657,-0.0416 0.05315,-0.0833 0.07972,-0.12488 0.02657,-0.0416 0.05315,-0.0832 0.07972,-0.12484 0.02657,-0.0416 0.05315,-0.0832 0.07972,-0.12481 0.02658,-0.0416 0.05315,-0.0832 0.07972,-0.12478 0.02657,-0.0416 0.05315,-0.0832 0.07972,-0.12476 0.02657,-0.0416 0.05315,-0.0831 0.07972,-0.12472 0.02657,-0.0416 0.05315,-0.0831 0.07972,-0.12469 0.02657,-0.0416 0.05315,-0.0831 0.07972,-0.12466 0.02657,-0.0416 0.05315,-0.0831 0.07972,-0.12464 0.02657,-0.0415 0.05315,-0.0831 0.07972,-0.12461 0.02657,-0.0415 0.05315,-0.0831 0.07972,-0.12458 0.02657,-0.0415 0.05315,-0.083 0.07972,-0.12456 0.02657,-0.0415 0.05315,-0.083 0.07972,-0.12452 0.02657,-0.0415 0.05315,-0.083 0.07972,-0.12451 0.02657,-0.0415 0.05315,-0.083 0.07972,-0.12448 0.02658,-0.0415 0.05315,-0.083 0.07972,-0.12445 0.02657,-0.0415 0.05315,-0.083 0.07972,-0.12443 0.02657,-0.0415 0.05315,-0.0829 0.07972,-0.12441 0.02657,-0.0415 0.05315,-0.0829 0.07972,-0.12438 0.02657,-0.0415 0.05315,-0.0829 0.07972,-0.12436 0.02657,-0.0414 0.05315,-0.0829 0.07972,-0.12434 0.02657,-0.0414 0.05315,-0.0829 0.07972,-0.12432 0.02657,-0.0414 0.05315,-0.0829 0.07972,-0.1243 0.02657,-0.0414 0.05315,-0.0828 0.07972,-0.12428 0.02658,-0.0414 0.05315,-0.0828 0.07972,-0.12425 0.0266,-0.0414 0.0532,-0.0828 0.0797,-0.12424 0.0266,-0.0414 0.0532,-0.0828 0.0797,-0.12422 0.0266,-0.0414 0.0532,-0.0828 0.0797,-0.1242 0.0266,-0.0414 0.0531,-0.0828 0.0797,-0.12418 0.0266,-0.0414 0.0532,-0.0828 0.0797,-0.12417 0.0266,-0.0414 0.0532,-0.0828 0.0797,-0.12415 0.02662,-0.0414 0.05321,-0.0828 0.07972,-0.12413 0.0266,-0.0414 0.0532,-0.0828 0.0797,-0.12411 0.0266,-0.0414 0.0532,-0.0827 0.0797,-0.12411 0.0266,-0.0414 0.0532,-0.0827 0.0797,-0.12408 0.0266,-0.0414 0.0532,-0.0827 0.0797,-0.12407 0.0266,-0.0414 0.0531,-0.0827 0.0797,-0.12406 0.0266,-0.0413 0.0532,-0.0827 0.0797,-0.12404 0.0266,-0.0414 0.0532,-0.0827 0.0797,-0.12403 0.0266,-0.0413 0.0532,-0.0827 0.0797,-0.12402 0.0266,-0.0413 0.0532,-0.0827 0.0797,-0.12401 0.0266,-0.0413 0.0532,-0.0827 0.0797,-0.12399 0.0266,-0.0413 0.0532,-0.0827 0.0797,-0.12399 0.0266,-0.0413 0.0532,-0.0827 0.0797,-0.12397 0.0266,-0.0413 0.0531,-0.0826 0.0797,-0.12396 0.0266,-0.0413 0.0532,-0.0826 0.0797,-0.12396 0.0266,-0.0413 0.0532,-0.0826 0.0797,-0.12394 0.0266,-0.0413 0.0532,-0.0826 0.0797,-0.12394 0.0266,-0.0413 0.0532,-0.0826 0.0797,-0.12393 0.0266,-0.0413 0.0532,-0.0826 0.0797,-0.12392 0.0266,-0.0413 0.0532,-0.0826 0.0797,-0.12391 0.0266,-0.0413 0.0532,-0.0826 0.0797,-0.12391 0.0266,-0.0413 0.0531,-0.0826 0.0797,-0.1239 0.0266,-0.0413 0.0532,-0.0826 0.0797,-0.1239 0.0266,-0.0413 0.0532,-0.0826 0.0797,-0.12389 0.0266,-0.0413 0.0532,-0.0826 0.0797,-0.12388 0.0266,-0.0413 0.0532,-0.0826 0.0797,-0.12388 0.0266,-0.0413 0.0532,-0.0826 0.0797,-0.12388 0.0266,-0.0413 0.0532,-0.0826 0.0797,-0.12388 0.0266,-0.0413 0.0532,-0.0826 0.0797,-0.12387 0.0266,-0.0413 0.0531,-0.0826 0.0797,-0.12387 0.0266,-0.0413 0.0532,-0.0826 0.0797,-0.12387 0.0266,-0.0413 0.0532,-0.0826 0.0797,-0.12386 0.0266,-0.0413 0.0532,-0.0826 0.0797,-0.12387 0.0266,-0.0413 0.0532,-0.0826 0.0797,-0.12387 0.0266,-0.0413 0.0532,-0.0826 0.0797,-0.12386 0.0266,-0.0413 0.0532,-0.0826 0.0797,-0.12387 0.0266,-0.0413 0.0532,-0.0826 0.0797,-0.12387 0.0266,-0.0413 0.0531,-0.0826 0.0797,-0.12387 0.0266,-0.0413 0.0532,-0.0826 0.0797,-0.12387 0.0266,-0.0413 0.0532,-0.0826 0.0797,-0.12387 0.0266,-0.0413 0.0532,-0.0826 0.0797,-0.12388 0.0266,-0.0413 0.0532,-0.0826 0.0797,-0.12388 0.0266,-0.0413 0.0532,-0.0826 0.0797,-0.12389 0.0266,-0.0413 0.0532,-0.0826 0.0797,-0.12389 0.0266,-0.0413 0.0532,-0.0826 0.0797,-0.1239 0.0266,-0.0413 0.0531,-0.0826 0.0797,-0.1239 0.0266,-0.0413 0.0532,-0.0826 0.0797,-0.1239 0.0266,-0.0413 0.0532,-0.0826 0.0797,-0.12392 0.0266,-0.0413 0.0532,-0.0826 0.0797,-0.12392 0.0266,-0.0413 0.0532,-0.0826 0.0797,-0.12393 0.0266,-0.0413 0.0532,-0.0826 0.0797,-0.12393 0.0266,-0.0413 0.0532,-0.0826 0.0797,-0.12395 0.0266,-0.0413 0.0532,-0.0826 0.0797,-0.12395 0.0266,-0.0413 0.0531,-0.0826 0.0797,-0.12397 0.0266,-0.0413 0.0532,-0.0826 0.0797,-0.12397 0.0266,-0.0413 0.0532,-0.0827 0.0797,-0.12398 0.0266,-0.0413 0.0532,-0.0827 0.0797,-0.124 0.0266,-0.0413 0.0532,-0.0827 0.0797,-0.124 0.0266,-0.0413 0.0532,-0.0827 0.0797,-0.12402 0.0266,-0.0413 0.0532,-0.0827 0.0797,-0.12403 0.0266,-0.0414 0.0532,-0.0827 0.0797,-0.12405 0.0266,-0.0413 0.0531,-0.0827 0.0797,-0.12405 0.0266,-0.0414 0.0532,-0.0827 0.0797,-0.12408 0.0266,-0.0414 0.0532,-0.0827 0.0797,-0.12408 0.0266,-0.0414 0.0532,-0.0827 0.0797,-0.1241 0.0266,-0.0414 0.0532,-0.0827 0.0797,-0.12412 0.0266,-0.0414 0.0532,-0.0827 0.0797,-0.12413 0.0266,-0.0414 0.0532,-0.0828 0.0797,-0.12415 0.0266,-0.0414 0.0532,-0.0828 0.0797,-0.12416 0.0266,-0.0414 0.0531,-0.0828 0.0797,-0.12419 0.0266,-0.0414 0.0532,-0.0828 0.0797,-0.1242 0.0266,-0.0414 0.0532,-0.0828 0.0797,-0.12421 0.0266,-0.0414 0.0532,-0.0828 0.0797,-0.12424 0.0266,-0.0414 0.0532,-0.0828 0.0797,-0.12426 0.0266,-0.0414 0.0532,-0.0828 0.0797,-0.12428 0.0266,-0.0414 0.0532,-0.0829 0.0797,-0.12429 0.0266,-0.0414 0.0532,-0.0829 0.0797,-0.12432 0.0266,-0.0414 0.0531,-0.0829 0.0797,-0.12434 0.0266,-0.0414 0.0532,-0.0829 0.0797,-0.12436 0.0266,-0.0415 0.0532,-0.0829 0.0797,-0.12439 0.0266,-0.0415 0.0532,-0.0829 0.0797,-0.12441 0.0266,-0.0415 0.0532,-0.0829 0.0797,-0.12443 0.0266,-0.0415 0.0532,-0.083 0.0797,-0.12445 0.0266,-0.0415 0.0532,-0.083 0.0797,-0.12448 0.0266,-0.0415 0.0532,-0.083 0.0797,-0.1245 0.0266,-0.0415 0.0531,-0.083 0.0797,-0.12453 0.0266,-0.0415 0.0532,-0.083 0.0797,-0.12456 0.0266,-0.0415 0.0532,-0.0831 0.0797,-0.12458 0.0266,-0.0415 0.0532,-0.0831 0.0797,-0.12461 0.0266,-0.0415 0.0532,-0.0831 0.0797,-0.12463 0.0266,-0.0416 0.0532,-0.0831 0.0797,-0.12467 0.0266,-0.0416 0.0532,-0.0831 0.0797,-0.12469 0.0266,-0.0416 0.0532,-0.0831 0.0797,-0.12472 0.0266,-0.0416 0.0531,-0.0832 0.0797,-0.12475 0.0266,-0.0416 0.0532,-0.0832 0.0797,-0.12478 0.0266,-0.0416 0.0532,-0.0832 0.0797,-0.12482 0.0266,-0.0416 0.0531,-0.0832 0.0797,-0.12484 0.0266,-0.0416 0.0532,-0.0832 0.0797,-0.12487 0.0266,-0.0416 0.0532,-0.0833 0.0797,-0.12491 0.0266,-0.0416 0.0532,-0.0833 0.0797,-0.12494 0.0266,-0.0417 0.0532,-0.0833 0.0797,-0.12497 0.0266,-0.0417 0.0531,-0.0833 0.0797,-0.12501 0.0266,-0.0417 0.0532,-0.0833 0.0797,-0.12504 0.0266,-0.0417 0.0532,-0.0834 0.0797,-0.12508 0.0266,-0.0417 0.0531,-0.0834 0.0797,-0.12511 0.0266,-0.0417 0.0532,-0.0834 0.0797,-0.12514 0.0266,-0.0417 0.0532,-0.0835 0.0797,-0.12519 0.0266,-0.0417 0.0532,-0.0835 0.0797,-0.12522 0.0266,-0.0417 0.0532,-0.0835 0.0797,-0.12526 0.0266,-0.0417 0.0531,-0.0835 0.0797,-0.12529 0.0266,-0.0418 0.0532,-0.0836 0.0797,-0.12533 0.0266,-0.0418 0.0532,-0.0836 0.0797,-0.12538 0.0266,-0.0418 0.0531,-0.0836 0.0797,-0.12541 0.0266,-0.0418 0.0532,-0.0836 0.0797,-0.12545 0.0266,-0.0418 0.0532,-0.0837 0.0797,-0.1255 0.0266,-0.0418 0.0532,-0.0837 0.0797,-0.12553 0.0266,-0.0418 0.0532,-0.0837 0.0797,-0.12558 0.0266,-0.0419 0.0531,-0.0837 0.0797,-0.12562 0.0266,-0.0419 0.0532,-0.0838 0.0797,-0.12566 0.0266,-0.0419 0.0532,-0.0838 0.0797,-0.12571 0.0266,-0.0419 0.0531,-0.0838 0.0797,-0.12575 0.0266,-0.0419 0.0532,-0.0838 0.0797,-0.12579 0.0266,-0.0419 0.0532,-0.0839 0.0797,-0.12584 0.0266,-0.0419 0.0532,-0.0839 0.0797,-0.12589 0.0266,-0.042 0.0532,-0.084 0.0797,-0.12593 0.0266,-0.042 0.0531,-0.084 0.0797,-0.12598 0.0266,-0.042 0.0532,-0.084 0.0797,-0.12602 0.0266,-0.042 0.0532,-0.084 0.0797,-0.12608 0.0266,-0.042 0.0531,-0.0841 0.0797,-0.12612 0.0266,-0.042 0.0532,-0.0841 0.0797,-0.12617 0.0266,-0.0421 0.0532,-0.0841 0.0797,-0.12622 0.0266,-0.0421 0.0532,-0.0842 0.0797,-0.12627 0.0266,-0.0421 0.0532,-0.0842 0.0797,-0.12632 0.0266,-0.0421 0.0532,-0.0842 0.0797,-0.12638 0.0266,-0.0421 0.0532,-0.0843 0.0797,-0.12642 0.0266,-0.0421 0.0532,-0.0843 0.0797,-0.12648 0.0266,-0.0422 0.0531,-0.0843 0.0797,-0.12653 0.0266,-0.0422 0.0532,-0.0844 0.0797,-0.12658 0.0266,-0.0422 0.0532,-0.0844 0.0797,-0.12664 0.0266,-0.0422 0.0532,-0.0844 0.0797,-0.1267 0.0266,-0.0422 0.0532,-0.0845 0.0797,-0.12674 0.0266,-0.0423 0.0532,-0.0845 0.0797,-0.12681 0.0266,-0.0423 0.0532,-0.0846 0.0797,-0.12686 0.0266,-0.0423 0.0532,-0.0846 0.0797,-0.12692 0.0266,-0.0423 0.0531,-0.0846 0.0797,-0.12698 0.0266,-0.0423 0.0532,-0.0847 0.0797,-0.12703 0.0266,-0.0424 0.0532,-0.0847 0.0797,-0.1271 0.0266,-0.0424 0.0532,-0.0848 0.0797,-0.12715 0.0266,-0.0424 0.0532,-0.0848 0.0797,-0.12722 0.0266,-0.0424 0.0532,-0.0848 0.0797,-0.12727 0.0266,-0.0424 0.0532,-0.0849 0.0797,-0.12734 0.0266,-0.0425 0.0532,-0.0849 0.0797,-0.1274 0.0266,-0.0425 0.0531,-0.085 0.0797,-0.12746 0.0266,-0.0425 0.0532,-0.085 0.0797,-0.12753 0.0266,-0.0425 0.0532,-0.085 0.0797,-0.12758 0.0266,-0.0425 0.0532,-0.0851 0.0797,-0.12766 0.0266,-0.0426 0.0532,-0.0851 0.0797,-0.12772 0.0266,-0.0426 0.0532,-0.0852 0.0797,-0.12778 0.0266,-0.0426 0.0532,-0.0852 0.0797,-0.12786 0.0266,-0.0426 0.0532,-0.0853 0.0797,-0.12791 0.0266,-0.0427 0.0531,-0.0853 0.0797,-0.12799 0.0266,-0.0427 0.0532,-0.0854 0.0797,-0.12806 0.0266,-0.0427 0.0532,-0.0854 0.0797,-0.12812 0.0266,-0.0427 0.0532,-0.0855 0.0797,-0.1282 0.0266,-0.0427 0.0532,-0.0855 0.0797,-0.12826 0.0266,-0.0428 0.0532,-0.0855 0.0797,-0.12834 0.0266,-0.0428 0.0532,-0.0856 0.0797,-0.12841 0.0266,-0.0428 0.0532,-0.0856 0.0797,-0.12848 0.0266,-0.0428 0.0531,-0.0857 0.0797,-0.12855 0.0266,-0.0429 0.0532,-0.0857 0.0797,-0.12863 0.0266,-0.0429 0.0532,-0.0858 0.0797,-0.1287 0.0266,-0.0429 0.0532,-0.0858 0.0797,-0.12878 0.0266,-0.0429 0.0532,-0.0859 0.0797,-0.12885 0.0266,-0.043 0.0532,-0.0859 0.0797,-0.129005 0.0266,-0.04299 0.0532,-0.08599 0.0797,-0.129006 0.0266,-0.04301 0.0532,-0.08604 0.0797,-0.129084 0.0266,-0.04304 0.0531,-0.0861 0.0797,-0.129162 0.0266,-0.04307 0.0532,-0.08615 0.0797,-0.129242 0.0266,-0.04309 0.0532,-0.0862 0.0797,-0.129321 0.0266,-0.04312 0.0532,-0.08625 0.0797,-0.129403 0.0266,-0.04315 0.0532,-0.08631 0.0797,-0.129483 0.0266,-0.04317 0.0532,-0.08636 0.0797,-0.129566 0.0266,-0.0432 0.0532,-0.08642 0.0797,-0.129648 0.0266,-0.04323 0.0532,-0.08647 0.0797,-0.129732 0.0266,-0.04326 0.0531,-0.08653 0.0797,-0.129816 0.0266,-0.04329 0.0532,-0.08659 0.0797,-0.129901 0.0266,-0.04331 0.0532,-0.08664 0.0797,-0.129987 0.0266,-0.04334 0.0532,-0.0867 0.0797,-0.130073 0.0266,-0.04337 0.0532,-0.08676 0.0797,-0.13016 0.0266,-0.0434 0.0532,-0.08682 0.0797,-0.130248 0.0266,-0.04343 0.0532,-0.08688 0.0797,-0.130337 0.0266,-0.04346 0.0532,-0.08694 0.0797,-0.130426 0.0266,-0.04349 0.0531,-0.087 0.0797,-0.130516 0.0266,-0.04352 0.0532,-0.08706 0.0797,-0.130608 0.0266,-0.04355 0.0532,-0.08712 0.0797,-0.130698 0.0266,-0.04358 0.0532,-0.08718 0.0797,-0.130792 0.0266,-0.04361 0.0532,-0.08724 0.0797,-0.130884 0.0266,-0.04364 0.0532,-0.0873 0.0797,-0.130978 0.0266,-0.04368 0.0532,-0.08737 0.0797,-0.131073 0.0266,-0.04371 0.0532,-0.08743 0.0797,-0.131169 0.0266,-0.04374 0.0531,-0.08749 0.0797,-0.131265 0.0266,-0.04377 0.0532,-0.08756 0.0797,-0.131362 0.0266,-0.0438 0.0532,-0.08762 0.0797,-0.13146 0.0266,-0.04384 0.0532,-0.08769 0.0797,-0.131559 0.0266,-0.04387 0.0532,-0.08776 0.0797,-0.131658 0.0266,-0.0439 0.0532,-0.08782 0.0797,-0.131758 0.0266,-0.04394 0.0532,-0.08789 0.0797,-0.13186 0.0266,-0.04397 0.0532,-0.08796 0.0797,-0.131961 0.0266,-0.044 0.0531,-0.08803 0.0797,-0.132065 0.0266,-0.04404 0.0532,-0.08809 0.0797,-0.132168 0.0266,-0.04407 0.0532,-0.08816 0.0797,-0.132272 0.0266,-0.04411 0.0532,-0.08823 0.0797,-0.132378 0.0266,-0.04414 0.0532,-0.08831 0.0797,-0.132484 0.0266,-0.04418 0.0532,-0.08838 0.0797,-0.132591 0.0266,-0.04421 0.0532,-0.08845 0.0797,-0.132698 0.0266,-0.04425 0.0532,-0.08852 0.0797,-0.132808 0.0266,-0.04429 0.0531,-0.08859 0.0797,-0.132917 0.0266,-0.04432 0.0532,-0.08867 0.0797,-0.133028 0.0266,-0.04436 0.0532,-0.08874 0.0797,-0.133138 0.0266,-0.0444 0.0532,-0.08882 0.0797,-0.133251 0.0266,-0.04444 0.0532,-0.08889 0.0797,-0.133365 0.0266,-0.04447 0.0532,-0.08897 0.0797,-0.133478 0.0266,-0.04451 0.0532,-0.08904 0.0797,-0.133593 0.0266,-0.04455 0.0532,-0.08912 0.0797,-0.133709 0.0266,-0.04459 0.0531,-0.0892 0.0797,-0.133826 0.0266,-0.04463 0.0532,-0.08928 0.0797,-0.133943 0.0266,-0.04467 0.0532,-0.08935 0.0797,-0.134062 0.0266,-0.04471 0.0532,-0.08943 0.0797,-0.134182 0.0266,-0.04475 0.0532,-0.08951 0.0797,-0.134302 0.0266,-0.04479 0.0532,-0.0896 0.0797,-0.134423 0.0266,-0.04483 0.0532,-0.08968 0.0797,-0.134546 0.0266,-0.04487 0.0532,-0.08976 0.0797,-0.134669 0.0266,-0.04491 0.0531,-0.08984 0.0797,-0.134793 0.0266,-0.04495 0.0532,-0.08992 0.0797,-0.134919 0.0266,-0.04499 0.0532,-0.09001 0.0797,-0.135045 0.0266,-0.04504 0.0531,-0.09009 0.0797,-0.135172 0.0266,-0.04508 0.0532,-0.09018 0.0797,-0.1353 0.0266,-0.04512 0.0532,-0.09027 0.0797,-0.13543 0.0266,-0.04516 0.0532,-0.09035 0.0797,-0.13556 0.0266,-0.04521 0.0532,-0.09044 0.0797,-0.135691 0.0266,-0.04525 0.0531,-0.09053 0.0797,-0.135823 0.0266,-0.0453 0.0532,-0.09062 0.0797,-0.135957 0.0266,-0.04534 0.0532,-0.0907 0.0797,-0.136091 0.0266,-0.04539 0.0531,-0.09079 0.0797,-0.136227 0.0266,-0.04543 0.0532,-0.09089 0.0797,-0.136362 0.0266,-0.04548 0.0532,-0.09098 0.0797,-0.136501 0.0266,-0.04552 0.0532,-0.09107 0.0797,-0.136639 0.0266,-0.04557 0.0532,-0.09116 0.0797,-0.136779 0.0266,-0.04562 0.0531,-0.09126 0.0797,-0.136919 0.0266,-0.04566 0.0532,-0.09135 0.0797,-0.137061 0.0266,-0.04571 0.0532,-0.09145 0.0797,-0.137205 0.0266,-0.04576 0.0531,-0.09154 0.0797,-0.137348 0.0266,-0.04581 0.0532,-0.09164 0.0797,-0.137493 0.0266,-0.04586 0.0532,-0.09174 0.0797,-0.13764 0.0266,-0.0459 0.0532,-0.09183 0.0797,-0.137787 0.0266,-0.04595 0.0532,-0.09193 0.0797,-0.137936 0.0266,-0.046 0.0531,-0.09203 0.0797,-0.138086 0.0266,-0.04605 0.0532,-0.09213 0.0797,-0.138236 0.0266,-0.0461 0.0532,-0.09223 0.0797,-0.138389 0.0266,-0.04615 0.0531,-0.09233 0.0797,-0.138542 0.0266,-0.04621 0.0532,-0.09244 0.0797,-0.138696 0.0266,-0.04626 0.0532,-0.09254 0.0797,-0.138852 0.0266,-0.04631 0.0532,-0.09265 0.0797,-0.139009 0.0266,-0.04636 0.0532,-0.09275 0.0797,-0.139167 0.0266,-0.04641 0.0531,-0.09286 0.0797,-0.139326 0.0266,-0.04647 0.0532,-0.09296 0.0797,-0.139487 0.0266,-0.04652 0.0532,-0.09307 0.0797,-0.139649 0.0266,-0.04658 0.0531,-0.09318 0.0797,-0.139811 0.0266,-0.04663 0.0532,-0.09329 0.0797,-0.139977 0.0266,-0.04669 0.0532,-0.0934 0.0797,-0.140141 0.0266,-0.04674 0.0532,-0.09351 0.0797,-0.140309 0.0266,-0.0468 0.0532,-0.09362 0.0797,-0.140477 0.0266,-0.04685 0.0532,-0.09374 0.0797,-0.140647 0.0266,-0.04691 0.0532,-0.09385 0.0797,-0.140818 0.0266,-0.04697 0.0532,-0.09396 0.0797,-0.140989 0.0266,-0.04703 0.0531,-0.09408 0.0797,-0.141164 0.0266,-0.04708 0.0532,-0.0942 0.0797,-0.141338 0.0266,-0.04714 0.0532,-0.09431 0.0797,-0.141515 0.0266,-0.0472 0.0532,-0.09443 0.0797,-0.141693 0.0266,-0.04726 0.0532,-0.09455 0.0797,-0.141871 0.0266,-0.04732 0.0532,-0.09467 0.0797,-0.142052 0.0266,-0.04738 0.0532,-0.09479 0.0797,-0.142235 0.0266,-0.04744 0.0532,-0.09491 0.0797,-0.142417 0.0266,-0.0475 0.0531,-0.09504 0.0797,-0.142603 0.0266,-0.04757 0.0532,-0.09516 0.0797,-0.142789 0.0266,-0.04763 0.0532,-0.09529 0.0797,-0.142976 0.0266,-0.04769 0.0532,-0.09541 0.0797,-0.143167 0.0266,-0.04775 0.0532,-0.09554 0.0797,-0.143356 0.0266,-0.04782 0.0532,-0.09567 0.0797,-0.14355 0.0266,-0.04788 0.0532,-0.0958 0.0797,-0.143743 0.0266,-0.04795 0.0532,-0.09593 0.0797,-0.143938 0.0266,-0.04801 0.0531,-0.09606 0.0797,-0.144136 0.0266,-0.04808 0.0532,-0.09619 0.0797,-0.144334 0.0266,-0.04815 0.0532,-0.09632 0.0797,-0.144535 0.0266,-0.04821 0.0532,-0.09646 0.0797,-0.144736 0.0266,-0.04828 0.0532,-0.09659 0.0797,-0.144939 0.0266,-0.04835 0.0532,-0.09673 0.0797,-0.145145 0.0266,-0.04842 0.0532,-0.09687 0.0797,-0.145352 0.0266,-0.04849 0.0532,-0.09701 0.0797,-0.145559 0.0266,-0.04856 0.0531,-0.09714 0.0797,-0.14577 0.0266,-0.04863 0.0532,-0.09729 0.0797,-0.145982 0.0266,-0.0487 0.0532,-0.09743 0.0797,-0.146195 0.0266,-0.04877 0.0532,-0.09757 0.0797,-0.146411 0.0266,-0.04884 0.0532,-0.09772 0.0797,-0.146628 0.0266,-0.04891 0.0532,-0.09786 0.0797,-0.146846 0.0266,-0.04899 0.0532,-0.09801 0.0797,-0.147067 0.0266,-0.04906 0.0532,-0.09816 0.0797,-0.147289 0.0266,-0.04913 0.0531,-0.0983 0.0797,-0.147514 0.0266,-0.04921 0.0532,-0.09846 0.0797,-0.14774 0.0266,-0.04928 0.0532,-0.09861 0.0797,-0.147968 0.0266,-0.04936 0.0532,-0.09876 0.0797,-0.148197 0.0266,-0.04944 0.0532,-0.09891 0.0797,-0.14843 0.0266,-0.04951 0.0532,-0.09907 0.0797,-0.148663 0.0266,-0.04959 0.0532,-0.09923 0.0797,-0.148899 0.0266,-0.04967 0.0532,-0.09938 0.0797,-0.149137 0.0266,-0.04975 0.0531,-0.09954 0.0797,-0.149376 0.0266,-0.04983 0.0532,-0.09971 0.0797,-0.149618 0.0266,-0.04991 0.0532,-0.09987 0.0797,-0.149861 0.0266,-0.04999 0.0532,-0.100031 0.0797,-0.150108 0.0266,-0.05008 0.0532,-0.100195 0.0797,-0.150355 0.0266,-0.05016 0.0532,-0.100361 0.0797,-0.150605 0.0266,-0.05024 0.0532,-0.100529 0.0797,-0.150857 0.0266,-0.05033 0.0532,-0.100699 0.0797,-0.151112 0.0266,-0.05041 0.0531,-0.100869 0.0797,-0.151367 0.0266,-0.0505 0.0532,-0.101042 0.0797,-0.151627 0.0266,-0.05058 0.0532,-0.101215 0.0797,-0.151887 0.0266,-0.05067 0.0532,-0.10139 0.0797,-0.152151 0.0266,-0.05076 0.0532,-0.101566 0.0797,-0.152416 0.0266,-0.05085 0.0532,-0.101744 0.0797,-0.152683 0.0266,-0.05094 0.0532,-0.101924 0.0797,-0.152953 0.0266,-0.05103 0.0532,-0.102105 0.0797,-0.153226 0.0266,-0.05112 0.0531,-0.102288 0.0797,-0.153501 0.0266,-0.05121 0.0532,-0.102472 0.0797,-0.153778 0.0266,-0.0513 0.0532,-0.102658 0.0797,-0.154057 0.0266,-0.0514 0.0532,-0.102846 0.0797,-0.15434 0.0266,-0.05149 0.0532,-0.103035 0.0797,-0.154624 0.0266,-0.05159 0.0532,-0.103226 0.0797,-0.154911 0.0266,-0.05169 0.0532,-0.103419 0.0797,-0.155201 0.0266,-0.05178 0.0532,-0.103613 0.0797,-0.155493 0.0266,-0.05188 0.0531,-0.103809 0.0797,-0.155788 0.0266,-0.05198 0.0532,-0.104007 0.0797,-0.156085 0.0266,-0.05208 0.0532,-0.104207 0.0797,-0.156386 0.0266,-0.05218 0.0532,-0.104409 0.0797,-0.156689 0.0266,-0.05228 0.0532,-0.104612 0.0797,-0.156995 0.0266,-0.05238 0.0532,-0.104817 0.0797,-0.157303 0.0266,-0.05249 0.0532,-0.105024 0.0797,-0.157614 0.0266,-0.05259 0.0532,-0.105233 0.0797,-0.157929 0.0266,-0.05269 0.0532,-0.105444 0.0797,-0.158246 0.0266,-0.0528 0.0531,-0.105656 0.0797,-0.158565 0.0266,-0.05291 0.0531,-0.105872 0.0797,-0.158889 0.0266,-0.05302 0.0532,-0.106089 0.0797,-0.159215 0.0266,-0.05313 0.0531,-0.106308 0.0797,-0.159544 0.0266,-0.05324 0.0531,-0.106529 0.0797,-0.159876 0.0266,-0.05335 0.0532,-0.106752 0.0797,-0.160212 0.0266,-0.05346 0.0532,-0.106977 0.0797,-0.16055 0.0266,-0.05357 0.0531,-0.107204 0.0797,-0.160892 0.0266,-0.05369 0.0532,-0.107433 0.0797,-0.161237 0.0266,-0.0538 0.0532,-0.107665 0.0797,-0.161585 0.0266,-0.05392 0.0531,-0.107899 0.0797,-0.161936 0.0266,-0.05404 0.0531,-0.108136 0.0797,-0.162292 0.0266,-0.05416 0.0532,-0.108374 0.0797,-0.162651 0.0266,-0.05428 0.0531,-0.108614 0.0797,-0.163012 0.0266,-0.0544 0.0531,-0.108857 0.0797,-0.163378 0.0266,-0.05452 0.0532,-0.109103 0.0797,-0.163747 0.0266,-0.05464 0.0531,-0.109351 0.0797,-0.16412 0.0266,-0.05477 0.0531,-0.109601 0.0797,-0.164496 0.0266,-0.0549 0.0532,-0.109854 0.0797,-0.164877 0.0266,-0.05502 0.0531,-0.110109 0.0797,-0.165261 0.0266,-0.05515 0.0531,-0.110367 0.0797,-0.165648 0.0266,-0.05528 0.0532,-0.110628 0.0797,-0.166041 0.0266,-0.05541 0.0531,-0.110891 0.0797,-0.166436 0.0266,-0.05554 0.0531,-0.111157 0.0797,-0.166836 0.0266,-0.05568 0.0532,-0.111425 0.0797,-0.16724 0.0266,-0.05581 0.0532,-0.111697 0.0797,-0.167648 0.0266,-0.05595 0.0531,-0.111971 0.0797,-0.16806 0.0266,-0.05609 0.0531,-0.112248 0.0797,-0.168477 0.0266,-0.05623 0.0532,-0.112528 0.0797,-0.168898 0.0266,-0.05637 0.0531,-0.112811 0.0797,-0.169323 0.0266,-0.05651 0.0531,-0.113097 0.0797,-0.169753 0.0266,-0.05666 0.0532,-0.113385 0.0797,-0.170187 0.0266,-0.0568 0.0531,-0.113678 0.0797,-0.170627 0.0266,-0.05695 0.0531,-0.113972 0.0797,-0.17107 0.0266,-0.0571 0.0532,-0.11427 0.0797,-0.171518 0.0266,-0.05725 0.0531,-0.114572 0.0797,-0.171972 0.0266,-0.0574 0.0531,-0.114877 0.0797,-0.17243 0.0266,-0.05755 0.0532,-0.115185 0.0797,-0.172893 0.0266,-0.05771 0.0531,-0.115496 0.0797,-0.173362 0.0266,-0.05787 0.0531,-0.115811 0.0797,-0.173835 0.0266,-0.05803 0.0532,-0.116129 0.0797,-0.174314 0.0266,-0.05819 0.0532,-0.116451 0.0797,-0.174798 0.0266,-0.05835 0.0531,-0.116776 0.0797,-0.175287 0.0266,-0.05851 0.0531,-0.117106 0.0797,-0.175783 0.0266,-0.05868 0.0532,-0.117438 0.0797,-0.176283 0.0266,-0.05884 0.0531,-0.117775 0.0797,-0.17679 0.0266,-0.05902 0.0532,-0.118115 0.0797,-0.177302 0.0266,-0.05919 0.0532,-0.11846 0.0797,-0.17782 0.0266,-0.05936 0.0532,-0.118808 0.0797,-0.178344 0.0266,-0.05954 0.0531,-0.119161 0.0797,-0.178875 0.0266,-0.05971 0.0532,-0.119517 0.0797,-0.179411 0.0266,-0.05989 0.0532,-0.119878 0.0797,-0.179953 0.0266,-0.06008 0.0531,-0.120244 0.0797,-0.180504 0.0266,-0.06026 0.0531,-0.120613 0.0797,-0.181059 0.0266,-0.06045 0.0532,-0.120987 0.0797,-0.181622 0.0266,-0.06063 0.0532,-0.121365 0.0797,-0.182191 0.0266,-0.06083 0.0532,-0.121748 0.0797,-0.182767 0.0266,-0.06102 0.0532,-0.122137 0.0797,-0.183352 0.0266,-0.06121 0.0532,-0.122528 0.0797,-0.183941 0.0266,-0.06141 0.0532,-0.122926 0.0797,-0.18454 0.0266,-0.06161 0.0531,-0.123329 0.0797,-0.185146 0.0266,-0.06182 0.0532,-0.123736 0.0797,-0.185758 0.0266,-0.06202 0.0531,-0.124149 0.0797,-0.18638 0.0266,-0.06223 0.0532,-0.124567 0.0797,-0.187008 0.0266,-0.06244 0.0531,-0.12499 0.0797,-0.187646 0.0266,-0.06265 0.0532,-0.125419 0.0797,-0.188291 0.0266,-0.06287 0.0532,-0.125853 0.0797,-0.188944 0.0266,-0.06309 0.0532,-0.126294 0.0797,-0.189607 0.0266,-0.06331 0.0532,-0.12674 0.0797,-0.190278 0.0266,-0.06354 0.0532,-0.127191 0.0797,-0.190958 0.0266,-0.06377 0.0532,-0.127649 0.0797,-0.191648 0.0266,-0.064 0.0531,-0.128113 0.0797,-0.192346 0.0266,-0.06423 0.0531,-0.128583 0.0797,-0.193053 0.0266,-0.06447 0.0532,-0.129061 0.0797,-0.193772 0.0266,-0.06471 0.0532,-0.129544 0.0797,-0.1945 0.0266,-0.06495 0.0531,-0.130034 0.0797,-0.195237 0.0266,-0.0652 0.0532,-0.130532 0.0797,-0.195986 0.0266,-0.06546 0.0532,-0.131036 0.0797,-0.196745 0.0266,-0.06571 0.0532,-0.131547 0.0797,-0.197515 0.0266,-0.06597 0.0532,-0.132065 0.0797,-0.198295 0.0266,-0.06623 0.0532,-0.132592 0.0797,-0.199088 0.0266,-0.0665 0.0531,-0.133126 0.0797,-0.199892 0.0266,-0.06677 0.0531,-0.133668 0.0797,-0.200707 0.0266,-0.06704 0.0532,-0.134218 0.0797,-0.201536 0.0266,-0.06732 0.0532,-0.134776 0.0797,-0.202376 0.0266,-0.0676 0.0532,-0.135342 0.0797,-0.203229 0.0266,-0.06789 0.0532,-0.135918 0.0797,-0.204095 0.0266,-0.06818 0.0532,-0.136502 0.0797,-0.204975 0.0266,-0.06847 0.0532,-0.137095 0.0797,-0.205868 0.0266,-0.06877 0.0531,-0.137698 0.0797,-0.206776 0.0266,-0.06908 0.0532,-0.138309 0.0797,-0.207697 0.0266,-0.06939 0.0531,-0.138931 0.0797,-0.208634 0.0266,-0.0697 0.0532,-0.139563 0.0797,-0.209585 0.0266,-0.07002 0.0531,-0.140206 0.0797,-0.210553 0.0266,-0.07035 0.0531,-0.140858 0.0797,-0.211535 0.0266,-0.07068 0.0532,-0.141522 0.0797,-0.212536 0.0266,-0.07101 0.0532,-0.142196 0.0797,-0.213551 0.0266,-0.07136 0.0532,-0.142883 0.0797,-0.214585 0.0266,-0.0717 0.0532,-0.143581 0.0797,-0.215636 0.0266,-0.07206 0.0532,-0.144291 0.0797,-0.216706 0.0266,-0.07242 0.0531,-0.145013 0.0797,-0.217794 0.0266,-0.07278 0.0532,-0.145748 0.0797,-0.218901 0.0266,-0.07315 0.0532,-0.146496 0.0797,-0.220029 0.0266,-0.07353 0.0532,-0.147257 0.0797,-0.221176 0.0266,-0.07392 0.0531,-0.148033 0.0797,-0.222344 0.0266,-0.07431 0.0532,-0.148823 0.0797,-0.223535 0.0266,-0.07471 0.0532,-0.149627 0.0797,-0.224747 0.0266,-0.07512 0.0532,-0.150447 0.0797,-0.225982 0.0266,-0.07554 0.0532,-0.151282 0.0797,-0.227241 0.0266,-0.07596 0.0532,-0.152134 0.0797,-0.228525 0.0266,-0.07639 0.0531,-0.153001 0.0797,-0.229832 0.0266,-0.07683 0.0531,-0.153886 0.0797,-0.231167 0.0266,-0.07728 0.0532,-0.154789 0.0797,-0.232527 0.0266,-0.07774 0.0531,-0.15571 0.0797,-0.233916 0.0266,-0.07821 0.0532,-0.15665 0.0797,-0.235333 0.0266,-0.07868 0.0532,-0.157609 0.0797,-0.23678 0.0266,-0.07917 0.0532,-0.158588 0.0797,-0.238256 0.0266,-0.07967 0.0532,-0.159589 0.0797,-0.239765 0.0266,-0.08018 0.0531,-0.16061 0.0797,-0.241306 0.0266,-0.0807 0.0532,-0.161654 0.0797,-0.24288 0.0266,-0.08123 0.0532,-0.162722 0.0797,-0.244491 0.0266,-0.08177 0.0532,-0.163812 0.0797,-0.246136 0.0266,-0.08232 0.0531,-0.164929 0.0797,-0.24782 0.0266,-0.08289 0.0531,-0.166071 0.0797,-0.249543 0.0266,-0.08347 0.0532,-0.167239 0.0797,-0.251306 0.0266,-0.08407 0.0532,-0.168435 0.0797,-0.253111 0.0266,-0.08468 0.0531,-0.169661 0.0797,-0.25496 0.0266,-0.0853 0.0532,-0.170916 0.0797,-0.256855 0.0266,-0.08594 0.0532,-0.172202 0.0797,-0.258796 0.0266,-0.08659 0.0531,-0.173521 0.0797,-0.260787 0.0266,-0.08727 0.0532,-0.174874 0.0797,-0.262829 0.0266,-0.08796 0.0532,-0.176262 0.0797,-0.264925 0.0266,-0.08866 0.0531,-0.177687 0.0797,-0.267077 0.0266,-0.08939 0.0532,-0.17915 0.0797,-0.269287 0.0266,-0.09014 0.0532,-0.180653 0.0797,-0.271557 0.0266,-0.0909 0.0532,-0.182199 0.0797,-0.273892 0.0266,-0.09169 0.0532,-0.183788 0.0797,-0.276293 0.0266,-0.09251 0.0532,-0.185423 0.0797,-0.278764 0.0266,-0.09334 0.0532,-0.187107 0.0797,-0.281308 0.0266,-0.0942 0.0532,-0.188841 0.0797,-0.28393 0.0266,-0.09509 0.0531,-0.190628 0.0797,-0.286631 0.0266,-0.096 0.0532,-0.192471 0.0797,-0.289417 0.0266,-0.09695 0.0531,-0.194373 0.0797,-0.292293 0.0266,-0.09792 0.0532,-0.196337 0.0797,-0.295263 0.0266,-0.09893 0.0532,-0.198366 0.0797,-0.298333 0.0266,-0.09997 0.0532,-0.200463 0.0797,-0.301506 0.0266,-0.101042 0.0532,-0.202634 0.0797,-0.30479 0.0266,-0.102157 0.0531,-0.204882 0.0797,-0.308193 0.0266,-0.10331 0.0532,-0.20721 0.0797,-0.311718 0.0266,-0.104508 0.0532,-0.209627 0.0797,-0.315377 0.0266,-0.10575 0.0532,-0.212134 0.0797,-0.319174 0.0266,-0.107041 0.0531,-0.21474 0.0797,-0.323123 0.0266,-0.108382 0.0532,-0.21745 0.0797,-0.327228 0.0266,-0.109779 0.0532,-0.220272 0.0797,-0.331506 0.0266,-0.111233 0.0532,-0.223212 0.0797,-0.335964 0.0266,-0.112751 0.0531,-0.22628 0.0797,-0.340617 0.0266,-0.114337 0.0532,-0.229486 0.0797,-0.345481 0.0266,-0.115994 0.0532,-0.232839 0.0797,-0.350569 0.0266,-0.11773 0.0531,-0.23635 0.0797,-0.3559 0.0266,-0.11955 0.0532,-0.240035 0.0797,-0.361496 0.0266,-0.121461 0.0532,-0.243904 0.0797,-0.367375 0.0266,-0.123471 0.0531,-0.247976 0.0797,-0.373565 0.0266,-0.125589 0.0532,-0.252269 0.0797,-0.380093 0.0266,-0.127825 0.0532,-0.256801 0.0797,-0.38699 0.0266,-0.130189 0.0532,-0.261598 0.0797,-0.394293 0.0266,-0.132695 0.0532,-0.266684 0.0797,-0.402041 0.0266,-0.135358 0.0532,-0.272092 0.0797,-0.410284 0.0266,-0.138193 0.0532,-0.277854 0.0797,-0.419074 0.0266,-0.141221 0.0532,-0.284011 0.0797,-0.428475 0.0266,-0.144463 0.0531,-0.29061 0.0797,-0.438558 0.0266,-0.147948 0.0532,-0.297708 0.0797,-0.449414 0.0266,-0.151706 0.0531,-0.305369 0.0797,-0.461143 0.0266,-0.155774 0.0532,-0.313671 0.0797,-0.473868 0.0266,-0.160197 0.0532,-0.322708 0.0797,-0.487738 0.0266,-0.16503 0.0531,-0.332595 0.0797,-0.502935 0.0266,-0.170341 0.0532,-0.343473 0.0797,-0.519685 0.0266,-0.176211 0.0531,-0.355519 0.0797,-0.538267 0.0266,-0.182749 0.0532,-0.368957 0.0797,-0.559044 0.0266,-0.190087 0.0532,-0.384075 0.0797,-0.582481 0.0266,-0.198405 0.0532,-0.401253 0.0797,-0.609195 0.0266,-0.207943 0.0531,-0.421006 0.0797,-0.640031 0.0266,-0.219025 0.0532,-0.444041 0.0797,-0.676162 0.0266,-0.232122 0.0532,-0.471379 0.0797,-0.719302 0.0266,-0.247924 0.0532,-0.504543 0.0797,-0.772051 0.0266,-0.267509 0.0531,-0.545929 0.0797,-0.838602"
       style="opacity:1;fill:none;fill-opacity:1;fill-rule:evenodd;stroke:#050000;stroke-width:1;stroke-linecap:butt;stroke-linejoin:bevel;stroke-miterlimit:4;stroke-dasharray:none;stroke-dashoffset:0;stroke-opacity:1;paint-order:normal"
       inkscape:connector-curvature="0" />
    <path
       style="fill:none;stroke:#000000;stroke-width:0.4;stroke-linecap:butt;stroke-linejoin:miter;stroke-miterlimit:4;stroke-dasharray:1.59999999,0.8;stroke-opacity:1;stroke-dashoffset:0"
       d="m 142.6104,117.4802 c 0,-89.164584 0,-89.164584 0,-89.164584"
       id="path6747"
       inkscape:connector-curvature="0" />
    <path
       style="fill:none;stroke:#000000;stroke-width:0.40000001;stroke-linecap:butt;stroke-linejoin:miter;stroke-miterlimit:4;stroke-dasharray:1.60000001, 0.80000001;stroke-dashoffset:0;stroke-opacity:1"
       d="m 62.573945,206.90947 c 0,-89.16458 0,-89.16458 0,-89.16458"
       id="path6747-9"
       inkscape:connector-curvature="0" />
    <path
       style="fill:none;stroke:#000000;stroke-width:0.4;stroke-linecap:butt;stroke-linejoin:miter;stroke-opacity:1;stroke-miterlimit:4;stroke-dasharray:1.59999999,0.8;stroke-dashoffset:0"
       d="m 102.12918,207.04165 c -39.687519,0 -39.687519,0 -39.687519,0"
       id="path6764"
       inkscape:connector-curvature="0" />
    <path
       style="fill:none;stroke:#000000;stroke-width:0.40000001;stroke-linecap:butt;stroke-linejoin:miter;stroke-miterlimit:4;stroke-dasharray:1.60000001, 0.80000001;stroke-dashoffset:0;stroke-opacity:1"
       d="m 142.34587,28.315606 c -39.68753,0 -39.68753,0 -39.68753,0"
       id="path6764-4"
       inkscape:connector-curvature="0" />
    <g
       title="{\Large$-\frac{\pi}{2}$}"
       style="fill:#000000"
       id="equation_03"
       transform="translate(28.722554,146.56301)">
      <defs
         id="defs6818">
        <path
           d="m 9.454143,-3.299625 c 0.243885,0 0.502117,0 0.502117,-0.286924 0,-0.286924 -0.258232,-0.286924 -0.502117,-0.286924 H 1.692851 c -0.243885,0 -0.502117,0 -0.502117,0.286924 0,0.286924 0.258232,0.286924 0.502117,0.286924 z"
           id="equation_03_00"
           inkscape:connector-curvature="0" />
        <path
           d="m 2.6401,-3.716065 h 1.125778 c -0.328767,1.474471 -0.418431,1.902865 -0.418431,2.570361 0,0.14944 0,0.418431 0.079701,0.757161 0.099627,0.438356 0.209216,0.498132 0.358655,0.498132 0.199253,0 0.408468,-0.179327 0.408468,-0.37858 0,-0.059776 0,-0.079701 -0.059775,-0.219178 -0.288917,-0.71731 -0.288917,-1.364882 -0.288917,-1.643836 0,-0.52802 0.069739,-1.066002 0.179328,-1.58406 h 1.135741 c 0.129514,0 0.488169,0 0.488169,-0.33873 0,-0.239103 -0.209216,-0.239103 -0.398506,-0.239103 H 1.912827 c -0.219178,0 -0.597759,0 -1.036115,0.468244 -0.348692,0.388543 -0.607721,0.846825 -0.607721,0.896638 0,0.00996 0,0.099626 0.119552,0.099626 0.079701,0 0.099626,-0.03985 0.159402,-0.119551 0.48817,-0.767124 1.066003,-0.767124 1.265255,-0.767124 h 0.567871 c -0.318804,1.20548 -0.856787,2.410959 -1.275218,3.317559 -0.079701,0.14944 -0.079701,0.169365 -0.079701,0.239104 0,0.18929 0.159402,0.268991 0.288916,0.268991 0.29888,0 0.378581,-0.278954 0.498132,-0.647572 0.139477,-0.458281 0.139477,-0.478206 0.268992,-0.976338 z"
           id="equation_03_01"
           inkscape:connector-curvature="0" />
        <path
           d="m 1.265255,-0.767123 1.05604,-1.026152 c 1.554172,-1.374845 2.15193,-1.912827 2.15193,-2.909091 0,-1.135741 -0.896637,-1.932752 -2.112079,-1.932752 -1.125779,0 -1.863014,0.916563 -1.863014,1.803238 0,0.557907 0.498132,0.557907 0.52802,0.557907 0.169365,0 0.518057,-0.119551 0.518057,-0.52802 0,-0.259028 -0.179327,-0.518057 -0.52802,-0.518057 -0.079701,0 -0.099626,0 -0.129514,0.00996 0.229141,-0.647572 0.767123,-1.016189 1.344956,-1.016189 0.906601,0 1.334994,0.806973 1.334994,1.62391 0,0.797011 -0.498132,1.58406 -1.046077,2.201743 L 0.607721,-0.368618 C 0.498132,-0.259029 0.498132,-0.239103 0.498132,0 H 4.194271 L 4.473225,-1.733499 H 4.224159 c -0.049813,0.298879 -0.119551,0.737235 -0.219178,0.886675 -0.069738,0.079701 -0.727272,0.079701 -0.94645,0.079701 z"
           id="equation_03_02"
           inkscape:connector-curvature="0" />
      </defs>
      <g
         id="equation_03_g">
        <use
           id="use6820"
           xlink:href="#equation_03_00"
           y="62.764633"
           x="76.712326"
           width="100%"
           height="100%" />
        <use
           id="use6822"
           xlink:href="#equation_03_01"
           y="57.116077"
           x="89.066032"
           width="100%"
           height="100%" />
        <rect
           id="rect6824"
           width="6.0364151"
           height="0.57382202"
           y="58.891174"
           x="89.066032" />
        <use
           id="use6826"
           xlink:href="#equation_03_02"
           y="67.711761"
           x="89.593582"
           width="100%"
           height="100%" />
      </g>
    </g>
    <g
       title="{\Large$\frac{\pi}{2}$}"
       style="fill:#000000"
       id="equation_04"
       transform="translate(28.768241,-20.169172)">
      <defs
         id="defs6889">
        <path
           d="m 2.6401,-3.716065 h 1.125778 c -0.328767,1.474471 -0.418431,1.902865 -0.418431,2.570361 0,0.14944 0,0.418431 0.079701,0.757161 0.099627,0.438356 0.209216,0.498132 0.358655,0.498132 0.199253,0 0.408468,-0.179327 0.408468,-0.37858 0,-0.059776 0,-0.079701 -0.059775,-0.219178 -0.288917,-0.71731 -0.288917,-1.364882 -0.288917,-1.643836 0,-0.52802 0.069739,-1.066002 0.179328,-1.58406 h 1.135741 c 0.129514,0 0.488169,0 0.488169,-0.33873 0,-0.239103 -0.209216,-0.239103 -0.398506,-0.239103 H 1.912827 c -0.219178,0 -0.597759,0 -1.036115,0.468244 -0.348692,0.388543 -0.607721,0.846825 -0.607721,0.896638 0,0.00996 0,0.099626 0.119552,0.099626 0.079701,0 0.099626,-0.03985 0.159402,-0.119551 0.48817,-0.767124 1.066003,-0.767124 1.265255,-0.767124 h 0.567871 c -0.318804,1.20548 -0.856787,2.410959 -1.275218,3.317559 -0.079701,0.14944 -0.079701,0.169365 -0.079701,0.239104 0,0.18929 0.159402,0.268991 0.288916,0.268991 0.29888,0 0.378581,-0.278954 0.498132,-0.647572 0.139477,-0.458281 0.139477,-0.478206 0.268992,-0.976338 z"
           id="equation_04_00"
           inkscape:connector-curvature="0" />
        <path
           d="m 1.265255,-0.767123 1.05604,-1.026152 c 1.554172,-1.374845 2.15193,-1.912827 2.15193,-2.909091 0,-1.135741 -0.896637,-1.932752 -2.112079,-1.932752 -1.125779,0 -1.863014,0.916563 -1.863014,1.803238 0,0.557907 0.498132,0.557907 0.52802,0.557907 0.169365,0 0.518057,-0.119551 0.518057,-0.52802 0,-0.259028 -0.179327,-0.518057 -0.52802,-0.518057 -0.079701,0 -0.099626,0 -0.129514,0.00996 0.229141,-0.647572 0.767123,-1.016189 1.344956,-1.016189 0.906601,0 1.334994,0.806973 1.334994,1.62391 0,0.797011 -0.498132,1.58406 -1.046077,2.201743 L 0.607721,-0.368618 C 0.498132,-0.259029 0.498132,-0.239103 0.498132,0 H 4.194271 L 4.473225,-1.733499 H 4.224159 c -0.049813,0.298879 -0.119551,0.737235 -0.219178,0.886675 -0.069738,0.079701 -0.727272,0.079701 -0.94645,0.079701 z"
           id="equation_04_01"
           inkscape:connector-curvature="0" />
      </defs>
      <g
         id="equation_04_g">
        <use
           id="use6891"
           xlink:href="#equation_04_00"
           y="57.116077"
           x="77.907845"
           width="100%"
           height="100%" />
        <rect
           id="rect6893"
           width="6.0364151"
           height="0.57382202"
           y="58.891174"
           x="77.907845" />
        <use
           id="use6895"
           xlink:href="#equation_04_01"
           y="67.711761"
           x="78.435387"
           width="100%"
           height="100%" />
      </g>
    </g>
    <g
       title="{\Large$1$}"
       style="fill:#000000"
       id="equation_05"
       transform="translate(62.380564,68.286866)">
      <defs
         id="defs6963">
        <path
           d="m 4.131704,-9.195911 c 0,-0.329963 0,-0.344309 -0.286924,-0.344309 -0.344308,0.387347 -1.061618,0.918156 -2.539276,0.918156 v 0.41604 c 0.329962,0 1.047272,0 1.836313,-0.373001 v 7.474368 c 0,0.516463 -0.043039,0.688617 -1.305504,0.688617 H 1.391581 V 0 c 0.387347,-0.028692 1.778928,-0.028692 2.252353,-0.028692 0.473425,0 1.850659,0 2.238006,0.028692 V -0.41604 H 5.437208 c -1.262465,0 -1.305504,-0.172154 -1.305504,-0.688617 z"
           id="equation_05_00"
           inkscape:connector-curvature="0" />
      </defs>
      <g
         id="equation_05_g">
        <use
           id="use6965"
           xlink:href="#equation_05_00"
           y="62.764633"
           x="76.712326"
           width="100%"
           height="100%" />
      </g>
    </g>
    <g
       title="{\Large$-1$}"
       style="fill:#000000"
       id="equation_06"
       transform="translate(-35.189583,67.997917)">
      <defs
         id="defs7036">
        <path
           d="m 9.454143,-3.299625 c 0.243885,0 0.502117,0 0.502117,-0.286924 0,-0.286924 -0.258232,-0.286924 -0.502117,-0.286924 H 1.692851 c -0.243885,0 -0.502117,0 -0.502117,0.286924 0,0.286924 0.258232,0.286924 0.502117,0.286924 z"
           id="equation_06_00"
           inkscape:connector-curvature="0" />
        <path
           d="m 4.131704,-9.195911 c 0,-0.329963 0,-0.344309 -0.286924,-0.344309 -0.344308,0.387347 -1.061618,0.918156 -2.539276,0.918156 v 0.41604 c 0.329962,0 1.047272,0 1.836313,-0.373001 v 7.474368 c 0,0.516463 -0.043039,0.688617 -1.305504,0.688617 H 1.391581 V 0 c 0.387347,-0.028692 1.778928,-0.028692 2.252353,-0.028692 0.473425,0 1.850659,0 2.238006,0.028692 V -0.41604 H 5.437208 c -1.262465,0 -1.305504,-0.172154 -1.305504,-0.688617 z"
           id="equation_06_01"
           inkscape:connector-curvature="0" />
      </defs>
      <g
         id="equation_06_g">
        <use
           id="use7038"
           xlink:href="#equation_06_00"
           y="62.764633"
           x="76.712326"
           width="100%"
           height="100%" />
        <use
           id="use7040"
           xlink:href="#equation_06_01"
           y="62.764633"
           x="87.870522"
           width="100%"
           height="100%" />
      </g>
    </g>
    <g
       title="{\Large$y=\mathrm{Arcsin}\,x$}"
       style="fill:#000000"
       id="equation_07"
       transform="translate(-70.379167,-31.485417)">
      <defs
         id="defs7264">
        <path
           d="m 6.800097,-5.853248 c -0.459079,0.086077 -0.631233,0.430386 -0.631233,0.702964 0,0.344308 0.272578,0.459078 0.473425,0.459078 0.430385,0 0.731656,-0.373001 0.731656,-0.760348 0,-0.602541 -0.688618,-0.875118 -1.291158,-0.875118 -0.875118,0 -1.362889,0.860771 -1.492004,1.133349 -0.329963,-1.075965 -1.219427,-1.133349 -1.477659,-1.133349 -1.463311,0 -2.238006,1.879351 -2.238006,2.194968 0,0.057384 0.057385,0.129115 0.157808,0.129115 0.11477,0 0.143462,-0.086077 0.172154,-0.143462 0.487771,-1.592427 1.448966,-1.893697 1.865006,-1.893697 0.645579,0 0.774694,0.60254 0.774694,0.946849 0,0.315616 -0.086077,0.645578 -0.258231,1.334196 l -0.487771,1.965429 c -0.215193,0.860771 -0.631232,1.649812 -1.391581,1.649812 -0.071731,0 -0.430386,0 -0.731656,-0.186501 0.516463,-0.100423 0.631233,-0.530809 0.631233,-0.702963 0,-0.286924 -0.215193,-0.459078 -0.487771,-0.459078 -0.344308,0 -0.71731,0.30127 -0.71731,0.760348 0,0.60254 0.674272,0.875118 1.291158,0.875118 0.688617,0 1.176388,-0.545155 1.477658,-1.13335 0.229539,0.846426 0.946849,1.13335 1.477658,1.13335 1.463312,0 2.238007,-1.879352 2.238007,-2.194968 0,-0.071731 -0.057385,-0.129116 -0.143462,-0.129116 -0.129116,0 -0.143462,0.071731 -0.186501,0.186501 -0.387347,1.262465 -1.219426,1.850659 -1.865005,1.850659 -0.502117,0 -0.774695,-0.373001 -0.774695,-0.961195 0,-0.315616 0.057385,-0.545156 0.286924,-1.492004 l 0.502117,-1.951083 c 0.215193,-0.860772 0.702964,-1.492004 1.362889,-1.492004 0.028692,0 0.430386,0 0.731656,0.1865 z"
           id="equation_07_00"
           inkscape:connector-curvature="0" />
        <path
           d="M 3.773049,1.606774 C 3.385702,2.151929 2.826201,2.6397 2.123237,2.6397 c -0.172154,0 -0.860772,-0.028692 -1.075965,-0.688617 0.043039,0.014346 0.11477,0.014346 0.143462,0.014346 0.430386,0 0.71731,-0.373001 0.71731,-0.702964 0,-0.329963 -0.272578,-0.444732 -0.487771,-0.444732 -0.229539,0 -0.731656,0.172155 -0.731656,0.875118 0,0.731656 0.616887,1.233773 1.43462,1.233773 1.43462,0 2.883585,-1.31985 3.285279,-2.912278 L 6.814443,-5.58067 c 0.014346,-0.071731 0.043039,-0.157808 0.043039,-0.243885 0,-0.215193 -0.172155,-0.358655 -0.387348,-0.358655 -0.129116,0 -0.430386,0.057384 -0.545155,0.48777 L 4.86336,-1.477658 c -0.071731,0.258231 -0.071731,0.286924 -0.1865,0.444732 -0.286924,0.401693 -0.760349,0.889464 -1.448966,0.889464 -0.803387,0 -0.875118,-0.789041 -0.875118,-1.176388 0,-0.817733 0.387347,-1.92239 0.774695,-2.955316 0.157808,-0.41604 0.243885,-0.616887 0.243885,-0.903811 0,-0.60254 -0.430386,-1.147695 -1.133349,-1.147695 -1.31985,0 -1.85066,2.080198 -1.85066,2.194968 0,0.057384 0.057385,0.129115 0.157808,0.129115 0.129116,0 0.143462,-0.057384 0.200847,-0.258231 0.344309,-1.205081 0.889464,-1.778928 1.448966,-1.778928 0.129116,0 0.373001,0 0.373001,0.473424 0,0.373001 -0.157808,0.789041 -0.373001,1.334196 -0.702964,1.879352 -0.702964,2.352776 -0.702964,2.697085 0,1.362889 0.975542,1.678505 1.692851,1.678505 0.41604,0 0.932503,-0.129116 1.43462,-0.659925 l 0.014346,0.014346 C 4.418628,0.344309 4.275166,0.90381 3.773049,1.606774 Z"
           id="equation_07_01"
           inkscape:connector-curvature="0" />
        <path
           d="m 9.683682,-4.648167 c 0.200847,0 0.459078,0 0.459078,-0.258232 0,-0.272578 -0.243885,-0.272578 -0.459078,-0.272578 H 1.233773 c -0.200847,0 -0.459078,0 -0.459078,0.258232 0,0.272578 0.243885,0.272578 0.459078,0.272578 z m 0,2.668392 c 0.200847,0 0.459078,0 0.459078,-0.258232 0,-0.272577 -0.243885,-0.272577 -0.459078,-0.272577 H 1.233773 c -0.200847,0 -0.459078,0 -0.459078,0.258231 0,0.272578 0.243885,0.272578 0.459078,0.272578 z"
           id="equation_07_02"
           inkscape:connector-curvature="0" />
        <path
           d="m 5.551978,-9.984952 c -0.057385,-0.172155 -0.086077,-0.258232 -0.286924,-0.258232 -0.200847,0 -0.229539,0.04304 -0.30127,0.272578 L 1.965429,-1.391581 C 1.764582,-0.803387 1.362889,-0.430386 0.444732,-0.41604 V 0 c 0.875118,-0.028692 0.90381,-0.028692 1.377235,-0.028692 0.401693,0 1.090311,0 1.463312,0.028692 v -0.41604 c -0.60254,-0.014346 -0.961195,-0.315616 -0.961195,-0.717309 0,-0.086078 0,-0.11477 0.071731,-0.301271 L 3.05574,-3.342664 h 3.615241 l 0.789041,2.252353 c 0.071731,0.172154 0.071731,0.200847 0.071731,0.243885 0,0.430386 -0.731656,0.430386 -1.090311,0.430386 V 0 c 0.329962,-0.028692 1.463312,-0.028692 1.865005,-0.028692 0.401693,0 1.43462,0 1.764582,0.028692 v -0.41604 c -0.932502,0 -1.190734,0 -1.391581,-0.588194 z M 4.86336,-8.535986 6.527519,-3.758703 H 3.199202 Z"
           id="equation_07_03"
           inkscape:connector-curvature="0" />
        <path
           d="m 5.193323,-5.308092 c -0.172155,0 -0.702964,0 -0.702964,0.588194 0,0.344308 0.243886,0.588194 0.588194,0.588194 0.329963,0 0.60254,-0.200847 0.60254,-0.616887 0,-0.961195 -1.004233,-1.649812 -2.166275,-1.649812 -1.678505,0 -3.012701,1.492004 -3.012701,3.299625 0,1.836313 1.377235,3.24224 2.998355,3.24224 1.893698,0 2.324083,-1.721544 2.324083,-1.850659 0,-0.129115 -0.100423,-0.129116 -0.143462,-0.129116 -0.129115,0 -0.143461,0.043039 -0.1865,0.215193 -0.315616,1.01858 -1.090311,1.448966 -1.865005,1.448966 -0.875118,0 -2.03716,-0.760349 -2.03716,-2.94097 0,-2.381469 1.219426,-2.969663 1.936736,-2.969663 0.545156,0 1.334196,0.215193 1.664159,0.774695 z"
           id="equation_07_04"
           inkscape:connector-curvature="0" />
        <path
           d="m 2.496238,-8.837257 c 0,-0.373001 -0.30127,-0.702963 -0.702964,-0.702963 -0.373001,0 -0.688617,0.30127 -0.688617,0.688617 0,0.430386 0.344309,0.702964 0.688617,0.702964 0.444733,0 0.702964,-0.373001 0.702964,-0.688618 z m -1.979775,2.668393 v 0.41604 c 0.918157,0 1.047272,0.086077 1.047272,0.78904 v 3.902166 c 0,0.645578 -0.157808,0.645578 -1.090311,0.645578 V 0 c 0.401694,-0.028692 1.090311,-0.028692 1.506351,-0.028692 0.157808,0 0.989888,0 1.477658,0.028692 v -0.41604 c -0.932503,0 -0.989887,-0.071731 -0.989887,-0.631232 v -5.2794 z"
           id="equation_07_05"
           inkscape:connector-curvature="0" />
        <path
           d="m 6.384057,-3.486126 c 0,-1.334196 0,-1.735889 -0.329962,-2.194967 -0.41604,-0.559502 -1.090311,-0.645579 -1.578082,-0.645579 -1.391581,0 -1.936736,1.190734 -2.051506,1.477658 H 2.410161 v -1.477658 l -1.951083,0.157808 v 0.41604 c 0.975542,0 1.090311,0.100423 1.090311,0.803386 v 3.88782 c 0,0.645578 -0.157808,0.645578 -1.090311,0.645578 V 0 c 0.373001,-0.028692 1.147696,-0.028692 1.549389,-0.028692 0.41604,0 1.190735,0 1.563736,0.028692 v -0.41604 c -0.918157,0 -1.090311,0 -1.090311,-0.645578 v -2.668393 c 0,-1.50635 0.989887,-2.309737 1.879351,-2.309737 0.889464,0 1.090311,0.731656 1.090311,1.606774 v 3.371356 c 0,0.645578 -0.157808,0.645578 -1.090311,0.645578 V 0 c 0.373002,-0.028692 1.147696,-0.028692 1.54939,-0.028692 0.416039,0 1.190734,0 1.563735,0.028692 v -0.41604 c -0.71731,0 -1.075965,0 -1.090311,-0.430386 z"
           id="equation_07_06"
           inkscape:connector-curvature="0" />
        <path
           d="m 2.395815,-3.342664 c 0,-1.391581 0.573848,-2.697084 1.678505,-2.697084 0.114769,0 0.143462,0 0.200846,0.014346 -0.114769,0.057385 -0.344308,0.143462 -0.344308,0.530809 0,0.41604 0.329962,0.573848 0.559501,0.573848 0.286924,0 0.573848,-0.186501 0.573848,-0.573848 0,-0.430386 -0.387347,-0.832079 -1.004234,-0.832079 -1.219426,0 -1.635466,1.31985 -1.721543,1.592427 H 2.324084 v -1.592427 l -1.922391,0.157808 v 0.41604 c 0.975542,0 1.090311,0.100423 1.090311,0.803386 v 3.88782 c 0,0.645578 -0.157808,0.645578 -1.090311,0.645578 V 0 c 0.401694,-0.028692 1.190735,-0.028692 1.621121,-0.028692 0.387347,0 1.405927,0 1.735889,0.028692 V -0.41604 H 3.471779 c -1.047272,0 -1.075964,-0.157808 -1.075964,-0.674271 z"
           id="equation_07_07"
           inkscape:connector-curvature="0" />
        <path
           d="m 4.705552,-6.068441 c 0,-0.258231 0,-0.329962 -0.143462,-0.329962 -0.114769,0 -0.387347,0.315616 -0.48777,0.444732 -0.444732,-0.358655 -0.889465,-0.444732 -1.348543,-0.444732 -1.735889,0 -2.252353,0.946849 -2.252353,1.735889 0,0.157809 0,0.659925 0.545156,1.162042 0.459078,0.401694 0.946849,0.502117 1.606774,0.631233 0.789041,0.157808 0.975541,0.200847 1.334196,0.487771 0.258232,0.215192 0.444732,0.530809 0.444732,0.932502 0,0.616887 -0.358655,1.305504 -1.62112,1.305504 -0.946849,0 -1.635466,-0.545155 -1.951083,-1.979775 C 0.774695,-2.381468 0.774695,-2.395815 0.760348,-2.410161 0.731656,-2.467546 0.674271,-2.467546 0.631233,-2.467546 c -0.157809,0 -0.157809,0.071731 -0.157809,0.329963 v 1.951082 c 0,0.258232 0,0.329963 0.143462,0.329963 0.071731,0 0.086078,-0.014346 0.329963,-0.315616 0.071731,-0.100424 0.071731,-0.129116 0.286924,-0.358655 0.545155,0.674271 1.31985,0.674271 1.563735,0.674271 1.506351,0 2.252353,-0.832079 2.252353,-1.965429 0,-0.774694 -0.473425,-1.233773 -0.60254,-1.362888 C 3.930858,-3.629588 3.54351,-3.715665 2.596661,-3.887819 2.166276,-3.973896 1.119003,-4.174743 1.119003,-5.035515 c 0,-0.444732 0.30127,-1.104657 1.592428,-1.104657 1.563735,0 1.649812,1.334196 1.678505,1.778929 0.014346,0.114769 0.114769,0.114769 0.157808,0.114769 0.157808,0 0.157808,-0.071731 0.157808,-0.329962 z"
           id="equation_07_08"
           inkscape:connector-curvature="0" />
      </defs>
      <g
         id="equation_07_g">
        <use
           id="use7266"
           xlink:href="#equation_07_01"
           y="62.764633"
           x="76.712326"
           width="100%"
           height="100%" />
        <use
           id="use7268"
           xlink:href="#equation_07_02"
           y="62.764633"
           x="88.061295"
           width="100%"
           height="100%" />
        <use
           id="use7270"
           xlink:href="#equation_07_03"
           y="62.764633"
           x="102.97187"
           width="100%"
           height="100%" />
        <use
           id="use7272"
           xlink:href="#equation_07_07"
           y="62.764633"
           x="113.50228"
           width="100%"
           height="100%" />
        <use
           id="use7274"
           xlink:href="#equation_07_04"
           y="62.764633"
           x="118.96507"
           width="100%"
           height="100%" />
        <use
           id="use7276"
           xlink:href="#equation_07_08"
           y="62.764633"
           x="125.20826"
           width="100%"
           height="100%" />
        <use
           id="use7278"
           xlink:href="#equation_07_05"
           y="62.764633"
           x="130.74908"
           width="100%"
           height="100%" />
        <use
           id="use7280"
           xlink:href="#equation_07_06"
           y="62.764633"
           x="134.65108"
           width="100%"
           height="100%" />
        <use
           id="use7282"
           xlink:href="#equation_07_00"
           y="62.764633"
           x="144.84599"
           width="100%"
           height="100%" />
      </g>
    </g>
  </g>
</svg>
