<?xml version="1.0" encoding="UTF-8" standalone="no"?>
<!-- Created with Inkscape (http://www.inkscape.org/) -->

<svg
   xmlns:dc="http://purl.org/dc/elements/1.1/"
   xmlns:cc="http://creativecommons.org/ns#"
   xmlns:rdf="http://www.w3.org/1999/02/22-rdf-syntax-ns#"
   xmlns:svg="http://www.w3.org/2000/svg"
   xmlns="http://www.w3.org/2000/svg"
   xmlns:xlink="http://www.w3.org/1999/xlink"
   xmlns:sodipodi="http://sodipodi.sourceforge.net/DTD/sodipodi-0.dtd"
   xmlns:inkscape="http://www.inkscape.org/namespaces/inkscape"
   width="210mm"
   height="297mm"
   viewBox="0 0 210 297"
   version="1.1"
   id="svg8"
   inkscape:version="0.92.4 (5da689c313, 2019-01-14)"
   sodipodi:docname="StarGraph.svg">
  <defs
     id="defs2" />
  <sodipodi:namedview
     id="base"
     pagecolor="#ffffff"
     bordercolor="#666666"
     borderopacity="1.0"
     inkscape:pageopacity="0.0"
     inkscape:pageshadow="2"
     inkscape:zoom="0.49497475"
     inkscape:cx="658.48354"
     inkscape:cy="789.88966"
     inkscape:document-units="mm"
     inkscape:current-layer="layer1"
     showgrid="true"
     inkscape:window-width="1858"
     inkscape:window-height="1057"
     inkscape:window-x="-8"
     inkscape:window-y="-8"
     inkscape:window-maximized="1">
    <inkscape:grid
       id="grid815"
       type="xygrid" />
  </sodipodi:namedview>
  <metadata
     id="metadata5">
    <rdf:RDF>
      <cc:Work
         rdf:about="">
        <dc:format>image/svg+xml</dc:format>
        <dc:type
           rdf:resource="http://purl.org/dc/dcmitype/StillImage" />
        <dc:title />
      </cc:Work>
    </rdf:RDF>
  </metadata>
  <g
     inkscape:groupmode="layer"
     id="layer3"
     inkscape:label="edge"
     style="display:inline">
    <path
       style="fill:none;stroke:#000000;stroke-width:1;stroke-linecap:butt;stroke-linejoin:miter;stroke-opacity:1;stroke-miterlimit:4;stroke-dasharray:none"
       d="m 101.74176,9.8798271 c 0,150.8125829 0,150.8125829 0,150.8125829"
       id="path926"
       inkscape:connector-curvature="0" />
    <path
       style="fill:none;stroke:#000000;stroke-width:1;stroke-linecap:butt;stroke-linejoin:miter;stroke-opacity:1;stroke-miterlimit:4;stroke-dasharray:none"
       d="M 167.0455,47.58297 C 36.437969,122.98926 36.437969,122.98926 36.437969,122.98926"
       id="path926-3"
       inkscape:connector-curvature="0" />
    <path
       style="fill:none;stroke:#000000;stroke-width:1;stroke-linecap:butt;stroke-linejoin:miter;stroke-opacity:1;stroke-miterlimit:4;stroke-dasharray:none"
       d="M 36.447537,47.630215 C 167.05506,123.0365 167.05506,123.0365 167.05506,123.0365"
       id="path926-5"
       inkscape:connector-curvature="0" />
  </g>
  <g
     inkscape:label="レイヤー 1"
     inkscape:groupmode="layer"
     id="layer1">
    <path
       style="opacity:1;fill:#ffffff;fill-opacity:1;fill-rule:evenodd;stroke:#000000;stroke-width:1.11803401;stroke-linecap:butt;stroke-linejoin:bevel;stroke-miterlimit:4;stroke-dasharray:none;stroke-dashoffset:0;stroke-opacity:1;paint-order:normal"
       id="path817"
       sodipodi:type="arc"
       sodipodi:cx="101.72282"
       sodipodi:cy="9.86903"
       sodipodi:rx="6.6145835"
       sodipodi:ry="6.614583"
       sodipodi:start="0.0010031123"
       sodipodi:end="0.00055991035"
       sodipodi:open="true"
       d="M 108.3374,9.8756652 A 6.6145835,6.614583 0 0 1 101.71691,16.48361 6.6145835,6.614583 0 0 1 95.108235,9.8638606 6.6145835,6.614583 0 0 1 101.72725,3.2544485 6.6145835,6.614583 0 0 1 108.3374,9.8727336" />
    <path
       style="opacity:1;fill:#ffffff;fill-opacity:1;fill-rule:evenodd;stroke:#000000;stroke-width:1.11803401;stroke-linecap:butt;stroke-linejoin:bevel;stroke-miterlimit:4;stroke-dasharray:none;stroke-dashoffset:0;stroke-opacity:1;paint-order:normal"
       id="path817-0"
       sodipodi:type="arc"
       sodipodi:cx="36.509815"
       sodipodi:cy="47.625198"
       sodipodi:rx="6.6145835"
       sodipodi:ry="6.6145835"
       sodipodi:start="0.0010031123"
       sodipodi:end="0.00055991035"
       sodipodi:open="true"
       d="m 43.124395,47.631834 a 6.6145835,6.6145835 0 0 1 -6.620482,6.607945 6.6145835,6.6145835 0 0 1 -6.608679,-6.61975 6.6145835,6.6145835 0 0 1 6.619018,-6.609413 6.6145835,6.6145835 0 0 1 6.610146,6.618286" />
    <path
       style="opacity:1;fill:#ffffff;fill-opacity:1;fill-rule:evenodd;stroke:#000000;stroke-width:1.11803401;stroke-linecap:butt;stroke-linejoin:bevel;stroke-miterlimit:4;stroke-dasharray:none;stroke-dashoffset:0;stroke-opacity:1;paint-order:normal"
       id="path817-6"
       sodipodi:type="arc"
       sodipodi:cx="36.446342"
       sodipodi:cy="123.00678"
       sodipodi:rx="6.6145835"
       sodipodi:ry="6.6145835"
       sodipodi:start="0.0010031123"
       sodipodi:end="0.00055991035"
       sodipodi:open="true"
       d="m 43.060923,123.01342 a 6.6145835,6.6145835 0 0 1 -6.620483,6.60794 6.6145835,6.6145835 0 0 1 -6.608679,-6.61975 6.6145835,6.6145835 0 0 1 6.619018,-6.60941 6.6145835,6.6145835 0 0 1 6.610146,6.61829" />
    <path
       style="opacity:1;fill:#ffffff;fill-opacity:1;fill-rule:evenodd;stroke:#000000;stroke-width:1.11803401;stroke-linecap:butt;stroke-linejoin:bevel;stroke-miterlimit:4;stroke-dasharray:none;stroke-dashoffset:0;stroke-opacity:1;paint-order:normal"
       id="path817-3"
       sodipodi:type="arc"
       sodipodi:cx="101.74649"
       sodipodi:cy="160.70285"
       sodipodi:rx="6.6145835"
       sodipodi:ry="6.6145835"
       sodipodi:start="0.0010031123"
       sodipodi:end="0.00055991035"
       sodipodi:open="true"
       d="m 108.36107,160.70949 a 6.6145835,6.6145835 0 0 1 -6.62048,6.60794 6.6145835,6.6145835 0 0 1 -6.608681,-6.61975 6.6145835,6.6145835 0 0 1 6.619021,-6.60941 6.6145835,6.6145835 0 0 1 6.61014,6.61828" />
    <path
       style="opacity:1;fill:#ffffff;fill-opacity:1;fill-rule:evenodd;stroke:#000000;stroke-width:1.11803401;stroke-linecap:butt;stroke-linejoin:bevel;stroke-miterlimit:4;stroke-dasharray:none;stroke-dashoffset:0;stroke-opacity:1;paint-order:normal"
       id="path817-5"
       sodipodi:type="arc"
       sodipodi:cx="166.95203"
       sodipodi:cy="123.01444"
       sodipodi:rx="6.6145835"
       sodipodi:ry="6.6145835"
       sodipodi:start="0.0010031123"
       sodipodi:end="0.00055991035"
       sodipodi:open="true"
       d="m 173.56661,123.02108 a 6.6145835,6.6145835 0 0 1 -6.62049,6.60794 6.6145835,6.6145835 0 0 1 -6.60868,-6.61975 6.6145835,6.6145835 0 0 1 6.61902,-6.60941 6.6145835,6.6145835 0 0 1 6.61015,6.61829" />
    <path
       style="opacity:1;fill:#ffffff;fill-opacity:1;fill-rule:evenodd;stroke:#000000;stroke-width:1.11803401;stroke-linecap:butt;stroke-linejoin:bevel;stroke-miterlimit:4;stroke-dasharray:none;stroke-dashoffset:0;stroke-opacity:1;paint-order:normal"
       id="path817-8"
       sodipodi:type="arc"
       sodipodi:cx="167.03564"
       sodipodi:cy="47.591759"
       sodipodi:rx="6.6145835"
       sodipodi:ry="6.6145835"
       sodipodi:start="0.0010031123"
       sodipodi:end="0.00055991035"
       sodipodi:open="true"
       d="m 173.65022,47.598394 a 6.6145835,6.6145835 0 0 1 -6.62048,6.607946 6.6145835,6.6145835 0 0 1 -6.60868,-6.619751 6.6145835,6.6145835 0 0 1 6.61902,-6.609412 6.6145835,6.6145835 0 0 1 6.61015,6.618285" />
    <path
       style="opacity:1;fill:#ffffff;fill-opacity:1;fill-rule:evenodd;stroke:#000000;stroke-width:1.56477582;stroke-linecap:butt;stroke-linejoin:bevel;stroke-miterlimit:4;stroke-dasharray:none;stroke-dashoffset:0;stroke-opacity:1;paint-order:normal"
       id="path817-21"
       sodipodi:type="arc"
       sodipodi:cx="101.86459"
       sodipodi:cy="85.324051"
       sodipodi:rx="9.2604189"
       sodipodi:ry="9.2548332"
       sodipodi:start="0.0010031123"
       sodipodi:end="0.00055991035"
       sodipodi:open="true"
       d="m 111.12501,85.333335 a 9.2604189,9.2548332 0 0 1 -9.26868,9.245545 9.2604189,9.2548332 0 0 1 -9.252153,-9.262062 9.2604189,9.2548332 0 0 1 9.266623,-9.247598 9.2604189,9.2548332 0 0 1 9.25421,9.260013" />
    <path
       style="opacity:1;fill:#ffffff;fill-opacity:1;fill-rule:evenodd;stroke:#000000;stroke-width:1;stroke-linecap:butt;stroke-linejoin:bevel;stroke-miterlimit:4;stroke-dasharray:none;stroke-dashoffset:0;stroke-opacity:1;paint-order:normal"
       id="path1163"
       sodipodi:type="arc"
       sodipodi:cx="66.147751"
       sodipodi:cy="13.898643"
       sodipodi:rx="0.52916664"
       sodipodi:ry="0.52916664"
       sodipodi:start="0.0010031123"
       sodipodi:end="0.00055991035"
       sodipodi:open="true"
       d="m 66.676917,13.899173 a 0.52916664,0.52916664 0 0 1 -0.529638,0.528636 0.52916664,0.52916664 0 0 1 -0.528695,-0.52958 0.52916664,0.52916664 0 0 1 0.529522,-0.528753 0.52916664,0.52916664 0 0 1 0.528811,0.529463"
       transform="rotate(7.1067802)" />
    <path
       style="opacity:1;fill:#ffffff;fill-opacity:1;fill-rule:evenodd;stroke:#000000;stroke-width:1;stroke-linecap:butt;stroke-linejoin:bevel;stroke-miterlimit:4;stroke-dasharray:none;stroke-dashoffset:0;stroke-opacity:1;paint-order:normal"
       id="path1163-2"
       sodipodi:type="arc"
       sodipodi:cx="54.241501"
       sodipodi:cy="24.481974"
       sodipodi:rx="0.52916664"
       sodipodi:ry="0.52916664"
       sodipodi:start="0.0010031123"
       sodipodi:end="0.00055991035"
       sodipodi:open="true"
       d="m 54.770667,24.482504 a 0.52916664,0.52916664 0 0 1 -0.529638,0.528636 0.52916664,0.52916664 0 0 1 -0.528695,-0.52958 0.52916664,0.52916664 0 0 1 0.529522,-0.528753 0.52916664,0.52916664 0 0 1 0.528811,0.529463"
       transform="rotate(7.1067802)" />
    <path
       style="opacity:1;fill:#ffffff;fill-opacity:1;fill-rule:evenodd;stroke:#000000;stroke-width:1;stroke-linecap:butt;stroke-linejoin:bevel;stroke-miterlimit:4;stroke-dasharray:none;stroke-dashoffset:0;stroke-opacity:1;paint-order:normal"
       id="path1163-3"
       sodipodi:type="arc"
       sodipodi:cx="80.170662"
       sodipodi:cy="5.6967931"
       sodipodi:rx="0.52916664"
       sodipodi:ry="0.52916664"
       sodipodi:start="0.0010031123"
       sodipodi:end="0.00055991035"
       sodipodi:open="true"
       d="m 80.699828,5.6973239 a 0.52916664,0.52916664 0 0 1 -0.529638,0.5286356 0.52916664,0.52916664 0 0 1 -0.528695,-0.52958 0.52916664,0.52916664 0 0 1 0.529522,-0.5287529 0.52916664,0.52916664 0 0 1 0.528811,0.5294628"
       transform="rotate(7.1067802)" />
    <rect
       style="opacity:1;fill:none;fill-opacity:1;fill-rule:evenodd;stroke:#000000;stroke-width:0;stroke-linecap:butt;stroke-linejoin:bevel;stroke-miterlimit:4;stroke-dasharray:none;stroke-dashoffset:0;stroke-opacity:1;paint-order:normal"
       id="rect1188"
       width="200"
       height="200"
       x="1.8493967"
       y="-14.695286"
       inkscape:export-filename="D:\h-nakashima\google drive\temp\講演\CIRM\rect1188.png"
       inkscape:export-xdpi="300.10001"
       inkscape:export-ydpi="300.10001" />
    <g
       title="{\Large$3$}"
       style="fill:#000000"
       id="equation_01"
       transform="translate(40.990923,98.320682)">
      <defs
         id="defs1608">
        <path
           d="m 2.6397,-5.150284 c -0.243885,0.014346 -0.30127,0.028692 -0.30127,0.157808 0,0.143462 0.071731,0.143462 0.329962,0.143462 h 0.659925 c 1.219427,0 1.764582,1.004234 1.764582,2.381468 0,1.879352 -0.975541,2.381469 -1.678504,2.381469 -0.688618,0 -1.865006,-0.329963 -2.281046,-1.276812 0.459079,0.071731 0.875118,-0.1865 0.875118,-0.702963 0,-0.41604 -0.30127,-0.702964 -0.702963,-0.702964 -0.344309,0 -0.71731,0.200847 -0.71731,0.746002 0,1.276812 1.276811,2.324084 2.869239,2.324084 1.707197,0 2.969663,-1.305504 2.969663,-2.754469 0,-1.31985 -1.061619,-2.352777 -2.438854,-2.596662 1.248119,-0.358655 2.051506,-1.405927 2.051506,-2.52493 0,-1.13335 -1.176388,-1.965429 -2.567969,-1.965429 -1.434619,0 -2.496238,0.875118 -2.496238,1.92239 0,0.573848 0.444732,0.688617 0.659925,0.688617 0.30127,0 0.645579,-0.215192 0.645579,-0.645578 0,-0.459079 -0.344309,-0.659925 -0.659925,-0.659925 -0.086077,0 -0.114769,0 -0.157808,0.014346 0.545155,-0.975541 1.893698,-0.975541 1.965429,-0.975541 0.473424,0 1.405927,0.215193 1.405927,1.62112 0,0.272577 -0.043039,1.075964 -0.459078,1.692851 -0.430386,0.631232 -0.918157,0.674271 -1.305504,0.688617 z"
           id="equation_01_00"
           inkscape:connector-curvature="0" />
      </defs>
      <g
         id="equation_01_g">
        <use
           id="use1610"
           xlink:href="#equation_01_00"
           y="62.764633"
           x="76.712326"
           width="100%"
           height="100%" />
      </g>
    </g>
    <g
       title="{\Large$2$}"
       style="fill:#000000"
       id="equation_02"
       transform="translate(105.42956,61.081018)">
      <defs
         id="defs1656">
        <path
           d="M 6.312326,-2.410161 H 5.99671 C 5.953671,-2.166276 5.838902,-1.377235 5.69544,-1.147696 5.595016,-1.01858 4.777283,-1.01858 4.346897,-1.01858 H 1.692851 c 0.387347,-0.329962 1.262465,-1.248119 1.635466,-1.592428 2.180622,-2.008467 2.984009,-2.754469 2.984009,-4.174743 0,-1.649812 -1.305504,-2.754469 -2.969662,-2.754469 -1.664158,0 -2.6397,1.420273 -2.6397,2.654046 0,0.731656 0.631232,0.731656 0.674271,0.731656 0.30127,0 0.674271,-0.215193 0.674271,-0.674271 0,-0.401694 -0.272578,-0.674271 -0.674271,-0.674271 -0.129116,0 -0.157808,0 -0.200847,0.014346 0.272578,-0.975541 1.047272,-1.635466 1.979775,-1.635466 1.219427,0 1.965429,1.018579 1.965429,2.338429 0,1.219427 -0.702964,2.281046 -1.520697,3.199202 l -2.897931,3.24224 V 0 h 5.236361 z"
           id="equation_02_00"
           inkscape:connector-curvature="0" />
      </defs>
      <g
         id="equation_02_g">
        <use
           id="use1658"
           xlink:href="#equation_02_00"
           y="62.764633"
           x="76.712326"
           width="100%"
           height="100%" />
      </g>
    </g>
    <g
       title="{\Large$1$}"
       style="fill:#000000"
       id="equation_03"
       transform="translate(104.80816,-15.625152)">
      <defs
         id="defs1709">
        <path
           d="m 4.131704,-9.195911 c 0,-0.329963 0,-0.344309 -0.286924,-0.344309 -0.344308,0.387347 -1.061618,0.918156 -2.539276,0.918156 v 0.41604 c 0.329962,0 1.047272,0 1.836313,-0.373001 v 7.474368 c 0,0.516463 -0.043039,0.688617 -1.305504,0.688617 H 1.391581 V 0 c 0.387347,-0.028692 1.778928,-0.028692 2.252353,-0.028692 0.473425,0 1.850659,0 2.238006,0.028692 V -0.41604 H 5.437208 c -1.262465,0 -1.305504,-0.172154 -1.305504,-0.688617 z"
           id="equation_03_00"
           inkscape:connector-curvature="0" />
      </defs>
      <g
         id="equation_03_g">
        <use
           id="use1711"
           xlink:href="#equation_03_00"
           y="62.764633"
           x="76.712326"
           width="100%"
           height="100%" />
      </g>
    </g>
    <g
       title="{\Large$b_n$}"
       style="fill:#000000"
       id="equation_04"
       transform="translate(40.398291,-54.308047)">
      <defs
         id="defs1768">
        <path
           d="m 0.876712,-0.587796 c -0.029888,0.14944 -0.089663,0.378581 -0.089663,0.428394 0,0.179327 0.139477,0.268991 0.288916,0.268991 0.119552,0 0.298879,-0.079701 0.368618,-0.278954 0.00996,-0.019925 0.129514,-0.488169 0.18929,-0.737235 L 1.853051,-1.803238 C 1.912827,-2.022416 1.972603,-2.241594 2.022416,-2.470735 2.062267,-2.6401 2.141968,-2.929016 2.15193,-2.968867 c 0.14944,-0.308842 0.67746,-1.215442 1.623911,-1.215442 0.448318,0 0.537982,0.368618 0.537982,0.697385 0,0.617684 -0.488169,1.892902 -0.647571,2.321295 -0.089664,0.229141 -0.099627,0.348693 -0.099627,0.458282 0,0.468244 0.348693,0.816936 0.816937,0.816936 0.936488,0 1.305105,-1.454545 1.305105,-1.534247 0,-0.099626 -0.089663,-0.099626 -0.119551,-0.099626 -0.099627,0 -0.099627,0.029888 -0.14944,0.179328 -0.199253,0.677459 -0.52802,1.235367 -1.016189,1.235367 -0.169365,0 -0.239103,-0.099626 -0.239103,-0.328767 0,-0.249066 0.089663,-0.48817 0.179327,-0.707348 0.18929,-0.52802 0.607721,-1.62391 0.607721,-2.19178 0,-0.667497 -0.428393,-1.066003 -1.145703,-1.066003 -0.896638,0 -1.384807,0.637609 -1.554172,0.86675 -0.049814,-0.557908 -0.458282,-0.86675 -0.916563,-0.86675 -0.458281,0 -0.647572,0.388543 -0.747198,0.567871 -0.159402,0.338729 -0.298879,0.926525 -0.298879,0.966376 0,0.099626 0.099626,0.099626 0.119551,0.099626 0.099627,0 0.109589,-0.00996 0.169365,-0.229141 0.169365,-0.707347 0.368618,-1.185554 0.727273,-1.185554 0.199253,0 0.308842,0.129514 0.308842,0.458282 0,0.209215 -0.029888,0.318804 -0.159403,0.836861 z"
           id="equation_04_00"
           inkscape:connector-curvature="0" />
        <path
           d="M 3.313971,-9.597605 C 3.328317,-9.65499 3.35701,-9.741067 3.35701,-9.812798 c 0,-0.143462 -0.143462,-0.143462 -0.172155,-0.143462 -0.014346,0 -0.530809,0.043039 -0.78904,0.071731 -0.243886,0.014346 -0.459079,0.043039 -0.71731,0.057385 -0.344309,0.028692 -0.444732,0.043039 -0.444732,0.30127 0,0.143462 0.143462,0.143462 0.286924,0.143462 0.731656,0 0.731656,0.129116 0.731656,0.272578 0,0.100423 -0.11477,0.516463 -0.172155,0.774694 L 1.73589,-6.957905 c -0.143462,0.573848 -0.961195,3.830434 -1.01858,4.088666 -0.071731,0.358655 -0.071731,0.60254 -0.071731,0.789041 0,1.463312 0.817733,2.22366 1.750236,2.22366 1.664158,0 3.385702,-2.137583 3.385702,-4.217782 0,-1.31985 -0.746002,-2.252352 -1.821967,-2.252352 -0.746002,0 -1.420273,0.616886 -1.692851,0.90381 z m -0.90381,9.454143 c -0.459078,0 -0.961195,-0.344309 -0.961195,-1.463312 0,-0.473424 0.043038,-0.746002 0.30127,-1.750236 0.043038,-0.1865 0.272578,-1.104657 0.329962,-1.291157 0.028693,-0.11477 0.875118,-1.391581 1.85066,-1.391581 0.631232,0 0.918156,0.631232 0.918156,1.377234 0,0.688618 -0.401693,2.309738 -0.760348,3.05574 -0.358655,0.774695 -1.01858,1.463312 -1.678505,1.463312 z"
           id="equation_04_01"
           inkscape:connector-curvature="0" />
      </defs>
      <g
         id="equation_04_g">
        <use
           id="use1770"
           xlink:href="#equation_04_01"
           y="62.764633"
           x="76.712326"
           width="100%"
           height="100%" />
        <use
           id="use1772"
           xlink:href="#equation_04_00"
           y="64.91655"
           x="82.684853"
           width="100%"
           height="100%" />
      </g>
    </g>
  </g>
  <g
     inkscape:groupmode="layer"
     id="layer4"
     inkscape:label="文字">
    <path
       style="opacity:1;fill:none;fill-opacity:1;fill-rule:evenodd;stroke:#000000;stroke-width:1.11803401;stroke-linecap:butt;stroke-linejoin:bevel;stroke-miterlimit:4;stroke-dasharray:none;stroke-dashoffset:0;stroke-opacity:1;paint-order:normal"
       id="path817-2"
       sodipodi:type="arc"
       sodipodi:cx="101.86459"
       sodipodi:cy="85.329636"
       sodipodi:rx="6.6145835"
       sodipodi:ry="6.6145835"
       sodipodi:start="0.0010031123"
       sodipodi:end="0.00055991035"
       sodipodi:open="true"
       d="m 108.47917,85.336271 a 6.6145835,6.6145835 0 0 1 -6.62048,6.607945 6.6145835,6.6145835 0 0 1 -6.608678,-6.61975 6.6145835,6.6145835 0 0 1 6.619018,-6.609412 6.6145835,6.6145835 0 0 1 6.61015,6.618285" />
    <g
       title="\small$a_n$"
       style="fill:#000000"
       id="equation_00"
       transform="translate(20.387344,23.653049)">
      <defs
         id="defs908">
        <path
           d="M 3.425156,-3.407223 C 3.254795,-3.730012 2.976837,-3.963138 2.57335,-3.963138 c -1.0401,0 -2.196762,1.23736 -2.196762,2.609215 0,0.986302 0.627646,1.452553 1.228393,1.452553 0.582815,0 1.058033,-0.484184 1.201495,-0.654545 0.09863,0.49315 0.546949,0.654545 0.833873,0.654545 0.260025,0 0.484184,-0.116563 0.681444,-0.493151 0.161395,-0.29589 0.286924,-0.851805 0.286924,-0.887671 0,-0.044832 -0.026899,-0.107596 -0.116563,-0.107596 -0.107596,0 -0.116562,0.044832 -0.152428,0.215193 -0.19726,0.780074 -0.394521,1.049066 -0.672478,1.049066 -0.22416,0 -0.277958,-0.215193 -0.277958,-0.412454 0,-0.170361 0.044832,-0.349688 0.125529,-0.663511 l 0.22416,-0.923537 c 0.062764,-0.22416 0.224159,-0.896638 0.260025,-1.031133 0.035865,-0.12553 0.089663,-0.340723 0.089663,-0.367622 0,-0.143462 -0.116562,-0.260025 -0.277957,-0.260025 -0.116563,0 -0.340722,0.071731 -0.385554,0.376588 z m -0.582815,2.313325 c -0.044832,0.170361 -0.044832,0.179328 -0.188294,0.349689 -0.322789,0.385554 -0.690411,0.61868 -1.022167,0.61868 -0.439352,0 -0.59178,-0.457285 -0.59178,-0.84284 0,-0.439352 0.260025,-1.470485 0.475218,-1.900871 0.286924,-0.537983 0.699377,-0.869739 1.058032,-0.869739 0.600747,0 0.735243,0.71731 0.735243,0.780075 0,0.044832 -0.017933,0.09863 -0.026899,0.134496 z"
           id="equation_00_00"
           inkscape:connector-curvature="0" />
        <path
           d="M 1.751432,-2.068244 C 1.721544,-2.52254 1.303113,-2.636115 1.075965,-2.636115 c -0.227148,0 -0.382565,0.137485 -0.490162,0.328768 -0.149439,0.24508 -0.22117,0.561892 -0.22117,0.585803 0,0.065753 0.053798,0.089664 0.107596,0.089664 0.095641,0 0.101619,-0.041844 0.131507,-0.137485 0.119552,-0.478207 0.263014,-0.669489 0.454296,-0.669489 0.215193,0 0.215193,0.245081 0.215193,0.304856 0,0.095642 -0.059775,0.334745 -0.101619,0.502118 -0.041843,0.161394 -0.101618,0.406475 -0.131506,0.537982 -0.041843,0.14944 -0.077709,0.304857 -0.119552,0.454297 -0.041843,0.167372 -0.113574,0.466251 -0.113574,0.502117 0,0.131506 0.101619,0.19726 0.209215,0.19726 0.107596,0 0.209216,-0.071731 0.257036,-0.161395 0.011956,-0.035865 0.065754,-0.245081 0.095642,-0.364633 l 0.131507,-0.537982 c 0.041843,-0.155417 0.065753,-0.263014 0.101619,-0.400498 0.053798,-0.203238 0.263013,-0.52005 0.484184,-0.741221 0.119552,-0.113574 0.376588,-0.292901 0.699377,-0.292901 0.382566,0 0.382566,0.304856 0.382566,0.418431 0,0.352677 -0.257037,0.992279 -0.364633,1.26127 -0.035866,0.101619 -0.077709,0.19726 -0.077709,0.298879 0,0.304857 0.274969,0.52005 0.603736,0.52005 0.603736,0 0.902616,-0.789041 0.902616,-0.920548 0,-0.011955 -0.00598,-0.083686 -0.113575,-0.083686 -0.083686,0 -0.089663,0.029888 -0.125529,0.143462 -0.095641,0.316812 -0.340722,0.663512 -0.645579,0.663512 -0.113574,0 -0.161395,-0.089664 -0.161395,-0.215193 0,-0.119552 0.041843,-0.221171 0.095642,-0.3467 0.089663,-0.233126 0.358655,-0.908593 0.358655,-1.243338 0,-0.490162 -0.370611,-0.6934 -0.824907,-0.6934 -0.298879,0 -0.681444,0.095642 -1.06401,0.567871 z"
           id="equation_00_01"
           inkscape:connector-curvature="0" />
      </defs>
      <g
         id="equation_00_g">
        <use
           id="use910"
           xlink:href="#equation_00_00"
           y="62.764633"
           x="76.712326"
           width="100%"
           height="100%" />
        <use
           id="use912"
           xlink:href="#equation_00_01"
           y="63.76088"
           x="81.594337"
           width="100%"
           height="100%" />
      </g>
    </g>
  </g>
</svg>
