<?xml version="1.0" encoding="UTF-8" standalone="no"?>
<!-- Created with Inkscape (http://www.inkscape.org/) -->

<svg
   xmlns:dc="http://purl.org/dc/elements/1.1/"
   xmlns:cc="http://creativecommons.org/ns#"
   xmlns:rdf="http://www.w3.org/1999/02/22-rdf-syntax-ns#"
   xmlns:svg="http://www.w3.org/2000/svg"
   xmlns="http://www.w3.org/2000/svg"
   xmlns:xlink="http://www.w3.org/1999/xlink"
   xmlns:sodipodi="http://sodipodi.sourceforge.net/DTD/sodipodi-0.dtd"
   xmlns:inkscape="http://www.inkscape.org/namespaces/inkscape"
   id="svg2783"
   version="1.1"
   viewBox="0 0 210 297"
   height="297mm"
   width="210mm"
   inkscape:version="0.92.4 (5da689c313, 2019-01-14)"
   sodipodi:docname="ガウス記号関数.svg">
  <defs
     id="defs2777">
    <marker
       inkscape:isstock="true"
       style="overflow:visible;"
       id="marker3358"
       refX="0.0"
       refY="0.0"
       orient="auto"
       inkscape:stockid="Arrow2Mend">
      <path
         transform="scale(0.6) rotate(180) translate(0,0)"
         d="M 8.7185878,4.0337352 L -2.2072895,0.016013256 L 8.7185884,-4.0017078 C 6.9730900,-1.6296469 6.9831476,1.6157441 8.7185878,4.0337352 z "
         style="fill-rule:evenodd;stroke-width:0.625;stroke-linejoin:round;stroke:#000000;stroke-opacity:1;fill:#000000;fill-opacity:1"
         id="path3356" />
    </marker>
    <marker
       inkscape:stockid="Arrow2Mend"
       orient="auto"
       refY="0.0"
       refX="0.0"
       id="Arrow2Mend"
       style="overflow:visible;"
       inkscape:isstock="true"
       inkscape:collect="always">
      <path
         id="path850"
         style="fill-rule:evenodd;stroke-width:0.625;stroke-linejoin:round;stroke:#000000;stroke-opacity:1;fill:#000000;fill-opacity:1"
         d="M 8.7185878,4.0337352 L -2.2072895,0.016013256 L 8.7185884,-4.0017078 C 6.9730900,-1.6296469 6.9831476,1.6157441 8.7185878,4.0337352 z "
         transform="scale(0.6) rotate(180) translate(0,0)" />
    </marker>
    <path
       d="m 2.929016,-6.37609 c 0,-0.239103 0,-0.259028 -0.229141,-0.259028 -0.617683,0.637609 -1.494396,0.637609 -1.8132,0.637609 v 0.308842 c 0.199253,0 0.787049,0 1.305106,-0.259029 v 5.160647 c 0,0.358655 -0.029888,0.478207 -0.926526,0.478207 H 0.946451 V 0 c 0.348692,-0.029888 1.215442,-0.029888 1.613948,-0.029888 0.398506,0 1.265255,0 1.613947,0.029888 V -0.308842 H 3.855542 c -0.896638,0 -0.926526,-0.109589 -0.926526,-0.478207 z"
       id="equation_03_00-3"
       inkscape:connector-curvature="0" />
    <path
       d="m 1.265255,-0.767123 1.05604,-1.026152 c 1.554172,-1.374845 2.15193,-1.912827 2.15193,-2.909091 0,-1.135741 -0.896637,-1.932752 -2.112079,-1.932752 -1.125779,0 -1.863014,0.916563 -1.863014,1.803238 0,0.557907 0.498132,0.557907 0.52802,0.557907 0.169365,0 0.518057,-0.119551 0.518057,-0.52802 0,-0.259028 -0.179327,-0.518057 -0.52802,-0.518057 -0.079701,0 -0.099626,0 -0.129514,0.00996 0.229141,-0.647572 0.767123,-1.016189 1.344956,-1.016189 0.906601,0 1.334994,0.806973 1.334994,1.62391 0,0.797011 -0.498132,1.58406 -1.046077,2.201743 L 0.607721,-0.368618 C 0.498132,-0.259029 0.498132,-0.239103 0.498132,0 H 4.194271 L 4.473225,-1.733499 H 4.224159 c -0.049813,0.298879 -0.119551,0.737235 -0.219178,0.886675 -0.069738,0.079701 -0.727272,0.079701 -0.94645,0.079701 z"
       id="equation_04_00-3"
       inkscape:connector-curvature="0" />
    <path
       d="m 2.889166,-3.506849 c 0.816936,-0.268992 1.394769,-0.966376 1.394769,-1.753425 0,-0.816936 -0.876712,-1.374844 -1.833126,-1.374844 -1.006226,0 -1.763387,0.597758 -1.763387,1.354919 0,0.328767 0.219178,0.518057 0.508095,0.518057 0.308842,0 0.508094,-0.219178 0.508094,-0.508095 0,-0.498132 -0.468244,-0.498132 -0.617683,-0.498132 0.308842,-0.488169 0.966376,-0.617683 1.325031,-0.617683 0.408468,0 0.956413,0.219178 0.956413,1.115815 0,0.119552 -0.019925,0.697385 -0.278954,1.135741 -0.298879,0.478207 -0.637609,0.508095 -0.886675,0.518058 -0.079701,0.00996 -0.318804,0.029888 -0.388543,0.029888 -0.079701,0.00996 -0.149439,0.019925 -0.149439,0.119551 0,0.109589 0.069738,0.109589 0.239103,0.109589 H 2.34122 c 0.816937,0 1.185555,0.67746 1.185555,1.653799 0,1.354919 -0.687423,1.643835 -1.125779,1.643835 -0.428393,0 -1.175591,-0.169365 -1.524284,-0.75716 0.348693,0.049813 0.657535,-0.169365 0.657535,-0.547946 0,-0.358655 -0.268992,-0.557908 -0.557908,-0.557908 -0.239104,0 -0.557908,0.139477 -0.557908,0.577834 0,0.9066 0.926525,1.564134 2.012453,1.564134 1.215442,0 2.122043,-0.9066 2.122043,-1.922789 0,-0.816937 -0.627647,-1.594023 -1.663761,-1.803238 z"
       id="equation_05_00-2"
       inkscape:connector-curvature="0" />
    <path
       d="m 2.929016,-1.643836 v 0.86675 c 0,0.358655 -0.019925,0.468244 -0.75716,0.468244 H 1.96264 V 0 c 0.408468,-0.029888 0.926526,-0.029888 1.344957,-0.029888 0.418431,0 0.94645,0 1.354919,0.029888 V -0.308842 H 4.4533 c -0.737235,0 -0.757161,-0.109589 -0.757161,-0.468244 v -0.86675 H 4.692403 V -1.952677 H 3.696139 v -4.533002 c 0,-0.199253 0,-0.259028 -0.159402,-0.259028 -0.089664,0 -0.119551,0 -0.199253,0.119551 l -3.05853,4.672479 v 0.308841 z M 2.988792,-1.952677 H 0.557908 l 2.430884,-3.716065 z"
       id="equation_06_00-0"
       inkscape:connector-curvature="0" />
  </defs>
  <sodipodi:namedview
     id="base"
     pagecolor="#ffffff"
     bordercolor="#666666"
     borderopacity="1.0"
     inkscape:pageopacity="0.0"
     inkscape:pageshadow="2"
     inkscape:zoom="0.98994949"
     inkscape:cx="315.72198"
     inkscape:cy="750.46072"
     inkscape:document-units="mm"
     inkscape:current-layer="layer1"
     showgrid="true"
     inkscape:window-width="1858"
     inkscape:window-height="1057"
     inkscape:window-x="-8"
     inkscape:window-y="-8"
     inkscape:window-maximized="1">
    <inkscape:grid
       id="grid3328"
       type="xygrid" />
  </sodipodi:namedview>
  <metadata
     id="metadata2780">
    <rdf:RDF>
      <cc:Work
         rdf:about="">
        <dc:format>image/svg+xml</dc:format>
        <dc:type
           rdf:resource="http://purl.org/dc/dcmitype/StillImage" />
        <dc:title />
      </cc:Work>
    </rdf:RDF>
  </metadata>
  <g
     inkscape:label="レイヤー 1"
     inkscape:groupmode="layer"
     id="layer1">
    <rect
       style="opacity:1;fill:none;fill-opacity:1;stroke:#000000;stroke-width:0;stroke-linecap:butt;stroke-linejoin:round;stroke-miterlimit:4;stroke-dasharray:none;stroke-dashoffset:0;stroke-opacity:1;paint-order:normal"
       id="rect3330"
       width="206.375"
       height="216.95834"
       x="2.6458333"
       y="0.66665828"
       inkscape:export-xdpi="300.10001"
       inkscape:export-ydpi="300.10001" />
    <path
       style="fill:none;stroke:#000000;stroke-width:0.4;stroke-linecap:butt;stroke-linejoin:miter;stroke-miterlimit:4;stroke-dasharray:none;stroke-opacity:1;marker-end:url(#marker3358)"
       d="m 2.6458333,185.34586 c 203.7291667,0 203.7291667,0 203.7291667,0"
       id="path3332"
       inkscape:connector-curvature="0" />
    <path
       style="fill:none;stroke:#000000;stroke-width:0.4;stroke-linecap:butt;stroke-linejoin:miter;stroke-miterlimit:4;stroke-dasharray:none;stroke-opacity:1;marker-end:url(#Arrow2Mend)"
       d="m 31.22081,217.625 c 0,-214.3125001 0,-214.3125001 0,-214.3125001"
       id="path3334"
       inkscape:connector-curvature="0" />
    <g
       title="\large$y$"
       style="fill:#000000"
       id="equation_00"
       transform="translate(-61.598254,-53.453906)">
      <defs
         id="defs3396">
        <path
           d="M 3.144209,1.338979 C 2.82142,1.793275 2.355168,2.199751 1.769365,2.199751 c -0.143462,0 -0.71731,-0.02391 -0.896638,-0.573848 0.035866,0.011955 0.095642,0.011955 0.119552,0.011955 0.358655,0 0.597758,-0.310834 0.597758,-0.585803 0,-0.274969 -0.227148,-0.37061 -0.406475,-0.37061 -0.191283,0 -0.609714,0.143462 -0.609714,0.729265 0,0.609713 0.514072,1.028144 1.195517,1.028144 1.195517,0 2.402989,-1.099875 2.737733,-2.426899 L 5.678705,-4.65056 C 5.69066,-4.710336 5.71457,-4.782067 5.71457,-4.853798 c 0,-0.179328 -0.143462,-0.298879 -0.322789,-0.298879 -0.107597,0 -0.358655,0.04782 -0.454297,0.406475 l -0.884682,3.51482 c -0.059776,0.215193 -0.059776,0.239103 -0.155417,0.37061 -0.239104,0.334745 -0.633624,0.74122 -1.207472,0.74122 -0.66949,0 -0.729265,-0.657534 -0.729265,-0.980323 0,-0.681445 0.322789,-1.601993 0.645579,-2.462765 0.131506,-0.3467 0.203238,-0.514072 0.203238,-0.753176 0,-0.502117 -0.358656,-0.956413 -0.944459,-0.956413 -1.099875,0 -1.542216,1.733499 -1.542216,1.829141 0,0.04782 0.04782,0.107596 0.131506,0.107596 0.107597,0 0.119552,-0.047821 0.167373,-0.215193 0.286924,-1.004234 0.74122,-1.482441 1.207472,-1.482441 0.107596,0 0.310834,0 0.310834,0.394521 0,0.310834 -0.131507,0.657534 -0.310834,1.11183 -0.585804,1.566127 -0.585804,1.960648 -0.585804,2.247572 0,1.135741 0.812952,1.398755 1.41071,1.398755 0.3467,0 0.777086,-0.107597 1.195517,-0.549938 l 0.011955,0.011955 C 3.682192,0.286924 3.56264,0.753176 3.144209,1.338979 Z"
           id="equation_00_00"
           inkscape:connector-curvature="0" />
      </defs>
      <g
         id="equation_00_g">
        <use
           id="use3398"
           xlink:href="#equation_00_00"
           y="62.764633"
           x="76.712326"
           width="100%"
           height="100%" />
      </g>
    </g>
    <g
       title="\large$x$"
       style="fill:#000000"
       id="equation_01"
       transform="translate(124.35791,133.78327)">
      <defs
         id="defs3445">
        <path
           d="m 5.66675,-4.877709 c -0.382566,0.071731 -0.526028,0.358655 -0.526028,0.585804 0,0.286924 0.227148,0.382565 0.394521,0.382565 0.358655,0 0.609713,-0.310834 0.609713,-0.633624 0,-0.502117 -0.573848,-0.729265 -1.075965,-0.729265 -0.729265,0 -1.135741,0.71731 -1.243337,0.944458 -0.274969,-0.896637 -1.016189,-0.944458 -1.231383,-0.944458 -1.219427,0 -1.865006,1.566127 -1.865006,1.829141 0,0.04782 0.047821,0.107596 0.131507,0.107596 0.095641,0 0.119552,-0.071731 0.143462,-0.119552 0.406476,-1.327023 1.207472,-1.578082 1.554172,-1.578082 0.537983,0 0.645579,0.502117 0.645579,0.789041 0,0.263014 -0.071731,0.537983 -0.215193,1.111831 l -0.406476,1.637858 c -0.179327,0.71731 -0.526027,1.374844 -1.159651,1.374844 -0.059776,0 -0.358655,0 -0.609714,-0.155417 0.430386,-0.083686 0.526028,-0.442341 0.526028,-0.585803 0,-0.239103 -0.179328,-0.382565 -0.406476,-0.382565 -0.286924,0 -0.597758,0.251058 -0.597758,0.633623 0,0.502117 0.561893,0.729266 1.075965,0.729266 0.573848,0 0.980324,-0.454297 1.231382,-0.944459 0.191283,0.705355 0.789041,0.944459 1.231382,0.944459 1.219428,0 1.865007,-1.566127 1.865007,-1.829141 0,-0.059776 -0.047821,-0.107597 -0.119552,-0.107597 -0.107596,0 -0.119552,0.059776 -0.155417,0.155418 -0.32279,1.052054 -1.016189,1.542216 -1.554172,1.542216 -0.418431,0 -0.645579,-0.310834 -0.645579,-0.800996 0,-0.263014 0.047821,-0.454296 0.239103,-1.243337 l 0.418431,-1.625903 c 0.179328,-0.71731 0.585803,-1.243338 1.135741,-1.243338 0.02391,0 0.358655,0 0.609714,0.155417 z"
           id="equation_01_00"
           inkscape:connector-curvature="0" />
      </defs>
      <g
         id="equation_01_g">
        <use
           id="use3447"
           xlink:href="#equation_01_00"
           y="62.764633"
           x="76.712326"
           width="100%"
           height="100%" />
      </g>
    </g>
    <g
       title="\large$O$"
       style="fill:#000000"
       id="equation_02"
       transform="translate(-58.950285,117.02803)">
      <defs
         id="defs3564">
        <path
           d="m 8.679452,-5.236364 c 0,-1.972602 -1.291158,-3.180074 -2.964882,-3.180074 -2.558406,0 -5.140722,2.749688 -5.140722,5.511332 0,1.876962 1.243338,3.156165 2.976837,3.156165 2.510585,0 5.128767,-2.618182 5.128767,-5.487423 z M 3.622416,-0.02391 c -0.980324,0 -2.020423,-0.71731 -2.020423,-2.582317 0,-1.08792 0.39452,-2.86924 1.374844,-4.064757 0.872727,-1.052055 1.876961,-1.482441 2.677958,-1.482441 1.052054,0 2.068244,0.765131 2.068244,2.486675 0,1.06401 -0.454297,2.725779 -1.255293,3.86152 -0.872727,1.219427 -1.960648,1.78132 -2.84533,1.78132 z"
           id="equation_02_00"
           inkscape:connector-curvature="0" />
      </defs>
      <g
         id="equation_02_g">
        <use
           id="use3566"
           xlink:href="#equation_02_00"
           y="62.764633"
           x="76.712326"
           width="100%"
           height="100%" />
      </g>
    </g>
    <path
       style="fill:none;stroke:#000000;stroke-width:0.4;stroke-linecap:butt;stroke-linejoin:miter;stroke-opacity:1;stroke-miterlimit:4;stroke-dasharray:0.4,0.8;stroke-dashoffset:0"
       d="M 2.3785633,217.625 C 200.81602,-4.625 200.81602,-4.625 200.81602,-4.625"
       id="path843"
       inkscape:connector-curvature="0" />
    <path
       style="fill:none;stroke:#000000;stroke-width:0.80000001;stroke-linecap:butt;stroke-linejoin:miter;stroke-miterlimit:4;stroke-dasharray:none;stroke-opacity:1"
       d="m 31.220833,185.34606 c 31.749999,0 31.749999,0 31.749999,0"
       id="path2501"
       inkscape:connector-curvature="0" />
    <path
       style="opacity:1;fill:#000000;fill-opacity:1;fill-rule:evenodd;stroke:#000000;stroke-width:0.80000001;stroke-linecap:butt;stroke-linejoin:bevel;stroke-miterlimit:4;stroke-dasharray:none;stroke-dashoffset:0;stroke-opacity:1;paint-order:normal"
       id="path2503"
       sodipodi:type="arc"
       sodipodi:cx="31.220833"
       sodipodi:cy="185.34537"
       sodipodi:rx="1.3229166"
       sodipodi:ry="1.3229166"
       sodipodi:start="0"
       sodipodi:end="6.2831679"
       sodipodi:open="true"
       d="m 32.543749,185.34537 a 1.3229166,1.3229166 0 0 1 -1.32291,1.32291 1.3229166,1.3229166 0 0 1 -1.322923,-1.3229 1.3229166,1.3229166 0 0 1 1.3229,-1.32293 1.3229166,1.3229166 0 0 1 1.322933,1.32289" />
    <path
       style="fill:none;stroke:#000000;stroke-width:0.264;stroke-linecap:butt;stroke-linejoin:miter;stroke-opacity:1;stroke-miterlimit:4;stroke-dasharray:0.79200001,0.79200001;stroke-dashoffset:0"
       d="m 63.499999,185.61042 c 0,-36.77709 0,-36.77709 0,-36.77709"
       id="path2879"
       inkscape:connector-curvature="0" />
    <path
       style="opacity:1;fill:#ffffff;fill-opacity:1;fill-rule:evenodd;stroke:#000000;stroke-width:0.80000001;stroke-linecap:butt;stroke-linejoin:bevel;stroke-miterlimit:4;stroke-dasharray:none;stroke-dashoffset:0;stroke-opacity:1;paint-order:normal"
       id="path2503-6"
       sodipodi:type="arc"
       sodipodi:cx="63.5"
       sodipodi:cy="185.34584"
       sodipodi:rx="1.3229166"
       sodipodi:ry="1.3229166"
       sodipodi:start="0"
       sodipodi:end="6.2831679"
       sodipodi:open="true"
       d="m 64.822917,185.34584 a 1.3229166,1.3229166 0 0 1 -1.322911,1.32292 1.3229166,1.3229166 0 0 1 -1.322923,-1.32291 1.3229166,1.3229166 0 0 1 1.3229,-1.32293 1.3229166,1.3229166 0 0 1 1.322934,1.3229" />
    <path
       style="fill:none;stroke:#000000;stroke-width:0.80000001;stroke-linecap:butt;stroke-linejoin:miter;stroke-miterlimit:4;stroke-dasharray:none;stroke-opacity:1"
       d="m 63.499999,148.8335 c 31.749999,0 31.749999,0 31.749999,0"
       id="path2501-0"
       inkscape:connector-curvature="0" />
    <path
       style="opacity:1;fill:#000000;fill-opacity:1;fill-rule:evenodd;stroke:#000000;stroke-width:0.80000001;stroke-linecap:butt;stroke-linejoin:bevel;stroke-miterlimit:4;stroke-dasharray:none;stroke-dashoffset:0;stroke-opacity:1;paint-order:normal"
       id="path2503-8"
       sodipodi:type="arc"
       sodipodi:cx="63.5"
       sodipodi:cy="148.83301"
       sodipodi:rx="1.3229166"
       sodipodi:ry="1.3229166"
       sodipodi:start="0"
       sodipodi:end="6.2831679"
       sodipodi:open="true"
       d="m 64.822917,148.83301 a 1.3229166,1.3229166 0 0 1 -1.322911,1.32291 1.3229166,1.3229166 0 0 1 -1.322923,-1.3229 1.3229166,1.3229166 0 0 1 1.3229,-1.32293 1.3229166,1.3229166 0 0 1 1.322934,1.32289" />
    <path
       style="fill:none;stroke:#000000;stroke-width:0.264;stroke-linecap:butt;stroke-linejoin:miter;stroke-miterlimit:4;stroke-dasharray:0.79200002, 0.79200002;stroke-dashoffset:0;stroke-opacity:1"
       d="m 95.779165,149.09786 c 0,-36.77709 0,-36.77709 0,-36.77709"
       id="path2879-6"
       inkscape:connector-curvature="0" />
    <path
       style="opacity:1;fill:#ffffff;fill-opacity:1;fill-rule:evenodd;stroke:#000000;stroke-width:0.80000001;stroke-linecap:butt;stroke-linejoin:bevel;stroke-miterlimit:4;stroke-dasharray:none;stroke-dashoffset:0;stroke-opacity:1;paint-order:normal"
       id="path2503-6-8"
       sodipodi:type="arc"
       sodipodi:cx="95.779167"
       sodipodi:cy="148.83348"
       sodipodi:rx="1.3229166"
       sodipodi:ry="1.3229166"
       sodipodi:start="0"
       sodipodi:end="6.2831679"
       sodipodi:open="true"
       d="m 97.102084,148.83348 a 1.3229166,1.3229166 0 0 1 -1.322911,1.32292 1.3229166,1.3229166 0 0 1 -1.322922,-1.32291 1.3229166,1.3229166 0 0 1 1.322899,-1.32293 1.3229166,1.3229166 0 0 1 1.322934,1.3229" />
    <path
       style="fill:none;stroke:#000000;stroke-width:0.80000001;stroke-linecap:butt;stroke-linejoin:miter;stroke-miterlimit:4;stroke-dasharray:none;stroke-opacity:1"
       d="m 95.779114,112.32102 c 31.749976,0 31.749976,0 31.749976,0"
       id="path2501-7"
       inkscape:connector-curvature="0" />
    <path
       style="opacity:1;fill:#000000;fill-opacity:1;fill-rule:evenodd;stroke:#000000;stroke-width:0.80000001;stroke-linecap:butt;stroke-linejoin:bevel;stroke-miterlimit:4;stroke-dasharray:none;stroke-dashoffset:0;stroke-opacity:1;paint-order:normal"
       id="path2503-1"
       sodipodi:type="arc"
       sodipodi:cx="95.779175"
       sodipodi:cy="112.3204"
       sodipodi:rx="1.3229166"
       sodipodi:ry="1.3229166"
       sodipodi:start="0"
       sodipodi:end="6.2831679"
       sodipodi:open="true"
       d="m 97.102091,112.3204 a 1.3229166,1.3229166 0 0 1 -1.32291,1.32291 1.3229166,1.3229166 0 0 1 -1.322923,-1.3229 1.3229166,1.3229166 0 0 1 1.3229,-1.32293 1.3229166,1.3229166 0 0 1 1.322933,1.32289" />
    <path
       style="fill:none;stroke:#000000;stroke-width:0.264;stroke-linecap:butt;stroke-linejoin:miter;stroke-miterlimit:4;stroke-dasharray:0.79200002, 0.79200002;stroke-dashoffset:0;stroke-opacity:1"
       d="m 128.05826,112.58538 c 0,-36.777054 0,-36.777054 0,-36.777054"
       id="path2879-0"
       inkscape:connector-curvature="0" />
    <path
       style="opacity:1;fill:#ffffff;fill-opacity:1;fill-rule:evenodd;stroke:#000000;stroke-width:0.80000001;stroke-linecap:butt;stroke-linejoin:bevel;stroke-miterlimit:4;stroke-dasharray:none;stroke-dashoffset:0;stroke-opacity:1;paint-order:normal"
       id="path2503-6-84"
       sodipodi:type="arc"
       sodipodi:cx="128.0585"
       sodipodi:cy="112.32087"
       sodipodi:rx="1.3229166"
       sodipodi:ry="1.3229166"
       sodipodi:start="0"
       sodipodi:end="6.2831679"
       sodipodi:open="true"
       d="m 129.38142,112.32087 a 1.3229166,1.3229166 0 0 1 -1.32291,1.32292 1.3229166,1.3229166 0 0 1 -1.32292,-1.32291 1.3229166,1.3229166 0 0 1 1.32289,-1.32293 1.3229166,1.3229166 0 0 1 1.32294,1.3229" />
    <path
       style="fill:none;stroke:#000000;stroke-width:0.80000001;stroke-linecap:butt;stroke-linejoin:miter;stroke-miterlimit:4;stroke-dasharray:none;stroke-opacity:1"
       d="m 128.05828,76.471353 c 31.75,0 31.75,0 31.75,0"
       id="path2501-8"
       inkscape:connector-curvature="0" />
    <path
       style="opacity:1;fill:#000000;fill-opacity:1;fill-rule:evenodd;stroke:#000000;stroke-width:0.80000001;stroke-linecap:butt;stroke-linejoin:bevel;stroke-miterlimit:4;stroke-dasharray:none;stroke-dashoffset:0;stroke-opacity:1;paint-order:normal"
       id="path2503-0"
       sodipodi:type="arc"
       sodipodi:cx="128.05846"
       sodipodi:cy="76.470657"
       sodipodi:rx="1.3229166"
       sodipodi:ry="1.3229166"
       sodipodi:start="0"
       sodipodi:end="6.2831679"
       sodipodi:open="true"
       d="m 129.38137,76.470657 a 1.3229166,1.3229166 0 0 1 -1.32291,1.322917 1.3229166,1.3229166 0 0 1 -1.32292,-1.322905 1.3229166,1.3229166 0 0 1 1.3229,-1.322928 1.3229166,1.3229166 0 0 1 1.32293,1.322893" />
    <path
       style="fill:none;stroke:#000000;stroke-width:0.264;stroke-linecap:butt;stroke-linejoin:miter;stroke-miterlimit:4;stroke-dasharray:0.79200002, 0.79200002;stroke-dashoffset:0;stroke-opacity:1"
       d="m 160.33744,76.735714 c 0,-36.777091 0,-36.777091 0,-36.777091"
       id="path2879-07"
       inkscape:connector-curvature="0" />
    <path
       style="opacity:1;fill:#ffffff;fill-opacity:1;fill-rule:evenodd;stroke:#000000;stroke-width:0.80000001;stroke-linecap:butt;stroke-linejoin:bevel;stroke-miterlimit:4;stroke-dasharray:none;stroke-dashoffset:0;stroke-opacity:1;paint-order:normal"
       id="path2503-6-9"
       sodipodi:type="arc"
       sodipodi:cx="160.33762"
       sodipodi:cy="76.47113"
       sodipodi:rx="1.3229166"
       sodipodi:ry="1.3229166"
       sodipodi:start="0"
       sodipodi:end="6.2831679"
       sodipodi:open="true"
       d="m 161.66053,76.47113 a 1.3229166,1.3229166 0 0 1 -1.32291,1.322917 1.3229166,1.3229166 0 0 1 -1.32292,-1.322905 1.3229166,1.3229166 0 0 1 1.3229,-1.322928 1.3229166,1.3229166 0 0 1 1.32293,1.322893" />
    <path
       style="fill:none;stroke:#000000;stroke-width:0.80000001;stroke-linecap:butt;stroke-linejoin:miter;stroke-miterlimit:4;stroke-dasharray:none;stroke-opacity:1"
       d="m 160.33741,40.354376 c 31.75,0 31.75,0 31.75,0"
       id="path2501-3"
       inkscape:connector-curvature="0" />
    <path
       style="opacity:1;fill:#000000;fill-opacity:1;fill-rule:evenodd;stroke:#000000;stroke-width:0.80000001;stroke-linecap:butt;stroke-linejoin:bevel;stroke-miterlimit:4;stroke-dasharray:none;stroke-dashoffset:0;stroke-opacity:1;paint-order:normal"
       id="path2503-9"
       sodipodi:type="arc"
       sodipodi:cx="160.33769"
       sodipodi:cy="40.353676"
       sodipodi:rx="1.3229166"
       sodipodi:ry="1.3229166"
       sodipodi:start="0"
       sodipodi:end="6.2831679"
       sodipodi:open="true"
       d="m 161.66061,40.353676 a 1.3229166,1.3229166 0 0 1 -1.32291,1.322916 1.3229166,1.3229166 0 0 1 -1.32292,-1.322905 1.3229166,1.3229166 0 0 1 1.32289,-1.322928 1.3229166,1.3229166 0 0 1 1.32294,1.322894" />
    <path
       style="opacity:1;fill:#ffffff;fill-opacity:1;fill-rule:evenodd;stroke:#000000;stroke-width:0.80000001;stroke-linecap:butt;stroke-linejoin:bevel;stroke-miterlimit:4;stroke-dasharray:none;stroke-dashoffset:0;stroke-opacity:1;paint-order:normal"
       id="path2503-6-0"
       sodipodi:type="arc"
       sodipodi:cx="192.61685"
       sodipodi:cy="40.354149"
       sodipodi:rx="1.3229166"
       sodipodi:ry="1.3229166"
       sodipodi:start="0"
       sodipodi:end="6.2831679"
       sodipodi:open="true"
       d="m 193.93977,40.354149 a 1.3229166,1.3229166 0 0 1 -1.32291,1.322916 1.3229166,1.3229166 0 0 1 -1.32292,-1.322905 1.3229166,1.3229166 0 0 1 1.32289,-1.322928 1.3229166,1.3229166 0 0 1 1.32294,1.322894" />
    <g
       title="$1$"
       style="fill:#000000"
       id="equation_03"
       transform="translate(-11.58268,132.20883)">
      <defs
         id="defs3021">
        <path
           d="m 2.929016,-6.37609 c 0,-0.239103 0,-0.259028 -0.229141,-0.259028 -0.617683,0.637609 -1.494396,0.637609 -1.8132,0.637609 v 0.308842 c 0.199253,0 0.787049,0 1.305106,-0.259029 v 5.160647 c 0,0.358655 -0.029888,0.478207 -0.926526,0.478207 H 0.946451 V 0 c 0.348692,-0.029888 1.215442,-0.029888 1.613948,-0.029888 0.398506,0 1.265255,0 1.613947,0.029888 V -0.308842 H 3.855542 c -0.896638,0 -0.926526,-0.109589 -0.926526,-0.478207 z"
           id="equation_03_00"
           inkscape:connector-curvature="0" />
      </defs>
      <g
         id="equation_03_g">
        <use
           id="use3023"
           xlink:href="#equation_03_00"
           y="62.764633"
           x="76.712326"
           width="100%"
           height="100%" />
      </g>
    </g>
    <g
       title="$2$"
       style="fill:#000000"
       id="equation_04"
       transform="translate(21.726869,132.42915)">
      <defs
         id="defs3087">
        <path
           d="m 1.265255,-0.767123 1.05604,-1.026152 c 1.554172,-1.374845 2.15193,-1.912827 2.15193,-2.909091 0,-1.135741 -0.896637,-1.932752 -2.112079,-1.932752 -1.125779,0 -1.863014,0.916563 -1.863014,1.803238 0,0.557907 0.498132,0.557907 0.52802,0.557907 0.169365,0 0.518057,-0.119551 0.518057,-0.52802 0,-0.259028 -0.179327,-0.518057 -0.52802,-0.518057 -0.079701,0 -0.099626,0 -0.129514,0.00996 0.229141,-0.647572 0.767123,-1.016189 1.344956,-1.016189 0.906601,0 1.334994,0.806973 1.334994,1.62391 0,0.797011 -0.498132,1.58406 -1.046077,2.201743 L 0.607721,-0.368618 C 0.498132,-0.259029 0.498132,-0.239103 0.498132,0 H 4.194271 L 4.473225,-1.733499 H 4.224159 c -0.049813,0.298879 -0.119551,0.737235 -0.219178,0.886675 -0.069738,0.079701 -0.727272,0.079701 -0.94645,0.079701 z"
           id="equation_04_00"
           inkscape:connector-curvature="0" />
      </defs>
      <g
         id="equation_04_g">
        <use
           id="use3089"
           xlink:href="#equation_04_00"
           y="62.764633"
           x="76.712326"
           width="100%"
           height="100%" />
      </g>
    </g>
    <g
       title="$3$"
       style="fill:#000000"
       id="equation_05"
       transform="translate(53.889926,132.34144)">
      <defs
         id="defs3158">
        <path
           d="m 2.889166,-3.506849 c 0.816936,-0.268992 1.394769,-0.966376 1.394769,-1.753425 0,-0.816936 -0.876712,-1.374844 -1.833126,-1.374844 -1.006226,0 -1.763387,0.597758 -1.763387,1.354919 0,0.328767 0.219178,0.518057 0.508095,0.518057 0.308842,0 0.508094,-0.219178 0.508094,-0.508095 0,-0.498132 -0.468244,-0.498132 -0.617683,-0.498132 0.308842,-0.488169 0.966376,-0.617683 1.325031,-0.617683 0.408468,0 0.956413,0.219178 0.956413,1.115815 0,0.119552 -0.019925,0.697385 -0.278954,1.135741 -0.298879,0.478207 -0.637609,0.508095 -0.886675,0.518058 -0.079701,0.00996 -0.318804,0.029888 -0.388543,0.029888 -0.079701,0.00996 -0.149439,0.019925 -0.149439,0.119551 0,0.109589 0.069738,0.109589 0.239103,0.109589 H 2.34122 c 0.816937,0 1.185555,0.67746 1.185555,1.653799 0,1.354919 -0.687423,1.643835 -1.125779,1.643835 -0.428393,0 -1.175591,-0.169365 -1.524284,-0.75716 0.348693,0.049813 0.657535,-0.169365 0.657535,-0.547946 0,-0.358655 -0.268992,-0.557908 -0.557908,-0.557908 -0.239104,0 -0.557908,0.139477 -0.557908,0.577834 0,0.9066 0.926525,1.564134 2.012453,1.564134 1.215442,0 2.122043,-0.9066 2.122043,-1.922789 0,-0.816937 -0.627647,-1.594023 -1.663761,-1.803238 z"
           id="equation_05_00"
           inkscape:connector-curvature="0" />
      </defs>
      <g
         id="equation_05_g">
        <use
           id="use3160"
           xlink:href="#equation_05_00"
           y="62.764633"
           x="76.712326"
           width="100%"
           height="100%" />
      </g>
    </g>
    <g
       title="$4$"
       style="fill:#000000"
       id="equation_06"
       transform="translate(85.879025,132.738)">
      <defs
         id="defs3234">
        <path
           d="m 2.929016,-1.643836 v 0.86675 c 0,0.358655 -0.019925,0.468244 -0.75716,0.468244 H 1.96264 V 0 c 0.408468,-0.029888 0.926526,-0.029888 1.344957,-0.029888 0.418431,0 0.94645,0 1.354919,0.029888 V -0.308842 H 4.4533 c -0.737235,0 -0.757161,-0.109589 -0.757161,-0.468244 v -0.86675 H 4.692403 V -1.952677 H 3.696139 v -4.533002 c 0,-0.199253 0,-0.259028 -0.159402,-0.259028 -0.089664,0 -0.119551,0 -0.199253,0.119551 l -3.05853,4.672479 v 0.308841 z M 2.988792,-1.952677 H 0.557908 l 2.430884,-3.716065 z"
           id="equation_06_00"
           inkscape:connector-curvature="0" />
      </defs>
      <g
         id="equation_06_g">
        <use
           id="use3236"
           xlink:href="#equation_06_00"
           y="62.764633"
           x="76.712326"
           width="100%"
           height="100%" />
      </g>
    </g>
    <g
       title="$1$"
       style="fill:#000000"
       id="equation_03-0"
       transform="translate(-53.39222,96.353763)">
      <defs
         id="defs3021-7">
        <path
           d="m 2.929016,-6.37609 c 0,-0.239103 0,-0.259028 -0.229141,-0.259028 -0.617683,0.637609 -1.494396,0.637609 -1.8132,0.637609 v 0.308842 c 0.199253,0 0.787049,0 1.305106,-0.259029 v 5.160647 c 0,0.358655 -0.029888,0.478207 -0.926526,0.478207 H 0.946451 V 0 c 0.348692,-0.029888 1.215442,-0.029888 1.613948,-0.029888 0.398506,0 1.265255,0 1.613947,0.029888 V -0.308842 H 3.855542 c -0.896638,0 -0.926526,-0.109589 -0.926526,-0.478207 z"
           id="path3354"
           inkscape:connector-curvature="0" />
      </defs>
      <g
         id="equation_03_g-6">
        <use
           id="use3023-2"
           xlink:href="#equation_03_00-3"
           y="62.764633"
           x="76.712326"
           width="100%"
           height="100%" />
      </g>
    </g>
    <g
       title="$2$"
       style="fill:#000000"
       id="equation_04-0"
       transform="translate(-53.943966,59.404155)">
      <defs
         id="defs3087-4">
        <path
           d="m 1.265255,-0.767123 1.05604,-1.026152 c 1.554172,-1.374845 2.15193,-1.912827 2.15193,-2.909091 0,-1.135741 -0.896637,-1.932752 -2.112079,-1.932752 -1.125779,0 -1.863014,0.916563 -1.863014,1.803238 0,0.557907 0.498132,0.557907 0.52802,0.557907 0.169365,0 0.518057,-0.119551 0.518057,-0.52802 0,-0.259028 -0.179327,-0.518057 -0.52802,-0.518057 -0.079701,0 -0.099626,0 -0.129514,0.00996 0.229141,-0.647572 0.767123,-1.016189 1.344956,-1.016189 0.906601,0 1.334994,0.806973 1.334994,1.62391 0,0.797011 -0.498132,1.58406 -1.046077,2.201743 L 0.607721,-0.368618 C 0.498132,-0.259029 0.498132,-0.239103 0.498132,0 H 4.194271 L 4.473225,-1.733499 H 4.224159 c -0.049813,0.298879 -0.119551,0.737235 -0.219178,0.886675 -0.069738,0.079701 -0.727272,0.079701 -0.94645,0.079701 z"
           id="path3383"
           inkscape:connector-curvature="0" />
      </defs>
      <g
         id="equation_04_g-8">
        <use
           id="use3089-8"
           xlink:href="#equation_04_00-3"
           y="62.764633"
           x="76.712326"
           width="100%"
           height="100%" />
      </g>
    </g>
    <g
       title="$3$"
       style="fill:#000000"
       id="equation_05-6"
       transform="translate(-54.060073,23.33311)">
      <defs
         id="defs3158-3">
        <path
           d="m 2.889166,-3.506849 c 0.816936,-0.268992 1.394769,-0.966376 1.394769,-1.753425 0,-0.816936 -0.876712,-1.374844 -1.833126,-1.374844 -1.006226,0 -1.763387,0.597758 -1.763387,1.354919 0,0.328767 0.219178,0.518057 0.508095,0.518057 0.308842,0 0.508094,-0.219178 0.508094,-0.508095 0,-0.498132 -0.468244,-0.498132 -0.617683,-0.498132 0.308842,-0.488169 0.966376,-0.617683 1.325031,-0.617683 0.408468,0 0.956413,0.219178 0.956413,1.115815 0,0.119552 -0.019925,0.697385 -0.278954,1.135741 -0.298879,0.478207 -0.637609,0.508095 -0.886675,0.518058 -0.079701,0.00996 -0.318804,0.029888 -0.388543,0.029888 -0.079701,0.00996 -0.149439,0.019925 -0.149439,0.119551 0,0.109589 0.069738,0.109589 0.239103,0.109589 H 2.34122 c 0.816937,0 1.185555,0.67746 1.185555,1.653799 0,1.354919 -0.687423,1.643835 -1.125779,1.643835 -0.428393,0 -1.175591,-0.169365 -1.524284,-0.75716 0.348693,0.049813 0.657535,-0.169365 0.657535,-0.547946 0,-0.358655 -0.268992,-0.557908 -0.557908,-0.557908 -0.239104,0 -0.557908,0.139477 -0.557908,0.577834 0,0.9066 0.926525,1.564134 2.012453,1.564134 1.215442,0 2.122043,-0.9066 2.122043,-1.922789 0,-0.816937 -0.627647,-1.594023 -1.663761,-1.803238 z"
           id="path3412"
           inkscape:connector-curvature="0" />
      </defs>
      <g
         id="equation_05_g-0">
        <use
           id="use3160-2"
           xlink:href="#equation_05_00-2"
           y="62.764633"
           x="76.712326"
           width="100%"
           height="100%" />
      </g>
    </g>
    <g
       title="$4$"
       style="fill:#000000"
       id="equation_06-1"
       transform="translate(-54.350139,-11.724491)">
      <defs
         id="defs3234-6">
        <path
           d="m 2.929016,-1.643836 v 0.86675 c 0,0.358655 -0.019925,0.468244 -0.75716,0.468244 H 1.96264 V 0 c 0.408468,-0.029888 0.926526,-0.029888 1.344957,-0.029888 0.418431,0 0.94645,0 1.354919,0.029888 V -0.308842 H 4.4533 c -0.737235,0 -0.757161,-0.109589 -0.757161,-0.468244 v -0.86675 H 4.692403 V -1.952677 H 3.696139 v -4.533002 c 0,-0.199253 0,-0.259028 -0.159402,-0.259028 -0.089664,0 -0.119551,0 -0.199253,0.119551 l -3.05853,4.672479 v 0.308841 z M 2.988792,-1.952677 H 0.557908 l 2.430884,-3.716065 z"
           id="path3441"
           inkscape:connector-curvature="0" />
      </defs>
      <g
         id="equation_06_g-9">
        <use
           id="use3236-0"
           xlink:href="#equation_06_00-0"
           y="62.764633"
           x="76.712326"
           width="100%"
           height="100%" />
      </g>
    </g>
    <g
       title="$y=[x]$"
       style="fill:#000000"
       id="equation_07"
       transform="translate(70.291886,-50.513941)">
      <defs
         id="defs3542">
        <path
           d="m 6.844334,-3.257783 c 0.149439,0 0.33873,0 0.33873,-0.199253 0,-0.199253 -0.189291,-0.199253 -0.328768,-0.199253 H 0.886675 c -0.139477,0 -0.328767,0 -0.328767,0.199253 0,0.199253 0.18929,0.199253 0.33873,0.199253 z m 0.00996,1.932752 c 0.139477,0 0.328768,0 0.328768,-0.199253 0,-0.199253 -0.189291,-0.199253 -0.33873,-0.199253 H 0.896638 c -0.14944,0 -0.33873,0 -0.33873,0.199253 0,0.199253 0.18929,0.199253 0.328767,0.199253 z"
           id="equation_07_00"
           inkscape:connector-curvature="0" />
        <path
           d="M 2.540473,2.49066 V 2.092154 H 1.574097 V -7.073474 H 2.540473 V -7.47198 H 1.175592 v 9.96264 z"
           id="equation_07_01"
           inkscape:connector-curvature="0" />
        <path
           d="M 1.58406,-7.47198 H 0.219178 v 0.398506 H 1.185554 V 2.092154 H 0.219178 V 2.49066 H 1.58406 Z"
           id="equation_07_02"
           inkscape:connector-curvature="0" />
        <path
           d="m 3.327522,-3.008717 c 0.059776,-0.259029 0.288916,-1.175592 0.986301,-1.175592 0.049813,0 0.288917,0 0.498132,0.129514 -0.278954,0.049814 -0.478207,0.29888 -0.478207,0.537983 0,0.159402 0.109589,0.348692 0.378581,0.348692 0.219178,0 0.537982,-0.179327 0.537982,-0.577833 0,-0.518057 -0.587795,-0.657534 -0.926525,-0.657534 -0.577833,0 -0.926526,0.52802 -1.046077,0.757161 -0.249066,-0.657535 -0.787049,-0.757161 -1.075966,-0.757161 -1.036114,0 -1.603985,1.285181 -1.603985,1.534247 0,0.099626 0.099627,0.099626 0.119552,0.099626 0.079701,0 0.109589,-0.019925 0.129514,-0.109589 0.33873,-1.05604 0.996264,-1.305106 1.334994,-1.305106 0.18929,0 0.537983,0.089664 0.537983,0.667497 0,0.308842 -0.169365,0.976339 -0.537983,2.371108 -0.159402,0.617684 -0.508094,1.036115 -0.946451,1.036115 -0.059775,0 -0.288916,0 -0.498132,-0.129514 0.249066,-0.049814 0.468244,-0.259029 0.468244,-0.537983 0,-0.268991 -0.219178,-0.348692 -0.368617,-0.348692 -0.298879,0 -0.547945,0.259028 -0.547945,0.577833 0,0.458281 0.498132,0.657534 0.936488,0.657534 0.657534,0 1.016189,-0.697385 1.046077,-0.757161 0.119552,0.368618 0.478207,0.757161 1.075965,0.757161 1.026152,0 1.594022,-1.285181 1.594022,-1.534247 0,-0.099626 -0.089663,-0.099626 -0.119551,-0.099626 -0.089664,0 -0.109589,0.039851 -0.129515,0.109589 -0.328767,1.066003 -1.006226,1.305106 -1.325031,1.305106 -0.388543,0 -0.547945,-0.318805 -0.547945,-0.657534 0,-0.219178 0.059776,-0.438356 0.169365,-0.876713 z"
           id="equation_07_03"
           inkscape:connector-curvature="0" />
        <path
           d="m 4.841843,-3.795766 c 0.039851,-0.139477 0.039851,-0.159402 0.039851,-0.229141 0,-0.179327 -0.139477,-0.268991 -0.288917,-0.268991 -0.099626,0 -0.259029,0.059776 -0.348692,0.209216 -0.019926,0.049813 -0.099627,0.358655 -0.139477,0.537982 -0.069739,0.259029 -0.139477,0.52802 -0.199253,0.797011 l -0.448319,1.793276 c -0.03985,0.149439 -0.468244,0.846824 -1.125778,0.846824 -0.508095,0 -0.617684,-0.438356 -0.617684,-0.806974 0,-0.458281 0.169365,-1.075965 0.508095,-1.952677 0.159402,-0.408469 0.199253,-0.518058 0.199253,-0.71731 0,-0.448319 -0.318805,-0.816937 -0.816937,-0.816937 -0.946451,0 -1.315068,1.444583 -1.315068,1.534247 0,0.099626 0.099626,0.099626 0.119551,0.099626 0.099627,0 0.109589,-0.019925 0.159402,-0.179327 0.268992,-0.936489 0.667497,-1.235368 1.006227,-1.235368 0.079701,0 0.249066,0 0.249066,0.318805 0,0.249066 -0.099626,0.508094 -0.169365,0.697384 -0.398505,1.05604 -0.577833,1.623911 -0.577833,2.092155 0,0.886675 0.627646,1.185554 1.215442,1.185554 0.388543,0 0.727273,-0.169365 1.006227,-0.448319 C 3.16812,0.179328 3.048568,0.667497 2.650062,1.195517 2.391034,1.534247 2.012453,1.823163 1.554172,1.823163 c -0.139477,0 -0.587796,-0.029888 -0.757161,-0.418431 0.159402,0 0.288917,0 0.428394,-0.119551 C 1.325031,1.195517 1.424658,1.066002 1.424658,0.876712 1.424658,0.56787 1.155666,0.52802 1.05604,0.52802 c -0.229141,0 -0.557908,0.159402 -0.557908,0.647572 0,0.498132 0.438356,0.866749 1.05604,0.866749 1.026152,0 2.052304,-0.9066 2.331258,-2.032378 z"
           id="equation_07_04"
           inkscape:connector-curvature="0" />
      </defs>
      <g
         id="equation_07_g">
        <use
           id="use3544"
           xlink:href="#equation_07_04"
           y="62.764633"
           x="76.712326"
           width="100%"
           height="100%" />
        <use
           id="use3546"
           xlink:href="#equation_07_00"
           y="62.764633"
           x="84.721603"
           width="100%"
           height="100%" />
        <use
           id="use3548"
           xlink:href="#equation_07_01"
           y="62.764633"
           x="95.237686"
           width="100%"
           height="100%" />
        <use
           id="use3550"
           xlink:href="#equation_07_03"
           y="62.764633"
           x="98.005096"
           width="100%"
           height="100%" />
        <use
           id="use3552"
           xlink:href="#equation_07_02"
           y="62.764633"
           x="103.69903"
           width="100%"
           height="100%" />
      </g>
    </g>
  </g>
</svg>
