<?xml version="1.0" encoding="UTF-8" standalone="no"?>
<svg
   xmlns:dc="http://purl.org/dc/elements/1.1/"
   xmlns:cc="http://creativecommons.org/ns#"
   xmlns:rdf="http://www.w3.org/1999/02/22-rdf-syntax-ns#"
   xmlns:svg="http://www.w3.org/2000/svg"
   xmlns="http://www.w3.org/2000/svg"
   xmlns:xlink="http://www.w3.org/1999/xlink"
   xmlns:sodipodi="http://sodipodi.sourceforge.net/DTD/sodipodi-0.dtd"
   xmlns:inkscape="http://www.inkscape.org/namespaces/inkscape"
   sodipodi:docname="三乗根関数.svg"
   inkscape:version="1.0.1 (3bc2e813f5, 2020-09-07)"
   width="210mm"
   height="297mm"
   viewBox="0 0 210 297"
   version="1.1"
   id="svg2783">
  <defs
     id="defs2777">
    <marker
       inkscape:isstock="true"
       style="overflow:visible;"
       id="marker1293"
       refX="0.0"
       refY="0.0"
       orient="auto"
       inkscape:stockid="Arrow2Lend">
      <path
         transform="scale(1.1) rotate(180) translate(1,0)"
         d="M 8.7185878,4.0337352 L -2.2072895,0.016013256 L 8.7185884,-4.0017078 C 6.9730900,-1.6296469 6.9831476,1.6157441 8.7185878,4.0337352 z "
         style="fill-rule:evenodd;stroke-width:0.625;stroke-linejoin:round;stroke:#000000;stroke-opacity:1;fill:#000000;fill-opacity:1"
         id="path1291" />
    </marker>
    <marker
       inkscape:stockid="Arrow2Lend"
       orient="auto"
       refY="0.0"
       refX="0.0"
       id="Arrow2Lend"
       style="overflow:visible;"
       inkscape:isstock="true"
       inkscape:collect="always">
      <path
         id="path864"
         style="fill-rule:evenodd;stroke-width:0.625;stroke-linejoin:round;stroke:#000000;stroke-opacity:1;fill:#000000;fill-opacity:1"
         d="M 8.7185878,4.0337352 L -2.2072895,0.016013256 L 8.7185884,-4.0017078 C 6.9730900,-1.6296469 6.9831476,1.6157441 8.7185878,4.0337352 z "
         transform="scale(1.1) rotate(180) translate(1,0)" />
    </marker>
    <marker
       inkscape:isstock="true"
       style="overflow:visible;"
       id="marker3358"
       refX="0.0"
       refY="0.0"
       orient="auto"
       inkscape:stockid="Arrow2Mend">
      <path
         transform="scale(0.6) rotate(180) translate(0,0)"
         d="M 8.7185878,4.0337352 L -2.2072895,0.016013256 L 8.7185884,-4.0017078 C 6.9730900,-1.6296469 6.9831476,1.6157441 8.7185878,4.0337352 z "
         style="fill-rule:evenodd;stroke-width:0.625;stroke-linejoin:round;stroke:#000000;stroke-opacity:1;fill:#000000;fill-opacity:1"
         id="path3356" />
    </marker>
    <g
       id="g2501">
      <symbol
         overflow="visible"
         id="symbol6815">
        <path
           style="stroke:none;"
           d=""
           id="path9090" />
      </symbol>
      <symbol
         overflow="visible"
         id="symbol6027">
        <path
           style="stroke:none;"
           d="M 1.640625 -1.65625 C 2.109375 -1.65625 2.40625 -1.359375 2.40625 -0.875 C 2.40625 -0.359375 2.09375 -0.09375 1.65625 -0.09375 C 1.59375 -0.09375 1 -0.09375 0.75 -0.359375 C 0.953125 -0.390625 1.015625 -0.53125 1.015625 -0.65625 C 1.015625 -0.84375 0.875 -0.96875 0.703125 -0.96875 C 0.546875 -0.96875 0.40625 -0.859375 0.40625 -0.640625 C 0.40625 -0.125 0.984375 0.109375 1.671875 0.109375 C 2.484375 0.109375 2.984375 -0.390625 2.984375 -0.875 C 2.984375 -1.28125 2.625 -1.625 2.0625 -1.75 C 2.65625 -1.953125 2.8125 -2.328125 2.8125 -2.609375 C 2.8125 -3.015625 2.3125 -3.3125 1.6875 -3.3125 C 1.0625 -3.3125 0.578125 -3.0625 0.578125 -2.609375 C 0.578125 -2.375 0.765625 -2.3125 0.859375 -2.3125 C 1 -2.3125 1.140625 -2.421875 1.140625 -2.609375 C 1.140625 -2.71875 1.078125 -2.859375 0.90625 -2.890625 C 1.109375 -3.109375 1.5625 -3.125 1.671875 -3.125 C 2.03125 -3.125 2.28125 -2.953125 2.28125 -2.609375 C 2.28125 -2.3125 2.09375 -1.859375 1.578125 -1.828125 C 1.4375 -1.828125 1.421875 -1.828125 1.28125 -1.8125 C 1.234375 -1.8125 1.171875 -1.8125 1.171875 -1.734375 C 1.171875 -1.65625 1.21875 -1.65625 1.3125 -1.65625 Z M 1.640625 -1.65625 "
           id="path5195" />
      </symbol>
      <symbol
         overflow="visible"
         id="symbol3120">
        <path
           style="stroke:none;"
           d=""
           id="path5172" />
      </symbol>
      <symbol
         overflow="visible"
         id="symbol9475">
        <path
           style="stroke:none;"
           d="M 3.875 8.515625 L 2.125 4.640625 C 2.046875 4.484375 2 4.484375 1.96875 4.484375 C 1.96875 4.484375 1.90625 4.484375 1.796875 4.5625 L 0.859375 5.28125 C 0.734375 5.390625 0.734375 5.40625 0.734375 5.4375 C 0.734375 5.5 0.75 5.546875 0.828125 5.546875 C 0.890625 5.546875 1.0625 5.40625 1.171875 5.328125 C 1.21875 5.28125 1.375 5.171875 1.484375 5.09375 L 3.453125 9.40625 C 3.515625 9.5625 3.5625 9.5625 3.65625 9.5625 C 3.8125 9.5625 3.84375 9.515625 3.90625 9.375 L 8.4375 0 C 8.5 -0.140625 8.5 -0.171875 8.5 -0.203125 C 8.5 -0.296875 8.421875 -0.40625 8.296875 -0.40625 C 8.21875 -0.40625 8.15625 -0.34375 8.078125 -0.1875 Z M 3.875 8.515625 "
           id="path1225" />
      </symbol>
      <symbol
         overflow="visible"
         id="symbol6108">
        <path
           style="stroke:none;"
           d="M 6.5625 -2.296875 C 6.734375 -2.296875 6.921875 -2.296875 6.921875 -2.5 C 6.921875 -2.6875 6.734375 -2.6875 6.5625 -2.6875 L 1.171875 -2.6875 C 1 -2.6875 0.828125 -2.6875 0.828125 -2.5 C 0.828125 -2.296875 1 -2.296875 1.171875 -2.296875 Z M 6.5625 -2.296875 "
           id="path4735" />
      </symbol>
      <symbol
         overflow="visible"
         id="symbol1254">
        <path
           style="stroke:none;"
           d=""
           id="path8598" />
      </symbol>
      <symbol
         overflow="visible"
         id="symbol7365">
        <path
           style="stroke:none;"
           d="M 3.328125 -3.015625 C 3.390625 -3.265625 3.625 -4.1875 4.3125 -4.1875 C 4.359375 -4.1875 4.609375 -4.1875 4.8125 -4.0625 C 4.53125 -4 4.34375 -3.765625 4.34375 -3.515625 C 4.34375 -3.359375 4.453125 -3.171875 4.71875 -3.171875 C 4.9375 -3.171875 5.25 -3.34375 5.25 -3.75 C 5.25 -4.265625 4.671875 -4.40625 4.328125 -4.40625 C 3.75 -4.40625 3.40625 -3.875 3.28125 -3.65625 C 3.03125 -4.3125 2.5 -4.40625 2.203125 -4.40625 C 1.171875 -4.40625 0.59375 -3.125 0.59375 -2.875 C 0.59375 -2.765625 0.703125 -2.765625 0.71875 -2.765625 C 0.796875 -2.765625 0.828125 -2.796875 0.84375 -2.875 C 1.1875 -3.9375 1.84375 -4.1875 2.1875 -4.1875 C 2.375 -4.1875 2.71875 -4.09375 2.71875 -3.515625 C 2.71875 -3.203125 2.546875 -2.546875 2.1875 -1.140625 C 2.03125 -0.53125 1.671875 -0.109375 1.234375 -0.109375 C 1.171875 -0.109375 0.953125 -0.109375 0.734375 -0.234375 C 0.984375 -0.296875 1.203125 -0.5 1.203125 -0.78125 C 1.203125 -1.046875 0.984375 -1.125 0.84375 -1.125 C 0.53125 -1.125 0.296875 -0.875 0.296875 -0.546875 C 0.296875 -0.09375 0.78125 0.109375 1.21875 0.109375 C 1.890625 0.109375 2.25 -0.59375 2.265625 -0.640625 C 2.390625 -0.28125 2.75 0.109375 3.34375 0.109375 C 4.375 0.109375 4.9375 -1.171875 4.9375 -1.421875 C 4.9375 -1.53125 4.859375 -1.53125 4.828125 -1.53125 C 4.734375 -1.53125 4.71875 -1.484375 4.6875 -1.421875 C 4.359375 -0.34375 3.6875 -0.109375 3.375 -0.109375 C 2.984375 -0.109375 2.828125 -0.421875 2.828125 -0.765625 C 2.828125 -0.984375 2.875 -1.203125 2.984375 -1.640625 Z M 3.328125 -3.015625 "
           id="path9143" />
      </symbol>
      <symbol
         overflow="visible"
         id="symbol206">
        <path
           style="stroke:none;"
           d=""
           id="path2338" />
      </symbol>
      <symbol
         overflow="visible"
         id="symbol553">
        <path
           style="stroke:none;"
           d="M 2.9375 -6.375 C 2.9375 -6.625 2.9375 -6.640625 2.703125 -6.640625 C 2.078125 -6 1.203125 -6 0.890625 -6 L 0.890625 -5.6875 C 1.09375 -5.6875 1.671875 -5.6875 2.1875 -5.953125 L 2.1875 -0.78125 C 2.1875 -0.421875 2.15625 -0.3125 1.265625 -0.3125 L 0.953125 -0.3125 L 0.953125 0 C 1.296875 -0.03125 2.15625 -0.03125 2.5625 -0.03125 C 2.953125 -0.03125 3.828125 -0.03125 4.171875 0 L 4.171875 -0.3125 L 3.859375 -0.3125 C 2.953125 -0.3125 2.9375 -0.421875 2.9375 -0.78125 Z M 2.9375 -6.375 "
           id="path4506" />
      </symbol>
      <symbol
         overflow="visible"
         id="symbol9299">
        <path
           style="stroke:none;"
           d="M 4.078125 -2.296875 L 6.859375 -2.296875 C 7 -2.296875 7.1875 -2.296875 7.1875 -2.5 C 7.1875 -2.6875 7 -2.6875 6.859375 -2.6875 L 4.078125 -2.6875 L 4.078125 -5.484375 C 4.078125 -5.625 4.078125 -5.8125 3.875 -5.8125 C 3.671875 -5.8125 3.671875 -5.625 3.671875 -5.484375 L 3.671875 -2.6875 L 0.890625 -2.6875 C 0.75 -2.6875 0.5625 -2.6875 0.5625 -2.5 C 0.5625 -2.296875 0.75 -2.296875 0.890625 -2.296875 L 3.671875 -2.296875 L 3.671875 0.5 C 3.671875 0.640625 3.671875 0.828125 3.875 0.828125 C 4.078125 0.828125 4.078125 0.640625 4.078125 0.5 Z M 4.078125 -2.296875 "
           id="path4434" />
      </symbol>
    </g>
    <g
       id="g1524">
      <symbol
         overflow="visible"
         id="symbol8747">
        <path
           style="stroke:none;"
           d=""
           id="path4935" />
      </symbol>
      <symbol
         overflow="visible"
         id="symbol9088">
        <path
           style="stroke:none;"
           d="M 4.84375 -3.796875 C 4.890625 -3.9375 4.890625 -3.953125 4.890625 -4.03125 C 4.890625 -4.203125 4.75 -4.296875 4.59375 -4.296875 C 4.5 -4.296875 4.34375 -4.234375 4.25 -4.09375 C 4.234375 -4.03125 4.140625 -3.734375 4.109375 -3.546875 C 4.03125 -3.296875 3.96875 -3.015625 3.90625 -2.75 L 3.453125 -0.953125 C 3.421875 -0.8125 2.984375 -0.109375 2.328125 -0.109375 C 1.828125 -0.109375 1.71875 -0.546875 1.71875 -0.921875 C 1.71875 -1.375 1.890625 -2 2.21875 -2.875 C 2.375 -3.28125 2.421875 -3.390625 2.421875 -3.59375 C 2.421875 -4.03125 2.109375 -4.40625 1.609375 -4.40625 C 0.65625 -4.40625 0.296875 -2.953125 0.296875 -2.875 C 0.296875 -2.765625 0.390625 -2.765625 0.40625 -2.765625 C 0.515625 -2.765625 0.515625 -2.796875 0.5625 -2.953125 C 0.84375 -3.890625 1.234375 -4.1875 1.578125 -4.1875 C 1.65625 -4.1875 1.828125 -4.1875 1.828125 -3.875 C 1.828125 -3.625 1.71875 -3.359375 1.65625 -3.171875 C 1.25 -2.109375 1.078125 -1.546875 1.078125 -1.078125 C 1.078125 -0.1875 1.703125 0.109375 2.296875 0.109375 C 2.6875 0.109375 3.015625 -0.0625 3.296875 -0.34375 C 3.171875 0.171875 3.046875 0.671875 2.65625 1.203125 C 2.390625 1.53125 2.015625 1.828125 1.5625 1.828125 C 1.421875 1.828125 0.96875 1.796875 0.796875 1.40625 C 0.953125 1.40625 1.09375 1.40625 1.21875 1.28125 C 1.328125 1.203125 1.421875 1.0625 1.421875 0.875 C 1.421875 0.5625 1.15625 0.53125 1.0625 0.53125 C 0.828125 0.53125 0.5 0.6875 0.5 1.171875 C 0.5 1.671875 0.9375 2.046875 1.5625 2.046875 C 2.578125 2.046875 3.609375 1.140625 3.890625 0.015625 Z M 4.84375 -3.796875 "
           id="path2794" />
      </symbol>
      <symbol
         overflow="visible"
         id="symbol787">
        <path
           style="stroke:none;"
           d="M 3.328125 -3.015625 C 3.390625 -3.265625 3.625 -4.1875 4.3125 -4.1875 C 4.359375 -4.1875 4.609375 -4.1875 4.8125 -4.0625 C 4.53125 -4 4.34375 -3.765625 4.34375 -3.515625 C 4.34375 -3.359375 4.453125 -3.171875 4.71875 -3.171875 C 4.9375 -3.171875 5.25 -3.34375 5.25 -3.75 C 5.25 -4.265625 4.671875 -4.40625 4.328125 -4.40625 C 3.75 -4.40625 3.40625 -3.875 3.28125 -3.65625 C 3.03125 -4.3125 2.5 -4.40625 2.203125 -4.40625 C 1.171875 -4.40625 0.59375 -3.125 0.59375 -2.875 C 0.59375 -2.765625 0.703125 -2.765625 0.71875 -2.765625 C 0.796875 -2.765625 0.828125 -2.796875 0.84375 -2.875 C 1.1875 -3.9375 1.84375 -4.1875 2.1875 -4.1875 C 2.375 -4.1875 2.71875 -4.09375 2.71875 -3.515625 C 2.71875 -3.203125 2.546875 -2.546875 2.1875 -1.140625 C 2.03125 -0.53125 1.671875 -0.109375 1.234375 -0.109375 C 1.171875 -0.109375 0.953125 -0.109375 0.734375 -0.234375 C 0.984375 -0.296875 1.203125 -0.5 1.203125 -0.78125 C 1.203125 -1.046875 0.984375 -1.125 0.84375 -1.125 C 0.53125 -1.125 0.296875 -0.875 0.296875 -0.546875 C 0.296875 -0.09375 0.78125 0.109375 1.21875 0.109375 C 1.890625 0.109375 2.25 -0.59375 2.265625 -0.640625 C 2.390625 -0.28125 2.75 0.109375 3.34375 0.109375 C 4.375 0.109375 4.9375 -1.171875 4.9375 -1.421875 C 4.9375 -1.53125 4.859375 -1.53125 4.828125 -1.53125 C 4.734375 -1.53125 4.71875 -1.484375 4.6875 -1.421875 C 4.359375 -0.34375 3.6875 -0.109375 3.375 -0.109375 C 2.984375 -0.109375 2.828125 -0.421875 2.828125 -0.765625 C 2.828125 -0.984375 2.875 -1.203125 2.984375 -1.640625 Z M 3.328125 -3.015625 "
           id="path5679" />
      </symbol>
      <symbol
         overflow="visible"
         id="symbol5127">
        <path
           style="stroke:none;"
           d=""
           id="path8391" />
      </symbol>
      <symbol
         overflow="visible"
         id="symbol1290">
        <path
           style="stroke:none;"
           d="M 6.84375 -3.265625 C 7 -3.265625 7.1875 -3.265625 7.1875 -3.453125 C 7.1875 -3.65625 7 -3.65625 6.859375 -3.65625 L 0.890625 -3.65625 C 0.75 -3.65625 0.5625 -3.65625 0.5625 -3.453125 C 0.5625 -3.265625 0.75 -3.265625 0.890625 -3.265625 Z M 6.859375 -1.328125 C 7 -1.328125 7.1875 -1.328125 7.1875 -1.53125 C 7.1875 -1.71875 7 -1.71875 6.84375 -1.71875 L 0.890625 -1.71875 C 0.75 -1.71875 0.5625 -1.71875 0.5625 -1.53125 C 0.5625 -1.328125 0.75 -1.328125 0.890625 -1.328125 Z M 6.859375 -1.328125 "
           id="path3920" />
      </symbol>
      <symbol
         overflow="visible"
         id="symbol339">
        <path
           style="stroke:none;"
           d="M 2.9375 -6.375 C 2.9375 -6.625 2.9375 -6.640625 2.703125 -6.640625 C 2.078125 -6 1.203125 -6 0.890625 -6 L 0.890625 -5.6875 C 1.09375 -5.6875 1.671875 -5.6875 2.1875 -5.953125 L 2.1875 -0.78125 C 2.1875 -0.421875 2.15625 -0.3125 1.265625 -0.3125 L 0.953125 -0.3125 L 0.953125 0 C 1.296875 -0.03125 2.15625 -0.03125 2.5625 -0.03125 C 2.953125 -0.03125 3.828125 -0.03125 4.171875 0 L 4.171875 -0.3125 L 3.859375 -0.3125 C 2.953125 -0.3125 2.9375 -0.421875 2.9375 -0.78125 Z M 2.9375 -6.375 "
           id="path6107" />
      </symbol>
      <symbol
         overflow="visible"
         id="symbol3098">
        <path
           style="stroke:none;"
           d="M 4.078125 -2.296875 L 6.859375 -2.296875 C 7 -2.296875 7.1875 -2.296875 7.1875 -2.5 C 7.1875 -2.6875 7 -2.6875 6.859375 -2.6875 L 4.078125 -2.6875 L 4.078125 -5.484375 C 4.078125 -5.625 4.078125 -5.8125 3.875 -5.8125 C 3.671875 -5.8125 3.671875 -5.625 3.671875 -5.484375 L 3.671875 -2.6875 L 0.890625 -2.6875 C 0.75 -2.6875 0.5625 -2.6875 0.5625 -2.5 C 0.5625 -2.296875 0.75 -2.296875 0.890625 -2.296875 L 3.671875 -2.296875 L 3.671875 0.5 C 3.671875 0.640625 3.671875 0.828125 3.875 0.828125 C 4.078125 0.828125 4.078125 0.640625 4.078125 0.5 Z M 4.078125 -2.296875 "
           id="path8079" />
      </symbol>
      <symbol
         overflow="visible"
         id="symbol4632">
        <path
           style="stroke:none;"
           d=""
           id="path6924" />
      </symbol>
      <symbol
         overflow="visible"
         id="symbol5873">
        <path
           style="stroke:none;"
           d="M 1.640625 -1.65625 C 2.109375 -1.65625 2.40625 -1.359375 2.40625 -0.875 C 2.40625 -0.359375 2.09375 -0.09375 1.65625 -0.09375 C 1.59375 -0.09375 1 -0.09375 0.75 -0.359375 C 0.953125 -0.390625 1.015625 -0.53125 1.015625 -0.65625 C 1.015625 -0.84375 0.875 -0.96875 0.703125 -0.96875 C 0.546875 -0.96875 0.40625 -0.859375 0.40625 -0.640625 C 0.40625 -0.125 0.984375 0.109375 1.671875 0.109375 C 2.484375 0.109375 2.984375 -0.390625 2.984375 -0.875 C 2.984375 -1.28125 2.625 -1.625 2.0625 -1.75 C 2.65625 -1.953125 2.8125 -2.328125 2.8125 -2.609375 C 2.8125 -3.015625 2.3125 -3.3125 1.6875 -3.3125 C 1.0625 -3.3125 0.578125 -3.0625 0.578125 -2.609375 C 0.578125 -2.375 0.765625 -2.3125 0.859375 -2.3125 C 1 -2.3125 1.140625 -2.421875 1.140625 -2.609375 C 1.140625 -2.71875 1.078125 -2.859375 0.90625 -2.890625 C 1.109375 -3.109375 1.5625 -3.125 1.671875 -3.125 C 2.03125 -3.125 2.28125 -2.953125 2.28125 -2.609375 C 2.28125 -2.3125 2.09375 -1.859375 1.578125 -1.828125 C 1.4375 -1.828125 1.421875 -1.828125 1.28125 -1.8125 C 1.234375 -1.8125 1.171875 -1.8125 1.171875 -1.734375 C 1.171875 -1.65625 1.21875 -1.65625 1.3125 -1.65625 Z M 1.640625 -1.65625 "
           id="path4373" />
      </symbol>
      <symbol
         overflow="visible"
         id="symbol2234">
        <path
           style="stroke:none;"
           d=""
           id="path7651" />
      </symbol>
      <symbol
         overflow="visible"
         id="symbol8757">
        <path
           style="stroke:none;"
           d="M 3.875 8.515625 L 2.125 4.640625 C 2.046875 4.484375 2 4.484375 1.96875 4.484375 C 1.96875 4.484375 1.90625 4.484375 1.796875 4.5625 L 0.859375 5.28125 C 0.734375 5.390625 0.734375 5.40625 0.734375 5.4375 C 0.734375 5.5 0.75 5.546875 0.828125 5.546875 C 0.890625 5.546875 1.0625 5.40625 1.171875 5.328125 C 1.21875 5.28125 1.375 5.171875 1.484375 5.09375 L 3.453125 9.40625 C 3.515625 9.5625 3.5625 9.5625 3.65625 9.5625 C 3.8125 9.5625 3.84375 9.515625 3.90625 9.375 L 8.4375 0 C 8.5 -0.140625 8.5 -0.171875 8.5 -0.203125 C 8.5 -0.296875 8.421875 -0.40625 8.296875 -0.40625 C 8.21875 -0.40625 8.15625 -0.34375 8.078125 -0.1875 Z M 3.875 8.515625 "
           id="path9155" />
      </symbol>
      <symbol
         overflow="visible"
         id="symbol38">
        <path
           style="stroke:none;"
           d="M 6.5625 -2.296875 C 6.734375 -2.296875 6.921875 -2.296875 6.921875 -2.5 C 6.921875 -2.6875 6.734375 -2.6875 6.5625 -2.6875 L 1.171875 -2.6875 C 1 -2.6875 0.828125 -2.6875 0.828125 -2.5 C 0.828125 -2.296875 1 -2.296875 1.171875 -2.296875 Z M 6.5625 -2.296875 "
           id="path887" />
      </symbol>
    </g>
  </defs>
  <sodipodi:namedview
     id="base"
     pagecolor="#ffffff"
     bordercolor="#666666"
     borderopacity="1.0"
     inkscape:pageopacity="0.0"
     inkscape:pageshadow="2"
     inkscape:zoom="0.53182881"
     inkscape:cx="-170.61256"
     inkscape:cy="404.29606"
     inkscape:document-units="mm"
     inkscape:current-layer="layer1"
     showgrid="true"
     inkscape:window-width="1296"
     inkscape:window-height="890"
     inkscape:window-x="-6"
     inkscape:window-y="-6"
     inkscape:window-maximized="1"
     inkscape:document-rotation="0">
    <inkscape:grid
       type="xygrid"
       id="grid3328" />
  </sodipodi:namedview>
  <metadata
     id="metadata2780">
    <rdf:RDF>
      <cc:Work
         rdf:about="">
        <dc:format>image/svg+xml</dc:format>
        <dc:type
           rdf:resource="http://purl.org/dc/dcmitype/StillImage" />
        <dc:title />
      </cc:Work>
    </rdf:RDF>
  </metadata>
  <g
     inkscape:label="レイヤー 1"
     inkscape:groupmode="layer"
     id="layer1">
    <rect
       style="opacity:1;fill:none;fill-opacity:1;stroke:#000000;stroke-width:0;stroke-linecap:butt;stroke-linejoin:round;stroke-miterlimit:4;stroke-dasharray:none;stroke-dashoffset:0;stroke-opacity:1;paint-order:normal"
       id="rect3330"
       width="206.375"
       height="216.95834"
       x="2.6458333"
       y="0.66665828"
       inkscape:export-xdpi="300.10001"
       inkscape:export-ydpi="300.10001" />
    <path
       style="fill:none;stroke:#000000;stroke-width:0.40000001;stroke-linecap:butt;stroke-linejoin:miter;stroke-miterlimit:4;stroke-dasharray:none;stroke-opacity:1;marker-end:url(#marker1293)"
       d="m 2.6458333,115.49542 c 203.7291667,0 203.7291667,0 203.7291667,0"
       id="path3332"
       inkscape:connector-curvature="0" />
    <path
       style="fill:none;stroke:#000000;stroke-width:0.40000001;stroke-linecap:butt;stroke-linejoin:miter;stroke-miterlimit:4;stroke-dasharray:none;stroke-opacity:1;marker-end:url(#Arrow2Lend)"
       d="m 103.71671,217.625 c 0,-214.3125001 0,-214.3125001 0,-214.3125001"
       id="path3334"
       inkscape:connector-curvature="0" />
    <g
       title="\large$y$"
       style="fill:#000000"
       id="equation_00"
       transform="translate(16.189283,-53.453906)">
      <defs
         id="defs3396">
        <path
           d="M 3.144209,1.338979 C 2.82142,1.793275 2.355168,2.199751 1.769365,2.199751 c -0.143462,0 -0.71731,-0.02391 -0.896638,-0.573848 0.035866,0.011955 0.095642,0.011955 0.119552,0.011955 0.358655,0 0.597758,-0.310834 0.597758,-0.585803 0,-0.274969 -0.227148,-0.37061 -0.406475,-0.37061 -0.191283,0 -0.609714,0.143462 -0.609714,0.729265 0,0.609713 0.514072,1.028144 1.195517,1.028144 1.195517,0 2.402989,-1.099875 2.737733,-2.426899 L 5.678705,-4.65056 C 5.69066,-4.710336 5.71457,-4.782067 5.71457,-4.853798 c 0,-0.179328 -0.143462,-0.298879 -0.322789,-0.298879 -0.107597,0 -0.358655,0.04782 -0.454297,0.406475 l -0.884682,3.51482 c -0.059776,0.215193 -0.059776,0.239103 -0.155417,0.37061 -0.239104,0.334745 -0.633624,0.74122 -1.207472,0.74122 -0.66949,0 -0.729265,-0.657534 -0.729265,-0.980323 0,-0.681445 0.322789,-1.601993 0.645579,-2.462765 0.131506,-0.3467 0.203238,-0.514072 0.203238,-0.753176 0,-0.502117 -0.358656,-0.956413 -0.944459,-0.956413 -1.099875,0 -1.542216,1.733499 -1.542216,1.829141 0,0.04782 0.04782,0.107596 0.131506,0.107596 0.107597,0 0.119552,-0.047821 0.167373,-0.215193 0.286924,-1.004234 0.74122,-1.482441 1.207472,-1.482441 0.107596,0 0.310834,0 0.310834,0.394521 0,0.310834 -0.131507,0.657534 -0.310834,1.11183 -0.585804,1.566127 -0.585804,1.960648 -0.585804,2.247572 0,1.135741 0.812952,1.398755 1.41071,1.398755 0.3467,0 0.777086,-0.107597 1.195517,-0.549938 l 0.011955,0.011955 C 3.682192,0.286924 3.56264,0.753176 3.144209,1.338979 Z"
           id="equation_00_00"
           inkscape:connector-curvature="0" />
      </defs>
      <g
         id="equation_00_g">
        <use
           id="use3398"
           xlink:href="#equation_00_00"
           y="62.764633"
           x="76.712326"
           width="100%"
           height="100%" />
      </g>
    </g>
    <g
       title="\large$x$"
       style="fill:#000000"
       id="equation_01"
       transform="translate(124.35791,128.49157)">
      <defs
         id="defs3445">
        <path
           d="m 5.66675,-4.877709 c -0.382566,0.071731 -0.526028,0.358655 -0.526028,0.585804 0,0.286924 0.227148,0.382565 0.394521,0.382565 0.358655,0 0.609713,-0.310834 0.609713,-0.633624 0,-0.502117 -0.573848,-0.729265 -1.075965,-0.729265 -0.729265,0 -1.135741,0.71731 -1.243337,0.944458 -0.274969,-0.896637 -1.016189,-0.944458 -1.231383,-0.944458 -1.219427,0 -1.865006,1.566127 -1.865006,1.829141 0,0.04782 0.047821,0.107596 0.131507,0.107596 0.095641,0 0.119552,-0.071731 0.143462,-0.119552 0.406476,-1.327023 1.207472,-1.578082 1.554172,-1.578082 0.537983,0 0.645579,0.502117 0.645579,0.789041 0,0.263014 -0.071731,0.537983 -0.215193,1.111831 l -0.406476,1.637858 c -0.179327,0.71731 -0.526027,1.374844 -1.159651,1.374844 -0.059776,0 -0.358655,0 -0.609714,-0.155417 0.430386,-0.083686 0.526028,-0.442341 0.526028,-0.585803 0,-0.239103 -0.179328,-0.382565 -0.406476,-0.382565 -0.286924,0 -0.597758,0.251058 -0.597758,0.633623 0,0.502117 0.561893,0.729266 1.075965,0.729266 0.573848,0 0.980324,-0.454297 1.231382,-0.944459 0.191283,0.705355 0.789041,0.944459 1.231382,0.944459 1.219428,0 1.865007,-1.566127 1.865007,-1.829141 0,-0.059776 -0.047821,-0.107597 -0.119552,-0.107597 -0.107596,0 -0.119552,0.059776 -0.155417,0.155418 -0.32279,1.052054 -1.016189,1.542216 -1.554172,1.542216 -0.418431,0 -0.645579,-0.310834 -0.645579,-0.800996 0,-0.263014 0.047821,-0.454296 0.239103,-1.243337 l 0.418431,-1.625903 c 0.179328,-0.71731 0.585803,-1.243338 1.135741,-1.243338 0.02391,0 0.358655,0 0.609714,0.155417 z"
           id="equation_01_00"
           inkscape:connector-curvature="0" />
      </defs>
      <g
         id="equation_01_g">
        <use
           id="use3447"
           xlink:href="#equation_01_00"
           y="62.764633"
           x="76.712326"
           width="100%"
           height="100%"
           transform="translate(0,-65.087535)" />
      </g>
    </g>
    <g
       title="\large$O$"
       style="fill:#000000"
       id="equation_02"
       transform="translate(13.840085,66.307236)">
      <defs
         id="defs3564">
        <path
           d="m 8.679452,-5.236364 c 0,-1.972602 -1.291158,-3.180074 -2.964882,-3.180074 -2.558406,0 -5.140722,2.749688 -5.140722,5.511332 0,1.876962 1.243338,3.156165 2.976837,3.156165 2.510585,0 5.128767,-2.618182 5.128767,-5.487423 z M 3.622416,-0.02391 c -0.980324,0 -2.020423,-0.71731 -2.020423,-2.582317 0,-1.08792 0.39452,-2.86924 1.374844,-4.064757 0.872727,-1.052055 1.876961,-1.482441 2.677958,-1.482441 1.052054,0 2.068244,0.765131 2.068244,2.486675 0,1.06401 -0.454297,2.725779 -1.255293,3.86152 -0.872727,1.219427 -1.960648,1.78132 -2.84533,1.78132 z"
           id="equation_02_00"
           inkscape:connector-curvature="0" />
      </defs>
      <g
         id="equation_02_g">
        <use
           id="use3566"
           xlink:href="#equation_02_00"
           y="62.764633"
           x="76.712326"
           width="100%"
           height="100%" />
      </g>
    </g>
    <path
       id="path1701"
       title="pow(x,3)"
       d="m 212.4034,25.702229 c 0.0784,0.0689 -0.83962,0.13772 -0.76146,0.20658 0.0781,0.0689 -0.83518,0.13772 -0.75724,0.20658 0.0779,0.0689 -0.83075,0.13773 -0.75303,0.20659 0.0777,0.0689 -0.82632,0.13772 -0.74882,0.20658 0.0775,0.0689 -0.82192,0.13772 -0.74464,0.20658 0.0773,0.0689 -0.81752,0.13772 -0.74046,0.20658 0.0771,0.0689 -0.81314,0.13772 -0.73629,0.20658 0.0769,0.0689 -0.80877,0.13772 -0.73214,0.20658 0.0766,0.0689 -0.80441,0.13773 -0.72799,0.20659 0.0764,0.0689 -0.80007,0.13772 -0.72387,0.20658 0.0762,0.0689 -0.79573,0.13772 -0.71975,0.20658 0.076,0.0689 -0.7914,0.13772 -0.71564,0.20658 0.0758,0.0689 -0.78709,0.13772 -0.71154,0.20658 0.0755,0.0689 -0.78279,0.13772 -0.70747,0.20658 0.0753,0.0689 -0.77849,0.13772 -0.70339,0.20659 0.0751,0.0689 -0.77422,0.13772 -0.69933,0.20658 0.0749,0.0689 -0.76995,0.13772 -0.69528,0.20658 0.0747,0.0689 -0.7657,0.13772 -0.69124,0.20658 0.0745,0.0689 -0.76146,0.13772 -0.68722,0.20658 0.0742,0.0689 -0.75723,0.13772 -0.68321,0.20658 0.074,0.0689 -0.75301,0.13772 -0.67921,0.20658 0.0738,0.0689 -0.7488,0.13773 -0.67521,0.20659 0.0736,0.0689 -0.74461,0.13772 -0.67124,0.20658 0.0734,0.0689 -0.74043,0.13772 -0.66728,0.20658 0.0731,0.0689 -0.73625,0.13772 -0.66332,0.20658 0.0729,0.0689 -0.73209,0.13772 -0.65937,0.20658 0.0727,0.0689 -0.72795,0.13772 -0.65545,0.20658 0.0725,0.0689 -0.72381,0.13773 -0.65153,0.20659 0.0723,0.0689 -0.71968,0.13772 -0.64762,0.20658 0.0721,0.0689 -0.71557,0.13772 -0.64372,0.20658 0.0718,0.0689 -0.71147,0.13772 -0.63984,0.20658 0.0716,0.0689 -0.70738,0.13772 -0.63597,0.20658 0.0714,0.0689 -0.7033,0.13772 -0.63211,0.20658 0.0712,0.0689 -0.69924,0.13772 -0.62826,0.20659 0.071,0.0689 -0.69518,0.13772 -0.62442,0.20658 0.0708,0.0689 -0.69114,0.13772 -0.6206,0.20658 0.0705,0.0689 -0.68711,0.13772 -0.61679,0.20658 0.0703,0.0689 -0.68309,0.13772 -0.61298,0.20658 0.0701,0.0689 -0.67908,0.13772 -0.60919,0.20658 0.0699,0.0689 -0.67509,0.13772 -0.60542,0.20658 0.0697,0.0689 -0.67111,0.13773 -0.60165,0.20659 0.0695,0.0689 -0.66713,0.13772 -0.59789,0.20658 0.0692,0.0689 -0.66318,0.13772 -0.59416,0.20658 0.069,0.0689 -0.65922,0.13772 -0.59042,0.20658 0.0688,0.0689 -0.65529,0.13772 -0.5867,0.20658 0.0686,0.0689 -0.65137,0.13772 -0.583,0.20658 0.0684,0.0689 -0.64745,0.13773 -0.5793,0.20659 0.0681,0.0689 -0.64355,0.13772 -0.57561,0.20658 0.0679,0.0689 -0.63967,0.13772 -0.57195,0.20658 0.0677,0.0689 -0.63578,0.13772 -0.56828,0.20658 0.0675,0.0689 -0.63192,0.13772 -0.56463,0.20658 0.0673,0.0689 -0.62807,0.13772 -0.561,0.20658 0.0671,0.0689 -0.62422,0.13772 -0.55737,0.20659 0.0668,0.0689 -0.62039,0.13772 -0.55376,0.20658 0.0666,0.0689 -0.61657,0.13772 -0.55016,0.20658 0.0664,0.0689 -0.61276,0.13772 -0.54657,0.20658 0.0662,0.0689 -0.60897,0.13772 -0.54299,0.20658 0.066,0.0689 -0.60518,0.13772 -0.53942,0.20658 0.0658,0.0689 -0.60141,0.13772 -0.53587,0.20658 0.0655,0.0689 -0.59765,0.13773 -0.53232,0.20659 0.0653,0.0689 -0.59391,0.13772 -0.5288,0.20658 0.0651,0.0689 -0.59016,0.13772 -0.52527,0.20658 0.0649,0.0689 -0.58644,0.13772 -0.52177,0.20658 0.0647,0.0689 -0.58273,0.13772 -0.51827,0.20658 0.0645,0.0689 -0.57903,0.13772 -0.51479,0.20658 0.0642,0.0689 -0.57533,0.13773 -0.51131,0.20659 0.064,0.0689 -0.57166,0.13772 -0.50786,0.20658 0.0638,0.0689 -0.56799,0.13772 -0.5044,0.20658 0.0636,0.0689 -0.56434,0.13772 -0.50097,0.20658 0.0634,0.0689 -0.56069,0.13772 -0.49754,0.20658 0.0632,0.0689 -0.55706,0.13772 -0.49413,0.20658 0.0629,0.0689 -0.55344,0.13772 -0.49073,0.20659 0.0627,0.0689 -0.54983,0.13772 -0.48733,0.20658 0.0625,0.0689 -0.54624,0.13772 -0.48396,0.20658 0.0623,0.0689 -0.54266,0.13772 -0.48059,0.20658 0.0621,0.0689 -0.53909,0.13772 -0.47724,0.20658 0.0618,0.0689 -0.53552,0.13772 -0.47389,0.20658 0.0616,0.0689 -0.53198,0.13772 -0.47057,0.20659 0.0614,0.0689 -0.52843,0.13772 -0.46724,0.20658 0.0612,0.0689 -0.52491,0.13772 -0.46393,0.20658 0.061,0.0689 -0.5214,0.13772 -0.46064,0.20658 0.0608,0.0689 -0.5179,0.13772 -0.45735,0.20658 0.0605,0.0689 -0.51441,0.13772 -0.45409,0.20658 0.0603,0.0689 -0.51093,0.13772 -0.45082,0.20658 0.0601,0.0689 -0.50746,0.13773 -0.44757,0.20659 0.0599,0.0689 -0.50401,0.13772 -0.44433,0.20658 0.0597,0.0689 -0.50057,0.13772 -0.44111,0.20658 0.0595,0.0689 -0.49713,0.13772 -0.43789,0.20658 0.0592,0.0689 -0.49372,0.13772 -0.4347,0.20658 0.059,0.0689 -0.4903,0.13772 -0.4315,0.20658 0.0588,0.0689 -0.48691,0.13773 -0.42832,0.20659 0.0586,0.0689 -0.48353,0.13772 -0.42516,0.20658 0.0584,0.0689 -0.48015,0.13772 -0.422,0.20658 0.0582,0.0689 -0.47679,0.13772 -0.41886,0.20658 0.0579,0.0689 -0.47344,0.13772 -0.41572,0.20658 0.0577,0.0689 -0.47011,0.13772 -0.41261,0.20658 0.0575,0.0689 -0.46678,0.13772 -0.4095,0.20659 0.0573,0.0689 -0.46347,0.13772 -0.4064,0.20658 0.0571,0.0689 -0.46017,0.13772 -0.40332,0.20658 0.0568,0.0689 -0.45687,0.13772 -0.40024,0.20658 0.0566,0.0689 -0.4536,0.13772 -0.39719,0.20658 0.0564,0.0689 -0.45032,0.13772 -0.39413,0.20658 0.0562,0.0689 -0.44707,0.13772 -0.3911,0.20658 0.056,0.0689 -0.44383,0.13773 -0.38807,0.20659 0.0558,0.0689 -0.4406,0.13772 -0.38505,0.20658 0.0555,0.0689 -0.43738,0.13772 -0.38206,0.20658 0.0553,0.0689 -0.43417,0.13772 -0.37906,0.20658 0.0551,0.0689 -0.43097,0.13772 -0.37608,0.20658 0.0549,0.0689 -0.42779,0.13772 -0.37312,0.20658 0.0547,0.0689 -0.42462,0.13773 -0.37016,0.20659 0.0545,0.0689 -0.42146,0.13772 -0.36722,0.20658 0.0542,0.0689 -0.41831,0.13772 -0.36429,0.20658 0.054,0.0689 -0.41517,0.13772 -0.36136,0.20658 0.0538,0.0689 -0.41205,0.13772 -0.35846,0.20658 0.0536,0.0689 -0.40893,0.13772 -0.35556,0.20658 0.0534,0.0689 -0.40583,0.13772 -0.35268,0.20659 0.0531,0.0689 -0.40274,0.13772 -0.3498,0.20658 0.0529,0.0689 -0.39966,0.13772 -0.34694,0.20658 0.0527,0.0689 -0.3966,0.13772 -0.3441,0.20658 0.0525,0.0689 -0.39353,0.13772 -0.34125,0.20658 0.0523,0.0689 -0.39049,0.13772 -0.33843,0.20658 0.0521,0.0689 -0.38746,0.13772 -0.33561,0.20658 0.0519,0.0689 -0.38445,0.13773 -0.33281,0.20659 0.0516,0.0689 -0.38144,0.13772 -0.33003,0.20658 0.0514,0.0689 -0.37843,0.13772 -0.32724,0.20658 0.0512,0.0689 -0.37545,0.13772 -0.32447,0.20658 0.051,0.0689 -0.37248,0.13772 -0.32172,0.20658 0.0508,0.0689 -0.36952,0.13772 -0.31897,0.20658 0.0505,0.0689 -0.36657,0.13773 -0.31625,0.20659 0.0503,0.0689 -0.36363,0.13772 -0.31352,0.20658 0.0501,0.0689 -0.3607,0.13772 -0.31081,0.20658 0.0499,0.0689 -0.35779,0.13772 -0.30812,0.20658 0.0497,0.0689 -0.35489,0.13772 -0.30543,0.20658 0.0495,0.0689 -0.352,0.13772 -0.30276,0.20658 0.0492,0.0689 -0.34912,0.13772 -0.3001,0.20659 0.049,0.0689 -0.34625,0.13772 -0.29744,0.20658 0.0488,0.0689 -0.3434,0.13772 -0.29481,0.20658 0.0486,0.0689 -0.34055,0.13772 -0.29218,0.20658 0.0484,0.0689 -0.33772,0.13772 -0.28957,0.20658 0.0482,0.0689 -0.3349,0.13772 -0.28697,0.20658 0.0479,0.0689 -0.33209,0.13772 -0.28437,0.20658 0.0477,0.0689 -0.3293,0.13773 -0.28179,0.20659 0.0475,0.0689 -0.32651,0.13772 -0.27923,0.20658 0.0473,0.0689 -0.32374,0.13772 -0.27667,0.20658 0.0471,0.0689 -0.32098,0.13772 -0.27413,0.20658 0.0469,0.0689 -0.31823,0.13772 -0.27159,0.20658 0.0466,0.0689 -0.31549,0.13772 -0.26908,0.20658 0.0464,0.0689 -0.31276,0.13773 -0.26656,0.20659 0.0462,0.0689 -0.31005,0.13772 -0.26407,0.20658 0.046,0.0689 -0.30735,0.13772 -0.26159,0.20658 0.0458,0.0689 -0.30465,0.13772 -0.2591,0.20658 0.0455,0.0689 -0.30198,0.13772 -0.25665,0.20658 0.0453,0.0689 -0.29931,0.13772 -0.2542,0.20658 0.0451,0.0689 -0.29665,0.13772 -0.25176,0.20659 0.0449,0.0689 -0.29401,0.13772 -0.24933,0.20658 0.0447,0.0689 -0.29138,0.13772 -0.24692,0.20658 0.0445,0.0689 -0.28875,0.13772 -0.24451,0.20658 0.0442,0.0689 -0.28615,0.13772 -0.24213,0.20658 0.044,0.0689 -0.28355,0.13772 -0.23974,0.20658 0.0438,0.0689 -0.28096,0.13772 -0.23738,0.20658 0.0436,0.0689 -0.27839,0.13773 -0.23502,0.20659 0.0434,0.0689 -0.27582,0.13772 -0.23267,0.20658 0.0431,0.0689 -0.27328,0.13772 -0.23035,0.20658 0.0429,0.0689 -0.27073,0.13772 -0.22802,0.20658 0.0427,0.0689 -0.26821,0.13772 -0.22571,0.20658 0.0425,0.0689 -0.2657,0.13772 -0.22342,0.20658 0.0423,0.0689 -0.26318,0.13773 -0.22112,0.20659 0.0421,0.0689 -0.2607,0.13772 -0.21885,0.20658 0.0418,0.0689 -0.25823,0.13772 -0.2166,0.20658 0.0416,0.0689 -0.25575,0.13772 -0.21434,0.20658 0.0414,0.0689 -0.2533,0.13772 -0.21211,0.20658 0.0412,0.0689 -0.25085,0.13772 -0.20988,0.20658 0.041,0.0689 -0.24842,0.13772 -0.20766,0.20659 0.0408,0.0689 -0.246,0.13772 -0.20546,0.20658 0.0405,0.0689 -0.24359,0.13772 -0.20327,0.20658 0.0403,0.0689 -0.2412,0.13772 -0.20109,0.20658 0.0401,0.0689 -0.23881,0.13772 -0.19892,0.20658 0.0399,0.0689 -0.23644,0.13772 -0.19676,0.20658 0.0397,0.0689 -0.23408,0.13772 -0.19462,0.20658 0.0395,0.0689 -0.23173,0.13773 -0.19249,0.20659 0.0392,0.0689 -0.22939,0.13772 -0.19037,0.20658 0.039,0.0689 -0.22706,0.13772 -0.18825,0.20658 0.0388,0.0689 -0.22475,0.13772 -0.18616,0.20658 0.0386,0.0689 -0.22245,0.13772 -0.18408,0.20658 0.0384,0.0689 -0.22015,0.13772 -0.18199,0.20658 0.0382,0.0689 -0.21788,0.13773 -0.17994,0.20659 0.0379,0.0689 -0.21561,0.13772 -0.17789,0.20658 0.0377,0.0689 -0.21335,0.13772 -0.17585,0.20658 0.0375,0.0689 -0.2111,0.13772 -0.17382,0.20658 0.0373,0.0689 -0.20887,0.13772 -0.1718,0.20658 0.0371,0.0689 -0.20665,0.13772 -0.1698,0.20658 0.0369,0.0689 -0.20445,0.13772 -0.16781,0.20659 0.0366,0.0689 -0.20225,0.13772 -0.16584,0.20658 0.0364,0.0689 -0.20005,0.13772 -0.16386,0.20658 0.0362,0.0689 -0.19788,0.13772 -0.1619,0.20658 0.036,0.0689 -0.19572,0.13772 -0.15996,0.20658 0.0358,0.0689 -0.19357,0.13772 -0.15803,0.20658 0.0355,0.0689 -0.19143,0.13772 -0.1561,0.20658 0.0353,0.0689 -0.18931,0.13773 -0.1542,0.20659 0.0351,0.0689 -0.18719,0.13772 -0.1523,0.20658 0.0349,0.0689 -0.18509,0.13772 -0.15041,0.20658 0.0347,0.0689 -0.183,0.13772 -0.14854,0.20658 0.0344,0.0689 -0.18092,0.13772 -0.14668,0.20658 0.0342,0.0689 -0.17885,0.13772 -0.14482,0.20658 0.034,0.0689 -0.17679,0.13773 -0.14299,0.20659 0.0338,0.0689 -0.17475,0.13772 -0.14116,0.20658 0.0336,0.0689 -0.17271,0.13772 -0.13934,0.20658 0.0334,0.0689 -0.17069,0.13772 -0.13754,0.20658 0.0331,0.0689 -0.16868,0.13772 -0.13575,0.20658 0.0329,0.0689 -0.16668,0.13772 -0.13397,0.20658 0.0327,0.0689 -0.1647,0.13772 -0.1322,0.20659 0.0325,0.0689 -0.16272,0.13772 -0.13044,0.20658 0.0323,0.0689 -0.16076,0.13772 -0.1287,0.20658 0.0321,0.0689 -0.15881,0.13772 -0.12696,0.20658 0.0318,0.0689 -0.15687,0.13772 -0.12524,0.20658 0.0316,0.0689 -0.15495,0.13772 -0.12353,0.20658 0.0314,0.0689 -0.15303,0.13772 -0.12184,0.20658 0.0312,0.0689 -0.15112,0.13773 -0.12015,0.20659 0.031,0.0689 -0.14923,0.13772 -0.11847,0.20658 0.0308,0.0689 -0.14735,0.13772 -0.11681,0.20658 0.0305,0.0689 -0.14549,0.13772 -0.11516,0.20658 0.0303,0.0689 -0.14363,0.13772 -0.11352,0.20658 0.0301,0.0689 -0.14179,0.13772 -0.1119,0.20658 0.0299,0.0689 -0.13995,0.13773 -0.11027,0.20659 0.0297,0.0689 -0.13813,0.13772 -0.10868,0.20658 0.0295,0.0689 -0.13632,0.13772 -0.10708,0.20658 0.0292,0.0689 -0.13452,0.13772 -0.1055,0.20658 0.029,0.0689 -0.13273,0.13772 -0.10393,0.20658 0.0288,0.0689 -0.13096,0.13772 -0.10237,0.20658 0.0286,0.0689 -0.1292,0.13772 -0.10083,0.20659 0.0284,0.0689 -0.12745,0.13772 -0.0993,0.20658 0.0281,0.0689 -0.12571,0.13772 -0.0978,0.20658 0.0279,0.0689 -0.12399,0.13772 -0.0963,0.20658 0.0277,0.0689 -0.12227,0.13772 -0.0948,0.20658 0.0275,0.0689 -0.12056,0.13772 -0.0933,0.20658 0.0273,0.0689 -0.11887,0.13772 -0.0918,0.20658 0.0271,0.0689 -0.11719,0.13773 -0.0903,0.20659 0.0268,0.0689 -0.11552,0.13772 -0.0889,0.20658 0.0266,0.0689 -0.11387,0.13772 -0.0875,0.20658 0.0264,0.0689 -0.11222,0.13772 -0.086,0.20658 0.0262,0.0689 -0.11058,0.13772 -0.0846,0.20658 0.026,0.0689 -0.10897,0.13772 -0.0832,0.20658 0.0258,0.0689 -0.10735,0.13773 -0.0818,0.20659 0.0255,0.0689 -0.10576,0.13772 -0.0804,0.20658 0.0253,0.0689 -0.10417,0.13772 -0.0791,0.20658 0.0251,0.0689 -0.1026,0.13772 -0.0777,0.20658 0.0249,0.0689 -0.10104,0.13772 -0.0764,0.20658 0.0247,0.0689 -0.0995,0.13772 -0.075,0.20658 0.0245,0.0689 -0.0979,0.13772 -0.0737,0.20659 0.0242,0.0689 -0.0964,0.13772 -0.0724,0.20658 0.024,0.0689 -0.0949,0.13772 -0.0711,0.20658 0.0238,0.0689 -0.0934,0.13772 -0.0698,0.20658 0.0236,0.0689 -0.0919,0.13772 -0.0685,0.20658 0.0234,0.0689 -0.0904,0.13772 -0.0673,0.20658 0.0232,0.0689 -0.089,0.13772 -0.066,0.20658 0.0229,0.0689 -0.0875,0.13773 -0.0648,0.20659 0.0227,0.0689 -0.0861,0.13772 -0.0635,0.20658 0.0225,0.0689 -0.0846,0.13772 -0.0623,0.20658 0.0223,0.0689 -0.0832,0.13772 -0.0611,0.20658 0.0221,0.0689 -0.0818,0.13772 -0.0599,0.20658 0.0219,0.0689 -0.0804,0.13772 -0.0588,0.20658 0.0216,0.0689 -0.079,0.13773 -0.0576,0.20659 0.0214,0.0689 -0.0776,0.13772 -0.0564,0.20658 0.0212,0.0689 -0.0763,0.13772 -0.0553,0.20658 0.021,0.0689 -0.0749,0.13772 -0.0542,0.20658 0.0208,0.0689 -0.0736,0.13772 -0.053,0.20658 0.0206,0.0689 -0.0722,0.13772 -0.0519,0.20658 0.0203,0.0689 -0.0709,0.13772 -0.0508,0.20659 0.0201,0.0689 -0.0696,0.13772 -0.0497,0.20658 0.0199,0.0689 -0.0683,0.13772 -0.0487,0.20658 0.0197,0.0689 -0.067,0.13772 -0.0476,0.20658 0.0195,0.0689 -0.0658,0.13772 -0.0465,0.20658 0.0192,0.0689 -0.0645,0.13773 -0.0455,0.20659 0.019,0.0689 -0.0633,0.13772 -0.0445,0.20658 0.0188,0.0689 -0.062,0.13773 -0.0435,0.20659 0.0186,0.0689 -0.0608,0.13771 -0.0425,0.20657 0.0184,0.0689 -0.0596,0.13772 -0.0414,0.20658 0.0181,0.0689 -0.0584,0.13772 -0.0405,0.20658 0.0179,0.0689 -0.0572,0.13772 -0.0395,0.20658 0.0177,0.0689 -0.0561,0.13772 -0.0386,0.20658 0.0175,0.0689 -0.0549,0.13774 -0.0376,0.2066 0.0173,0.0689 -0.0537,0.13772 -0.0367,0.20658 0.0171,0.0689 -0.0526,0.13772 -0.0357,0.20657 0.0169,0.0689 -0.0515,0.13772 -0.0348,0.20658 0.0166,0.0689 -0.0503,0.13772 -0.0339,0.20658 0.0164,0.0689 -0.0493,0.13772 -0.0331,0.20658 0.0162,0.0689 -0.0481,0.13773 -0.0322,0.20659 0.016,0.0689 -0.0471,0.13772 -0.0313,0.20658 0.0158,0.0689 -0.046,0.13772 -0.0305,0.20658 0.0155,0.0689 -0.0449,0.13772 -0.0296,0.20658 0.0153,0.0689 -0.0439,0.13772 -0.0288,0.20658 0.0151,0.0689 -0.0429,0.13772 -0.028,0.20658 0.0149,0.0689 -0.0418,0.13772 -0.0272,0.20659 0.0147,0.0689 -0.0408,0.13772 -0.0264,0.20658 0.0144,0.0689 -0.0398,0.13772 -0.0256,0.20658 0.0142,0.0689 -0.0388,0.13772 -0.0248,0.20658 0.014,0.0689 -0.0379,0.13772 -0.0241,0.20658 0.0138,0.0689 -0.0369,0.13772 -0.0233,0.20658 0.0136,0.0689 -0.0359,0.13773 -0.0226,0.20659 0.0134,0.0689 -0.035,0.13773 -0.0219,0.20659 0.0132,0.0689 -0.0341,0.13772 -0.0211,0.20657 0.0129,0.0689 -0.0332,0.13772 -0.0204,0.20658 0.0127,0.0689 -0.0323,0.13772 -0.0198,0.20658 0.0125,0.0689 -0.0314,0.13772 -0.0191,0.20658 0.0123,0.0689 -0.0305,0.13772 -0.0184,0.20658 0.0121,0.0689 -0.0296,0.13773 -0.0178,0.2066 0.0119,0.0689 -0.0288,0.13772 -0.0171,0.20658 0.0116,0.0689 -0.0279,0.13772 -0.0165,0.20658 0.0114,0.0689 -0.0271,0.13771 -0.0159,0.20657 0.0112,0.0689 -0.0263,0.13772 -0.0153,0.20658 0.011,0.0689 -0.0255,0.13772 -0.0147,0.20658 0.0108,0.0689 -0.0247,0.13772 -0.0141,0.20659 0.0105,0.0689 -0.0239,0.13772 -0.0135,0.20658 0.0103,0.0689 -0.0231,0.13772 -0.013,0.20658 0.0101,0.0689 -0.0223,0.13772 -0.0124,0.20658 0.01,0.0689 -0.0216,0.13772 -0.0119,0.20658 0.01,0.0689 -0.0208,0.13772 -0.0114,0.20658 0.009,0.0689 -0.0201,0.13772 -0.0109,0.20658 0.009,0.0689 -0.0194,0.13773 -0.0104,0.20659 0.009,0.0689 -0.0187,0.13772 -0.01,0.20658 0.009,0.0689 -0.018,0.13772 -0.009,0.20658 0.009,0.0689 -0.0173,0.13772 -0.009,0.20658 0.008,0.0689 -0.0166,0.13772 -0.008,0.20658 0.008,0.0689 -0.016,0.13772 -0.008,0.20658 0.008,0.0689 -0.0153,0.13773 -0.008,0.20659 0.008,0.0689 -0.0147,0.13772 -0.007,0.20658 0.008,0.0689 -0.0141,0.13771 -0.007,0.20657 0.007,0.0689 -0.0135,0.13772 -0.006,0.20658 0.007,0.0689 -0.0129,0.13772 -0.006,0.20658 0.007,0.0689 -0.0123,0.13772 -0.006,0.20658 0.007,0.0689 -0.0117,0.13772 -0.005,0.20659 0.006,0.0689 -0.0111,0.13772 -0.005,0.20658 0.006,0.0689 -0.0106,0.13772 -0.005,0.20658 0.006,0.0689 -0.01,0.13772 -0.004,0.20658 0.006,0.0689 -0.01,0.13771 -0.004,0.20657 0.006,0.0689 -0.009,0.13772 -0.004,0.20658 0.005,0.0689 -0.008,0.13773 -0.003,0.20659 0.005,0.0689 -0.008,0.13772 -0.003,0.20658 0.005,0.0689 -0.008,0.13772 -0.003,0.20658 0.005,0.0689 -0.007,0.13772 -0.003,0.20658 0.004,0.0689 -0.007,0.13772 -0.002,0.20658 0.004,0.0689 -0.006,0.13772 -0.002,0.20657 0.004,0.0689 -0.006,0.13773 -0.002,0.20659 0.004,0.0689 -0.005,0.13772 -0.002,0.20658 0.004,0.0689 -0.005,0.13772 -10e-4,0.20658 0.003,0.0689 -0.004,0.13772 -0.001,0.20658 0.003,0.0689 -0.004,0.13772 -0.001,0.20658 0.003,0.0689 -0.004,0.13772 -9.9e-4,0.20658 0.003,0.0689 -0.003,0.13772 -8.5e-4,0.20659 0.002,0.0689 -0.003,0.13772 -7.1e-4,0.20658 0.002,0.0689 -0.003,0.13772 -5.9e-4,0.20658 0.002,0.0689 -0.002,0.13772 -4.7e-4,0.20657 0.002,0.0689 -0.002,0.13772 -3.8e-4,0.20658 0.002,0.0689 -0.002,0.13772 -2.9e-4,0.20658 0.001,0.0689 -0.001,0.13772 -2.1e-4,0.20658 10e-4,0.0689 -0.001,0.13773 -1.5e-4,0.20659 9.8e-4,0.0689 -8.5e-4,0.13772 -9e-5,0.20658 7.6e-4,0.0689 -6e-4,0.13772 -6e-5,0.20658 5.5e-4,0.0689 -3.5e-4,0.13772 -2e-5,0.20658 3.3e-4,0.0689 -1.1e-4,0.137711 -1e-5,0.206571 1.1e-4,0.0689 1.1e-4,0.13772 0,0.20658 -1.1e-4,0.0689 3.2e-4,0.13773 0,0.20659 -3.3e-4,0.0689 5.2e-4,0.13772 -3e-5,0.20658 -5.4e-4,0.0689 7.1e-4,0.13772 -5e-5,0.20658 -7.6e-4,0.0689 8.8e-4,0.13772 -9e-5,0.20658 -9.8e-4,0.0689 0.001,0.13772 -1.5e-4,0.20658 -10e-4,0.0689 0.001,0.13772 -2.1e-4,0.20658 -0.001,0.0689 0.001,0.13772 -2.9e-4,0.20659 -0.002,0.0689 0.001,0.13772 -3.8e-4,0.20658 -0.002,0.0689 0.002,0.13772 -4.8e-4,0.20658 -0.002,0.0689 0.002,0.13772 -5.8e-4,0.20658 -0.002,0.0689 0.002,0.13772 -7.1e-4,0.20658 -0.002,0.0689 0.002,0.13772 -8.5e-4,0.20658 -0.003,0.0689 0.002,0.13772 -9.9e-4,0.20658 -0.003,0.0689 0.002,0.13773 -0.001,0.20659 -0.003,0.0689 0.002,0.13772 -0.001,0.20658 -0.003,0.0689 0.002,0.13772 -10e-4,0.20658 -0.004,0.0689 0.002,0.13772 -0.002,0.20658 -0.004,0.0689 0.002,0.13772 -0.002,0.20658 -0.004,0.0689 0.002,0.13772 -0.002,0.20658 -0.004,0.0689 0.002,0.13773 -0.002,0.20659 -0.004,0.0689 0.002,0.13772 -0.003,0.20658 -0.005,0.0689 0.002,0.13772 -0.003,0.20658 -0.005,0.0689 0.002,0.13772 -0.003,0.20658 -0.005,0.0689 0.002,0.13772 -0.003,0.20658 -0.005,0.0689 0.002,0.13772 -0.004,0.20658 -0.006,0.0689 0.002,0.13772 -0.004,0.20659 -0.006,0.0689 0.002,0.13772 -0.004,0.20658 -0.006,0.0689 0.002,0.13772 -0.005,0.20658 -0.006,0.0689 0.001,0.13772 -0.005,0.20658 -0.006,0.0689 10e-4,0.13772 -0.005,0.20658 -0.007,0.0689 0.001,0.13772 -0.006,0.20658 -0.007,0.0689 0.001,0.13772 -0.006,0.20658 -0.007,0.0689 8.9e-4,0.13773 -0.006,0.20659 -0.007,0.0689 7.1e-4,0.13772 -0.007,0.20658 -0.008,0.0689 5.2e-4,0.13772 -0.007,0.20658 -0.008,0.0689 3.2e-4,0.13772 -0.008,0.20658 -0.008,0.0689 1.1e-4,0.13772 -0.008,0.20658 -0.008,0.0689 -1.1e-4,0.13772 -0.008,0.20658 -0.008,0.0689 -3.5e-4,0.13773 -0.009,0.20659 -0.009,0.0689 -5.9e-4,0.13772 -0.009,0.20658 -0.009,0.0689 -8.5e-4,0.13772 -0.01,0.20658 -0.009,0.0689 -0.001,0.13772 -0.0104,0.20658 -0.009,0.0689 -0.001,0.13772 -0.0109,0.20658 -0.009,0.0689 -0.002,0.13772 -0.0114,0.20658 -0.01,0.0689 -0.002,0.13772 -0.0119,0.20659 -0.01,0.0689 -0.002,0.13772 -0.0124,0.20658 -0.0101,0.0689 -0.003,0.13772 -0.013,0.20658 -0.0103,0.0689 -0.003,0.13772 -0.0135,0.20658 -0.0105,0.0689 -0.003,0.13772 -0.0141,0.20658 -0.0108,0.0689 -0.004,0.13772 -0.0147,0.20658 -0.011,0.0689 -0.004,0.13772 -0.0153,0.20658 -0.0112,0.0689 -0.004,0.13773 -0.0159,0.20659 -0.0114,0.0689 -0.005,0.13772 -0.0165,0.20658 -0.0116,0.0689 -0.005,0.13772 -0.0171,0.20658 -0.0119,0.0689 -0.006,0.13772 -0.0178,0.20658 -0.0121,0.0689 -0.006,0.13772 -0.0184,0.20658 -0.0123,0.0689 -0.007,0.13772 -0.0191,0.20658 -0.0125,0.0689 -0.007,0.13773 -0.0198,0.20659 -0.0127,0.0689 -0.008,0.13772 -0.0204,0.20658 -0.0129,0.0689 -0.008,0.13772 -0.0212,0.20658 -0.0132,0.0689 -0.008,0.13772 -0.0219,0.20658 -0.0134,0.0689 -0.009,0.13772 -0.0226,0.20658 -0.0136,0.0689 -0.01,0.13772 -0.0233,0.20658 -0.0138,0.0689 -0.01,0.13772 -0.0241,0.20659 -0.014,0.0689 -0.0106,0.13772 -0.0248,0.20658 -0.0142,0.0689 -0.0111,0.13772 -0.0256,0.20658 -0.0145,0.0689 -0.0117,0.13772 -0.0264,0.20658 -0.0147,0.0689 -0.0123,0.13772 -0.0272,0.20658 -0.0149,0.0689 -0.0129,0.13772 -0.028,0.20658 -0.0151,0.0689 -0.0135,0.13772 -0.0288,0.20658 -0.0153,0.0689 -0.0141,0.13773 -0.0296,0.20659 -0.0155,0.0689 -0.0147,0.13772 -0.0305,0.20658 -0.0158,0.0689 -0.0153,0.13772 -0.0313,0.20658 -0.016,0.0689 -0.016,0.13772 -0.0322,0.20658 -0.0162,0.0689 -0.0166,0.13772 -0.0331,0.20658 -0.0164,0.0689 -0.0173,0.13772 -0.0339,0.20658 -0.0166,0.0689 -0.018,0.13773 -0.0348,0.20659 -0.0169,0.0689 -0.0187,0.13772 -0.0357,0.20658 -0.0171,0.0689 -0.0194,0.13772 -0.0367,0.20658 -0.0173,0.0689 -0.0201,0.13772 -0.0376,0.20658 -0.0175,0.0689 -0.0208,0.13772 -0.0386,0.20658 -0.0177,0.0689 -0.0216,0.13772 -0.0395,0.20658 -0.0179,0.0689 -0.0223,0.13772 -0.0405,0.20659 -0.0181,0.0689 -0.0231,0.13772 -0.0415,0.20658 -0.0184,0.0689 -0.0239,0.13772 -0.0425,0.20658 -0.0186,0.0689 -0.0246,0.13772 -0.0434,0.20658 -0.0188,0.0689 -0.0255,0.13772 -0.0445,0.20658 -0.019,0.0689 -0.0263,0.13772 -0.0455,0.20658 -0.0192,0.0689 -0.0271,0.13772 -0.0465,0.20658 -0.0194,0.0689 -0.0279,0.13773 -0.0476,0.20659 -0.0197,0.0689 -0.0288,0.13772 -0.0486,0.20658 -0.0199,0.0689 -0.0296,0.13772 -0.0497,0.20658 -0.0201,0.0689 -0.0305,0.13772 -0.0508,0.20658 -0.0203,0.0689 -0.0314,0.13772 -0.0519,0.20658 -0.0205,0.0689 -0.0323,0.13772 -0.053,0.20658 -0.0208,0.0689 -0.0332,0.13773 -0.0542,0.20659 -0.021,0.0689 -0.0341,0.13772 -0.0553,0.20658 -0.0212,0.0689 -0.035,0.13772 -0.0564,0.20658 -0.0214,0.0689 -0.036,0.13772 -0.0576,0.20658 -0.0216,0.0689 -0.0369,0.13772 -0.0588,0.20658 -0.0218,0.0689 -0.0379,0.13772 -0.0599,0.20658 -0.0221,0.0689 -0.0389,0.13772 -0.0611,0.20659 -0.0223,0.0689 -0.0398,0.13772 -0.0623,0.20658 -0.0225,0.0689 -0.0408,0.13772 -0.0635,0.20658 -0.0227,0.0689 -0.0419,0.13772 -0.0648,0.20658 -0.0229,0.0689 -0.0429,0.13772 -0.066,0.20658 -0.0232,0.0689 -0.0439,0.13772 -0.0673,0.20658 -0.0234,0.0689 -0.0449,0.13772 -0.0685,0.20658 -0.0236,0.0689 -0.046,0.13773 -0.0698,0.20659 -0.0238,0.0689 -0.0471,0.13772 -0.0711,0.20658 -0.024,0.0689 -0.0482,0.13772 -0.0724,0.20658 -0.0242,0.0689 -0.0492,0.13772 -0.0737,0.20658 -0.0245,0.0689 -0.0504,0.13772 -0.075,0.20658 -0.0247,0.0689 -0.0515,0.13772 -0.0764,0.20658 -0.0249,0.0689 -0.0526,0.13773 -0.0777,0.20659 -0.0251,0.0689 -0.0537,0.13772 -0.0791,0.20658 -0.0253,0.0689 -0.0549,0.13772 -0.0804,0.20658 -0.0255,0.0689 -0.056,0.13772 -0.0818,0.20658 -0.0258,0.0689 -0.0572,0.13772 -0.0832,0.20658 -0.026,0.0689 -0.0584,0.13772 -0.0846,0.20658 -0.0262,0.0689 -0.0596,0.13772 -0.086,0.20659 -0.0264,0.0689 -0.0608,0.13772 -0.0875,0.20658 -0.0266,0.0689 -0.062,0.13772 -0.0889,0.20658 -0.0268,0.0689 -0.0633,0.13772 -0.0903,0.20658 -0.0271,0.0689 -0.0645,0.13772 -0.0918,0.20658 -0.0273,0.0689 -0.0658,0.13772 -0.0933,0.20658 -0.0275,0.0689 -0.0671,0.13772 -0.0948,0.20658 -0.0277,0.0689 -0.0683,0.13773 -0.0963,0.20659 -0.0279,0.0689 -0.0696,0.13772 -0.0978,0.20658 -0.0281,0.0689 -0.0709,0.13772 -0.0993,0.20658 -0.0284,0.0689 -0.0722,0.13772 -0.10083,0.20658 -0.0286,0.0689 -0.0736,0.13772 -0.10237,0.20658 -0.0288,0.0689 -0.0749,0.13772 -0.10393,0.20658 -0.029,0.0689 -0.0763,0.13773 -0.10551,0.20659 -0.0292,0.0689 -0.0776,0.13772 -0.10708,0.20658 -0.0294,0.0689 -0.079,0.13772 -0.10867,0.20658 -0.0297,0.0689 -0.0804,0.13772 -0.11028,0.20658 -0.0299,0.0689 -0.0818,0.13772 -0.11189,0.20658 -0.0301,0.0689 -0.0832,0.13772 -0.11352,0.20658 -0.0303,0.0689 -0.0846,0.13772 -0.11516,0.20659 -0.0305,0.0689 -0.0861,0.13772 -0.11681,0.20658 -0.0308,0.0689 -0.0875,0.13772 -0.11848,0.20658 -0.031,0.0689 -0.0889,0.13772 -0.12014,0.20658 -0.0312,0.0689 -0.0904,0.13772 -0.12185,0.20658 -0.0314,0.0689 -0.0919,0.13772 -0.12353,0.20658 -0.0316,0.0689 -0.0934,0.13772 -0.12524,0.20659 -0.0318,0.0689 -0.0949,0.13772 -0.12697,0.20658 -0.0321,0.0689 -0.0964,0.13772 -0.12869,0.20658 -0.0323,0.0689 -0.098,0.13772 -0.13045,0.20658 -0.0325,0.0689 -0.0995,0.13772 -0.1322,0.20658 -0.0327,0.0689 -0.10103,0.13772 -0.13396,0.20658 -0.0329,0.0689 -0.1026,0.13772 -0.13575,0.20658 -0.0331,0.0689 -0.10417,0.13773 -0.13754,0.20659 -0.0334,0.0689 -0.10576,0.13772 -0.13934,0.20658 -0.0336,0.0689 -0.10736,0.13772 -0.14116,0.20658 -0.0338,0.0689 -0.10898,0.13772 -0.143,0.20658 -0.034,0.0689 -0.11058,0.13772 -0.14482,0.20658 -0.0342,0.0689 -0.11222,0.13772 -0.14668,0.20658 -0.0345,0.0689 -0.11386,0.13773 -0.14854,0.20659 -0.0347,0.0689 -0.11552,0.13772 -0.15041,0.20658 -0.0349,0.0689 -0.11719,0.13772 -0.1523,0.20658 -0.0351,0.0689 -0.11887,0.13772 -0.1542,0.20658 -0.0353,0.0689 -0.12056,0.13772 -0.1561,0.20658 -0.0356,0.0689 -0.12227,0.13772 -0.15803,0.20658 -0.0358,0.0689 -0.12398,0.13772 -0.15996,0.20659 -0.036,0.0689 -0.12571,0.13772 -0.16192,0.20658 -0.0362,0.0689 -0.12745,0.13772 -0.16386,0.20658 -0.0364,0.0689 -0.1292,0.13772 -0.16583,0.20658 -0.0366,0.0689 -0.13096,0.13772 -0.16781,0.20658 -0.0369,0.0689 -0.13274,0.13772 -0.1698,0.20658 -0.0371,0.0689 -0.13452,0.13772 -0.17181,0.20658 -0.0373,0.0689 -0.13632,0.13773 -0.17382,0.20659 -0.0375,0.0689 -0.13813,0.13772 -0.17585,0.20658 -0.0377,0.0689 -0.13995,0.13772 -0.17788,0.20658 -0.0379,0.0689 -0.14179,0.13772 -0.17994,0.20658 -0.0382,0.0689 -0.14363,0.13772 -0.182,0.20658 -0.0384,0.0689 -0.14549,0.13772 -0.18407,0.20658 -0.0386,0.0689 -0.14736,0.13773 -0.18617,0.20659 -0.0388,0.0689 -0.14924,0.13772 -0.18826,0.20658 -0.039,0.0689 -0.15113,0.13772 -0.19036,0.20658 -0.0392,0.0689 -0.15304,0.13772 -0.19249,0.20658 -0.0395,0.0689 -0.15495,0.13772 -0.19462,0.20658 -0.0397,0.0689 -0.15687,0.13772 -0.19677,0.20658 -0.0399,0.0689 -0.15881,0.13772 -0.19892,0.20659 -0.0401,0.0689 -0.16076,0.13772 -0.20109,0.20658 -0.0403,0.0689 -0.16272,0.13772 -0.20326,0.20658 -0.0405,0.0689 -0.16471,0.13772 -0.20548,0.20658 -0.0408,0.0689 -0.16668,0.13772 -0.20766,0.20658 -0.041,0.0689 -0.16868,0.13772 -0.20988,0.20658 -0.0412,0.0689 -0.17069,0.13772 -0.2121,0.20658 -0.0414,0.0689 -0.17272,0.13773 -0.21435,0.20659 -0.0416,0.0689 -0.17474,0.13772 -0.21659,0.20658 -0.0418,0.0689 -0.17679,0.13772 -0.21886,0.20658 -0.0421,0.0689 -0.17887,0.13772 -0.22115,0.20658 -0.0423,0.0689 -0.18091,0.13772 -0.22341,0.20658 -0.0425,0.0689 -0.183,0.13772 -0.22572,0.20658 -0.0427,0.0689 -0.18508,0.13773 -0.22802,0.20659 -0.0429,0.0689 -0.18719,0.13772 -0.23034,0.20658 -0.0431,0.0689 -0.18931,0.13772 -0.23268,0.20658 -0.0434,0.0689 -0.19143,0.13772 -0.23502,0.20658 -0.0436,0.0689 -0.19358,0.13772 -0.23738,0.20658 -0.0438,0.0689 -0.19572,0.13772 -0.23975,0.20658 -0.044,0.0689 -0.19788,0.13772 -0.24212,0.20659 -0.0442,0.0689 -0.20006,0.13772 -0.24451,0.20658 -0.0445,0.0689 -0.20225,0.13772 -0.24692,0.20658 -0.0447,0.0689 -0.20444,0.13772 -0.24934,0.20658 -0.0449,0.0689 -0.20665,0.13772 -0.25176,0.20658 -0.0451,0.0689 -0.20888,0.13772 -0.2542,0.20658 -0.0453,0.0689 -0.21111,0.13772 -0.25665,0.20658 -0.0455,0.0689 -0.21335,0.13773 -0.25911,0.20659 -0.0458,0.0689 -0.2156,0.13772 -0.26158,0.20658 -0.046,0.0689 -0.21787,0.13772 -0.26407,0.20658 -0.0462,0.0689 -0.22015,0.13772 -0.26656,0.20658 -0.0464,0.0689 -0.22246,0.13772 -0.26909,0.20658 -0.0466,0.0689 -0.22475,0.13772 -0.27159,0.20658 -0.0469,0.0689 -0.22707,0.13773 -0.27413,0.20659 -0.0471,0.0689 -0.22939,0.13772 -0.27667,0.20658 -0.0473,0.0689 -0.23173,0.13772 -0.27923,0.20658 -0.0475,0.0689 -0.234077,0.13772 -0.281787,0.20658 -0.0477,0.0689 -0.23644,0.13772 -0.28438,0.20658 -0.0479,0.0689 -0.238817,0.13772 -0.286967,0.20658 -0.0482,0.0689 -0.2412,0.13772 -0.28957,0.20659 -0.0484,0.0689 -0.243597,0.13772 -0.292177,0.20658 -0.0486,0.0689 -0.24601,0.13772 -0.29481,0.20658 -0.0488,0.0689 -0.24843,0.13772 -0.29745,0.20658 -0.049,0.0689 -0.25086,0.13772 -0.3001,0.20658 -0.0492,0.0689 -0.2533,0.13772 -0.30275,0.20658 -0.0495,0.0689 -0.25576,0.13772 -0.30544,0.20658 -0.0497,0.0689 -0.25822,0.13773 -0.30811,0.20659 -0.0499,0.0689 -0.26071,0.13772 -0.31082,0.20658 -0.0501,0.0689 -0.26319,0.13772 -0.31352,0.20658 -0.0503,0.0689 -0.2657,0.13772 -0.31624,0.20658 -0.0505,0.0689 -0.26821,0.13772 -0.31897,0.20658 -0.0508,0.0689 -0.27074,0.13772 -0.32172,0.20658 -0.051,0.0689 -0.27328,0.13773 -0.32448,0.20659 -0.0512,0.0689 -0.27583,0.13772 -0.32724,0.20658 -0.0514,0.0689 -0.27839,0.13772 -0.33002,0.20658 -0.0516,0.0689 -0.28096,0.13772 -0.33281,0.20658 -0.0519,0.0689 -0.28355,0.13772 -0.33561,0.20658 -0.0521,0.0689 -0.28615,0.13772 -0.33843,0.20658 -0.0523,0.0689 -0.28876,0.13772 -0.34126,0.20659 -0.0525,0.0689 -0.29137,0.13772 -0.34409,0.20658 -0.0527,0.0689 -0.29401,0.13772 -0.34694,0.20658 -0.0529,0.0689 -0.29665,0.13772 -0.34981,0.20658 -0.0532,0.0689 -0.2993,0.13772 -0.35267,0.20658 -0.0534,0.0689 -0.30198,0.13772 -0.35556,0.20658 -0.0536,0.0689 -0.30466,0.13772 -0.35846,0.20658 -0.0538,0.0689 -0.30735,0.13773 -0.36137,0.20659 -0.054,0.0689 -0.31004,0.13772 -0.36428,0.20658 -0.0542,0.0689 -0.31276,0.13772 -0.36722,0.20658 -0.0545,0.0689 -0.31549,0.13772 -0.37016,0.20658 -0.0547,0.0689 -0.31823,0.13772 -0.37312,0.20658 -0.0549,0.0689 -0.32098,0.13772 -0.37609,0.20658 -0.0551,0.0689 -0.32373,0.13773 -0.37906,0.20659 -0.0553,0.0689 -0.32651,0.13772 -0.38205,0.20658 -0.0556,0.0689 -0.3293,0.13772 -0.38506,0.20658 -0.0558,0.0689 -0.33209,0.13772 -0.38807,0.20658 -0.056,0.0689 -0.3349,0.13772 -0.3911,0.20658 -0.0562,0.0689 -0.33772,0.13772 -0.39413,0.20658 -0.0564,0.0689 -0.34055,0.13772 -0.39718,0.20659 -0.0566,0.0689 -0.3434,0.13772 -0.40025,0.20658 -0.0568,0.0689 -0.34625,0.13772 -0.40331,0.20658 -0.0571,0.0689 -0.34912,0.13772 -0.40641,0.20658 -0.0573,0.0689 -0.35199,0.13772 -0.40949,0.20658 -0.0575,0.0689 -0.35489,0.13772 -0.41261,0.20658 -0.0577,0.0689 -0.35779,0.13772 -0.41573,0.20658 -0.0579,0.0689 -0.3607,0.13773 -0.41885,0.20659 -0.0582,0.0689 -0.36364,0.13772 -0.42201,0.20658 -0.0584,0.0689 -0.36656,0.13772 -0.42515,0.20658 -0.0586,0.0689 -0.36952,0.13772 -0.42833,0.20658 -0.0588,0.0689 -0.37247,0.13772 -0.4315,0.20658 -0.059,0.0689 -0.37545,0.13772 -0.43469,0.20658 -0.0592,0.0689 -0.37844,0.13773 -0.43789,0.20659 -0.0595,0.0689 -0.38144,0.13772 -0.44111,0.20658 -0.0597,0.0689 -0.38444,0.13772 -0.44434,0.20658 -0.0599,0.0689 -0.38746,0.13772 -0.44757,0.20658 -0.0601,0.0689 -0.39049,0.13772 -0.45082,0.20658 -0.0603,0.0689 -0.39354,0.13772 -0.45408,0.20658 -0.0605,0.0689 -0.39659,0.13772 -0.45735,0.20659 -0.0608,0.0689 -0.39966,0.13772 -0.46064,0.20658 -0.061,0.0689 -0.40274,0.13772 -0.46394,0.20658 -0.0612,0.0689 -0.40583,0.13772 -0.46724,0.20658 -0.0614,0.0689 -0.40893,0.13772 -0.47056,0.20658 -0.0616,0.0689 -0.41205,0.13772 -0.47389,0.20658 -0.0618,0.0689 -0.41518,0.13772 -0.47724,0.20658 -0.0621,0.0689 -0.41831,0.13773 -0.48059,0.20659 -0.0623,0.0689 -0.42146,0.13772 -0.48396,0.20658 -0.0625,0.0689 -0.42462,0.13772 -0.48734,0.20658 -0.0627,0.0689 -0.42779,0.13772 -0.49072,0.20658 -0.0629,0.0689 -0.43098,0.13772 -0.49413,0.20658 -0.0632,0.0689 -0.43418,0.13772 -0.49755,0.20658 -0.0634,0.0689 -0.43738,0.13773 -0.50096,0.20659 -0.0636,0.0689 -0.4406,0.13772 -0.50441,0.20658 -0.0638,0.0689 -0.44383,0.13772 -0.50785,0.20658 -0.064,0.0689 -0.44708,0.13772 -0.51132,0.20658 -0.0642,0.0689 -0.45033,0.13772 -0.51478,0.20658 -0.0645,0.0689 -0.4536,0.13772 -0.51827,0.20658 -0.0647,0.0689 -0.45688,0.13772 -0.52177,0.20659 -0.0649,0.0689 -0.46017,0.13772 -0.52528,0.20658 -0.0651,0.0689 -0.46346,0.13772 -0.52879,0.20658 -0.0653,0.0689 -0.46678,0.13772 -0.53233,0.20658 -0.0655,0.0689 -0.4701,0.13772 -0.53586,0.20658 -0.0658,0.0689 -0.47345,0.13772 -0.53943,0.20658 -0.066,0.0689 -0.47679,0.13772 -0.54299,0.20658 -0.0662,0.0689 -0.48015,0.13773 -0.54656,0.20659 -0.0664,0.0689 -0.48353,0.13772 -0.55016,0.20658 -0.0666,0.0689 -0.48691,0.13772 -0.55376,0.20658 -0.0669,0.0689 -0.49031,0.13772 -0.55737,0.20658 -0.0671,0.0689 -0.49372,0.13772 -0.561,0.20658 -0.0673,0.0689 -0.49713,0.13772 -0.56463,0.20658 -0.0675,0.0689 -0.50057,0.13773 -0.56829,0.20659 -0.0677,0.0689 -0.50401,0.13772 -0.57194,0.20658 -0.0679,0.0689 -0.50746,0.13772 -0.57562,0.20658 -0.0682,0.0689 -0.51093,0.13772 -0.5793,0.20658 -0.0684,0.0689 -0.5144,0.13772 -0.58299,0.20658 -0.0686,0.0689 -0.5179,0.13772 -0.5867,0.20658 -0.0688,0.0689 -0.5214,0.13772 -0.59043,0.20659 -0.069,0.0689 -0.52491,0.13772 -0.59415,0.20658 -0.0692,0.0689 -0.52844,0.13772 -0.59789,0.20658 -0.0695,0.0689 -0.53198,0.13772 -0.60165,0.20658 -0.0697,0.0689 -0.53553,0.13772 -0.60542,0.20658 -0.0699,0.0689 -0.53909,0.13772 -0.6092,0.20658 -0.0701,0.0689 -0.54265,0.13772 -0.61298,0.20658 -0.0703,0.0689 -0.54624,0.13773 -0.61678,0.20659 -0.0705,0.0689 -0.54984,0.13772 -0.6206,0.20658 -0.0708,0.0689 -0.55345,0.13772 -0.62443,0.20658 -0.071,0.0689 -0.55706,0.13772 -0.62826,0.20658 -0.0712,0.0689 -0.56069,0.13772 -0.6321,0.20658 -0.0714,0.0689 -0.56434,0.13772 -0.63597,0.20658 -0.0716,0.0689 -0.568,0.13773 -0.63984,0.20659 -0.0719,0.0689 -0.57166,0.13772 -0.64373,0.20658 -0.0721,0.0689 -0.57534,0.13772 -0.64762,0.20658 -0.0723,0.0689 -0.57903,0.13772 -0.65153,0.20658 -0.0725,0.0689 -0.58272,0.13772 -0.65544,0.20658 -0.0727,0.0689 -0.58644,0.13772 -0.65938,0.20658 -0.0729,0.0689 -0.59016,0.13772 -0.66332,0.20659 -0.0731,0.0689 -0.5939,0.13772 -0.66727,0.20658 -0.0734,0.0689 -0.59765,0.13772 -0.67124,0.20658 -0.0736,0.0689 -0.60141,0.13772 -0.67522,0.20658 -0.0738,0.0689 -0.60518,0.13772 -0.6792,0.20658 -0.074,0.0689 -0.60897,0.13772 -0.68321,0.20658 -0.0742,0.0689 -0.61276,0.13772 -0.68722,0.20658 -0.0745,0.0689 -0.61657,0.13773 -0.69125,0.20659 -0.0747,0.0689 -0.62039,0.13772 -0.69528,0.20658 -0.0749,0.0689 -0.62422,0.13772 -0.69933,0.20658 -0.0751,0.0689 -0.62806,0.13772 -0.70339,0.20658 -0.0753,0.0689 -0.63192,0.13772 -0.70746,0.20658 -0.0755,0.0689 -0.63578,0.13772 -0.71155,0.20658 -0.0758,0.0689 -0.63966,0.13773 -0.71564,0.20659 -0.076,0.0689 -0.64355,0.13772 -0.71974,0.20658 -0.0762,0.0689 -0.64746,0.13772 -0.72387,0.20658 -0.0764,0.0689 -0.65136,0.13772 -0.728,0.20658 -0.0766,0.0689 -0.65529,0.13772 -0.73213,0.20658 -0.0769,0.0689 -0.65923,0.13772 -0.7363,0.20658 -0.0771,0.0689 -0.66317,0.13773 -0.74046,0.20659 -0.0773,0.0689 -0.66713,0.13772 -0.74463,0.20658 -0.0775,0.0689 -0.67111,0.13772 -0.74883,0.20658 -0.0777,0.0689 -0.67509,0.13772 -0.75302,0.20658 -0.0779,0.0689 -0.67909,0.13772 -0.75724,0.20658 -0.0782,0.0689 -0.68309,0.13772 -0.76146,0.20658 -0.0784,0.0689 -0.68712,0.13772 -0.7657,0.20659 -0.0786,0.0689 -0.69115,0.13772 -0.76995,0.20658 -0.0788,0.0689 -0.69519,0.13772 -0.77421,0.20658 -0.079,0.0689 -0.69924,0.13772 -0.77848,0.20658 -0.0792,0.0689 -0.7033,0.13772 -0.78276,0.20658 -0.0795,0.0689 -0.70738,0.13772 -0.78706,0.20658 -0.0797,0.0689 -0.71147,0.13772 -0.79136,0.20658 -0.0799,0.0689 -0.71557,0.13773 -0.79568,0.20659 -0.0801,0.0689 -0.71969,0.13772 -0.80001,0.20658 -0.0803,0.0689 -0.72381,0.13772 -0.80436,0.20658 -0.0805,0.0689 -0.72794,0.13772 -0.80871,0.20658 -0.0808,0.0689 -0.73209,0.13772 -0.81307,0.20658 -0.081,0.0689 -0.73625,0.13772 -0.81745,0.20658 -0.0812,0.0689 -0.74043,0.13773 -0.82184,0.20659 -0.0814,0.0689 -0.74461,0.13772 -0.82624,0.20658 -0.0816,0.0689 -0.7488,0.13772 -0.83065,0.20658 -0.0819,0.0689 -0.75301,0.13772 -0.835081,0.20658 -0.0821,0.0689 -0.75723,0.13772 -0.83951,0.20658 -0.0823,0.0689 -0.76146,0.13772 -0.84396,0.20658 -0.0825,0.0689 -0.765711,0.13772 -0.848421,0.20659 -0.0827,0.0689 -0.76996,0.13772 -0.8529,0.20658 -0.0829,0.0689 -0.774221,0.13772 -0.857371,0.20658 -0.0831,0.0689 -0.7785,0.13772 -0.86187,0.20658 -0.0834,0.0689 -0.7827904,0.13772 -0.8663804,0.20658 -0.0836,0.0689 -0.7870797,0.13772 -0.8708897,0.20658 -0.0838,0.0689 -0.7914001,0.13772 -0.8754201,0.20658 -0.084,0.0689 -0.79573,0.13773 -0.87997,0.20659 -0.0842,0.0689 -0.8000601,0.13772 -0.8845201,0.20658 -0.0845,0.0689 -0.8044101,0.13772 -0.8890801,0.20658 -0.0847,0.0689 -0.80877,0.13772 -0.89367,0.20658 -0.0849,0.0689 -0.8131399,0.13772 -0.8982499,0.20658 -0.0851,0.0689 -0.8175201,0.13772 -0.9028501,0.20658 -0.0853,0.0689 -0.82192,0.13773 -0.90746,0.20659 -0.0855,0.0689 -0.82632987,0.13772 -0.91208994,0.20658 -0.0858,0.0689 -0.83073997,0.13772 -0.91671987,0.20658 -0.086,0.0689 -0.83516999,0.13772 -0.92136999,0.20658"
       style="opacity:1;fill:none;fill-opacity:1;stroke:#000000;stroke-width:1;stroke-linecap:butt;stroke-linejoin:round;stroke-miterlimit:4;stroke-dasharray:none;stroke-dashoffset:0;stroke-opacity:1;paint-order:normal"
       inkscape:connector-curvature="0"
       sodipodi:nodetypes="ccccssssccsssccssssccssscccsssccssssccssssccssscccsssccssssccssssccsssscssssccsssscccsssccssssccssscccssscccssscccsscccssssccssscccssscccssscccsssccssscccssscccssccssssccssssccssssccssssccsssscssssccssscccsssccsssscccsssccssscccssscsssssccscssccsscssssssccscssssssscsssscccsscccsssscscsscssssscsssssccccsssccssssccsccccscsccscccccccccssssssscssccsssccccccccsssssssssccccccccssscssssssssssscscsscccccccccccccccscccccccccccscsccsssssssssscsccsscscssssssscssscsssscccssscsssssscsscssssscccsssccscscscssssccsccccssssccsssccssssccsssscssssccssssccssssccssssccssscccsssccssssccsssscssssscssssccssssccsssscssssccssssccsssscsssssccsssccssssccssssccssssccsssccssssccssssccsssscssssccssssccssscccsssccsssscccsscccssscccsssccssssccssssccssscccsssccsssssccsscccssscccssc" />
    <path
       style="opacity:1;fill:#000000;fill-opacity:1;fill-rule:evenodd;stroke:#000000;stroke-width:0.40000001;stroke-linecap:butt;stroke-linejoin:bevel;stroke-miterlimit:4;stroke-dasharray:none;stroke-dashoffset:0;stroke-opacity:1;paint-order:normal"
       id="path1707"
       sodipodi:type="arc"
       sodipodi:cx="120.62167"
       sodipodi:cy="98.54361"
       sodipodi:rx="1.984375"
       sodipodi:ry="1.984375"
       sodipodi:start="0"
       sodipodi:end="6.2831679"
       sodipodi:open="true"
       d="m 122.60605,98.54361 a 1.984375,1.984375 0 0 1 -1.98437,1.98437 1.984375,1.984375 0 0 1 -1.98438,-1.984353 1.984375,1.984375 0 0 1 1.98435,-1.984392 1.984375,1.984375 0 0 1 1.9844,1.98434" />
    <path
       style="fill:none;stroke:#000000;stroke-width:0.40000001;stroke-linecap:butt;stroke-linejoin:miter;stroke-miterlimit:4;stroke-dasharray:1.2, 1.2;stroke-dashoffset:0;stroke-opacity:1"
       d="m 120.65941,217.62499 c 0,-216.95833174 0,-216.95833174 0,-216.95833174"
       id="path1793"
       inkscape:connector-curvature="0" />
    <g
       title="\small$1$"
       style="fill:#000000"
       id="equation_04"
       transform="translate(47.77818,62.729933)">
      <defs
         id="defs1847">
        <path
           d="m 2.725778,-5.729514 c 0,-0.22416 -0.00897,-0.242092 -0.233125,-0.242092 -0.555916,0.573848 -1.380822,0.573848 -1.65878,0.573848 v 0.277957 c 0.170361,0 0.71731,0 1.201494,-0.233126 v 4.635617 c 0,0.331756 -0.026899,0.439352 -0.860772,0.439352 H 0.887671 V 0 c 0.32279,-0.026899 1.120797,-0.026899 1.488419,-0.026899 0.367622,0 1.174595,0 1.497384,0.026899 V -0.277958 H 3.58655 c -0.833873,0 -0.860772,-0.107596 -0.860772,-0.439352 z"
           id="equation_04_00"
           inkscape:connector-curvature="0" />
      </defs>
      <g
         id="equation_04_g">
        <use
           id="use1849"
           xlink:href="#equation_04_00"
           y="62.764633"
           x="76.712326"
           width="100%"
           height="100%" />
      </g>
    </g>
    <g
       inkscape:label=""
       transform="translate(36.729167,-60.708333)"
       id="g335">
      <g
         id="g9059">
        <g
           style="fill:#000000;fill-opacity:1"
           id="g30">
          <use
             xlink:href="#symbol9088"
             x="91.925003"
             y="81.962997"
             id="use323"
             width="100%"
             height="100%" />
        </g>
        <g
           style="fill:#000000;fill-opacity:1"
           id="g3876">
          <use
             xlink:href="#symbol1290"
             x="99.934998"
             y="81.962997"
             id="use5190"
             width="100%"
             height="100%" />
        </g>
        <g
           style="fill:#000000;fill-opacity:1"
           id="g3048">
          <use
             xlink:href="#symbol5873"
             x="113.218"
             y="77.832001"
             id="use8047"
             width="100%"
             height="100%" />
        </g>
        <g
           style="fill:#000000;fill-opacity:1"
           id="g3101">
          <use
             xlink:href="#symbol8757"
             x="111.073"
             y="74.137001"
             id="use2369"
             width="100%"
             height="100%" />
        </g>
        <path
           style="fill:none;stroke:#000000;stroke-width:0.398;stroke-linecap:butt;stroke-linejoin:miter;stroke-miterlimit:10;stroke-opacity:1"
           d="M -0.001,-5e-4 H 22.850563"
           transform="matrix(1,0,0,-1,119.376,73.937)"
           id="path2097" />
        <g
           style="fill:#000000;fill-opacity:1"
           id="g3844">
          <use
             xlink:href="#symbol787"
             x="119.376"
             y="81.962997"
             id="use1646"
             width="100%"
             height="100%" />
        </g>
        <g
           style="fill:#000000;fill-opacity:1"
           id="g2431">
          <use
             xlink:href="#symbol38"
             x="127.283"
             y="81.962997"
             id="use4373"
             width="100%"
             height="100%" />
        </g>
        <g
           style="fill:#000000;fill-opacity:1"
           id="g2611">
          <use
             xlink:href="#symbol339"
             x="137.246"
             y="81.962997"
             id="use8330"
             width="100%"
             height="100%" />
        </g>
        <g
           style="fill:#000000;fill-opacity:1"
           id="g3035">
          <use
             xlink:href="#symbol3098"
             x="144.439"
             y="81.962997"
             id="use1237"
             width="100%"
             height="100%" />
        </g>
        <g
           style="fill:#000000;fill-opacity:1"
           id="g9406">
          <use
             xlink:href="#symbol339"
             x="154.39961"
             y="81.962997"
             id="use5014"
             width="100%"
             height="100%" />
        </g>
      </g>
    </g>
  </g>
</svg>
