<?xml version="1.0" encoding="UTF-8" standalone="no"?>
<!-- Created with Inkscape (http://www.inkscape.org/) -->

<svg
   xmlns:dc="http://purl.org/dc/elements/1.1/"
   xmlns:cc="http://creativecommons.org/ns#"
   xmlns:rdf="http://www.w3.org/1999/02/22-rdf-syntax-ns#"
   xmlns:svg="http://www.w3.org/2000/svg"
   xmlns="http://www.w3.org/2000/svg"
   xmlns:xlink="http://www.w3.org/1999/xlink"
   xmlns:sodipodi="http://sodipodi.sourceforge.net/DTD/sodipodi-0.dtd"
   xmlns:inkscape="http://www.inkscape.org/namespaces/inkscape"
   id="svg8"
   version="1.1"
   viewBox="0 0 210 297"
   height="297mm"
   width="210mm"
   inkscape:version="0.92.4 (5da689c313, 2019-01-14)"
   sodipodi:docname="三角関数.svg">
  <defs
     id="defs2">
    <marker
       inkscape:stockid="Arrow2Mstart"
       orient="auto"
       refY="0.0"
       refX="0.0"
       id="Arrow2Mstart"
       style="overflow:visible"
       inkscape:isstock="true">
      <path
         id="path4725"
         style="fill-rule:evenodd;stroke-width:0.625;stroke-linejoin:round;stroke:#000000;stroke-opacity:1;fill:#000000;fill-opacity:1"
         d="M 8.7185878,4.0337352 L -2.2072895,0.016013256 L 8.7185884,-4.0017078 C 6.9730900,-1.6296469 6.9831476,1.6157441 8.7185878,4.0337352 z "
         transform="scale(0.6) translate(0,0)" />
    </marker>
    <marker
       inkscape:stockid="Arrow2Lstart"
       orient="auto"
       refY="0.0"
       refX="0.0"
       id="Arrow2Lstart"
       style="overflow:visible"
       inkscape:isstock="true">
      <path
         id="path4719"
         style="fill-rule:evenodd;stroke-width:0.625;stroke-linejoin:round;stroke:#000000;stroke-opacity:1;fill:#000000;fill-opacity:1"
         d="M 8.7185878,4.0337352 L -2.2072895,0.016013256 L 8.7185884,-4.0017078 C 6.9730900,-1.6296469 6.9831476,1.6157441 8.7185878,4.0337352 z "
         transform="scale(1.1) translate(1,0)" />
    </marker>
    <marker
       inkscape:stockid="Arrow1Lstart"
       orient="auto"
       refY="0.0"
       refX="0.0"
       id="Arrow1Lstart"
       style="overflow:visible"
       inkscape:isstock="true">
      <path
         id="path4701"
         d="M 0.0,0.0 L 5.0,-5.0 L -12.5,0.0 L 5.0,5.0 L 0.0,0.0 z "
         style="fill-rule:evenodd;stroke:#000000;stroke-width:1pt;stroke-opacity:1;fill:#000000;fill-opacity:1"
         transform="scale(0.8) translate(12.5,0)" />
    </marker>
    <marker
       inkscape:stockid="Arrow1Mend"
       orient="auto"
       refY="0.0"
       refX="0.0"
       id="Arrow1Mend"
       style="overflow:visible;"
       inkscape:isstock="true">
      <path
         id="path4710"
         d="M 0.0,0.0 L 5.0,-5.0 L -12.5,0.0 L 5.0,5.0 L 0.0,0.0 z "
         style="fill-rule:evenodd;stroke:#000000;stroke-width:1pt;stroke-opacity:1;fill:#000000;fill-opacity:1"
         transform="scale(0.4) rotate(180) translate(10,0)" />
    </marker>
    <marker
       inkscape:stockid="Arrow2Lend"
       orient="auto"
       refY="0.0"
       refX="0.0"
       id="Arrow2Lend"
       style="overflow:visible;"
       inkscape:isstock="true">
      <path
         id="path4722"
         style="fill-rule:evenodd;stroke-width:0.625;stroke-linejoin:round;stroke:#000000;stroke-opacity:1;fill:#000000;fill-opacity:1"
         d="M 8.7185878,4.0337352 L -2.2072895,0.016013256 L 8.7185884,-4.0017078 C 6.9730900,-1.6296469 6.9831476,1.6157441 8.7185878,4.0337352 z "
         transform="scale(1.1) rotate(180) translate(1,0)" />
    </marker>
  </defs>
  <sodipodi:namedview
     id="base"
     pagecolor="#ffffff"
     bordercolor="#666666"
     borderopacity="1.0"
     inkscape:pageopacity="0.0"
     inkscape:pageshadow="2"
     inkscape:zoom="0.49497475"
     inkscape:cx="1194.4731"
     inkscape:cy="870.0644"
     inkscape:document-units="mm"
     inkscape:current-layer="layer1"
     showgrid="true"
     inkscape:window-width="1858"
     inkscape:window-height="1057"
     inkscape:window-x="-8"
     inkscape:window-y="-8"
     inkscape:window-maximized="1">
    <inkscape:grid
       type="xygrid"
       id="grid5132" />
  </sodipodi:namedview>
  <metadata
     id="metadata5">
    <rdf:RDF>
      <cc:Work
         rdf:about="">
        <dc:format>image/svg+xml</dc:format>
        <dc:type
           rdf:resource="http://purl.org/dc/dcmitype/StillImage" />
        <dc:title />
      </cc:Work>
    </rdf:RDF>
  </metadata>
  <g
     inkscape:label="レイヤー 1"
     inkscape:groupmode="layer"
     id="layer1">
    <path
       style="fill:none;stroke:#000000;stroke-width:0.80000001;stroke-linecap:butt;stroke-linejoin:miter;stroke-miterlimit:4;stroke-dasharray:none;stroke-opacity:1;marker-start:url(#Arrow2Mstart)"
       d="m 407.98754,-139.63694 c 0,265.09694 0,265.09694 0,265.09694 v 0"
       id="path5142"
       inkscape:connector-curvature="0" />
    <path
       style="fill:none;stroke:#000000;stroke-width:0.80000001;stroke-linecap:butt;stroke-linejoin:miter;stroke-miterlimit:4;stroke-dasharray:none;stroke-opacity:1;marker-end:url(#Arrow1Mend)"
       d="M 258.87052,1.1958333 H 540.53603"
       id="path5144"
       inkscape:connector-curvature="0" />
    <path
       style="fill:none;stroke:#000000;stroke-width:0.26458332px;stroke-linecap:butt;stroke-linejoin:miter;stroke-opacity:1"
       d="M 540.53603,1.1958333 Z"
       id="path5146"
       inkscape:connector-curvature="0" />
    <ellipse
       style="fill:none;fill-opacity:1;stroke:#000000;stroke-width:0.80000001;stroke-miterlimit:4;stroke-dasharray:none;stroke-opacity:1"
       id="path5148"
       cx="405.91653"
       cy="0.79844666"
       rx="89.04866"
       ry="86.5802" />
    <path
       style="fill:none;stroke:#000000;stroke-width:0.40000001;stroke-linecap:butt;stroke-linejoin:miter;stroke-miterlimit:4;stroke-dasharray:none;stroke-opacity:1"
       d="m 494.97248,125.46004 c 0,-265.09696 0,-265.09696 0,-265.09696 v 0"
       id="path5153"
       inkscape:connector-curvature="0" />
    <path
       style="fill:none;stroke:#000000;stroke-width:0.26458332px;stroke-linecap:butt;stroke-linejoin:miter;stroke-opacity:1"
       d="M 494.97248,-139.63692 Z"
       id="path5155"
       inkscape:connector-curvature="0" />
    <path
       style="fill:none;stroke:#000000;stroke-width:0.5;stroke-linecap:butt;stroke-linejoin:miter;stroke-miterlimit:4;stroke-dasharray:none;stroke-opacity:1"
       d="M 407.98754,1.1958333 C 461.83536,-65.0784 461.83536,-65.0784 461.83536,-65.0784"
       id="path5159"
       inkscape:connector-curvature="0" />
    <path
       style="fill:none;stroke:#000000;stroke-width:0.40000001;stroke-linecap:butt;stroke-linejoin:miter;stroke-miterlimit:4;stroke-dasharray:1.2, 1.2;stroke-dashoffset:0;stroke-opacity:1"
       d="m 461.83536,-65.0784 c 33.13712,-41.4214 33.13712,-41.4214 33.13712,-41.4214"
       id="path5163"
       inkscape:connector-curvature="0" />
    <path
       style="fill:none;stroke:#000000;stroke-width:0.26458332px;stroke-linecap:butt;stroke-linejoin:miter;stroke-opacity:1"
       d="M 494.97248,-106.4998 Z"
       id="path5165"
       inkscape:connector-curvature="0" />
    <path
       style="fill:none;stroke:#000000;stroke-width:0.40000001;stroke-linecap:butt;stroke-linejoin:miter;stroke-miterlimit:4;stroke-dasharray:1.2, 1.2;stroke-dashoffset:0;stroke-opacity:1"
       d="m 461.83536,-65.0784 c 0,66.2742333 0,66.2742333 0,66.2742333 v 0 0 0"
       id="path5167"
       inkscape:connector-curvature="0" />
    <path
       style="fill:none;stroke:#000000;stroke-width:0.40000001;stroke-linecap:butt;stroke-linejoin:miter;stroke-miterlimit:4;stroke-dasharray:1.2, 1.2;stroke-dashoffset:0;stroke-opacity:1"
       d="m 461.83536,-65.0784 c -53.84782,0 -53.84782,0 -53.84782,0"
       id="path5169"
       inkscape:connector-curvature="0" />
    <path
       style="fill:none;stroke:#000000;stroke-width:0.26458332px;stroke-linecap:butt;stroke-linejoin:miter;stroke-opacity:1"
       d="M 407.98754,-65.0784 Z"
       id="path5171"
       inkscape:connector-curvature="0" />
    <path
       style="fill:none;stroke:#000000;stroke-width:0.40000001;stroke-linecap:butt;stroke-linejoin:miter;stroke-miterlimit:4;stroke-dasharray:1.2, 1.2;stroke-dashoffset:0;stroke-opacity:1"
       d="m 494.97248,-106.4998 h -86.98494 v 0 10e-6"
       id="path5173"
       inkscape:connector-curvature="0" />
    <path
       style="fill:none;stroke:#000000;stroke-width:0.26458332px;stroke-linecap:butt;stroke-linejoin:miter;stroke-opacity:1"
       d="M 337.57117,-56.79412 Z"
       id="path5177"
       inkscape:connector-curvature="0" />
    <g
       title="$\cos\theta$"
       style="fill:#000000;stroke-width:0.63875997"
       id="equation_00"
       transform="matrix(1.5655332,0,0,1.5655332,326.08293,-82.451372)">
      <defs
         id="defs7239">
        <path
           d="m 4.533001,-4.98132 c 0,-0.657534 -0.179327,-2.042341 -1.195517,-2.042341 -1.384807,0 -2.919053,2.809464 -2.919053,5.090909 0,0.936488 0.288916,2.042341 1.195517,2.042341 1.404732,0 2.919053,-2.859278 2.919053,-5.090909 z m -3.05853,1.364882 c 0.169365,-0.637609 0.368617,-1.434621 0.767123,-2.141968 0.268991,-0.488169 0.637609,-1.046077 1.085928,-1.046077 0.488169,0 0.547945,0.637609 0.547945,1.205479 0,0.48817 -0.079701,0.996264 -0.318804,1.982566 z m 1.992528,0.318804 c -0.109589,0.458282 -0.318805,1.305106 -0.697385,2.022416 -0.348692,0.67746 -0.727273,1.165629 -1.155666,1.165629 -0.328767,0 -0.537983,-0.288917 -0.537983,-1.215442 0,-0.418431 0.059776,-0.996264 0.318805,-1.972603 z"
           id="equation_00_00"
           inkscape:connector-curvature="0" />
        <path
           d="m 1.165629,-2.171856 c 0,-1.62391 0.816936,-2.042341 1.344956,-2.042341 0.089664,0 0.71731,0.00996 1.066003,0.368618 -0.408468,0.029888 -0.468244,0.328767 -0.468244,0.458281 0,0.259029 0.179327,0.458282 0.458281,0.458282 0.259029,0 0.458282,-0.169365 0.458282,-0.468244 0,-0.67746 -0.757161,-1.066003 -1.524284,-1.066003 -1.24533,0 -2.161893,1.075965 -2.161893,2.311333 0,1.275218 0.986301,2.261519 2.141967,2.261519 1.334994,0 1.653799,-1.195517 1.653799,-1.295143 0,-0.099626 -0.099627,-0.099627 -0.129515,-0.099627 -0.089663,0 -0.109589,0.039851 -0.129514,0.099627 -0.288917,0.926525 -0.936488,1.046077 -1.305106,1.046077 -0.52802,0 -1.404732,-0.428393 -1.404732,-2.032379 z"
           id="equation_00_01"
           inkscape:connector-curvature="0" />
        <path
           d="m 4.692403,-2.132005 c 0,-1.275218 -0.996264,-2.331258 -2.201743,-2.331258 -1.24533,0 -2.211706,1.085928 -2.211706,2.331258 0,1.285181 1.036114,2.241594 2.201743,2.241594 1.20548,0 2.211706,-0.976339 2.211706,-2.241594 z M 2.49066,-0.139477 c -0.428393,0 -0.86675,-0.209215 -1.135741,-0.667497 -0.249066,-0.438356 -0.249066,-1.046077 -0.249066,-1.404732 0,-0.388543 0,-0.926526 0.239103,-1.364882 0.268992,-0.458281 0.737236,-0.667497 1.135741,-0.667497 0.438357,0 0.86675,0.219178 1.125779,0.647572 0.259029,0.428394 0.259028,1.006227 0.259028,1.384807 0,0.358655 0,0.896638 -0.219178,1.334994 -0.219178,0.448318 -0.657534,0.737235 -1.155666,0.737235 z"
           id="equation_00_02"
           inkscape:connector-curvature="0" />
        <path
           d="m 2.072229,-1.932752 c 0.219178,0.03985 1.036115,0.199253 1.036115,0.916563 0,0.508094 -0.348693,0.9066 -1.125779,0.9066 -0.836861,0 -1.195516,-0.567871 -1.384807,-1.414695 -0.029888,-0.129514 -0.03985,-0.169365 -0.139477,-0.169365 -0.129514,0 -0.129514,0.069739 -0.129514,0.249066 v 1.315069 c 0,0.169365 0,0.239103 0.109589,0.239103 0.049813,0 0.059776,-0.009963 0.249066,-0.199253 0.019925,-0.019925 0.019925,-0.03985 0.199253,-0.22914 0.438356,0.41843 0.886675,0.428393 1.09589,0.428393 1.145704,0 1.603985,-0.667497 1.603985,-1.384807 0,-0.52802 -0.298879,-0.826899 -0.41843,-0.946451 C 2.839352,-2.540473 2.450809,-2.620174 2.032379,-2.699875 1.474471,-2.809465 0.806974,-2.938979 0.806974,-3.516812 c 0,-0.348692 0.259028,-0.757161 1.115816,-0.757161 1.09589,0 1.145703,0.896638 1.165628,1.20548 0.00996,0.089664 0.099627,0.089664 0.119552,0.089664 0.129514,0 0.129514,-0.049814 0.129514,-0.239104 v -1.006226 c 0,-0.169365 0,-0.239104 -0.109589,-0.239104 -0.049813,0 -0.069738,0 -0.199252,0.119552 -0.029888,0.03985 -0.129515,0.129514 -0.169365,0.159402 -0.378581,-0.278954 -0.787049,-0.278954 -0.936488,-0.278954 -1.215443,0 -1.594023,0.667497 -1.594023,1.225405 0,0.348692 0.159402,0.627646 0.428394,0.846824 0.318804,0.259029 0.597758,0.318805 1.315068,0.458282 z"
           id="equation_00_03"
           inkscape:connector-curvature="0" />
      </defs>
      <g
         id="equation_00_g"
         style="stroke-width:0.63875997">
        <use
           id="use7241"
           xlink:href="#equation_00_01"
           y="62.764633"
           x="76.712326"
           width="100%"
           height="100%"
           style="stroke-width:0.63875997" />
        <use
           id="use7243"
           xlink:href="#equation_00_02"
           y="62.764633"
           x="81.140182"
           width="100%"
           height="100%"
           style="stroke-width:0.63875997" />
        <use
           id="use7245"
           xlink:href="#equation_00_03"
           y="62.764633"
           x="86.121521"
           width="100%"
           height="100%"
           style="stroke-width:0.63875997" />
        <use
           id="use7247"
           xlink:href="#equation_00_00"
           y="62.764633"
           x="91.711609"
           width="100%"
           height="100%"
           style="stroke-width:0.63875997" />
      </g>
    </g>
    <g
       title="$\sin\theta$"
       style="fill:#000000;stroke-width:0.63875997"
       id="equation_01"
       transform="matrix(1.5655332,0,0,1.5655332,253.34026,-159.84852)">
      <defs
         id="defs7310">
        <path
           d="m 1.763387,-4.403487 -1.394769,0.109589 v 0.308842 c 0.647571,0 0.737235,0.059776 0.737235,0.547945 v 2.67995 c 0,0.448319 -0.109589,0.448319 -0.777086,0.448319 V 0 c 0.318805,-0.009963 0.856787,-0.029888 1.095891,-0.029888 0.348692,0 0.697384,0.019925 1.036114,0.029888 v -0.308842 c -0.657534,0 -0.697385,-0.049813 -0.697385,-0.438356 z m 0.039851,-1.733499 c 0,-0.318805 -0.249066,-0.52802 -0.52802,-0.52802 -0.308842,0 -0.52802,0.268991 -0.52802,0.52802 0,0.268991 0.219178,0.52802 0.52802,0.52802 0.278954,0 0.52802,-0.209216 0.52802,-0.52802 z"
           id="equation_01_00"
           inkscape:connector-curvature="0" />
        <path
           d="m 1.09589,-3.427148 v 2.669987 c 0,0.448319 -0.109589,0.448319 -0.777086,0.448319 V 0 c 0.348693,-0.009963 0.856788,-0.029888 1.125779,-0.029888 0.259028,0 0.777086,0.019925 1.115816,0.029888 v -0.308842 c -0.667497,0 -0.777086,0 -0.777086,-0.448319 v -1.833125 c 0,-1.036115 0.707347,-1.594023 1.344956,-1.594023 0.627646,0 0.737235,0.537983 0.737235,1.105853 v 2.321295 c 0,0.448319 -0.109589,0.448319 -0.777086,0.448319 V 0 c 0.348693,-0.009963 0.856787,-0.029888 1.125779,-0.029888 0.259028,0 0.777086,0.019925 1.115815,0.029888 v -0.308842 c -0.518057,0 -0.767123,0 -0.777085,-0.298879 v -1.902864 c 0,-0.856787 0,-1.165629 -0.308842,-1.524284 -0.139477,-0.169365 -0.468244,-0.368618 -1.046078,-0.368618 -0.727272,0 -1.195516,0.428394 -1.47447,1.046077 v -1.046077 l -1.404733,0.109589 v 0.308842 c 0.697385,0 0.777086,0.069738 0.777086,0.557908 z"
           id="equation_01_01"
           inkscape:connector-curvature="0" />
        <path
           d="m 2.072229,-1.932752 c 0.219178,0.03985 1.036115,0.199253 1.036115,0.916563 0,0.508094 -0.348693,0.9066 -1.125779,0.9066 -0.836861,0 -1.195516,-0.567871 -1.384807,-1.414695 -0.029888,-0.129514 -0.03985,-0.169365 -0.139477,-0.169365 -0.129514,0 -0.129514,0.069739 -0.129514,0.249066 v 1.315069 c 0,0.169365 0,0.239103 0.109589,0.239103 0.049813,0 0.059776,-0.009963 0.249066,-0.199253 0.019925,-0.019925 0.019925,-0.03985 0.199253,-0.22914 0.438356,0.41843 0.886675,0.428393 1.09589,0.428393 1.145704,0 1.603985,-0.667497 1.603985,-1.384807 0,-0.52802 -0.298879,-0.826899 -0.41843,-0.946451 C 2.839352,-2.540473 2.450809,-2.620174 2.032379,-2.699875 1.474471,-2.809465 0.806974,-2.938979 0.806974,-3.516812 c 0,-0.348692 0.259028,-0.757161 1.115816,-0.757161 1.09589,0 1.145703,0.896638 1.165628,1.20548 0.00996,0.089664 0.099627,0.089664 0.119552,0.089664 0.129514,0 0.129514,-0.049814 0.129514,-0.239104 v -1.006226 c 0,-0.169365 0,-0.239104 -0.109589,-0.239104 -0.049813,0 -0.069738,0 -0.199252,0.119552 -0.029888,0.03985 -0.129515,0.129514 -0.169365,0.159402 -0.378581,-0.278954 -0.787049,-0.278954 -0.936488,-0.278954 -1.215443,0 -1.594023,0.667497 -1.594023,1.225405 0,0.348692 0.159402,0.627646 0.428394,0.846824 0.318804,0.259029 0.597758,0.318805 1.315068,0.458282 z"
           id="equation_01_02"
           inkscape:connector-curvature="0" />
        <path
           d="m 4.533001,-4.98132 c 0,-0.657534 -0.179327,-2.042341 -1.195517,-2.042341 -1.384807,0 -2.919053,2.809464 -2.919053,5.090909 0,0.936488 0.288916,2.042341 1.195517,2.042341 1.404732,0 2.919053,-2.859278 2.919053,-5.090909 z m -3.05853,1.364882 c 0.169365,-0.637609 0.368617,-1.434621 0.767123,-2.141968 0.268991,-0.488169 0.637609,-1.046077 1.085928,-1.046077 0.488169,0 0.547945,0.637609 0.547945,1.205479 0,0.48817 -0.079701,0.996264 -0.318804,1.982566 z m 1.992528,0.318804 c -0.109589,0.458282 -0.318805,1.305106 -0.697385,2.022416 -0.348692,0.67746 -0.727273,1.165629 -1.155666,1.165629 -0.328767,0 -0.537983,-0.288917 -0.537983,-1.215442 0,-0.418431 0.059776,-0.996264 0.318805,-1.972603 z"
           id="equation_01_03"
           inkscape:connector-curvature="0" />
      </defs>
      <g
         id="equation_01_g"
         style="stroke-width:0.63875997">
        <use
           id="use7312"
           xlink:href="#equation_01_02"
           y="62.764633"
           x="76.712326"
           width="100%"
           height="100%"
           style="stroke-width:0.63875997" />
        <use
           id="use7314"
           xlink:href="#equation_01_00"
           y="62.764633"
           x="80.642044"
           width="100%"
           height="100%"
           style="stroke-width:0.63875997" />
        <use
           id="use7316"
           xlink:href="#equation_01_01"
           y="62.764633"
           x="83.409454"
           width="100%"
           height="100%"
           style="stroke-width:0.63875997" />
        <use
           id="use7318"
           xlink:href="#equation_01_03"
           y="62.764633"
           x="90.60466"
           width="100%"
           height="100%"
           style="stroke-width:0.63875997" />
      </g>
    </g>
    <g
       title="$\tan\theta$"
       style="fill:#000000;stroke-width:0.63875997"
       id="equation_02"
       transform="matrix(1.5655332,0,0,1.5655332,251.18127,-203.64961)">
      <defs
         id="defs7392">
        <path
           d="m 3.317559,-0.757161 c 0.039851,0.398506 0.308842,0.816937 0.777086,0.816937 0.209216,0 0.816937,-0.139477 0.816937,-0.946451 V -1.444583 H 4.662516 v 0.557908 c 0,0.577833 -0.249066,0.637609 -0.358655,0.637609 -0.328768,0 -0.368618,-0.448319 -0.368618,-0.498132 v -1.992528 c 0,-0.418431 0,-0.806974 -0.358655,-1.175592 -0.388543,-0.388543 -0.886675,-0.547945 -1.364882,-0.547945 -0.816936,0 -1.504359,0.468244 -1.504359,1.125779 0,0.298879 0.199253,0.468244 0.458282,0.468244 0.278954,0 0.458281,-0.199253 0.458281,-0.458282 0,-0.119551 -0.049813,-0.448319 -0.508094,-0.458281 0.268991,-0.348693 0.75716,-0.458282 1.075965,-0.458282 0.488169,0 1.05604,0.388543 1.05604,1.275218 v 0.368618 c -0.508095,0.029888 -1.20548,0.059776 -1.833126,0.358655 -0.747198,0.33873 -0.996264,0.856787 -0.996264,1.295143 0,0.806974 0.966376,1.05604 1.594022,1.05604 0.657535,0 1.115816,-0.398506 1.305106,-0.86675 z M 3.247821,-2.391034 v 0.996264 c 0,0.946451 -0.71731,1.285181 -1.165629,1.285181 -0.48817,0 -0.896638,-0.348692 -0.896638,-0.846824 0,-0.547946 0.418431,-1.374845 2.062267,-1.434621 z"
           id="equation_02_00"
           inkscape:connector-curvature="0" />
        <path
           d="m 1.09589,-3.427148 v 2.669987 c 0,0.448319 -0.109589,0.448319 -0.777086,0.448319 V 0 c 0.348693,-0.009963 0.856788,-0.029888 1.125779,-0.029888 0.259028,0 0.777086,0.019925 1.115816,0.029888 v -0.308842 c -0.667497,0 -0.777086,0 -0.777086,-0.448319 v -1.833125 c 0,-1.036115 0.707347,-1.594023 1.344956,-1.594023 0.627646,0 0.737235,0.537983 0.737235,1.105853 v 2.321295 c 0,0.448319 -0.109589,0.448319 -0.777086,0.448319 V 0 c 0.348693,-0.009963 0.856787,-0.029888 1.125779,-0.029888 0.259028,0 0.777086,0.019925 1.115815,0.029888 v -0.308842 c -0.518057,0 -0.767123,0 -0.777085,-0.298879 v -1.902864 c 0,-0.856787 0,-1.165629 -0.308842,-1.524284 -0.139477,-0.169365 -0.468244,-0.368618 -1.046078,-0.368618 -0.727272,0 -1.195516,0.428394 -1.47447,1.046077 v -1.046077 l -1.404733,0.109589 v 0.308842 c 0.697385,0 0.777086,0.069738 0.777086,0.557908 z"
           id="equation_02_01"
           inkscape:connector-curvature="0" />
        <path
           d="M 1.723537,-3.985056 H 3.148194 V -4.293898 H 1.723537 V -6.127024 H 1.474471 c -0.00996,0.816937 -0.308842,1.882939 -1.285181,1.92279 v 0.219178 h 0.846825 v 2.749689 c 0,1.225404 0.926525,1.344956 1.28518,1.344956 0.707348,0 0.986302,-0.707347 0.986302,-1.344956 V -1.803238 H 3.058531 v 0.547945 c 0,0.737236 -0.29888,1.115816 -0.667497,1.115816 -0.667497,0 -0.667497,-0.9066 -0.667497,-1.075965 z"
           id="equation_02_02"
           inkscape:connector-curvature="0" />
        <path
           d="m 4.533001,-4.98132 c 0,-0.657534 -0.179327,-2.042341 -1.195517,-2.042341 -1.384807,0 -2.919053,2.809464 -2.919053,5.090909 0,0.936488 0.288916,2.042341 1.195517,2.042341 1.404732,0 2.919053,-2.859278 2.919053,-5.090909 z m -3.05853,1.364882 c 0.169365,-0.637609 0.368617,-1.434621 0.767123,-2.141968 0.268991,-0.488169 0.637609,-1.046077 1.085928,-1.046077 0.488169,0 0.547945,0.637609 0.547945,1.205479 0,0.48817 -0.079701,0.996264 -0.318804,1.982566 z m 1.992528,0.318804 c -0.109589,0.458282 -0.318805,1.305106 -0.697385,2.022416 -0.348692,0.67746 -0.727273,1.165629 -1.155666,1.165629 -0.328767,0 -0.537983,-0.288917 -0.537983,-1.215442 0,-0.418431 0.059776,-0.996264 0.318805,-1.972603 z"
           id="equation_02_03"
           inkscape:connector-curvature="0" />
      </defs>
      <g
         id="equation_02_g"
         style="stroke-width:0.63875997">
        <use
           id="use7394"
           xlink:href="#equation_02_02"
           y="62.764633"
           x="76.712326"
           width="100%"
           height="100%"
           style="stroke-width:0.63875997" />
        <use
           id="use7396"
           xlink:href="#equation_02_00"
           y="62.764633"
           x="80.5867"
           width="100%"
           height="100%"
           style="stroke-width:0.63875997" />
        <use
           id="use7398"
           xlink:href="#equation_02_01"
           y="62.764633"
           x="85.568039"
           width="100%"
           height="100%"
           style="stroke-width:0.63875997" />
        <use
           id="use7400"
           xlink:href="#equation_02_03"
           y="62.764633"
           x="92.763252"
           width="100%"
           height="100%"
           style="stroke-width:0.63875997" />
      </g>
    </g>
    <g
       title="$x=1$"
       style="fill:#000000;stroke-width:0.63875997"
       id="equation_03"
       transform="matrix(1.5655332,0,0,1.5655332,379.57864,-225.60806)">
      <defs
         id="defs7484">
        <path
           d="m 3.327522,-3.008717 c 0.059776,-0.259029 0.288916,-1.175592 0.986301,-1.175592 0.049813,0 0.288917,0 0.498132,0.129514 -0.278954,0.049814 -0.478207,0.29888 -0.478207,0.537983 0,0.159402 0.109589,0.348692 0.378581,0.348692 0.219178,0 0.537982,-0.179327 0.537982,-0.577833 0,-0.518057 -0.587795,-0.657534 -0.926525,-0.657534 -0.577833,0 -0.926526,0.52802 -1.046077,0.757161 -0.249066,-0.657535 -0.787049,-0.757161 -1.075966,-0.757161 -1.036114,0 -1.603985,1.285181 -1.603985,1.534247 0,0.099626 0.099627,0.099626 0.119552,0.099626 0.079701,0 0.109589,-0.019925 0.129514,-0.109589 0.33873,-1.05604 0.996264,-1.305106 1.334994,-1.305106 0.18929,0 0.537983,0.089664 0.537983,0.667497 0,0.308842 -0.169365,0.976339 -0.537983,2.371108 -0.159402,0.617684 -0.508094,1.036115 -0.946451,1.036115 -0.059775,0 -0.288916,0 -0.498132,-0.129514 0.249066,-0.049814 0.468244,-0.259029 0.468244,-0.537983 0,-0.268991 -0.219178,-0.348692 -0.368617,-0.348692 -0.298879,0 -0.547945,0.259028 -0.547945,0.577833 0,0.458281 0.498132,0.657534 0.936488,0.657534 0.657534,0 1.016189,-0.697385 1.046077,-0.757161 0.119552,0.368618 0.478207,0.757161 1.075965,0.757161 1.026152,0 1.594022,-1.285181 1.594022,-1.534247 0,-0.099626 -0.089663,-0.099626 -0.119551,-0.099626 -0.089664,0 -0.109589,0.039851 -0.129515,0.109589 -0.328767,1.066003 -1.006226,1.305106 -1.325031,1.305106 -0.388543,0 -0.547945,-0.318805 -0.547945,-0.657534 0,-0.219178 0.059776,-0.438356 0.169365,-0.876713 z"
           id="equation_03_00"
           inkscape:connector-curvature="0" />
        <path
           d="m 2.929016,-6.37609 c 0,-0.239103 0,-0.259028 -0.229141,-0.259028 -0.617683,0.637609 -1.494396,0.637609 -1.8132,0.637609 v 0.308842 c 0.199253,0 0.787049,0 1.305106,-0.259029 v 5.160647 c 0,0.358655 -0.029888,0.478207 -0.926526,0.478207 H 0.946451 V 0 c 0.348692,-0.029888 1.215442,-0.029888 1.613948,-0.029888 0.398506,0 1.265255,0 1.613947,0.029888 V -0.308842 H 3.855542 c -0.896638,0 -0.926526,-0.109589 -0.926526,-0.478207 z"
           id="equation_03_01"
           inkscape:connector-curvature="0" />
        <path
           d="m 6.844334,-3.257783 c 0.149439,0 0.33873,0 0.33873,-0.199253 0,-0.199253 -0.189291,-0.199253 -0.328768,-0.199253 H 0.886675 c -0.139477,0 -0.328767,0 -0.328767,0.199253 0,0.199253 0.18929,0.199253 0.33873,0.199253 z m 0.00996,1.932752 c 0.139477,0 0.328768,0 0.328768,-0.199253 0,-0.199253 -0.189291,-0.199253 -0.33873,-0.199253 H 0.896638 c -0.14944,0 -0.33873,0 -0.33873,0.199253 0,0.199253 0.18929,0.199253 0.328767,0.199253 z"
           id="equation_03_02"
           inkscape:connector-curvature="0" />
      </defs>
      <g
         id="equation_03_g"
         style="stroke-width:0.63875997">
        <use
           id="use7486"
           xlink:href="#equation_03_00"
           y="62.764633"
           x="76.712326"
           width="100%"
           height="100%"
           style="stroke-width:0.63875997" />
        <use
           id="use7488"
           xlink:href="#equation_03_02"
           y="62.764633"
           x="85.173592"
           width="100%"
           height="100%"
           style="stroke-width:0.63875997" />
        <use
           id="use7490"
           xlink:href="#equation_03_01"
           y="62.764633"
           x="95.689674"
           width="100%"
           height="100%"
           style="stroke-width:0.63875997" />
      </g>
    </g>
    <g
       title="$x$"
       style="fill:#000000;stroke-width:0.63875997"
       id="equation_04"
       transform="matrix(1.5655332,0,0,1.5655332,419.42476,-104.93349)">
      <defs
         id="defs7579">
        <path
           d="m 3.327522,-3.008717 c 0.059776,-0.259029 0.288916,-1.175592 0.986301,-1.175592 0.049813,0 0.288917,0 0.498132,0.129514 -0.278954,0.049814 -0.478207,0.29888 -0.478207,0.537983 0,0.159402 0.109589,0.348692 0.378581,0.348692 0.219178,0 0.537982,-0.179327 0.537982,-0.577833 0,-0.518057 -0.587795,-0.657534 -0.926525,-0.657534 -0.577833,0 -0.926526,0.52802 -1.046077,0.757161 -0.249066,-0.657535 -0.787049,-0.757161 -1.075966,-0.757161 -1.036114,0 -1.603985,1.285181 -1.603985,1.534247 0,0.099626 0.099627,0.099626 0.119552,0.099626 0.079701,0 0.109589,-0.019925 0.129514,-0.109589 0.33873,-1.05604 0.996264,-1.305106 1.334994,-1.305106 0.18929,0 0.537983,0.089664 0.537983,0.667497 0,0.308842 -0.169365,0.976339 -0.537983,2.371108 -0.159402,0.617684 -0.508094,1.036115 -0.946451,1.036115 -0.059775,0 -0.288916,0 -0.498132,-0.129514 0.249066,-0.049814 0.468244,-0.259029 0.468244,-0.537983 0,-0.268991 -0.219178,-0.348692 -0.368617,-0.348692 -0.298879,0 -0.547945,0.259028 -0.547945,0.577833 0,0.458281 0.498132,0.657534 0.936488,0.657534 0.657534,0 1.016189,-0.697385 1.046077,-0.757161 0.119552,0.368618 0.478207,0.757161 1.075965,0.757161 1.026152,0 1.594022,-1.285181 1.594022,-1.534247 0,-0.099626 -0.089663,-0.099626 -0.119551,-0.099626 -0.089664,0 -0.109589,0.039851 -0.129515,0.109589 -0.328767,1.066003 -1.006226,1.305106 -1.325031,1.305106 -0.388543,0 -0.547945,-0.318805 -0.547945,-0.657534 0,-0.219178 0.059776,-0.438356 0.169365,-0.876713 z"
           id="equation_04_00"
           inkscape:connector-curvature="0" />
      </defs>
      <g
         id="equation_04_g"
         style="stroke-width:0.63875997">
        <use
           id="use7581"
           xlink:href="#equation_04_00"
           y="62.764633"
           x="76.712326"
           width="100%"
           height="100%"
           style="stroke-width:0.63875997" />
      </g>
    </g>
    <g
       title="$y$"
       style="fill:#000000;stroke-width:0.63875997"
       id="equation_05"
       transform="matrix(1.5655332,0,0,1.5655332,290.75989,-245.38957)">
      <defs
         id="defs7671">
        <path
           d="m 4.841843,-3.795766 c 0.039851,-0.139477 0.039851,-0.159402 0.039851,-0.229141 0,-0.179327 -0.139477,-0.268991 -0.288917,-0.268991 -0.099626,0 -0.259029,0.059776 -0.348692,0.209216 -0.019926,0.049813 -0.099627,0.358655 -0.139477,0.537982 -0.069739,0.259029 -0.139477,0.52802 -0.199253,0.797011 l -0.448319,1.793276 c -0.03985,0.149439 -0.468244,0.846824 -1.125778,0.846824 -0.508095,0 -0.617684,-0.438356 -0.617684,-0.806974 0,-0.458281 0.169365,-1.075965 0.508095,-1.952677 0.159402,-0.408469 0.199253,-0.518058 0.199253,-0.71731 0,-0.448319 -0.318805,-0.816937 -0.816937,-0.816937 -0.946451,0 -1.315068,1.444583 -1.315068,1.534247 0,0.099626 0.099626,0.099626 0.119551,0.099626 0.099627,0 0.109589,-0.019925 0.159402,-0.179327 0.268992,-0.936489 0.667497,-1.235368 1.006227,-1.235368 0.079701,0 0.249066,0 0.249066,0.318805 0,0.249066 -0.099626,0.508094 -0.169365,0.697384 -0.398505,1.05604 -0.577833,1.623911 -0.577833,2.092155 0,0.886675 0.627646,1.185554 1.215442,1.185554 0.388543,0 0.727273,-0.169365 1.006227,-0.448319 C 3.16812,0.179328 3.048568,0.667497 2.650062,1.195517 2.391034,1.534247 2.012453,1.823163 1.554172,1.823163 c -0.139477,0 -0.587796,-0.029888 -0.757161,-0.418431 0.159402,0 0.288917,0 0.428394,-0.119551 C 1.325031,1.195517 1.424658,1.066002 1.424658,0.876712 1.424658,0.56787 1.155666,0.52802 1.05604,0.52802 c -0.229141,0 -0.557908,0.159402 -0.557908,0.647572 0,0.498132 0.438356,0.866749 1.05604,0.866749 1.026152,0 2.052304,-0.9066 2.331258,-2.032378 z"
           id="equation_05_00"
           inkscape:connector-curvature="0" />
      </defs>
      <g
         id="equation_05_g"
         style="stroke-width:0.63875997">
        <use
           id="use7673"
           xlink:href="#equation_05_00"
           y="62.764633"
           x="76.712326"
           width="100%"
           height="100%"
           style="stroke-width:0.63875997" />
      </g>
    </g>
    <g
       title="$O$"
       style="fill:#000000;stroke-width:0.63875997"
       id="equation_06"
       transform="matrix(1.5655332,0,0,1.5655332,270.58846,-82.379348)">
      <defs
         id="defs7768">
        <path
           d="m 7.372354,-4.343711 c 0,-1.603985 -1.05604,-2.67995 -2.540474,-2.67995 -2.15193,0 -4.343711,2.261519 -4.343711,4.582814 0,1.653798 1.115816,2.660025 2.550436,2.660025 2.11208,0 4.333749,-2.181818 4.333749,-4.562889 z m -4.273973,4.30386 c -0.986301,0 -1.683686,-0.806973 -1.683686,-2.122042 0,-0.438356 0.139477,-1.892902 0.9066,-3.05853 0.687422,-1.036115 1.663761,-1.554172 2.45081,-1.554172 0.816936,0 1.713574,0.557908 1.713574,2.042341 0,0.71731 -0.268992,2.271482 -1.255293,3.496887 -0.478207,0.607721 -1.295143,1.195516 -2.132005,1.195516 z"
           id="equation_06_00"
           inkscape:connector-curvature="0" />
      </defs>
      <g
         id="equation_06_g"
         style="stroke-width:0.63875997">
        <use
           id="use7770"
           xlink:href="#equation_06_00"
           y="62.764633"
           x="76.712326"
           width="100%"
           height="100%"
           style="stroke-width:0.63875997" />
      </g>
    </g>
    <g
       title="$\theta$"
       style="fill:#000000;stroke-width:0.63875997"
       id="equation_07"
       transform="matrix(1.5655332,0,0,1.5655332,307.29064,-101.33724)">
      <defs
         id="defs7870">
        <path
           d="m 4.533001,-4.98132 c 0,-0.657534 -0.179327,-2.042341 -1.195517,-2.042341 -1.384807,0 -2.919053,2.809464 -2.919053,5.090909 0,0.936488 0.288916,2.042341 1.195517,2.042341 1.404732,0 2.919053,-2.859278 2.919053,-5.090909 z m -3.05853,1.364882 c 0.169365,-0.637609 0.368617,-1.434621 0.767123,-2.141968 0.268991,-0.488169 0.637609,-1.046077 1.085928,-1.046077 0.488169,0 0.547945,0.637609 0.547945,1.205479 0,0.48817 -0.079701,0.996264 -0.318804,1.982566 z m 1.992528,0.318804 c -0.109589,0.458282 -0.318805,1.305106 -0.697385,2.022416 -0.348692,0.67746 -0.727273,1.165629 -1.155666,1.165629 -0.328767,0 -0.537983,-0.288917 -0.537983,-1.215442 0,-0.418431 0.059776,-0.996264 0.318805,-1.972603 z"
           id="equation_07_00"
           inkscape:connector-curvature="0" />
      </defs>
      <g
         id="equation_07_g"
         style="stroke-width:0.63875997">
        <use
           id="use7872"
           xlink:href="#equation_07_00"
           y="62.764633"
           x="76.712326"
           width="100%"
           height="100%"
           style="stroke-width:0.63875997" />
      </g>
    </g>
    <path
       style="fill:none;stroke:#000000;stroke-width:0.40000001;stroke-linecap:butt;stroke-linejoin:miter;stroke-miterlimit:4;stroke-dasharray:none;stroke-opacity:1"
       d="m 420.41397,1.1958333 c 1.6403,-5.4238229 -0.55428,-8.3443379 -4.14214,-10.3553449 v 0"
       id="path7884"
       inkscape:connector-curvature="0"
       sodipodi:nodetypes="ccc" />
    <path
       style="fill:none;stroke:#000000;stroke-width:0.26458332px;stroke-linecap:butt;stroke-linejoin:miter;stroke-opacity:1"
       d="m 461.83536,5.3379964 c 0,-8.284279 0,-8.284279 0,-8.284279 v 0"
       id="path423"
       inkscape:connector-curvature="0" />
    <path
       style="fill:none;stroke:#000000;stroke-width:0.26458332px;stroke-linecap:butt;stroke-linejoin:miter;stroke-opacity:1"
       d="m 403.84541,-65.078384 h 8.28429"
       id="path425"
       inkscape:connector-curvature="0" />
    <path
       style="fill:none;stroke:#000000;stroke-width:0.26458332px;stroke-linecap:butt;stroke-linejoin:miter;stroke-opacity:1"
       d="m 403.84541,-106.49978 c 8.28429,0 8.28429,0 8.28429,0"
       id="path427"
       inkscape:connector-curvature="0" />
    <rect
       style="opacity:1;fill:none;fill-opacity:1;fill-rule:nonzero;stroke:#000000;stroke-width:0;stroke-miterlimit:4;stroke-dasharray:0,0;stroke-dashoffset:0;stroke-opacity:1"
       id="rect1275"
       width="299.60001"
       height="299.60001"
       x="254"
       y="-158.08333"
       inkscape:export-filename="C:\Users\h-nakashima\OneDrive\HP\Inkscape\IMK\IMK1\23.png"
       inkscape:export-xdpi="300.10001"
       inkscape:export-ydpi="300.10001" />
  </g>
</svg>
