<?xml version="1.0" encoding="UTF-8" standalone="no"?>
<!-- Created with Inkscape (http://www.inkscape.org/) -->

<svg
   xmlns:osb="http://www.openswatchbook.org/uri/2009/osb"
   xmlns:dc="http://purl.org/dc/elements/1.1/"
   xmlns:cc="http://creativecommons.org/ns#"
   xmlns:rdf="http://www.w3.org/1999/02/22-rdf-syntax-ns#"
   xmlns:svg="http://www.w3.org/2000/svg"
   xmlns="http://www.w3.org/2000/svg"
   xmlns:xlink="http://www.w3.org/1999/xlink"
   xmlns:sodipodi="http://sodipodi.sourceforge.net/DTD/sodipodi-0.dtd"
   xmlns:inkscape="http://www.inkscape.org/namespaces/inkscape"
   width="210mm"
   height="297mm"
   viewBox="0 0 210 297"
   version="1.1"
   id="svg8"
   inkscape:version="0.92.4 (5da689c313, 2019-01-14)"
   sodipodi:docname="三角関数の比.svg"
   inkscape:export-filename="C:\Users\h-nakashima\bitmap.png"
   inkscape:export-xdpi="300.10001"
   inkscape:export-ydpi="300.10001">
  <defs
     id="defs2">
    <linearGradient
       id="linearGradient827"
       osb:paint="solid">
      <stop
         style="stop-color:#000000;stop-opacity:1;"
         offset="0"
         id="stop825" />
    </linearGradient>
    <defs
       id="defs1061">
      <path
         id="equation_04_00"
         d="M5.250708-8.82291C5.379823-9.35372 5.437208-9.382412 5.99671-9.382412H7.861715C9.482835-9.382412 9.482835-8.005177 9.482835-7.876061C9.482835-6.71402 8.320793-5.236361 6.427096-5.236361H4.361243L5.250708-8.82291ZM7.675215-5.121592C9.23895-5.408516 10.659223-6.498827 10.659223-7.818677C10.659223-8.93768 9.669336-9.798452 8.048216-9.798452H3.443087C3.170509-9.798452 3.041393-9.798452 3.041393-9.525874C3.041393-9.382412 3.170509-9.382412 3.385702-9.382412C4.26082-9.382412 4.26082-9.267642 4.26082-9.109834C4.26082-9.081142 4.26082-8.995065 4.203435-8.779872L2.266699-1.061618C2.137583-.559502 2.108891-.41604 1.104657-.41604C.832079-.41604 .688617-.41604 .688617-.157808C.688617 0 .774695 0 1.061618 0H5.982364C8.177332 0 9.870183-1.664159 9.870183-3.113124C9.870183-4.289513 8.837257-5.006822 7.675215-5.121592ZM5.638055-.41604H3.701318C3.500472-.41604 3.471779-.41604 3.385702-.430386C3.227894-.444732 3.213548-.473424 3.213548-.588194C3.213548-.688617 3.24224-.774695 3.270933-.90381L4.275166-4.949438H6.972251C8.665102-4.949438 8.665102-3.371356 8.665102-3.256586C8.665102-1.879352 7.416983-.41604 5.638055-.41604Z" />
    </defs>
  </defs>
  <sodipodi:namedview
     id="base"
     pagecolor="#ffffff"
     bordercolor="#666666"
     borderopacity="1.0"
     inkscape:pageopacity="0.0"
     inkscape:pageshadow="2"
     inkscape:zoom="0.98994949"
     inkscape:cx="295.04213"
     inkscape:cy="911.06824"
     inkscape:document-units="mm"
     inkscape:current-layer="layer1"
     showgrid="true"
     inkscape:window-width="1858"
     inkscape:window-height="1057"
     inkscape:window-x="-8"
     inkscape:window-y="-8"
     inkscape:window-maximized="1">
    <inkscape:grid
       id="grid815"
       type="xygrid" />
  </sodipodi:namedview>
  <metadata
     id="metadata5">
    <rdf:RDF>
      <cc:Work
         rdf:about="">
        <dc:format>image/svg+xml</dc:format>
        <dc:type
           rdf:resource="http://purl.org/dc/dcmitype/StillImage" />
        <dc:title></dc:title>
      </cc:Work>
    </rdf:RDF>
  </metadata>
  <g
     inkscape:label="レイヤー 1"
     inkscape:groupmode="layer"
     id="layer1">
    <path
       style="fill:none;fill-opacity:1;stroke:#000000;stroke-width:0.6;stroke-linecap:butt;stroke-linejoin:round;stroke-miterlimit:4;stroke-dasharray:none;stroke-dashoffset:0;stroke-opacity:1;paint-order:normal"
       id="path817"
       sodipodi:type="arc"
       sodipodi:cx="39.158264"
       sodipodi:cy="-122.37495"
       sodipodi:rx="97.895836"
       sodipodi:ry="105.50629"
       sodipodi:start="0"
       sodipodi:end="0.85158377"
       d="m 137.0541,-122.37495 a 97.895836,105.50629 0 0 1 -33.4028,79.374991 L 39.158264,-122.37495 Z"
       transform="scale(1,-1)"
       inkscape:export-filename="C:\Users\h-nakashima\path817.png"
       inkscape:export-xdpi="300.10001"
       inkscape:export-ydpi="300.10001" />
    <path
       style="fill:none;fill-opacity:1;stroke:#000000;stroke-width:0.59673029;stroke-linecap:butt;stroke-linejoin:miter;stroke-miterlimit:4;stroke-dasharray:none;stroke-opacity:1"
       d="m 137.58333,122.375 c 0,-120.3854251 0,-120.3854251 0,-120.3854251 v 0"
       id="path819"
       inkscape:connector-curvature="0"
       inkscape:export-filename="C:\Users\h-nakashima\path817.png"
       inkscape:export-xdpi="300.10001"
       inkscape:export-ydpi="300.10001" />
    <path
       style="fill:none;stroke:#000000;stroke-width:0.26458332px;stroke-linecap:butt;stroke-linejoin:miter;stroke-opacity:1"
       d="m 103.71667,43.000001 c -1.32292,1.5875 -1.32292,1.5875 -1.32292,1.5875"
       id="path821"
       inkscape:connector-curvature="0"
       inkscape:export-filename="C:\Users\h-nakashima\path817.png"
       inkscape:export-xdpi="300.10001"
       inkscape:export-ydpi="300.10001" />
    <path
       style="fill:none;fill-opacity:1;stroke:#000000;stroke-width:0.59478253;stroke-linecap:butt;stroke-linejoin:miter;stroke-miterlimit:4;stroke-dasharray:none;stroke-opacity:1"
       d="m 137.59135,2.0797038 c 0,0 0,0 -33.87468,40.9202882 -0.52115,79.200558 -0.52115,79.200558 -0.52115,79.200558"
       id="path823"
       inkscape:connector-curvature="0"
       inkscape:export-filename="C:\Users\h-nakashima\path817.png"
       inkscape:export-xdpi="300.10001"
       inkscape:export-ydpi="300.10001" />
    <path
       style="fill:none;stroke:#000000;stroke-width:0.26458332px;stroke-linecap:butt;stroke-linejoin:miter;stroke-opacity:1"
       d="m 44.979166,114.4375 c 2.10031,1.0119 5.078471,2.62068 3.968751,7.9375"
       id="path835"
       inkscape:connector-curvature="0"
       sodipodi:nodetypes="cc"
       inkscape:export-filename="C:\Users\h-nakashima\path817.png"
       inkscape:export-xdpi="300.10001"
       inkscape:export-ydpi="300.10001" />
    <g
       title="\Large$O$"
       style="fill: black;"
       id="equation_00"
       inkscape:export-filename="C:\Users\h-nakashima\path817.png"
       inkscape:export-xdpi="300.10001"
       inkscape:export-ydpi="300.10001">
      <defs
         id="defs849">
        <path
           d="M10.415338-6.283634C10.415338-8.650756 8.865949-10.099722 6.857482-10.099722C3.787396-10.099722 .688617-6.800097 .688617-3.486126C.688617-1.233773 2.180622 .30127 4.26082 .30127C7.273521 .30127 10.415338-2.840547 10.415338-6.283634ZM4.346897-.028692C3.170509-.028692 1.92239-.889464 1.92239-3.127471C1.92239-4.432974 2.395815-6.570558 3.572203-8.005177C4.619475-9.267642 5.824555-9.784105 6.785751-9.784105C8.048216-9.784105 9.267642-8.865949 9.267642-6.800097C9.267642-5.523285 8.722487-3.529164 7.761292-2.166276C6.71402-.702964 5.408516-.028692 4.346897-.028692Z"
           id="equation_00_00" />
      </defs>
      <g
         id="equation_00_g"
         transform="translate(-50.102838,70.450292)">
        <use
           id="use851"
           xlink:href="#equation_00_00"
           y="62.764633"
           x="76.712326"
           width="100%"
           height="100%" />
      </g>
      <g
         title="\Large$x$"
         style="fill:#000000"
         id="equation_01"
         transform="translate(-25.32093,56.79074)">
        <defs
           id="defs879">
          <path
             d="m 6.800097,-5.853248 c -0.459079,0.086077 -0.631233,0.430386 -0.631233,0.702964 0,0.344308 0.272578,0.459078 0.473425,0.459078 0.430385,0 0.731656,-0.373001 0.731656,-0.760348 0,-0.602541 -0.688618,-0.875118 -1.291158,-0.875118 -0.875118,0 -1.362889,0.860771 -1.492004,1.133349 -0.329963,-1.075965 -1.219427,-1.133349 -1.477659,-1.133349 -1.463311,0 -2.238006,1.879351 -2.238006,2.194968 0,0.057384 0.057385,0.129115 0.157808,0.129115 0.11477,0 0.143462,-0.086077 0.172154,-0.143462 0.487771,-1.592427 1.448966,-1.893697 1.865006,-1.893697 0.645579,0 0.774694,0.60254 0.774694,0.946849 0,0.315616 -0.086077,0.645578 -0.258231,1.334196 l -0.487771,1.965429 c -0.215193,0.860771 -0.631232,1.649812 -1.391581,1.649812 -0.071731,0 -0.430386,0 -0.731656,-0.186501 0.516463,-0.100423 0.631233,-0.530809 0.631233,-0.702963 0,-0.286924 -0.215193,-0.459078 -0.487771,-0.459078 -0.344308,0 -0.71731,0.30127 -0.71731,0.760348 0,0.60254 0.674272,0.875118 1.291158,0.875118 0.688617,0 1.176388,-0.545155 1.477658,-1.13335 0.229539,0.846426 0.946849,1.13335 1.477658,1.13335 1.463312,0 2.238007,-1.879352 2.238007,-2.194968 0,-0.071731 -0.057385,-0.129116 -0.143462,-0.129116 -0.129116,0 -0.143462,0.071731 -0.186501,0.186501 -0.387347,1.262465 -1.219426,1.850659 -1.865005,1.850659 -0.502117,0 -0.774695,-0.373001 -0.774695,-0.961195 0,-0.315616 0.057385,-0.545156 0.286924,-1.492004 l 0.502117,-1.951083 c 0.215193,-0.860772 0.702964,-1.492004 1.362889,-1.492004 0.028692,0 0.430386,0 0.731656,0.1865 z"
             id="equation_01_00"
             inkscape:connector-curvature="0" />
        </defs>
        <g
           id="equation_01_g">
          <use
             id="use881"
             xlink:href="#equation_01_00"
             y="62.764633"
             x="76.712326"
             width="100%"
             height="100%" />
        </g>
      </g>
      <g
         title="\Large$H$"
         style="fill:#000000"
         id="equation_02"
         transform="translate(20.453411,71.704545)">
        <defs
           id="defs974">
          <path
             d="m 10.730954,-8.751179 c 0.129116,-0.487771 0.157809,-0.631233 1.176388,-0.631233 0.258232,0 0.401694,0 0.401694,-0.258231 0,-0.157809 -0.129116,-0.157809 -0.215193,-0.157809 -0.258232,0 -0.559502,0.028693 -0.832079,0.028693 H 9.568913 c -0.272578,0 -0.573848,-0.028693 -0.846426,-0.028693 -0.100423,0 -0.272578,0 -0.272578,0.272578 0,0.143462 0.100424,0.143462 0.373001,0.143462 0.860772,0 0.860772,0.11477 0.860772,0.272578 0,0.028692 0,0.114769 -0.057385,0.329962 l -0.875118,3.47178 H 4.418628 L 5.2794,-8.751179 c 0.129116,-0.487771 0.157808,-0.631233 1.176388,-0.631233 0.258232,0 0.401694,0 0.401694,-0.258231 0,-0.157809 -0.129116,-0.157809 -0.215193,-0.157809 -0.258232,0 -0.559502,0.028693 -0.83208,0.028693 H 4.117358 c -0.272578,0 -0.573848,-0.028693 -0.846425,-0.028693 -0.100424,0 -0.272578,0 -0.272578,0.272578 0,0.143462 0.100423,0.143462 0.373001,0.143462 0.860772,0 0.860772,0.11477 0.860772,0.272578 0,0.028692 0,0.114769 -0.057385,0.329962 l -1.936736,7.718254 c -0.129116,0.502116 -0.157809,0.645578 -1.147696,0.645578 -0.329963,0 -0.430386,0 -0.430386,0.272578 C 0.659925,0 0.817733,0 0.860772,0 1.119003,0 1.420273,-0.028692 1.692851,-0.028692 H 3.385702 C 3.65828,-0.028692 3.95955,0 4.232128,0 c 0.114769,0 0.272577,0 0.272577,-0.272578 0,-0.143462 -0.129115,-0.143462 -0.344308,-0.143462 -0.875118,0 -0.875118,-0.114769 -0.875118,-0.258231 0,-0.014346 0,-0.11477 0.028692,-0.229539 l 0.989888,-3.988243 h 4.346897 c -0.243885,0.946849 -0.975541,3.945204 -1.004234,4.031281 -0.157808,0.430386 -0.387347,0.430386 -1.233773,0.444732 -0.172154,0 -0.30127,0 -0.30127,0.272578 C 6.111479,0 6.269288,0 6.312326,0 6.570558,0 6.871828,-0.028692 7.144405,-0.028692 H 8.837257 C 9.109834,-0.028692 9.411104,0 9.683682,0 9.798452,0 9.95626,0 9.95626,-0.272578 c 0,-0.143462 -0.129116,-0.143462 -0.344309,-0.143462 -0.875118,0 -0.875118,-0.114769 -0.875118,-0.258231 0,-0.014346 0,-0.11477 0.028693,-0.229539 z"
             id="equation_02_00"
             inkscape:connector-curvature="0" />
        </defs>
        <g
           id="equation_02_g">
          <use
             id="use976"
             xlink:href="#equation_02_00"
             y="62.764633"
             x="76.712326"
             width="100%"
             height="100%" />
        </g>
      </g>
      <g
         title="\Large$A$"
         style="fill:#000000"
         id="equation_03"
         transform="translate(55.925209,71.256526)">
        <defs
           id="defs1015">
          <path
             d="M 2.438853,-1.592428 C 1.936736,-0.746002 1.448966,-0.459078 0.760348,-0.41604 0.60254,-0.401693 0.487771,-0.401693 0.487771,-0.143462 0.487771,-0.057385 0.559502,0 0.659925,0 0.918157,0 1.563735,-0.028692 1.821967,-0.028692 2.238007,-0.028692 2.697085,0 3.098778,0 3.184855,0 3.35701,0 3.35701,-0.272578 c 0,-0.129115 -0.11477,-0.143462 -0.200847,-0.143462 -0.329962,-0.028692 -0.60254,-0.143462 -0.60254,-0.48777 0,-0.200847 0.086077,-0.358655 0.272578,-0.674272 l 1.09031,-1.80762 h 3.65828 c 0.014347,0.129116 0.014347,0.243885 0.028693,0.373001 0.043038,0.373001 0.215193,1.865005 0.215193,2.137583 0,0.430386 -0.731656,0.459078 -0.961195,0.459078 -0.157809,0 -0.315617,0 -0.315617,0.258232 C 6.541865,0 6.670981,0 6.757058,0 7.000943,0 7.287867,-0.028692 7.531753,-0.028692 H 8.349486 C 9.224604,-0.028692 9.855836,0 9.870183,0 c 0.100423,0 0.258231,0 0.258231,-0.272578 0,-0.143462 -0.129116,-0.143462 -0.344309,-0.143462 -0.78904,0 -0.803387,-0.129115 -0.846425,-0.559501 L 8.062562,-9.927567 c -0.028692,-0.286924 -0.086077,-0.315617 -0.243885,-0.315617 -0.143462,0 -0.229539,0.02869 -0.358655,0.243886 z m 1.721544,-2.209314 2.883585,-4.820322 0.487771,4.820322 z"
             id="equation_03_00"
             inkscape:connector-curvature="0" />
        </defs>
        <g
           id="equation_03_g">
          <use
             id="use1017"
             xlink:href="#equation_03_00"
             y="62.764633"
             x="76.712326"
             width="100%"
             height="100%" />
        </g>
      </g>
      <g
         style="fill:#000000"
         transform="translate(12.489298,-20.069622)"
         id="equation_04_g">
        <use
           height="100%"
           width="100%"
           x="76.712326"
           y="62.764633"
           xlink:href="#equation_04_00"
           id="use1063" />
      </g>
      <g
         transform="translate(65.748304,-50.513941)"
         id="equation_05"
         style="fill:#000000"
         title="\Large$C$">
        <defs
           id="defs1111">
          <path
             inkscape:connector-curvature="0"
             id="equation_05_00"
             d="m 10.716608,-9.970606 c 0,-0.129116 -0.100423,-0.129116 -0.129116,-0.129116 -0.02869,0 -0.08608,0 -0.200846,0.143462 l -0.989888,1.205081 c -0.502117,-0.860772 -1.291157,-1.348543 -2.367122,-1.348543 -3.098778,0 -6.312326,3.141817 -6.312326,6.513173 0,2.395815 1.678505,3.887819 3.773049,3.887819 1.147696,0 2.15193,-0.487771 2.984009,-1.190734 1.248119,-1.047272 1.62112,-2.438853 1.62112,-2.553623 0,-0.129116 -0.11477,-0.129116 -0.157808,-0.129116 -0.129116,0 -0.143462,0.086077 -0.172154,0.143462 -0.659925,2.238007 -2.596662,3.313971 -4.031281,3.313971 -1.520697,0 -2.840547,-0.975541 -2.840547,-3.012701 0,-0.459078 0.143462,-2.955316 1.764582,-4.834668 0.789041,-0.918156 2.137583,-1.721543 3.500472,-1.721543 1.578081,0 2.281045,1.305504 2.281045,2.768816 0,0.373001 -0.043039,0.688617 -0.043039,0.746002 0,0.129116 0.143462,0.129116 0.186501,0.129116 0.157808,0 0.172154,-0.014347 0.229539,-0.272578 z" />
        </defs>
        <g
           id="equation_05_g">
          <use
             height="100%"
             width="100%"
             x="76.712326"
             y="62.764633"
             xlink:href="#equation_05_00"
             id="use1113" />
        </g>
      </g>
      <g
         transform="translate(-17.266581,13.895825)"
         id="equation_06"
         style="fill:#000000"
         title="\Large$1$">
        <defs
           id="defs1167">
          <path
             inkscape:connector-curvature="0"
             id="equation_06_00"
             d="m 4.131704,-9.195911 c 0,-0.329963 0,-0.344309 -0.286924,-0.344309 -0.344308,0.387347 -1.061618,0.918156 -2.539276,0.918156 v 0.41604 c 0.329962,0 1.047272,0 1.836313,-0.373001 v 7.474368 c 0,0.516463 -0.043039,0.688617 -1.305504,0.688617 H 1.391581 V 0 c 0.387347,-0.028692 1.778928,-0.028692 2.252353,-0.028692 0.473425,0 1.850659,0 2.238006,0.028692 V -0.41604 H 5.437208 c -1.262465,0 -1.305504,-0.172154 -1.305504,-0.688617 z" />
        </defs>
        <g
           id="equation_06_g">
          <use
             height="100%"
             width="100%"
             x="76.712326"
             y="62.764633"
             xlink:href="#equation_06_00"
             id="use1169" />
        </g>
      </g>
      <g
         transform="translate(2.27075,26.711034)"
         id="equation_07"
         style="fill:#000000"
         title="\large$\sin x$">
        <defs
           id="defs1231">
          <path
             inkscape:connector-curvature="0"
             id="equation_07_00"
             d="m 2.080199,-7.364384 c 0,-0.310834 -0.251058,-0.585803 -0.585803,-0.585803 -0.310834,0 -0.573848,0.251059 -0.573848,0.573848 0,0.358655 0.286924,0.585804 0.573848,0.585804 0.37061,0 0.585803,-0.310835 0.585803,-0.573849 z m -1.649813,2.223662 v 0.3467 c 0.765131,0 0.872727,0.071731 0.872727,0.657534 v 3.251806 c 0,0.537982 -0.131507,0.537982 -0.908592,0.537982 V 0 c 0.334744,-0.02391 0.908592,-0.02391 1.255292,-0.02391 0.131507,0 0.824907,0 1.231383,0.02391 v -0.3467 c -0.777086,0 -0.824907,-0.059776 -0.824907,-0.526027 v -4.399502 z" />
          <path
             inkscape:connector-curvature="0"
             id="equation_07_01"
             d="m 5.32005,-2.905106 c 0,-1.11183 0,-1.446575 -0.274969,-1.829141 -0.3467,-0.466251 -0.908593,-0.537982 -1.315069,-0.537982 -1.159651,0 -1.613947,0.992279 -1.709589,1.231382 H 2.008468 v -1.231382 l -1.625903,0.131507 v 0.3467 c 0.812952,0 0.908593,0.083686 0.908593,0.669489 v 3.239851 c 0,0.537982 -0.131507,0.537982 -0.908593,0.537982 V 0 c 0.310835,-0.02391 0.956414,-0.02391 1.291159,-0.02391 0.346699,0 0.992278,0 1.303113,0.02391 v -0.3467 c -0.765131,0 -0.908593,0 -0.908593,-0.537982 v -2.223662 c 0,-1.255292 0.824907,-1.924782 1.566127,-1.924782 0.74122,0 0.908593,0.609714 0.908593,1.338979 v 2.809465 c 0,0.537982 -0.131507,0.537982 -0.908593,0.537982 V 0 c 0.310834,-0.02391 0.956414,-0.02391 1.291158,-0.02391 0.3467,0 0.992279,0 1.303114,0.02391 v -0.3467 c -0.597759,0 -0.896638,0 -0.908593,-0.358655 z" />
          <path
             inkscape:connector-curvature="0"
             id="equation_07_02"
             d="m 3.921295,-5.057036 c 0,-0.215193 0,-0.274969 -0.119552,-0.274969 -0.095641,0 -0.322789,0.263014 -0.406475,0.37061 -0.37061,-0.298879 -0.741221,-0.37061 -1.123786,-0.37061 -1.446575,0 -1.876961,0.789041 -1.876961,1.446575 0,0.131507 0,0.549938 0.454296,0.968369 0.382565,0.334745 0.789041,0.418431 1.338979,0.526027 0.657534,0.131507 0.812951,0.167373 1.11183,0.406476 0.215193,0.179328 0.370611,0.442341 0.370611,0.777086 0,0.514072 -0.29888,1.08792 -1.350934,1.08792 -0.789041,0 -1.36289,-0.454296 -1.625903,-1.649813 C 0.645579,-1.984558 0.645579,-1.996513 0.633624,-2.008468 0.609714,-2.056289 0.561893,-2.056289 0.526027,-2.056289 c -0.131506,0 -0.131506,0.059776 -0.131506,0.274969 v 1.625903 c 0,0.215193 0,0.274969 0.119551,0.274969 0.059776,0 0.071731,-0.011955 0.274969,-0.263014 0.059776,-0.083686 0.059776,-0.107597 0.239103,-0.298879 0.454297,0.561893 1.099876,0.561893 1.303114,0.561893 1.255292,0 1.876961,-0.6934 1.876961,-1.637858 0,-0.645579 -0.39452,-1.028145 -0.502117,-1.135741 C 3.275716,-3.024658 2.952927,-3.096389 2.163885,-3.239851 1.80523,-3.311582 0.932503,-3.478954 0.932503,-4.196264 c 0,-0.37061 0.251059,-0.920548 1.327024,-0.920548 1.303113,0 1.374844,1.111831 1.398754,1.482441 0.011956,0.095641 0.095642,0.095641 0.131507,0.095641 0.131507,0 0.131507,-0.059776 0.131507,-0.274969 z" />
          <path
             inkscape:connector-curvature="0"
             id="equation_07_03"
             d="m 5.66675,-4.877709 c -0.382566,0.071731 -0.526028,0.358655 -0.526028,0.585804 0,0.286924 0.227148,0.382565 0.394521,0.382565 0.358655,0 0.609713,-0.310834 0.609713,-0.633624 0,-0.502117 -0.573848,-0.729265 -1.075965,-0.729265 -0.729265,0 -1.135741,0.71731 -1.243337,0.944458 -0.274969,-0.896637 -1.016189,-0.944458 -1.231383,-0.944458 -1.219427,0 -1.865006,1.566127 -1.865006,1.829141 0,0.04782 0.047821,0.107596 0.131507,0.107596 0.095641,0 0.119552,-0.071731 0.143462,-0.119552 0.406476,-1.327023 1.207472,-1.578082 1.554172,-1.578082 0.537983,0 0.645579,0.502117 0.645579,0.789041 0,0.263014 -0.071731,0.537983 -0.215193,1.111831 l -0.406476,1.637858 c -0.179327,0.71731 -0.526027,1.374844 -1.159651,1.374844 -0.059776,0 -0.358655,0 -0.609714,-0.155417 0.430386,-0.083686 0.526028,-0.442341 0.526028,-0.585803 0,-0.239103 -0.179328,-0.382565 -0.406476,-0.382565 -0.286924,0 -0.597758,0.251058 -0.597758,0.633623 0,0.502117 0.561893,0.729266 1.075965,0.729266 0.573848,0 0.980324,-0.454297 1.231382,-0.944459 0.191283,0.705355 0.789041,0.944459 1.231382,0.944459 1.219428,0 1.865007,-1.566127 1.865007,-1.829141 0,-0.059776 -0.047821,-0.107597 -0.119552,-0.107597 -0.107596,0 -0.119552,0.059776 -0.155417,0.155418 -0.32279,1.052054 -1.016189,1.542216 -1.554172,1.542216 -0.418431,0 -0.645579,-0.310834 -0.645579,-0.800996 0,-0.263014 0.047821,-0.454296 0.239103,-1.243337 l 0.418431,-1.625903 c 0.179328,-0.71731 0.585803,-1.243338 1.135741,-1.243338 0.02391,0 0.358655,0 0.609714,0.155417 z" />
        </defs>
        <g
           id="equation_07_g">
          <use
             height="100%"
             width="100%"
             x="76.712326"
             y="62.764633"
             xlink:href="#equation_07_02"
             id="use1233" />
          <use
             height="100%"
             width="100%"
             x="81.329689"
             y="62.764633"
             xlink:href="#equation_07_00"
             id="use1235" />
          <use
             height="100%"
             width="100%"
             x="84.581352"
             y="62.764633"
             xlink:href="#equation_07_01"
             id="use1237" />
          <use
             height="100%"
             width="100%"
             x="93.077171"
             y="62.764633"
             xlink:href="#equation_07_03"
             id="use1239" />
        </g>
      </g>
      <g
         transform="translate(67.52816,4.2449946)"
         id="equation_08"
         style="fill:#000000"
         title="\large$\tan x$">
        <defs
           id="defs1318">
          <path
             inkscape:connector-curvature="0"
             id="equation_08_00"
             d="m 4.614695,-3.19203 c 0,-0.645579 0,-1.123786 -0.526028,-1.590037 -0.41843,-0.382566 -0.956413,-0.549938 -1.48244,-0.549938 -0.980324,0 -1.7335,0.645579 -1.7335,1.422665 0,0.3467 0.227148,0.514072 0.502117,0.514072 0.286924,0 0.490162,-0.203238 0.490162,-0.490162 0,-0.490162 -0.430386,-0.490162 -0.609713,-0.490162 0.274969,-0.502117 0.848817,-0.71731 1.327023,-0.71731 0.549938,0 1.255293,0.454297 1.255293,1.530262 v 0.478207 c -2.402989,0.035865 -3.311582,1.040099 -3.311582,1.960647 0,0.944458 1.099876,1.243338 1.829141,1.243338 0.789041,0 1.327024,-0.478207 1.554172,-1.052055 0.047821,0.561893 0.418431,0.992279 0.932503,0.992279 0.251059,0 0.944458,-0.167373 0.944458,-1.123786 V -1.733499 H 5.523288 v 0.669489 c 0,0.681445 -0.286924,0.777086 -0.454297,0.777086 -0.454296,0 -0.454296,-0.633624 -0.454296,-0.812951 z m -0.777086,1.506351 c 0,1.171607 -0.872727,1.566127 -1.3868,1.566127 -0.585803,0 -1.075965,-0.430386 -1.075965,-1.004234 0,-1.578082 2.032379,-1.721544 2.462765,-1.745454 z" />
          <path
             inkscape:connector-curvature="0"
             id="equation_08_01"
             d="m 5.32005,-2.905106 c 0,-1.11183 0,-1.446575 -0.274969,-1.829141 -0.3467,-0.466251 -0.908593,-0.537982 -1.315069,-0.537982 -1.159651,0 -1.613947,0.992279 -1.709589,1.231382 H 2.008468 v -1.231382 l -1.625903,0.131507 v 0.3467 c 0.812952,0 0.908593,0.083686 0.908593,0.669489 v 3.239851 c 0,0.537982 -0.131507,0.537982 -0.908593,0.537982 V 0 c 0.310835,-0.02391 0.956414,-0.02391 1.291159,-0.02391 0.346699,0 0.992278,0 1.303113,0.02391 v -0.3467 c -0.765131,0 -0.908593,0 -0.908593,-0.537982 v -2.223662 c 0,-1.255292 0.824907,-1.924782 1.566127,-1.924782 0.74122,0 0.908593,0.609714 0.908593,1.338979 v 2.809465 c 0,0.537982 -0.131507,0.537982 -0.908593,0.537982 V 0 c 0.310834,-0.02391 0.956414,-0.02391 1.291158,-0.02391 0.3467,0 0.992279,0 1.303114,0.02391 v -0.3467 c -0.597759,0 -0.896638,0 -0.908593,-0.358655 z" />
          <path
             inkscape:connector-curvature="0"
             id="equation_08_02"
             d="M 2.008468,-4.805978 H 3.694147 V -5.152677 H 2.008468 V -7.352428 H 1.745455 c -0.011956,1.123785 -0.442342,2.271482 -1.530262,2.307347 v 0.239103 h 1.016189 v 3.323537 c 0,1.327024 0.884683,1.601993 1.518307,1.601993 0.753175,0 1.147696,-0.741221 1.147696,-1.601993 V -2.163885 H 3.634371 v 0.657534 c 0,0.860772 -0.3467,1.362889 -0.812951,1.362889 -0.812952,0 -0.812952,-1.111831 -0.812952,-1.315069 z" />
          <path
             inkscape:connector-curvature="0"
             id="equation_08_03"
             d="m 5.66675,-4.877709 c -0.382566,0.071731 -0.526028,0.358655 -0.526028,0.585804 0,0.286924 0.227148,0.382565 0.394521,0.382565 0.358655,0 0.609713,-0.310834 0.609713,-0.633624 0,-0.502117 -0.573848,-0.729265 -1.075965,-0.729265 -0.729265,0 -1.135741,0.71731 -1.243337,0.944458 -0.274969,-0.896637 -1.016189,-0.944458 -1.231383,-0.944458 -1.219427,0 -1.865006,1.566127 -1.865006,1.829141 0,0.04782 0.047821,0.107596 0.131507,0.107596 0.095641,0 0.119552,-0.071731 0.143462,-0.119552 0.406476,-1.327023 1.207472,-1.578082 1.554172,-1.578082 0.537983,0 0.645579,0.502117 0.645579,0.789041 0,0.263014 -0.071731,0.537983 -0.215193,1.111831 l -0.406476,1.637858 c -0.179327,0.71731 -0.526027,1.374844 -1.159651,1.374844 -0.059776,0 -0.358655,0 -0.609714,-0.155417 0.430386,-0.083686 0.526028,-0.442341 0.526028,-0.585803 0,-0.239103 -0.179328,-0.382565 -0.406476,-0.382565 -0.286924,0 -0.597758,0.251058 -0.597758,0.633623 0,0.502117 0.561893,0.729266 1.075965,0.729266 0.573848,0 0.980324,-0.454297 1.231382,-0.944459 0.191283,0.705355 0.789041,0.944459 1.231382,0.944459 1.219428,0 1.865007,-1.566127 1.865007,-1.829141 0,-0.059776 -0.047821,-0.107597 -0.119552,-0.107597 -0.107596,0 -0.119552,0.059776 -0.155417,0.155418 -0.32279,1.052054 -1.016189,1.542216 -1.554172,1.542216 -0.418431,0 -0.645579,-0.310834 -0.645579,-0.800996 0,-0.263014 0.047821,-0.454296 0.239103,-1.243337 l 0.418431,-1.625903 c 0.179328,-0.71731 0.585803,-1.243338 1.135741,-1.243338 0.02391,0 0.358655,0 0.609714,0.155417 z" />
        </defs>
        <g
           id="equation_08_g">
          <use
             height="100%"
             width="100%"
             x="76.712326"
             y="62.764633"
             xlink:href="#equation_08_02"
             id="use1320" />
          <use
             height="100%"
             width="100%"
             x="81.264656"
             y="62.764633"
             xlink:href="#equation_08_00"
             id="use1322" />
          <use
             height="100%"
             width="100%"
             x="87.117645"
             y="62.764633"
             xlink:href="#equation_08_01"
             id="use1324" />
          <use
             height="100%"
             width="100%"
             x="95.613464"
             y="62.764633"
             xlink:href="#equation_08_03"
             id="use1326" />
        </g>
      </g>
      <g
         transform="translate(39.691241,20.012399)"
         id="equation_09"
         style="fill:#000000"
         title="\large$x$">
        <defs
           id="defs1413">
          <path
             inkscape:connector-curvature="0"
             id="equation_09_00"
             d="m 5.66675,-4.877709 c -0.382566,0.071731 -0.526028,0.358655 -0.526028,0.585804 0,0.286924 0.227148,0.382565 0.394521,0.382565 0.358655,0 0.609713,-0.310834 0.609713,-0.633624 0,-0.502117 -0.573848,-0.729265 -1.075965,-0.729265 -0.729265,0 -1.135741,0.71731 -1.243337,0.944458 -0.274969,-0.896637 -1.016189,-0.944458 -1.231383,-0.944458 -1.219427,0 -1.865006,1.566127 -1.865006,1.829141 0,0.04782 0.047821,0.107596 0.131507,0.107596 0.095641,0 0.119552,-0.071731 0.143462,-0.119552 0.406476,-1.327023 1.207472,-1.578082 1.554172,-1.578082 0.537983,0 0.645579,0.502117 0.645579,0.789041 0,0.263014 -0.071731,0.537983 -0.215193,1.111831 l -0.406476,1.637858 c -0.179327,0.71731 -0.526027,1.374844 -1.159651,1.374844 -0.059776,0 -0.358655,0 -0.609714,-0.155417 0.430386,-0.083686 0.526028,-0.442341 0.526028,-0.585803 0,-0.239103 -0.179328,-0.382565 -0.406476,-0.382565 -0.286924,0 -0.597758,0.251058 -0.597758,0.633623 0,0.502117 0.561893,0.729266 1.075965,0.729266 0.573848,0 0.980324,-0.454297 1.231382,-0.944459 0.191283,0.705355 0.789041,0.944459 1.231382,0.944459 1.219428,0 1.865007,-1.566127 1.865007,-1.829141 0,-0.059776 -0.047821,-0.107597 -0.119552,-0.107597 -0.107596,0 -0.119552,0.059776 -0.155417,0.155418 -0.32279,1.052054 -1.016189,1.542216 -1.554172,1.542216 -0.418431,0 -0.645579,-0.310834 -0.645579,-0.800996 0,-0.263014 0.047821,-0.454296 0.239103,-1.243337 l 0.418431,-1.625903 c 0.179328,-0.71731 0.585803,-1.243338 1.135741,-1.243338 0.02391,0 0.358655,0 0.609714,0.155417 z" />
        </defs>
        <g
           id="equation_09_g">
          <use
             height="100%"
             width="100%"
             x="76.712326"
             y="62.764633"
             xlink:href="#equation_09_00"
             id="use1415" />
        </g>
      </g>
    </g>
    <path
       style="fill:none;stroke:#000000;stroke-width:0.26458332px;stroke-linecap:butt;stroke-linejoin:miter;stroke-opacity:1"
       d="m 39.6875,122.37499 c 0,-15.875 7.937499,-23.812501 7.937499,-23.812501"
       id="path1429"
       inkscape:connector-curvature="0"
       inkscape:export-filename="C:\Users\h-nakashima\path817.png"
       inkscape:export-xdpi="300.10001"
       inkscape:export-ydpi="300.10001" />
    <path
       style="fill:none;stroke:#000000;stroke-width:0.26458332px;stroke-linecap:butt;stroke-linejoin:miter;stroke-opacity:1"
       d="M 103.1875,42.99999 C 92.604166,45.645823 84.666666,53.583323 84.666666,53.583323"
       id="path1431"
       inkscape:connector-curvature="0"
       inkscape:export-filename="C:\Users\h-nakashima\path817.png"
       inkscape:export-xdpi="300.10001"
       inkscape:export-ydpi="300.10001" />
    <path
       style="fill:none;stroke:#000000;stroke-width:0.26458332px;stroke-linecap:butt;stroke-linejoin:miter;stroke-opacity:1"
       d="M 84.666666,53.583323 Z"
       id="path1433"
       inkscape:connector-curvature="0"
       inkscape:export-filename="C:\Users\h-nakashima\path817.png"
       inkscape:export-xdpi="300.10001"
       inkscape:export-ydpi="300.10001" />
    <path
       style="fill:none;stroke:#000000;stroke-width:0.26458332px;stroke-linecap:butt;stroke-linejoin:miter;stroke-opacity:1"
       d="m 103.1875,122.37499 c -7.937501,-7.9375 -7.937501,-13.22917 -7.937501,-13.22917"
       id="path1435"
       inkscape:connector-curvature="0"
       inkscape:export-filename="C:\Users\h-nakashima\path817.png"
       inkscape:export-xdpi="300.10001"
       inkscape:export-ydpi="300.10001" />
    <path
       style="fill:none;stroke:#000000;stroke-width:0.26458332px;stroke-linecap:butt;stroke-linejoin:miter;stroke-opacity:1"
       d="M 103.1875,42.99999 C 95.249999,56.229157 95.249999,64.166657 95.249999,64.166657"
       id="path1437"
       inkscape:connector-curvature="0"
       inkscape:export-filename="C:\Users\h-nakashima\path817.png"
       inkscape:export-xdpi="300.10001"
       inkscape:export-ydpi="300.10001" />
    <path
       style="fill:none;stroke:#000000;stroke-width:0.26458332px;stroke-linecap:butt;stroke-linejoin:miter;stroke-opacity:1"
       d="m 103.1875,43.801799 c 1.32292,5.291667 5.29167,10.583333 5.29167,10.583333"
       id="path1439"
       inkscape:connector-curvature="0"
       inkscape:export-filename="C:\Users\h-nakashima\path817.png"
       inkscape:export-xdpi="300.10001"
       inkscape:export-ydpi="300.10001" />
    <path
       style="fill:none;stroke:#000000;stroke-width:0.26458332px;stroke-linecap:butt;stroke-linejoin:miter;stroke-opacity:1"
       d="m 137.58333,122.37499 c -7.9375,-7.9375 -7.9375,-15.875 -7.9375,-15.875 v 0"
       id="path1441"
       inkscape:connector-curvature="0"
       inkscape:export-filename="C:\Users\h-nakashima\path817.png"
       inkscape:export-xdpi="300.10001"
       inkscape:export-ydpi="300.10001" />
    <path
       style="fill:none;stroke:#000000;stroke-width:0.26458332px;stroke-linecap:butt;stroke-linejoin:miter;stroke-opacity:1"
       d="m 137.58333,122.37499 c 10.58333,-5.29167 10.58333,-15.875 10.58333,-15.875"
       id="path1443"
       inkscape:connector-curvature="0"
       inkscape:export-filename="C:\Users\h-nakashima\path817.png"
       inkscape:export-xdpi="300.10001"
       inkscape:export-ydpi="300.10001" />
    <path
       style="fill:none;stroke:#000000;stroke-width:0.26458332px;stroke-linecap:butt;stroke-linejoin:miter;stroke-opacity:1"
       d="M 137.58333,3.3124915 C 148.16666,13.895825 148.16666,24.479158 148.16666,24.479158"
       id="path1445"
       inkscape:connector-curvature="0"
       inkscape:export-filename="C:\Users\h-nakashima\path817.png"
       inkscape:export-xdpi="300.10001"
       inkscape:export-ydpi="300.10001" />
  </g>
</svg>
