<?xml version="1.0" encoding="UTF-8" standalone="no"?>
<!-- Created with Inkscape (http://www.inkscape.org/) -->

<svg
   xmlns:dc="http://purl.org/dc/elements/1.1/"
   xmlns:cc="http://creativecommons.org/ns#"
   xmlns:rdf="http://www.w3.org/1999/02/22-rdf-syntax-ns#"
   xmlns:svg="http://www.w3.org/2000/svg"
   xmlns="http://www.w3.org/2000/svg"
   xmlns:xlink="http://www.w3.org/1999/xlink"
   xmlns:sodipodi="http://sodipodi.sourceforge.net/DTD/sodipodi-0.dtd"
   xmlns:inkscape="http://www.inkscape.org/namespaces/inkscape"
   id="svg8"
   version="1.1"
   viewBox="0 0 210 297"
   height="297mm"
   width="210mm"
   inkscape:version="0.92.4 (5da689c313, 2019-01-14)"
   sodipodi:docname="不連続関数.svg">
  <defs
     id="defs2">
    <marker
       inkscape:isstock="true"
       style="overflow:visible;"
       id="marker1107"
       refX="0.0"
       refY="0.0"
       orient="auto"
       inkscape:stockid="Arrow2Mend">
      <path
         transform="scale(0.6) rotate(180) translate(0,0)"
         d="M 8.7185878,4.0337352 L -2.2072895,0.016013256 L 8.7185884,-4.0017078 C 6.9730900,-1.6296469 6.9831476,1.6157441 8.7185878,4.0337352 z "
         style="fill-rule:evenodd;stroke-width:0.625;stroke-linejoin:round;stroke:#000000;stroke-opacity:1;fill:#000000;fill-opacity:1"
         id="path1105" />
    </marker>
    <marker
       inkscape:stockid="Arrow2Mend"
       orient="auto"
       refY="0.0"
       refX="0.0"
       id="Arrow2Mend"
       style="overflow:visible;"
       inkscape:isstock="true"
       inkscape:collect="always">
      <path
         id="path850"
         style="fill-rule:evenodd;stroke-width:0.625;stroke-linejoin:round;stroke:#000000;stroke-opacity:1;fill:#000000;fill-opacity:1"
         d="M 8.7185878,4.0337352 L -2.2072895,0.016013256 L 8.7185884,-4.0017078 C 6.9730900,-1.6296469 6.9831476,1.6157441 8.7185878,4.0337352 z "
         transform="scale(0.6) rotate(180) translate(0,0)" />
    </marker>
    <marker
       inkscape:isstock="true"
       style="overflow:visible"
       id="marker1107-1"
       refX="0"
       refY="0"
       orient="auto"
       inkscape:stockid="Arrow2Mend">
      <path
         inkscape:connector-curvature="0"
         transform="scale(-0.6)"
         d="M 8.7185878,4.0337352 -2.2072895,0.01601326 8.7185884,-4.0017078 c -1.7454984,2.3720609 -1.7354408,5.6174519 -6e-7,8.035443 z"
         style="fill:#000000;fill-opacity:1;fill-rule:evenodd;stroke:#000000;stroke-width:0.625;stroke-linejoin:round;stroke-opacity:1"
         id="path1105-4" />
    </marker>
    <marker
       inkscape:stockid="Arrow2Mend"
       orient="auto"
       refY="0"
       refX="0"
       id="Arrow2Mend-6"
       style="overflow:visible"
       inkscape:isstock="true"
       inkscape:collect="always">
      <path
         inkscape:connector-curvature="0"
         id="path850-7"
         style="fill:#000000;fill-opacity:1;fill-rule:evenodd;stroke:#000000;stroke-width:0.625;stroke-linejoin:round;stroke-opacity:1"
         d="M 8.7185878,4.0337352 -2.2072895,0.01601326 8.7185884,-4.0017078 c -1.7454984,2.3720609 -1.7354408,5.6174519 -6e-7,8.035443 z"
         transform="scale(-0.6)" />
    </marker>
    <path
       d="m 5.66675,-4.877709 c -0.382566,0.071731 -0.526028,0.358655 -0.526028,0.585804 0,0.286924 0.227148,0.382565 0.394521,0.382565 0.358655,0 0.609713,-0.310834 0.609713,-0.633624 0,-0.502117 -0.573848,-0.729265 -1.075965,-0.729265 -0.729265,0 -1.135741,0.71731 -1.243337,0.944458 -0.274969,-0.896637 -1.016189,-0.944458 -1.231383,-0.944458 -1.219427,0 -1.865006,1.566127 -1.865006,1.829141 0,0.04782 0.047821,0.107596 0.131507,0.107596 0.095641,0 0.119552,-0.071731 0.143462,-0.119552 0.406476,-1.327023 1.207472,-1.578082 1.554172,-1.578082 0.537983,0 0.645579,0.502117 0.645579,0.789041 0,0.263014 -0.071731,0.537983 -0.215193,1.111831 l -0.406476,1.637858 c -0.179327,0.71731 -0.526027,1.374844 -1.159651,1.374844 -0.059776,0 -0.358655,0 -0.609714,-0.155417 0.430386,-0.083686 0.526028,-0.442341 0.526028,-0.585803 0,-0.239103 -0.179328,-0.382565 -0.406476,-0.382565 -0.286924,0 -0.597758,0.251058 -0.597758,0.633623 0,0.502117 0.561893,0.729266 1.075965,0.729266 0.573848,0 0.980324,-0.454297 1.231382,-0.944459 0.191283,0.705355 0.789041,0.944459 1.231382,0.944459 1.219428,0 1.865007,-1.566127 1.865007,-1.829141 0,-0.059776 -0.047821,-0.107597 -0.119552,-0.107597 -0.107596,0 -0.119552,0.059776 -0.155417,0.155418 -0.32279,1.052054 -1.016189,1.542216 -1.554172,1.542216 -0.418431,0 -0.645579,-0.310834 -0.645579,-0.800996 0,-0.263014 0.047821,-0.454296 0.239103,-1.243337 l 0.418431,-1.625903 c 0.179328,-0.71731 0.585803,-1.243338 1.135741,-1.243338 0.02391,0 0.358655,0 0.609714,0.155417 z"
       id="equation_00_00-9"
       inkscape:connector-curvature="0" />
    <path
       d="M 3.144209,1.338979 C 2.82142,1.793275 2.355168,2.199751 1.769365,2.199751 c -0.143462,0 -0.71731,-0.02391 -0.896638,-0.573848 0.035866,0.011955 0.095642,0.011955 0.119552,0.011955 0.358655,0 0.597758,-0.310834 0.597758,-0.585803 0,-0.274969 -0.227148,-0.37061 -0.406475,-0.37061 -0.191283,0 -0.609714,0.143462 -0.609714,0.729265 0,0.609713 0.514072,1.028144 1.195517,1.028144 1.195517,0 2.402989,-1.099875 2.737733,-2.426899 L 5.678705,-4.65056 C 5.69066,-4.710336 5.71457,-4.782067 5.71457,-4.853798 c 0,-0.179328 -0.143462,-0.298879 -0.322789,-0.298879 -0.107597,0 -0.358655,0.04782 -0.454297,0.406475 l -0.884682,3.51482 c -0.059776,0.215193 -0.059776,0.239103 -0.155417,0.37061 -0.239104,0.334745 -0.633624,0.74122 -1.207472,0.74122 -0.66949,0 -0.729265,-0.657534 -0.729265,-0.980323 0,-0.681445 0.322789,-1.601993 0.645579,-2.462765 0.131506,-0.3467 0.203238,-0.514072 0.203238,-0.753176 0,-0.502117 -0.358656,-0.956413 -0.944459,-0.956413 -1.099875,0 -1.542216,1.733499 -1.542216,1.829141 0,0.04782 0.04782,0.107596 0.131506,0.107596 0.107597,0 0.119552,-0.047821 0.167373,-0.215193 0.286924,-1.004234 0.74122,-1.482441 1.207472,-1.482441 0.107596,0 0.310834,0 0.310834,0.394521 0,0.310834 -0.131507,0.657534 -0.310834,1.11183 -0.585804,1.566127 -0.585804,1.960648 -0.585804,2.247572 0,1.135741 0.812952,1.398755 1.41071,1.398755 0.3467,0 0.777086,-0.107597 1.195517,-0.549938 l 0.011955,0.011955 C 3.682192,0.286924 3.56264,0.753176 3.144209,1.338979 Z"
       id="equation_01_00-1"
       inkscape:connector-curvature="0" />
    <path
       d="m 8.679452,-5.236364 c 0,-1.972602 -1.291158,-3.180074 -2.964882,-3.180074 -2.558406,0 -5.140722,2.749688 -5.140722,5.511332 0,1.876962 1.243338,3.156165 2.976837,3.156165 2.510585,0 5.128767,-2.618182 5.128767,-5.487423 z M 3.622416,-0.02391 c -0.980324,0 -2.020423,-0.71731 -2.020423,-2.582317 0,-1.08792 0.39452,-2.86924 1.374844,-4.064757 0.872727,-1.052055 1.876961,-1.482441 2.677958,-1.482441 1.052054,0 2.068244,0.765131 2.068244,2.486675 0,1.06401 -0.454297,2.725779 -1.255293,3.86152 -0.872727,1.219427 -1.960648,1.78132 -2.84533,1.78132 z"
       id="equation_02_00-1"
       inkscape:connector-curvature="0" />
  </defs>
  <sodipodi:namedview
     id="base"
     pagecolor="#ffffff"
     bordercolor="#666666"
     borderopacity="1.0"
     inkscape:pageopacity="0.0"
     inkscape:pageshadow="2"
     inkscape:zoom="0.49497475"
     inkscape:cx="-305.39408"
     inkscape:cy="1262.8379"
     inkscape:document-units="mm"
     inkscape:current-layer="layer1"
     showgrid="true"
     inkscape:window-width="1858"
     inkscape:window-height="1057"
     inkscape:window-x="-8"
     inkscape:window-y="-8"
     inkscape:window-maximized="1">
    <inkscape:grid
       type="xygrid"
       id="grid815" />
  </sodipodi:namedview>
  <metadata
     id="metadata5">
    <rdf:RDF>
      <cc:Work
         rdf:about="">
        <dc:format>image/svg+xml</dc:format>
        <dc:type
           rdf:resource="http://purl.org/dc/dcmitype/StillImage" />
        <dc:title></dc:title>
      </cc:Work>
    </rdf:RDF>
  </metadata>
  <g
     inkscape:label="レイヤー 1"
     inkscape:groupmode="layer"
     id="layer1">
    <rect
       style="opacity:0.37000002;fill:none;fill-opacity:1;stroke:#000000;stroke-width:0;stroke-linecap:butt;stroke-linejoin:round;stroke-miterlimit:4;stroke-dasharray:none;stroke-dashoffset:0;stroke-opacity:1;paint-order:normal"
       id="rect817"
       width="206.375"
       height="195.79167"
       x="5.2916665"
       y="0.66665828"
       inkscape:export-xdpi="300.10001"
       inkscape:export-ydpi="300.10001" />
    <path
       style="fill:none;stroke:#000000;stroke-width:1;stroke-linecap:butt;stroke-linejoin:miter;stroke-opacity:1;stroke-miterlimit:4;stroke-dasharray:none;marker-end:url(#marker1107)"
       d="m 5.2916666,101.20833 c 201.0833334,0 201.0833334,0 201.0833334,0"
       id="path819"
       inkscape:connector-curvature="0" />
    <path
       style="fill:none;stroke:#000000;stroke-width:1;stroke-linecap:butt;stroke-linejoin:miter;stroke-opacity:1;stroke-miterlimit:4;stroke-dasharray:none;marker-end:url(#Arrow2Mend)"
       d="m 105.83333,196.45833 c 0,-190.4999968 0,-190.4999968 0,-190.4999968"
       id="path821"
       inkscape:connector-curvature="0" />
    <g
       title="\large$x$"
       style="fill:#000000"
       id="equation_00"
       transform="translate(124.35791,49.116565)">
      <defs
         id="defs1145">
        <path
           d="m 5.66675,-4.877709 c -0.382566,0.071731 -0.526028,0.358655 -0.526028,0.585804 0,0.286924 0.227148,0.382565 0.394521,0.382565 0.358655,0 0.609713,-0.310834 0.609713,-0.633624 0,-0.502117 -0.573848,-0.729265 -1.075965,-0.729265 -0.729265,0 -1.135741,0.71731 -1.243337,0.944458 -0.274969,-0.896637 -1.016189,-0.944458 -1.231383,-0.944458 -1.219427,0 -1.865006,1.566127 -1.865006,1.829141 0,0.04782 0.047821,0.107596 0.131507,0.107596 0.095641,0 0.119552,-0.071731 0.143462,-0.119552 0.406476,-1.327023 1.207472,-1.578082 1.554172,-1.578082 0.537983,0 0.645579,0.502117 0.645579,0.789041 0,0.263014 -0.071731,0.537983 -0.215193,1.111831 l -0.406476,1.637858 c -0.179327,0.71731 -0.526027,1.374844 -1.159651,1.374844 -0.059776,0 -0.358655,0 -0.609714,-0.155417 0.430386,-0.083686 0.526028,-0.442341 0.526028,-0.585803 0,-0.239103 -0.179328,-0.382565 -0.406476,-0.382565 -0.286924,0 -0.597758,0.251058 -0.597758,0.633623 0,0.502117 0.561893,0.729266 1.075965,0.729266 0.573848,0 0.980324,-0.454297 1.231382,-0.944459 0.191283,0.705355 0.789041,0.944459 1.231382,0.944459 1.219428,0 1.865007,-1.566127 1.865007,-1.829141 0,-0.059776 -0.047821,-0.107597 -0.119552,-0.107597 -0.107596,0 -0.119552,0.059776 -0.155417,0.155418 -0.32279,1.052054 -1.016189,1.542216 -1.554172,1.542216 -0.418431,0 -0.645579,-0.310834 -0.645579,-0.800996 0,-0.263014 0.047821,-0.454296 0.239103,-1.243337 l 0.418431,-1.625903 c 0.179328,-0.71731 0.585803,-1.243338 1.135741,-1.243338 0.02391,0 0.358655,0 0.609714,0.155417 z"
           id="equation_00_00"
           inkscape:connector-curvature="0" />
      </defs>
      <g
         id="equation_00_g">
        <use
           id="use1147"
           xlink:href="#equation_00_00"
           y="62.764633"
           x="76.712326"
           width="100%"
           height="100%" />
      </g>
    </g>
    <g
       title="\large$y$"
       style="fill:#000000"
       id="equation_01"
       transform="translate(18.022458,-48.297321)">
      <defs
         id="defs1194">
        <path
           d="M 3.144209,1.338979 C 2.82142,1.793275 2.355168,2.199751 1.769365,2.199751 c -0.143462,0 -0.71731,-0.02391 -0.896638,-0.573848 0.035866,0.011955 0.095642,0.011955 0.119552,0.011955 0.358655,0 0.597758,-0.310834 0.597758,-0.585803 0,-0.274969 -0.227148,-0.37061 -0.406475,-0.37061 -0.191283,0 -0.609714,0.143462 -0.609714,0.729265 0,0.609713 0.514072,1.028144 1.195517,1.028144 1.195517,0 2.402989,-1.099875 2.737733,-2.426899 L 5.678705,-4.65056 C 5.69066,-4.710336 5.71457,-4.782067 5.71457,-4.853798 c 0,-0.179328 -0.143462,-0.298879 -0.322789,-0.298879 -0.107597,0 -0.358655,0.04782 -0.454297,0.406475 l -0.884682,3.51482 c -0.059776,0.215193 -0.059776,0.239103 -0.155417,0.37061 -0.239104,0.334745 -0.633624,0.74122 -1.207472,0.74122 -0.66949,0 -0.729265,-0.657534 -0.729265,-0.980323 0,-0.681445 0.322789,-1.601993 0.645579,-2.462765 0.131506,-0.3467 0.203238,-0.514072 0.203238,-0.753176 0,-0.502117 -0.358656,-0.956413 -0.944459,-0.956413 -1.099875,0 -1.542216,1.733499 -1.542216,1.829141 0,0.04782 0.04782,0.107596 0.131506,0.107596 0.107597,0 0.119552,-0.047821 0.167373,-0.215193 0.286924,-1.004234 0.74122,-1.482441 1.207472,-1.482441 0.107596,0 0.310834,0 0.310834,0.394521 0,0.310834 -0.131507,0.657534 -0.310834,1.11183 -0.585804,1.566127 -0.585804,1.960648 -0.585804,2.247572 0,1.135741 0.812952,1.398755 1.41071,1.398755 0.3467,0 0.777086,-0.107597 1.195517,-0.549938 l 0.011955,0.011955 C 3.682192,0.286924 3.56264,0.753176 3.144209,1.338979 Z"
           id="equation_01_00"
           inkscape:connector-curvature="0" />
      </defs>
      <g
         id="equation_01_g">
        <use
           id="use1196"
           xlink:href="#equation_01_00"
           y="62.764633"
           x="76.712326"
           width="100%"
           height="100%" />
      </g>
    </g>
    <g
       title="\large$O$"
       style="fill:#000000"
       id="equation_02"
       transform="translate(14.090832,53.528022)">
      <defs
         id="defs1248">
        <path
           d="m 8.679452,-5.236364 c 0,-1.972602 -1.291158,-3.180074 -2.964882,-3.180074 -2.558406,0 -5.140722,2.749688 -5.140722,5.511332 0,1.876962 1.243338,3.156165 2.976837,3.156165 2.510585,0 5.128767,-2.618182 5.128767,-5.487423 z M 3.622416,-0.02391 c -0.980324,0 -2.020423,-0.71731 -2.020423,-2.582317 0,-1.08792 0.39452,-2.86924 1.374844,-4.064757 0.872727,-1.052055 1.876961,-1.482441 2.677958,-1.482441 1.052054,0 2.068244,0.765131 2.068244,2.486675 0,1.06401 -0.454297,2.725779 -1.255293,3.86152 -0.872727,1.219427 -1.960648,1.78132 -2.84533,1.78132 z"
           id="equation_02_00"
           inkscape:connector-curvature="0" />
      </defs>
      <g
         id="equation_02_g">
        <use
           id="use1250"
           xlink:href="#equation_02_00"
           y="62.764633"
           x="76.712326"
           width="100%"
           height="100%" />
      </g>
    </g>
    <rect
       style="opacity:0.37000002;fill:none;fill-opacity:1;stroke:#000000;stroke-width:0;stroke-linecap:butt;stroke-linejoin:round;stroke-miterlimit:4;stroke-dasharray:none;stroke-dashoffset:0;stroke-opacity:1;paint-order:normal"
       id="rect817-2"
       width="206.375"
       height="195.79167"
       x="-206.21024"
       y="0.72039056"
       inkscape:export-xdpi="300.10001"
       inkscape:export-ydpi="300.10001" />
    <path
       style="fill:none;stroke:#000000;stroke-width:1;stroke-linecap:butt;stroke-linejoin:miter;stroke-miterlimit:4;stroke-dasharray:none;stroke-opacity:1;marker-end:url(#marker1107-1)"
       d="m -206.21101,101.26206 c 201.083207,0 201.083207,0 201.083207,0"
       id="path819-7"
       inkscape:connector-curvature="0" />
    <path
       style="fill:none;stroke:#000000;stroke-width:1;stroke-linecap:butt;stroke-linejoin:miter;stroke-miterlimit:4;stroke-dasharray:none;stroke-opacity:1;marker-end:url(#Arrow2Mend-6)"
       d="m -105.66935,196.51207 c 0,-190.5000039 0,-190.5000039 0,-190.5000039"
       id="path821-3"
       inkscape:connector-curvature="0" />
    <g
       title="\large$x$"
       style="fill:#000000"
       id="equation_00-5"
       transform="translate(-87.144795,49.170297)">
      <defs
         id="defs1145-0">
        <path
           d="m 5.66675,-4.877709 c -0.382566,0.071731 -0.526028,0.358655 -0.526028,0.585804 0,0.286924 0.227148,0.382565 0.394521,0.382565 0.358655,0 0.609713,-0.310834 0.609713,-0.633624 0,-0.502117 -0.573848,-0.729265 -1.075965,-0.729265 -0.729265,0 -1.135741,0.71731 -1.243337,0.944458 -0.274969,-0.896637 -1.016189,-0.944458 -1.231383,-0.944458 -1.219427,0 -1.865006,1.566127 -1.865006,1.829141 0,0.04782 0.047821,0.107596 0.131507,0.107596 0.095641,0 0.119552,-0.071731 0.143462,-0.119552 0.406476,-1.327023 1.207472,-1.578082 1.554172,-1.578082 0.537983,0 0.645579,0.502117 0.645579,0.789041 0,0.263014 -0.071731,0.537983 -0.215193,1.111831 l -0.406476,1.637858 c -0.179327,0.71731 -0.526027,1.374844 -1.159651,1.374844 -0.059776,0 -0.358655,0 -0.609714,-0.155417 0.430386,-0.083686 0.526028,-0.442341 0.526028,-0.585803 0,-0.239103 -0.179328,-0.382565 -0.406476,-0.382565 -0.286924,0 -0.597758,0.251058 -0.597758,0.633623 0,0.502117 0.561893,0.729266 1.075965,0.729266 0.573848,0 0.980324,-0.454297 1.231382,-0.944459 0.191283,0.705355 0.789041,0.944459 1.231382,0.944459 1.219428,0 1.865007,-1.566127 1.865007,-1.829141 0,-0.059776 -0.047821,-0.107597 -0.119552,-0.107597 -0.107596,0 -0.119552,0.059776 -0.155417,0.155418 -0.32279,1.052054 -1.016189,1.542216 -1.554172,1.542216 -0.418431,0 -0.645579,-0.310834 -0.645579,-0.800996 0,-0.263014 0.047821,-0.454296 0.239103,-1.243337 l 0.418431,-1.625903 c 0.179328,-0.71731 0.585803,-1.243338 1.135741,-1.243338 0.02391,0 0.358655,0 0.609714,0.155417 z"
           id="path1346"
           inkscape:connector-curvature="0" />
      </defs>
      <g
         id="equation_00_g-7">
        <use
           id="use1147-3"
           xlink:href="#equation_00_00-9"
           y="62.764633"
           x="76.712326"
           width="100%"
           height="100%" />
      </g>
    </g>
    <g
       title="\large$y$"
       style="fill:#000000"
       id="equation_01-3"
       transform="translate(-193.48022,-48.24359)">
      <defs
         id="defs1194-6">
        <path
           d="M 3.144209,1.338979 C 2.82142,1.793275 2.355168,2.199751 1.769365,2.199751 c -0.143462,0 -0.71731,-0.02391 -0.896638,-0.573848 0.035866,0.011955 0.095642,0.011955 0.119552,0.011955 0.358655,0 0.597758,-0.310834 0.597758,-0.585803 0,-0.274969 -0.227148,-0.37061 -0.406475,-0.37061 -0.191283,0 -0.609714,0.143462 -0.609714,0.729265 0,0.609713 0.514072,1.028144 1.195517,1.028144 1.195517,0 2.402989,-1.099875 2.737733,-2.426899 L 5.678705,-4.65056 C 5.69066,-4.710336 5.71457,-4.782067 5.71457,-4.853798 c 0,-0.179328 -0.143462,-0.298879 -0.322789,-0.298879 -0.107597,0 -0.358655,0.04782 -0.454297,0.406475 l -0.884682,3.51482 c -0.059776,0.215193 -0.059776,0.239103 -0.155417,0.37061 -0.239104,0.334745 -0.633624,0.74122 -1.207472,0.74122 -0.66949,0 -0.729265,-0.657534 -0.729265,-0.980323 0,-0.681445 0.322789,-1.601993 0.645579,-2.462765 0.131506,-0.3467 0.203238,-0.514072 0.203238,-0.753176 0,-0.502117 -0.358656,-0.956413 -0.944459,-0.956413 -1.099875,0 -1.542216,1.733499 -1.542216,1.829141 0,0.04782 0.04782,0.107596 0.131506,0.107596 0.107597,0 0.119552,-0.047821 0.167373,-0.215193 0.286924,-1.004234 0.74122,-1.482441 1.207472,-1.482441 0.107596,0 0.310834,0 0.310834,0.394521 0,0.310834 -0.131507,0.657534 -0.310834,1.11183 -0.585804,1.566127 -0.585804,1.960648 -0.585804,2.247572 0,1.135741 0.812952,1.398755 1.41071,1.398755 0.3467,0 0.777086,-0.107597 1.195517,-0.549938 l 0.011955,0.011955 C 3.682192,0.286924 3.56264,0.753176 3.144209,1.338979 Z"
           id="path1352"
           inkscape:connector-curvature="0" />
      </defs>
      <g
         id="equation_01_g-4">
        <use
           id="use1196-3"
           xlink:href="#equation_01_00-1"
           y="62.764633"
           x="76.712326"
           width="100%"
           height="100%" />
      </g>
    </g>
    <g
       title="\large$O$"
       style="fill:#000000"
       id="equation_02-8"
       transform="translate(-197.41184,53.581753)">
      <defs
         id="defs1248-1">
        <path
           d="m 8.679452,-5.236364 c 0,-1.972602 -1.291158,-3.180074 -2.964882,-3.180074 -2.558406,0 -5.140722,2.749688 -5.140722,5.511332 0,1.876962 1.243338,3.156165 2.976837,3.156165 2.510585,0 5.128767,-2.618182 5.128767,-5.487423 z M 3.622416,-0.02391 c -0.980324,0 -2.020423,-0.71731 -2.020423,-2.582317 0,-1.08792 0.39452,-2.86924 1.374844,-4.064757 0.872727,-1.052055 1.876961,-1.482441 2.677958,-1.482441 1.052054,0 2.068244,0.765131 2.068244,2.486675 0,1.06401 -0.454297,2.725779 -1.255293,3.86152 -0.872727,1.219427 -1.960648,1.78132 -2.84533,1.78132 z"
           id="path1358"
           inkscape:connector-curvature="0" />
      </defs>
      <g
         id="equation_02_g-9">
        <use
           id="use1250-9"
           xlink:href="#equation_02_00-1"
           y="62.764633"
           x="76.712326"
           width="100%"
           height="100%" />
      </g>
    </g>
    <path
       style="fill:none;stroke:#000000;stroke-width:0.8;stroke-linecap:butt;stroke-linejoin:miter;stroke-opacity:1;stroke-miterlimit:4;stroke-dasharray:none"
       d="m 105.83333,64.166657 c 100.54167,0 100.54167,0 100.54167,0"
       id="path1388"
       inkscape:connector-curvature="0" />
    <path
       style="fill:none;stroke:#000000;stroke-width:0.80000001;stroke-linecap:butt;stroke-linejoin:miter;stroke-miterlimit:4;stroke-dasharray:none;stroke-opacity:1"
       d="m 4.762495,140.89582 c 100.541615,0 100.541615,0 100.541615,0"
       id="path1388-4"
       inkscape:connector-curvature="0" />
    <path
       style="fill:none;stroke:#000000;stroke-width:0.80000001;stroke-linecap:butt;stroke-linejoin:miter;stroke-miterlimit:4;stroke-dasharray:none;stroke-opacity:1"
       d="m -104.77503,64.166656 c 100.5416972,0 100.5416972,0 100.5416972,0"
       id="path1388-0"
       inkscape:connector-curvature="0" />
    <path
       style="fill:none;stroke:#000000;stroke-width:0.80000001;stroke-linecap:butt;stroke-linejoin:miter;stroke-miterlimit:4;stroke-dasharray:none;stroke-opacity:1"
       d="m -206.90421,64.166656 c 100.54167,0 100.54167,0 100.54167,0"
       id="path1388-3"
       inkscape:connector-curvature="0" />
    <path
       style="opacity:1;fill:#fffff6;fill-opacity:1;stroke:#000000;stroke-width:0.80000001;stroke-linecap:butt;stroke-linejoin:round;stroke-miterlimit:4;stroke-dasharray:none;stroke-dashoffset:0;stroke-opacity:1;paint-order:normal"
       id="path1419"
       sodipodi:type="arc"
       sodipodi:cx="-105.69969"
       sodipodi:cy="64.166656"
       sodipodi:rx="2.6458333"
       sodipodi:ry="2.6458333"
       sodipodi:start="0"
       sodipodi:end="6.2831679"
       sodipodi:open="true"
       d="m -103.05386,64.166656 a 2.6458333,2.6458333 0 0 1 -2.64582,2.645834 2.6458333,2.6458333 0 0 1 -2.64585,-2.64581 2.6458333,2.6458333 0 0 1 2.6458,-2.645857 2.6458333,2.6458333 0 0 1 2.64587,2.645787" />
    <path
       style="opacity:1;fill:#fffff6;fill-opacity:1;stroke:#000000;stroke-width:0.80000001;stroke-linecap:butt;stroke-linejoin:round;stroke-miterlimit:4;stroke-dasharray:none;stroke-dashoffset:0;stroke-opacity:1;paint-order:normal"
       id="path1419-5"
       sodipodi:type="arc"
       sodipodi:cx="105.83334"
       sodipodi:cy="64.166656"
       sodipodi:rx="2.6458333"
       sodipodi:ry="2.6458333"
       sodipodi:start="0"
       sodipodi:end="6.2831679"
       sodipodi:open="true"
       d="m 108.47918,64.166656 a 2.6458333,2.6458333 0 0 1 -2.64582,2.645834 2.6458333,2.6458333 0 0 1 -2.64585,-2.64581 2.6458333,2.6458333 0 0 1 2.6458,-2.645857 2.6458333,2.6458333 0 0 1 2.64587,2.645787" />
    <path
       style="opacity:1;fill:#fffff6;fill-opacity:1;stroke:#000000;stroke-width:0.80000001;stroke-linecap:butt;stroke-linejoin:round;stroke-miterlimit:4;stroke-dasharray:none;stroke-dashoffset:0;stroke-opacity:1;paint-order:normal"
       id="path1419-2"
       sodipodi:type="arc"
       sodipodi:cx="105.83334"
       sodipodi:cy="140.89586"
       sodipodi:rx="2.6458333"
       sodipodi:ry="2.6458333"
       sodipodi:start="0"
       sodipodi:end="6.2831679"
       sodipodi:open="true"
       d="m 108.47918,140.89586 a 2.6458333,2.6458333 0 0 1 -2.64582,2.64583 2.6458333,2.6458333 0 0 1 -2.64585,-2.64581 2.6458333,2.6458333 0 0 1 2.6458,-2.64585 2.6458333,2.6458333 0 0 1 2.64587,2.64578" />
    <path
       style="opacity:1;fill:#000000;fill-opacity:1;stroke:#000000;stroke-width:0.80000001;stroke-linecap:butt;stroke-linejoin:round;stroke-miterlimit:4;stroke-dasharray:none;stroke-dashoffset:0;stroke-opacity:1;paint-order:normal"
       id="path1419-6"
       sodipodi:type="arc"
       sodipodi:cx="105.83334"
       sodipodi:cy="101.20832"
       sodipodi:rx="2.6458333"
       sodipodi:ry="2.6458333"
       sodipodi:start="0"
       sodipodi:end="6.2831679"
       sodipodi:open="true"
       d="m 108.47918,101.20832 a 2.6458333,2.6458333 0 0 1 -2.64582,2.64583 2.6458333,2.6458333 0 0 1 -2.64585,-2.64581 2.6458333,2.6458333 0 0 1 2.6458,-2.645853 2.6458333,2.6458333 0 0 1 2.64587,2.645783" />
    <path
       style="opacity:1;fill:#000000;fill-opacity:1;stroke:#000000;stroke-width:0.80000001;stroke-linecap:butt;stroke-linejoin:round;stroke-miterlimit:4;stroke-dasharray:none;stroke-dashoffset:0;stroke-opacity:1;paint-order:normal"
       id="path1419-6-3"
       sodipodi:type="arc"
       sodipodi:cx="-105.66631"
       sodipodi:cy="101.25842"
       sodipodi:rx="2.6458333"
       sodipodi:ry="2.6458333"
       sodipodi:start="0"
       sodipodi:end="6.2831679"
       sodipodi:open="true"
       d="m -103.02048,101.25842 a 2.6458333,2.6458333 0 0 1 -2.64582,2.64584 2.6458333,2.6458333 0 0 1 -2.64585,-2.64581 2.6458333,2.6458333 0 0 1 2.6458,-2.64586 2.6458333,2.6458333 0 0 1 2.64587,2.64579" />
    <g
       title="\large$1$"
       style="fill:#000000"
       id="equation_03"
       transform="translate(-191.65965,-4.6250084)">
      <defs
         id="defs1524">
        <path
           d="m 3.443088,-7.663263 c 0,-0.274969 0,-0.286924 -0.239103,-0.286924 -0.286924,0.32279 -0.884682,0.765131 -2.116065,0.765131 v 0.3467 c 0.274969,0 0.872728,0 1.530262,-0.310835 v 6.228643 c 0,0.430386 -0.035866,0.573848 -1.08792,0.573848 H 1.159651 V 0 c 0.32279,-0.02391 1.482441,-0.02391 1.876962,-0.02391 0.394521,0 1.542216,0 1.865006,0.02391 v -0.3467 h -0.37061 c -1.052055,0 -1.087921,-0.143462 -1.087921,-0.573848 z"
           id="equation_03_00"
           inkscape:connector-curvature="0" />
      </defs>
      <g
         id="equation_03_g">
        <use
           id="use1526"
           xlink:href="#equation_03_00"
           y="62.764633"
           x="76.712326"
           width="100%"
           height="100%" />
      </g>
    </g>
    <g
       title="\large$1$"
       style="fill:#000000"
       id="equation_04"
       transform="translate(12.671015,3.3251786)">
      <defs
         id="defs1604">
        <path
           d="m 3.443088,-7.663263 c 0,-0.274969 0,-0.286924 -0.239103,-0.286924 -0.286924,0.32279 -0.884682,0.765131 -2.116065,0.765131 v 0.3467 c 0.274969,0 0.872728,0 1.530262,-0.310835 v 6.228643 c 0,0.430386 -0.035866,0.573848 -1.08792,0.573848 H 1.159651 V 0 c 0.32279,-0.02391 1.482441,-0.02391 1.876962,-0.02391 0.394521,0 1.542216,0 1.865006,0.02391 v -0.3467 h -0.37061 c -1.052055,0 -1.087921,-0.143462 -1.087921,-0.573848 z"
           id="equation_04_00"
           inkscape:connector-curvature="0" />
      </defs>
      <g
         id="equation_04_g">
        <use
           id="use1606"
           xlink:href="#equation_04_00"
           y="62.764633"
           x="76.712326"
           width="100%"
           height="100%" />
      </g>
    </g>
    <g
       title="\large$-1$"
       style="fill:#000000"
       id="equation_05"
       transform="translate(34.454877,82.791347)">
      <defs
         id="defs1690">
        <path
           d="m 7.878456,-2.749689 c 0.203238,0 0.418431,0 0.418431,-0.239103 0,-0.239103 -0.215193,-0.239103 -0.418431,-0.239103 H 1.41071 c -0.203238,0 -0.418431,0 -0.418431,0.239103 0,0.239103 0.215193,0.239103 0.418431,0.239103 z"
           id="equation_05_00"
           inkscape:connector-curvature="0" />
        <path
           d="m 3.443088,-7.663263 c 0,-0.274969 0,-0.286924 -0.239103,-0.286924 -0.286924,0.32279 -0.884682,0.765131 -2.116065,0.765131 v 0.3467 c 0.274969,0 0.872728,0 1.530262,-0.310835 v 6.228643 c 0,0.430386 -0.035866,0.573848 -1.08792,0.573848 H 1.159651 V 0 c 0.32279,-0.02391 1.482441,-0.02391 1.876962,-0.02391 0.394521,0 1.542216,0 1.865006,0.02391 v -0.3467 h -0.37061 c -1.052055,0 -1.087921,-0.143462 -1.087921,-0.573848 z"
           id="equation_05_01"
           inkscape:connector-curvature="0" />
      </defs>
      <g
         id="equation_05_g">
        <use
           id="use1692"
           xlink:href="#equation_05_00"
           y="62.764633"
           x="76.712326"
           width="100%"
           height="100%" />
        <use
           id="use1694"
           xlink:href="#equation_05_01"
           y="62.764633"
           x="86.010826"
           width="100%"
           height="100%" />
      </g>
    </g>
    <g
       title="\large$y=f_1(x)$"
       style="fill:#000000"
       id="equation_06"
       transform="translate(-129.77807,-40.016862)">
      <defs
         id="defs1792">
        <path
           d="m 5.332005,-4.805978 c 0.239103,0 0.334745,0 0.334745,-0.227148 0,-0.119551 -0.095642,-0.119551 -0.310835,-0.119551 H 4.387547 c 0.227148,-1.231383 0.39452,-2.0802 0.490162,-2.462765 0.071731,-0.286924 0.322789,-0.561893 0.633624,-0.561893 0.251058,0 0.502117,0.107597 0.621668,0.215193 -0.466251,0.047821 -0.609713,0.394521 -0.609713,0.597758 0,0.239104 0.179327,0.382566 0.406475,0.382566 0.239104,0 0.597759,-0.203238 0.597759,-0.657534 0,-0.502117 -0.502117,-0.777086 -1.028145,-0.777086 -0.514072,0 -1.016189,0.382565 -1.255292,0.848817 -0.215193,0.41843 -0.334745,0.848817 -0.609714,2.414944 H 2.833375 c -0.227148,0 -0.3467,0 -0.3467,0.215193 0,0.131506 0.071731,0.131506 0.310834,0.131506 H 3.56264 c -0.215193,1.111831 -0.705355,3.813699 -0.980324,5.092902 -0.203238,1.0401 -0.382565,1.912827 -0.980323,1.912827 -0.035866,0 -0.382566,0 -0.597759,-0.227148 C 1.613948,1.924782 1.613948,1.398755 1.613948,1.3868 c 0,-0.239104 -0.179328,-0.382566 -0.406476,-0.382566 -0.239103,0 -0.597758,0.203238 -0.597758,0.657534 0,0.514073 0.526027,0.777086 0.992279,0.777086 1.219427,0 1.721544,-2.187795 1.853051,-2.785554 0.215193,-0.920548 0.800996,-4.100623 0.860772,-4.459278 z"
           id="equation_06_00"
           inkscape:connector-curvature="0" />
        <path
           d="m 5.66675,-4.877709 c -0.382566,0.071731 -0.526028,0.358655 -0.526028,0.585804 0,0.286924 0.227148,0.382565 0.394521,0.382565 0.358655,0 0.609713,-0.310834 0.609713,-0.633624 0,-0.502117 -0.573848,-0.729265 -1.075965,-0.729265 -0.729265,0 -1.135741,0.71731 -1.243337,0.944458 -0.274969,-0.896637 -1.016189,-0.944458 -1.231383,-0.944458 -1.219427,0 -1.865006,1.566127 -1.865006,1.829141 0,0.04782 0.047821,0.107596 0.131507,0.107596 0.095641,0 0.119552,-0.071731 0.143462,-0.119552 0.406476,-1.327023 1.207472,-1.578082 1.554172,-1.578082 0.537983,0 0.645579,0.502117 0.645579,0.789041 0,0.263014 -0.071731,0.537983 -0.215193,1.111831 l -0.406476,1.637858 c -0.179327,0.71731 -0.526027,1.374844 -1.159651,1.374844 -0.059776,0 -0.358655,0 -0.609714,-0.155417 0.430386,-0.083686 0.526028,-0.442341 0.526028,-0.585803 0,-0.239103 -0.179328,-0.382565 -0.406476,-0.382565 -0.286924,0 -0.597758,0.251058 -0.597758,0.633623 0,0.502117 0.561893,0.729266 1.075965,0.729266 0.573848,0 0.980324,-0.454297 1.231382,-0.944459 0.191283,0.705355 0.789041,0.944459 1.231382,0.944459 1.219428,0 1.865007,-1.566127 1.865007,-1.829141 0,-0.059776 -0.047821,-0.107597 -0.119552,-0.107597 -0.107596,0 -0.119552,0.059776 -0.155417,0.155418 -0.32279,1.052054 -1.016189,1.542216 -1.554172,1.542216 -0.418431,0 -0.645579,-0.310834 -0.645579,-0.800996 0,-0.263014 0.047821,-0.454296 0.239103,-1.243337 l 0.418431,-1.625903 c 0.179328,-0.71731 0.585803,-1.243338 1.135741,-1.243338 0.02391,0 0.358655,0 0.609714,0.155417 z"
           id="equation_06_01"
           inkscape:connector-curvature="0" />
        <path
           d="M 3.144209,1.338979 C 2.82142,1.793275 2.355168,2.199751 1.769365,2.199751 c -0.143462,0 -0.71731,-0.02391 -0.896638,-0.573848 0.035866,0.011955 0.095642,0.011955 0.119552,0.011955 0.358655,0 0.597758,-0.310834 0.597758,-0.585803 0,-0.274969 -0.227148,-0.37061 -0.406475,-0.37061 -0.191283,0 -0.609714,0.143462 -0.609714,0.729265 0,0.609713 0.514072,1.028144 1.195517,1.028144 1.195517,0 2.402989,-1.099875 2.737733,-2.426899 L 5.678705,-4.65056 C 5.69066,-4.710336 5.71457,-4.782067 5.71457,-4.853798 c 0,-0.179328 -0.143462,-0.298879 -0.322789,-0.298879 -0.107597,0 -0.358655,0.04782 -0.454297,0.406475 l -0.884682,3.51482 c -0.059776,0.215193 -0.059776,0.239103 -0.155417,0.37061 -0.239104,0.334745 -0.633624,0.74122 -1.207472,0.74122 -0.66949,0 -0.729265,-0.657534 -0.729265,-0.980323 0,-0.681445 0.322789,-1.601993 0.645579,-2.462765 0.131506,-0.3467 0.203238,-0.514072 0.203238,-0.753176 0,-0.502117 -0.358656,-0.956413 -0.944459,-0.956413 -1.099875,0 -1.542216,1.733499 -1.542216,1.829141 0,0.04782 0.04782,0.107596 0.131506,0.107596 0.107597,0 0.119552,-0.047821 0.167373,-0.215193 0.286924,-1.004234 0.74122,-1.482441 1.207472,-1.482441 0.107596,0 0.310834,0 0.310834,0.394521 0,0.310834 -0.131507,0.657534 -0.310834,1.11183 -0.585804,1.566127 -0.585804,1.960648 -0.585804,2.247572 0,1.135741 0.812952,1.398755 1.41071,1.398755 0.3467,0 0.777086,-0.107597 1.195517,-0.549938 l 0.011955,0.011955 C 3.682192,0.286924 3.56264,0.753176 3.144209,1.338979 Z"
           id="equation_06_02"
           inkscape:connector-curvature="0" />
        <path
           d="m 3.88543,2.905106 c 0,-0.035866 0,-0.059776 -0.203238,-0.263014 C 2.486675,1.43462 1.817186,-0.537983 1.817186,-2.976837 c 0,-2.319302 0.561892,-4.315816 1.948692,-5.726525 0.119552,-0.107597 0.119552,-0.131507 0.119552,-0.167373 0,-0.071731 -0.059776,-0.095641 -0.107597,-0.095641 -0.155417,0 -1.135741,0.860772 -1.721544,2.032378 -0.609714,1.207472 -0.884683,2.486675 -0.884683,3.957161 0,1.06401 0.167373,2.486675 0.789042,3.765878 0.705354,1.43462 1.685678,2.211706 1.817185,2.211706 0.047821,0 0.107597,-0.02391 0.107597,-0.095641 z"
           id="equation_06_03"
           inkscape:connector-curvature="0" />
        <path
           d="m 3.371357,-2.976837 c 0,-0.908593 -0.119551,-2.391033 -0.789041,-3.777833 -0.705355,-1.43462 -1.685678,-2.211706 -1.817185,-2.211706 -0.047821,0 -0.107597,0.02391 -0.107597,0.095641 0,0.035866 0,0.059776 0.203238,0.263014 1.195517,1.207472 1.865006,3.180075 1.865006,5.618929 0,2.319303 -0.561893,4.315816 -1.948692,5.726525 C 0.657534,2.84533 0.657534,2.86924 0.657534,2.905106 c 0,0.071731 0.059776,0.095641 0.107597,0.095641 0.155417,0 1.135741,-0.860772 1.721544,-2.032378 0.609714,-1.219428 0.884682,-2.510586 0.884682,-3.945206 z"
           id="equation_06_04"
           inkscape:connector-curvature="0" />
        <path
           d="m 8.069738,-3.873474 c 0.167373,0 0.382566,0 0.382566,-0.215193 0,-0.227149 -0.203238,-0.227149 -0.382566,-0.227149 H 1.028144 c -0.167372,0 -0.382565,0 -0.382565,0.215193 0,0.227149 0.203238,0.227149 0.382565,0.227149 z m 0,2.223661 c 0.167373,0 0.382566,0 0.382566,-0.215193 0,-0.227148 -0.203238,-0.227148 -0.382566,-0.227148 H 1.028144 c -0.167372,0 -0.382565,0 -0.382565,0.215193 0,0.227148 0.203238,0.227148 0.382565,0.227148 z"
           id="equation_06_05"
           inkscape:connector-curvature="0" />
        <path
           d="m 2.502615,-5.076961 c 0,-0.215193 -0.01594,-0.223164 -0.231133,-0.223164 -0.326775,0.318805 -0.749191,0.510088 -1.506351,0.510088 v 0.263013 c 0.215193,0 0.645579,0 1.107845,-0.215193 v 4.088668 c 0,0.294894 -0.02391,0.390535 -0.781071,0.390535 H 0.812951 V 0 c 0.326775,-0.02391 1.012205,-0.02391 1.37086,-0.02391 0.358655,0 1.052055,0 1.378829,0.02391 V -0.263014 H 3.283686 c -0.75716,0 -0.781071,-0.095641 -0.781071,-0.390535 z"
           id="equation_06_06"
           inkscape:connector-curvature="0" />
      </defs>
      <g
         id="equation_06_g">
        <use
           id="use1794"
           xlink:href="#equation_06_02"
           y="62.764633"
           x="76.712326"
           width="100%"
           height="100%" />
        <use
           id="use1796"
           xlink:href="#equation_06_05"
           y="62.764633"
           x="86.169807"
           width="100%"
           height="100%" />
        <use
           id="use1798"
           xlink:href="#equation_06_00"
           y="62.764633"
           x="98.595291"
           width="100%"
           height="100%" />
        <use
           id="use1800"
           xlink:href="#equation_06_06"
           y="64.557899"
           x="104.36528"
           width="100%"
           height="100%" />
        <use
           id="use1802"
           xlink:href="#equation_06_03"
           y="62.764633"
           x="109.0976"
           width="100%"
           height="100%" />
        <use
           id="use1804"
           xlink:href="#equation_06_01"
           y="62.764633"
           x="113.64992"
           width="100%"
           height="100%" />
        <use
           id="use1806"
           xlink:href="#equation_06_04"
           y="62.764633"
           x="120.30201"
           width="100%"
           height="100%" />
      </g>
    </g>
    <g
       title="\large$y=f_2(x)$"
       style="fill:#000000"
       id="equation_07"
       transform="translate(78.562049,-41.391706)">
      <defs
         id="defs2075">
        <path
           d="m 5.332005,-4.805978 c 0.239103,0 0.334745,0 0.334745,-0.227148 0,-0.119551 -0.095642,-0.119551 -0.310835,-0.119551 H 4.387547 c 0.227148,-1.231383 0.39452,-2.0802 0.490162,-2.462765 0.071731,-0.286924 0.322789,-0.561893 0.633624,-0.561893 0.251058,0 0.502117,0.107597 0.621668,0.215193 -0.466251,0.047821 -0.609713,0.394521 -0.609713,0.597758 0,0.239104 0.179327,0.382566 0.406475,0.382566 0.239104,0 0.597759,-0.203238 0.597759,-0.657534 0,-0.502117 -0.502117,-0.777086 -1.028145,-0.777086 -0.514072,0 -1.016189,0.382565 -1.255292,0.848817 -0.215193,0.41843 -0.334745,0.848817 -0.609714,2.414944 H 2.833375 c -0.227148,0 -0.3467,0 -0.3467,0.215193 0,0.131506 0.071731,0.131506 0.310834,0.131506 H 3.56264 c -0.215193,1.111831 -0.705355,3.813699 -0.980324,5.092902 -0.203238,1.0401 -0.382565,1.912827 -0.980323,1.912827 -0.035866,0 -0.382566,0 -0.597759,-0.227148 C 1.613948,1.924782 1.613948,1.398755 1.613948,1.3868 c 0,-0.239104 -0.179328,-0.382566 -0.406476,-0.382566 -0.239103,0 -0.597758,0.203238 -0.597758,0.657534 0,0.514073 0.526027,0.777086 0.992279,0.777086 1.219427,0 1.721544,-2.187795 1.853051,-2.785554 0.215193,-0.920548 0.800996,-4.100623 0.860772,-4.459278 z"
           id="equation_07_00"
           inkscape:connector-curvature="0" />
        <path
           d="m 5.66675,-4.877709 c -0.382566,0.071731 -0.526028,0.358655 -0.526028,0.585804 0,0.286924 0.227148,0.382565 0.394521,0.382565 0.358655,0 0.609713,-0.310834 0.609713,-0.633624 0,-0.502117 -0.573848,-0.729265 -1.075965,-0.729265 -0.729265,0 -1.135741,0.71731 -1.243337,0.944458 -0.274969,-0.896637 -1.016189,-0.944458 -1.231383,-0.944458 -1.219427,0 -1.865006,1.566127 -1.865006,1.829141 0,0.04782 0.047821,0.107596 0.131507,0.107596 0.095641,0 0.119552,-0.071731 0.143462,-0.119552 0.406476,-1.327023 1.207472,-1.578082 1.554172,-1.578082 0.537983,0 0.645579,0.502117 0.645579,0.789041 0,0.263014 -0.071731,0.537983 -0.215193,1.111831 l -0.406476,1.637858 c -0.179327,0.71731 -0.526027,1.374844 -1.159651,1.374844 -0.059776,0 -0.358655,0 -0.609714,-0.155417 0.430386,-0.083686 0.526028,-0.442341 0.526028,-0.585803 0,-0.239103 -0.179328,-0.382565 -0.406476,-0.382565 -0.286924,0 -0.597758,0.251058 -0.597758,0.633623 0,0.502117 0.561893,0.729266 1.075965,0.729266 0.573848,0 0.980324,-0.454297 1.231382,-0.944459 0.191283,0.705355 0.789041,0.944459 1.231382,0.944459 1.219428,0 1.865007,-1.566127 1.865007,-1.829141 0,-0.059776 -0.047821,-0.107597 -0.119552,-0.107597 -0.107596,0 -0.119552,0.059776 -0.155417,0.155418 -0.32279,1.052054 -1.016189,1.542216 -1.554172,1.542216 -0.418431,0 -0.645579,-0.310834 -0.645579,-0.800996 0,-0.263014 0.047821,-0.454296 0.239103,-1.243337 l 0.418431,-1.625903 c 0.179328,-0.71731 0.585803,-1.243338 1.135741,-1.243338 0.02391,0 0.358655,0 0.609714,0.155417 z"
           id="equation_07_01"
           inkscape:connector-curvature="0" />
        <path
           d="M 3.144209,1.338979 C 2.82142,1.793275 2.355168,2.199751 1.769365,2.199751 c -0.143462,0 -0.71731,-0.02391 -0.896638,-0.573848 0.035866,0.011955 0.095642,0.011955 0.119552,0.011955 0.358655,0 0.597758,-0.310834 0.597758,-0.585803 0,-0.274969 -0.227148,-0.37061 -0.406475,-0.37061 -0.191283,0 -0.609714,0.143462 -0.609714,0.729265 0,0.609713 0.514072,1.028144 1.195517,1.028144 1.195517,0 2.402989,-1.099875 2.737733,-2.426899 L 5.678705,-4.65056 C 5.69066,-4.710336 5.71457,-4.782067 5.71457,-4.853798 c 0,-0.179328 -0.143462,-0.298879 -0.322789,-0.298879 -0.107597,0 -0.358655,0.04782 -0.454297,0.406475 l -0.884682,3.51482 c -0.059776,0.215193 -0.059776,0.239103 -0.155417,0.37061 -0.239104,0.334745 -0.633624,0.74122 -1.207472,0.74122 -0.66949,0 -0.729265,-0.657534 -0.729265,-0.980323 0,-0.681445 0.322789,-1.601993 0.645579,-2.462765 0.131506,-0.3467 0.203238,-0.514072 0.203238,-0.753176 0,-0.502117 -0.358656,-0.956413 -0.944459,-0.956413 -1.099875,0 -1.542216,1.733499 -1.542216,1.829141 0,0.04782 0.04782,0.107596 0.131506,0.107596 0.107597,0 0.119552,-0.047821 0.167373,-0.215193 0.286924,-1.004234 0.74122,-1.482441 1.207472,-1.482441 0.107596,0 0.310834,0 0.310834,0.394521 0,0.310834 -0.131507,0.657534 -0.310834,1.11183 -0.585804,1.566127 -0.585804,1.960648 -0.585804,2.247572 0,1.135741 0.812952,1.398755 1.41071,1.398755 0.3467,0 0.777086,-0.107597 1.195517,-0.549938 l 0.011955,0.011955 C 3.682192,0.286924 3.56264,0.753176 3.144209,1.338979 Z"
           id="equation_07_02"
           inkscape:connector-curvature="0" />
        <path
           d="m 3.88543,2.905106 c 0,-0.035866 0,-0.059776 -0.203238,-0.263014 C 2.486675,1.43462 1.817186,-0.537983 1.817186,-2.976837 c 0,-2.319302 0.561892,-4.315816 1.948692,-5.726525 0.119552,-0.107597 0.119552,-0.131507 0.119552,-0.167373 0,-0.071731 -0.059776,-0.095641 -0.107597,-0.095641 -0.155417,0 -1.135741,0.860772 -1.721544,2.032378 -0.609714,1.207472 -0.884683,2.486675 -0.884683,3.957161 0,1.06401 0.167373,2.486675 0.789042,3.765878 0.705354,1.43462 1.685678,2.211706 1.817185,2.211706 0.047821,0 0.107597,-0.02391 0.107597,-0.095641 z"
           id="equation_07_03"
           inkscape:connector-curvature="0" />
        <path
           d="m 3.371357,-2.976837 c 0,-0.908593 -0.119551,-2.391033 -0.789041,-3.777833 -0.705355,-1.43462 -1.685678,-2.211706 -1.817185,-2.211706 -0.047821,0 -0.107597,0.02391 -0.107597,0.095641 0,0.035866 0,0.059776 0.203238,0.263014 1.195517,1.207472 1.865006,3.180075 1.865006,5.618929 0,2.319303 -0.561893,4.315816 -1.948692,5.726525 C 0.657534,2.84533 0.657534,2.86924 0.657534,2.905106 c 0,0.071731 0.059776,0.095641 0.107597,0.095641 0.155417,0 1.135741,-0.860772 1.721544,-2.032378 0.609714,-1.219428 0.884682,-2.510586 0.884682,-3.945206 z"
           id="equation_07_04"
           inkscape:connector-curvature="0" />
        <path
           d="m 8.069738,-3.873474 c 0.167373,0 0.382566,0 0.382566,-0.215193 0,-0.227149 -0.203238,-0.227149 -0.382566,-0.227149 H 1.028144 c -0.167372,0 -0.382565,0 -0.382565,0.215193 0,0.227149 0.203238,0.227149 0.382565,0.227149 z m 0,2.223661 c 0.167373,0 0.382566,0 0.382566,-0.215193 0,-0.227148 -0.203238,-0.227148 -0.382566,-0.227148 H 1.028144 c -0.167372,0 -0.382565,0 -0.382565,0.215193 0,0.227148 0.203238,0.227148 0.382565,0.227148 z"
           id="equation_07_05"
           inkscape:connector-curvature="0" />
        <path
           d="m 2.247572,-1.625903 c 0.127521,-0.119552 0.462266,-0.382565 0.589788,-0.494147 0.494147,-0.454296 0.964383,-0.892652 0.964383,-1.617933 0,-0.948443 -0.797011,-1.562142 -1.793275,-1.562142 -0.956413,0 -1.586052,0.725281 -1.586052,1.434621 0,0.390535 0.310834,0.446326 0.422416,0.446326 0.167372,0 0.414446,-0.119552 0.414446,-0.422416 0,-0.414446 -0.398506,-0.414446 -0.494147,-0.414446 0.231133,-0.581818 0.765131,-0.781071 1.155666,-0.781071 0.74122,0 1.123786,0.629639 1.123786,1.299128 0,0.828892 -0.581818,1.434621 -1.522292,2.399004 L 0.518057,-0.302864 C 0.422416,-0.215193 0.422416,-0.199253 0.422416,0 H 3.57061 L 3.801743,-1.42665 H 3.55467 c -0.02391,0.159402 -0.087671,0.557908 -0.183313,0.70934 -0.04782,0.063761 -0.653549,0.063761 -0.781071,0.063761 h -1.41868 z"
           id="equation_07_06"
           inkscape:connector-curvature="0" />
      </defs>
      <g
         id="equation_07_g">
        <use
           id="use2077"
           xlink:href="#equation_07_02"
           y="62.764633"
           x="76.712326"
           width="100%"
           height="100%" />
        <use
           id="use2079"
           xlink:href="#equation_07_05"
           y="62.764633"
           x="86.169807"
           width="100%"
           height="100%" />
        <use
           id="use2081"
           xlink:href="#equation_07_00"
           y="62.764633"
           x="98.595291"
           width="100%"
           height="100%" />
        <use
           id="use2083"
           xlink:href="#equation_07_06"
           y="64.557899"
           x="104.36528"
           width="100%"
           height="100%" />
        <use
           id="use2085"
           xlink:href="#equation_07_03"
           y="62.764633"
           x="109.0976"
           width="100%"
           height="100%" />
        <use
           id="use2087"
           xlink:href="#equation_07_01"
           y="62.764633"
           x="113.64992"
           width="100%"
           height="100%" />
        <use
           id="use2089"
           xlink:href="#equation_07_04"
           y="62.764633"
           x="120.30201"
           width="100%"
           height="100%" />
      </g>
    </g>
  </g>
</svg>
