<?xml version="1.0" encoding="UTF-8" standalone="no"?>
<!-- Created with Inkscape (http://www.inkscape.org/) -->

<svg
   xmlns:dc="http://purl.org/dc/elements/1.1/"
   xmlns:cc="http://creativecommons.org/ns#"
   xmlns:rdf="http://www.w3.org/1999/02/22-rdf-syntax-ns#"
   xmlns:svg="http://www.w3.org/2000/svg"
   xmlns="http://www.w3.org/2000/svg"
   xmlns:xlink="http://www.w3.org/1999/xlink"
   xmlns:sodipodi="http://sodipodi.sourceforge.net/DTD/sodipodi-0.dtd"
   xmlns:inkscape="http://www.inkscape.org/namespaces/inkscape"
   id="svg2783"
   version="1.1"
   viewBox="0 0 210 297"
   height="297mm"
   width="210mm"
   inkscape:version="0.92.4 (5da689c313, 2019-01-14)"
   sodipodi:docname="対数関数.svg">
  <defs
     id="defs2777">
    <marker
       inkscape:isstock="true"
       style="overflow:visible;"
       id="marker1293"
       refX="0.0"
       refY="0.0"
       orient="auto"
       inkscape:stockid="Arrow2Lend">
      <path
         transform="scale(1.1) rotate(180) translate(1,0)"
         d="M 8.7185878,4.0337352 L -2.2072895,0.016013256 L 8.7185884,-4.0017078 C 6.9730900,-1.6296469 6.9831476,1.6157441 8.7185878,4.0337352 z "
         style="fill-rule:evenodd;stroke-width:0.625;stroke-linejoin:round;stroke:#000000;stroke-opacity:1;fill:#000000;fill-opacity:1"
         id="path1291" />
    </marker>
    <marker
       inkscape:stockid="Arrow2Lend"
       orient="auto"
       refY="0.0"
       refX="0.0"
       id="Arrow2Lend"
       style="overflow:visible;"
       inkscape:isstock="true"
       inkscape:collect="always">
      <path
         id="path864"
         style="fill-rule:evenodd;stroke-width:0.625;stroke-linejoin:round;stroke:#000000;stroke-opacity:1;fill:#000000;fill-opacity:1"
         d="M 8.7185878,4.0337352 L -2.2072895,0.016013256 L 8.7185884,-4.0017078 C 6.9730900,-1.6296469 6.9831476,1.6157441 8.7185878,4.0337352 z "
         transform="scale(1.1) rotate(180) translate(1,0)" />
    </marker>
    <marker
       inkscape:isstock="true"
       style="overflow:visible;"
       id="marker3358"
       refX="0.0"
       refY="0.0"
       orient="auto"
       inkscape:stockid="Arrow2Mend">
      <path
         transform="scale(0.6) rotate(180) translate(0,0)"
         d="M 8.7185878,4.0337352 L -2.2072895,0.016013256 L 8.7185884,-4.0017078 C 6.9730900,-1.6296469 6.9831476,1.6157441 8.7185878,4.0337352 z "
         style="fill-rule:evenodd;stroke-width:0.625;stroke-linejoin:round;stroke:#999999;stroke-opacity:1;fill:#999999;fill-opacity:1"
         id="path3356" />
    </marker>
  </defs>
  <sodipodi:namedview
     id="base"
     pagecolor="#ffffff"
     bordercolor="#666666"
     borderopacity="1.0"
     inkscape:pageopacity="0.0"
     inkscape:pageshadow="2"
     inkscape:zoom="0.98994949"
     inkscape:cx="193.1002"
     inkscape:cy="836.56207"
     inkscape:document-units="mm"
     inkscape:current-layer="layer1"
     showgrid="true"
     inkscape:window-width="1858"
     inkscape:window-height="1057"
     inkscape:window-x="-8"
     inkscape:window-y="-8"
     inkscape:window-maximized="1"
     showguides="false">
    <inkscape:grid
       id="grid3328"
       type="xygrid" />
  </sodipodi:namedview>
  <metadata
     id="metadata2780">
    <rdf:RDF>
      <cc:Work
         rdf:about="">
        <dc:format>image/svg+xml</dc:format>
        <dc:type
           rdf:resource="http://purl.org/dc/dcmitype/StillImage" />
        <dc:title />
      </cc:Work>
    </rdf:RDF>
  </metadata>
  <g
     inkscape:label="レイヤー 1"
     inkscape:groupmode="layer"
     id="layer1">
    <rect
       style="opacity:1;fill:none;fill-opacity:1;stroke:#000000;stroke-width:0;stroke-linecap:butt;stroke-linejoin:round;stroke-miterlimit:4;stroke-dasharray:none;stroke-dashoffset:0;stroke-opacity:1;paint-order:normal"
       id="rect3330"
       width="206.375"
       height="179.91667"
       x="2.6458333"
       y="0.66665828"
       inkscape:export-xdpi="300.10001"
       inkscape:export-ydpi="300.10001" />
    <path
       style="fill:none;stroke:#000000;stroke-width:0.40000001;stroke-linecap:butt;stroke-linejoin:miter;stroke-miterlimit:4;stroke-dasharray:none;stroke-opacity:1;marker-end:url(#marker1293)"
       d="m 2.6458333,109.14538 c 203.7291667,0 203.7291667,0 203.7291667,0"
       id="path3332"
       inkscape:connector-curvature="0" />
    <path
       style="fill:none;stroke:#000000;stroke-width:0.40000001;stroke-linecap:butt;stroke-linejoin:miter;stroke-miterlimit:4;stroke-dasharray:none;stroke-opacity:1;marker-end:url(#Arrow2Lend)"
       d="m 23.812472,217.625 c 0,-214.3125001 0,-214.3125001 0,-214.3125001"
       id="path3334"
       inkscape:connector-curvature="0" />
    <g
       title="\large$y$"
       style="fill:#000000"
       id="equation_00"
       transform="translate(-63.714922,-53.453906)">
      <defs
         id="defs3396">
        <path
           d="M 3.144209,1.338979 C 2.82142,1.793275 2.355168,2.199751 1.769365,2.199751 c -0.143462,0 -0.71731,-0.02391 -0.896638,-0.573848 0.035866,0.011955 0.095642,0.011955 0.119552,0.011955 0.358655,0 0.597758,-0.310834 0.597758,-0.585803 0,-0.274969 -0.227148,-0.37061 -0.406475,-0.37061 -0.191283,0 -0.609714,0.143462 -0.609714,0.729265 0,0.609713 0.514072,1.028144 1.195517,1.028144 1.195517,0 2.402989,-1.099875 2.737733,-2.426899 L 5.678705,-4.65056 C 5.69066,-4.710336 5.71457,-4.782067 5.71457,-4.853798 c 0,-0.179328 -0.143462,-0.298879 -0.322789,-0.298879 -0.107597,0 -0.358655,0.04782 -0.454297,0.406475 l -0.884682,3.51482 c -0.059776,0.215193 -0.059776,0.239103 -0.155417,0.37061 -0.239104,0.334745 -0.633624,0.74122 -1.207472,0.74122 -0.66949,0 -0.729265,-0.657534 -0.729265,-0.980323 0,-0.681445 0.322789,-1.601993 0.645579,-2.462765 0.131506,-0.3467 0.203238,-0.514072 0.203238,-0.753176 0,-0.502117 -0.358656,-0.956413 -0.944459,-0.956413 -1.099875,0 -1.542216,1.733499 -1.542216,1.829141 0,0.04782 0.04782,0.107596 0.131506,0.107596 0.107597,0 0.119552,-0.047821 0.167373,-0.215193 0.286924,-1.004234 0.74122,-1.482441 1.207472,-1.482441 0.107596,0 0.310834,0 0.310834,0.394521 0,0.310834 -0.131507,0.657534 -0.310834,1.11183 -0.585804,1.566127 -0.585804,1.960648 -0.585804,2.247572 0,1.135741 0.812952,1.398755 1.41071,1.398755 0.3467,0 0.777086,-0.107597 1.195517,-0.549938 l 0.011955,0.011955 C 3.682192,0.286924 3.56264,0.753176 3.144209,1.338979 Z"
           id="equation_00_00"
           inkscape:connector-curvature="0" />
      </defs>
      <g
         id="equation_00_g">
        <use
           id="use3398"
           xlink:href="#equation_00_00"
           y="62.764633"
           x="76.712326"
           width="100%"
           height="100%" />
      </g>
    </g>
    <g
       title="\large$x$"
       style="fill:#000000"
       id="equation_01"
       transform="translate(124.35791,57.053866)">
      <defs
         id="defs3445">
        <path
           d="m 5.66675,-4.877709 c -0.382566,0.071731 -0.526028,0.358655 -0.526028,0.585804 0,0.286924 0.227148,0.382565 0.394521,0.382565 0.358655,0 0.609713,-0.310834 0.609713,-0.633624 0,-0.502117 -0.573848,-0.729265 -1.075965,-0.729265 -0.729265,0 -1.135741,0.71731 -1.243337,0.944458 -0.274969,-0.896637 -1.016189,-0.944458 -1.231383,-0.944458 -1.219427,0 -1.865006,1.566127 -1.865006,1.829141 0,0.04782 0.047821,0.107596 0.131507,0.107596 0.095641,0 0.119552,-0.071731 0.143462,-0.119552 0.406476,-1.327023 1.207472,-1.578082 1.554172,-1.578082 0.537983,0 0.645579,0.502117 0.645579,0.789041 0,0.263014 -0.071731,0.537983 -0.215193,1.111831 l -0.406476,1.637858 c -0.179327,0.71731 -0.526027,1.374844 -1.159651,1.374844 -0.059776,0 -0.358655,0 -0.609714,-0.155417 0.430386,-0.083686 0.526028,-0.442341 0.526028,-0.585803 0,-0.239103 -0.179328,-0.382565 -0.406476,-0.382565 -0.286924,0 -0.597758,0.251058 -0.597758,0.633623 0,0.502117 0.561893,0.729266 1.075965,0.729266 0.573848,0 0.980324,-0.454297 1.231382,-0.944459 0.191283,0.705355 0.789041,0.944459 1.231382,0.944459 1.219428,0 1.865007,-1.566127 1.865007,-1.829141 0,-0.059776 -0.047821,-0.107597 -0.119552,-0.107597 -0.107596,0 -0.119552,0.059776 -0.155417,0.155418 -0.32279,1.052054 -1.016189,1.542216 -1.554172,1.542216 -0.418431,0 -0.645579,-0.310834 -0.645579,-0.800996 0,-0.263014 0.047821,-0.454296 0.239103,-1.243337 l 0.418431,-1.625903 c 0.179328,-0.71731 0.585803,-1.243338 1.135741,-1.243338 0.02391,0 0.358655,0 0.609714,0.155417 z"
           id="equation_01_00"
           inkscape:connector-curvature="0" />
      </defs>
      <g
         id="equation_01_g">
        <use
           id="use3447"
           xlink:href="#equation_01_00"
           y="62.764633"
           x="76.712326"
           width="100%"
           height="100%" />
      </g>
    </g>
    <g
       title="\large$O$"
       style="fill:#000000"
       id="equation_02"
       transform="translate(-64.476609,58.898684)">
      <defs
         id="defs3564">
        <path
           d="m 8.679452,-5.236364 c 0,-1.972602 -1.291158,-3.180074 -2.964882,-3.180074 -2.558406,0 -5.140722,2.749688 -5.140722,5.511332 0,1.876962 1.243338,3.156165 2.976837,3.156165 2.510585,0 5.128767,-2.618182 5.128767,-5.487423 z M 3.622416,-0.02391 c -0.980324,0 -2.020423,-0.71731 -2.020423,-2.582317 0,-1.08792 0.39452,-2.86924 1.374844,-4.064757 0.872727,-1.052055 1.876961,-1.482441 2.677958,-1.482441 1.052054,0 2.068244,0.765131 2.068244,2.486675 0,1.06401 -0.454297,2.725779 -1.255293,3.86152 -0.872727,1.219427 -1.960648,1.78132 -2.84533,1.78132 z"
           id="equation_02_00"
           inkscape:connector-curvature="0" />
      </defs>
      <g
         id="equation_02_g">
        <use
           id="use3566"
           xlink:href="#equation_02_00"
           y="62.764633"
           x="76.712326"
           width="100%"
           height="100%" />
      </g>
    </g>
    <path
       id="path919"
       title="log(x,2)"
       d="m 26.458344,181.21783 c 0.06886,-0.004 0.137721,-1.52485 0.206582,-1.52865 0.06886,-0.004 0.137721,-1.45347 0.206581,-1.45745 0.06886,-0.004 0.137722,-1.38844 0.206582,-1.3926 0.06886,-0.004 0.137721,-1.32893 0.206582,-1.33327 0.06886,-0.004 0.137721,-1.27427 0.206582,-1.2788 0.06886,-0.005 0.137721,-1.22388 0.206581,-1.22859 0.06886,-0.005 0.137721,-1.17729 0.206582,-1.18218 0.06886,-0.005 0.137721,-1.13408 0.206582,-1.13915 0.06886,-0.005 0.137721,-1.0939 0.206581,-1.09915 0.06886,-0.005 0.137721,-1.05642 0.206582,-1.06185 0.06886,-0.005 0.137721,-1.0214 0.206582,-1.02701 0.06886,-0.006 0.137721,-0.98859 0.206581,-0.99438 0.06886,-0.006 0.137722,-0.95779 0.206582,-0.96376 0.06886,-0.006 0.137721,-0.92882 0.206582,-0.93497 0.06886,-0.006 0.137721,-0.90152 0.206581,-0.90785 0.06886,-0.006 0.137722,-0.87575 0.206582,-0.88226 0.06886,-0.007 0.137721,-0.85138 0.206582,-0.85807 0.06886,-0.007 0.137721,-0.8283 0.206582,-0.83518 0.06886,-0.007 0.137721,-0.8064 0.206581,-0.81347 0.06886,-0.007 0.137721,-0.78561 0.206582,-0.79286 0.06886,-0.007 0.137721,-0.76585 0.206582,-0.77327 0.06886,-0.007 0.137721,-0.74702 0.206581,-0.75463 0.06886,-0.008 0.137721,-0.72907 0.206582,-0.73686 0.06886,-0.008 0.137721,-0.71195 0.206582,-0.71991 0.06886,-0.008 0.137721,-0.69558 0.206581,-0.70373 0.06886,-0.008 0.137722,-0.67992 0.206582,-0.68825 0.06886,-0.008 0.137721,-0.66494 0.206582,-0.67345 0.06886,-0.009 0.137721,-0.65057 0.206582,-0.65926 0.06886,-0.009 0.137721,-0.63678 0.206581,-0.64566 0.06886,-0.009 0.137721,-0.62355 0.206582,-0.63261 0.06886,-0.009 0.137721,-0.61084 0.206582,-0.62007 0.06886,-0.009 0.137721,-0.59862 0.206581,-0.60804 0.06886,-0.009 0.137721,-0.58684 0.206582,-0.59644 0.06886,-0.01 0.137721,-0.57551 0.206582,-0.58529 0.06886,-0.01 0.137721,-0.56459 0.206581,-0.57455 0.06886,-0.01 0.137721,-0.55405 0.206582,-0.56419 0.06886,-0.0101 0.137721,-0.54388 0.206581,-0.5542 0.06886,-0.0103 0.137722,-0.53406 0.206582,-0.54456 0.06886,-0.0105 0.137721,-0.52456 0.206582,-0.53525 0.06886,-0.0107 0.137721,-0.51538 0.206581,-0.52625 0.06886,-0.0109 0.137721,-0.50649 0.206582,-0.51754 0.06886,-0.011 0.137721,-0.4979 0.206581,-0.50913 0.06886,-0.0112 0.137721,-0.48957 0.206582,-0.50098 0.06886,-0.0114 0.137721,-0.48149 0.206582,-0.49308 0.06886,-0.0116 0.137721,-0.47367 0.206581,-0.48544 0.06886,-0.0118 0.137721,-0.46607 0.206582,-0.47803 0.06886,-0.012 0.137721,-0.4587 0.206581,-0.47083 0.06886,-0.0121 0.137721,-0.45154 0.206582,-0.46386 0.06886,-0.0123 0.137721,-0.44458 0.206581,-0.45708 0.06886,-0.0125 0.137722,-0.43783 0.206582,-0.45051 0.06886,-0.0127 0.137721,-0.43125 0.206582,-0.44411 0.06886,-0.0129 0.137721,-0.42486 0.206581,-0.4379 0.06886,-0.013 0.137721,-0.41863 0.206582,-0.43185 0.06886,-0.0132 0.137721,-0.41258 0.206581,-0.42598 0.06886,-0.0134 0.137721,-0.40668 0.206582,-0.42026 0.06886,-0.0136 0.137721,-0.40093 0.206582,-0.41469 0.06886,-0.0138 0.137721,-0.39533 0.206581,-0.40927 0.06886,-0.014 0.137721,-0.38986 0.206582,-0.40399 0.06886,-0.0141 0.137721,-0.38453 0.206581,-0.39884 0.06886,-0.0143 0.137721,-0.37933 0.206582,-0.39382 0.06886,-0.0145 0.137721,-0.37426 0.206581,-0.38893 0.06886,-0.0147 0.137721,-0.3693 0.206582,-0.38415 0.06886,-0.0149 0.137721,-0.36446 0.206582,-0.3795 0.06886,-0.015 0.137721,-0.35973 0.206581,-0.37495 0.06886,-0.0152 0.137721,-0.35511 0.206582,-0.37051 0.06886,-0.0154 0.137721,-0.3506 0.206581,-0.36618 0.06886,-0.0156 0.137721,-0.34618 0.206582,-0.36194 0.06886,-0.0158 0.137721,-0.34187 0.206582,-0.3578 0.06886,-0.0159 0.137721,-0.33765 0.206581,-0.35377 0.06886,-0.0161 0.137721,-0.3335 0.206582,-0.3498 0.06886,-0.0163 0.137721,-0.32946 0.206581,-0.34594 0.06886,-0.0165 0.137721,-0.3255 0.206582,-0.34216 0.06886,-0.0167 0.137721,-0.32162 0.206581,-0.33846 0.06886,-0.0169 0.137721,-0.31782 0.206582,-0.33484 0.06886,-0.017 0.137721,-0.31409 0.206582,-0.3313 0.06886,-0.0172 0.137721,-0.31044 0.206581,-0.32782 0.06886,-0.0174 0.137721,-0.30686 0.206582,-0.32443 0.06886,-0.0176 0.137721,-0.30335 0.206581,-0.3211 0.06886,-0.0178 0.137721,-0.29991 0.206582,-0.31784 0.06886,-0.0179 0.137721,-0.29653 0.206581,-0.31464 0.06886,-0.0181 0.137722,-0.29322 0.206582,-0.31151 0.06886,-0.0183 0.137721,-0.28997 0.206582,-0.30845 0.06886,-0.0185 0.137721,-0.28677 0.206581,-0.30543 0.06886,-0.0187 0.137721,-0.28364 0.206582,-0.30248 0.06886,-0.0188 0.137721,-0.28057 0.206581,-0.29959 0.06886,-0.019 0.137721,-0.27754 0.206582,-0.29674 0.06886,-0.0192 0.137721,-0.27458 0.206582,-0.29396 0.06886,-0.0194 0.137721,-0.27166 0.206581,-0.29122 0.06886,-0.0196 0.137721,-0.2688 0.206582,-0.28854 0.06886,-0.0197 0.137721,-0.26598 0.206581,-0.28591 0.06886,-0.0199 0.137721,-0.26321 0.206582,-0.28331 0.06886,-0.0201 0.137721,-0.26049 0.206581,-0.28077 0.06886,-0.0203 0.137722,-0.25782 0.206582,-0.27828 0.06886,-0.0205 0.137721,-0.25518 0.206582,-0.27583 0.06886,-0.0207 0.137721,-0.25258 0.206581,-0.27341 0.06886,-0.0208 0.137721,-0.25004 0.206582,-0.27105 0.06886,-0.021 0.137721,-0.24753 0.206581,-0.26872 0.06886,-0.0212 0.137721,-0.24506 0.206582,-0.26644 0.06886,-0.0214 0.137721,-0.24263 0.206582,-0.26418 0.06886,-0.0216 0.137721,-0.24024 0.206581,-0.26198 0.06886,-0.0217 0.137721,-0.23788 0.206582,-0.2598 0.06886,-0.0219 0.137721,-0.23556 0.206581,-0.25766 0.06886,-0.0221 0.137721,-0.23328 0.206582,-0.25555 0.06886,-0.0223 0.137721,-0.23103 0.206581,-0.25349 0.06886,-0.0225 0.137722,-0.22881 0.206582,-0.25145 0.06886,-0.0226 0.137721,-0.22663 0.206582,-0.24945 0.06886,-0.0228 0.137721,-0.22447 0.206581,-0.24748 0.06886,-0.023 0.137721,-0.22234 0.206582,-0.24553 0.06886,-0.0232 0.137721,-0.22026 0.206581,-0.24362 0.06886,-0.0234 0.137721,-0.2182 0.206582,-0.24174 0.06886,-0.0235 0.137721,-0.21616 0.206582,-0.23989 0.06886,-0.0237 0.137721,-0.21416 0.206581,-0.23806 0.06886,-0.0239 0.137721,-0.21218 0.206582,-0.23627 0.06886,-0.0241 0.137721,-0.21023 0.206581,-0.2345 0.06886,-0.0243 0.137721,-0.2083 0.206582,-0.23275 0.06886,-0.0245 0.137721,-0.2064 0.206581,-0.23104 0.06886,-0.0246 0.137721,-0.20452 0.206582,-0.22934 0.06886,-0.0248 0.137721,-0.20268 0.206582,-0.22767 0.06886,-0.025 0.137721,-0.20085 0.206581,-0.22603 0.06886,-0.0252 0.137721,-0.19905 0.206582,-0.22441 0.06886,-0.0254 0.137721,-0.19727 0.206581,-0.22281 0.06886,-0.0255 0.137721,-0.19552 0.206582,-0.22124 0.06886,-0.0257 0.137721,-0.19378 0.206582,-0.21968 0.06886,-0.0259 0.137721,-0.19207 0.206581,-0.21816 0.06886,-0.0261 0.137721,-0.19038 0.206582,-0.21664 0.06886,-0.0263 0.137721,-0.18871 0.206581,-0.21515 0.06886,-0.0264 0.137721,-0.18706 0.206582,-0.21369 0.06886,-0.0266 0.137721,-0.18543 0.206581,-0.21224 0.06886,-0.0268 0.137721,-0.18381 0.206582,-0.2108 0.06886,-0.027 0.137721,-0.18223 0.206582,-0.2094 0.06886,-0.0272 0.137721,-0.18065 0.206581,-0.208 0.06886,-0.0274 0.137721,-0.1791 0.206582,-0.20664 0.06886,-0.0275 0.137721,-0.17756 0.206581,-0.20527 0.06886,-0.0277 0.137721,-0.17605 0.206582,-0.20394 0.06886,-0.0279 0.137721,-0.17454 0.206581,-0.20262 0.06886,-0.0281 0.137722,-0.17306 0.206582,-0.20132 0.06886,-0.0282 0.137721,-0.17159 0.206582,-0.20003 0.06886,-0.0284 0.137721,-0.17013 0.206581,-0.19875 0.06886,-0.0286 0.137721,-0.16871 0.206582,-0.19751 0.06886,-0.0288 0.137721,-0.16728 0.206581,-0.19627 0.06886,-0.029 0.137721,-0.16588 0.206582,-0.19504 0.06886,-0.0292 0.137721,-0.16449 0.206582,-0.19384 0.06886,-0.0293 0.137721,-0.16311 0.206581,-0.19264 0.06886,-0.0295 0.137721,-0.16176 0.206582,-0.19146 0.06886,-0.0297 0.137721,-0.16041 0.206581,-0.1903 0.06886,-0.0299 0.137721,-0.15908 0.206582,-0.18915 0.06886,-0.0301 0.137721,-0.15777 0.206581,-0.18802 0.06886,-0.0302 0.137722,-0.15646 0.206582,-0.18689 0.06886,-0.0304 0.137721,-0.15517 0.206582,-0.18578 0.06886,-0.0306 0.137721,-0.15389 0.206581,-0.18469 0.06886,-0.0308 0.137721,-0.15262 0.206582,-0.1836 0.06886,-0.031 0.137721,-0.15137 0.206581,-0.18253 0.06886,-0.0312 0.137721,-0.15014 0.206582,-0.18147 0.06886,-0.0313 0.137721,-0.14891 0.206582,-0.18043 0.06886,-0.0315 0.137721,-0.14769 0.206581,-0.17939 0.06886,-0.0317 0.137721,-0.14649 0.206582,-0.17838 0.06886,-0.0319 0.137721,-0.14529 0.206581,-0.17736 0.06886,-0.0321 0.137721,-0.14411 0.206582,-0.17636 0.06886,-0.0322 0.137721,-0.14295 0.206581,-0.17537 0.06886,-0.0324 0.137721,-0.14179 0.206582,-0.1744 0.06886,-0.0326 0.137721,-0.14064 0.206582,-0.17342 0.06886,-0.0328 0.137721,-0.13951 0.206581,-0.17248 0.06886,-0.033 0.137721,-0.13838 0.206582,-0.17153 0.06886,-0.0332 0.137721,-0.13726 0.206581,-0.17059 0.06886,-0.0333 0.137721,-0.13616 0.206582,-0.16967 0.06886,-0.0335 0.137721,-0.13506 0.206582,-0.16875 0.06886,-0.0337 0.137721,-0.13398 0.206581,-0.16785 0.06886,-0.0339 0.137721,-0.1329 0.206582,-0.16696 0.06886,-0.034 0.137721,-0.13183 0.206581,-0.16607 0.06886,-0.0342 0.137721,-0.13077 0.206582,-0.16519 0.06886,-0.0344 0.137721,-0.12972 0.206581,-0.16432 0.06886,-0.0346 0.137721,-0.12869 0.206582,-0.16347 0.06886,-0.0348 0.137721,-0.12766 0.206582,-0.16262 0.06886,-0.035 0.137721,-0.12663 0.206581,-0.16177 0.06886,-0.0351 0.137721,-0.12562 0.206582,-0.16095 0.06886,-0.0353 0.137721,-0.12462 0.206581,-0.16012 0.06886,-0.0355 0.137721,-0.12362 0.206582,-0.15931 0.06886,-0.0357 0.137721,-0.12263 0.206581,-0.1585 0.06886,-0.0359 0.137722,-0.12165 0.206582,-0.1577 0.06886,-0.036 0.137721,-0.12068 0.206582,-0.15691 0.06886,-0.0362 0.137721,-0.11972 0.206581,-0.15613 0.06886,-0.0364 0.137721,-0.11876 0.206582,-0.15535 0.06886,-0.0366 0.137721,-0.11781 0.206581,-0.15458 0.06886,-0.0368 0.137721,-0.11688 0.206582,-0.15383 0.06886,-0.0369 0.137721,-0.11594 0.206582,-0.15307 0.06886,-0.0371 0.137721,-0.11502 0.206581,-0.15233 0.06886,-0.0373 0.137721,-0.1141 0.206582,-0.15159 0.06886,-0.0375 0.137721,-0.11319 0.206581,-0.15086 0.06886,-0.0377 0.137721,-0.11228 0.206582,-0.15014 0.06886,-0.0379 0.137721,-0.11138 0.206581,-0.14942 0.06886,-0.038 0.137722,-0.11049 0.206582,-0.14871 0.06886,-0.0382 0.137721,-0.10961 0.206582,-0.14801 0.06886,-0.0384 0.137721,-0.10873 0.206581,-0.14731 0.06886,-0.0386 0.137721,-0.10785 0.206582,-0.14662 0.06886,-0.0388 0.137721,-0.10699 0.206581,-0.14594 0.06886,-0.0389 0.137721,-0.10613 0.206582,-0.14526 0.06886,-0.0391 0.137721,-0.10528 0.206582,-0.14458 0.06886,-0.0393 0.137721,-0.10444 0.206581,-0.14393 0.06886,-0.0395 0.137721,-0.10359 0.206582,-0.14326 0.06886,-0.0397 0.137721,-0.10276 0.206581,-0.14262 0.06886,-0.0399 0.137721,-0.10193 0.206582,-0.14196 0.06886,-0.04 0.137721,-0.10111 0.206581,-0.14133 0.06886,-0.0402 0.137722,-0.10029 0.206582,-0.14068 0.06886,-0.0404 0.137721,-0.0995 0.206582,-0.14006 0.06886,-0.0406 0.137721,-0.0987 0.206581,-0.13944 0.06886,-0.0408 0.137721,-0.0979 0.206582,-0.13882 0.06886,-0.0409 0.137721,-0.0971 0.206581,-0.1382 0.06886,-0.0411 0.137721,-0.0963 0.206582,-0.1376 0.06886,-0.0413 0.137721,-0.0955 0.206582,-0.13699 0.06886,-0.0415 0.137721,-0.0947 0.206581,-0.1364 0.06886,-0.0417 0.137721,-0.094 0.206582,-0.13581 0.06886,-0.0418 0.137721,-0.0932 0.206581,-0.13522 0.06886,-0.042 0.137721,-0.0924 0.206582,-0.13463 0.06886,-0.0422 0.137721,-0.0917 0.206581,-0.13406 0.06886,-0.0424 0.137721,-0.0909 0.206582,-0.13349 0.06886,-0.0426 0.137721,-0.0902 0.206582,-0.13292 0.06886,-0.0428 0.137721,-0.0894 0.206581,-0.13236 0.06886,-0.0429 0.137721,-0.0887 0.206582,-0.13181 0.06886,-0.0431 0.137721,-0.0879 0.206581,-0.13125 0.06886,-0.0433 0.137721,-0.0872 0.206582,-0.1307 0.06886,-0.0435 0.137721,-0.0865 0.206581,-0.13016 0.06886,-0.0436 0.137722,-0.0858 0.206582,-0.12962 0.06886,-0.0438 0.137721,-0.0851 0.206582,-0.12908 0.06886,-0.044 0.137721,-0.0844 0.206581,-0.12856 0.06886,-0.0442 0.137721,-0.0837 0.206582,-0.12803 0.06886,-0.0444 0.137721,-0.0829 0.206581,-0.1275 0.06886,-0.0446 0.137721,-0.0823 0.206582,-0.12699 0.06886,-0.0447 0.137721,-0.0816 0.206582,-0.12648 0.06886,-0.0449 0.137721,-0.0809 0.206581,-0.12597 0.06886,-0.0451 0.137721,-0.0802 0.206582,-0.12546 0.06886,-0.0453 0.137721,-0.0795 0.206581,-0.12496 0.06886,-0.0455 0.137721,-0.0788 0.206582,-0.12447 0.06886,-0.0456 0.137721,-0.0781 0.206581,-0.12397 0.06886,-0.0458 0.137722,-0.0775 0.206582,-0.12348 0.06886,-0.046 0.137721,-0.0768 0.206582,-0.123 0.06886,-0.0462 0.137721,-0.0761 0.206581,-0.12252 0.06886,-0.0464 0.137721,-0.0755 0.206582,-0.12204 0.06886,-0.0465 0.137721,-0.0748 0.206581,-0.12156 0.06886,-0.0467 0.137721,-0.0742 0.206582,-0.1211 0.06886,-0.0469 0.137721,-0.0735 0.206582,-0.12062 0.06886,-0.0471 0.137721,-0.0729 0.206581,-0.12017 0.06886,-0.0473 0.137721,-0.0722 0.206582,-0.1197 0.06886,-0.0475 0.137721,-0.0716 0.206581,-0.11925 0.06886,-0.0477 0.137721,-0.071 0.206582,-0.1188 0.06886,-0.0478 0.137721,-0.0703 0.206581,-0.11835 0.06886,-0.048 0.137722,-0.0697 0.206582,-0.1179 0.06886,-0.0482 0.137721,-0.0691 0.206582,-0.11746 0.06886,-0.0484 0.137721,-0.0685 0.206581,-0.117018 0.06886,-0.04855 0.137721,-0.06786 0.206582,-0.116585 0.06886,-0.04873 0.137721,-0.06724 0.206581,-0.116151 0.06886,-0.04891 0.137721,-0.06663 0.206582,-0.115722 0.06886,-0.04909 0.137721,-0.06602 0.206582,-0.115296 0.06886,-0.04927 0.137721,-0.06542 0.206581,-0.114873 0.06886,-0.04945 0.137721,-0.06482 0.206582,-0.114452 0.06886,-0.04964 0.137721,-0.06422 0.206581,-0.114036 0.06886,-0.04982 0.137721,-0.06363 0.206582,-0.113622 0.06886,-0.05 0.137721,-0.06303 0.206581,-0.11321 0.06886,-0.05018 0.137721,-0.06244 0.206582,-0.112803 0.06886,-0.05036 0.137721,-0.06186 0.206582,-0.112398 0.06886,-0.05054 0.137721,-0.06127 0.206581,-0.111995 0.06886,-0.05072 0.137721,-0.06069 0.206582,-0.111597 0.06886,-0.0509 0.137721,-0.06012 0.206581,-0.111199 0.06886,-0.05108 0.137721,-0.05954 0.206582,-0.110806 0.06886,-0.05127 0.137721,-0.05897 0.206582,-0.110416 0.06886,-0.05145 0.137721,-0.0584 0.206581,-0.110027 0.06886,-0.05163 0.137721,-0.05783 0.206582,-0.109641 0.06886,-0.05181 0.137721,-0.05727 0.206581,-0.109259 0.06886,-0.05199 0.137721,-0.05671 0.206582,-0.108879 0.06886,-0.05217 0.137721,-0.05615 0.206581,-0.108502 0.06886,-0.05235 0.137721,-0.05559 0.206582,-0.108126 0.06886,-0.05253 0.137721,-0.05504 0.206582,-0.107755 0.06886,-0.05271 0.137721,-0.05449 0.206581,-0.107384 0.06886,-0.0529 0.137721,-0.05394 0.206582,-0.107018 0.06886,-0.05308 0.137721,-0.05339 0.206581,-0.106653 0.06886,-0.05326 0.137721,-0.05285 0.206582,-0.106291 0.06886,-0.05344 0.137721,-0.05231 0.206581,-0.105931 0.06886,-0.05362 0.137722,-0.05177 0.206582,-0.105574 0.06886,-0.0538 0.137721,-0.05124 0.206582,-0.105218 0.06886,-0.05398 0.137721,-0.0507 0.206581,-0.104867 0.06886,-0.05416 0.137721,-0.05017 0.206582,-0.104516 0.06886,-0.05434 0.137721,-0.04964 0.206581,-0.104168 0.06886,-0.05453 0.137721,-0.04912 0.206582,-0.103823 0.06886,-0.05471 0.137721,-0.04859 0.206582,-0.10348 0.06886,-0.05489 0.137721,-0.04807 0.206581,-0.103138 0.06886,-0.05507 0.137721,-0.04755 0.206582,-0.1028 0.06886,-0.05525 0.137721,-0.04703 0.206581,-0.102463 0.06886,-0.05543 0.137721,-0.04652 0.206582,-0.102129 0.06886,-0.05561 0.137721,-0.046 0.206581,-0.101797 0.06886,-0.05579 0.137722,-0.04549 0.206582,-0.101467 0.06886,-0.05598 0.137721,-0.04498 0.206582,-0.101139 0.06886,-0.05616 0.137721,-0.04448 0.206581,-0.100813 0.06886,-0.05634 0.137721,-0.04397 0.206582,-0.10049 0.06886,-0.05652 0.137721,-0.04347 0.206581,-0.100168 0.06886,-0.0567 0.137721,-0.04297 0.206582,-0.09985 0.06886,-0.05688 0.137721,-0.04247 0.206582,-0.09953 0.06886,-0.05706 0.137721,-0.04197 0.206581,-0.09922 0.06886,-0.05724 0.137721,-0.04148 0.206582,-0.0989 0.06886,-0.05742 0.137721,-0.04099 0.206581,-0.09859 0.06886,-0.05761 0.137721,-0.0405 0.206582,-0.09828 0.06886,-0.05779 0.137721,-0.04001 0.206581,-0.09797 0.06886,-0.05797 0.137721,-0.03952 0.206582,-0.09767 0.06886,-0.05815 0.137721,-0.03903 0.206582,-0.09736 0.06886,-0.05833 0.137721,-0.03855 0.206581,-0.09706 0.06886,-0.05851 0.137721,-0.03807 0.206582,-0.09676 0.06886,-0.05869 0.137721,-0.03759 0.206581,-0.09646 0.06886,-0.05887 0.137721,-0.03711 0.206582,-0.09617 0.06886,-0.05906 0.137721,-0.03664 0.206582,-0.09587 0.06886,-0.05924 0.137721,-0.03616 0.206581,-0.09558 0.06886,-0.05942 0.137721,-0.03569 0.206582,-0.09529 0.06886,-0.0596 0.137721,-0.03522 0.206581,-0.095 0.06886,-0.05978 0.137721,-0.03475 0.206582,-0.09471 0.06886,-0.05996 0.137721,-0.03428 0.206581,-0.09443 0.06886,-0.06014 0.137721,-0.03382 0.206582,-0.09414 0.06886,-0.06032 0.137721,-0.03336 0.206582,-0.09386 0.06886,-0.0605 0.137721,-0.03289 0.206581,-0.09358 0.06886,-0.06069 0.137721,-0.03243 0.206582,-0.0933 0.06886,-0.06087 0.137721,-0.03198 0.206581,-0.09302 0.06886,-0.06105 0.137721,-0.03152 0.206582,-0.09275 0.06886,-0.06123 0.137721,-0.03106 0.206581,-0.09247 0.06886,-0.06141 0.137722,-0.03061 0.206582,-0.0922 0.06886,-0.06159 0.137721,-0.03016 0.206582,-0.09193 0.06886,-0.06177 0.137721,-0.02971 0.206581,-0.09166 0.06886,-0.06195 0.137721,-0.02926 0.206582,-0.09139 0.06886,-0.06213 0.137721,-0.02881 0.206581,-0.09113 0.06886,-0.06232 0.137721,-0.02837 0.206582,-0.09086 0.06886,-0.0625 0.137721,-0.02792 0.206582,-0.0906 0.06886,-0.06268 0.137721,-0.02748 0.206581,-0.09034 0.06886,-0.06286 0.137721,-0.02704 0.206582,-0.09008 0.06886,-0.06304 0.137721,-0.0266 0.206581,-0.08982 0.06886,-0.06322 0.137721,-0.02616 0.206582,-0.08956 0.06886,-0.0634 0.137721,-0.02572 0.206581,-0.08931 0.06886,-0.06358 0.137722,-0.02529 0.206582,-0.08905 0.06886,-0.06376 0.137721,-0.02486 0.206582,-0.0888 0.06886,-0.06395 0.137721,-0.02442 0.206581,-0.08855 0.06886,-0.06413 0.137721,-0.02399 0.206582,-0.0883 0.06886,-0.06431 0.137721,-0.02356 0.206581,-0.08805 0.06886,-0.06449 0.137721,-0.02313 0.206582,-0.0878 0.06886,-0.06467 0.137721,-0.02271 0.206582,-0.08756 0.06886,-0.06485 0.137721,-0.02228 0.206581,-0.08732 0.06886,-0.06503 0.137721,-0.02186 0.206582,-0.08707 0.06886,-0.06522 0.137721,-0.02144 0.206581,-0.08683 0.06886,-0.0654 0.137721,-0.02101 0.206582,-0.08659 0.06886,-0.06558 0.137721,-0.02059 0.206581,-0.08635 0.06886,-0.06576 0.137722,-0.02018 0.206582,-0.08611 0.06886,-0.06594 0.137721,-0.01976 0.206582,-0.08588 0.06886,-0.06612 0.137721,-0.01934 0.206581,-0.08564 0.06886,-0.0663 0.137721,-0.01893 0.206582,-0.08541 0.06886,-0.06648 0.137721,-0.01851 0.206581,-0.08518 0.06886,-0.06666 0.137721,-0.0181 0.206582,-0.08495 0.06886,-0.06685 0.137721,-0.01769 0.206582,-0.08472 0.06886,-0.06703 0.137721,-0.01728 0.206581,-0.08449 0.06886,-0.06721 0.137721,-0.01687 0.206582,-0.08426 0.06886,-0.06739 0.137721,-0.01646 0.206581,-0.08403 0.06886,-0.06757 0.137721,-0.01606 0.206582,-0.08381 0.06886,-0.06775 0.137721,-0.01565 0.206581,-0.08358 0.06886,-0.06793 0.137721,-0.01525 0.206581,-0.08336 0.0689,-0.06811 0.13772,-0.01485 0.20658,-0.08314 0.0689,-0.06829 0.13772,-0.01444 0.20658,-0.08292 0.0689,-0.06848 0.13773,-0.01404 0.20659,-0.0827 0.0689,-0.06866 0.13772,-0.01364 0.20658,-0.08248 0.0689,-0.06884 0.13772,-0.01325 0.20658,-0.08226 0.0689,-0.06902 0.13773,-0.01285 0.20659,-0.08205 0.0689,-0.0692 0.13772,-0.01246 0.20658,-0.08184 0.0689,-0.06938 0.13772,-0.01206 0.20658,-0.08162 0.0689,-0.06956 0.13772,-0.01167 0.20658,-0.08141 0.0689,-0.06974 0.13772,-0.01127 0.20659,-0.0812 0.0689,-0.06992 0.13772,-0.01088 0.20658,-0.08099 0.0689,-0.0701 0.13772,-0.01049 0.20658,-0.08078 0.0689,-0.07029 0.13772,-0.0101 0.20659,-0.08057 0.0689,-0.07047 0.13772,-0.0097 0.20658,-0.08037 0.0689,-0.07065 0.13772,-0.0093 0.20658,-0.08016 0.0689,-0.07083 0.13772,-0.0089 0.20658,-0.07995 0.0689,-0.07101 0.13772,-0.0086 0.20659,-0.07975 0.0689,-0.07119 0.13772,-0.0082 0.20658,-0.07955 0.0689,-0.07137 0.13772,-0.0078 0.20658,-0.07935 0.0689,-0.07155 0.13772,-0.0074 0.20658,-0.07914 0.0689,-0.07174 0.13773,-0.007 0.20659,-0.07895 0.0689,-0.07192 0.13772,-0.0066 0.20658,-0.07875 0.0689,-0.0721 0.13772,-0.0063 0.20658,-0.07855 0.0689,-0.07228 0.13772,-0.0059 0.20659,-0.07835 0.0689,-0.07246 0.13772,-0.0055 0.20658,-0.07816 0.0689,-0.07264 0.13772,-0.0051 0.20658,-0.07796 0.0689,-0.07282 0.13772,-0.0048 0.20658,-0.07777 0.0689,-0.07301 0.13772,-0.0044 0.20658,-0.07758 0.0689,-0.07318 0.13773,-0.004 0.20659,-0.07738 0.0689,-0.07337 0.13772,-0.0036 0.20658,-0.07719 0.0689,-0.07355 0.13772,-0.0033 0.20659,-0.077 0.0689,-0.07373 0.13772,-0.0029 0.20658,-0.07681 0.0689,-0.07391 0.13772,-0.0025 0.20658,-0.07663 0.0689,-0.07409 0.13772,-0.0022 0.20658,-0.07644 0.0689,-0.07427 0.13772,-0.0018 0.20658,-0.07625 0.0689,-0.07445 0.13773,-0.0014 0.20659,-0.07607 0.0689,-0.07464 0.13772,-0.0011 0.20658,-0.07588 0.0689,-0.07482 0.13772,-7.03e-4 0.20658,-0.0757 0.0689,-0.075 0.13773,-3.39e-4 0.20659,-0.07552 0.0689,-0.07518 0.13772,2.4e-5 0.20658,-0.07534 0.0689,-0.07536 0.13772,3.85e-4 0.20658,-0.07515 0.0689,-0.07554 0.13772,7.47e-4 0.20658,-0.07497 0.0689,-0.07572 0.13773,0.0011 0.20659,-0.0748 0.0689,-0.0759 0.13772,0.0015 0.20658,-0.07462 0.0689,-0.07608 0.13772,0.0018 0.20658,-0.07444 0.0689,-0.07626 0.13772,0.0022 0.20658,-0.07426 0.0689,-0.07645 0.13773,0.0025 0.20659,-0.07409 0.0689,-0.07663 0.13772,0.0029 0.20658,-0.07391 0.0689,-0.07681 0.13772,0.0033 0.20659,-0.07374 0.0689,-0.07699 0.13772,0.0036 0.20658,-0.07357 0.0689,-0.07717 0.13772,0.004 0.20658,-0.07339 0.0689,-0.07735 0.13772,0.0043 0.20658,-0.07322 0.0689,-0.07753 0.13772,0.0047 0.20658,-0.07305 0.0689,-0.07771 0.13773,0.005 0.20659,-0.07288 0.0689,-0.0779 0.13772,0.0054 0.20658,-0.07271 0.0689,-0.07808 0.13772,0.0057 0.20658,-0.07254 0.0689,-0.07826 0.13773,0.0061 0.20659,-0.07238 0.0689,-0.07844 0.13772,0.0064 0.20658,-0.07221 0.0689,-0.07862 0.13772,0.0068 0.20658,-0.07204 0.0689,-0.0788 0.13772,0.0071 0.20658,-0.07188 0.0689,-0.07898 0.13773,0.0075 0.20659,-0.07171 0.0689,-0.07916 0.13772,0.0078 0.20658,-0.07155 0.0689,-0.07935 0.13772,0.0081 0.20658,-0.07138 0.0689,-0.07953 0.13772,0.0085 0.20658,-0.07122 0.0689,-0.07971 0.13773,0.0088 0.20659,-0.07106 0.0689,-0.07989 0.13772,0.0092 0.20658,-0.0709 0.0689,-0.08007 0.13772,0.0095 0.20658,-0.07074 0.0689,-0.08025 0.13773,0.0099 0.20659,-0.07058 0.0689,-0.08043 0.13772,0.01019 0.20658,-0.07042 0.0689,-0.08061 0.13772,0.01053 0.20658,-0.07026 0.0689,-0.08079 0.13772,0.01087 0.20658,-0.0701 0.0689,-0.08098 0.13772,0.01121 0.20659,-0.06995 0.0689,-0.08116 0.13772,0.01154 0.20658,-0.06979 0.0689,-0.08134 0.13772,0.01188 0.20658,-0.06964 0.0688,-0.08152 0.13773,0.01222 0.20659,-0.06948 0.0689,-0.0817 0.13772,0.01255 0.20658,-0.06933 0.0689,-0.08188 0.13772,0.01289 0.20658,-0.06918 0.0689,-0.08206 0.13772,0.01322 0.20658,-0.06902 0.0689,-0.08224 0.13772,0.01355 0.20659,-0.06887 0.0689,-0.08243 0.13772,0.01389 0.20658,-0.06872 0.0689,-0.08261 0.13772,0.01422 0.20658,-0.06857 0.0689,-0.08279 0.13772,0.01455 0.20659,-0.06842 0.0689,-0.08297 0.13772,0.01488 0.20658,-0.06827 0.0689,-0.08315 0.13772,0.01521 0.20658,-0.06812 0.0689,-0.08333 0.13772,0.01554 0.20658,-0.06797 0.0689,-0.08351 0.13772,0.01587 0.20659,-0.06783 0.0689,-0.08369 0.13772,0.01619 0.20658,-0.06768 0.0689,-0.08387 0.13772,0.01652 0.20658,-0.06753 0.0689,-0.08405 0.13772,0.01685 0.20658,-0.06739 0.0689,-0.08424 0.13773,0.01717 0.20659,-0.06724 0.0689,-0.08442 0.13772,0.0175 0.20658,-0.0671 0.0689,-0.0846 0.13772,0.01782 0.20658,-0.06696 0.0688,-0.08478 0.13773,0.01815 0.20659,-0.06681 0.0689,-0.08496 0.13772,0.01847 0.20658,-0.06667 0.0689,-0.08514 0.13772,0.01879 0.20658,-0.06653 0.0689,-0.08532 0.13772,0.01912 0.20658,-0.06639 0.0689,-0.0855 0.13772,0.01944 0.20658,-0.06625 0.0689,-0.08569 0.13773,0.01976 0.20659,-0.06611 0.0689,-0.08587 0.13772,0.02008 0.20658,-0.06597 0.0689,-0.08605 0.13772,0.0204 0.20659,-0.06583 0.0689,-0.08623 0.13772,0.02072 0.20658,-0.06569 0.0689,-0.08641 0.13772,0.02104 0.20658,-0.06555 0.0689,-0.08659 0.13772,0.02136 0.20658,-0.06542 0.0689,-0.08677 0.13772,0.02167 0.20658,-0.06528 0.0689,-0.08695 0.13773,0.02199 0.20659,-0.06514 0.0689,-0.08714 0.13772,0.02231 0.20658,-0.06501 0.0689,-0.08732 0.13772,0.02262 0.20658,-0.06487 0.0689,-0.0875 0.13773,0.02294 0.20659,-0.06474 0.0689,-0.08768 0.13772,0.02325 0.20658,-0.06461 0.0689,-0.08786 0.13772,0.02357 0.20658,-0.06447 0.0689,-0.08804 0.13772,0.02388 0.20659,-0.06434 0.0689,-0.08822 0.13772,0.02419 0.20658,-0.06421 0.0689,-0.0884 0.13772,0.02451 0.20658,-0.06408 0.0689,-0.08858 0.13772,0.02482 0.20658,-0.06395 0.0689,-0.08877 0.13772,0.02513 0.20658,-0.06382 0.0689,-0.08895 0.13773,0.02544 0.20659,-0.06369 0.0689,-0.08913 0.13772,0.02575 0.20658,-0.06356 0.0689,-0.08931 0.13772,0.02606 0.20658,-0.06343 0.0689,-0.08949 0.13772,0.02637 0.20658,-0.0633 0.0689,-0.08967 0.13772,0.02668 0.20658,-0.06317 0.0689,-0.08985 0.13772,0.02699 0.20658,-0.06305 0.0689,-0.09003 0.13773,0.0273 0.20659,-0.06292 0.0689,-0.09021 0.13772,0.0276 0.20658,-0.06279 0.0689,-0.0904 0.13772,0.02791 0.20658,-0.06267 0.0689,-0.09058 0.13772,0.02822 0.20658,-0.06254 0.0689,-0.09076 0.13772,0.02852 0.20658,-0.06242 0.0689,-0.09094 0.13772,0.02883 0.20658,-0.06229 0.0689,-0.09112 0.13772,0.02913 0.20659,-0.06217 0.0689,-0.0913 0.13772,0.02944 0.20658,-0.06204 0.0689,-0.09148 0.13772,0.02974 0.20658,-0.06192 0.0689,-0.09166 0.13772,0.03004 0.20658,-0.0618 0.0689,-0.09184 0.13772,0.03035 0.20658,-0.06168 0.0689,-0.09203 0.13772,0.03065 0.20658,-0.06156 0.0689,-0.09221 0.13772,0.03095 0.20658,-0.06144 0.0689,-0.09239 0.13773,0.03125 0.20659,-0.06132 0.0689,-0.09257 0.13772,0.03155 0.20658,-0.0612 0.0689,-0.09275 0.13772,0.03186 0.20658,-0.06108 0.0689,-0.09293 0.13772,0.03215 0.20658,-0.06096 0.0689,-0.09311 0.13772,0.03246 0.20658,-0.06084 0.0689,-0.09329 0.13772,0.03275 0.20658,-0.06072 0.0689,-0.09348 0.13773,0.03305 0.20659,-0.0606 0.0689,-0.09366 0.13772,0.03335 0.20658,-0.06049 0.0689,-0.09384 0.13772,0.03365 0.20658,-0.06037 0.0689,-0.09402 0.13772,0.03395 0.20658,-0.06025 0.0689,-0.0942 0.13772,0.03424 0.20658,-0.06014 0.0689,-0.09438 0.13772,0.03454 0.20658,-0.06002 0.0689,-0.09456 0.13772,0.03484 0.20659,-0.05991 0.0689,-0.09474 0.13772,0.03513 0.20658,-0.05979 0.0689,-0.09492 0.13772,0.03543 0.20658,-0.05968 0.0689,-0.0951 0.13772,0.03572 0.20658,-0.05956 0.0689,-0.09529 0.13772,0.03602 0.20658,-0.05945 0.0689,-0.09547 0.13772,0.03631 0.20658,-0.05934 0.0689,-0.09565 0.13772,0.0366 0.20658,-0.05923 0.0689,-0.09583 0.13773,0.0369 0.20659,-0.05912 0.0689,-0.09601 0.13772,0.03719 0.20658,-0.059 0.0689,-0.09619 0.13772,0.03748 0.20658,-0.05889 0.0689,-0.09637 0.13772,0.03777 0.20658,-0.05878 0.0689,-0.09655 0.13772,0.03806 0.20658,-0.05867 0.0689,-0.09674 0.13772,0.03835 0.20658,-0.05856 0.0689,-0.09692 0.13773,0.03864 0.20659,-0.05845 0.0689,-0.0971 0.13772,0.03893 0.20658,-0.05835 0.0689,-0.09728 0.13772,0.03923 0.20658,-0.05823 0.0689,-0.09746 0.13772,0.03951 0.20658,-0.05813 0.0689,-0.09764 0.13772,0.0398 0.20658,-0.05802 0.0689,-0.09782 0.13772,0.04009 0.20658,-0.05791 0.0689,-0.098 0.13773,0.04038 0.20659,-0.05781 0.0689,-0.09819 0.13772,0.04067 0.20658,-0.0577 0.0689,-0.09837 0.13772,0.04096 0.20658,-0.05759 0.0689,-0.09855 0.13772,0.04124 0.20658,-0.05749 0.0689,-0.09873 0.13772,0.04153 0.20658,-0.05738 0.0689,-0.09891 0.13772,0.04181 0.20658,-0.05728 0.0689,-0.09909 0.13772,0.0421 0.20659,-0.05717 0.0689,-0.09927 0.13772,0.04239 0.20658,-0.05707 0.0689,-0.09945 0.13772,0.04267 0.20658,-0.05696 0.0689,-0.09964 0.13772,0.04295 0.20658,-0.05686 0.0689,-0.09982 0.13772,0.04324 0.20658,-0.05676 0.0689,-0.1 0.13772,0.04352 0.20658,-0.05665 0.0689,-0.100179 0.13772,0.04381 0.20658,-0.05655 0.0689,-0.10036 0.13773,0.04409 0.20659,-0.05645 0.0689,-0.10054 0.13772,0.04437 0.20658,-0.05635 0.0689,-0.100722 0.13772,0.04466 0.20658,-0.05625 0.0689,-0.100903 0.13772,0.04494 0.20658,-0.05615 0.0689,-0.101084 0.13772,0.04522 0.20658,-0.05605 0.0689,-0.101265 0.13772,0.0455 0.20658,-0.05594 0.0689,-0.101447 0.13773,0.04578 0.20659,-0.05585 0.0689,-0.101628 0.13772,0.04606 0.20658,-0.05575 0.0689,-0.101809 0.13772,0.04634 0.20658,-0.05565 0.0689,-0.10199 0.13772,0.04662 0.20658,-0.05555 0.0689,-0.102171 0.13772,0.0469 0.20658,-0.05545 0.0689,-0.102353 0.13772,0.04718 0.20658,-0.05535 0.0689,-0.102534 0.13772,0.04746 0.20659,-0.05526 0.0689,-0.102714 0.13772,0.04774 0.20658,-0.05516 0.0689,-0.102895 0.13772,0.04802 0.20658,-0.05506 0.0689,-0.103077 0.13772,0.0483 0.20658,-0.05496 0.0689,-0.103258 0.13772,0.04857 0.20658,-0.05487 0.0689,-0.103439 0.13772,0.04885 0.20658,-0.05477 0.0689,-0.10362 0.13772,0.04913 0.20658,-0.05468 0.0689,-0.103802 0.13773,0.0494 0.20659,-0.05458 0.0689,-0.103983 0.13772,0.04968 0.20658,-0.05448 0.0689,-0.104164 0.13772,0.04995 0.20658,-0.05439 0.0689,-0.104345 0.13772,0.05023 0.20658,-0.0543 0.0689,-0.104526 0.13772,0.05051 0.20658,-0.0542 0.0689,-0.104707 0.13772,0.05078 0.20658,-0.05411 0.0689,-0.104888 0.13773,0.05105 0.20659,-0.05402 0.0689,-0.105069 0.13772,0.05133 0.20658,-0.05392 0.0689,-0.105251 0.13772,0.0516 0.20658,-0.05383 0.0689,-0.105432 0.13772,0.05188 0.20658,-0.05374 0.0689,-0.105613 0.13772,0.05215 0.20658,-0.05364 0.0689,-0.105795 0.13772,0.05242 0.20658,-0.05355 0.0689,-0.105976 0.13772,0.05269 0.20659,-0.05346 0.0689,-0.106157 0.13772,0.05297 0.20658,-0.05337 0.0689,-0.106338 0.13772,0.05324 0.20658,-0.05328 0.0689,-0.106519 0.13772,0.05351 0.20658,-0.05319 0.0689,-0.1067 0.13772,0.05378 0.20658,-0.0531 0.0689,-0.106881 0.13772,0.05405 0.20658,-0.05301 0.0689,-0.107063 0.13772,0.05432 0.20658,-0.05292 0.0689,-0.107244 0.13773,0.05459 0.20659,-0.05283 0.0689,-0.107425 0.13772,0.05486 0.20658,-0.05274 0.0689,-0.107606 0.13772,0.05513 0.20658,-0.05265 0.0689,-0.107787 0.13772,0.0554 0.20658,-0.05256 0.0689,-0.107968 0.13772,0.05567 0.20658,-0.05248 0.0689,-0.108149 0.13772,0.05594 0.20658,-0.05239 0.0689,-0.10833 0.13773,0.05621 0.20659,-0.0523 0.0689,-0.108511 0.13772,0.05648 0.20658,-0.05221 0.0689,-0.108693 0.13772,0.05675 0.20658,-0.05213 0.0689,-0.108874 0.13772,0.05702 0.20658,-0.05204 0.0689,-0.109055 0.13772,0.05728 0.20658,-0.05195 0.0689,-0.109236 0.13772,0.05755 0.20658,-0.05187 0.0689,-0.109418 0.13772,0.05782 0.20659,-0.05178 0.0689,-0.109599 0.13772,0.05808 0.20658,-0.0517 0.0689,-0.109779 0.13772,0.05835 0.20658,-0.05161 0.0689,-0.109961 0.13772,0.05862 0.20658,-0.05152 0.0689,-0.110142 0.13772,0.05888 0.20658,-0.05144 0.0689,-0.110324 0.13772,0.05915 0.20658,-0.05136 0.0689,-0.110505 0.13772,0.05941 0.20658,-0.05127 0.0689,-0.110686 0.13773,0.05968 0.20659,-0.05119 0.0689,-0.110867 0.13772,0.05994 0.20658,-0.0511 0.0689,-0.111048 0.13772,0.06021 0.20658,-0.05102 0.0689,-0.111229 0.13772,0.06047 0.20658,-0.05094 0.0689,-0.11141 0.13772,0.06074 0.20658,-0.05086 0.0689,-0.111591 0.13772,0.061 0.20658,-0.05077 0.0689,-0.111773 0.13773,0.06126 0.20659,-0.05069 0.0689,-0.111954 0.13772,0.06153 0.20658,-0.05061 0.0689,-0.112135 0.13772,0.06179 0.20658,-0.05053 0.0689,-0.112316 0.13772,0.06205 0.20658,-0.05044 0.0689,-0.112498 0.13772,0.06231 0.20658,-0.05036 0.0689,-0.112678 0.13772,0.06258 0.20658,-0.05028 0.0689,-0.11286 0.13772,0.06284 0.20659,-0.0502 0.0689,-0.113041 0.13772,0.0631 0.20658,-0.05012 0.0689,-0.113222 0.13772,0.06336 0.20658,-0.05004 0.0689,-0.113403 0.13772,0.06362 0.20658,-0.04996 0.0689,-0.113585 0.13772,0.06388 0.20658,-0.04988 0.0689,-0.113766 0.13772,0.06414 0.20658,-0.0498 0.0689,-0.113946 0.13772,0.0644 0.20658,-0.04972 0.0689,-0.114128 0.13773,0.06466 0.20659,-0.04965 0.0689,-0.114308 0.13772,0.06492 0.20658,-0.04957 0.0689,-0.11449 0.13772,0.06518 0.20658,-0.04949 0.0689,-0.114671 0.13772,0.06544 0.20658,-0.04941 0.0689,-0.114853 0.13772,0.0657 0.20658,-0.04933 0.0689,-0.115033 0.13772,0.06596 0.20658,-0.04926 0.0689,-0.115214 0.13773,0.06622 0.20659,-0.04918 0.0689,-0.115396 0.13772,0.06648 0.20658,-0.0491 0.0689,-0.115577 0.13772,0.06673 0.20658,-0.04902 0.0689,-0.115758 0.13772,0.06699 0.20658,-0.04895 0.0689,-0.115939 0.13772,0.06725 0.20658,-0.04887 0.0689,-0.11612 0.13772,0.06751 0.20658,-0.04879 0.0689,-0.116302 0.13772,0.06776 0.20659,-0.04872 0.0689,-0.116483 0.13772,0.06802 0.20658,-0.04864 0.0689,-0.116664 0.13772,0.06828 0.20658,-0.04857 0.0689,-0.116845 0.13772,0.06853 0.20658,-0.04849 0.0689,-0.117026 0.13772,0.06879 0.20658,-0.04842 0.0689,-0.117208 0.13772,0.06905 0.20658,-0.04834 0.0689,-0.117389 0.13772,0.0693 0.20658,-0.04827 0.0689,-0.11757 0.13773,0.06956 0.20659,-0.04819 0.0689,-0.117751 0.13772,0.06981 0.20658,-0.04812 0.0689,-0.117932 0.13772,0.07007 0.20658,-0.04805 0.0689,-0.118113 0.13772,0.07032 0.20658,-0.04797 0.0689,-0.118294 0.13772,0.07058 0.20658,-0.0479 0.0689,-0.118475 0.13772,0.07083 0.20658,-0.04783 0.0689,-0.118657 0.13773,0.07109 0.20659,-0.04775 0.0689,-0.118838 0.13772,0.07134 0.20658,-0.04768 0.0689,-0.119019 0.13772,0.07159 0.20658,-0.04761 0.0689,-0.1192 0.13772,0.07185 0.20658,-0.04753 0.0689,-0.119382 0.13772,0.0721 0.20658,-0.04746 0.0689,-0.119562 0.13772,0.07235 0.20658,-0.04739 0.0689,-0.119744 0.13772,0.07261 0.20659,-0.04732 0.0689,-0.119925 0.13772,0.07286 0.20658,-0.04725 0.0689,-0.120106 0.13772,0.07311 0.20658,-0.04718 0.0689,-0.120287 0.13772,0.07336 0.20658,-0.04711 0.0689,-0.120468 0.13772,0.07361 0.20658,-0.04703 0.0689,-0.12065 0.13772,0.07387 0.20658,-0.04696 0.0689,-0.120831 0.13772,0.07412 0.20658,-0.04689 0.0689,-0.121012 0.13773,0.07437 0.20659,-0.04682 0.0689,-0.121193 0.13772,0.07462 0.20658,-0.04675 0.0689,-0.121374 0.13772,0.07487 0.20658,-0.04668 0.0689,-0.121555 0.13772,0.07512 0.20658,-0.04661 0.0689,-0.121737 0.13772,0.07537 0.20658,-0.04655 0.0689,-0.121918 0.13772,0.07562 0.20658,-0.04648 0.0689,-0.122099 0.13773,0.07587 0.20659,-0.04641 0.0689,-0.12228 0.13772,0.07612 0.20658,-0.04634 0.0689,-0.122461 0.13772,0.07637 0.20658,-0.04627 0.0689,-0.122642 0.13772,0.07662 0.20658,-0.0462 0.0689,-0.122823 0.13772,0.07687 0.20658,-0.04613 0.0689,-0.123005 0.13772,0.07712 0.20658,-0.04606 0.0689,-0.123186 0.13772,0.07737 0.20659,-0.046 0.0689,-0.123367 0.13772,0.07762 0.20658,-0.04593 0.0689,-0.123548 0.13772,0.07787 0.20658,-0.04586 0.0689,-0.123729 0.13772,0.07811 0.20658,-0.0458 0.0689,-0.12391 0.13772,0.07836 0.20658,-0.04573 0.0689,-0.124091 0.13772,0.07861 0.20658,-0.04566 0.0689,-0.124272 0.13772,0.07886 0.20658,-0.0456 0.0689,-0.124454 0.13773,0.0791 0.20659,-0.04553 0.0689,-0.124635 0.13772,0.07935 0.20658,-0.04546 0.0689,-0.124816 0.13772,0.0796 0.20658,-0.0454 0.0689,-0.124997 0.13772,0.07985 0.20658,-0.04533 0.0689,-0.125178 0.13772,0.08009 0.20658,-0.04527 0.0689,-0.12536 0.13772,0.08034 0.20658,-0.0452 0.0689,-0.125541 0.13773,0.08059 0.20659,-0.04514 0.0689,-0.125722 0.13772,0.08083 0.20658,-0.04507 0.0689,-0.125903 0.13772,0.08108 0.20658,-0.04501 0.0689,-0.126085 0.13772,0.08132 0.20658,-0.04494 0.0689,-0.126266 0.13772,0.08157 0.20658,-0.04488 0.0689,-0.126446 0.13772,0.08182 0.20658,-0.04481 0.0689,-0.126628 0.13772,0.08206 0.20659,-0.04475 0.0689,-0.126809 0.13772,0.08231 0.20658,-0.04469 0.0689,-0.12699 0.13772,0.08255 0.20658,-0.04462 0.0689,-0.127172 0.13772,0.0828 0.20658,-0.04456 0.0689,-0.127353 0.13772,0.08304 0.20658,-0.04449 0.0689,-0.127534 0.13772,0.08328 0.20658,-0.04443 0.0689,-0.127714 0.13772,0.08353 0.20658,-0.04437 0.0689,-0.127896 0.13773,0.08377 0.20659,-0.0443 0.0689,-0.128077 0.13772,0.08402 0.20658,-0.04424 0.0689,-0.128259 0.13772,0.08426 0.20658,-0.04418 0.0689,-0.12844 0.13772,0.0845 0.20658,-0.04412 0.0689,-0.12862 0.13772,0.08475 0.20658,-0.04406 0.0689,-0.128802 0.13772,0.08499 0.20658,-0.04399 0.0689,-0.128982 0.13773,0.08523 0.20659,-0.04393 0.0689,-0.129164 0.13772,0.08548 0.20658,-0.04387 0.0689,-0.129346 0.13772,0.08572 0.20658,-0.04381 0.0689,-0.129527 0.13772,0.08596 0.20658,-0.04375 0.0689,-0.129707 0.13772,0.0862 0.20658,-0.04369 0.0689,-0.129889 0.13772,0.08644 0.20658,-0.04363 0.0689,-0.13007 0.13772,0.08669 0.20659,-0.04357 0.0689,-0.130251 0.13772,0.08693 0.20658,-0.0435 0.0689,-0.130432 0.13772,0.08717 0.20658,-0.04344 0.0689,-0.130613 0.13772,0.08741 0.20658,-0.04338 0.0689,-0.130794 0.13772,0.08765 0.20658,-0.04332 0.0689,-0.130976 0.13772,0.08789 0.20658,-0.04326 0.0689,-0.131157 0.13772,0.08813 0.20658,-0.0432 0.0689,-0.131338 0.13773,0.08837 0.20659,-0.04314 0.0689,-0.131519 0.13772,0.08862 0.20658,-0.04309 0.0689,-0.1317 0.13772,0.08886 0.20658,-0.04303 0.0689,-0.131881 0.13772,0.0891 0.20658,-0.04297 0.0689,-0.132063 0.13772,0.08934 0.20658,-0.04291 0.0689,-0.132244 0.13772,0.08957 0.20658,-0.04285 0.0689,-0.132424 0.13773,0.08982 0.20659,-0.04279 0.0689,-0.132606 0.13772,0.09005 0.20658,-0.04273 0.0689,-0.132788 0.13772,0.09029 0.20658,-0.04267 0.0689,-0.132969 0.13772,0.09053 0.20658,-0.04262 0.0689,-0.13315 0.13772,0.09077 0.20658,-0.04256 0.0689,-0.133331 0.13772,0.09101 0.20658,-0.0425 0.0689,-0.133512 0.13773,0.09125 0.20659,-0.04244 0.0689,-0.133693 0.13772,0.09149 0.20658,-0.04239 0.0689,-0.133874 0.13772,0.09173 0.20658,-0.04233 0.0689,-0.134056 0.13772,0.09197 0.20658,-0.04227 0.0689,-0.134236 0.13772,0.0922 0.20658,-0.04221 0.0689,-0.134418 0.13772,0.09244 0.20658,-0.04216 0.0689,-0.134599 0.13772,0.09268 0.20659,-0.0421 0.0689,-0.13478 0.13772,0.09292 0.20658,-0.04204 0.0689,-0.134961 0.13772,0.09315 0.20658,-0.04199 0.0689,-0.135143 0.13772,0.09339 0.20658,-0.04193 0.0689,-0.135324 0.13772,0.09363 0.20658,-0.04187 0.0689,-0.135504 0.13772,0.09387 0.20658,-0.04182 0.0689,-0.135686 0.13772,0.0941 0.20658,-0.04176 0.0689,-0.135867 0.13773,0.09434 0.20659,-0.04171 0.0689,-0.136048 0.13772,0.09458 0.20658,-0.04165 0.0689,-0.13623 0.13772,0.09481 0.20658,-0.0416 0.0689,-0.13641 0.13772,0.09505 0.20658,-0.04154 0.0689,-0.136592 0.13772,0.09529 0.20658,-0.04149 0.0689,-0.136773 0.13772,0.09552 0.20658,-0.04143 0.0689,-0.136954 0.13773,0.09576 0.20659,-0.04138 0.0689,-0.137135 0.13772,0.09599 0.20658,-0.04132 0.0689,-0.137316 0.13772,0.09623 0.20658,-0.04127 0.0689,-0.137498 0.13772,0.09647 0.20658,-0.04121 0.0689,-0.137679 0.13772,0.0967 0.20658,-0.04116 0.0689,-0.13786 0.13772,0.09694 0.20658,-0.04111 0.0689,-0.138041 0.13772,0.09717 0.20659,-0.04105 0.0689,-0.138222 0.13772,0.09741 0.20658,-0.041 0.0689,-0.138403 0.13772,0.09764 0.20658,-0.04094 0.0689,-0.138585 0.13772,0.09788 0.20658,-0.04089 0.0689,-0.138766 0.13772,0.09811 0.20658,-0.04084 0.0689,-0.138947 0.13772,0.09834 0.20658,-0.04078 0.0689,-0.139128 0.13772,0.09858 0.20658,-0.04073 0.0689,-0.139309 0.13773,0.09881 0.20659,-0.04068 0.0689,-0.13949 0.13772,0.09905 0.20658,-0.04063 0.0689,-0.139671 0.13772,0.09928 0.20658,-0.04057 0.0689,-0.139852 0.13772,0.09951 0.20658,-0.04052 0.0689,-0.140034 0.13772,0.09975 0.20658,-0.04047 0.0689,-0.140215 0.13772,0.09998 0.20658,-0.04041 0.0689,-0.140396 0.13773,0.100214 0.20659,-0.04036 0.0689,-0.140577 0.13772,0.100448 0.20658,-0.04031 0.0689,-0.140758 0.13772,0.100681 0.20658,-0.04026 0.0689,-0.140939 0.13772,0.100914 0.20658,-0.04021 0.0689,-0.14112 0.13772,0.101146 0.20658,-0.04015 0.0689,-0.141302 0.13772,0.101378 0.20658,-0.0401 0.0689,-0.141483 0.13772,0.101611 0.20659,-0.04005 0.0689,-0.141664 0.13772,0.101843 0.20658,-0.04 0.0689,-0.141845 0.13772,0.102076 0.20658,-0.03995 0.0689,-0.142026 0.13772,0.102308 0.20658,-0.0399 0.0689,-0.142208 0.13772,0.10254 0.20658,-0.03985 0.0689,-0.142389 0.13772,0.102772 0.20658,-0.0398 0.0689,-0.14257 0.13772,0.103003 0.20658,-0.03975 0.0689,-0.142751 0.13773,0.103235 0.20659,-0.0397 0.0689,-0.142932 0.13772,0.103466 0.20658,-0.03965 0.0689,-0.143113 0.13772,0.103698 0.20658,-0.0396 0.0689,-0.143294 0.13772,0.103929 0.20658,-0.03955 0.0689,-0.143475 0.13772,0.10416 0.20658,-0.0395 0.0689,-0.143657 0.13772,0.10439 0.20658,-0.03945 0.0689,-0.143838 0.13773,0.104622 0.20659,-0.0394 0.0689,-0.144019 0.13772,0.104852 0.20658,-0.03935 0.0689,-0.1442 0.13772,0.105083 0.20658,-0.0393 0.0689,-0.144382 0.13772,0.105313 0.20658,-0.03925 0.0689,-0.144562 0.13772,0.105544 0.20658,-0.0392 0.0689,-0.144744 0.13772,0.105774 0.20658,-0.03915 0.0689,-0.144925 0.13772,0.106004 0.20659,-0.0391 0.0689,-0.145106 0.13772,0.106234 0.20658,-0.03905 0.0689,-0.145288 0.13772,0.106464 0.20658,-0.03901 0.0689,-0.145468 0.13772,0.106694 0.20658,-0.03896 0.0689,-0.14565 0.13772,0.106923 0.20658,-0.03891 0.0689,-0.145831 0.13772,0.107153 0.20658,-0.03886 0.0689,-0.146012 0.13772,0.107382 0.20658,-0.03881 0.0689,-0.146193 0.13773,0.107611 0.20659,-0.03876 0.0689,-0.146374 0.13772,0.107841 0.20658,-0.03872 0.0689,-0.146555 0.13772,0.108069 0.20658,-0.03867 0.0689,-0.146737 0.13772,0.108298 0.20658,-0.03862 0.0689,-0.146918 0.13772,0.108527 0.20658,-0.03857 0.0689,-0.147099 0.13772,0.108756 0.20658,-0.03852 0.0689,-0.14728 0.13773,0.108984 0.20659,-0.03848 0.0689,-0.147461 0.13772,0.109213 0.20658,-0.03843 0.0689,-0.147642 0.13772,0.109441 0.20658,-0.03838 0.0689,-0.147823 0.13772,0.109669 0.20658,-0.03834 0.0689,-0.148004 0.13772,0.109897 0.20658,-0.03829 0.0689,-0.148185 0.13772,0.110125 0.20658,-0.03824 0.0689,-0.148367 0.13772,0.110353 0.20659,-0.0382 0.0689,-0.148548 0.13772,0.11058 0.20658,-0.03815 0.0689,-0.14873 0.13772,0.110808 0.20658,-0.0381 0.0689,-0.14891 0.13772,0.111036 0.20658,-0.03806 0.0689,-0.149092 0.13772,0.111263 0.20658,-0.03801 0.0689,-0.149273 0.13772,0.11149 0.20658,-0.03796 0.0689,-0.149454 0.13772,0.111717 0.20658,-0.03792 0.0689,-0.149635 0.13773,0.111944 0.20659,-0.03787 0.0689,-0.149816 0.13772,0.112171 0.20658,-0.03783 0.0689,-0.149998 0.13772,0.112398 0.20658,-0.03778 0.0689,-0.150178 0.13772,0.112625 0.20658,-0.03773 0.0689,-0.15036 0.13772,0.112852 0.20658,-0.03769 0.0689,-0.150541 0.13772,0.113077 0.20658,-0.03764 0.0689,-0.150722 0.13773,0.113305 0.20659,-0.0376 0.0689,-0.150903 0.13772,0.113531 0.20658,-0.03755 0.0689,-0.151084 0.13772,0.113757 0.20658,-0.03751 0.0689,-0.151265 0.13772,0.113983 0.20658,-0.03746 0.0689,-0.151447 0.13772,0.114209 0.20658,-0.03742 0.0689,-0.151628 0.13772,0.114434 0.20658,-0.03737 0.0689,-0.151809 0.13772,0.114661 0.20659,-0.03733 0.0689,-0.15199 0.13772,0.114886 0.20658,-0.03729 0.0689,-0.152172 0.13772,0.115111 0.20658,-0.03724 0.0689,-0.152353 0.13772,0.115336 0.20658,-0.0372 0.0689,-0.152534 0.13772,0.115562 0.20658,-0.03715 0.0689,-0.152715 0.13772,0.115787 0.20658,-0.03711 0.0689,-0.152896 0.13772,0.116013 0.20658,-0.03706 0.0689,-0.153077 0.13773,0.116238 0.20659,-0.03702 0.0689,-0.153258 0.13772,0.116463 0.20658,-0.03698 0.0689,-0.153439 0.13772,0.116687 0.20658,-0.03693 0.0689,-0.153621 0.13772,0.116911 0.20658,-0.03689 0.0689,-0.153802 0.13772,0.117136 0.20658,-0.03685 0.0689,-0.153983 0.13772,0.117361 0.20658,-0.0368 0.0689,-0.154165 0.13773,0.117585 0.20659,-0.03676 0.0689,-0.154346 0.13772,0.117809 0.20658,-0.03672 0.0689,-0.154527 0.13772,0.118033 0.20658,-0.03667 0.0689,-0.154708 0.13772,0.118257 0.20658,-0.03663 0.0689,-0.154889 0.13772,0.118481 0.20658,-0.03659 0.0689,-0.15507 0.13772,0.118706 0.20658,-0.03655 0.0689,-0.155251 0.13772,0.118929 0.20659,-0.0365 0.0689,-0.155432 0.13772,0.119153 0.20658,-0.03646 0.0689,-0.155614 0.13772,0.119376 0.20658,-0.03642 0.0689,-0.155795 0.13772,0.1196 0.20658,-0.03638 0.0689,-0.155976 0.13772,0.119824 0.20658,-0.03633 0.0689,-0.156157 0.13772,0.120047 0.20658,-0.03629 0.0689,-0.156339 0.13772,0.12027 0.20658,-0.03625 0.0689,-0.156519 0.13773,0.120494 0.20659,-0.03621 0.0689,-0.1567 0.13772,0.120716 0.20658,-0.03616 0.0689,-0.156882 0.13772,0.120939 0.20658,-0.03612 0.0689,-0.157063 0.13772,0.121162 0.20658,-0.03608 0.0689,-0.157244 0.13772,0.121384 0.20658,-0.03604 0.0689,-0.157425 0.13772,0.121607 0.20658,-0.036 0.0689,-0.157606 0.13773,0.12183 0.20659,-0.03596 0.0689,-0.157788 0.13772,0.122052 0.20658,-0.03592 0.0689,-0.157968 0.13772,0.122274 0.20658,-0.03587 0.0689,-0.15815 0.13772,0.122496 0.20658,-0.03583 0.0689,-0.158331 0.13772,0.122718 0.20658,-0.03579 0.0689,-0.158512 0.13772,0.122941 0.20658,-0.03575 0.0689,-0.158693 0.13772,0.123163 0.20659,-0.03571 0.0689,-0.158874 0.13772,0.123385 0.20658,-0.03567 0.0689,-0.159056 0.13772,0.123606 0.20658,-0.03563 0.0689,-0.159236 0.13772,0.123828 0.20658,-0.03559 0.0689,-0.159417 0.13772,0.12405 0.20658,-0.03555 0.0689,-0.159599 0.13772,0.124271 0.20658,-0.03551 0.0689,-0.15978 0.13772,0.124493 0.20658,-0.03547 0.0689,-0.159961 0.13773,0.124714 0.20659,-0.03543 0.0689,-0.160143 0.13772,0.124935 0.20658,-0.03539 0.0689,-0.160323 0.13772,0.125156 0.20658,-0.03535 0.0689,-0.160505 0.13772,0.125377 0.20658,-0.03531 0.0689,-0.160686 0.13772,0.125598 0.20658,-0.03527 0.0689,-0.160867 0.13772,0.125819 0.20658,-0.03523 0.0689,-0.161049 0.13773,0.12604 0.20659,-0.03519 0.0689,-0.161229 0.13772,0.126261 0.20658,-0.03515 0.0689,-0.161411 0.13772,0.126481 0.20658,-0.03511 0.0689,-0.161591 0.13772,0.126702 0.20658,-0.03507 0.0689,-0.161773 0.13772,0.126922 0.20658,-0.03503 0.0689,-0.161954 0.13772,0.127142 0.20658,-0.03499 0.0689,-0.162135 0.13772,0.127362 0.20659,-0.03495 0.0689,-0.162316 0.13772,0.127583 0.20658,-0.03491 0.0689,-0.162497 0.13772,0.127803 0.20658,-0.03488 0.0689,-0.162678 0.13772,0.128023 0.20658,-0.03484 0.0689,-0.16286 0.13772,0.128243 0.20658,-0.0348 0.0689,-0.163041 0.13772,0.128462 0.20658,-0.03476 0.0689,-0.163222 0.13772,0.128682 0.20658,-0.03472 0.0689,-0.163404 0.13773,0.128902 0.20659,-0.03468 0.0689,-0.163585 0.13772,0.129121 0.20658,-0.03464 0.0689,-0.163766 0.13772,0.12934 0.20658,-0.03461 0.0689,-0.163947 0.13772,0.12956 0.20658,-0.03457 0.0689,-0.164128 0.13772,0.129779 0.20658,-0.03453 0.0689,-0.164309 0.13772,0.129999 0.20658,-0.03449 0.0689,-0.16449 0.13773,0.130218 0.20659,-0.03445 0.0689,-0.164672 0.13772,0.130437 0.20658,-0.03442 0.0689,-0.164853 0.13772,0.130656 0.20658,-0.03438 0.0689,-0.165034 0.13772,0.130875 0.20658,-0.03434 0.0689,-0.165215 0.13772,0.131093 0.20658,-0.0343 0.0689,-0.165396 0.13772,0.131312 0.20658,-0.03426 0.0689,-0.165577 0.13772,0.131531 0.20659,-0.03423 0.0689,-0.165758 0.13772,0.13175 0.20658,-0.03419 0.0689,-0.16594 0.13772,0.131968 0.20658,-0.03415 0.0689,-0.166121 0.13772,0.132186 0.20658,-0.03412 0.0689,-0.166301 0.13772,0.132405 0.20658,-0.03408 0.0689,-0.166483 0.13772,0.132623 0.20658,-0.03404 0.0689,-0.166664 0.13772,0.132841 0.20658,-0.034 0.0689,-0.166846 0.13773,0.133059 0.20659,-0.03397 0.0689,-0.167026 0.13772,0.133277 0.20658,-0.03393 0.0689,-0.167207 0.13772,0.133495 0.20658,-0.03389 0.0689,-0.167388 0.13772,0.133713 0.20658,-0.03386 0.0689,-0.16757 0.13772,0.13393 0.20658,-0.03382 0.0689,-0.167751 0.13772,0.134148 0.20658,-0.03378 0.0689,-0.167932 0.13773,0.134366 0.20659,-0.03375 0.0689,-0.168113 0.13772,0.134583 0.20658,-0.03371 0.0689,-0.168295 0.13772,0.1348 0.20658,-0.03368 0.0689,-0.168476 0.13772,0.135018 0.20658,-0.03364 0.0689,-0.168657 0.13772,0.135235 0.20658,-0.0336 0.0689,-0.168838 0.13772,0.135453 0.20658,-0.03357 0.0689,-0.169019 0.13773,0.13567 0.20659,-0.03353 0.0689,-0.1692 0.13772,0.135887 0.20658,-0.0335 0.0689,-0.169381 0.13772,0.136104 0.20658,-0.03346 0.0689,-0.169563 0.13772,0.136321 0.20658,-0.03342 0.0689,-0.169744 0.13772,0.136537 0.20658,-0.03339 0.0689,-0.169925 0.13772,0.136754 0.20658,-0.03335 0.0689,-0.170106 0.13772,0.136971 0.20659,-0.03332 0.0689,-0.170288 0.13772,0.137187 0.20658,-0.03328 0.0689,-0.170468 0.13772,0.137404 0.20658,-0.03325 0.0689,-0.17065 0.13772,0.13762 0.20658,-0.03321 0.0689,-0.170831 0.13772,0.137837 0.20658,-0.03317 0.0689,-0.171012 0.13772,0.138053 0.20658,-0.03314 0.0689,-0.171193 0.13772,0.138269 0.20658,-0.0331 0.0689,-0.171374 0.13773,0.138485 0.20659,-0.03307 0.0689,-0.171556 0.13772,0.138701 0.20658,-0.03304 0.0689,-0.171737 0.13772,0.138917 0.20658,-0.033 0.0689,-0.171917 0.13772,0.139134 0.20658,-0.03296 0.0689,-0.1721 0.13772,0.139349 0.20658,-0.03293 0.0689,-0.17228 0.13772,0.139565 0.20658,-0.0329 0.0689,-0.172462 0.13773,0.13978 0.20659,-0.03286 0.0689,-0.172643 0.13772,0.139996 0.20658,-0.03283 0.0689,-0.172824 0.13772,0.140212 0.20658,-0.03279 0.0689,-0.173005 0.13772,0.140427 0.20658,-0.03276 0.0689,-0.173186 0.13772,0.140642 0.20658,-0.03273 0.0689,-0.173367 0.13772,0.140858 0.20658,-0.03269 0.0689,-0.173549 0.13772,0.141073 0.20659,-0.03266 0.0689,-0.173729 0.13772,0.141289 0.20658,-0.03262 0.0689,-0.173911 0.13772,0.141504 0.20658,-0.03259 0.0689,-0.174092 0.13772,0.141718 0.20658,-0.03256 0.0689,-0.174273 0.13772,0.141934 0.20658,-0.03252 0.0689,-0.174455 0.13772,0.142148 0.20658,-0.03249 0.0689,-0.174636 0.13772,0.142363 0.20658,-0.03245 0.0689,-0.174816 0.13773,0.142578 0.20659,-0.03242 0.0689,-0.174998 0.13772,0.142793 0.20658,-0.03239 0.0689,-0.175179 0.13772,0.143007 0.20658,-0.03235 0.0689,-0.17536 0.13772,0.143222 0.20658,-0.03232 0.0689,-0.175541 0.13772,0.143436 0.20658,-0.03229 0.0689,-0.175722 0.13772,0.143651 0.20658,-0.03225 0.0689,-0.175904 0.13773,0.143865 0.20659,-0.03222 0.0689,-0.176084 0.13772,0.14408 0.20658,-0.03219 0.0689,-0.176266 0.13772,0.144294 0.20658,-0.03215 0.0689,-0.176447 0.13772,0.144508 0.20658,-0.03212 0.0689,-0.176628 0.13772,0.144722 0.20658,-0.03209 0.0689,-0.176809 0.13772,0.144936 0.20658,-0.03205 0.0689,-0.17699 0.13772,0.14515 0.20659,-0.03202 0.0689,-0.177171 0.13772,0.145364 0.20658,-0.03199 0.0689,-0.177353 0.13772,0.145577 0.20658,-0.03196 0.0689,-0.177534 0.13772,0.145792 0.20658,-0.03192 0.0689,-0.177715 0.13772,0.146005 0.20658,-0.03189 0.0689,-0.177897 0.13772,0.146218 0.20658,-0.03186 0.0689,-0.178077 0.13772,0.146432 0.20658,-0.03183 0.0689,-0.178259 0.13773,0.146645 0.20659,-0.03179 0.0689,-0.17844 0.13772,0.146859 0.20658,-0.03176 0.0689,-0.178621 0.13772,0.147073 0.20658,-0.03173 0.0689,-0.178802 0.13772,0.147286 0.20658,-0.0317 0.0689,-0.178983 0.13772,0.147499 0.20658,-0.03167 0.0689,-0.179164 0.13772,0.147712 0.20658,-0.03163 0.0689,-0.179346 0.13773,0.147925 0.20659,-0.0316 0.0689,-0.179527 0.13772,0.148138 0.20658,-0.03157 0.0689,-0.179708 0.13772,0.148351 0.20658,-0.03154 0.0689,-0.179889 0.13772,0.148565 0.20658,-0.0315 0.0689,-0.180071 0.13772,0.148777 0.20658,-0.03148 0.0689,-0.180251 0.13772,0.14899 0.20658,-0.03144 0.0689,-0.180433 0.13772,0.149202 0.20659,-0.03141 0.0689,-0.180614 0.13772,0.149415 0.20658,-0.03138 0.0689,-0.180795 0.13772,0.149628 0.20658,-0.03135 0.0689,-0.180976 0.13772,0.14984 0.20658,-0.03132 0.0689,-0.181157 0.13772,0.150053 0.20658,-0.03128 0.0689,-0.181339 0.13772,0.150265 0.20658,-0.03125 0.0689,-0.18152 0.13772,0.150477 0.20658,-0.03122 0.0689,-0.181701 0.13773,0.150689 0.20659,-0.03119 0.0689,-0.181882 0.13772,0.150902 0.20658,-0.03116 0.0689,-0.182063 0.13772,0.151114 0.20658,-0.03113 0.0689,-0.182244 0.13772,0.151326 0.20658,-0.0311 0.0689,-0.182425 0.13772,0.151538 0.20658,-0.03107 0.0689,-0.182607 0.13772,0.15175 0.20658,-0.03104 0.0689,-0.182788 0.13773,0.151962 0.20659,-0.03101 0.0689,-0.182969 0.13772,0.152174 0.20658,-0.03098 0.0689,-0.18315 0.13772,0.152386 0.20658,-0.03095 0.0689,-0.183331 0.13772,0.152597 0.20658,-0.03092 0.0689,-0.183512 0.13772,0.152809 0.20658,-0.03088 0.0689,-0.183693 0.13772,0.153021 0.20658,-0.03085 0.0689,-0.183874 0.13772,0.153233 0.20659,-0.03082 0.0689,-0.184056 0.13772,0.153444 0.20658,-0.03079 0.0689,-0.184237 0.13772,0.153655 0.20658,-0.03076 0.0689,-0.184418 0.13772,0.153867 0.20658,-0.03073"
       style="opacity:1;fill:none;fill-opacity:1;stroke:#000000;stroke-width:0.8;stroke-linecap:butt;stroke-linejoin:round;stroke-miterlimit:4;stroke-dasharray:none;stroke-dashoffset:0;stroke-opacity:1;paint-order:normal"
       inkscape:connector-curvature="0" />
    <g
       title="\small$1$"
       style="fill:#000000"
       id="equation_03"
       transform="translate(-10.502034,55.761252)">
      <defs
         id="defs961">
        <path
           d="m 2.725778,-5.729514 c 0,-0.22416 -0.00897,-0.242092 -0.233125,-0.242092 -0.555916,0.573848 -1.380822,0.573848 -1.65878,0.573848 v 0.277957 c 0.170361,0 0.71731,0 1.201494,-0.233126 v 4.635617 c 0,0.331756 -0.026899,0.439352 -0.860772,0.439352 H 0.887671 V 0 c 0.32279,-0.026899 1.120797,-0.026899 1.488419,-0.026899 0.367622,0 1.174595,0 1.497384,0.026899 V -0.277958 H 3.58655 c -0.833873,0 -0.860772,-0.107596 -0.860772,-0.439352 z"
           id="equation_03_00"
           inkscape:connector-curvature="0" />
      </defs>
      <g
         id="equation_03_g">
        <use
           id="use963"
           xlink:href="#equation_03_00"
           y="62.764633"
           x="76.712326"
           width="100%"
           height="100%" />
      </g>
    </g>
    <path
       style="opacity:1;fill:#999999;fill-opacity:1;stroke:#999999;stroke-width:1;stroke-linecap:butt;stroke-linejoin:miter;stroke-miterlimit:4;stroke-dasharray:none;stroke-opacity:1;marker-end:url(#marker3358)"
       d="m 37.570832,105.70357 c 18.520833,0 18.520833,0 18.520833,0"
       id="path4678"
       inkscape:connector-curvature="0" />
    <g
       title="\small$y=\log_2x$"
       style="fill:#000000"
       id="equation_04"
       transform="translate(87.129866,-49.979402)">
      <defs
         id="defs5497">
        <path
           d="M 3.21594,-1.117808 H 2.99477 c -0.011956,0.083686 -0.071731,0.478207 -0.161395,0.54396 -0.041843,0.035865 -0.526028,0.035865 -0.609714,0.035865 H 1.105853 l 0.765131,-0.621668 c 0.203238,-0.161395 0.735243,-0.54396 0.920548,-0.723288 0.179327,-0.179328 0.424408,-0.484184 0.424408,-0.908593 0,-0.747198 -0.675467,-1.183561 -1.476463,-1.183561 -0.771108,0 -1.309091,0.508094 -1.309091,1.069987 0,0.304857 0.257036,0.340722 0.32279,0.340722 0.149439,0 0.322789,-0.107596 0.322789,-0.322789 0,-0.131507 -0.077708,-0.32279 -0.340722,-0.32279 0.137484,-0.304856 0.502117,-0.532005 0.91457,-0.532005 0.627647,0 0.962391,0.466252 0.962391,0.950436 0,0.424409 -0.280946,0.860772 -0.699377,1.243338 L 0.496139,-0.251059 C 0.436364,-0.191283 0.430386,-0.185305 0.430386,0 h 2.600249 z"
           id="equation_04_00"
           inkscape:connector-curvature="0" />
        <path
           d="m 4.411457,-3.622416 c -0.331756,0.062765 -0.430386,0.349689 -0.430386,0.484184 0,0.170362 0.125529,0.32279 0.349689,0.32279 0.251058,0 0.49315,-0.215193 0.49315,-0.529016 0,-0.412454 -0.448318,-0.61868 -0.869738,-0.61868 -0.537983,0 -0.851806,0.475218 -0.959402,0.663512 -0.170362,-0.439353 -0.564882,-0.663512 -0.995268,-0.663512 -0.959402,0 -1.479452,1.147696 -1.479452,1.380822 0,0.080697 0.062764,0.107596 0.125529,0.107596 0.080697,0 0.107597,-0.044832 0.125529,-0.09863 0.277958,-0.887671 0.869739,-1.165629 1.210461,-1.165629 0.260025,0 0.493151,0.170361 0.493151,0.591781 0,0.32279 -0.385554,1.75741 -0.502117,2.187796 -0.071731,0.277957 -0.340723,0.833873 -0.833873,0.833873 -0.179328,0 -0.367622,-0.062765 -0.457285,-0.116563 0.242092,-0.044832 0.421419,-0.251059 0.421419,-0.484184 0,-0.22416 -0.170361,-0.32279 -0.340722,-0.32279 -0.260025,0 -0.493151,0.224159 -0.493151,0.529016 0,0.439353 0.484185,0.61868 0.860772,0.61868 0.52005,0 0.824907,-0.430386 0.959403,-0.672478 0.224159,0.591781 0.753175,0.672478 0.995267,0.672478 0.968369,0 1.479452,-1.165629 1.479452,-1.380822 0,-0.044832 -0.026899,-0.107596 -0.116562,-0.107596 -0.098631,0 -0.107597,0.035865 -0.152429,0.170361 -0.19726,0.645579 -0.71731,1.093898 -1.183561,1.093898 -0.260025,0 -0.502118,-0.161395 -0.502118,-0.591781 0,-0.19726 0.12553,-0.690411 0.206227,-1.031133 0.035866,-0.161395 0.277958,-1.129764 0.295891,-1.192528 0.107596,-0.32279 0.376587,-0.798008 0.833872,-0.798008 0.161395,0 0.331756,0.026899 0.466252,0.116563 z"
           id="equation_04_01"
           inkscape:connector-curvature="0" />
        <path
           d="m 4.501121,-3.452055 c 0.00897,-0.044832 0.026899,-0.09863 0.026899,-0.152428 0,-0.116563 -0.080697,-0.260025 -0.277958,-0.260025 -0.116563,0 -0.277957,0.071731 -0.349688,0.242092 -0.00897,0.035866 -0.098631,0.403487 -0.152429,0.600747 l -0.448319,1.793275 c -0.071731,0.260025 -0.071731,0.277958 -0.089663,0.358656 -0.00897,0.035865 -0.385555,0.744209 -1.031134,0.744209 -0.555915,0 -0.555915,-0.564882 -0.555915,-0.735243 0,-0.403487 0.116563,-0.842839 0.502117,-1.847074 0.071731,-0.206226 0.125529,-0.331755 0.125529,-0.502117 0,-0.439352 -0.331756,-0.753175 -0.771108,-0.753175 -0.860772,0 -1.219427,1.273225 -1.219427,1.380822 0,0.080697 0.062765,0.107596 0.125529,0.107596 0.09863,0 0.107597,-0.053798 0.143462,-0.170361 0.188294,-0.663512 0.546949,-1.093898 0.923537,-1.093898 0.215193,0 0.215193,0.170361 0.215193,0.295891 0,0.152428 -0.035866,0.313823 -0.116563,0.529016 C 1.129763,-1.802242 1.0132,-1.425654 1.0132,-0.995268 1.0132,0 1.820174,0.09863 2.15193,0.09863 c 0.439353,0 0.753176,-0.233126 0.914571,-0.39452 C 2.949938,0.161395 2.851308,0.564882 2.501619,1.0132 2.232628,1.371856 1.873973,1.613948 1.479452,1.613948 c -0.251058,0 -0.546949,-0.089664 -0.672478,-0.340723 0.475218,0 0.537982,-0.39452 0.537982,-0.484184 0,-0.19726 -0.143462,-0.322789 -0.340722,-0.322789 -0.215193,0 -0.502117,0.170361 -0.502117,0.582814 0,0.466252 0.412453,0.789041 0.977335,0.789041 0.91457,0 1.891905,-0.780075 2.15193,-1.829141 z"
           id="equation_04_02"
           inkscape:connector-curvature="0" />
        <path
           d="m 6.348194,-2.96787 c 0.12553,0 0.295891,0 0.295891,-0.188294 0,-0.197261 -0.197261,-0.197261 -0.331756,-0.197261 h -5.46949 c -0.134495,0 -0.331756,0 -0.331756,0.197261 0,0.188294 0.179328,0.188294 0.295891,0.188294 z m -0.035865,1.82914 c 0.134495,0 0.331756,0 0.331756,-0.19726 0,-0.188294 -0.170361,-0.188294 -0.295891,-0.188294 h -5.54122 c -0.116563,0 -0.295891,0 -0.295891,0.188294 0,0.19726 0.197261,0.19726 0.331756,0.19726 z"
           id="equation_04_03"
           inkscape:connector-curvature="0" />
        <path
           d="m 1.120797,-1.604981 c 0.224159,0.143462 0.502117,0.277957 0.91457,0.277957 0.851806,0 1.497385,-0.609713 1.497385,-1.318057 0,-0.439352 -0.251058,-0.744209 -0.367621,-0.869738 0.358655,-0.32279 0.780074,-0.32279 0.887671,-0.32279 -0.044832,0.026899 -0.116563,0.071731 -0.116563,0.233126 0,0.09863 0.062765,0.268991 0.268991,0.268991 0.12553,0 0.268992,-0.089664 0.268992,-0.277958 0,-0.170361 -0.12553,-0.448318 -0.484185,-0.448318 -0.260025,0 -0.663511,0.09863 -0.977335,0.421419 -0.242092,-0.19726 -0.59178,-0.322789 -0.968368,-0.322789 -0.851806,0 -1.497385,0.609713 -1.497385,1.318057 0,0.457285 0.268991,0.780075 0.412453,0.91457 -0.017933,0.017933 -0.268991,0.331756 -0.268991,0.74421 0,0.304856 0.143462,0.627646 0.385554,0.789041 -0.457285,0.143462 -0.81594,0.475218 -0.81594,0.896637 0,0.636613 0.887671,1.147696 2.035367,1.147696 1.102865,0 2.044334,-0.475217 2.044334,-1.165628 0,-0.367622 -0.170361,-0.762142 -0.502117,-0.977335 -0.502117,-0.313824 -1.022167,-0.313824 -1.873973,-0.313824 -0.179327,0 -0.466251,0 -0.537982,-0.017932 -0.260025,-0.053799 -0.430386,-0.295891 -0.430386,-0.582815 0,-0.143462 0.044832,-0.277957 0.125529,-0.39452 z m 0.91457,0.035865 c -0.798007,0 -0.798007,-0.878705 -0.798007,-1.075965 0,-0.242092 0.017933,-0.546949 0.170361,-0.762142 0.134496,-0.179327 0.376588,-0.313823 0.627646,-0.313823 0.806974,0 0.806974,0.869738 0.806974,1.075965 0,0.206227 0,1.075965 -0.806974,1.075965 z m 0.412454,1.524284 c 0.286924,0 1.389788,0.008966 1.389788,0.735243 0,0.511083 -0.690411,0.91457 -1.53325,0.91457 -0.878705,0 -1.542217,-0.421419 -1.542217,-0.91457 0,-0.143462 0.089664,-0.735243 0.860772,-0.735243 z"
           id="equation_04_04"
           inkscape:connector-curvature="0" />
        <path
           d="m 1.649813,-6.222665 -1.327023,0.09863 v 0.277958 c 0.609713,0 0.69041,0.062764 0.69041,0.502117 v 4.653549 c 0,0.412453 -0.09863,0.412453 -0.69041,0.412453 V 0 c 0.421419,-0.017933 0.59178,-0.026899 1.004234,-0.026899 0.421419,0 0.573848,0.008966 1.0132,0.026899 v -0.277958 c -0.591781,0 -0.690411,0 -0.690411,-0.412453 z"
           id="equation_04_05"
           inkscape:connector-curvature="0" />
        <path
           d="m 4.339726,-1.909838 c 0,-1.174595 -0.932503,-2.107098 -2.035367,-2.107098 -1.13873,0 -2.044334,0.959402 -2.044334,2.107098 0,1.120797 0.932503,2.008468 2.035367,2.008468 1.13873,0 2.044334,-0.905604 2.044334,-2.008468 z m -2.035367,1.75741 c -0.448319,0 -0.824907,-0.22416 -1.031134,-0.573848 C 1.0401,-1.102864 1.031133,-1.578082 1.031133,-1.990535 c 0,-0.331756 0,-0.84284 0.22416,-1.210461 0.268991,-0.457285 0.71731,-0.591781 1.040099,-0.591781 0.511084,0 0.878705,0.286924 1.058033,0.591781 0.206226,0.376588 0.215193,0.833873 0.215193,1.210461 0,0.331755 0,0.851805 -0.22416,1.246326 -0.251058,0.412453 -0.663512,0.591781 -1.040099,0.591781 z"
           id="equation_04_06"
           inkscape:connector-curvature="0" />
      </defs>
      <g
         id="equation_04_g">
        <use
           id="use5499"
           xlink:href="#equation_04_02"
           y="62.764633"
           x="76.712326"
           width="100%"
           height="100%" />
        <use
           id="use5501"
           xlink:href="#equation_04_03"
           y="62.764633"
           x="84.132362"
           width="100%"
           height="100%" />
        <use
           id="use5503"
           xlink:href="#equation_04_05"
           y="62.764633"
           x="93.859711"
           width="100%"
           height="100%" />
        <use
           id="use5505"
           xlink:href="#equation_04_06"
           y="62.764633"
           x="96.41954"
           width="100%"
           height="100%" />
        <use
           id="use5507"
           xlink:href="#equation_04_04"
           y="62.764633"
           x="101.02723"
           width="100%"
           height="100%" />
        <use
           id="use5509"
           xlink:href="#equation_04_00"
           y="65.00621"
           x="105.76292"
           width="100%"
           height="100%" />
        <use
           id="use5511"
           xlink:href="#equation_04_01"
           y="62.764633"
           x="111.44986"
           width="100%"
           height="100%" />
      </g>
    </g>
  </g>
</svg>
