<?xml version="1.0" encoding="UTF-8" standalone="no"?>
<!-- Created with Inkscape (http://www.inkscape.org/) -->

<svg
   xmlns:dc="http://purl.org/dc/elements/1.1/"
   xmlns:cc="http://creativecommons.org/ns#"
   xmlns:rdf="http://www.w3.org/1999/02/22-rdf-syntax-ns#"
   xmlns:svg="http://www.w3.org/2000/svg"
   xmlns="http://www.w3.org/2000/svg"
   xmlns:xlink="http://www.w3.org/1999/xlink"
   xmlns:sodipodi="http://sodipodi.sourceforge.net/DTD/sodipodi-0.dtd"
   xmlns:inkscape="http://www.inkscape.org/namespaces/inkscape"
   id="svg2783"
   version="1.1"
   viewBox="0 0 210 297"
   height="297mm"
   width="210mm"
   inkscape:version="0.92.4 (5da689c313, 2019-01-14)"
   sodipodi:docname="広義積分1.svg">
  <defs
     id="defs2777">
    <marker
       inkscape:stockid="TriangleOutM"
       orient="auto"
       refY="0.0"
       refX="0.0"
       id="TriangleOutM"
       style="overflow:visible"
       inkscape:isstock="true">
      <path
         id="path1958"
         d="M 5.77,0.0 L -2.88,5.0 L -2.88,-5.0 L 5.77,0.0 z "
         style="fill-rule:evenodd;stroke:#000000;stroke-width:1pt;stroke-opacity:1;fill:#000000;fill-opacity:1"
         transform="scale(0.4)" />
    </marker>
    <marker
       inkscape:isstock="true"
       style="overflow:visible;"
       id="marker3358"
       refX="0.0"
       refY="0.0"
       orient="auto"
       inkscape:stockid="Arrow2Mend">
      <path
         transform="scale(0.6) rotate(180) translate(0,0)"
         d="M 8.7185878,4.0337352 L -2.2072895,0.016013256 L 8.7185884,-4.0017078 C 6.9730900,-1.6296469 6.9831476,1.6157441 8.7185878,4.0337352 z "
         style="fill-rule:evenodd;stroke-width:0.625;stroke-linejoin:round;stroke:#000000;stroke-opacity:1;fill:#000000;fill-opacity:1"
         id="path3356" />
    </marker>
    <marker
       inkscape:stockid="Arrow2Mend"
       orient="auto"
       refY="0.0"
       refX="0.0"
       id="Arrow2Mend"
       style="overflow:visible;"
       inkscape:isstock="true"
       inkscape:collect="always">
      <path
         id="path850"
         style="fill-rule:evenodd;stroke-width:0.625;stroke-linejoin:round;stroke:#000000;stroke-opacity:1;fill:#000000;fill-opacity:1"
         d="M 8.7185878,4.0337352 L -2.2072895,0.016013256 L 8.7185884,-4.0017078 C 6.9730900,-1.6296469 6.9831476,1.6157441 8.7185878,4.0337352 z "
         transform="scale(0.6) rotate(180) translate(0,0)" />
    </marker>
  </defs>
  <sodipodi:namedview
     id="base"
     pagecolor="#ffffff"
     bordercolor="#666666"
     borderopacity="1.0"
     inkscape:pageopacity="0.0"
     inkscape:pageshadow="2"
     inkscape:zoom="0.35"
     inkscape:cx="-655.04374"
     inkscape:cy="313.68515"
     inkscape:document-units="mm"
     inkscape:current-layer="layer1"
     showgrid="true"
     inkscape:window-width="1858"
     inkscape:window-height="1057"
     inkscape:window-x="-8"
     inkscape:window-y="-8"
     inkscape:window-maximized="1">
    <inkscape:grid
       id="grid3328"
       type="xygrid" />
  </sodipodi:namedview>
  <metadata
     id="metadata2780">
    <rdf:RDF>
      <cc:Work
         rdf:about="">
        <dc:format>image/svg+xml</dc:format>
        <dc:type
           rdf:resource="http://purl.org/dc/dcmitype/StillImage" />
        <dc:title />
      </cc:Work>
    </rdf:RDF>
  </metadata>
  <g
     inkscape:label="レイヤー 1"
     inkscape:groupmode="layer"
     id="layer1">
    <rect
       style="opacity:1;fill:none;fill-opacity:1;stroke:#000000;stroke-width:0.1006154;stroke-linecap:butt;stroke-linejoin:round;stroke-miterlimit:4;stroke-dasharray:none;stroke-dashoffset:0;stroke-opacity:1;paint-order:normal"
       id="rect3330"
       width="206.375"
       height="216.95834"
       x="2.6458333"
       y="0.66665828" />
    <path
       style="fill:none;stroke:#000000;stroke-width:0.99356908;stroke-linecap:butt;stroke-linejoin:miter;stroke-miterlimit:4;stroke-dasharray:none;stroke-opacity:1;marker-end:url(#marker3358)"
       d="m 2.6458333,198.04594 c 203.7291667,0 203.7291667,0 203.7291667,0"
       id="path3332"
       inkscape:connector-curvature="0" />
    <path
       style="fill:none;stroke:#000000;stroke-width:1;stroke-linecap:butt;stroke-linejoin:miter;stroke-miterlimit:4;stroke-dasharray:none;stroke-opacity:1;marker-end:url(#Arrow2Mend)"
       d="m 23.283305,217.625 c 0,-214.3125001 0,-214.3125001 0,-214.3125001"
       id="path3334"
       inkscape:connector-curvature="0" />
    <g
       title="\large$y$"
       style="fill:#000000"
       id="equation_00"
       transform="translate(-64.244089,-53.453906)">
      <defs
         id="defs3396">
        <path
           d="M 3.144209,1.338979 C 2.82142,1.793275 2.355168,2.199751 1.769365,2.199751 c -0.143462,0 -0.71731,-0.02391 -0.896638,-0.573848 0.035866,0.011955 0.095642,0.011955 0.119552,0.011955 0.358655,0 0.597758,-0.310834 0.597758,-0.585803 0,-0.274969 -0.227148,-0.37061 -0.406475,-0.37061 -0.191283,0 -0.609714,0.143462 -0.609714,0.729265 0,0.609713 0.514072,1.028144 1.195517,1.028144 1.195517,0 2.402989,-1.099875 2.737733,-2.426899 L 5.678705,-4.65056 C 5.69066,-4.710336 5.71457,-4.782067 5.71457,-4.853798 c 0,-0.179328 -0.143462,-0.298879 -0.322789,-0.298879 -0.107597,0 -0.358655,0.04782 -0.454297,0.406475 l -0.884682,3.51482 c -0.059776,0.215193 -0.059776,0.239103 -0.155417,0.37061 -0.239104,0.334745 -0.633624,0.74122 -1.207472,0.74122 -0.66949,0 -0.729265,-0.657534 -0.729265,-0.980323 0,-0.681445 0.322789,-1.601993 0.645579,-2.462765 0.131506,-0.3467 0.203238,-0.514072 0.203238,-0.753176 0,-0.502117 -0.358656,-0.956413 -0.944459,-0.956413 -1.099875,0 -1.542216,1.733499 -1.542216,1.829141 0,0.04782 0.04782,0.107596 0.131506,0.107596 0.107597,0 0.119552,-0.047821 0.167373,-0.215193 0.286924,-1.004234 0.74122,-1.482441 1.207472,-1.482441 0.107596,0 0.310834,0 0.310834,0.394521 0,0.310834 -0.131507,0.657534 -0.310834,1.11183 -0.585804,1.566127 -0.585804,1.960648 -0.585804,2.247572 0,1.135741 0.812952,1.398755 1.41071,1.398755 0.3467,0 0.777086,-0.107597 1.195517,-0.549938 l 0.011955,0.011955 C 3.682192,0.286924 3.56264,0.753176 3.144209,1.338979 Z"
           id="equation_00_00"
           inkscape:connector-curvature="0" />
      </defs>
      <g
         id="equation_00_g">
        <use
           id="use3398"
           xlink:href="#equation_00_00"
           y="62.764633"
           x="76.712326"
           width="100%"
           height="100%" />
      </g>
    </g>
    <g
       title="\large$x$"
       style="fill:#000000"
       id="equation_01"
       transform="translate(124.35791,145.95418)">
      <defs
         id="defs3445">
        <path
           d="m 5.66675,-4.877709 c -0.382566,0.071731 -0.526028,0.358655 -0.526028,0.585804 0,0.286924 0.227148,0.382565 0.394521,0.382565 0.358655,0 0.609713,-0.310834 0.609713,-0.633624 0,-0.502117 -0.573848,-0.729265 -1.075965,-0.729265 -0.729265,0 -1.135741,0.71731 -1.243337,0.944458 -0.274969,-0.896637 -1.016189,-0.944458 -1.231383,-0.944458 -1.219427,0 -1.865006,1.566127 -1.865006,1.829141 0,0.04782 0.047821,0.107596 0.131507,0.107596 0.095641,0 0.119552,-0.071731 0.143462,-0.119552 0.406476,-1.327023 1.207472,-1.578082 1.554172,-1.578082 0.537983,0 0.645579,0.502117 0.645579,0.789041 0,0.263014 -0.071731,0.537983 -0.215193,1.111831 l -0.406476,1.637858 c -0.179327,0.71731 -0.526027,1.374844 -1.159651,1.374844 -0.059776,0 -0.358655,0 -0.609714,-0.155417 0.430386,-0.083686 0.526028,-0.442341 0.526028,-0.585803 0,-0.239103 -0.179328,-0.382565 -0.406476,-0.382565 -0.286924,0 -0.597758,0.251058 -0.597758,0.633623 0,0.502117 0.561893,0.729266 1.075965,0.729266 0.573848,0 0.980324,-0.454297 1.231382,-0.944459 0.191283,0.705355 0.789041,0.944459 1.231382,0.944459 1.219428,0 1.865007,-1.566127 1.865007,-1.829141 0,-0.059776 -0.047821,-0.107597 -0.119552,-0.107597 -0.107596,0 -0.119552,0.059776 -0.155417,0.155418 -0.32279,1.052054 -1.016189,1.542216 -1.554172,1.542216 -0.418431,0 -0.645579,-0.310834 -0.645579,-0.800996 0,-0.263014 0.047821,-0.454296 0.239103,-1.243337 l 0.418431,-1.625903 c 0.179328,-0.71731 0.585803,-1.243338 1.135741,-1.243338 0.02391,0 0.358655,0 0.609714,0.155417 z"
           id="equation_01_00"
           inkscape:connector-curvature="0" />
      </defs>
      <g
         id="equation_01_g">
        <use
           id="use3447"
           xlink:href="#equation_01_00"
           y="62.764633"
           x="76.712326"
           width="100%"
           height="100%" />
      </g>
    </g>
    <g
       title="\large$O$"
       style="fill:#000000"
       id="equation_02"
       transform="translate(-65.005776,147.79901)">
      <defs
         id="defs3564">
        <path
           d="m 8.679452,-5.236364 c 0,-1.972602 -1.291158,-3.180074 -2.964882,-3.180074 -2.558406,0 -5.140722,2.749688 -5.140722,5.511332 0,1.876962 1.243338,3.156165 2.976837,3.156165 2.510585,0 5.128767,-2.618182 5.128767,-5.487423 z M 3.622416,-0.02391 c -0.980324,0 -2.020423,-0.71731 -2.020423,-2.582317 0,-1.08792 0.39452,-2.86924 1.374844,-4.064757 0.872727,-1.052055 1.876961,-1.482441 2.677958,-1.482441 1.052054,0 2.068244,0.765131 2.068244,2.486675 0,1.06401 -0.454297,2.725779 -1.255293,3.86152 -0.872727,1.219427 -1.960648,1.78132 -2.84533,1.78132 z"
           id="equation_02_00"
           inkscape:connector-curvature="0" />
      </defs>
      <g
         id="equation_02_g">
        <use
           id="use3566"
           xlink:href="#equation_02_00"
           y="62.764633"
           x="76.712326"
           width="100%"
           height="100%" />
      </g>
    </g>
    <path
       id="path1502"
       title="1/sqrt(x)"
       d="m 26.458305,-15.226687 c 0.06886,-7.23e-4 0.137721,63.547075 0.206582,63.545628 0.06886,-0.0014 0.137721,28.153928 0.206581,28.151758 0.06886,-0.0022 0.137721,16.784679 0.206582,16.781786 0.06886,-0.0029 0.137721,11.456095 0.206581,11.452475 0.06886,-0.004 0.137721,8.45821 0.206582,8.45388 0.06886,-0.004 0.137721,6.57538 0.206581,6.57032 0.06886,-0.005 0.137722,5.30198 0.206582,5.29619 0.06886,-0.006 0.137721,4.39342 0.206582,4.38691 0.06886,-0.007 0.137721,3.71843 0.206581,3.7112 0.06886,-0.007 0.137721,3.2008 0.206582,3.19285 0.06886,-0.008 0.137721,2.7936 0.206581,2.78492 0.06886,-0.009 0.137721,2.46646 0.206582,2.45706 0.06886,-0.009 0.137721,2.19899 0.206582,2.18886 0.06886,-0.0101 0.137721,1.977 0.206581,1.96615 0.06886,-0.0108 0.137721,1.79039 0.206582,1.77882 0.06886,-0.0116 0.137721,1.63175 0.206581,1.61946 0.06886,-0.0123 0.137721,1.49557 0.206582,1.48256 0.06886,-0.013 0.137721,1.37765 0.206581,1.36391 0.06886,-0.0137 0.137722,1.27476 0.206582,1.2603 0.06886,-0.0145 0.137721,1.18435 0.206582,1.16917 0.06886,-0.0152 0.137721,1.10442 0.206581,1.08851 0.06886,-0.0159 0.137721,1.03337 0.206582,1.01674 0.06886,-0.0166 0.137721,0.96986 0.206581,0.9525 0.06886,-0.0174 0.137721,0.91285 0.206582,0.89477 0.06886,-0.0181 0.137721,0.86144 0.206582,0.84264 0.06886,-0.0188 0.137721,0.8149 0.206581,0.79537 0.06886,-0.0195 0.137721,0.77263 0.206582,0.75238 0.06886,-0.0203 0.137721,0.7341 0.206581,0.71312 0.06886,-0.021 0.137721,0.69886 0.206582,0.67716 0.06886,-0.0217 0.137721,0.66655 0.206581,0.64413 0.06886,-0.0224 0.137722,0.63683 0.206582,0.61369 0.06886,-0.0231 0.137721,0.60944 0.206582,0.58558 0.06886,-0.0239 0.137721,0.58414 0.206581,0.55955 0.06886,-0.0246 0.137721,0.56071 0.206582,0.53539 0.06886,-0.0253 0.137721,0.53897 0.206581,0.51293 0.06886,-0.026 0.137721,0.51875 0.206582,0.492 0.06886,-0.0268 0.137721,0.49992 0.206582,0.47244 0.06886,-0.0275 0.137721,0.48235 0.206581,0.45415 0.06886,-0.0282 0.137721,0.46594 0.206582,0.43701 0.06886,-0.0289 0.137721,0.45058 0.206581,0.42093 0.06886,-0.0297 0.137721,0.43617 0.206582,0.4058 0.06886,-0.0304 0.137721,0.42266 0.206581,0.39156 0.06886,-0.0311 0.137721,0.40996 0.206582,0.37814 0.06886,-0.0318 0.137721,0.398 0.206582,0.36546 0.06886,-0.0325 0.137721,0.38674 0.206581,0.35347 0.06886,-0.0333 0.137721,0.37613 0.206582,0.34214 0.06886,-0.034 0.137721,0.3661 0.206581,0.33139 0.06886,-0.0347 0.137721,0.35662 0.206582,0.32119 0.06886,-0.0354 0.137721,0.34766 0.206581,0.3115 0.06886,-0.0362 0.137722,0.33919 0.206582,0.3023 0.06886,-0.0369 0.137721,0.33114 0.206582,0.29354 0.06886,-0.0376 0.137721,0.32352 0.206581,0.28519 0.06886,-0.0383 0.137721,0.31628 0.206582,0.27723 0.06886,-0.0391 0.137721,0.30941 0.206581,0.26963 0.06886,-0.0398 0.137721,0.30288 0.206582,0.26238 0.06886,-0.0405 0.137721,0.29666 0.206582,0.25544 0.06886,-0.0412 0.137721,0.29076 0.206581,0.24881 0.06886,-0.0419 0.137721,0.28513 0.206582,0.24246 0.06886,-0.0427 0.137721,0.27976 0.206581,0.23637 0.06886,-0.0434 0.137721,0.27464 0.206582,0.23053 0.06886,-0.0441 0.137721,0.26977 0.206581,0.22493 0.06886,-0.0448 0.137722,0.26512 0.206582,0.21956 0.06886,-0.0456 0.137721,0.26067 0.206582,0.21438 0.06886,-0.0463 0.137721,0.25643 0.206581,0.20943 0.06886,-0.047 0.137721,0.25237 0.206582,0.20464 0.06886,-0.0477 0.137721,0.2485 0.206581,0.20005 0.06886,-0.0485 0.137721,0.24479 0.206582,0.19561 0.06886,-0.0492 0.137721,0.24125 0.206582,0.19135 0.06886,-0.0499 0.137721,0.23786 0.206581,0.18724 0.06886,-0.0506 0.137721,0.23461 0.206582,0.18326 0.06886,-0.0513 0.137721,0.2315 0.206581,0.17943 0.06886,-0.0521 0.137721,0.22853 0.206582,0.17573 0.06886,-0.0528 0.137721,0.22568 0.206581,0.17216 0.06886,-0.0535 0.137722,0.22295 0.206582,0.16871 0.06886,-0.0542 0.137721,0.22032 0.206582,0.16536 0.06886,-0.055 0.137721,0.21782 0.206581,0.16213 0.06886,-0.0557 0.137721,0.21541 0.206582,0.159 0.06886,-0.0564 0.137721,0.21311 0.206581,0.15598 0.06886,-0.0571 0.137721,0.21089 0.206582,0.15304 0.06886,-0.0579 0.137721,0.20877 0.206582,0.15019 0.06886,-0.0586 0.137721,0.20675 0.206581,0.14745 0.06886,-0.0593 0.137721,0.20479 0.206582,0.14477 0.06886,-0.06 0.137721,0.20292 0.206581,0.14217 0.06886,-0.0607 0.137721,0.20113 0.206582,0.13966 0.06886,-0.0615 0.137721,0.19941 0.206581,0.13722 0.06886,-0.0622 0.137721,0.19776 0.206582,0.13484 0.06886,-0.0629 0.137721,0.19618 0.206582,0.13254 0.06886,-0.0636 0.137721,0.19466 0.206581,0.1303 0.06886,-0.0644 0.137721,0.19321 0.206582,0.12812 0.06886,-0.0651 0.137721,0.19181 0.206581,0.126 0.06886,-0.0658 0.137721,0.19048 0.206582,0.12395 0.06886,-0.0665 0.137721,0.18919 0.206582,0.12193 0.06886,-0.0673 0.137721,0.18797 0.206581,0.11999 0.06886,-0.068 0.137721,0.18679 0.206582,0.11809 0.06886,-0.0687 0.137721,0.18567 0.206581,0.11624 0.06886,-0.0694 0.137721,0.18458 0.206582,0.11443 0.06886,-0.0701 0.137721,0.18356 0.206581,0.11268 0.06886,-0.0709 0.137721,0.18257 0.206582,0.11097 0.06886,-0.0716 0.137721,0.18162 0.206582,0.1093 0.06886,-0.0723 0.137721,0.18072 0.206581,0.10768 0.06886,-0.073 0.137721,0.17985 0.206582,0.10608 0.06886,-0.0738 0.137721,0.17903 0.206581,0.10454 0.06886,-0.0745 0.137721,0.17823 0.206582,0.10302 0.06886,-0.0752 0.137721,0.17749 0.206581,0.10155 0.06886,-0.0759 0.137722,0.17677 0.206582,0.10011 0.06886,-0.0767 0.137721,0.17608 0.206582,0.0987 0.06886,-0.0774 0.137721,0.17544 0.206581,0.0973 0.06886,-0.0781 0.137721,0.17481 0.206582,0.096 0.06886,-0.0788 0.137721,0.17422 0.206581,0.0947 0.06886,-0.0796 0.137721,0.17367 0.206582,0.0934 0.06886,-0.0803 0.137721,0.17314 0.206582,0.0921 0.06886,-0.081 0.137721,0.17263 0.206581,0.0909 0.06886,-0.0817 0.137721,0.17216 0.206582,0.0897 0.06886,-0.0824 0.137721,0.1717 0.206581,0.0885 0.06886,-0.0832 0.137721,0.17128 0.206582,0.0874 0.06886,-0.0839 0.137721,0.17088 0.206581,0.0863 0.06886,-0.0846 0.137722,0.17051 0.206582,0.0852 0.06886,-0.0853 0.137721,0.17016 0.206582,0.0841 0.06886,-0.0861 0.137721,0.16982 0.206581,0.083 0.06886,-0.0868 0.137721,0.16952 0.206582,0.082 0.06886,-0.0875 0.137721,0.16923 0.206581,0.081 0.06886,-0.0882 0.137721,0.16896 0.206582,0.08 0.06886,-0.0889 0.137721,0.16872 0.206582,0.079 0.06886,-0.0897 0.137721,0.16849 0.206581,0.0781 0.06886,-0.0904 0.137721,0.16828 0.206582,0.0772 0.06886,-0.0911 0.137721,0.16809 0.206581,0.0762 0.06886,-0.0918 0.137721,0.16792 0.206582,0.0754 0.06886,-0.0926 0.137721,0.16776 0.206581,0.0745 0.06886,-0.0933 0.137721,0.16763 0.206582,0.0736 0.06886,-0.094 0.137721,0.16751 0.206582,0.0728 0.06886,-0.0947 0.137721,0.1674 0.206581,0.0719 0.06886,-0.0955 0.137721,0.16731 0.206582,0.0711 0.06886,-0.0962 0.137721,0.16724 0.206581,0.0703 0.06886,-0.0969 0.137721,0.16718 0.206582,0.0695 0.06886,-0.0976 0.137721,0.16713 0.206582,0.0688 0.06886,-0.0983 0.137721,0.1671 0.206581,0.068 0.06886,-0.0991 0.137721,0.16709 0.206582,0.0673 0.06886,-0.0998 0.137721,0.16707 0.206581,0.0666 0.06886,-0.10052 0.137722,0.16709 0.206582,0.0658 0.0689,-0.10125 0.13772,0.16711 0.20658,0.0651 0.0689,-0.10197 0.13772,0.16714 0.206577,0.0644 0.0689,-0.1027 0.13772,0.16719 0.20658,0.0638 0.0689,-0.10342 0.13773,0.16725 0.20659,0.0631 0.0689,-0.10414 0.137717,0.16731 0.206577,0.0625 0.0689,-0.10487 0.13772,0.16739 0.20658,0.0618 0.0689,-0.10559 0.13772,0.16748 0.206577,0.0612 0.0689,-0.10631 0.13772,0.16759 0.20658,0.0606 0.0689,-0.10703 0.13772,0.1677 0.20658,0.06 0.0689,-0.10776 0.137727,0.16782 0.206587,0.0593 0.0689,-0.10848 0.13772,0.16796 0.20658,0.0588 0.0689,-0.1092 0.13772,0.1681 0.20658,0.0582 0.0689,-0.10992 0.137717,0.16825 0.206577,0.0576 0.0689,-0.11064 0.13772,0.16842 0.20658,0.0571 0.0689,-0.11138 0.137717,0.16858 0.206577,0.0565 0.0689,-0.11209 0.13772,0.16877 0.20659,0.0559 0.0689,-0.11282 0.13772,0.16895 0.20658,0.0554 0.0689,-0.11355 0.137717,0.16914 0.206577,0.0549 0.0689,-0.11427 0.13772,0.16935 0.20658,0.0544 0.0689,-0.11499 0.13772,0.16957 0.206577,0.0539 0.0689,-0.11571 0.13772,0.16979 0.20658,0.0533 0.0689,-0.11643 0.13772,0.17002 0.20658,0.0529 0.0689,-0.11716 0.137727,0.17025 0.206587,0.0524 0.0689,-0.11788 0.13772,0.17049 0.20658,0.0519 0.0689,-0.11861 0.13772,0.17074 0.206577,0.0514 0.0689,-0.11932 0.13772,0.171 0.20658,0.051 0.0689,-0.12005 0.13772,0.17127 0.20658,0.0505 0.0689,-0.12078 0.137717,0.17153 0.206577,0.05 0.0689,-0.1215 0.13773,0.17181 0.20659,0.0496 0.0689,-0.12222 0.13772,0.1721 0.20658,0.0492 0.0689,-0.12294 0.137717,0.17239 0.206577,0.0487 0.0689,-0.12367 0.13772,0.17269 0.20658,0.0483 0.0689,-0.12439 0.137717,0.17299 0.206577,0.0479 0.0689,-0.12511 0.13772,0.1733 0.20658,0.0475 0.0689,-0.12584 0.13772,0.17362 0.20659,0.0471 0.0689,-0.12656 0.137717,0.17394 0.206577,0.0467 0.0689,-0.12729 0.13772,0.17426 0.20658,0.0463 0.0689,-0.12801 0.13772,0.1746 0.206577,0.0459 0.0689,-0.12873 0.13772,0.17494 0.20658,0.0455 0.0689,-0.12945 0.13772,0.17528 0.20658,0.0451 0.0689,-0.13018 0.137717,0.17563 0.206577,0.0447 0.0689,-0.1309 0.13773,0.17599 0.20659,0.0444 0.0689,-0.13162 0.13772,0.17635 0.206577,0.044 0.0689,-0.13234 0.13772,0.17671 0.20658,0.0437 0.0689,-0.13307 0.13772,0.17707 0.20658,0.0433 0.0689,-0.13379 0.137717,0.17745 0.206577,0.0429 0.0689,-0.13451 0.13772,0.17783 0.20658,0.0426 0.0689,-0.13524 0.13773,0.17821 0.206587,0.0422 0.0689,-0.13596 0.13772,0.1786 0.20658,0.0419 0.0689,-0.13668 0.13772,0.17899 0.20658,0.0416 0.0689,-0.1374 0.137717,0.17939 0.206577,0.0413 0.0689,-0.13813 0.13772,0.17979 0.20658,0.0409 0.0689,-0.13886 0.13772,0.18019 0.20658,0.0406 0.0689,-0.13957 0.137717,0.18061 0.206587,0.0403 0.0689,-0.1403 0.13772,0.18101 0.20658,0.04 0.0689,-0.14103 0.137717,0.18143 0.206577,0.0397 0.0689,-0.14174 0.13772,0.18185 0.20658,0.0394 0.0689,-0.14247 0.13772,0.18227 0.20658,0.0391 0.0689,-0.14319 0.137717,0.1827 0.206577,0.0388 0.0689,-0.14392 0.13772,0.18313 0.20658,0.0385 0.0689,-0.14464 0.13773,0.18357 0.206587,0.0382 0.0689,-0.14537 0.13772,0.18401 0.20658,0.0379 0.0689,-0.14608 0.13772,0.18445 0.20658,0.0377 0.0689,-0.14681 0.137717,0.1849 0.206577,0.0374 0.0689,-0.14753 0.13772,0.18535 0.20658,0.0371 0.0689,-0.14826 0.13772,0.1858 0.206577,0.0368 0.0689,-0.14898 0.13773,0.18626 0.20659,0.0366 0.0689,-0.1497 0.13772,0.18672 0.20658,0.0363 0.0689,-0.15042 0.137717,0.18718 0.206577,0.036 0.0689,-0.15114 0.13772,0.18765 0.20658,0.0358 0.0689,-0.15187 0.13772,0.18811 0.206577,0.0355 0.0689,-0.1526 0.13772,0.18858 0.20658,0.0353 0.0689,-0.15332 0.13772,0.18906 0.20659,0.035 0.0689,-0.15404 0.137717,0.18953 0.206577,0.0348 0.0689,-0.15476 0.13772,0.19002 0.20658,0.0345 0.0689,-0.15549 0.13772,0.1905 0.20658,0.0343 0.0689,-0.15621 0.137717,0.19099 0.206577,0.0341 0.0689,-0.15693 0.13772,0.19148 0.20658,0.0338 0.0689,-0.15765 0.13772,0.19197 0.206577,0.0336 0.0689,-0.15838 0.13773,0.19246 0.20659,0.0334 0.0689,-0.1591 0.13772,0.19296 0.20658,0.0331 0.0689,-0.15983 0.137717,0.19346 0.206577,0.0329 0.0689,-0.16055 0.13772,0.19395 0.20658,0.0327 0.0689,-0.16127 0.13772,0.19446 0.206577,0.0325 0.0689,-0.162 0.13772,0.19497 0.20658,0.0323 0.0689,-0.16272 0.13773,0.19547 0.20659,0.032 0.0689,-0.16344 0.137717,0.19599 0.206577,0.0318 0.0689,-0.16417 0.13772,0.1965 0.20658,0.0316 0.0689,-0.16489 0.13772,0.19702 0.206577,0.0314 0.0689,-0.16562 0.13772,0.19753 0.20658,0.0312 0.0689,-0.16634 0.13772,0.19805 0.20658,0.031 0.0689,-0.16706 0.137717,0.19857 0.206587,0.0308 0.0689,-0.16778 0.13772,0.19911 0.20658,0.0306 0.0689,-0.1685 0.13772,0.19963 0.20658,0.0304 0.0689,-0.16923 0.137717,0.20016 0.206577,0.0302 0.0689,-0.16996 0.13772,0.20069 0.20658,0.03 0.0689,-0.17067 0.137717,0.20123 0.206577,0.0298 0.0689,-0.1714 0.13772,0.20176 0.20658,0.0296 0.0689,-0.17212 0.13773,0.20229 0.20659,0.0294 0.0689,-0.17285 0.137717,0.20283 0.206577,0.0293 0.0689,-0.17357 0.13772,0.20337 0.20658,0.0291 0.0689,-0.17429 0.13772,0.20392 0.206577,0.0289 0.0689,-0.17502 0.13772,0.20446 0.20658,0.0287 0.0689,-0.17573 0.13772,0.20501 0.20658,0.0286 0.0689,-0.17646 0.137727,0.20556 0.206587,0.0284 0.0689,-0.17719 0.13772,0.2061 0.20658,0.0282 0.0689,-0.17791 0.13772,0.20666 0.206577,0.028 0.0689,-0.17863 0.13772,0.20721 0.20658,0.0279 0.0689,-0.17935 0.13772,0.20777 0.20658,0.0277 0.0689,-0.18007 0.137717,0.20833 0.206577,0.0275 0.0689,-0.1808 0.13772,0.20888 0.20659,0.0274 0.0689,-0.18152 0.13772,0.20944 0.206577,0.0272 0.0689,-0.18225 0.13772,0.21 0.20658,0.027 0.0689,-0.18297 0.13772,0.21057 0.20658,0.0269 0.0689,-0.18369 0.137717,0.21113 0.206577,0.0267 0.0689,-0.18442 0.13772,0.2117 0.20658,0.0266 0.0689,-0.18514 0.13772,0.21227 0.20658,0.0264 0.0689,-0.18586 0.137727,0.21283 0.206587,0.0263 0.0689,-0.18658 0.13772,0.21341 0.20658,0.0261 0.0689,-0.18731 0.137717,0.21398 0.206577,0.0259 0.0689,-0.18803 0.13772,0.21456 0.20658,0.0258 0.0689,-0.18875 0.13772,0.21513 0.20658,0.0257 0.0689,-0.18948 0.137717,0.2157 0.206577,0.0255 0.0689,-0.1902 0.13773,0.21629 0.20659,0.0254 0.0689,-0.19092 0.13772,0.21687 0.206577,0.0252 0.0689,-0.19164 0.13772,0.21745 0.20658,0.0251 0.0689,-0.19237 0.13772,0.21802 0.20658,0.0249 0.0689,-0.19309 0.137717,0.21861 0.206577,0.0248 0.0689,-0.19382 0.13772,0.21919 0.20658,0.0247 0.0689,-0.19454 0.13772,0.21979 0.206587,0.0245 0.0689,-0.19526 0.13772,0.22037 0.20658,0.0244 0.0689,-0.19599 0.13772,0.22095 0.20658,0.0242 0.0689,-0.19671 0.137717,0.22154 0.206577,0.0241 0.0689,-0.19743 0.13772,0.22214 0.20658,0.024 0.0689,-0.19815 0.13772,0.22274 0.20658,0.0239 0.0689,-0.19888 0.137717,0.22332 0.206577,0.0237 0.0689,-0.1996 0.13773,0.22392 0.20659,0.0236 0.0689,-0.20032 0.137717,0.22452 0.206577,0.0235 0.0689,-0.20105 0.13772,0.22511 0.20658,0.0233 0.0689,-0.20177 0.13772,0.22571 0.20658,0.0232 0.0689,-0.2025 0.137717,0.2263 0.206577,0.0231 0.0689,-0.20322 0.13772,0.22691 0.20658,0.023 0.0689,-0.20395 0.13773,0.22751 0.206587,0.0228 0.0689,-0.20466 0.13772,0.22812 0.20658,0.0227 0.0689,-0.20539 0.13772,0.22871 0.20658,0.0226 0.0689,-0.20611 0.137717,0.22932 0.206577,0.0225 0.0689,-0.20683 0.13772,0.22993 0.20658,0.0224 0.0689,-0.20756 0.13772,0.23053 0.206577,0.0223 0.0689,-0.20828 0.13772,0.23114 0.20659,0.0221 0.0689,-0.209 0.13772,0.23175 0.20658,0.022 0.0689,-0.20972 0.137717,0.23236 0.206577,0.0219 0.0689,-0.21045 0.13772,0.23297 0.20658,0.0218 0.0689,-0.21117 0.13772,0.23358 0.206577,0.0217 0.0689,-0.2119 0.13772,0.23419 0.20658,0.0216 0.0689,-0.21262 0.13772,0.23481 0.20658,0.0215 0.0689,-0.21334 0.137727,0.23542 0.206587,0.0214 0.0689,-0.21407 0.13772,0.23604 0.20658,0.0213 0.0689,-0.21479 0.13772,0.23665 0.20658,0.0211 0.0689,-0.21551 0.137717,0.23727 0.206577,0.021 0.0689,-0.21623 0.13772,0.23789 0.20658,0.0209 0.0689,-0.21696 0.137717,0.23851 0.206577,0.0208 0.0689,-0.21769 0.13773,0.23912 0.20659,0.0207 0.0689,-0.21841 0.13772,0.23974 0.20658,0.0206 0.0689,-0.21913 0.137717,0.24036 0.206577,0.0205 0.0689,-0.21985 0.13772,0.24099 0.20658,0.0204 0.0689,-0.22058 0.13772,0.24161 0.206577,0.0203 0.0689,-0.22129 0.13772,0.24224 0.20658,0.0202 0.0689,-0.22202 0.13773,0.24286 0.20659,0.0201 0.0689,-0.22275 0.137717,0.24349 0.206577,0.02 0.0689,-0.22347 0.13772,0.24411 0.20658,0.0199 0.0689,-0.22419 0.13772,0.24474 0.206577,0.0198 0.0689,-0.22492 0.13772,0.24537 0.20658,0.0197 0.0689,-0.22564 0.13772,0.246 0.20658,0.0196 0.0689,-0.22636 0.137717,0.24662 0.206587,0.0195 0.0689,-0.22708 0.13772,0.24726 0.20658,0.0194 0.0689,-0.22781 0.13772,0.24789 0.20658,0.0194 0.0689,-0.22853 0.137717,0.24851 0.206577,0.0193 0.0689,-0.22925 0.13772,0.24915 0.20658,0.0192 0.0689,-0.22998 0.137717,0.24978 0.206577,0.0191 0.0689,-0.2307 0.13772,0.25042 0.20658,0.019 0.0689,-0.23143 0.13773,0.25105 0.20659,0.0189 0.0689,-0.23214 0.137717,0.25169 0.206577,0.0188 0.0689,-0.23287 0.13772,0.25232 0.20658,0.0187 0.0689,-0.23359 0.13772,0.25296 0.206577,0.0187 0.0689,-0.23432 0.13772,0.25359 0.20658,0.0186 0.0689,-0.23503 0.13772,0.25424 0.20658,0.0185 0.0689,-0.23577 0.137727,0.25487 0.206587,0.0184 0.0689,-0.23648 0.13772,0.25551 0.20658,0.0183 0.0689,-0.23721 0.13772,0.25615 0.206577,0.0182 0.0689,-0.23793 0.13772,0.25679 0.20658,0.0181 0.0689,-0.23865 0.13772,0.25744 0.20658,0.0181 0.0689,-0.23938 0.137717,0.25807 0.206577,0.018 0.0689,-0.2401 0.13772,0.25872 0.20659,0.0179 0.0689,-0.24082 0.13772,0.25936 0.206577,0.0178 0.0689,-0.24154 0.13772,0.26001 0.20658,0.0177 0.0689,-0.24227 0.13772,0.26064 0.20658,0.0177 0.0689,-0.24299 0.137717,0.26129 0.206577,0.0176 0.0689,-0.24371 0.13772,0.26194 0.20658,0.0175 0.0689,-0.24444 0.13772,0.26258 0.20658,0.0174 0.0689,-0.24517 0.137727,0.26322 0.206587,0.0173 0.0689,-0.24589 0.13772,0.26387 0.20658,0.0173 0.0689,-0.24661 0.137717,0.26453 0.206577,0.0172 0.0689,-0.24733 0.13772,0.26517 0.20658,0.0171 0.0689,-0.24806 0.13772,0.26582 0.20658,0.017 0.0689,-0.24878 0.137717,0.26646 0.206577,0.017 0.0689,-0.2495 0.13773,0.26712 0.20659,0.0169 0.0689,-0.25022 0.13772,0.26777 0.206577,0.0168 0.0689,-0.25095 0.13772,0.26842 0.20658,0.0168 0.0689,-0.25167 0.13772,0.26907 0.20658,0.0167 0.0689,-0.25239 0.137717,0.26972 0.206577,0.0166 0.0689,-0.25312 0.13772,0.27037 0.20658,0.0165 0.0689,-0.25384 0.13772,0.27102 0.206587,0.0165 0.0689,-0.25457 0.13772,0.27168 0.20658,0.0164 0.0689,-0.25529 0.13772,0.27233 0.20658,0.0163 0.0689,-0.25601 0.137717,0.27299 0.206577,0.0162 0.0689,-0.25673 0.13772,0.27364 0.20658,0.0162 0.0689,-0.25746 0.13772,0.27429 0.206577,0.0161 0.0689,-0.25818 0.13772,0.27496 0.20658,0.016 0.0689,-0.2589 0.13773,0.27561 0.20659,0.016 0.0689,-0.25962 0.13772,0.27627 0.20658,0.0159 0.0689,-0.26035 0.13772,0.27692 0.20658,0.0159 0.0689,-0.26108 0.13772,0.27758 0.20658,0.0158 0.0689,-0.2618 0.13772,0.27824 0.20658,0.0157 0.0689,-0.26252 0.13772,0.27889 0.20658,0.0157 0.0689,-0.26324 0.13773,0.27955 0.20659,0.0156 0.0689,-0.26397 0.13772,0.28021 0.20658,0.0155 0.0689,-0.26469 0.13772,0.28088 0.20658,0.0155 0.0689,-0.26541 0.13772,0.28154 0.20658,0.0154 0.0689,-0.26613 0.13772,0.2822 0.20658,0.0153 0.0689,-0.26686 0.13772,0.28285 0.20658,0.0153 0.0689,-0.26758 0.13772,0.28352 0.20659,0.0152 0.0689,-0.2683 0.13772,0.28418 0.20658,0.0152 0.0689,-0.26903 0.13772,0.28484 0.20658,0.0151 0.0689,-0.26975 0.13772,0.2855 0.20658,0.015 0.0689,-0.27048 0.13772,0.28616 0.20658,0.015 0.0689,-0.2712 0.13772,0.28683 0.20658,0.0149 0.0689,-0.27192 0.13772,0.2875 0.20658,0.0148 0.0689,-0.27264 0.13773,0.28816 0.20659,0.0148 0.0689,-0.27336 0.13772,0.28883 0.20658,0.0147 0.0689,-0.2741 0.13772,0.28948 0.20658,0.0147 0.0689,-0.27482 0.13772,0.29015 0.20658,0.0146 0.0689,-0.27553 0.13772,0.29082 0.20658,0.0146 0.0689,-0.27626 0.13772,0.29149 0.20658,0.0145 0.0689,-0.27698 0.13773,0.29215 0.20659,0.0145 0.0689,-0.27771 0.13772,0.29282 0.20658,0.0144 0.0689,-0.27843 0.13772,0.29348 0.20658,0.0143 0.0689,-0.27916 0.13772,0.29415 0.20658,0.0143 0.0689,-0.27987 0.13772,0.29483 0.20658,0.0142 0.0689,-0.2806 0.13772,0.29548 0.20658,0.0142 0.0689,-0.28132 0.13772,0.29616 0.20659,0.0141 0.0689,-0.28204 0.13772,0.29683 0.20658,0.0141 0.0689,-0.28277 0.13772,0.2975 0.20658,0.014 0.0689,-0.2835 0.13772,0.29816 0.20658,0.0139 0.0689,-0.28422 0.13772,0.29883 0.20658,0.0139 0.0689,-0.28494 0.13772,0.29951 0.20658,0.0138 0.0689,-0.28566 0.13772,0.30017 0.20658,0.0138 0.0689,-0.28639 0.13773,0.30085 0.20659,0.0137 0.0689,-0.28711 0.13772,0.30152 0.20658,0.0137 0.0689,-0.28783 0.13772,0.30219 0.20658,0.0136 0.0689,-0.28855 0.13772,0.30287 0.20658,0.0136 0.0689,-0.28928 0.13772,0.30354 0.20658,0.0135 0.0689,-0.29 0.13772,0.30421 0.20658,0.0135 0.0689,-0.29073 0.13773,0.30488 0.20659,0.0134 0.0689,-0.29145 0.13772,0.30556 0.20658,0.0134 0.0689,-0.29217 0.13772,0.30622 0.20658,0.0133 0.0689,-0.29289 0.13772,0.3069 0.20658,0.0133 0.0689,-0.29362 0.13772,0.30757 0.20658,0.0132 0.0689,-0.29434 0.13772,0.30825 0.20658,0.0132 0.0689,-0.29506 0.13772,0.30892 0.20659,0.0131 0.0689,-0.29579 0.13772,0.3096 0.20658,0.0131 0.0689,-0.29651 0.13772,0.31027 0.20658,0.013 0.0689,-0.29723 0.13772,0.31095 0.20658,0.013 0.0689,-0.29796 0.13772,0.31162 0.20658,0.0129 0.0689,-0.29867 0.13772,0.31231 0.20658,0.0129 0.0689,-0.29941 0.13772,0.31298 0.20658,0.0128 0.0689,-0.30013 0.13773,0.31366 0.20659,0.0128 0.0689,-0.30085 0.13772,0.31433 0.20658,0.0128 0.0689,-0.30157 0.13772,0.31501 0.20658,0.0127 0.0689,-0.3023 0.13772,0.31569 0.20658,0.0127 0.0689,-0.30302 0.13772,0.31637 0.20658,0.0126 0.0689,-0.30374 0.13772,0.31705 0.20658,0.0126 0.0689,-0.30446 0.13773,0.31773 0.20659,0.0125 0.0689,-0.30519 0.13772,0.3184 0.20658,0.0125 0.0689,-0.30591 0.13772,0.31908 0.20658,0.0125 0.0689,-0.30664 0.13772,0.31976 0.20658,0.0124 0.0689,-0.30736 0.13772,0.32044 0.20658,0.0124 0.0689,-0.30808 0.13772,0.32112 0.20658,0.0123 0.0689,-0.30881 0.13772,0.3218 0.20659,0.0123 0.0689,-0.30953 0.13772,0.32248 0.20658,0.0122 0.0689,-0.31025 0.13772,0.32316 0.20658,0.0122 0.0689,-0.31098 0.13772,0.32384 0.20658,0.0121 0.0689,-0.3117 0.13772,0.32452 0.20658,0.0121 0.0689,-0.31242 0.13772,0.32521 0.20658,0.0121 0.0689,-0.31314 0.13772,0.32589 0.20658,0.012 0.0689,-0.31386 0.13773,0.32657 0.20659,0.012 0.0689,-0.31459 0.13772,0.32725 0.20658,0.0119 0.0689,-0.31532 0.13772,0.32793 0.20658,0.0119 0.0689,-0.31603 0.13772,0.32862 0.20658,0.0119 0.0689,-0.31676 0.13772,0.32929 0.20658,0.0118 0.0689,-0.31748 0.13772,0.32998 0.20658,0.0118 0.0689,-0.3182 0.13773,0.33067 0.20659,0.0117 0.0689,-0.31893 0.13772,0.33134 0.20658,0.0117 0.0689,-0.31965 0.13772,0.33203 0.20658,0.0117 0.0689,-0.32037 0.13772,0.33272 0.20658,0.0116 0.0689,-0.3211 0.13772,0.3334 0.20658,0.0116 0.0689,-0.32183 0.13772,0.33408 0.20658,0.0115 0.0689,-0.32254 0.13772,0.33477 0.20659,0.0115 0.0689,-0.32327 0.13772,0.33545 0.20658,0.0115 0.0689,-0.32399 0.13772,0.33613 0.20658,0.0114 0.0689,-0.32471 0.13772,0.33682 0.20658,0.0114 0.0689,-0.32544 0.13772,0.33751 0.20658,0.0114 0.0689,-0.32616 0.13772,0.33819 0.20658,0.0113 0.0689,-0.32688 0.13772,0.33888 0.20658,0.0113 0.0689,-0.3276 0.13773,0.33957 0.20659,0.0112 0.0689,-0.32833 0.13772,0.34025 0.20658,0.0112 0.0689,-0.32905 0.13772,0.34094 0.20658,0.0112 0.0689,-0.32978 0.13772,0.34162 0.20658,0.0111 0.0689,-0.3305 0.13772,0.34231 0.20658,0.0111 0.0689,-0.33122 0.13772,0.34299 0.20658,0.0111 0.0689,-0.33195 0.13773,0.34368 0.20659,0.011 0.0689,-0.33267 0.13772,0.34437 0.20658,0.011 0.0689,-0.33339 0.13772,0.34506 0.20658,0.0109 0.0689,-0.33411 0.13772,0.34575 0.20658,0.0109 0.0689,-0.33484 0.13772,0.34643 0.20658,0.0109 0.0689,-0.33556 0.13772,0.34712 0.20658,0.0108 0.0689,-0.33628 0.13772,0.34781 0.20659,0.0108 0.0689,-0.33701 0.13772,0.34849 0.20658,0.0108 0.0689,-0.33773 0.13772,0.34919 0.20658,0.0107 0.0689,-0.33845 0.13772,0.34988 0.20658,0.0107 0.0689,-0.33918 0.13772,0.35057 0.20658,0.0107 0.0689,-0.3399 0.13772,0.35126 0.20658,0.0106 0.0689,-0.34062 0.13772,0.35195 0.20658,0.0106 0.0689,-0.34135 0.13773,0.35263 0.20659,0.0106 0.0689,-0.34207 0.13772,0.35332 0.20658,0.0105 0.0689,-0.34279 0.13772,0.35401 0.20658,0.0105 0.0689,-0.34352 0.13772,0.3547 0.20658,0.0105 0.0689,-0.34424 0.13772,0.35539 0.20658,0.0104 0.0689,-0.34497 0.13772,0.35608 0.20658,0.0104 0.0689,-0.34568 0.13773,0.35678 0.20659,0.0104 0.0689,-0.34641 0.13772,0.35746 0.20658,0.0103 0.0689,-0.34713 0.13772,0.35815 0.20658,0.0103 0.0689,-0.34786 0.13772,0.35884 0.20658,0.0103 0.0689,-0.34858 0.13772,0.35953 0.20658,0.0102 0.0689,-0.3493 0.13772,0.36023 0.20658,0.0102 0.0689,-0.35002 0.13772,0.36093 0.20659,0.0102 0.0689,-0.35075 0.13772,0.36161 0.20658,0.0101 0.0689,-0.35148 0.13772,0.3623 0.20658,0.0101 0.0689,-0.3522 0.13772,0.36299 0.20658,0.0101 0.0689,-0.35291 0.13772,0.36369 0.20658,0.0101 0.0689,-0.35364 0.13772,0.36438 0.20658,0.01 0.0689,-0.35437 0.13772,0.36507 0.20658,0.01 0.0689,-0.35508 0.13773,0.36577 0.20659,0.01 0.0689,-0.35581 0.13772,0.36646 0.20658,0.01 0.0689,-0.35653 0.13772,0.36716 0.20658,0.01 0.0689,-0.35726 0.13772,0.36785 0.20658,0.01 0.0689,-0.35798 0.13772,0.36854 0.20658,0.01 0.0689,-0.3587 0.13772,0.36923 0.20658,0.01 0.0689,-0.35943 0.13773,0.36992 0.20659,0.01 0.0689,-0.36015 0.13772,0.37062 0.20658,0.01 0.0689,-0.36088 0.13772,0.37131 0.20658,0.01 0.0689,-0.36159 0.13772,0.37201 0.20658,0.01 0.0689,-0.36232 0.13772,0.37271 0.20658,0.01 0.0689,-0.36304 0.13772,0.3734 0.20658,0.01 0.0689,-0.36376 0.13773,0.37409 0.20659,0.01 0.0689,-0.36449 0.13772,0.37479 0.20658,0.01 0.0689,-0.36522 0.13772,0.37548 0.20658,0.01 0.0689,-0.36593 0.13772,0.37618 0.20658,0.01 0.0689,-0.36666 0.13772,0.37687 0.20658,0.009 0.0689,-0.36739 0.13772,0.37756 0.20658,0.009 0.0689,-0.36811 0.13772,0.37826 0.20659,0.009 0.0689,-0.36883 0.13772,0.37896 0.20658,0.009 0.0689,-0.36955 0.13772,0.37966 0.20658,0.009 0.0689,-0.37027 0.13772,0.38035 0.20658,0.009 0.0689,-0.371 0.13772,0.38105 0.20658,0.009 0.0689,-0.37172 0.13772,0.38175 0.20658,0.009 0.0689,-0.37245 0.13772,0.38244 0.20658,0.009 0.0689,-0.37317 0.13773,0.38313 0.20659,0.009 0.0689,-0.37389 0.13772,0.38383 0.20658,0.009 0.0689,-0.37461 0.13772,0.38453 0.20658,0.009 0.0689,-0.37534 0.13772,0.38523 0.20658,0.009 0.0689,-0.37606 0.13772,0.38592 0.20658,0.009 0.0689,-0.37679 0.13772,0.38662 0.20658,0.009 0.0689,-0.37751 0.13773,0.38731 0.20659,0.009 0.0689,-0.37823 0.13772,0.38801 0.20658,0.009 0.0689,-0.37896 0.13772,0.38871 0.20658,0.009 0.0689,-0.37968 0.13772,0.3894 0.20658,0.009 0.0689,-0.3804 0.13772,0.39011 0.20658,0.009 0.0689,-0.38112 0.13772,0.3908 0.20658,0.009 0.0689,-0.38185 0.13772,0.3915 0.20659,0.009 0.0689,-0.38257 0.13772,0.39219 0.20658,0.009 0.0689,-0.38329 0.13772,0.39289 0.20658,0.009 0.0689,-0.38402 0.13772,0.39359 0.20658,0.009 0.0689,-0.38474 0.13772,0.39429 0.20658,0.009 0.0689,-0.38546 0.13772,0.39499 0.20658,0.009 0.0689,-0.38618 0.13772,0.39569 0.20658,0.009 0.0689,-0.38691 0.13773,0.39639 0.20659,0.009 0.0689,-0.38763 0.13772,0.39709 0.20658,0.009 0.0689,-0.38835 0.13772,0.39779 0.20658,0.009 0.0689,-0.38908 0.13772,0.39848 0.20658,0.009 0.0689,-0.3898 0.13772,0.39918 0.20658,0.009 0.0689,-0.39053 0.13772,0.39988 0.20658,0.009 0.0689,-0.39125 0.13773,0.40058 0.20659,0.009 0.0689,-0.39197 0.13772,0.40128 0.20658,0.009 0.0689,-0.39269 0.13772,0.40198 0.20658,0.009 0.0689,-0.39341 0.13772,0.40268 0.20658,0.009 0.0689,-0.39414 0.13772,0.40338 0.20658,0.009 0.0689,-0.39487 0.13772,0.40408 0.20658,0.008 0.0689,-0.39559 0.13772,0.40478 0.20659,0.008 0.0689,-0.39631 0.13772,0.40547 0.20658,0.008 0.0689,-0.39703 0.13772,0.40618 0.20658,0.008 0.0689,-0.39775 0.13772,0.40688 0.20658,0.008 0.0689,-0.39848 0.13772,0.40758 0.20658,0.008 0.0689,-0.39921 0.13772,0.40828 0.20658,0.008 0.0689,-0.39993 0.13772,0.40898 0.20658,0.008 0.0689,-0.40065 0.13773,0.40968 0.20659,0.008 0.0689,-0.40137 0.13772,0.41038 0.20658,0.008 0.0689,-0.40209 0.13772,0.41109 0.20658,0.008 0.0689,-0.40282 0.13772,0.41178 0.20658,0.008 0.0689,-0.40354 0.13772,0.41248 0.20658,0.008 0.0689,-0.40427 0.13772,0.41318 0.20658,0.008 0.0689,-0.40499 0.13773,0.41389 0.20659,0.008 0.0689,-0.40571 0.13772,0.41459 0.20658,0.008 0.0689,-0.40643 0.13772,0.41529 0.20658,0.008 0.0689,-0.40716 0.13772,0.41599 0.20658,0.008 0.0689,-0.40788 0.13772,0.4167 0.20658,0.008 0.0689,-0.4086 0.13772,0.4174 0.20658,0.008 0.0689,-0.40933 0.13772,0.41809 0.20659,0.008 0.0689,-0.41005 0.13772,0.4188 0.20658,0.008 0.0689,-0.41078 0.13772,0.4195 0.20658,0.008 0.0689,-0.4115 0.13772,0.4202 0.20658,0.008 0.0689,-0.41222 0.13772,0.42091 0.20658,0.008 0.0689,-0.41294 0.13772,0.42161 0.20658,0.008 0.0689,-0.41366 0.13772,0.42231 0.20658,0.008 0.0689,-0.41439 0.13773,0.42301 0.20659,0.008 0.0689,-0.41511 0.13772,0.42372 0.20658,0.008 0.0689,-0.41584 0.13772,0.42442 0.20658,0.008 0.0689,-0.41656 0.13772,0.42512 0.20658,0.008 0.0689,-0.41728 0.13772,0.42583 0.20658,0.008 0.0689,-0.41801 0.13772,0.42653 0.20658,0.008 0.0689,-0.41873 0.13773,0.42722 0.20659,0.008 0.0689,-0.41945 0.13772,0.42793 0.20658,0.008 0.0689,-0.42018 0.13772,0.42863 0.20658,0.008 0.0689,-0.42089 0.13772,0.42934 0.20658,0.008 0.0689,-0.42162 0.13772,0.43004 0.20658,0.008 0.0689,-0.42235 0.13772,0.43074 0.20658,0.008 0.0689,-0.42307 0.13772,0.43145 0.20659,0.008 0.0689,-0.42379 0.13772,0.43215 0.20658,0.008 0.0689,-0.42452 0.13772,0.43285 0.20658,0.008 0.0689,-0.42524 0.13772,0.43356 0.20658,0.008 0.0689,-0.42596 0.13772,0.43427 0.20658,0.008 0.0689,-0.42668 0.13772,0.43497 0.20658,0.008 0.0689,-0.4274 0.13772,0.43568 0.20658,0.008 0.0689,-0.42813 0.13773,0.43638 0.20659,0.008 0.0689,-0.42886 0.13772,0.43708 0.20658,0.007 0.0689,-0.42958 0.13772,0.43778 0.20658,0.007 0.0689,-0.4303 0.13772,0.43849 0.20658,0.007 0.0689,-0.43103 0.13772,0.43919 0.20658,0.007 0.0689,-0.43174 0.13772,0.4399 0.20658,0.007 0.0689,-0.43247 0.13773,0.4406 0.20659,0.007 0.0689,-0.43319 0.13772,0.44131 0.20658,0.007 0.0689,-0.43392 0.13772,0.44201 0.20658,0.007 0.0689,-0.43464 0.13772,0.44272 0.20658,0.007 0.0689,-0.43536 0.13772,0.44343 0.20658,0.007 0.0689,-0.43609 0.13772,0.44413 0.20658,0.007 0.0689,-0.43681 0.13772,0.44483 0.20659,0.007 0.0689,-0.43754 0.13772,0.44553 0.20658,0.007 0.0689,-0.43826 0.13772,0.44624 0.20658,0.007 0.0689,-0.43898 0.13772,0.44695 0.20658,0.007 0.0689,-0.4397 0.13772,0.44766 0.20658,0.007 0.0689,-0.44042 0.13772,0.44836 0.20658,0.007 0.0689,-0.44115 0.13772,0.44906 0.20658,0.007 0.0689,-0.44187 0.13773,0.44977 0.20659,0.007 0.0689,-0.4426 0.13772,0.45047 0.20658,0.007 0.0689,-0.44332 0.13772,0.45118 0.20658,0.007 0.0689,-0.44404 0.13772,0.45189 0.20658,0.007 0.0689,-0.44476 0.13772,0.45259 0.20658,0.007 0.0689,-0.44549 0.13772,0.45329 0.20658,0.007 0.0689,-0.44621 0.13773,0.45401 0.20659,0.007 0.0689,-0.44693 0.13772,0.45471 0.20658,0.007 0.0689,-0.44765 0.13772,0.45542 0.20658,0.007 0.0689,-0.44838 0.13772,0.45612 0.20658,0.007 0.0689,-0.44911 0.13772,0.45683 0.20658,0.007 0.0689,-0.44983 0.13772,0.45753 0.20658,0.007 0.0689,-0.45055 0.13772,0.45825 0.20659,0.007 0.0689,-0.45127 0.13772,0.45895 0.20658,0.007 0.0689,-0.45199 0.13772,0.45966 0.20658,0.007 0.0689,-0.45272 0.13772,0.46036 0.20658,0.007 0.0689,-0.45345 0.13772,0.46106 0.20658,0.007 0.0689,-0.45417 0.13772,0.46177 0.20658,0.007 0.0689,-0.45489 0.13772,0.46248 0.20658,0.007 0.0689,-0.45561 0.13773,0.46319 0.20659,0.007 0.0689,-0.45633 0.13772,0.4639 0.20658,0.007 0.0689,-0.45706 0.13772,0.4646 0.20658,0.007 0.0689,-0.45779 0.13772,0.46531 0.20658,0.007 0.0689,-0.4585 0.13772,0.46602 0.20658,0.007 0.0689,-0.45923 0.13772,0.46672 0.20658,0.007 0.0689,-0.45995 0.13773,0.46743 0.20659,0.007 0.0689,-0.46067 0.13772,0.46814 0.20658,0.007 0.0689,-0.46139 0.13772,0.46885 0.20658,0.007 0.0689,-0.46212 0.13772,0.46955 0.20658,0.007 0.0689,-0.46285 0.13772,0.47026 0.20658,0.007 0.0689,-0.46357 0.13772,0.47096 0.20658,0.007 0.0689,-0.46429 0.13772,0.47168 0.20659,0.007 0.0689,-0.46502 0.13772,0.47238 0.20658,0.007 0.0689,-0.46574 0.13772,0.47309 0.20658,0.007 0.0689,-0.46646 0.13772,0.4738 0.20658,0.007 0.0689,-0.46719 0.13772,0.4745 0.20658,0.007 0.0689,-0.4679 0.13772,0.47522 0.20658,0.007 0.0689,-0.46863 0.13772,0.47592 0.20658,0.007 0.0689,-0.46936 0.13773,0.47663 0.20659,0.007 0.0689,-0.47008 0.13772,0.47734 0.20658,0.007 0.0689,-0.4708 0.13772,0.47805 0.20658,0.007 0.0689,-0.47152 0.13772,0.47876 0.20658,0.007 0.0689,-0.47225 0.13772,0.47946 0.20658,0.006 0.0689,-0.47296 0.13772,0.48018 0.20658,0.006 0.0689,-0.47369 0.13773,0.48088 0.20659,0.006 0.0689,-0.47442 0.13772,0.48158 0.20658,0.006 0.0689,-0.47514 0.13772,0.48229 0.20658,0.006 0.0689,-0.47586 0.13772,0.483 0.20658,0.006 0.0689,-0.47659 0.13772,0.48371 0.20658,0.006 0.0689,-0.4773 0.13772,0.48443 0.20658,0.006 0.0689,-0.47804 0.13772,0.48513 0.20659,0.006 0.0689,-0.47875 0.13772,0.48584 0.20658,0.006 0.0689,-0.47947 0.13772,0.48655 0.20658,0.006 0.0689,-0.4802 0.13772,0.48726 0.20658,0.006 0.0689,-0.48092 0.13772,0.48797 0.20658,0.006 0.0689,-0.48165 0.13772,0.48868 0.20658,0.006 0.0689,-0.48237 0.13772,0.48938 0.20658,0.006 0.0689,-0.4831 0.13773,0.49009 0.20659,0.006 0.0689,-0.48381 0.13772,0.49081 0.20658,0.006 0.0689,-0.48454 0.13772,0.49152 0.20658,0.006 0.0689,-0.48526 0.13772,0.49222 0.20658,0.006 0.0689,-0.48599 0.13772,0.49293 0.20658,0.006 0.0689,-0.48671 0.13772,0.49364 0.20658,0.006 0.0689,-0.48743 0.13773,0.49435 0.20659,0.006 0.0689,-0.48816 0.13772,0.49505 0.20658,0.006 0.0689,-0.48888 0.13772,0.49576 0.20658,0.006 0.0689,-0.4896 0.13772,0.49648 0.20658,0.006 0.0689,-0.49032 0.13772,0.49719 0.20658,0.006 0.0689,-0.49105 0.13772,0.4979 0.20658,0.006 0.0689,-0.49177 0.13772,0.49861 0.20659,0.006 0.0689,-0.4925 0.13772,0.49931 0.20658,0.006 0.0689,-0.49322 0.13772,0.50003 0.20658,0.006 0.0689,-0.49395 0.13772,0.50073 0.20658,0.006 0.0689,-0.49467 0.13772,0.50144 0.20658,0.006 0.0689,-0.49538 0.13772,0.50216 0.20658,0.006 0.0689,-0.49611 0.13772,0.50286 0.20658,0.006 0.0689,-0.49683 0.13773,0.50358 0.20659,0.006 0.0689,-0.49756 0.13772,0.50428 0.20658,0.006 0.0689,-0.49828 0.13772,0.505 0.20658,0.006 0.0689,-0.499 0.13772,0.50571 0.20658,0.006 0.0689,-0.49972 0.13772,0.50642 0.20658,0.006 0.0689,-0.50045 0.13772,0.50712 0.20658,0.006 0.0689,-0.50117 0.13773,0.50784 0.20659,0.006 0.0689,-0.5019 0.13772,0.50855 0.20658,0.006 0.0689,-0.50262 0.13772,0.50926 0.20658,0.006 0.0689,-0.50334 0.13772,0.50997 0.20658,0.006 0.0689,-0.50406 0.13772,0.51068 0.20658,0.006 0.0689,-0.50479 0.13772,0.51139 0.20658,0.006 0.0689,-0.50551 0.13772,0.5121 0.20659,0.006 0.0689,-0.50623 0.13772,0.51281 0.20658,0.006 0.0689,-0.50696 0.13772,0.51352 0.20658,0.006 0.0689,-0.50768 0.13772,0.51423 0.20658,0.006 0.0689,-0.50841 0.13772,0.51494 0.20658,0.006 0.0689,-0.50913 0.13772,0.51566 0.20658,0.006 0.0689,-0.50985 0.13772,0.51637 0.20659,0.006 0.0689,-0.51057 0.13772,0.51708 0.20658,0.006 0.0689,-0.5113 0.13772,0.51778 0.20658,0.006 0.0689,-0.51202 0.13772,0.5185 0.20658,0.006 0.0689,-0.51275 0.13772,0.5192 0.20658,0.006 0.0689,-0.51347 0.13772,0.51991 0.20658,0.006 0.0689,-0.51419 0.13772,0.52063 0.20658,0.006 0.0689,-0.51492 0.13773,0.52134 0.20659,0.006 0.0689,-0.51563 0.13772,0.52206 0.20658,0.006 0.0689,-0.51636 0.13772,0.52277 0.20658,0.006 0.0689,-0.51708 0.13772,0.52348 0.20658,0.006 0.0689,-0.5178 0.13772,0.52419 0.20658,0.006 0.0689,-0.51853 0.13772,0.5249 0.20658,0.006 0.0689,-0.51925 0.13773,0.52561 0.20659,0.006 0.0689,-0.51998 0.13772,0.52632 0.20658,0.006 0.0689,-0.5207 0.13772,0.52703 0.20658,0.006 0.0689,-0.52143 0.13772,0.52774 0.20658,0.006 0.0689,-0.52214 0.13772,0.52846 0.20658,0.006 0.0689,-0.52287 0.13772,0.52917 0.20658,0.006 0.0689,-0.52359 0.13772,0.52988 0.20659,0.006 0.0689,-0.52432 0.13772,0.53059 0.20658,0.006 0.0689,-0.52504 0.13772,0.5313 0.20658,0.006 0.0689,-0.52577 0.13772,0.53201 0.20658,0.006 0.0689,-0.52649 0.13772,0.53272 0.20658,0.006 0.0689,-0.52721 0.13772,0.53344 0.20658,0.006 0.0689,-0.52793 0.13772,0.53415 0.20658,0.005 0.0689,-0.52865 0.13773,0.53486 0.20659,0.005 0.0689,-0.52938 0.13772,0.53557 0.20658,0.005 0.0689,-0.5301 0.13772,0.53628 0.20658,0.005 0.0689,-0.53083 0.13772,0.537 0.20658,0.005 0.0689,-0.53155 0.13772,0.53771 0.20658,0.005 0.0689,-0.53227 0.13772,0.53842 0.20658,0.005 0.0689,-0.53299 0.13773,0.53914 0.20659,0.005 0.0689,-0.53372 0.13772,0.53985 0.20658,0.005 0.0689,-0.53445 0.13772,0.54055 0.20658,0.005 0.0689,-0.53516 0.13772,0.54127 0.20658,0.005 0.0689,-0.53588 0.13772,0.54199 0.20658,0.005 0.0689,-0.53661 0.13772,0.54269 0.20658,0.005 0.0689,-0.53734 0.13772,0.5434 0.20659,0.005 0.0689,-0.53806 0.13772,0.54412 0.20658,0.005 0.0689,-0.53878 0.13772,0.54483 0.20658,0.005 0.0689,-0.53951 0.13772,0.54554 0.20658,0.005 0.0689,-0.54023 0.13772,0.54625 0.20658,0.005 0.0689,-0.54095 0.13772,0.54697 0.20658,0.005 0.0689,-0.54167 0.13772,0.54768 0.20658,0.005 0.0689,-0.5424 0.13773,0.54839 0.20659,0.005 0.0689,-0.54311 0.13772,0.54911 0.20658,0.005 0.0689,-0.54384 0.13772,0.54982 0.20658,0.005 0.0689,-0.54457 0.13772,0.55053 0.20658,0.005 0.0689,-0.54529 0.13772,0.55125 0.20658,0.005 0.0689,-0.54601 0.13772,0.55196 0.20658,0.005 0.0689,-0.54674 0.13773,0.55267 0.20659,0.005 0.0689,-0.54746 0.13772,0.55339 0.20658,0.005 0.0689,-0.54818 0.13772,0.5541 0.20658,0.005 0.0689,-0.54891 0.13772,0.55481 0.20658,0.005 0.0689,-0.54963 0.13772,0.55552 0.20658,0.005 0.0689,-0.55035 0.13772,0.55624 0.20658,0.005 0.0689,-0.55108 0.13772,0.55694 0.20659,0.005 0.0689,-0.5518 0.13772,0.55766 0.20658,0.005 0.0689,-0.55252 0.13772,0.55838 0.20658,0.005 0.0689,-0.55324 0.13772,0.55909 0.20658,0.005 0.0689,-0.55396 0.13772,0.55981 0.20658,0.005 0.0689,-0.5547 0.13772,0.56051 0.20658,0.005 0.0689,-0.55542 0.13772,0.56123 0.20658,0.005 0.0689,-0.55614 0.13773,0.56194 0.20659,0.005 0.0689,-0.55686 0.13772,0.56266 0.20658,0.005 0.0689,-0.55758 0.13772,0.56337 0.20658,0.005 0.0689,-0.55831 0.13772,0.56408 0.20658,0.005 0.0689,-0.55903 0.13772,0.56479 0.20658,0.005 0.0689,-0.55975 0.13772,0.56551 0.20658,0.005 0.0689,-0.56047 0.13773,0.56623 0.20659,0.005 0.0689,-0.5612 0.13772,0.56693 0.20658,0.005 0.0689,-0.56192 0.13772,0.56765 0.20658,0.005 0.0689,-0.56264 0.13772,0.56837 0.20658,0.005 0.0689,-0.56337 0.13772,0.56907 0.20658,0.005 0.0689,-0.56409 0.13772,0.56979 0.20658,0.005 0.0689,-0.56482 0.13772,0.5705 0.20659,0.005 0.0689,-0.56554 0.13772,0.57122 0.20658,0.005 0.0689,-0.56626 0.13772,0.57193 0.20658,0.005 0.0689,-0.56698 0.13772,0.57265 0.20658,0.005 0.0689,-0.56771 0.13772,0.57336 0.20658,0.005 0.0689,-0.56843 0.13772,0.57407 0.20658,0.005 0.0689,-0.56916 0.13772,0.57478 0.20658,0.005 0.0689,-0.56988 0.13773,0.5755 0.20659,0.005 0.0689,-0.57061 0.13772,0.57621 0.20658,0.005 0.0689,-0.57133 0.13772,0.57692 0.20658,0.005 0.0689,-0.57205 0.13772,0.57764 0.20658,0.005 0.0689,-0.57277 0.13772,0.57835 0.20658,0.005 0.0689,-0.57349 0.13772,0.57907 0.20658,0.005 0.0689,-0.57421 0.13773,0.57979 0.20659,0.005 0.0689,-0.57494 0.13772,0.5805 0.20658,0.005 0.0689,-0.57566 0.13772,0.58121 0.20658,0.005 0.0689,-0.57639 0.13772,0.58192 0.20658,0.005 0.0689,-0.5771 0.13772,0.58264 0.20658,0.005 0.0689,-0.57783 0.13772,0.58336 0.20658,0.005 0.0689,-0.57855 0.13772,0.58407 0.20659,0.005 0.0689,-0.57928 0.13772,0.58478 0.20658,0.005 0.0689,-0.58 0.13772,0.5855 0.20658,0.005 0.0689,-0.58072 0.13772,0.58621 0.20658,0.005 0.0689,-0.58145 0.13772,0.58692 0.20658,0.005 0.0689,-0.58217 0.13772,0.58764 0.20658,0.005 0.0689,-0.5829 0.13772,0.58835 0.20658,0.005 0.0689,-0.58362 0.13773,0.58907 0.20659,0.005 0.0689,-0.58434 0.13772,0.58978 0.20658,0.005 0.0689,-0.58507 0.13772,0.5905 0.20658,0.005 0.0689,-0.58579 0.13772,0.59121 0.20658,0.005 0.0689,-0.58651 0.13772,0.59193 0.20658,0.005 0.0689,-0.58723 0.13772,0.59264 0.20658,0.005 0.0689,-0.58796 0.13773,0.59335 0.20659,0.005 0.0689,-0.58868 0.13772,0.59407 0.20658,0.005 0.0689,-0.58941 0.13772,0.59478 0.20658,0.005 0.0689,-0.59013 0.13772,0.5955 0.20658,0.005 0.0689,-0.59085 0.13772,0.59621 0.20658,0.005 0.0689,-0.59158 0.13772,0.59693 0.20658,0.005 0.0689,-0.5923 0.13772,0.59764 0.20659,0.005 0.0689,-0.59302 0.13772,0.59836 0.20658,0.005 0.0689,-0.59374 0.13772,0.59907 0.20658,0.005 0.0689,-0.59447 0.13772,0.59978 0.20658,0.005 0.0689,-0.59518 0.13772,0.60051 0.20658,0.005 0.0689,-0.59591 0.13772,0.60122 0.20658,0.005 0.0689,-0.59664 0.13772,0.60193 0.20658,0.005 0.0689,-0.59736 0.13773,0.60265 0.20659,0.005 0.0689,-0.59809 0.13772,0.60336 0.20658,0.005 0.0689,-0.5988 0.13772,0.60408 0.20658,0.005 0.0689,-0.59953 0.13772,0.60479 0.20658,0.005 0.0689,-0.60025 0.13772,0.60551 0.20658,0.005 0.0689,-0.60098 0.13772,0.60622 0.20658,0.005 0.0689,-0.6017 0.13773,0.60694 0.20659,0.005 0.0689,-0.60243 0.13772,0.60765 0.20658,0.005 0.0689,-0.60314 0.13772,0.60837 0.20658,0.004 0.0689,-0.60386 0.13772,0.60909 0.20658,0.005 0.0689,-0.60459 0.13772,0.60979 0.20658,0.004 0.0689,-0.60531 0.13772,0.61051 0.20658,0.004 0.0689,-0.60604 0.13772,0.61122 0.20659,0.004 0.0689,-0.60676 0.13772,0.61195 0.20658,0.004 0.0689,-0.60748 0.13772,0.61266 0.20658,0.004 0.0689,-0.6082 0.13772,0.61338 0.20658,0.004 0.0689,-0.60893 0.13772,0.61409 0.20658,0.004 0.0689,-0.60965 0.13772,0.61481 0.20658,0.004 0.0689,-0.61037 0.13772,0.61552 0.20658,0.004 0.0689,-0.6111 0.13773,0.61624 0.20659,0.004 0.0689,-0.61183 0.13772,0.61695 0.20658,0.004 0.0689,-0.61255 0.13772,0.61767 0.20658,0.004 0.0689,-0.61327 0.13772,0.61838 0.20658,0.004 0.0689,-0.614 0.13772,0.61909 0.20658,0.004 0.0689,-0.61472 0.13772,0.61981 0.20658,0.004 0.0689,-0.61544 0.13773,0.62053 0.20659,0.004 0.0689,-0.61617 0.13772,0.62124 0.20658,0.004 0.0689,-0.61688 0.13772,0.62196 0.20658,0.004 0.0689,-0.61761 0.13772,0.62267 0.20658,0.004 0.0689,-0.61833 0.13772,0.62339 0.20658,0.004 0.0689,-0.61905 0.13772,0.62411 0.20658,0.004 0.0689,-0.61978 0.13772,0.62482 0.20659,0.004 0.0689,-0.6205 0.13772,0.62554 0.20658,0.004 0.0689,-0.62122 0.13772,0.62626 0.20658,0.004 0.0689,-0.62195 0.13772,0.62697 0.20658,0.004 0.0689,-0.62267 0.13772,0.62768 0.20658,0.004 0.0689,-0.6234 0.13772,0.6284 0.20658,0.004 0.0689,-0.62412 0.13772,0.62911 0.20658,0.004 0.0689,-0.62484 0.13773,0.62984 0.20659,0.004 0.0689,-0.62556 0.13772,0.63055 0.20658,0.004 0.0689,-0.62628 0.13772,0.63126 0.20658,0.004 0.0689,-0.62701 0.13772,0.63197 0.20658,0.004 0.0689,-0.62773 0.13772,0.6327 0.20658,0.004 0.0689,-0.62846 0.13772,0.63341 0.20658,0.004 0.0689,-0.62918 0.13773,0.63413 0.20659,0.004 0.0689,-0.6299 0.13772,0.63485 0.20658,0.004 0.0689,-0.63063 0.13772,0.63556 0.20658,0.004 0.0689,-0.63135 0.13772,0.63627 0.20658,0.004 0.0689,-0.63207 0.13772,0.63699 0.20658,0.004 0.0689,-0.6328 0.13772,0.6377 0.20658,0.004 0.0689,-0.63351 0.13772,0.63843 0.20659,0.004 0.0689,-0.63424 0.13772,0.63914 0.20658,0.004 0.0689,-0.63497 0.13772,0.63985 0.20658,0.004 0.0689,-0.63568 0.13772,0.64057 0.20658,0.004 0.0689,-0.63641 0.13772,0.64129 0.20658,0.004 0.0689,-0.63713 0.13772,0.64201 0.20658,0.004 0.0689,-0.63786 0.13772,0.64272 0.20658,0.004 0.0689,-0.63858 0.13773,0.64343 0.20659,0.004 0.0689,-0.63931 0.13772,0.64415 0.20658,0.004 0.0689,-0.64003 0.13772,0.64487 0.20658,0.004 0.0689,-0.64075 0.13772,0.64558 0.20658,0.004 0.0689,-0.64147 0.13772,0.6463 0.20658,0.004 0.0689,-0.6422 0.13772,0.64702 0.20658,0.004 0.0689,-0.64292 0.13773,0.64773 0.20659,0.004 0.0689,-0.64365 0.13772,0.64845 0.20658,0.004 0.0689,-0.64437 0.13772,0.64916 0.20658,0.004 0.0689,-0.64509 0.13772,0.64989 0.20658,0.004 0.0689,-0.64581 0.13772,0.6506 0.20658,0.004 0.0689,-0.64653 0.13772,0.65132 0.20658,0.004 0.0689,-0.64726 0.13772,0.65203 0.20659,0.004 0.0689,-0.64798 0.13772,0.65274 0.20658,0.004 0.0689,-0.64871 0.13772,0.65346 0.20658,0.004 0.0689,-0.64943 0.13772,0.65418 0.20658,0.004 0.0689,-0.65015 0.13772,0.6549 0.20658,0.004 0.0689,-0.65087 0.13772,0.65561 0.20658,0.004 0.0689,-0.6516 0.13772,0.65633 0.20659,0.004 0.0689,-0.65232 0.13772,0.65705 0.20658,0.004 0.0689,-0.65305 0.13772,0.65776 0.20658,0.004 0.0689,-0.65377 0.13772,0.65848 0.20658,0.004 0.0689,-0.65449 0.13772,0.65919 0.20658,0.004 0.0689,-0.65522 0.13772,0.65991 0.20658,0.004 0.0689,-0.65593 0.13772,0.66063 0.20658,0.004 0.0689,-0.65666 0.13773,0.66135 0.20659,0.004 0.0689,-0.65738 0.13772,0.66206 0.20658,0.004 0.0689,-0.65811 0.13772,0.66278 0.20658,0.004 0.0689,-0.65883 0.13772,0.66349 0.20658,0.004 0.0689,-0.65956 0.13772,0.66421 0.20658,0.004 0.0689,-0.66027 0.13772,0.66493 0.20658,0.004 0.0689,-0.661 0.13773,0.66565 0.20659,0.004 0.0689,-0.66173 0.13772,0.66636 0.20658,0.004 0.0689,-0.66244 0.13772,0.66708 0.20658,0.004 0.0689,-0.66317 0.13772,0.6678 0.20658,0.004 0.0689,-0.66389 0.13772,0.66852 0.20658,0.004 0.0689,-0.66461 0.13772,0.66923 0.20658,0.004 0.0689,-0.66534 0.13772,0.66995 0.20659,0.004 0.0689,-0.66607 0.13772,0.67066 0.20658,0.004 0.0689,-0.66678 0.13772,0.67138 0.20658,0.004 0.0689,-0.66751 0.13772,0.67209 0.20658,0.004 0.0689,-0.66823 0.13772,0.67282 0.20658,0.004 0.0689,-0.66895 0.13772,0.67353 0.20658,0.004 0.0689,-0.66967 0.13772,0.67425 0.20658,0.004 0.0689,-0.6704 0.13773,0.67496 0.20659,0.004 0.0689,-0.67112 0.13772,0.67568 0.20658,0.004 0.0689,-0.67184 0.13772,0.6764 0.20658,0.004 0.0689,-0.67257 0.13772,0.67712 0.20658,0.004 0.0689,-0.67329 0.13772,0.67784 0.20658,0.004 0.0689,-0.67402 0.13772,0.67855 0.20658,0.004 0.0689,-0.67474 0.13773,0.67927 0.20659,0.004 0.0689,-0.67546 0.13772,0.67999 0.20658,0.004 0.0689,-0.67619 0.13772,0.6807 0.20658,0.004 0.0689,-0.67691 0.13772,0.68142 0.20658,0.004 0.0689,-0.67764 0.13772,0.68213 0.20658,0.004 0.0689,-0.67836 0.13772,0.68285 0.20658,0.004 0.0689,-0.67908 0.13772,0.68357 0.20659,0.004 0.0689,-0.67981 0.13772,0.68428 0.20658,0.004 0.0689,-0.68053 0.13772,0.685 0.20658,0.004 0.0689,-0.68125 0.13772,0.68572 0.20658,0.004 0.0689,-0.68197 0.13772,0.68644 0.20658,0.004 0.0689,-0.68269 0.13772,0.68716 0.20658,0.004 0.0689,-0.68342 0.13772,0.68787 0.20658,0.004 0.0689,-0.68414 0.13773,0.68859 0.20659,0.004 0.0689,-0.68487 0.13772,0.68931 0.20658,0.004 0.0689,-0.68559 0.13772,0.69002 0.20658,0.004 0.0689,-0.68631 0.13772,0.69074 0.20658,0.004 0.0689,-0.68704 0.13772,0.69146 0.20658,0.004 0.0689,-0.68776 0.13772,0.69218 0.20658,0.004 0.0689,-0.68848 0.13773,0.69289 0.20659,0.004 0.0689,-0.68921 0.13772,0.69361 0.20658,0.004 0.0689,-0.68993 0.13772,0.69433 0.20658,0.004 0.0689,-0.69065 0.13772,0.69505 0.20658,0.004 0.0689,-0.69137 0.13772,0.69577 0.20658,0.004 0.0689,-0.6921 0.13772,0.69648 0.20658,0.004 0.0689,-0.69282 0.13772,0.6972 0.20659,0.004 0.0689,-0.69355 0.13772,0.69791 0.20658,0.004 0.0689,-0.69427 0.13772,0.69863 0.20658,0.004 0.0689,-0.69499 0.13772,0.69935 0.20658,0.004 0.0689,-0.69571 0.13772,0.70007 0.20658,0.004 0.0689,-0.69643 0.13772,0.70079 0.20658,0.004 0.0689,-0.69716 0.13772,0.7015 0.20658,0.004 0.0689,-0.69788 0.13773,0.70222 0.20659,0.004 0.0689,-0.69861 0.13772,0.70294 0.20658,0.004 0.0689,-0.69933 0.13772,0.70365 0.20658,0.004 0.0689,-0.70005 0.13772,0.70438 0.20658,0.004 0.0689,-0.70077 0.13772,0.70509 0.20658,0.004 0.0689,-0.70149 0.13772,0.70581 0.20658,0.004 0.0689,-0.70222 0.13773,0.70653 0.20659,0.004 0.0689,-0.70294 0.13772,0.70725 0.20658,0.004 0.0689,-0.70367 0.13772,0.70796 0.20658,0.004 0.0689,-0.70439 0.13772,0.70868 0.20658,0.004 0.0689,-0.70512 0.13772,0.7094 0.20658,0.004 0.0689,-0.70584 0.13772,0.71012 0.20658,0.004 0.0689,-0.70656 0.13772,0.71084 0.20659,0.004 0.0689,-0.70728 0.13772,0.71156 0.20658,0.004 0.0689,-0.70801 0.13772,0.71227 0.20658,0.004 0.0689,-0.70873 0.13772,0.71298 0.20658,0.004 0.0689,-0.70945 0.13772,0.7137 0.20658,0.004 0.0689,-0.71018 0.13772,0.71442 0.20658,0.004 0.0689,-0.7109 0.13772,0.71514 0.20658,0.004 0.0689,-0.71163 0.13773,0.71586 0.20659,0.004 0.0689,-0.71235 0.13772,0.71658 0.20658,0.004 0.0689,-0.71307 0.13772,0.71729 0.20658,0.004 0.0689,-0.7138 0.13772,0.71801 0.20658,0.003 0.0689,-0.71451 0.13772,0.71873 0.20658,0.003 0.0689,-0.71524 0.13772,0.71945 0.20658,0.003 0.0689,-0.71596 0.13773,0.72016 0.20659,0.003 0.0689,-0.71669 0.13772,0.72088 0.20658,0.003 0.0689,-0.71741 0.13772,0.7216 0.20658,0.003 0.0689,-0.71813 0.13772,0.72232 0.20658,0.003 0.0689,-0.71886 0.13772,0.72303 0.20658,0.003 0.0689,-0.71957 0.13772,0.72376 0.20658,0.003 0.0689,-0.7203 0.13772,0.72447 0.20659,0.003 0.0689,-0.72103 0.13772,0.72519 0.20658,0.003 0.0689,-0.72175 0.13772,0.72591 0.20658,0.003 0.0689,-0.72247 0.13772,0.72663 0.20658,0.003"
       style="opacity:1;fill:none;fill-opacity:1;stroke:#000000;stroke-width:0.8;stroke-linecap:butt;stroke-linejoin:round;stroke-miterlimit:4;stroke-dasharray:none;stroke-dashoffset:0;stroke-opacity:1;paint-order:normal"
       inkscape:connector-curvature="0" />
    <path
       style="fill:none;stroke:#000000;stroke-width:0.38297096;stroke-linecap:butt;stroke-linejoin:miter;stroke-miterlimit:4;stroke-dasharray:none;stroke-opacity:1"
       d="m 55.562499,197.78124 c 0,-14.55208 0,-14.55208 0,-14.55208"
       id="path1634"
       inkscape:connector-curvature="0" />
    <path
       style="fill:none;stroke:#000000;stroke-width:0.40142608;stroke-linecap:butt;stroke-linejoin:miter;stroke-miterlimit:4;stroke-dasharray:none;stroke-opacity:1"
       d="m 31.75,198.04582 c 0,-37.30625 0,-37.30625 0,-37.30625"
       id="path1636"
       inkscape:connector-curvature="0" />
    <g
       title="\large$1$"
       style="fill:#000000"
       id="equation_03"
       transform="translate(-19.718285,145.6583)">
      <defs
         id="defs1668">
        <path
           d="m 3.443088,-7.663263 c 0,-0.274969 0,-0.286924 -0.239103,-0.286924 -0.286924,0.32279 -0.884682,0.765131 -2.116065,0.765131 v 0.3467 c 0.274969,0 0.872728,0 1.530262,-0.310835 v 6.228643 c 0,0.430386 -0.035866,0.573848 -1.08792,0.573848 H 1.159651 V 0 c 0.32279,-0.02391 1.482441,-0.02391 1.876962,-0.02391 0.394521,0 1.542216,0 1.865006,0.02391 v -0.3467 h -0.37061 c -1.052055,0 -1.087921,-0.143462 -1.087921,-0.573848 z"
           id="equation_03_00"
           inkscape:connector-curvature="0" />
      </defs>
      <g
         id="equation_03_g">
        <use
           id="use1670"
           xlink:href="#equation_03_00"
           y="62.764633"
           x="76.712326"
           width="100%"
           height="100%" />
      </g>
    </g>
    <g
       title="\large$c$"
       style="fill:#000000"
       id="equation_04"
       transform="translate(-41.763958,143.26922)">
      <defs
         id="defs1717">
        <path
           d="m 4.674471,-4.495143 c -0.227148,0 -0.334745,0 -0.502117,0.143462 -0.071731,0.059776 -0.203238,0.239103 -0.203238,0.430386 0,0.239103 0.179327,0.382565 0.406476,0.382565 0.286924,0 0.609713,-0.239103 0.609713,-0.71731 0,-0.573848 -0.549938,-1.016189 -1.374844,-1.016189 -1.566127,0 -3.132254,1.709589 -3.132254,3.407223 0,1.040099 0.645579,1.984558 1.865006,1.984558 1.625903,0 2.654047,-1.267248 2.654047,-1.422665 0,-0.071731 -0.071731,-0.131507 -0.119551,-0.131507 -0.035866,0 -0.047821,0.011955 -0.155418,0.119552 -0.76513,1.016189 -1.900871,1.195516 -2.355168,1.195516 -0.824906,0 -1.08792,-0.71731 -1.08792,-1.315068 0,-0.418431 0.203238,-1.578082 0.633624,-2.391034 0.310834,-0.561893 0.956413,-1.207472 1.709589,-1.207472 0.155417,0 0.812951,0.023911 1.052055,0.537983 z"
           id="equation_04_00"
           inkscape:connector-curvature="0" />
      </defs>
      <g
         id="equation_04_g">
        <use
           id="use1719"
           xlink:href="#equation_04_00"
           y="62.764633"
           x="76.712326"
           width="100%"
           height="100%" />
      </g>
    </g>
    <g
       title="\large$\displaystyle y=\frac{1}{\sqrt{x}}$"
       style="fill:#000000"
       id="equation_05"
       transform="translate(86.038195,-45.923908)">
      <defs
         id="defs1775">
        <path
           d="m 5.66675,-4.877709 c -0.382566,0.071731 -0.526028,0.358655 -0.526028,0.585804 0,0.286924 0.227148,0.382565 0.394521,0.382565 0.358655,0 0.609713,-0.310834 0.609713,-0.633624 0,-0.502117 -0.573848,-0.729265 -1.075965,-0.729265 -0.729265,0 -1.135741,0.71731 -1.243337,0.944458 -0.274969,-0.896637 -1.016189,-0.944458 -1.231383,-0.944458 -1.219427,0 -1.865006,1.566127 -1.865006,1.829141 0,0.04782 0.047821,0.107596 0.131507,0.107596 0.095641,0 0.119552,-0.071731 0.143462,-0.119552 0.406476,-1.327023 1.207472,-1.578082 1.554172,-1.578082 0.537983,0 0.645579,0.502117 0.645579,0.789041 0,0.263014 -0.071731,0.537983 -0.215193,1.111831 l -0.406476,1.637858 c -0.179327,0.71731 -0.526027,1.374844 -1.159651,1.374844 -0.059776,0 -0.358655,0 -0.609714,-0.155417 0.430386,-0.083686 0.526028,-0.442341 0.526028,-0.585803 0,-0.239103 -0.179328,-0.382565 -0.406476,-0.382565 -0.286924,0 -0.597758,0.251058 -0.597758,0.633623 0,0.502117 0.561893,0.729266 1.075965,0.729266 0.573848,0 0.980324,-0.454297 1.231382,-0.944459 0.191283,0.705355 0.789041,0.944459 1.231382,0.944459 1.219428,0 1.865007,-1.566127 1.865007,-1.829141 0,-0.059776 -0.047821,-0.107597 -0.119552,-0.107597 -0.107596,0 -0.119552,0.059776 -0.155417,0.155418 -0.32279,1.052054 -1.016189,1.542216 -1.554172,1.542216 -0.418431,0 -0.645579,-0.310834 -0.645579,-0.800996 0,-0.263014 0.047821,-0.454296 0.239103,-1.243337 l 0.418431,-1.625903 c 0.179328,-0.71731 0.585803,-1.243338 1.135741,-1.243338 0.02391,0 0.358655,0 0.609714,0.155417 z"
           id="equation_05_00"
           inkscape:connector-curvature="0" />
        <path
           d="M 3.144209,1.338979 C 2.82142,1.793275 2.355168,2.199751 1.769365,2.199751 c -0.143462,0 -0.71731,-0.02391 -0.896638,-0.573848 0.035866,0.011955 0.095642,0.011955 0.119552,0.011955 0.358655,0 0.597758,-0.310834 0.597758,-0.585803 0,-0.274969 -0.227148,-0.37061 -0.406475,-0.37061 -0.191283,0 -0.609714,0.143462 -0.609714,0.729265 0,0.609713 0.514072,1.028144 1.195517,1.028144 1.195517,0 2.402989,-1.099875 2.737733,-2.426899 L 5.678705,-4.65056 C 5.69066,-4.710336 5.71457,-4.782067 5.71457,-4.853798 c 0,-0.179328 -0.143462,-0.298879 -0.322789,-0.298879 -0.107597,0 -0.358655,0.04782 -0.454297,0.406475 l -0.884682,3.51482 c -0.059776,0.215193 -0.059776,0.239103 -0.155417,0.37061 -0.239104,0.334745 -0.633624,0.74122 -1.207472,0.74122 -0.66949,0 -0.729265,-0.657534 -0.729265,-0.980323 0,-0.681445 0.322789,-1.601993 0.645579,-2.462765 0.131506,-0.3467 0.203238,-0.514072 0.203238,-0.753176 0,-0.502117 -0.358656,-0.956413 -0.944459,-0.956413 -1.099875,0 -1.542216,1.733499 -1.542216,1.829141 0,0.04782 0.04782,0.107596 0.131506,0.107596 0.107597,0 0.119552,-0.047821 0.167373,-0.215193 0.286924,-1.004234 0.74122,-1.482441 1.207472,-1.482441 0.107596,0 0.310834,0 0.310834,0.394521 0,0.310834 -0.131507,0.657534 -0.310834,1.11183 -0.585804,1.566127 -0.585804,1.960648 -0.585804,2.247572 0,1.135741 0.812952,1.398755 1.41071,1.398755 0.3467,0 0.777086,-0.107597 1.195517,-0.549938 l 0.011955,0.011955 C 3.682192,0.286924 3.56264,0.753176 3.144209,1.338979 Z"
           id="equation_05_01"
           inkscape:connector-curvature="0" />
        <path
           d="m 3.443088,-7.663263 c 0,-0.274969 0,-0.286924 -0.239103,-0.286924 -0.286924,0.32279 -0.884682,0.765131 -2.116065,0.765131 v 0.3467 c 0.274969,0 0.872728,0 1.530262,-0.310835 v 6.228643 c 0,0.430386 -0.035866,0.573848 -1.08792,0.573848 H 1.159651 V 0 c 0.32279,-0.02391 1.482441,-0.02391 1.876962,-0.02391 0.394521,0 1.542216,0 1.865006,0.02391 v -0.3467 h -0.37061 c -1.052055,0 -1.087921,-0.143462 -1.087921,-0.573848 z"
           id="equation_05_02"
           inkscape:connector-curvature="0" />
        <path
           d="m 8.069738,-3.873474 c 0.167373,0 0.382566,0 0.382566,-0.215193 0,-0.227149 -0.203238,-0.227149 -0.382566,-0.227149 H 1.028144 c -0.167372,0 -0.382565,0 -0.382565,0.215193 0,0.227149 0.203238,0.227149 0.382565,0.227149 z m 0,2.223661 c 0.167373,0 0.382566,0 0.382566,-0.215193 0,-0.227148 -0.203238,-0.227148 -0.382566,-0.227148 H 1.028144 c -0.167372,0 -0.382565,0 -0.382565,0.215193 0,0.227148 0.203238,0.227148 0.382565,0.227148 z"
           id="equation_05_03"
           inkscape:connector-curvature="0" />
        <path
           d="M 4.65056,10.221669 2.546451,5.571108 C 2.462765,5.379826 2.402989,5.379826 2.367123,5.379826 c -0.011955,0 -0.071731,0 -0.203238,0.095641 L 1.028144,6.336239 C 0.872727,6.455791 0.872727,6.491656 0.872727,6.527522 c 0,0.059776 0.035866,0.131507 0.119552,0.131507 0.071731,0 0.274969,-0.167373 0.406476,-0.263014 C 1.470486,6.336239 1.649813,6.204732 1.78132,6.109091 l 2.355168,5.176588 c 0.083686,0.191282 0.143462,0.191282 0.251059,0.191282 0.179327,0 0.215193,-0.07173 0.298879,-0.239103 L 10.114072,0 c 0.08369,-0.167372 0.08369,-0.215193 0.08369,-0.239103 0,-0.119552 -0.09564,-0.239104 -0.239103,-0.239104 -0.095641,0 -0.179327,0.059776 -0.274969,0.251059 z"
           id="equation_05_04"
           inkscape:connector-curvature="0" />
      </defs>
      <g
         id="equation_05_g">
        <use
           id="use1777"
           xlink:href="#equation_05_01"
           y="68.594185"
           x="76.712326"
           width="100%"
           height="100%" />
        <use
           id="use1779"
           xlink:href="#equation_05_03"
           y="68.594185"
           x="86.169807"
           width="100%"
           height="100%" />
        <use
           id="use1781"
           xlink:href="#equation_05_02"
           y="60.506424"
           x="105.17168"
           width="100%"
           height="100%" />
        <rect
           id="rect1783"
           width="16.614758"
           height="0.47818699"
           y="65.366295"
           x="99.790802" />
        <use
           id="use1785"
           xlink:href="#equation_05_04"
           y="68.23542"
           x="99.790802"
           width="100%"
           height="100%" />
        <rect
           id="rect1787"
           width="6.6520872"
           height="0.47818699"
           y="67.757233"
           x="109.75347" />
        <use
           id="use1789"
           xlink:href="#equation_05_00"
           y="76.846451"
           x="109.75347"
           width="100%"
           height="100%" />
      </g>
    </g>
    <path
       style="fill:none;stroke:#000000;stroke-width:0.44721359;stroke-linecap:butt;stroke-linejoin:miter;stroke-miterlimit:4;stroke-dasharray:none;stroke-opacity:1;marker-end:url(#TriangleOutM)"
       d="m 33.866666,203.60207 c -5.291666,0 -5.291666,0 -5.291666,0"
       id="path1811"
       inkscape:connector-curvature="0" />
  </g>
</svg>
