<?xml version="1.0" encoding="UTF-8" standalone="no"?>
<!-- Created with Inkscape (http://www.inkscape.org/) -->

<svg
   xmlns:dc="http://purl.org/dc/elements/1.1/"
   xmlns:cc="http://creativecommons.org/ns#"
   xmlns:rdf="http://www.w3.org/1999/02/22-rdf-syntax-ns#"
   xmlns:svg="http://www.w3.org/2000/svg"
   xmlns="http://www.w3.org/2000/svg"
   xmlns:xlink="http://www.w3.org/1999/xlink"
   xmlns:sodipodi="http://sodipodi.sourceforge.net/DTD/sodipodi-0.dtd"
   xmlns:inkscape="http://www.inkscape.org/namespaces/inkscape"
   sodipodi:docname="弧度法.svg"
   inkscape:version="0.92.4 (5da689c313, 2019-01-14)"
   width="210mm"
   height="297mm"
   viewBox="0 0 210 297"
   version="1.1"
   id="svg8"
   inkscape:export-filename="C:\Users\h-nakashima\OneDrive\HP\Inkscape\弧度法.png"
   inkscape:export-xdpi="600"
   inkscape:export-ydpi="600">
  <defs
     id="defs2">
    <marker
       inkscape:stockid="Arrow2Mstart"
       orient="auto"
       refY="0.0"
       refX="0.0"
       id="Arrow2Mstart"
       style="overflow:visible"
       inkscape:isstock="true">
      <path
         id="path4725"
         style="fill-rule:evenodd;stroke-width:0.625;stroke-linejoin:round;stroke:#000000;stroke-opacity:1;fill:#000000;fill-opacity:1"
         d="M 8.7185878,4.0337352 L -2.2072895,0.016013256 L 8.7185884,-4.0017078 C 6.9730900,-1.6296469 6.9831476,1.6157441 8.7185878,4.0337352 z "
         transform="scale(0.6) translate(0,0)" />
    </marker>
    <marker
       inkscape:stockid="Arrow2Lstart"
       orient="auto"
       refY="0.0"
       refX="0.0"
       id="Arrow2Lstart"
       style="overflow:visible"
       inkscape:isstock="true">
      <path
         id="path4719"
         style="fill-rule:evenodd;stroke-width:0.625;stroke-linejoin:round;stroke:#000000;stroke-opacity:1;fill:#000000;fill-opacity:1"
         d="M 8.7185878,4.0337352 L -2.2072895,0.016013256 L 8.7185884,-4.0017078 C 6.9730900,-1.6296469 6.9831476,1.6157441 8.7185878,4.0337352 z "
         transform="scale(1.1) translate(1,0)" />
    </marker>
    <marker
       inkscape:stockid="Arrow1Lstart"
       orient="auto"
       refY="0.0"
       refX="0.0"
       id="Arrow1Lstart"
       style="overflow:visible"
       inkscape:isstock="true">
      <path
         id="path4701"
         d="M 0.0,0.0 L 5.0,-5.0 L -12.5,0.0 L 5.0,5.0 L 0.0,0.0 z "
         style="fill-rule:evenodd;stroke:#000000;stroke-width:1pt;stroke-opacity:1;fill:#000000;fill-opacity:1"
         transform="scale(0.8) translate(12.5,0)" />
    </marker>
    <marker
       inkscape:stockid="Arrow1Mend"
       orient="auto"
       refY="0.0"
       refX="0.0"
       id="Arrow1Mend"
       style="overflow:visible;"
       inkscape:isstock="true">
      <path
         id="path4710"
         d="M 0.0,0.0 L 5.0,-5.0 L -12.5,0.0 L 5.0,5.0 L 0.0,0.0 z "
         style="fill-rule:evenodd;stroke:#000000;stroke-width:1pt;stroke-opacity:1;fill:#000000;fill-opacity:1"
         transform="scale(0.4) rotate(180) translate(10,0)" />
    </marker>
    <marker
       inkscape:stockid="Arrow2Lend"
       orient="auto"
       refY="0.0"
       refX="0.0"
       id="Arrow2Lend"
       style="overflow:visible;"
       inkscape:isstock="true">
      <path
         id="path4722"
         style="fill-rule:evenodd;stroke-width:0.625;stroke-linejoin:round;stroke:#000000;stroke-opacity:1;fill:#000000;fill-opacity:1"
         d="M 8.7185878,4.0337352 L -2.2072895,0.016013256 L 8.7185884,-4.0017078 C 6.9730900,-1.6296469 6.9831476,1.6157441 8.7185878,4.0337352 z "
         transform="scale(1.1) rotate(180) translate(1,0)" />
    </marker>
  </defs>
  <sodipodi:namedview
     id="base"
     pagecolor="#ffffff"
     bordercolor="#666666"
     borderopacity="1.0"
     inkscape:pageopacity="0.0"
     inkscape:pageshadow="2"
     inkscape:zoom="0.7"
     inkscape:cx="358.55784"
     inkscape:cy="840.98475"
     inkscape:document-units="mm"
     inkscape:current-layer="layer1"
     showgrid="true"
     inkscape:window-width="1858"
     inkscape:window-height="1057"
     inkscape:window-x="-8"
     inkscape:window-y="-8"
     inkscape:window-maximized="1">
    <inkscape:grid
       id="grid5132"
       type="xygrid" />
  </sodipodi:namedview>
  <metadata
     id="metadata5">
    <rdf:RDF>
      <cc:Work
         rdf:about="">
        <dc:format>image/svg+xml</dc:format>
        <dc:type
           rdf:resource="http://purl.org/dc/dcmitype/StillImage" />
        <dc:title />
      </cc:Work>
    </rdf:RDF>
  </metadata>
  <g
     inkscape:label="レイヤー 1"
     inkscape:groupmode="layer"
     id="layer1">
    <path
       style="fill:none;stroke:#000000;stroke-width:0.76157731;stroke-linecap:butt;stroke-linejoin:miter;stroke-miterlimit:4;stroke-dasharray:none;stroke-opacity:1;marker-start:url(#Arrow2Mstart)"
       d="m 105.83333,21.833325 c 0,153.458335 0,153.458335 0,153.458335 v 0"
       id="path5142"
       inkscape:connector-curvature="0" />
    <path
       style="fill:none;stroke:#000000;stroke-width:0.8;stroke-linecap:butt;stroke-linejoin:miter;stroke-opacity:1;stroke-miterlimit:4;stroke-dasharray:none;marker-end:url(#Arrow1Mend)"
       d="M 10.583333,101.20832 H 190.5"
       id="path5144"
       inkscape:connector-curvature="0" />
    <path
       style="fill:none;stroke:#000000;stroke-width:0.26458332px;stroke-linecap:butt;stroke-linejoin:miter;stroke-opacity:1"
       d="M 190.5,101.20832 Z"
       id="path5146"
       inkscape:connector-curvature="0" />
    <ellipse
       style="fill:none;fill-opacity:1;stroke:#000000;stroke-width:0.50000001;stroke-miterlimit:4;stroke-dasharray:0.50000001,1.00000003;stroke-opacity:1;stroke-dashoffset:0"
       id="path5148"
       cx="104.51041"
       cy="100.95448"
       rx="56.880722"
       ry="55.30397" />
    <path
       style="fill:none;stroke:#000000;stroke-width:0.26458332px;stroke-linecap:butt;stroke-linejoin:miter;stroke-opacity:1"
       d="M 161.39583,11.249991 Z"
       id="path5155"
       inkscape:connector-curvature="0" />
    <path
       style="fill:none;stroke:#000000;stroke-width:0.37195301;stroke-linecap:butt;stroke-linejoin:miter;stroke-miterlimit:4;stroke-dasharray:none;stroke-opacity:1"
       d="M 105.83333,101.20832 C 141.55208,58.875 141.55208,58.875 141.55208,58.875"
       id="path5159"
       inkscape:connector-curvature="0" />
    <path
       style="fill:none;stroke:#000000;stroke-width:0.26458332px;stroke-linecap:butt;stroke-linejoin:miter;stroke-opacity:1"
       d="M 161.39583,32.416657 Z"
       id="path5165"
       inkscape:connector-curvature="0" />
    <path
       style="fill:none;stroke:#000000;stroke-width:0.26458332px;stroke-linecap:butt;stroke-linejoin:miter;stroke-opacity:1"
       d="M 105.83333,58.87499 Z"
       id="path5171"
       inkscape:connector-curvature="0" />
    <path
       style="fill:none;stroke:#000000;stroke-width:0.26458332px;stroke-linecap:butt;stroke-linejoin:miter;stroke-opacity:1"
       d="M 60.854166,64.166657 Z"
       id="path5177"
       inkscape:connector-curvature="0" />
    <g
       title="$x$"
       style="fill:#000000"
       id="equation_04"
       transform="translate(113.13896,33.417151)">
      <defs
         id="defs7579">
        <path
           d="m 3.327522,-3.008717 c 0.059776,-0.259029 0.288916,-1.175592 0.986301,-1.175592 0.049813,0 0.288917,0 0.498132,0.129514 -0.278954,0.049814 -0.478207,0.29888 -0.478207,0.537983 0,0.159402 0.109589,0.348692 0.378581,0.348692 0.219178,0 0.537982,-0.179327 0.537982,-0.577833 0,-0.518057 -0.587795,-0.657534 -0.926525,-0.657534 -0.577833,0 -0.926526,0.52802 -1.046077,0.757161 -0.249066,-0.657535 -0.787049,-0.757161 -1.075966,-0.757161 -1.036114,0 -1.603985,1.285181 -1.603985,1.534247 0,0.099626 0.099627,0.099626 0.119552,0.099626 0.079701,0 0.109589,-0.019925 0.129514,-0.109589 0.33873,-1.05604 0.996264,-1.305106 1.334994,-1.305106 0.18929,0 0.537983,0.089664 0.537983,0.667497 0,0.308842 -0.169365,0.976339 -0.537983,2.371108 -0.159402,0.617684 -0.508094,1.036115 -0.946451,1.036115 -0.059775,0 -0.288916,0 -0.498132,-0.129514 0.249066,-0.049814 0.468244,-0.259029 0.468244,-0.537983 0,-0.268991 -0.219178,-0.348692 -0.368617,-0.348692 -0.298879,0 -0.547945,0.259028 -0.547945,0.577833 0,0.458281 0.498132,0.657534 0.936488,0.657534 0.657534,0 1.016189,-0.697385 1.046077,-0.757161 0.119552,0.368618 0.478207,0.757161 1.075965,0.757161 1.026152,0 1.594022,-1.285181 1.594022,-1.534247 0,-0.099626 -0.089663,-0.099626 -0.119551,-0.099626 -0.089664,0 -0.109589,0.039851 -0.129515,0.109589 -0.328767,1.066003 -1.006226,1.305106 -1.325031,1.305106 -0.388543,0 -0.547945,-0.318805 -0.547945,-0.657534 0,-0.219178 0.059776,-0.438356 0.169365,-0.876713 z"
           id="equation_04_00"
           inkscape:connector-curvature="0" />
      </defs>
      <g
         id="equation_04_g">
        <use
           id="use7581"
           xlink:href="#equation_04_00"
           y="62.764633"
           x="76.712326"
           width="100%"
           height="100%" />
      </g>
    </g>
    <g
       title="$y$"
       style="fill:#000000"
       id="equation_05"
       transform="translate(37.189596,-37.779741)">
      <defs
         id="defs7671">
        <path
           d="m 4.841843,-3.795766 c 0.039851,-0.139477 0.039851,-0.159402 0.039851,-0.229141 0,-0.179327 -0.139477,-0.268991 -0.288917,-0.268991 -0.099626,0 -0.259029,0.059776 -0.348692,0.209216 -0.019926,0.049813 -0.099627,0.358655 -0.139477,0.537982 -0.069739,0.259029 -0.139477,0.52802 -0.199253,0.797011 l -0.448319,1.793276 c -0.03985,0.149439 -0.468244,0.846824 -1.125778,0.846824 -0.508095,0 -0.617684,-0.438356 -0.617684,-0.806974 0,-0.458281 0.169365,-1.075965 0.508095,-1.952677 0.159402,-0.408469 0.199253,-0.518058 0.199253,-0.71731 0,-0.448319 -0.318805,-0.816937 -0.816937,-0.816937 -0.946451,0 -1.315068,1.444583 -1.315068,1.534247 0,0.099626 0.099626,0.099626 0.119551,0.099626 0.099627,0 0.109589,-0.019925 0.159402,-0.179327 0.268992,-0.936489 0.667497,-1.235368 1.006227,-1.235368 0.079701,0 0.249066,0 0.249066,0.318805 0,0.249066 -0.099626,0.508094 -0.169365,0.697384 -0.398505,1.05604 -0.577833,1.623911 -0.577833,2.092155 0,0.886675 0.627646,1.185554 1.215442,1.185554 0.388543,0 0.727273,-0.169365 1.006227,-0.448319 C 3.16812,0.179328 3.048568,0.667497 2.650062,1.195517 2.391034,1.534247 2.012453,1.823163 1.554172,1.823163 c -0.139477,0 -0.587796,-0.029888 -0.757161,-0.418431 0.159402,0 0.288917,0 0.428394,-0.119551 C 1.325031,1.195517 1.424658,1.066002 1.424658,0.876712 1.424658,0.56787 1.155666,0.52802 1.05604,0.52802 c -0.229141,0 -0.557908,0.159402 -0.557908,0.647572 0,0.498132 0.438356,0.866749 1.05604,0.866749 1.026152,0 2.052304,-0.9066 2.331258,-2.032378 z"
           id="equation_05_00"
           inkscape:connector-curvature="0" />
      </defs>
      <g
         id="equation_05_g">
        <use
           id="use7673"
           xlink:href="#equation_05_00"
           y="62.764633"
           x="76.712326"
           width="100%"
           height="100%" />
      </g>
    </g>
    <g
       title="$O$"
       style="fill:#000000"
       id="equation_06"
       transform="translate(18.068286,47.823836)">
      <defs
         id="defs7768">
        <path
           d="m 7.372354,-4.343711 c 0,-1.603985 -1.05604,-2.67995 -2.540474,-2.67995 -2.15193,0 -4.343711,2.261519 -4.343711,4.582814 0,1.653798 1.115816,2.660025 2.550436,2.660025 2.11208,0 4.333749,-2.181818 4.333749,-4.562889 z m -4.273973,4.30386 c -0.986301,0 -1.683686,-0.806973 -1.683686,-2.122042 0,-0.438356 0.139477,-1.892902 0.9066,-3.05853 0.687422,-1.036115 1.663761,-1.554172 2.45081,-1.554172 0.816936,0 1.713574,0.557908 1.713574,2.042341 0,0.71731 -0.268992,2.271482 -1.255293,3.496887 -0.478207,0.607721 -1.295143,1.195516 -2.132005,1.195516 z"
           id="equation_06_00"
           inkscape:connector-curvature="0" />
      </defs>
      <g
         id="equation_06_g">
        <use
           id="use7770"
           xlink:href="#equation_06_00"
           y="62.764633"
           x="76.712326"
           width="100%"
           height="100%" />
      </g>
    </g>
    <path
       style="fill:none;stroke:#000000;stroke-width:0.26458332px;stroke-linecap:butt;stroke-linejoin:miter;stroke-opacity:1"
       d="m 113.77083,101.20832 c 1.04776,-3.464524 -0.35405,-5.330031 -2.64583,-6.61458 v 0"
       id="path7884"
       inkscape:connector-curvature="0"
       sodipodi:nodetypes="ccc" />
    <path
       style="fill:none;fill-opacity:1;stroke:#000000;stroke-width:0.50466281;stroke-miterlimit:4;stroke-dasharray:none;stroke-dashoffset:0;stroke-opacity:1"
       id="path5148-6"
       sodipodi:type="arc"
       sodipodi:cx="103.52142"
       sodipodi:cy="-100.6509"
       sodipodi:rx="57.657974"
       sodipodi:ry="55.580784"
       sodipodi:start="0"
       sodipodi:end="0.85052217"
       sodipodi:open="true"
       d="m 161.1794,-100.6509 a 57.657974,55.580784 0 0 1 -19.62731,41.775901"
       transform="scale(1,-1)" />
    <path
       style="fill:none;stroke:#000000;stroke-width:0.26458332px;stroke-linecap:butt;stroke-linejoin:miter;stroke-opacity:1"
       d="m 161.39583,101.20833 c 3.96875,-5.291663 3.96875,-17.197913 3.96875,-17.197913 v 0"
       id="path1104"
       inkscape:connector-curvature="0" />
    <path
       style="fill:none;stroke:#000000;stroke-width:0.33467406px;stroke-linecap:butt;stroke-linejoin:miter;stroke-opacity:1"
       d="m 141.55208,58.875001 c 11.1125,0 15.875,5.291657 15.875,5.291657"
       id="path1106"
       inkscape:connector-curvature="0" />
    <g
       title="\large$\ell$"
       style="fill:#000000"
       id="equation_00"
       transform="translate(84.383185,11.811756)">
      <defs
         id="defs1250">
        <path
           d="M 1.099875,-2.032379 C 0.3467,-1.291158 0.155417,-1.111831 0.155417,-1.06401 c 0,0.047821 0.047821,0.131507 0.131507,0.131507 0.059776,0 0.74122,-0.657534 0.836862,-0.765131 0.071731,0.800996 0.37061,1.841096 1.303113,1.841096 0.478207,0 0.908593,-0.298879 1.099876,-0.442341 0.155417,-0.119552 0.729265,-0.609714 0.729265,-0.71731 0,-0.059776 -0.059776,-0.131507 -0.119552,-0.131507 -0.047821,0 -0.227148,0.179327 -0.274969,0.227148 -0.418431,0.406476 -0.944458,0.824907 -1.422665,0.824907 -0.645579,0 -0.729265,-0.932503 -0.729265,-1.578083 0,-0.119551 0,-0.621668 0.083686,-0.71731 0.705355,-0.729265 2.917061,-3.012702 2.917061,-5.128767 0,-0.478206 -0.179327,-0.896637 -0.6934,-0.896637 -1.11183,0 -2.080199,2.462764 -2.247571,2.917061 -0.047821,0.119551 -0.741221,1.960647 -0.66949,3.466998 z m 0.717311,-0.74122 c 0.011955,-0.071731 0.549937,-3.203985 1.554171,-4.877709 0.203238,-0.322789 0.406476,-0.526027 0.645579,-0.526027 0.406476,0 0.430387,0.382565 0.430387,0.645579 0,0.418431 -0.119552,1.494396 -1.159652,3.000747 -0.310834,0.442342 -0.789041,1.0401 -1.470485,1.75741 z"
           id="equation_00_00"
           inkscape:connector-curvature="0" />
      </defs>
      <g
         id="equation_00_g">
        <use
           id="use1252"
           xlink:href="#equation_00_00"
           y="62.764633"
           x="76.712326"
           width="100%"
           height="100%" />
      </g>
    </g>
    <g
       title="\large$A$"
       style="fill:#000000"
       id="equation_01"
       transform="translate(70.859179,50.185048)">
      <defs
         id="defs1384">
        <path
           d="M 2.032379,-1.327024 C 1.613948,-0.621669 1.207472,-0.382565 0.633624,-0.3467 0.502117,-0.334745 0.406476,-0.334745 0.406476,-0.119552 0.406476,-0.047821 0.466252,0 0.549938,0 0.765131,0 1.303113,-0.02391 1.518306,-0.02391 1.865006,-0.02391 2.247572,0 2.582316,0 2.654047,0 2.797509,0 2.797509,-0.227148 2.797509,-0.334745 2.701868,-0.3467 2.630137,-0.3467 2.355168,-0.37061 2.12802,-0.466252 2.12802,-0.753176 c 0,-0.167372 0.071731,-0.298879 0.227148,-0.561892 L 3.263761,-2.82142 h 3.048568 c 0.011955,0.107597 0.011955,0.203238 0.02391,0.310835 0.035866,0.310834 0.179328,1.554172 0.179328,1.78132 0,0.358655 -0.609714,0.382565 -0.800997,0.382565 -0.131506,0 -0.263013,0 -0.263013,0.215193 C 5.451557,0 5.559153,0 5.630884,0 5.834122,0 6.073225,-0.02391 6.276463,-0.02391 H 6.957908 C 7.687173,-0.02391 8.2132,0 8.225156,0 8.308842,0 8.440349,0 8.440349,-0.227148 8.440349,-0.3467 8.332752,-0.3467 8.153425,-0.3467 7.49589,-0.3467 7.483935,-0.454296 7.44807,-0.812951 L 6.718804,-8.272976 C 6.694894,-8.51208 6.647073,-8.53599 6.515567,-8.53599 c -0.119552,0 -0.191283,0.02391 -0.29888,0.203238 z m 1.43462,-1.841096 2.402989,-4.016936 0.406475,4.016936 z"
           id="equation_01_00"
           inkscape:connector-curvature="0" />
      </defs>
      <g
         id="equation_01_g">
        <use
           id="use1386"
           xlink:href="#equation_01_00"
           y="62.764633"
           x="76.712326"
           width="100%"
           height="100%" />
      </g>
    </g>
    <g
       title="\large$B$"
       style="fill:#000000"
       id="equation_02"
       transform="translate(61.447452,-12.215808)">
      <defs
         id="defs1456">
        <path
           d="M 4.375592,-7.352428 C 4.483188,-7.79477 4.531009,-7.81868 4.99726,-7.81868 h 1.554172 c 1.350934,0 1.350934,1.147696 1.350934,1.255293 0,0.968368 -0.968368,2.199751 -2.546451,2.199751 H 3.634371 Z m 2.020423,3.084433 C 7.699128,-4.507098 8.88269,-5.415691 8.88269,-6.515567 8.88269,-7.44807 8.057783,-8.16538 6.706849,-8.16538 H 2.86924 c -0.227148,0 -0.334744,0 -0.334744,0.227148 0,0.119552 0.107596,0.119552 0.286924,0.119552 0.729265,0 0.729265,0.095641 0.729265,0.227148 0,0.023911 0,0.095642 -0.047821,0.274969 L 1.888917,-0.884682 C 1.78132,-0.466252 1.75741,-0.3467 0.920548,-0.3467 c -0.227148,0 -0.3467,0 -0.3467,0.215193 C 0.573848,0 0.645579,0 0.884682,0 h 4.100623 c 1.829141,0 3.239851,-1.3868 3.239851,-2.594271 0,-0.980324 -0.860772,-1.578083 -1.829141,-1.673724 z M 4.698381,-0.3467 H 3.084433 c -0.167372,0 -0.191282,0 -0.263013,-0.011955 -0.131507,-0.011955 -0.143462,-0.035866 -0.143462,-0.131507 0,-0.083686 0.02391,-0.155417 0.04782,-0.263014 L 3.56264,-4.124533 h 2.247572 c 1.41071,0 1.41071,1.315068 1.41071,1.41071 0,1.147696 -1.0401,2.367123 -2.522541,2.367123 z"
           id="equation_02_00"
           inkscape:connector-curvature="0" />
      </defs>
      <g
         id="equation_02_g">
        <use
           id="use1458"
           xlink:href="#equation_02_00"
           y="62.764633"
           x="76.712326"
           width="100%"
           height="100%" />
      </g>
    </g>
    <path
       style="fill:#000000;fill-opacity:1;stroke:#070000;stroke-width:0.5;stroke-miterlimit:4;stroke-dasharray:0.50000001, 1.00000001;stroke-dashoffset:0;stroke-opacity:1"
       id="path1472"
       sodipodi:type="arc"
       sodipodi:cx="161.39583"
       sodipodi:cy="101.20833"
       sodipodi:rx="1.3229166"
       sodipodi:ry="1.3229166"
       sodipodi:start="0"
       sodipodi:end="6.0923372"
       sodipodi:open="true"
       d="m 162.71874,101.20833 a 1.3229166,1.3229166 0 0 1 -1.25982,1.32141 1.3229166,1.3229166 0 0 1 -1.37999,-1.19537 1.3229166,1.3229166 0 0 1 1.12819,-1.43543 1.3229166,1.3229166 0 0 1 1.48761,1.05844" />
    <path
       style="fill:#000000;fill-opacity:1;stroke:#070000;stroke-width:0.5;stroke-miterlimit:4;stroke-dasharray:0.50000002, 1.00000002;stroke-dashoffset:0;stroke-opacity:1"
       id="path1472-3"
       sodipodi:type="arc"
       sodipodi:cx="141.5761"
       sodipodi:cy="59.125938"
       sodipodi:rx="1.3229166"
       sodipodi:ry="1.3229166"
       sodipodi:start="0"
       sodipodi:end="6.0923372"
       sodipodi:open="true"
       d="m 142.89901,59.125938 a 1.3229166,1.3229166 0 0 1 -1.25982,1.321412 1.3229166,1.3229166 0 0 1 -1.37999,-1.195365 1.3229166,1.3229166 0 0 1 1.12818,-1.435434 1.3229166,1.3229166 0 0 1 1.48761,1.058441" />
    <g
       title="\large$1$"
       style="fill:#000000"
       id="equation_03"
       transform="translate(91.444516,35.409192)">
      <defs
         id="defs1556">
        <path
           d="m 3.443088,-7.663263 c 0,-0.274969 0,-0.286924 -0.239103,-0.286924 -0.286924,0.32279 -0.884682,0.765131 -2.116065,0.765131 v 0.3467 c 0.274969,0 0.872728,0 1.530262,-0.310835 v 6.228643 c 0,0.430386 -0.035866,0.573848 -1.08792,0.573848 H 1.159651 V 0 c 0.32279,-0.02391 1.482441,-0.02391 1.876962,-0.02391 0.394521,0 1.542216,0 1.865006,0.02391 v -0.3467 h -0.37061 c -1.052055,0 -1.087921,-0.143462 -1.087921,-0.573848 z"
           id="equation_03_00"
           inkscape:connector-curvature="0" />
      </defs>
      <g
         id="equation_03_g">
        <use
           id="use1558"
           xlink:href="#equation_03_00"
           y="62.764633"
           x="76.712326"
           width="100%"
           height="100%" />
      </g>
    </g>
    <g
       title="\large$\theta^\circ$"
       style="fill:#000000"
       id="equation_09"
       transform="translate(40.696078,36.525854)">
      <defs
         id="defs1911">
        <path
           d="m 3.753923,-1.992528 c 0,-0.916563 -0.733251,-1.649813 -1.641843,-1.649813 -0.908592,0 -1.641843,0.73325 -1.641843,1.649813 0,0.916563 0.73325,1.649813 1.641843,1.649813 0.908593,0 1.641843,-0.73325 1.641843,-1.649813 z M 2.11208,-0.70934 c -0.70934,0 -1.275218,-0.565878 -1.275218,-1.283188 0,-0.71731 0.565878,-1.283188 1.275218,-1.283188 0.70934,0 1.275218,0.565878 1.275218,1.283188 0,0.71731 -0.565878,1.283188 -1.275218,1.283188 z"
           id="equation_09_00"
           inkscape:connector-curvature="0" />
        <path
           d="m 5.296139,-6.01345 c 0,-1.219427 -0.382565,-2.402988 -1.362889,-2.402988 -1.673723,0 -3.455043,3.502864 -3.455043,6.133001 0,0.549938 0.119551,2.402989 1.374844,2.402989 1.625903,0 3.443088,-3.419178 3.443088,-6.133002 z m -3.622415,1.685679 c 0.179327,-0.705355 0.430386,-1.709589 0.908592,-2.558406 0.394521,-0.71731 0.812952,-1.291158 1.338979,-1.291158 0.394521,0 0.657534,0.334745 0.657534,1.482441 0,0.430386 -0.035865,1.028144 -0.382565,2.367123 z m 2.438854,0.358655 c -0.298879,1.171607 -0.549938,1.924782 -0.980324,2.677958 -0.3467,0.609713 -0.765131,1.171606 -1.267248,1.171606 -0.37061,0 -0.669489,-0.286924 -0.669489,-1.470485 0,-0.777086 0.191283,-1.590038 0.382565,-2.379079 z"
           id="equation_09_01"
           inkscape:connector-curvature="0" />
      </defs>
      <g
         id="equation_09_g">
        <use
           id="use1913"
           xlink:href="#equation_09_01"
           y="62.764633"
           x="76.712326"
           width="100%"
           height="100%" />
        <use
           id="use1915"
           xlink:href="#equation_09_00"
           y="58.426197"
           x="82.492668"
           width="100%"
           height="100%" />
      </g>
    </g>
  </g>
</svg>
