<?xml version="1.0" encoding="UTF-8" standalone="no"?>
<!-- Created with Inkscape (http://www.inkscape.org/) -->

<svg
   xmlns:dc="http://purl.org/dc/elements/1.1/"
   xmlns:cc="http://creativecommons.org/ns#"
   xmlns:rdf="http://www.w3.org/1999/02/22-rdf-syntax-ns#"
   xmlns:svg="http://www.w3.org/2000/svg"
   xmlns="http://www.w3.org/2000/svg"
   xmlns:xlink="http://www.w3.org/1999/xlink"
   xmlns:sodipodi="http://sodipodi.sourceforge.net/DTD/sodipodi-0.dtd"
   xmlns:inkscape="http://www.inkscape.org/namespaces/inkscape"
   sodipodi:docname="期末レポート.svg"
   inkscape:version="0.92.4 (5da689c313, 2019-01-14)"
   width="210mm"
   height="297mm"
   viewBox="0 0 210 297"
   version="1.1"
   id="svg2783">
  <defs
     id="defs2777">
    <marker
       inkscape:isstock="true"
       style="overflow:visible;"
       id="marker1293"
       refX="0.0"
       refY="0.0"
       orient="auto"
       inkscape:stockid="Arrow2Lend">
      <path
         transform="scale(1.1) rotate(180) translate(1,0)"
         d="M 8.7185878,4.0337352 L -2.2072895,0.016013256 L 8.7185884,-4.0017078 C 6.9730900,-1.6296469 6.9831476,1.6157441 8.7185878,4.0337352 z "
         style="fill-rule:evenodd;stroke-width:0.625;stroke-linejoin:round;stroke:#000000;stroke-opacity:1;fill:#000000;fill-opacity:1"
         id="path1291" />
    </marker>
    <marker
       inkscape:stockid="Arrow2Lend"
       orient="auto"
       refY="0.0"
       refX="0.0"
       id="Arrow2Lend"
       style="overflow:visible;"
       inkscape:isstock="true"
       inkscape:collect="always">
      <path
         id="path864"
         style="fill-rule:evenodd;stroke-width:0.625;stroke-linejoin:round;stroke:#000000;stroke-opacity:1;fill:#000000;fill-opacity:1"
         d="M 8.7185878,4.0337352 L -2.2072895,0.016013256 L 8.7185884,-4.0017078 C 6.9730900,-1.6296469 6.9831476,1.6157441 8.7185878,4.0337352 z "
         transform="scale(1.1) rotate(180) translate(1,0)" />
    </marker>
    <marker
       inkscape:isstock="true"
       style="overflow:visible;"
       id="marker3358"
       refX="0.0"
       refY="0.0"
       orient="auto"
       inkscape:stockid="Arrow2Mend">
      <path
         transform="scale(0.6) rotate(180) translate(0,0)"
         d="M 8.7185878,4.0337352 L -2.2072895,0.016013256 L 8.7185884,-4.0017078 C 6.9730900,-1.6296469 6.9831476,1.6157441 8.7185878,4.0337352 z "
         style="fill-rule:evenodd;stroke-width:0.625;stroke-linejoin:round;stroke:#000000;stroke-opacity:1;fill:#000000;fill-opacity:1"
         id="path3356" />
    </marker>
  </defs>
  <sodipodi:namedview
     id="base"
     pagecolor="#ffffff"
     bordercolor="#666666"
     borderopacity="1.0"
     inkscape:pageopacity="0.0"
     inkscape:pageshadow="2"
     inkscape:zoom="0.49497475"
     inkscape:cx="129.88402"
     inkscape:cy="950.16341"
     inkscape:document-units="mm"
     inkscape:current-layer="layer1"
     showgrid="true"
     inkscape:window-width="1858"
     inkscape:window-height="1057"
     inkscape:window-x="-8"
     inkscape:window-y="-8"
     inkscape:window-maximized="1">
    <inkscape:grid
       type="xygrid"
       id="grid3328" />
  </sodipodi:namedview>
  <metadata
     id="metadata2780">
    <rdf:RDF>
      <cc:Work
         rdf:about="">
        <dc:format>image/svg+xml</dc:format>
        <dc:type
           rdf:resource="http://purl.org/dc/dcmitype/StillImage" />
        <dc:title />
      </cc:Work>
    </rdf:RDF>
  </metadata>
  <g
     inkscape:label="レイヤー 1"
     inkscape:groupmode="layer"
     id="layer1">
    <rect
       style="opacity:1;fill:none;fill-opacity:1;stroke:#000000;stroke-width:0;stroke-linecap:butt;stroke-linejoin:round;stroke-miterlimit:4;stroke-dasharray:none;stroke-dashoffset:0;stroke-opacity:1;paint-order:normal"
       id="rect3330"
       width="199.90494"
       height="199.90495"
       x="2.6430528"
       y="17.722834"
       inkscape:export-xdpi="600"
       inkscape:export-ydpi="600" />
    <path
       style="fill:none;stroke:#000000;stroke-width:0.40000001;stroke-linecap:butt;stroke-linejoin:miter;stroke-miterlimit:4;stroke-dasharray:none;stroke-opacity:1;marker-end:url(#marker1293)"
       d="m 2.6458333,191.16667 c 197.3522467,0 197.3522467,0 197.3522467,0"
       id="path3332"
       inkscape:connector-curvature="0" />
    <path
       style="fill:none;stroke:#000000;stroke-width:0.40000001;stroke-linecap:butt;stroke-linejoin:miter;stroke-miterlimit:4;stroke-dasharray:none;stroke-opacity:1;marker-end:url(#Arrow2Lend)"
       d="m 34.39583,217.625 c 0,-197.384137 0,-197.384137 0,-197.384137"
       id="path3334"
       inkscape:connector-curvature="0" />
    <g
       title="\large$y$"
       style="fill:#000000"
       id="equation_00"
       transform="translate(-56.964398,-33.767567)">
      <defs
         id="defs3396">
        <path
           d="M 3.144209,1.338979 C 2.82142,1.793275 2.355168,2.199751 1.769365,2.199751 c -0.143462,0 -0.71731,-0.02391 -0.896638,-0.573848 0.035866,0.011955 0.095642,0.011955 0.119552,0.011955 0.358655,0 0.597758,-0.310834 0.597758,-0.585803 0,-0.274969 -0.227148,-0.37061 -0.406475,-0.37061 -0.191283,0 -0.609714,0.143462 -0.609714,0.729265 0,0.609713 0.514072,1.028144 1.195517,1.028144 1.195517,0 2.402989,-1.099875 2.737733,-2.426899 L 5.678705,-4.65056 C 5.69066,-4.710336 5.71457,-4.782067 5.71457,-4.853798 c 0,-0.179328 -0.143462,-0.298879 -0.322789,-0.298879 -0.107597,0 -0.358655,0.04782 -0.454297,0.406475 l -0.884682,3.51482 c -0.059776,0.215193 -0.059776,0.239103 -0.155417,0.37061 -0.239104,0.334745 -0.633624,0.74122 -1.207472,0.74122 -0.66949,0 -0.729265,-0.657534 -0.729265,-0.980323 0,-0.681445 0.322789,-1.601993 0.645579,-2.462765 0.131506,-0.3467 0.203238,-0.514072 0.203238,-0.753176 0,-0.502117 -0.358656,-0.956413 -0.944459,-0.956413 -1.099875,0 -1.542216,1.733499 -1.542216,1.829141 0,0.04782 0.04782,0.107596 0.131506,0.107596 0.107597,0 0.119552,-0.047821 0.167373,-0.215193 0.286924,-1.004234 0.74122,-1.482441 1.207472,-1.482441 0.107596,0 0.310834,0 0.310834,0.394521 0,0.310834 -0.131507,0.657534 -0.310834,1.11183 -0.585804,1.566127 -0.585804,1.960648 -0.585804,2.247572 0,1.135741 0.812952,1.398755 1.41071,1.398755 0.3467,0 0.777086,-0.107597 1.195517,-0.549938 l 0.011955,0.011955 C 3.682192,0.286924 3.56264,0.753176 3.144209,1.338979 Z"
           id="equation_00_00"
           inkscape:connector-curvature="0" />
      </defs>
      <g
         id="equation_00_g">
        <use
           id="use3398"
           xlink:href="#equation_00_00"
           y="62.764633"
           x="76.712326"
           width="100%"
           height="100%" />
      </g>
    </g>
    <g
       title="\large$x$"
       style="fill:#000000"
       id="equation_01"
       transform="translate(112.71617,141.72076)">
      <defs
         id="defs3445">
        <path
           d="m 5.66675,-4.877709 c -0.382566,0.071731 -0.526028,0.358655 -0.526028,0.585804 0,0.286924 0.227148,0.382565 0.394521,0.382565 0.358655,0 0.609713,-0.310834 0.609713,-0.633624 0,-0.502117 -0.573848,-0.729265 -1.075965,-0.729265 -0.729265,0 -1.135741,0.71731 -1.243337,0.944458 -0.274969,-0.896637 -1.016189,-0.944458 -1.231383,-0.944458 -1.219427,0 -1.865006,1.566127 -1.865006,1.829141 0,0.04782 0.047821,0.107596 0.131507,0.107596 0.095641,0 0.119552,-0.071731 0.143462,-0.119552 0.406476,-1.327023 1.207472,-1.578082 1.554172,-1.578082 0.537983,0 0.645579,0.502117 0.645579,0.789041 0,0.263014 -0.071731,0.537983 -0.215193,1.111831 l -0.406476,1.637858 c -0.179327,0.71731 -0.526027,1.374844 -1.159651,1.374844 -0.059776,0 -0.358655,0 -0.609714,-0.155417 0.430386,-0.083686 0.526028,-0.442341 0.526028,-0.585803 0,-0.239103 -0.179328,-0.382565 -0.406476,-0.382565 -0.286924,0 -0.597758,0.251058 -0.597758,0.633623 0,0.502117 0.561893,0.729266 1.075965,0.729266 0.573848,0 0.980324,-0.454297 1.231382,-0.944459 0.191283,0.705355 0.789041,0.944459 1.231382,0.944459 1.219428,0 1.865007,-1.566127 1.865007,-1.829141 0,-0.059776 -0.047821,-0.107597 -0.119552,-0.107597 -0.107596,0 -0.119552,0.059776 -0.155417,0.155418 -0.32279,1.052054 -1.016189,1.542216 -1.554172,1.542216 -0.418431,0 -0.645579,-0.310834 -0.645579,-0.800996 0,-0.263014 0.047821,-0.454296 0.239103,-1.243337 l 0.418431,-1.625903 c 0.179328,-0.71731 0.585803,-1.243338 1.135741,-1.243338 0.02391,0 0.358655,0 0.609714,0.155417 z"
           id="equation_01_00"
           inkscape:connector-curvature="0" />
      </defs>
      <g
         id="equation_01_g">
        <use
           id="use3447"
           xlink:href="#equation_01_00"
           y="62.764633"
           x="76.712326"
           width="100%"
           height="100%" />
      </g>
    </g>
    <g
       title="\large$O$"
       style="fill:#000000"
       id="equation_02"
       transform="translate(-53.893249,148.85723)">
      <defs
         id="defs3564">
        <path
           d="m 8.679452,-5.236364 c 0,-1.972602 -1.291158,-3.180074 -2.964882,-3.180074 -2.558406,0 -5.140722,2.749688 -5.140722,5.511332 0,1.876962 1.243338,3.156165 2.976837,3.156165 2.510585,0 5.128767,-2.618182 5.128767,-5.487423 z M 3.622416,-0.02391 c -0.980324,0 -2.020423,-0.71731 -2.020423,-2.582317 0,-1.08792 0.39452,-2.86924 1.374844,-4.064757 0.872727,-1.052055 1.876961,-1.482441 2.677958,-1.482441 1.052054,0 2.068244,0.765131 2.068244,2.486675 0,1.06401 -0.454297,2.725779 -1.255293,3.86152 -0.872727,1.219427 -1.960648,1.78132 -2.84533,1.78132 z"
           id="equation_02_00"
           inkscape:connector-curvature="0" />
      </defs>
      <g
         id="equation_02_g">
        <use
           id="use3566"
           xlink:href="#equation_02_00"
           y="62.764633"
           x="76.712326"
           width="100%"
           height="100%" />
      </g>
    </g>
    <rect
       style="opacity:1;fill:none;fill-opacity:1;fill-rule:nonzero;stroke:#000000;stroke-width:0.5;stroke-linecap:butt;stroke-linejoin:bevel;stroke-miterlimit:4;stroke-dasharray:1.99999998, 0.99999999;stroke-dashoffset:0;stroke-opacity:1;paint-order:stroke fill markers"
       id="rect845"
       width="150"
       height="150"
       x="-195.79167"
       y="32.416664" />
    <path
       style="fill:none;stroke:#000000;stroke-width:0.26458329px;stroke-linecap:butt;stroke-linejoin:miter;stroke-opacity:1"
       d="M 8.3509292,217.62499 C 201.08333,21.83336 201.08333,21.83336 201.08333,21.83336"
       id="path935"
       inkscape:connector-curvature="0" />
    <path
       style="fill:none;stroke:#000000;stroke-width:0.26458329px;stroke-linecap:butt;stroke-linejoin:miter;stroke-opacity:1"
       d="M 97.252023,253.13704 C -98.539553,60.404631 -98.539553,60.404631 -98.539553,60.404631"
       id="path935-2"
       inkscape:connector-curvature="0" />
    <path
       id="path1021"
       title="sqrt(x*x/100-1)"
       d="m 84.950008,191.12635 c 0.05,-0.35653 0.1001,-0.68724 0.15015,-1.00064 0.0501,-0.31339 0.1001,-0.60922 0.15015,-0.89231 0.05,-0.2831 0.1001,-0.55331 0.15015,-0.81365 0.05,-0.26035 0.1001,-0.51073 0.15015,-0.7532 0.05,-0.24247 0.1001,-0.47695 0.15015,-0.70489 0.05,-0.22795 0.1001,-0.44931 0.15015,-0.66517 0.05,-0.21585 0.1001,-0.42616 0.15015,-0.63175 0.05,-0.20558 0.1001,-0.40642 0.15015,-0.60315 0.05,-0.19673 0.1001,-0.38933 0.15015,-0.57832 0.0501,-0.189 0.1001,-0.37436 0.15015,-0.55652 0.05,-0.18215 0.1001,-0.36109 0.15015,-0.53715 0.05,-0.17606 0.1001,-0.34924 0.15015,-0.51983 0.05,-0.17059 0.1001,-0.33857 0.15015,-0.50421 0.05,-0.16564 0.1001,-0.32891 0.15015,-0.49004 0.05,-0.16113 0.1001,-0.3201 0.15015,-0.4771 0.05,-0.15701 0.1001,-0.31203 0.15015,-0.46524 0.05,-0.15322 0.1001,-0.30461 0.15015,-0.45432 0.0501,-0.14971 0.1001,-0.29773 0.15015,-0.4442 0.05,-0.14647 0.1001,-0.29137 0.15015,-0.43481 0.05,-0.14345 0.1001,-0.28544 0.15015,-0.42608 0.05,-0.14063 0.1001,-0.2799 0.15015,-0.4179 0.05,-0.138 0.1001,-0.27472 0.15015,-0.41025 0.05,-0.13553 0.1001,-0.26986 0.15015,-0.40306 0.05,-0.13321 0.1001,-0.26528 0.15015,-0.3963 0.05,-0.13101 0.1001,-0.26096 0.15015,-0.3899 0.0501,-0.12895 0.1001,-0.25689 0.15015,-0.38387 0.05,-0.12699 0.1001,-0.25302 0.15015,-0.37815 0.05,-0.12513 0.1001,-0.24936 0.15015,-0.37273 0.05,-0.12336 0.1001,-0.24587 0.15015,-0.36756 0.05,-0.12169 0.1001,-0.24256 0.15015,-0.36266 0.05,-0.12009 0.1001,-0.2394 0.15015,-0.35797 0.05,-0.11858 0.1001,-0.2364 0.15015,-0.35351 0.05,-0.11712 0.1001,-0.23352 0.15015,-0.34924 0.0501,-0.11572 0.10011,-0.23076 0.15016,-0.34515 0.05,-0.11439 0.1001,-0.22813 0.15015,-0.34124 0.05,-0.11311 0.1001,-0.2256 0.15015,-0.33749 0.05,-0.11188 0.1001,-0.22317 0.15015,-0.33387 0.05,-0.11071 0.1001,-0.22084 0.15015,-0.33042 0.05,-0.10958 0.1001,-0.2186 0.15015,-0.32708 0.05,-0.10849 0.1001,-0.21644 0.15015,-0.32388 0.05,-0.10744 0.1001,-0.21436 0.15015,-0.32078 0.05,-0.10643 0.1001,-0.21236 0.15015,-0.31781 0.05,-0.10545 0.1001,-0.21042 0.15015,-0.31493 0.05,-0.10451 0.1001,-0.20855 0.15015,-0.31215 0.05,-0.1036 0.1001,-0.20675 0.15015,-0.30947 0.05,-0.10271 0.1001,-0.205 0.15015,-0.30687 0.05,-0.10186 0.1001,-0.20331 0.15015,-0.30436 0.05,-0.10104 0.1001,-0.20168 0.15015,-0.30192 0.05,-0.10025 0.1001,-0.2001 0.15015,-0.29957 0.05,-0.0995 0.1001,-0.19856 0.15015,-0.29729 0.0501,-0.0987 0.1001,-0.19707 0.15015,-0.29507 0.05,-0.098 0.1001,-0.19562 0.15015,-0.29291 0.05,-0.0973 0.1001,-0.19423 0.15015,-0.29083 0.05,-0.0966 0.1001,-0.19287 0.15015,-0.2888 0.05,-0.0959 0.1001,-0.19154 0.15015,-0.28683 0.05,-0.0953 0.1001,-0.19025 0.15015,-0.28491 0.05,-0.0947 0.1001,-0.189 0.15015,-0.28305 0.05,-0.094 0.1001,-0.18778 0.15015,-0.28123 0.0501,-0.0934 0.1001,-0.1866 0.15015,-0.27946 0.05,-0.0929 0.1001,-0.18544 0.15015,-0.27774 0.05,-0.0923 0.1001,-0.18432 0.15015,-0.27607 0.05,-0.0917 0.1001,-0.18322 0.15015,-0.27442 0.05,-0.0912 0.1001,-0.18216 0.15015,-0.27284 0.05,-0.0907 0.1001,-0.18111 0.15015,-0.27128 0.05,-0.0902 0.1001,-0.18009 0.15015,-0.26976 0.05,-0.0897 0.1001,-0.1791 0.15015,-0.26828 0.0501,-0.0892 0.1001,-0.17813 0.15015,-0.26683 0.05,-0.0887 0.1001,-0.17718 0.15015,-0.26542 0.05,-0.0882 0.1001,-0.17626 0.15015,-0.26404 0.05,-0.0878 0.1001,-0.17535 0.15015,-0.26269 0.05,-0.0874 0.1001,-0.17447 0.15015,-0.26138 0.05,-0.0869 0.1001,-0.17359 0.15015,-0.26008 0.05,-0.0865 0.1001,-0.17275 0.15015,-0.25882 0.05,-0.0861 0.1001,-0.17192 0.15015,-0.25758 0.0501,-0.0857 0.1001,-0.17112 0.15015,-0.25638 0.05,-0.0853 0.1001,-0.17032 0.15015,-0.25519 0.05,-0.0849 0.1001,-0.16955 0.15015,-0.25404 0.05,-0.0845 0.1001,-0.16879 0.15015,-0.2529 0.05,-0.0841 0.1001,-0.16804 0.15015,-0.25179 0.05,-0.0837 0.1001,-0.16732 0.15015,-0.2507 0.05,-0.0834 0.1001,-0.1666 0.15015,-0.24964 0.05,-0.083 0.1001,-0.1659 0.15015,-0.24859 0.0501,-0.0827 0.1001,-0.16521 0.15015,-0.24756 0.05,-0.0823 0.1001,-0.16454 0.15015,-0.24656 0.05,-0.082 0.1001,-0.16387 0.15015,-0.24557 0.05,-0.0817 0.1001,-0.16323 0.15015,-0.2446 0.05,-0.0814 0.1001,-0.16259 0.15015,-0.24365 0.05,-0.0811 0.1001,-0.16197 0.15015,-0.24272 0.05,-0.0807 0.1001,-0.16136 0.15015,-0.24181 0.05,-0.0804 0.1001,-0.16075 0.15015,-0.2409 0.0501,-0.0802 0.1001,-0.16016 0.15015,-0.24002 0.05,-0.0799 0.1001,-0.15958 0.15015,-0.23916 0.05,-0.0796 0.1001,-0.15901 0.15015,-0.23831 0.05,-0.0793 0.1001,-0.15844 0.15015,-0.23746 0.05,-0.079 0.1001,-0.1579 0.15015,-0.23665 0.05,-0.0787 0.1001,-0.15736 0.15015,-0.23584 0.05,-0.0785 0.1001,-0.15682 0.15015,-0.23504 0.05,-0.0782 0.1001,-0.1563 0.15015,-0.23426 0.0501,-0.078 0.1001,-0.15579 0.15015,-0.23349 0.05,-0.0777 0.1001,-0.15529 0.15016,-0.23274 0.05,-0.0775 0.100102,-0.15479 0.150152,-0.232 0.05,-0.0772 0.1001,-0.1543 0.15015,-0.23126 0.05,-0.077 0.1001,-0.15382 0.15015,-0.23055 0.05,-0.0767 0.1001,-0.15334 0.15015,-0.22984 0.05,-0.0765 0.1001,-0.15288 0.15015,-0.22914 0.05,-0.0763 0.1001,-0.15242 0.15015,-0.22846 0.05,-0.076 0.1001,-0.15196 0.15015,-0.22778 0.05,-0.0758 0.1001,-0.15152 0.15015,-0.22712 0.05,-0.0756 0.1001,-0.15108 0.15015,-0.22646 0.05,-0.0754 0.1001,-0.15066 0.15015,-0.22582 0.05,-0.0752 0.1001,-0.15023 0.15016,-0.22519 0.05,-0.075 0.1001,-0.14981 0.15015,-0.22456 0.05,-0.0747 0.1001,-0.1494 0.15015,-0.22394 0.05,-0.0745 0.1001,-0.149 0.15015,-0.22334 0.05,-0.0744 0.1001,-0.1486 0.15015,-0.22274 0.0501,-0.0742 0.1001,-0.1482 0.15015,-0.22216 0.05,-0.0739 0.1001,-0.14781 0.15015,-0.22157 0.05,-0.0738 0.1001,-0.14743 0.15015,-0.221 0.05,-0.0736 0.1001,-0.14705 0.15015,-0.22043 0.05,-0.0734 0.1001,-0.14668 0.15015,-0.21988 0.05,-0.0732 0.1001,-0.14631 0.15015,-0.21933 0.05,-0.073 0.10011,-0.14595 0.15016,-0.2188 0.05,-0.0728 0.1001,-0.14559 0.15015,-0.21825 0.0501,-0.0727 0.1001,-0.14525 0.15015,-0.21774 0.05,-0.0725 0.1001,-0.14489 0.15015,-0.21721 0.05,-0.0723 0.1001,-0.14455 0.15015,-0.2167 0.05,-0.0721 0.1001,-0.14422 0.15015,-0.2162 0.05,-0.072 0.1001,-0.14388 0.15015,-0.2157 0.05,-0.0718 0.1001,-0.14355 0.15015,-0.21521 0.05,-0.0717 0.1001,-0.14322 0.15015,-0.21472 0.05,-0.0715 0.1001,-0.14291 0.15015,-0.21424 0.0501,-0.0713 0.1001,-0.1426 0.15015,-0.21378 0.05,-0.0712 0.1001,-0.14228 0.15015,-0.2133 0.05,-0.071 0.1001,-0.14197 0.15015,-0.21285 0.05,-0.0709 0.1001,-0.14167 0.15015,-0.21239 0.05,-0.0707 0.10011,-0.14137 0.15016,-0.21194 0.05,-0.0706 0.1001,-0.14107 0.15015,-0.2115 0.05,-0.0704 0.1001,-0.14078 0.15015,-0.21106 0.05,-0.0703 0.1001,-0.14049 0.15015,-0.21063 0.0501,-0.0701 0.1001,-0.14021 0.15015,-0.2102 0.05,-0.07 0.1001,-0.13993 0.15015,-0.20979 0.05,-0.0699 0.1001,-0.13964 0.15015,-0.20936 0.05,-0.0697 0.1001,-0.13937 0.15015,-0.20896 0.05,-0.0696 0.1001,-0.1391 0.15015,-0.20855 0.05,-0.0694 0.1001,-0.13883 0.15015,-0.20814 0.05,-0.0693 0.1001,-0.13857 0.15015,-0.20775 0.05,-0.0692 0.10011,-0.13831 0.15016,-0.20736 0.0501,-0.0691 0.1001,-0.13804 0.15015,-0.20697 0.05,-0.0689 0.1001,-0.13779 0.15015,-0.20659 0.05,-0.0688 0.1001,-0.13753 0.15015,-0.20621 0.05,-0.0687 0.1001,-0.13728 0.15015,-0.20583 0.05,-0.0685 0.1001,-0.13704 0.15015,-0.20547 0.05,-0.0684 0.1001,-0.1368 0.15015,-0.2051 0.05,-0.0683 0.1001,-0.13655 0.15015,-0.20474 0.05,-0.0682 0.1001,-0.13632 0.15015,-0.20438 0.0501,-0.0681 0.1001,-0.13608 0.15015,-0.20403 0.05,-0.0679 0.10011,-0.13585 0.15016,-0.20368 0.05,-0.0678 0.1001,-0.13562 0.15015,-0.20334 0.05,-0.0677 0.1001,-0.13538 0.15015,-0.20299 0.05,-0.0676 0.1001,-0.13516 0.15015,-0.20266 0.05,-0.0675 0.1001,-0.13493 0.15015,-0.20232 0.05,-0.0674 0.1001,-0.13471 0.15015,-0.20199 0.05,-0.0673 0.1001,-0.1345 0.15015,-0.20167 0.0501,-0.0672 0.1001,-0.13428 0.15015,-0.20134 0.05,-0.0671 0.1001,-0.13406 0.15015,-0.20102 0.05,-0.067 0.1001,-0.13385 0.15015,-0.2007 0.05,-0.0669 0.10011,-0.13365 0.15016,-0.2004 0.05,-0.0667 0.1001,-0.13344 0.15015,-0.20008 0.05,-0.0666 0.1001,-0.13323 0.15015,-0.19977 0.05,-0.0666 0.1001,-0.13304 0.15015,-0.19948 0.05,-0.0664 0.1001,-0.13283 0.15016,-0.19917 0.05,-0.0663 0.1001,-0.13263 0.15015,-0.19888 0.05,-0.0662 0.1001,-0.13243 0.15015,-0.19858 0.05,-0.0661 0.1001,-0.13224 0.15015,-0.19829 0.05,-0.0661 0.1001,-0.13205 0.15015,-0.198 0.05,-0.066 0.1001,-0.13186 0.15015,-0.19772 0.05,-0.0659 0.1001,-0.13167 0.15015,-0.19744 0.05,-0.0658 0.1001,-0.13148 0.15015,-0.19715 0.05,-0.0657 0.1001,-0.1313 0.15015,-0.19689 0.05,-0.0656 0.1001,-0.13111 0.15015,-0.1966 0.0501,-0.0655 0.1001,-0.13094 0.15015,-0.19634 0.05,-0.0654 0.10011,-0.13075 0.15016,-0.19607 0.05,-0.0653 0.1001,-0.13057 0.15015,-0.1958 0.05,-0.0652 0.1001,-0.1304 0.15015,-0.19554 0.05,-0.0651 0.1001,-0.13022 0.15015,-0.19527 0.05,-0.065 0.1001,-0.13006 0.15015,-0.19502 0.05,-0.065 0.1001,-0.12989 0.15015,-0.19477 0.05,-0.0649 0.1001,-0.12972 0.15015,-0.19451 0.0501,-0.0648 0.1001,-0.12955 0.15015,-0.19426 0.05,-0.0647 0.1001,-0.12938 0.15015,-0.19401 0.05,-0.0646 0.1001,-0.12922 0.15015,-0.19377 0.05,-0.0645 0.1001,-0.12906 0.15015,-0.19352 0.05,-0.0645 0.1001,-0.1289 0.15015,-0.19329 0.05,-0.0644 0.1001,-0.12873 0.15015,-0.19304 0.05,-0.0643 0.1001,-0.12858 0.15015,-0.19281 0.05,-0.0642 0.1001,-0.12842 0.15015,-0.19257 0.0501,-0.0641 0.1001,-0.12826 0.15015,-0.19234 0.05,-0.0641 0.1001,-0.12811 0.15015,-0.19211 0.05,-0.064 0.1001,-0.12795 0.15015,-0.19188 0.05,-0.0639 0.1001,-0.1278 0.15015,-0.19165 0.05,-0.0639 0.1001,-0.12766 0.15015,-0.19143 0.05,-0.0638 0.1001,-0.12751 0.15015,-0.19121 0.05,-0.0637 0.1001,-0.12736 0.15015,-0.19099 0.05,-0.0636 0.1001,-0.12722 0.15015,-0.19077 0.0501,-0.0636 0.1001,-0.12707 0.15015,-0.19055 0.05,-0.0635 0.1001,-0.12693 0.15015,-0.19034 0.05,-0.0634 0.1001,-0.12679 0.15015,-0.19013 0.05,-0.0633 0.1001,-0.12665 0.15015,-0.18992 0.05,-0.0633 0.1001,-0.12651 0.15015,-0.18971 0.05,-0.0632 0.1001,-0.12637 0.15015,-0.1895 0.05,-0.0631 0.1001,-0.12623 0.15015,-0.1893 0.05,-0.0631 0.1001,-0.1261 0.15015,-0.18909 0.0501,-0.063 0.1001,-0.12596 0.15015,-0.1889 0.05,-0.0629 0.1001,-0.12582 0.15015,-0.18869 0.05,-0.0629 0.1001,-0.1257 0.15015,-0.18849 0.05,-0.0628 0.1001,-0.12557 0.15015,-0.1883 0.05,-0.0627 0.1001,-0.12544 0.15015,-0.18811 0.05,-0.0627 0.1001,-0.1253 0.15015,-0.18791 0.05,-0.0626 0.1001,-0.12518 0.15015,-0.18772 0.05,-0.0625 0.1001,-0.12505 0.15015,-0.18753 0.0501,-0.0625 0.1001,-0.12493 0.15015,-0.18734 0.05,-0.0624 0.1001,-0.1248 0.15015,-0.18716 0.05,-0.0624 0.1001,-0.12468 0.15015,-0.18697 0.05,-0.0623 0.1001,-0.12455 0.15015,-0.18679 0.05,-0.0622 0.1001,-0.12443 0.15015,-0.1866 0.05,-0.0622 0.1001,-0.12431 0.15015,-0.18643 0.05,-0.0621 0.1001,-0.12419 0.15015,-0.18624 0.05,-0.062 0.1001,-0.12408 0.15015,-0.18607 0.0501,-0.062 0.1001,-0.12396 0.15015,-0.18589 0.05,-0.0619 0.1001,-0.12384 0.15015,-0.18572 0.05,-0.0619 0.1001,-0.12373 0.15015,-0.18555 0.05,-0.0618 0.1001,-0.12361 0.15015,-0.18537 0.05,-0.0618 0.1001,-0.12349 0.15015,-0.1852 0.0501,-0.0617 0.10011,-0.12338 0.15016,-0.18503 0.05,-0.0617 0.1001,-0.12328 0.15015,-0.18487 0.05,-0.0616 0.1001,-0.12316 0.15015,-0.1847 0.05,-0.0615 0.1001,-0.12305 0.15015,-0.18453 0.05,-0.0615 0.1001,-0.12294 0.15015,-0.18437 0.05,-0.0614 0.1001,-0.12283 0.15015,-0.18421 0.05,-0.0614 0.1001,-0.12272 0.15015,-0.18405 0.05,-0.0613 0.1001,-0.12261 0.15015,-0.18388 0.05,-0.0613 0.1001,-0.12252 0.15015,-0.18373 0.05,-0.0612 0.1001,-0.12241 0.15015,-0.18357 0.05,-0.0612 0.1001,-0.1223 0.15015,-0.18342 0.05,-0.0611 0.1001,-0.12219 0.15015,-0.18325 0.0501,-0.0611 0.1001,-0.1221 0.15015,-0.18311 0.05,-0.061 0.1001,-0.12199 0.15015,-0.18295 0.05,-0.061 0.1001,-0.12189 0.15015,-0.1828 0.05,-0.0609 0.1001,-0.1218 0.15015,-0.18265 0.05,-0.0609 0.1001,-0.1217 0.15015,-0.1825 0.05,-0.0608 0.1001,-0.1216 0.15015,-0.18236 0.05,-0.0608 0.1001,-0.12149 0.15015,-0.1822 0.05,-0.0607 0.1001,-0.1214 0.15015,-0.18206 0.0501,-0.0607 0.1001,-0.1213 0.15015,-0.18192 0.05,-0.0606 0.1001,-0.1212 0.15015,-0.18177 0.05,-0.0606 0.1001,-0.12111 0.15015,-0.18163 0.05,-0.0605 0.1001,-0.12101 0.15015,-0.18149 0.05,-0.0605 0.1001,-0.12092 0.15015,-0.18134 0.05,-0.0604 0.1001,-0.12083 0.15015,-0.18121 0.05,-0.0604 0.1001,-0.12073 0.15015,-0.18107 0.05,-0.0603 0.1001,-0.12064 0.15015,-0.18093 0.0501,-0.0603 0.1001,-0.12055 0.15015,-0.18079 0.05,-0.0602 0.1001,-0.12046 0.15015,-0.18066 0.05,-0.0602 0.1001,-0.12037 0.15015,-0.18053 0.05,-0.0601 0.1001,-0.12028 0.15015,-0.18039 0.05,-0.0601 0.1001,-0.12019 0.15015,-0.18025 0.05,-0.0601 0.1001,-0.12011 0.15015,-0.18013 0.05,-0.06 0.1001,-0.12002 0.15015,-0.18 0.05,-0.06 0.1001,-0.11993 0.15015,-0.17986 0.0501,-0.0599 0.1001,-0.11985 0.15015,-0.17974 0.05,-0.0599 0.1001,-0.11976 0.15015,-0.17961 0.05,-0.0598 0.1001,-0.11967 0.15015,-0.17948 0.05,-0.0598 0.1001,-0.11959 0.15015,-0.17936 0.05,-0.0598 0.1001,-0.1195 0.15015,-0.17923 0.05,-0.0597 0.1001,-0.11942 0.15015,-0.1791 0.05,-0.0597 0.1001,-0.11934 0.15015,-0.17898 0.05,-0.0596 0.1001,-0.11926 0.15015,-0.17886 0.0501,-0.0596 0.1001,-0.11918 0.15015,-0.17874 0.05,-0.0596 0.1001,-0.1191 0.15015,-0.17862 0.05,-0.0595 0.1001,-0.11902 0.15015,-0.17849 0.05,-0.0595 0.1001,-0.11894 0.15015,-0.17838 0.05,-0.0594 0.1001,-0.11886 0.15015,-0.17826 0.05,-0.0594 0.1001,-0.11878 0.15015,-0.17814 0.05,-0.0594 0.1001,-0.1187 0.15015,-0.17802 0.05,-0.0593 0.1001,-0.11863 0.15015,-0.17791 0.0501,-0.0593 0.1001,-0.11855 0.15015,-0.17779 0.05,-0.0593 0.1001,-0.11848 0.15015,-0.17768 0.05,-0.0592 0.1001,-0.1184 0.15015,-0.17757 0.05,-0.0592 0.1001,-0.11832 0.15015,-0.17745 0.05,-0.0591 0.1001,-0.11824 0.15015,-0.17734 0.05,-0.0591 0.1001,-0.11817 0.15015,-0.17722 0.05,-0.0591 0.1001,-0.1181 0.15015,-0.17712 0.05,-0.059 0.1001,-0.11802 0.15015,-0.17701 0.0501,-0.059 0.1001,-0.11795 0.15015,-0.17689 0.05,-0.0589 0.1001,-0.11788 0.15015,-0.17679 0.05,-0.0589 0.1001,-0.11781 0.15015,-0.17668 0.05,-0.0589 0.1001,-0.11774 0.15015,-0.17658 0.05,-0.0588 0.1001,-0.11766 0.15015,-0.17646 0.05,-0.0588 0.1001,-0.11759 0.15015,-0.17636 0.05,-0.0588 0.1001,-0.11752 0.15016,-0.17626 0.05,-0.0587 0.1001,-0.11745 0.15015,-0.17615 0.05,-0.0587 0.1001,-0.11738 0.15015,-0.17605 0.05,-0.0587 0.1001,-0.11731 0.15015,-0.17594 0.05,-0.0586 0.1001,-0.11725 0.15015,-0.17585 0.05,-0.0586 0.1001,-0.11717 0.15015,-0.17574 0.05,-0.0586 0.1001,-0.11711 0.15015,-0.17563 0.05,-0.0585 0.1001,-0.11704 0.15015,-0.17554 0.05,-0.0585 0.1001,-0.11698 0.15015,-0.17544 0.05,-0.0585 0.1001,-0.11691 0.15015,-0.17534 0.05,-0.0584 0.1001,-0.11684 0.15015,-0.17524 0.05,-0.0584 0.1001,-0.11678 0.15015,-0.17514 0.05,-0.0584 0.1001,-0.11672 0.15015,-0.17505 0.05,-0.0583 0.1001,-0.11665 0.15015,-0.17495 0.05,-0.0583 0.1001,-0.11658 0.15015,-0.17485 0.05,-0.0583 0.1001,-0.11652 0.15015,-0.17476 0.05,-0.0582 0.1001,-0.11646 0.15015,-0.17466 0.05,-0.0582 0.1001,-0.1164 0.15015,-0.17457 0.05,-0.0582 0.1001,-0.11633 0.15015,-0.17447 0.0501,-0.0581 0.1001,-0.11627 0.15015,-0.17438 0.05,-0.0581 0.1001,-0.11621 0.15015,-0.17429 0.05,-0.0581 0.1001,-0.11615 0.15015,-0.1742 0.05,-0.0581 0.1001,-0.11609 0.15015,-0.17411 0.05,-0.058 0.1001,-0.11602 0.15015,-0.17401 0.05,-0.058 0.1001,-0.11596 0.15015,-0.17392 0.05,-0.058 0.1001,-0.11591 0.15015,-0.17384 0.05,-0.0579 0.1001,-0.11584 0.15015,-0.17374 0.0501,-0.0579 0.1001,-0.11579 0.15015,-0.17366 0.05,-0.0579 0.1001,-0.11573 0.15015,-0.17357 0.05,-0.0578 0.1001,-0.11567 0.15015,-0.17348 0.05,-0.0578 0.1001,-0.11561 0.15015,-0.17339 0.05,-0.0578 0.1001,-0.11555 0.15015,-0.17331 0.05,-0.0577 0.1001,-0.11549 0.15015,-0.17322 0.05,-0.0577 0.1001,-0.11544 0.15015,-0.17313 0.05,-0.0577 0.1001,-0.11538 0.15015,-0.17305 0.0501,-0.0577 0.1001,-0.11533 0.15015,-0.17297 0.05,-0.0576 0.1001,-0.11527 0.15015,-0.17288 0.05,-0.0576 0.1001,-0.11521 0.15015,-0.1728 0.05,-0.0576 0.1001,-0.11515 0.15015,-0.17271 0.05,-0.0576 0.1001,-0.1151 0.15015,-0.17263 0.05,-0.0575 0.1001,-0.11505 0.15015,-0.17255 0.05,-0.0575 0.1001,-0.115 0.15015,-0.17247 0.05,-0.0575 0.1001,-0.11494 0.15015,-0.17239 0.0501,-0.0574 0.1001,-0.11488 0.15015,-0.17231 0.05,-0.0574 0.1001,-0.11483 0.15015,-0.17222 0.05,-0.0574 0.1001,-0.11478 0.15015,-0.17215 0.05,-0.0574 0.1001,-0.11472 0.15015,-0.17207 0.05,-0.0573 0.1001,-0.11467 0.15015,-0.17198 0.05,-0.0573 0.1001,-0.11462 0.15015,-0.17191 0.05,-0.0573 0.1001,-0.11457 0.15015,-0.17184 0.05,-0.0573 0.1001,-0.11451 0.15015,-0.17175 0.0501,-0.0572 0.1001,-0.11447 0.15015,-0.17168 0.05,-0.0572 0.1001,-0.11441 0.15015,-0.1716 0.05,-0.0572 0.1001,-0.11436 0.15015,-0.17153 0.05,-0.0572 0.1001,-0.11431 0.15015,-0.17144 0.05,-0.0571 0.1001,-0.11427 0.15015,-0.17138 0.05,-0.0571 0.1001,-0.11421 0.15015,-0.1713 0.05,-0.0571 0.1001,-0.11416 0.15015,-0.17122 0.05,-0.0571 0.1001,-0.11411 0.15015,-0.17115 0.0501,-0.057 0.1001,-0.11407 0.15015,-0.17108 0.05,-0.057 0.1001,-0.11401 0.15015,-0.171 0.05,-0.057 0.1001,-0.11397 0.15015,-0.17093 0.05,-0.057 0.1001,-0.11392 0.15015,-0.17086 0.05,-0.0569 0.1001,-0.11387 0.15015,-0.17079 0.05,-0.0569 0.1001,-0.11382 0.15015,-0.17071 0.05,-0.0569 0.1001,-0.11378 0.15015,-0.17065 0.05,-0.0569 0.1001,-0.11372 0.15015,-0.17057 0.0501,-0.0568 0.10011,-0.11368 0.15016,-0.1705 0.05,-0.0568 0.1001,-0.11364 0.15015,-0.17044 0.05,-0.0568 0.1001,-0.11358 0.15015,-0.17036 0.05,-0.0568 0.1001,-0.11354 0.15015,-0.17029 0.05,-0.0567 0.1001,-0.1135 0.15015,-0.17023 0.05,-0.0567 0.1001,-0.11345 0.15015,-0.17015 0.05,-0.0567 0.1001,-0.11341 0.15015,-0.17009 0.05,-0.0567 0.1001,-0.11336 0.15015,-0.17002 0.05,-0.0567 0.1001,-0.11331 0.15015,-0.16995 0.05,-0.0566 0.1001,-0.11327 0.15015,-0.16989 0.05,-0.0566 0.1001,-0.11322 0.15015,-0.16982 0.05,-0.0566 0.1001,-0.11318 0.15015,-0.16975 0.05,-0.0566 0.1001,-0.11314 0.15015,-0.16969 0.05,-0.0566 0.1001,-0.11309 0.15015,-0.16962 0.05,-0.0565 0.1001,-0.11305 0.15015,-0.16956 0.05,-0.0565 0.1001,-0.113 0.15015,-0.16949 0.05,-0.0565 0.1001,-0.11296 0.15015,-0.16942 0.0501,-0.0565 0.1001,-0.11292 0.15015,-0.16937 0.05,-0.0564 0.1001,-0.11287 0.15015,-0.16929 0.05,-0.0564 0.1001,-0.11284 0.15015,-0.16924 0.05,-0.0564 0.1001,-0.11279 0.15015,-0.16917 0.05,-0.0564 0.1001,-0.11275 0.15015,-0.16911 0.05,-0.0564 0.1001,-0.11271 0.15015,-0.16904 0.05,-0.0563 0.1001,-0.11267 0.15015,-0.16899 0.05,-0.0563 0.1001,-0.11262 0.15015,-0.16892 0.0501,-0.0563 0.1001,-0.11258 0.15015,-0.16886 0.05,-0.0563 0.1001,-0.11254 0.15015,-0.1688 0.05,-0.0563 0.1001,-0.1125 0.15015,-0.16874 0.05,-0.0562 0.1001,-0.11246 0.15015,-0.16868 0.05,-0.0562 0.1001,-0.11242 0.15015,-0.16861 0.05,-0.0562 0.1001,-0.11238 0.15015,-0.16856 0.05,-0.0562 0.1001,-0.11234 0.15015,-0.168504 0.05,-0.0562 0.1001,-0.112304 0.15015,-0.168448 0.0501,-0.0561 0.1001,-0.112264 0.15015,-0.168378 0.05,-0.0561 0.1001,-0.112234 0.15015,-0.168324 0.05,-0.0561 0.1001,-0.112198 0.15015,-0.168278 0.05,-0.0561 0.1001,-0.112144 0.15015,-0.168201 0.05,-0.0561 0.1001,-0.11211 0.15015,-0.16815 0.05,-0.056 0.1001,-0.11206 0.15015,-0.16808 0.05,-0.056 0.1001,-0.11203 0.15015,-0.168027 0.05,-0.056 0.1001,-0.112 0.15015,-0.16798 0.0501,-0.056 0.1001,-0.11195 0.15015,-0.16792 0.05,-0.056 0.1001,-0.11191 0.15015,-0.16786 0.05,-0.05594 0.1001,-0.111875 0.15015,-0.1678 0.05,-0.05593 0.1001,-0.111842 0.15015,-0.167749 0.05,-0.05591 0.1001,-0.111804 0.15015,-0.167693 0.05,-0.05589 0.1001,-0.111768 0.15015,-0.167638 0.05,-0.05587 0.1001,-0.11173 0.15015,-0.167582 0.05,-0.05585 0.1001,-0.111694 0.15015,-0.167528 0.0501,-0.05583 0.1001,-0.111658 0.15015,-0.167473 0.05,-0.05582 0.1001,-0.111622 0.15015,-0.167419 0.05,-0.0558 0.1001,-0.111586 0.15015,-0.167366 0.05,-0.05578 0.1001,-0.11155 0.15015,-0.167311 0.05,-0.05576 0.1001,-0.111514 0.15015,-0.167258 0.05,-0.05574 0.1001,-0.111479 0.15015,-0.167205 0.05,-0.05573 0.1001,-0.111443 0.15015,-0.167152 0.05,-0.05571 0.1001,-0.111408 0.15015,-0.167099 0.0501,-0.05569 0.1001,-0.111374 0.15015,-0.167047 0.05,-0.05567 0.1001,-0.111339 0.15015,-0.166995 0.05,-0.05566 0.1001,-0.111304 0.15015,-0.166943 0.05,-0.05564 0.1001,-0.111269 0.15015,-0.166891 0.05,-0.05562 0.1001,-0.111235 0.15015,-0.16684 0.05,-0.0556 0.1001,-0.111201 0.15015,-0.166789 0.05,-0.05559 0.1001,-0.111167 0.15015,-0.166738 0.05,-0.05557 0.1001,-0.111133 0.15015,-0.166687 0.0501,-0.05555 0.1001,-0.111099 0.15015,-0.166637 0.05,-0.05554 0.1001,-0.111066 0.15016,-0.166586 0.05,-0.05552 0.1001,-0.111033 0.15015,-0.166537 0.05,-0.0555 0.1001,-0.111 0.15015,-0.166487 0.05,-0.05549 0.1001,-0.110967 0.15015,-0.166438 0.05,-0.05547 0.1001,-0.110933 0.15015,-0.166388 0.05,-0.05545 0.1001,-0.110901 0.15015,-0.16634 0.05,-0.05544 0.1001,-0.110868 0.15015,-0.16629 0.05,-0.05542 0.1001,-0.110837 0.15015,-0.166243 0.05,-0.05541 0.1001,-0.110804 0.15015,-0.166193 0.05,-0.05539 0.1001,-0.110772 0.15015,-0.166146 0.05,-0.05537 0.1001,-0.11074 0.15015,-0.166098 0.05,-0.05536 0.1001,-0.110709 0.15015,-0.166051 0.05,-0.05534 0.1001,-0.110677 0.15015,-0.166003 0.05,-0.05533 0.1001,-0.110645 0.15015,-0.165956 0.05,-0.05531 0.1001,-0.110614 0.15015,-0.165909 0.05,-0.0553 0.1001,-0.110583 0.15015,-0.165862 0.0501,-0.05528 0.1001,-0.110552 0.15015,-0.165816 0.05,-0.05526 0.1001,-0.110521 0.15015,-0.16577 0.05,-0.05525 0.1001,-0.11049 0.15015,-0.165723 0.05,-0.05523 0.1001,-0.11046 0.15015,-0.165678 0.05,-0.05522 0.1001,-0.110429 0.15015,-0.165632 0.05,-0.0552 0.1001,-0.110398 0.15015,-0.165586 0.0501,-0.05519 0.1001,-0.110369 0.15015,-0.165542 0.05,-0.05517 0.1001,-0.110338 0.15015,-0.165496 0.05,-0.05516 0.1001,-0.110308 0.15015,-0.165452 0.05,-0.05514 0.1001,-0.110278 0.15015,-0.165406 0.0501,-0.05513 0.1001,-0.11025 0.15015,-0.165363 0.05,-0.05511 0.1001,-0.11022 0.15015,-0.165318 0.05,-0.0551 0.1001,-0.110191 0.15015,-0.165275 0.05,-0.05508 0.1001,-0.110161 0.15015,-0.16523 0.0501,-0.05507 0.1001,-0.110132 0.15015,-0.165187 0.05,-0.05506 0.1001,-0.110103 0.15015,-0.165144 0.05,-0.05504 0.1001,-0.110074 0.15015,-0.1651 0.05,-0.05503 0.1001,-0.110046 0.15015,-0.165058 0.0501,-0.05501 0.1001,-0.110016 0.15015,-0.165014 0.05,-0.055 0.1001,-0.109989 0.15015,-0.164972 0.05,-0.05498 0.1001,-0.10996 0.15015,-0.16493 0.05,-0.05497 0.1001,-0.109932 0.15015,-0.164887 0.0501,-0.05495 0.1001,-0.109904 0.15015,-0.164845 0.05,-0.05494 0.1001,-0.109876 0.15015,-0.164804 0.05,-0.05493 0.1001,-0.109848 0.15015,-0.164761 0.05,-0.05491 0.1001,-0.109821 0.15015,-0.164721 0.0501,-0.0549 0.1001,-0.109793 0.15015,-0.164679 0.05,-0.05489 0.1001,-0.109765 0.15015,-0.164637 0.05,-0.05487 0.1001,-0.109739 0.15015,-0.164597 0.05,-0.05486 0.1001,-0.109711 0.15015,-0.164557 0.0501,-0.05485 0.1001,-0.109683 0.15015,-0.164515 0.05,-0.05483 0.1001,-0.109657 0.15015,-0.164475 0.05,-0.05482 0.1001,-0.10963 0.15015,-0.164435 0.05,-0.05481 0.1001,-0.109604 0.15015,-0.164395 0.0501,-0.05479 0.1001,-0.109577 0.15015,-0.164355 0.05,-0.05478 0.1001,-0.109551 0.15015,-0.164316 0.05,-0.05477 0.1001,-0.109524 0.15015,-0.164276 0.05,-0.05475 0.1001,-0.109497 0.15015,-0.164236 0.0501,-0.05474 0.1001,-0.109472 0.15015,-0.164198 0.05,-0.05473 0.1001,-0.109445 0.15015,-0.164158 0.05,-0.05471 0.1001,-0.109419 0.15015,-0.16412 0.05,-0.0547 0.1001,-0.109393 0.15015,-0.16408 0.0501,-0.05469 0.1001,-0.109368 0.15015,-0.164043 0.05,-0.05467 0.1001,-0.109342 0.15015,-0.164004 0.05,-0.05466 0.1001,-0.109317 0.15015,-0.163966 0.05,-0.05465 0.1001,-0.109291 0.15015,-0.163928 0.0501,-0.05464 0.1001,-0.109266 0.15015,-0.16389 0.05,-0.05462 0.1001,-0.109241 0.15015,-0.163852 0.05,-0.05461 0.1001,-0.109216 0.15015,-0.163815 0.05,-0.0546 0.1001,-0.109191 0.15015,-0.163778 0.0501,-0.05459 0.1001,-0.109166 0.15015,-0.16374 0.05,-0.05457 0.10011,-0.109142 0.15016,-0.163703 0.05,-0.05456 0.1001,-0.109117 0.15015,-0.163667 0.05,-0.05455 0.1001,-0.109092 0.15015,-0.163629 0.05,-0.05454 0.1001,-0.109068 0.15015,-0.163593 0.05,-0.05452 0.1001,-0.109044 0.15015,-0.163557 0.05,-0.05451 0.1001,-0.10902 0.15015,-0.163521 0.05,-0.0545 0.1001,-0.108995 0.15015,-0.163484 0.05,-0.05449 0.1001,-0.108972 0.15015,-0.163449 0.05,-0.05448 0.1001,-0.108947 0.15015,-0.163412 0.05,-0.05446 0.1001,-0.108924 0.15015,-0.163377 0.05,-0.05445 0.1001,-0.1089 0.15015,-0.163342 0.05,-0.05444 0.1001,-0.108876 0.15015,-0.163306 0.0501,-0.05443 0.1001,-0.108853 0.15015,-0.163271 0.05,-0.05442 0.1001,-0.10883 0.15015,-0.163236 0.05,-0.05441 0.1001,-0.108806 0.15015,-0.163201 0.05,-0.05439 0.1001,-0.108783 0.15015,-0.163166 0.0501,-0.05438 0.1001,-0.10876 0.15015,-0.163132 0.05,-0.05437 0.1001,-0.108737 0.15015,-0.163097 0.05,-0.05436 0.1001,-0.108714 0.15015,-0.163062 0.05,-0.05435 0.1001,-0.108692 0.15015,-0.163029 0.0501,-0.05434 0.1001,-0.108669 0.15015,-0.162995 0.05,-0.05433 0.1001,-0.108646 0.15015,-0.16296 0.05,-0.05431 0.1001,-0.108624 0.15015,-0.162927 0.05,-0.0543 0.1001,-0.108601 0.15015,-0.162893 0.0501,-0.05429 0.1001,-0.108579 0.15015,-0.16286 0.05,-0.05428 0.1001,-0.108557 0.15015,-0.162827 0.05,-0.05427 0.1001,-0.108534 0.15015,-0.162793 0.05,-0.05426 0.1001,-0.108512 0.15015,-0.16276 0.0501,-0.05425 0.1001,-0.10849 0.15015,-0.162727 0.05,-0.05424 0.1001,-0.108469 0.15015,-0.162695 0.05,-0.05423 0.1001,-0.108446 0.15015,-0.162661 0.05,-0.05421 0.1001,-0.108425 0.15015,-0.162629 0.0501,-0.0542 0.1001,-0.108404 0.15015,-0.162597 0.05,-0.05419 0.1001,-0.108382 0.15015,-0.162565 0.05,-0.05418 0.1001,-0.10836 0.15015,-0.162532 0.05,-0.05417 0.1001,-0.108339 0.15015,-0.1625 0.0501,-0.05416 0.1001,-0.108318 0.15015,-0.162468 0.05,-0.05415 0.1001,-0.108297 0.15015,-0.162437 0.05,-0.05414 0.1001,-0.108275 0.15015,-0.162405 0.05,-0.05413 0.1001,-0.108254 0.15015,-0.162373 0.0501,-0.05412 0.1001,-0.108234 0.15015,-0.162342 0.05,-0.05411 0.1001,-0.108213 0.15015,-0.162311 0.05,-0.0541 0.1001,-0.108192 0.15015,-0.16228 0.05,-0.05409 0.1001,-0.108171 0.15015,-0.162249 0.0501,-0.05408 0.1001,-0.10815 0.15015,-0.162217 0.05,-0.05407 0.1001,-0.10813 0.15015,-0.162187 0.05,-0.05406 0.1001,-0.10811 0.15015,-0.162157 0.05,-0.05405 0.1001,-0.108089 0.15015,-0.162125 0.0501,-0.05404 0.1001,-0.108069 0.15015,-0.162096 0.05,-0.05403 0.1001,-0.108048 0.15015,-0.162065 0.05,-0.05402 0.1001,-0.108028 0.15015,-0.162035 0.05,-0.05401 0.1001,-0.108008 0.15015,-0.162005 0.0501,-0.054 0.1001,-0.107988 0.15015,-0.161975 0.05,-0.05399 0.1001,-0.107968 0.15015,-0.161945 0.05,-0.05398 0.1001,-0.107949 0.15015,-0.161916 0.05,-0.05397 0.1001,-0.107929 0.15015,-0.161886 0.0501,-0.05396 0.1001,-0.107909 0.15015,-0.161856 0.05,-0.05395 0.1001,-0.10789 0.15015,-0.161827 0.05,-0.05394 0.1001,-0.10787 0.15015,-0.161798 0.05,-0.05393 0.1001,-0.107851 0.15015,-0.161769 0.0501,-0.05392 0.1001,-0.107831 0.15015,-0.16174 0.05,-0.05391 0.1001,-0.107812 0.15015,-0.161711 0.05,-0.0539 0.1001,-0.107792 0.15015,-0.161682 0.05,-0.05389 0.1001,-0.107773 0.15015,-0.161653 0.0501,-0.05388 0.1001,-0.107755 0.15015,-0.161625 0.05,-0.05387 0.1001,-0.107736 0.15015,-0.161596 0.05,-0.05386 0.1001,-0.107717 0.15015,-0.161568 0.0501,-0.05385 0.10011,-0.107698 0.15016,-0.16154 0.05,-0.05384 0.1001,-0.10768 0.15015,-0.161512 0.05,-0.05383 0.1001,-0.107661 0.15015,-0.161484 0.05,-0.05382 0.1001,-0.107642 0.15015,-0.161456 0.05,-0.05381 0.1001,-0.107623 0.15015,-0.161428 0.05,-0.0538 0.1001,-0.107604 0.15015,-0.1614 0.05,-0.0538 0.1001,-0.107586 0.15015,-0.161373 0.05,-0.05379 0.1001,-0.107568 0.15015,-0.161345 0.05,-0.05378 0.1001,-0.10755 0.15015,-0.161318 0.05,-0.05377 0.1001,-0.107532 0.15015,-0.161291 0.05,-0.05376 0.1001,-0.107513 0.15015,-0.161263 0.05,-0.05375 0.1001,-0.107495 0.15015,-0.161236 0.05,-0.05374 0.1001,-0.107478 0.15015,-0.16121 0.05,-0.05373 0.1001,-0.107459 0.15015,-0.161182 0.0501,-0.05372 0.1001,-0.107442 0.15015,-0.161156 0.05,-0.05371 0.1001,-0.107424 0.15015,-0.161129 0.05,-0.0537 0.1001,-0.107406 0.15015,-0.161103 0.05,-0.0537 0.1001,-0.107388 0.15015,-0.161076 0.0501,-0.05369 0.1001,-0.107371 0.15015,-0.16105 0.05,-0.05368 0.1001,-0.107353 0.15015,-0.161023 0.05,-0.05367 0.1001,-0.107336 0.15015,-0.160997 0.05,-0.05366 0.1001,-0.107319 0.15015,-0.160972 0.0501,-0.05365 0.1001,-0.107301 0.15015,-0.160945 0.05,-0.05364 0.1001,-0.107284 0.15015,-0.160919 0.05,-0.05364 0.1001,-0.107267 0.15015,-0.160894 0.05,-0.05363 0.1001,-0.107249 0.15015,-0.160868 0.0501,-0.05362 0.1001,-0.107232 0.15015,-0.160842 0.05,-0.05361 0.1001,-0.107216 0.15015,-0.160817 0.05,-0.0536 0.1001,-0.107198 0.15015,-0.160791 0.05,-0.05359 0.1001,-0.107182 0.15015,-0.160767 0.0501,-0.05358 0.1001,-0.107164 0.15015,-0.160741 0.05,-0.05358 0.1001,-0.107148 0.15015,-0.160715 0.05,-0.05357 0.1001,-0.107132 0.15015,-0.160691 0.05,-0.05356 0.1001,-0.107115 0.15015,-0.160666 0.0501,-0.05355 0.1001,-0.107098 0.15015,-0.160641 0.05,-0.05354 0.1001,-0.107082 0.15015,-0.160616 0.05,-0.05354 0.1001,-0.107065 0.15015,-0.160592 0.05,-0.05353 0.1001,-0.107049 0.15015,-0.160567 0.0501,-0.05352 0.1001,-0.107032 0.15015,-0.160542 0.05,-0.05351 0.1001,-0.107016 0.15015,-0.160518 0.05,-0.0535 0.1001,-0.107 0.15015,-0.160494 0.05,-0.05349 0.1001,-0.106984 0.15015,-0.16047 0.0501,-0.05349 0.1001,-0.106968 0.15015,-0.160445 0.05,-0.05348 0.1001,-0.106952 0.15015,-0.160422 0.05,-0.05347 0.1001,-0.106935 0.15015,-0.160397 0.05,-0.05346 0.1001,-0.10692 0.15015,-0.160374 0.0501,-0.05345 0.1001,-0.106904 0.15015,-0.16035 0.05,-0.05345 0.1001,-0.106888 0.15015,-0.160326 0.05,-0.05344 0.1001,-0.106872 0.15015,-0.160302 0.05,-0.05343 0.1001,-0.106857 0.15015,-0.160279 0.0501,-0.05342 0.1001,-0.106841 0.15015,-0.160256 0.05,-0.05342 0.1001,-0.106825 0.15015,-0.160232 0.05,-0.05341 0.1001,-0.10681 0.15015,-0.160209 0.05,-0.0534 0.1001,-0.106795 0.15015,-0.160186 0.0501,-0.05339 0.1001,-0.106779 0.15015,-0.160163 0.05,-0.05338 0.1001,-0.106763 0.15015,-0.160139 0.05,-0.05338 0.1001,-0.106748 0.15015,-0.160117 0.05,-0.05337 0.1001,-0.106733 0.15015,-0.160094 0.0501,-0.05336 0.1001,-0.106717 0.15015,-0.160071 0.05,-0.05335 0.1001,-0.106702 0.15015,-0.160048 0.05,-0.05335 0.1001,-0.106687 0.15015,-0.160026 0.05,-0.05334 0.1001,-0.106672 0.15015,-0.160003 0.0501,-0.05333 0.1001,-0.106657 0.15015,-0.15998 0.05,-0.05332 0.1001,-0.106643 0.15015,-0.159959 0.05,-0.05332 0.1001,-0.106627 0.15015,-0.159936 0.05,-0.05331 0.1001,-0.106612 0.15015,-0.159913 0.0501,-0.0533 0.1001,-0.106598 0.15016,-0.159892 0.05,-0.05329 0.1001,-0.106583 0.15015,-0.15987 0.05,-0.05329 0.1001,-0.106568 0.15015,-0.159847 0.05,-0.05328 0.1001,-0.106554 0.15015,-0.159826 0.05,-0.05327 0.1001,-0.106539 0.15015,-0.159804 0.05,-0.05326 0.1001,-0.106524 0.15015,-0.159782 0.05,-0.05326 0.1001,-0.10651 0.15015,-0.15976 0.05,-0.05325 0.1001,-0.106496 0.15015,-0.159739 0.05,-0.05324 0.1001,-0.106481 0.15015,-0.159717 0.05,-0.05323 0.1001,-0.106467 0.15015,-0.159696 0.05,-0.05323 0.1001,-0.106453 0.15015,-0.159674 0.05,-0.05322 0.1001,-0.106439 0.15015,-0.159653 0.05,-0.05321 0.1001,-0.106425 0.15015,-0.159632 0.05,-0.05321 0.1001,-0.10641 0.15015,-0.15961 0.05,-0.0532 0.1001,-0.106397 0.15015,-0.15959 0.05,-0.05319 0.1001,-0.106382 0.15015,-0.159568 0.05,-0.05319 0.1001,-0.106369 0.15015,-0.159548 0.05,-0.05318 0.1001,-0.106355 0.15015,-0.159527 0.05,-0.05317 0.1001,-0.10634 0.15015,-0.159505 0.05,-0.05317 0.1001,-0.106327 0.15015,-0.159486 0.05,-0.05316 0.1001,-0.106313 0.15015,-0.159464 0.05,-0.05315 0.1001,-0.106299 0.15015,-0.159444 0.05,-0.05315 0.1001,-0.106286 0.15015,-0.159423 0.05,-0.05314 0.1001,-0.106272 0.15015,-0.159403 0.05,-0.05313 0.1001,-0.106259 0.15015,-0.159383 0.05,-0.05312 0.1001,-0.106245 0.15015,-0.159362 0.05,-0.05312 0.1001,-0.106231 0.15015,-0.159342 0.05,-0.05311 0.1001,-0.106218 0.15015,-0.159322 0.05,-0.0531 0.1001,-0.106204 0.15015,-0.159301 0.05,-0.0531 0.1001,-0.106191 0.15015,-0.159282 0.05,-0.05309 0.1001,-0.106178 0.15015,-0.159262 0.05,-0.05308 0.1001,-0.106164 0.15015,-0.159241 0.05,-0.05308 0.1001,-0.106152 0.15015,-0.159222 0.05,-0.05307 0.1001,-0.106138 0.15015,-0.159203 0.05,-0.05306 0.1001,-0.106124 0.15015,-0.159182 0.05,-0.05306 0.1001,-0.106112 0.15015,-0.159163 0.05,-0.05305 0.1001,-0.106099 0.15015,-0.159143 0.05,-0.05304 0.1001,-0.106086 0.15015,-0.159124 0.0501,-0.05304 0.1001,-0.106073 0.15015,-0.159104 0.05,-0.05303 0.1001,-0.10606 0.15015,-0.159085 0.05,-0.05303 0.1001,-0.106047 0.15015,-0.159066 0.05,-0.05302 0.1001,-0.106034 0.15015,-0.159046 0.05,-0.05301 0.1001,-0.106021 0.15015,-0.159027 0.05,-0.05301 0.1001,-0.106009 0.15015,-0.159008 0.05,-0.053 0.1001,-0.105996 0.15015,-0.158989 0.05,-0.05299 0.1001,-0.105983 0.15015,-0.15897 0.0501,-0.05299 0.1001,-0.105971 0.15015,-0.158951 0.05,-0.05298 0.1001,-0.105958 0.15015,-0.158932 0.05,-0.05297 0.1001,-0.105946 0.15015,-0.158914 0.05,-0.05297 0.1001,-0.105933 0.15015,-0.158894 0.05,-0.05296 0.1001,-0.105921 0.15015,-0.158876 0.05,-0.05296 0.1001,-0.105908 0.15015,-0.158858 0.05,-0.05295 0.1001,-0.105895 0.15015,-0.158838 0.05,-0.05294 0.1001,-0.105884 0.15015,-0.158821 0.0501,-0.05294 0.1001,-0.105871 0.15015,-0.158802 0.05,-0.05293 0.1001,-0.105858 0.15015,-0.158783 0.05,-0.05293 0.1001,-0.105847 0.15015,-0.158765 0.05,-0.05292 0.1001,-0.105835 0.15015,-0.158747 0.05,-0.05291 0.1001,-0.105822 0.15015,-0.158729 0.05,-0.05291 0.1001,-0.10581 0.15015,-0.15871 0.05,-0.0529 0.1001,-0.105798 0.15015,-0.158693 0.05,-0.05289 0.1001,-0.105786 0.15015,-0.158674 0.0501,-0.05289 0.1001,-0.105774 0.15015,-0.158657 0.05,-0.05288 0.1001,-0.105762 0.15016,-0.158638 0.05,-0.05288 0.1001,-0.105751 0.15015,-0.158621 0.05,-0.05287 0.1001,-0.105738 0.15015,-0.158603 0.05,-0.05287 0.1001,-0.105727 0.15015,-0.158585 0.05,-0.05286 0.1001,-0.105715 0.15015,-0.158568 0.05,-0.05285 0.1001,-0.105703 0.15015,-0.15855 0.05,-0.05285 0.1001,-0.105691 0.15015,-0.158532 0.05,-0.05284 0.1001,-0.10568 0.15015,-0.158515 0.05,-0.05284 0.1001,-0.105668 0.15015,-0.158498 0.05,-0.05283 0.1001,-0.105656 0.15015,-0.15848 0.05,-0.05282 0.1001,-0.105644 0.15015,-0.158462 0.05,-0.05282 0.1001,-0.105633 0.15015,-0.158446 0.05,-0.05281 0.1001,-0.105621 0.15015,-0.158428 0.05,-0.05281 0.1001,-0.10561 0.15015,-0.158411 0.05,-0.0528 0.1001,-0.105599 0.15015,-0.158394 0.05,-0.0528 0.1001,-0.105587 0.15015,-0.158377 0.05,-0.05279 0.1001,-0.105576 0.15015,-0.15836 0.05,-0.05278 0.1001,-0.105564 0.15015,-0.158342 0.05,-0.05278 0.1001,-0.105554 0.15015,-0.158326 0.05,-0.05277 0.1001,-0.105543 0.15015,-0.15831 0.05,-0.05277 0.1001,-0.105531 0.15015,-0.158292 0.05,-0.05276 0.1001,-0.10552 0.15015,-0.158276 0.05,-0.05276 0.1001,-0.105508 0.15015,-0.158259 0.05,-0.05275 0.1001,-0.105497 0.15015,-0.158242 0.05,-0.05275 0.1001,-0.105486 0.15015,-0.158226 0.05,-0.05274 0.1001,-0.105475 0.15015,-0.158209 0.05,-0.05273 0.1001,-0.105464 0.15015,-0.158193 0.05,-0.05273 0.1001,-0.105453 0.15015,-0.158176 0.05,-0.05272 0.1001,-0.105443 0.15015,-0.15816 0.05,-0.05272 0.1001,-0.105432 0.15015,-0.158143 0.05,-0.05271 0.1001,-0.105421 0.15015,-0.158128 0.05,-0.05271 0.1001,-0.10541 0.15015,-0.158111 0.05,-0.0527 0.1001,-0.105399 0.15015,-0.158095 0.05,-0.05269 0.1001,-0.105388 0.15015,-0.158079 0.05,-0.05269 0.1001,-0.105378 0.15015,-0.158062 0.05,-0.05269 0.1001,-0.105368 0.15015,-0.158047 0.05,-0.05268 0.1001,-0.105357 0.15015,-0.158031 0.05,-0.05267 0.1001,-0.105346 0.15015,-0.158015 0.05,-0.05267 0.1001,-0.105335 0.15015,-0.157999 0.05,-0.05266 0.1001,-0.105325 0.15015,-0.157983 0.0501,-0.05266 0.1001,-0.105314 0.15015,-0.157967 0.05,-0.05265 0.1001,-0.105304 0.15015,-0.157952 0.05,-0.05265 0.1001,-0.105293 0.15015,-0.157936 0.05,-0.05264 0.1001,-0.105283 0.15015,-0.157921 0.05,-0.05264 0.1001,-0.105272 0.15015,-0.157904 0.05,-0.05263 0.1001,-0.105263 0.15015,-0.15789 0.05,-0.05263 0.1001,-0.105251 0.15015,-0.157874 0.05,-0.05262 0.1001,-0.105241 0.15015,-0.157858 0.0501,-0.05262 0.1001,-0.105231 0.15015,-0.157843 0.05,-0.05261 0.1001,-0.105221 0.15015,-0.157828 0.05,-0.05261 0.1001,-0.10521 0.15015,-0.157812 0.05,-0.0526 0.1001,-0.105201 0.15015,-0.157797 0.05,-0.0526 0.1001,-0.10519 0.15015,-0.157782 0.05,-0.05259 0.1001,-0.10518 0.15015,-0.157767 0.05,-0.05259 0.1001,-0.10517 0.15015,-0.157751 0.05,-0.05258 0.1001,-0.105161 0.15015,-0.157737 0.0501,-0.05258 0.1001,-0.10515 0.15015,-0.157722 0.05,-0.05257 0.1001,-0.10514 0.15015,-0.157706 0.05,-0.05257 0.1001,-0.10513 0.15015,-0.157692 0.05,-0.05256 0.1001,-0.10512 0.15015,-0.157677 0.05,-0.05256 0.1001,-0.10511 0.15015,-0.157662 0.05,-0.05255 0.1001,-0.1051 0.15015,-0.157647 0.05,-0.05255 0.1001,-0.105091 0.15015,-0.157632 0.05,-0.05254 0.1001,-0.105081 0.15015,-0.157618 0.0501,-0.05254 0.1001,-0.105071 0.15015,-0.157603 0.05,-0.05253 0.1001,-0.105062 0.15015,-0.157589 0.05,-0.05253 0.1001,-0.105051 0.15015,-0.157574 0.05,-0.05252 0.10011,-0.105042 0.15016,-0.157559 0.05,-0.05252 0.1001,-0.105032 0.15015,-0.157545 0.05,-0.05251 0.1001,-0.105023 0.15015,-0.15753 0.05,-0.05251 0.1001,-0.105014 0.15015,-0.157517 0.05,-0.0525 0.1001,-0.105003 0.15015,-0.157501 0.05,-0.0525 0.1001,-0.104994 0.15015,-0.157488 0.05,-0.05249 0.1001,-0.104984 0.15015,-0.157473 0.05,-0.05249 0.1001,-0.104975 0.15015,-0.157459 0.05,-0.05248 0.1001,-0.104965 0.15015,-0.157445 0.05,-0.05248 0.1001,-0.104956 0.15015,-0.15743 0.05,-0.05248 0.1001,-0.104947 0.15015,-0.157417 0.05,-0.05247 0.1001,-0.104937 0.15015,-0.157402 0.05,-0.05247 0.1001,-0.104928 0.15015,-0.157389 0.05,-0.05246 0.1001,-0.104919 0.15015,-0.157374 0.05,-0.05246 0.1001,-0.10491 0.15015,-0.157361 0.05,-0.05245 0.1001,-0.1049 0.15015,-0.157347 0.05,-0.05245 0.1001,-0.104891 0.15015,-0.157333 0.05,-0.05244 0.1001,-0.104881 0.15015,-0.157319 0.05,-0.05244 0.1001,-0.104872 0.15015,-0.157305 0.05,-0.05243 0.1001,-0.104863 0.15015,-0.157292 0.05,-0.05243 0.1001,-0.104854 0.15015,-0.157277 0.05,-0.05242 0.1001,-0.104846 0.15015,-0.157265 0.05,-0.05242 0.1001,-0.104836 0.15015,-0.15725 0.05,-0.05241 0.1001,-0.104827 0.15015,-0.157237 0.05,-0.05241 0.1001,-0.104818 0.15015,-0.157224 0.05,-0.05241 0.1001,-0.104809 0.15015,-0.15721 0.05,-0.0524 0.1001,-0.1048 0.15015,-0.157197 0.05,-0.0524 0.1001,-0.104791 0.15015,-0.157183 0.05,-0.05239 0.1001,-0.104782 0.15015,-0.15717 0.05,-0.05239 0.1001,-0.104773 0.15015,-0.157156 0.05,-0.05238 0.1001,-0.104765 0.15015,-0.157143 0.05,-0.05238 0.1001,-0.104756 0.15015,-0.15713 0.05,-0.05238 0.1001,-0.104747 0.15015,-0.157117 0.05,-0.05237 0.1001,-0.104738 0.15015,-0.157104 0.05,-0.05237 0.1001,-0.104729 0.15015,-0.15709 0.05,-0.05236 0.1001,-0.104721 0.15015,-0.157078 0.05,-0.05236 0.1001,-0.104711 0.15015,-0.157064 0.05,-0.05235 0.1001,-0.104703 0.15015,-0.157051 0.0501,-0.05235 0.1001,-0.104695 0.15015,-0.157039 0.05,-0.05234 0.1001,-0.104685 0.15015,-0.157025 0.05,-0.05234 0.1001,-0.104677 0.15015,-0.157012 0.05,-0.05234 0.1001,-0.104669 0.15015,-0.157 0.05,-0.05233 0.1001,-0.10466 0.15015,-0.156987 0.05,-0.05233 0.1001,-0.104651 0.15015,-0.156974 0.05,-0.05232 0.1001,-0.104643 0.15015,-0.156961 0.05,-0.05232 0.1001,-0.104634 0.15015,-0.156948 0.0501,-0.05231 0.1001,-0.104626 0.15015,-0.156936 0.05,-0.05231 0.1001,-0.104618 0.15015,-0.156923 0.05,-0.05231 0.1001,-0.104609 0.15015,-0.156911 0.05,-0.0523 0.1001,-0.104601 0.15015,-0.156898 0.05,-0.0523 0.1001,-0.104592 0.15015,-0.156885 0.05,-0.05229 0.1001,-0.104584 0.15015,-0.156873 0.05,-0.05229 0.1001,-0.104576 0.15015,-0.15686 0.05,-0.05228 0.1001,-0.104568 0.15015,-0.156848 0.0501,-0.05228 0.1001,-0.104559 0.15015,-0.156836 0.05,-0.05228 0.1001,-0.104551 0.15015,-0.156823 0.05,-0.05227 0.1001,-0.104543 0.15015,-0.156811 0.05,-0.05227 0.1001,-0.104534 0.15015,-0.156799 0.05,-0.05226 0.1001,-0.104526 0.15015,-0.156786 0.05,-0.05226 0.1001,-0.104518 0.15015,-0.156774 0.05,-0.05226 0.1001,-0.10451 0.15015,-0.156762 0.05,-0.05225 0.1001,-0.104502 0.15015,-0.15675 0.0501,-0.05225 0.1001,-0.104493 0.15015,-0.156737 0.05,-0.05224 0.1001,-0.104486 0.15015,-0.156726 0.05,-0.05224 0.1001,-0.104477 0.15015,-0.156713 0.05,-0.05224 0.1001,-0.10447 0.15015,-0.156702 0.05,-0.05223 0.1001,-0.104461 0.15015,-0.156689 0.05,-0.05223 0.10011,-0.104454 0.15016,-0.156678 0.05,-0.05222 0.1001,-0.104445 0.15015,-0.156665 0.05,-0.05222 0.1001,-0.104438 0.15015,-0.156654 0.05,-0.05222 0.1001,-0.10443 0.15015,-0.156642 0.05,-0.05221 0.1001,-0.104422 0.15015,-0.15663 0.05,-0.05221 0.1001,-0.104414 0.15015,-0.156618 0.05,-0.0522 0.1001,-0.104406 0.15015,-0.156606 0.05,-0.0522 0.1001,-0.104399 0.15015,-0.156595 0.05,-0.0522 0.1001,-0.104391 0.15015,-0.156583 0.05,-0.05219 0.1001,-0.104383 0.15015,-0.156571 0.05,-0.05219 0.1001,-0.104376 0.15015,-0.15656 0.05,-0.05218 0.1001,-0.104368 0.15015,-0.156548 0.05,-0.05218 0.1001,-0.10436 0.15015,-0.156537 0.05,-0.05218 0.1001,-0.104352 0.15015,-0.156525 0.05,-0.05217 0.1001,-0.104344 0.15015,-0.156514 0.05,-0.05217 0.1001,-0.104336 0.15015,-0.156502 0.05,-0.05217 0.1001,-0.104329 0.15015,-0.15649 0.05,-0.05216 0.1001,-0.104322 0.15015,-0.15648 0.05,-0.05216 0.1001,-0.104313 0.15015,-0.156468 0.05,-0.05215 0.1001,-0.104306 0.15015,-0.156456 0.05,-0.05215 0.1001,-0.104299 0.15015,-0.156445 0.05,-0.05215 0.1001,-0.104291 0.15015,-0.156434 0.05,-0.05214 0.1001,-0.104284 0.15015,-0.156423 0.05,-0.05214 0.1001,-0.104276 0.15015,-0.156411 0.05,-0.05214 0.1001,-0.104269 0.15015,-0.156401 0.05,-0.05213 0.1001,-0.104261 0.15015,-0.156389 0.05,-0.05213 0.1001,-0.104254 0.15015,-0.156378 0.05,-0.05212 0.1001,-0.104246 0.15015,-0.156367 0.05,-0.05212 0.1001,-0.104239 0.15015,-0.156356 0.05,-0.05212 0.1001,-0.104232 0.15015,-0.156345 0.05,-0.05211 0.1001,-0.104224 0.15015,-0.156334 0.05,-0.05211 0.1001,-0.104217 0.15015,-0.156322 0.05,-0.05211 0.1001,-0.10421 0.15015,-0.156312 0.05,-0.0521 0.1001,-0.104203 0.15015,-0.156301 0.05,-0.0521 0.1001,-0.104196 0.15015,-0.15629 0.05,-0.0521 0.1001,-0.104188 0.15015,-0.15628 0.05,-0.05209 0.1001,-0.10418 0.15015,-0.156268 0.05,-0.05209 0.1001,-0.104174 0.15015,-0.156258 0.05,-0.05208 0.1001,-0.104166 0.15015,-0.156247 0.05,-0.05208 0.1001,-0.104159 0.15015,-0.156236 0.05,-0.05208 0.1001,-0.104152 0.15015,-0.156225 0.05,-0.05207 0.1001,-0.104145 0.15015,-0.156215 0.05,-0.05207 0.1001,-0.104138 0.15015,-0.156204 0.05,-0.05207 0.1001,-0.104131 0.15015,-0.156193 0.0501,-0.05206 0.1001,-0.104124 0.15015,-0.156183 0.05,-0.05206 0.1001,-0.104117 0.15015,-0.156173 0.05,-0.05206 0.1001,-0.104109 0.15015,-0.156161 0.05,-0.05205 0.1001,-0.104103 0.15015,-0.156152 0.05,-0.05205 0.1001,-0.104095 0.15015,-0.15614 0.05,-0.05205 0.1001,-0.104089 0.15015,-0.156131 0.05,-0.05204 0.1001,-0.104081 0.15015,-0.156119 0.05,-0.05204 0.1001,-0.104075 0.15015,-0.15611 0.0501,-0.05204 0.1001,-0.104068 0.15015,-0.156099 0.05,-0.05203 0.1001,-0.104061 0.15015,-0.156089 0.05,-0.05203 0.1001,-0.104054 0.15015,-0.156078 0.05,-0.05202 0.1001,-0.104047 0.15015,-0.156068 0.05,-0.05202 0.1001,-0.104041 0.15015,-0.156058 0.05,-0.05202 0.1001,-0.104034 0.15015,-0.156048 0.05,-0.05201 0.1001,-0.104027 0.15015,-0.156037 0.05,-0.05201 0.1001,-0.10402 0.15015,-0.156028 0.0501,-0.05201 0.1001,-0.104013 0.15015,-0.156017 0.05,-0.052 0.1001,-0.104006 0.15015,-0.156007 0.05,-0.052 0.1001,-0.103999 0.15015,-0.155997 0.05,-0.052 0.1001,-0.103992 0.15015,-0.155986 0.05,-0.05199 0.1001,-0.103987 0.15015,-0.155977 0.05,-0.05199 0.1001,-0.10398 0.15015,-0.155967 0.05,-0.05199 0.1001,-0.103973 0.15016,-0.155957 0.05,-0.05198 0.1001,-0.103966 0.15015,-0.155946 0.05,-0.05198 0.1001,-0.10396 0.15015,-0.155937 0.05,-0.05198 0.1001,-0.103953 0.15015,-0.155927 0.05,-0.05197 0.1001,-0.103946 0.15015,-0.155917 0.05,-0.05197 0.1001,-0.10394 0.15015,-0.155907 0.05,-0.05197 0.1001,-0.103934 0.15015,-0.155898 0.05,-0.05196 0.1001,-0.103926 0.15015,-0.155887 0.05,-0.05196 0.1001,-0.10392 0.15015,-0.155878 0.05,-0.05196 0.1001,-0.103914 0.15015,-0.155868 0.05,-0.05195 0.1001,-0.103907 0.15015,-0.155858 0.05,-0.05195 0.1001,-0.103901 0.15015,-0.155849 0.05,-0.05195 0.1001,-0.103894 0.15015,-0.155838 0.05,-0.05194 0.1001,-0.103888 0.15015,-0.15583 0.05,-0.05194 0.1001,-0.103881 0.15015,-0.155819 0.05,-0.05194 0.1001,-0.103875 0.15015,-0.15581 0.05,-0.05194 0.1001,-0.103869 0.15015,-0.1558 0.05,-0.05193 0.1001,-0.103862 0.15015,-0.155791 0.05,-0.05193 0.1001,-0.103856 0.15015,-0.155781 0.05,-0.05193 0.1001,-0.10385 0.15015,-0.155772 0.05,-0.05192 0.1001,-0.103843 0.15015,-0.155762 0.05,-0.05192 0.1001,-0.103837 0.15015,-0.155753 0.05,-0.05192 0.1001,-0.103831 0.15015,-0.155743 0.05,-0.05191 0.1001,-0.103825 0.15015,-0.155734 0.05,-0.05191 0.1001,-0.103818 0.15015,-0.155725 0.05,-0.05191 0.1001,-0.103812 0.15015,-0.155715 0.05,-0.0519 0.1001,-0.103806 0.15015,-0.155706 0.05,-0.0519 0.1001,-0.103799 0.15015,-0.155696 0.05,-0.0519 0.1001,-0.103793 0.15015,-0.155688 0.05,-0.05189 0.1001,-0.103786 0.15015,-0.155678 0.05,-0.05189 0.1001,-0.10378 0.15015,-0.155668 0.05,-0.05189 0.1001,-0.103775 0.15015,-0.15566 0.05,-0.05189 0.1001,-0.103768 0.15015,-0.15565 0.05,-0.05188 0.1001,-0.103762 0.15015,-0.155641 0.05,-0.05188 0.1001,-0.103756 0.15015,-0.155632 0.05,-0.05188 0.1001,-0.10375 0.15015,-0.155623 0.05,-0.05187 0.1001,-0.103744 0.15015,-0.155614 0.05,-0.05187 0.1001,-0.103737 0.15015,-0.155604 0.05,-0.05187 0.1001,-0.103732 0.15015,-0.155596 0.05,-0.05186 0.1001,-0.103726 0.15015,-0.155586 0.05,-0.05186 0.1001,-0.10372 0.15015,-0.155578 0.05,-0.05186 0.1001,-0.103714 0.15015,-0.155568 0.05,-0.05185 0.1001,-0.103708 0.15015,-0.15556 0.0501,-0.05185 0.1001,-0.103702 0.15015,-0.15555 0.05,-0.05185 0.1001,-0.103696 0.15015,-0.155542 0.05,-0.05185 0.1001,-0.10369 0.15015,-0.155533 0.05,-0.05184 0.1001,-0.103684 0.15015,-0.155524 0.05,-0.05184 0.1001,-0.103678 0.15015,-0.155515 0.05,-0.05184 0.1001,-0.103672 0.15015,-0.155506 0.05,-0.05183 0.1001,-0.103666 0.15015,-0.155497 0.05,-0.05183 0.1001,-0.103661 0.15015,-0.155489 0.0501,-0.05183 0.1001,-0.103655 0.15015,-0.15548 0.05,-0.05182 0.1001,-0.103649 0.15015,-0.155471 0.05,-0.05182 0.1001,-0.103643 0.15015,-0.155462 0.05,-0.05182 0.1001,-0.103638 0.15015,-0.155454 0.05,-0.05182 0.1001,-0.103631 0.15015,-0.155445 0.05,-0.05181 0.1001,-0.103626 0.15015,-0.155436 0.05,-0.05181 0.1001,-0.10362 0.15015,-0.155428 0.05,-0.05181 0.1001,-0.103614 0.15015,-0.155419 0.0501,-0.0518 0.1001,-0.103609 0.15015,-0.155411 0.05,-0.0518 0.1001,-0.103602 0.15015,-0.155401 0.05,-0.0518 0.1001,-0.103597 0.15015,-0.155394 0.05,-0.0518 0.1001,-0.103591 0.15015,-0.155385 0.05,-0.05179 0.1001,-0.103585 0.15015,-0.155376 0.05,-0.05179 0.1001,-0.10358 0.15015,-0.155368 0.05,-0.05179 0.1001,-0.103574 0.15015,-0.155359 0.05,-0.05179 0.1001,-0.103569 0.15015,-0.155351 0.0501,-0.05178 0.10011,-0.103563 0.15016,-0.155343 0.05,-0.05178 0.1001,-0.103557 0.15015,-0.155334 0.05,-0.05178 0.1001,-0.103551 0.15015,-0.155325 0.05,-0.05177 0.1001,-0.103547 0.15015,-0.155318 0.05,-0.05177 0.1001,-0.1035397 0.15014,-0.1553087 0.05,-0.05177 0.1001,-0.103535 0.15015,-0.1553 0.05,-0.05177 0.1001,-0.10353 0.15015,-0.155293 0.05,-0.05176 0.10011,-0.1035237 0.15016,-0.1552837 0.05,-0.05176 0.1001,-0.103518 0.15015,-0.155276 0.05,-0.05176 0.1001,-0.103513 0.15015,-0.155267 0.05,-0.05175 0.1001,-0.103508 0.15015,-0.1552596 0.05,-0.051752 0.1001,-0.1035022 0.15015,-0.1552512 0.05,-0.051749 0.1001,-0.1034967 0.15015,-0.155243 0.05,-0.051746 0.1001,-0.1034912 0.15015,-0.1552348 0.05,-0.051744 0.1001,-0.1034858 0.15015,-0.1552267 0.05,-0.051741 0.1001,-0.1034804 0.15015,-0.1552186 0.05,-0.051738 0.1001,-0.103475 0.15015,-0.1552104 0.05,-0.051735 0.1001,-0.1034696 0.15015,-0.1552024 0.05,-0.051733 0.1001,-0.1034642 0.15015,-0.1551943 0.05,-0.05173 0.1001,-0.1034589 0.15015,-0.1551863 0.05,-0.051727 0.1001,-0.1034535 0.15015,-0.1551783 0.05,-0.051725 0.1001,-0.1034481 0.15015,-0.1551702 0.05,-0.051722 0.1001,-0.1034429 0.15015,-0.1551623 0.05,-0.051719 0.1001,-0.1034375 0.15015,-0.1551543 0.05,-0.051717 0.1001,-0.1034322 0.15015,-0.1551464 0.05,-0.051714 0.1001,-0.1034269 0.15015,-0.1551383 0.05,-0.05171 0.1001,-0.103422 0.15015,-0.155131 0.05,-0.05171 0.1001,-0.103416 0.15015,-0.155122 0.05,-0.05171 0.1001,-0.103411 0.15015,-0.155115 0.05,-0.0517 0.1001,-0.103406 0.15015,-0.155107 0.05,-0.0517 0.1001,-0.103401 0.15015,-0.155099 0.05,-0.0517 0.1001,-0.103396 0.15015,-0.155091 0.05,-0.0517 0.1001,-0.103391 0.15015,-0.155084 0.05,-0.05169 0.1001,-0.103385 0.15015,-0.155076 0.05,-0.05169 0.1001,-0.10338 0.15015,-0.155068 0.05,-0.05169 0.1001,-0.103374 0.15015,-0.15506 0.05,-0.05169 0.1001,-0.103369 0.15015,-0.155052"
       style="opacity:1;fill:none;fill-opacity:1;fill-rule:nonzero;stroke:#000000;stroke-width:0.5;stroke-linecap:butt;stroke-linejoin:bevel;stroke-miterlimit:4;stroke-dasharray:none;stroke-dashoffset:0;stroke-opacity:1;paint-order:stroke fill markers"
       inkscape:connector-curvature="0" />
    <path
       style="fill:none;stroke:#000000;stroke-width:0.26458332px;stroke-linecap:butt;stroke-linejoin:miter;stroke-opacity:1"
       d="M 34.395829,191.16663 C 130.96874,115.76041 130.96874,115.76041 130.96874,115.76041"
       id="path1027"
       inkscape:connector-curvature="0" />
    <path
       style="opacity:1;fill:#000000;fill-opacity:1;fill-rule:nonzero;stroke:#000000;stroke-width:0.5;stroke-linecap:butt;stroke-linejoin:bevel;stroke-miterlimit:4;stroke-dasharray:none;stroke-dashoffset:0;stroke-opacity:1;paint-order:stroke fill markers"
       id="path1029"
       sodipodi:type="arc"
       sodipodi:cx="84.893005"
       sodipodi:cy="191.15491"
       sodipodi:rx="0.82817024"
       sodipodi:ry="0.82817024"
       sodipodi:start="4.8161314"
       sodipodi:end="4.8159612"
       sodipodi:open="true"
       d="m 84.978768,190.33119 a 0.82817024,0.82817024 0 0 1 0.737959,0.90944 0.82817024,0.82817024 0 0 1 -0.909414,0.738 0.82817024,0.82817024 0 0 1 -0.738036,-0.90938 0.82817024,0.82817024 0 0 1 0.909351,-0.73808" />
    <path
       style="opacity:1;fill:#000000;fill-opacity:1;fill-rule:nonzero;stroke:#000000;stroke-width:0.5;stroke-linecap:butt;stroke-linejoin:bevel;stroke-miterlimit:4;stroke-dasharray:none;stroke-dashoffset:0;stroke-opacity:1;paint-order:stroke fill markers"
       id="path1029-9"
       sodipodi:type="arc"
       sodipodi:cx="130.74673"
       sodipodi:cy="115.92973"
       sodipodi:rx="0.8281703"
       sodipodi:ry="0.8281703"
       sodipodi:start="4.8161314"
       sodipodi:end="4.8159612"
       sodipodi:open="true"
       d="m 130.8325,115.10602 a 0.8281703,0.8281703 0 0 1 0.73796,0.90944 0.8281703,0.8281703 0 0 1 -0.90942,0.738 0.8281703,0.8281703 0 0 1 -0.73803,-0.90938 0.8281703,0.8281703 0 0 1 0.90935,-0.73808" />
    <path
       style="fill:none;stroke:#000000;stroke-width:0.4;stroke-linecap:butt;stroke-linejoin:miter;stroke-opacity:1;stroke-miterlimit:4;stroke-dasharray:1.2,0.4;stroke-dashoffset:0"
       d="m 130.77977,115.7604 c 0,83.19675 0,74.87709 0,74.87709"
       id="path1046"
       inkscape:connector-curvature="0" />
    <path
       style="fill:none;stroke:#000000;stroke-width:0.4;stroke-linecap:butt;stroke-linejoin:miter;stroke-opacity:1;stroke-miterlimit:4;stroke-dasharray:1.2,0.4;stroke-dashoffset:0"
       d="m 130.26722,115.91061 c -106.229754,0 -95.606803,0 -95.606803,0"
       id="path1046-7"
       inkscape:connector-curvature="0" />
    <path
       style="opacity:1;fill:#e6e6e6;fill-opacity:1;fill-rule:nonzero;stroke:#000000;stroke-width:1.88976383;stroke-linecap:butt;stroke-linejoin:bevel;stroke-miterlimit:4;stroke-dasharray:none;stroke-dashoffset:0;stroke-opacity:1;paint-order:stroke fill markers"
       d="m 133.0157,721.04032 c 1.65155,-1.51951 352.58022,-275.2592 352.71012,-275.1293 0.0866,0.0866 -3.3613,4.33937 -7.66202,9.45058 -86.70438,103.04433 -133.09688,174.92963 -150.61513,233.37853 -2.08593,6.95963 -4.88553,18.37837 -6.00785,24.50427 -0.4795,2.61725 -0.92686,4.79166 -0.99413,4.83202 -0.0673,0.0404 -0.70646,0.33843 -1.42042,0.66237 -0.7884,0.35773 -1.48873,1.01966 -1.78361,1.68584 l -0.48551,1.09684 h -92.1322 c -77.27232,0 -92.04786,-0.0776 -91.60925,-0.48115 z"
       id="path1065"
       inkscape:connector-curvature="0"
       transform="scale(0.26458333)" />
    <path
       style="opacity:1;fill:#e6e6e6;fill-opacity:1;fill-rule:nonzero;stroke:#000000;stroke-width:1.88976383;stroke-linecap:butt;stroke-linejoin:bevel;stroke-miterlimit:4;stroke-dasharray:none;stroke-dashoffset:0;stroke-opacity:1;paint-order:stroke fill markers"
       d="m 486.50965,445.54712 c -0.0119,-0.0286 -0.0411,-0.1106 -0.0649,-0.18222 l -0.0433,-0.13022 h -0.0559 c -0.0388,0 -0.0844,-0.019 -0.14867,-0.0619 l -0.0928,-0.0619 1.21636,-0.94984 c 0.66899,-0.52242 1.21916,-0.94704 1.22259,-0.94361 0.005,0.005 -0.42108,0.51045 -1.79311,2.1246 l -0.21862,0.2572 z"
       id="path1067"
       inkscape:connector-curvature="0"
       transform="scale(0.26458333)" />
    <g
       title="{\small$1$}"
       style="fill:#000000"
       id="equation_03"
       transform="translate(5.7408887,140.27533)">
      <defs
         id="defs1109">
        <path
           d="m 2.725778,-5.729514 c 0,-0.22416 -0.00897,-0.242092 -0.233125,-0.242092 -0.555916,0.573848 -1.380822,0.573848 -1.65878,0.573848 v 0.277957 c 0.170361,0 0.71731,0 1.201494,-0.233126 v 4.635617 c 0,0.331756 -0.026899,0.439352 -0.860772,0.439352 H 0.887671 V 0 c 0.32279,-0.026899 1.120797,-0.026899 1.488419,-0.026899 0.367622,0 1.174595,0 1.497384,0.026899 V -0.277958 H 3.58655 c -0.833873,0 -0.860772,-0.107596 -0.860772,-0.439352 z"
           id="equation_03_00"
           inkscape:connector-curvature="0" />
      </defs>
      <g
         id="equation_03_g">
        <use
           id="use1111"
           xlink:href="#equation_03_00"
           y="62.764633"
           x="76.712326"
           width="100%"
           height="100%" />
      </g>
    </g>
    <g
       title="{\small$P$}"
       style="fill:#000000"
       id="equation_04"
       transform="translate(50.146057,48.461267)">
      <defs
         id="defs1168">
        <path
           d="m 2.77061,-2.815442 h 1.497385 c 1.452553,0 2.636115,-0.995268 2.636115,-1.945704 0,-0.708343 -0.636613,-1.362889 -1.811208,-1.362889 H 2.133998 c -0.161395,0 -0.268992,0 -0.268992,0.161395 0,0.116563 0.080698,0.116563 0.268992,0.116563 0.035865,0 0.19726,0 0.340722,0.017933 0.152428,0.017932 0.215193,0.035865 0.215193,0.134495 0,0.044832 -0.00897,0.080698 -0.035866,0.179328 l -1.21046,4.832876 c -0.080698,0.32279 -0.098631,0.403487 -0.771109,0.403487 -0.170361,0 -0.268991,0 -0.268991,0.161395 C 0.403487,-0.017933 0.475218,0 0.537983,0 c 0.170361,0 0.39452,-0.008966 0.564881,-0.017933 0.268992,-0.008966 0.286924,-0.008966 0.573848,-0.008966 0.286924,0 0.304857,0 0.573848,0.008966 C 2.429888,-0.008966 2.663014,0 2.833375,0 c 0.062764,0 0.179327,0 0.179327,-0.161395 0,-0.116563 -0.089663,-0.116563 -0.277957,-0.116563 -0.035866,0 -0.197261,0 -0.340723,-0.017932 -0.19726,-0.0269 -0.206226,-0.062765 -0.206226,-0.143462 0,-0.0269 0,-0.044832 0.044832,-0.206227 z m 0.645579,-2.680947 c 0.080698,-0.322789 0.09863,-0.349688 0.475218,-0.349688 h 0.905604 c 0.699378,0 1.255293,0.215193 1.255293,0.869738 0,0.188294 -0.09863,1.031134 -0.564882,1.46152 -0.19726,0.179327 -0.609713,0.448318 -1.380822,0.448318 H 2.806476 Z"
           id="equation_04_00"
           inkscape:connector-curvature="0" />
      </defs>
      <g
         id="equation_04_g">
        <use
           id="use1170"
           xlink:href="#equation_04_00"
           y="62.764633"
           x="76.712326"
           width="100%"
           height="100%" />
      </g>
    </g>
    <g
       title="{\small$A$}"
       style="fill:#000000"
       id="equation_05"
       transform="translate(-1.4881177,124.44622)">
      <defs
         id="defs1232">
        <path
           d="M 1.63188,-1.049066 C 1.192528,-0.331756 0.798007,-0.304857 0.439352,-0.277958 0.376588,-0.268991 0.331756,-0.19726 0.331756,-0.116563 0.331756,-0.062765 0.367621,0 0.457285,0 0.627646,0 1.049066,-0.026899 1.219427,-0.026899 1.416687,-0.026899 1.900872,0 2.098132,0 2.15193,0 2.268493,0 2.268493,-0.161395 c 0,-0.107596 -0.107596,-0.116563 -0.134495,-0.116563 -0.080698,-0.008966 -0.42142,-0.026899 -0.42142,-0.29589 0,-0.125529 0.09863,-0.29589 0.125529,-0.340722 l 0.708344,-1.156663 h 2.340224 c 0.026899,0.206227 0.053798,0.511084 0.080697,0.735243 0.035866,0.349689 0.089664,0.744209 0.089664,0.771108 0,0.134496 -0.125529,0.286924 -0.645579,0.286924 -0.089664,0 -0.206227,0 -0.206227,0.161395 C 4.20523,-0.017933 4.276961,0 4.339726,0 4.510087,0 4.72528,-0.017933 4.904608,-0.017933 c 0.179328,0 0.39452,-0.008966 0.537982,-0.008966 0.295891,0 0.313823,0 0.529016,0.008966 C 6.115068,-0.008966 6.321295,0 6.464757,0 c 0.053798,0 0.170361,0 0.170361,-0.161395 0,-0.116563 -0.09863,-0.116563 -0.206226,-0.116563 -0.537983,0 -0.546949,-0.062764 -0.573848,-0.322789 L 5.227397,-6.177833 C 5.209465,-6.375093 5.200498,-6.419925 5.04807,-6.419925 c -0.12553,0 -0.179328,0.062764 -0.251059,0.179327 z m 1.084932,-1.300125 1.811208,-2.958904 0.331756,2.958904 z"
           id="equation_05_00"
           inkscape:connector-curvature="0" />
      </defs>
      <g
         id="equation_05_g">
        <use
           id="use1234"
           xlink:href="#equation_05_00"
           y="62.764633"
           x="76.712326"
           width="100%"
           height="100%" />
      </g>
    </g>
    <g
       title="{\small$\cosh t$}"
       style="fill:#000000"
       id="equation_06"
       transform="translate(43.302903,139.65711)">
      <defs
         id="defs1305">
        <path
           d="m 3.263761,-3.523786 c -0.188294,0.035866 -0.367622,0.161395 -0.367622,0.42142 0,0.233126 0.179328,0.412453 0.412454,0.412453 0.233126,0 0.421419,-0.152428 0.421419,-0.430386 0,-0.555915 -0.627646,-0.896637 -1.416687,-0.896637 -1.147696,0 -2.008468,0.959402 -2.008468,2.080199 0,1.156662 0.932503,2.035367 1.990535,2.035367 1.246327,0 1.533251,-1.084931 1.533251,-1.165629 0,-0.107596 -0.098631,-0.107596 -0.12553,-0.107596 -0.09863,0 -0.09863,0.017932 -0.152428,0.170361 -0.206227,0.61868 -0.708344,0.851806 -1.165629,0.851806 -0.573848,0 -1.309091,-0.466252 -1.309091,-1.793276 0,-1.398754 0.71731,-1.820174 1.255293,-1.820174 0.116563,0 0.600747,0.017933 0.932503,0.242092 z"
           id="equation_06_00"
           inkscape:connector-curvature="0" />
        <path
           d="m 1.640847,-6.222665 -1.327024,0.09863 v 0.277958 c 0.609714,0 0.690411,0.062764 0.690411,0.502117 v 4.653549 c 0,0.412453 -0.09863,0.412453 -0.690411,0.412453 V 0 c 0.42142,-0.017933 0.591781,-0.026899 1.022167,-0.026899 0.430386,0 0.546949,0.008966 1.022167,0.026899 v -0.277958 c -0.591781,0 -0.690411,0 -0.690411,-0.412453 v -1.63188 c 0,-0.950436 0.672478,-1.416688 1.23736,-1.416688 0.529016,0 0.645579,0.439353 0.645579,0.977335 v 2.071233 c 0,0.412453 -0.09863,0.412453 -0.690411,0.412453 V 0 c 0.42142,-0.017933 0.591781,-0.026899 1.022167,-0.026899 0.430386,0 0.546949,0.008966 1.022167,0.026899 v -0.277958 c -0.457285,0 -0.681445,0 -0.690411,-0.277957 V -2.27746 c 0,-0.744209 0,-1.004234 -0.251059,-1.318057 -0.206226,-0.251058 -0.546949,-0.367621 -0.995268,-0.367621 -0.600747,0 -1.040099,0.313823 -1.318057,0.81594 h -0.00897 z"
           id="equation_06_01"
           inkscape:connector-curvature="0" />
        <path
           d="m 4.339726,-1.909838 c 0,-1.174595 -0.932503,-2.107098 -2.035367,-2.107098 -1.13873,0 -2.044334,0.959402 -2.044334,2.107098 0,1.120797 0.932503,2.008468 2.035367,2.008468 1.13873,0 2.044334,-0.905604 2.044334,-2.008468 z m -2.035367,1.75741 c -0.448319,0 -0.824907,-0.22416 -1.031134,-0.573848 C 1.0401,-1.102864 1.031133,-1.578082 1.031133,-1.990535 c 0,-0.331756 0,-0.84284 0.22416,-1.210461 0.268991,-0.457285 0.71731,-0.591781 1.040099,-0.591781 0.511084,0 0.878705,0.286924 1.058033,0.591781 0.206226,0.376588 0.215193,0.833873 0.215193,1.210461 0,0.331755 0,0.851805 -0.22416,1.246326 -0.251058,0.412453 -0.663512,0.591781 -1.040099,0.591781 z"
           id="equation_06_02"
           inkscape:connector-curvature="0" />
        <path
           d="m 3.084433,-3.783811 c 0,-0.152428 0,-0.233125 -0.107596,-0.233125 -0.044832,0 -0.062765,0 -0.179328,0.107596 -0.017932,0.017933 -0.09863,0.09863 -0.152428,0.143462 -0.277958,-0.19726 -0.555915,-0.251058 -0.860772,-0.251058 -1.183562,0 -1.479452,0.654545 -1.479452,1.11183 0,0.286924 0.125529,0.52005 0.331756,0.71731 0.304856,0.277958 0.645579,0.340723 1.102864,0.42142 0.457285,0.089664 0.609714,0.116563 0.806974,0.268991 0.089664,0.071731 0.313823,0.242092 0.313823,0.582815 0,0.789041 -0.905604,0.789041 -1.031133,0.789041 -0.914571,0 -1.147696,-0.762142 -1.255293,-1.246327 -0.026899,-0.089663 -0.035865,-0.143462 -0.143462,-0.143462 -0.125529,0 -0.125529,0.071731 -0.125529,0.233126 v 1.147696 c 0,0.152429 0,0.233126 0.107596,0.233126 0.053799,0 0.062765,-0.008966 0.22416,-0.179327 0.035865,-0.053799 0.134495,-0.170362 0.179327,-0.215193 0.376588,0.367621 0.789041,0.39452 1.013201,0.39452 1.102864,0 1.488418,-0.645579 1.488418,-1.246326 0,-0.403487 -0.179327,-0.645579 -0.376588,-0.851806 C 2.636115,-2.295392 2.313325,-2.358157 1.649813,-2.483686 1.416687,-2.528518 0.762142,-2.645081 0.762142,-3.156164 c 0,-0.286924 0.206227,-0.663512 1.022167,-0.663512 0.968368,0 1.031133,0.744209 1.049066,0.968368 0.00897,0.107597 0.00897,0.161395 0.125529,0.161395 0.125529,0 0.125529,-0.062764 0.125529,-0.233126 z"
           id="equation_06_03"
           inkscape:connector-curvature="0" />
        <path
           d="m 1.909838,-3.58655 h 0.851806 c 0.161395,0 0.268991,0 0.268991,-0.161395 0,-0.116563 -0.089664,-0.116563 -0.251058,-0.116563 H 1.981569 l 0.367622,-1.488419 c 0,-0.143462 -0.116563,-0.260024 -0.277958,-0.260024 -0.286924,0 -0.358655,0.260024 -0.376588,0.349688 L 1.33599,-3.864508 H 0.493151 c -0.170361,0 -0.277958,0 -0.277958,0.161395 0,0.116563 0.09863,0.116563 0.260025,0.116563 h 0.798007 l -0.609713,2.438854 c -0.071731,0.268991 -0.071731,0.286924 -0.071731,0.412453 0,0.529016 0.403487,0.833873 0.869738,0.833873 0.932503,0 1.46152,-1.291158 1.46152,-1.380822 0,-0.044832 -0.0269,-0.107596 -0.116563,-0.107596 -0.089663,0 -0.09863,0.026899 -0.161395,0.179327 -0.277958,0.645579 -0.726277,1.084932 -1.165629,1.084932 -0.179327,0 -0.286924,-0.116563 -0.286924,-0.412454 0,-0.19726 0.026899,-0.304856 0.062765,-0.439352 z"
           id="equation_06_04"
           inkscape:connector-curvature="0" />
      </defs>
      <g
         id="equation_06_g">
        <use
           id="use1307"
           xlink:href="#equation_06_00"
           y="62.764633"
           x="76.712326"
           width="100%"
           height="100%" />
        <use
           id="use1309"
           xlink:href="#equation_06_02"
           y="62.764633"
           x="80.808052"
           width="100%"
           height="100%" />
        <use
           id="use1311"
           xlink:href="#equation_06_03"
           y="62.764633"
           x="85.415741"
           width="100%"
           height="100%" />
        <use
           id="use1313"
           xlink:href="#equation_06_01"
           y="62.764633"
           x="89.050705"
           width="100%"
           height="100%" />
        <use
           id="use1315"
           xlink:href="#equation_06_04"
           y="62.764633"
           x="95.706261"
           width="100%"
           height="100%" />
      </g>
    </g>
    <g
       title="{\small$\sinh t$}"
       style="fill:#000000"
       id="equation_07"
       transform="translate(-38.242107,48.040449)">
      <defs
         id="defs1407">
        <path
           d="m 1.640847,-6.222665 -1.327024,0.09863 v 0.277958 c 0.609714,0 0.690411,0.062764 0.690411,0.502117 v 4.653549 c 0,0.412453 -0.09863,0.412453 -0.690411,0.412453 V 0 c 0.42142,-0.017933 0.591781,-0.026899 1.022167,-0.026899 0.430386,0 0.546949,0.008966 1.022167,0.026899 v -0.277958 c -0.591781,0 -0.690411,0 -0.690411,-0.412453 v -1.63188 c 0,-0.950436 0.672478,-1.416688 1.23736,-1.416688 0.529016,0 0.645579,0.439353 0.645579,0.977335 v 2.071233 c 0,0.412453 -0.09863,0.412453 -0.690411,0.412453 V 0 c 0.42142,-0.017933 0.591781,-0.026899 1.022167,-0.026899 0.430386,0 0.546949,0.008966 1.022167,0.026899 v -0.277958 c -0.457285,0 -0.681445,0 -0.690411,-0.277957 V -2.27746 c 0,-0.744209 0,-1.004234 -0.251059,-1.318057 -0.206226,-0.251058 -0.546949,-0.367621 -0.995268,-0.367621 -0.600747,0 -1.040099,0.313823 -1.318057,0.81594 h -0.00897 z"
           id="equation_07_00"
           inkscape:connector-curvature="0" />
        <path
           d="m 1.649813,-3.963138 -1.291158,0.09863 v 0.277958 c 0.573848,0 0.654545,0.053798 0.654545,0.49315 v 2.402989 c 0,0.412453 -0.09863,0.412453 -0.69041,0.412453 V 0 c 0.403486,-0.017933 0.59178,-0.026899 0.986301,-0.026899 0.143462,0 0.52005,0 0.959402,0.026899 v -0.277958 c -0.582814,0 -0.61868,-0.044832 -0.61868,-0.39452 z m 0.026899,-1.56015 c 0,-0.268991 -0.215193,-0.484184 -0.484184,-0.484184 -0.277958,0 -0.484184,0.224159 -0.484184,0.484184 0,0.260025 0.206226,0.484185 0.484184,0.484185 0.268991,0 0.484184,-0.215193 0.484184,-0.484185 z"
           id="equation_07_01"
           inkscape:connector-curvature="0" />
        <path
           d="m 1.667746,-2.322291 c 0,-0.950436 0.672478,-1.416688 1.23736,-1.416688 0.529016,0 0.645579,0.439353 0.645579,0.977335 v 2.071233 c 0,0.412453 -0.09863,0.412453 -0.690411,0.412453 V 0 c 0.42142,-0.017933 0.591781,-0.026899 1.022167,-0.026899 0.430386,0 0.546949,0.008966 1.022167,0.026899 v -0.277958 c -0.457285,0 -0.681445,0 -0.690411,-0.277957 V -2.27746 c 0,-0.744209 0,-1.004234 -0.251059,-1.318057 -0.206226,-0.251058 -0.546949,-0.367621 -0.995268,-0.367621 -0.833872,0 -1.219427,0.61868 -1.344956,0.869738 h -0.00897 v -0.869738 l -1.300125,0.09863 v 0.277958 c 0.609714,0 0.690411,0.062764 0.690411,0.502117 v 2.394022 c 0,0.412453 -0.09863,0.412453 -0.690411,0.412453 V 0 c 0.42142,-0.017933 0.591781,-0.026899 1.022167,-0.026899 0.430386,0 0.546949,0.008966 1.022167,0.026899 v -0.277958 c -0.591781,0 -0.690411,0 -0.690411,-0.412453 z"
           id="equation_07_02"
           inkscape:connector-curvature="0" />
        <path
           d="m 3.084433,-3.783811 c 0,-0.152428 0,-0.233125 -0.107596,-0.233125 -0.044832,0 -0.062765,0 -0.179328,0.107596 -0.017932,0.017933 -0.09863,0.09863 -0.152428,0.143462 -0.277958,-0.19726 -0.555915,-0.251058 -0.860772,-0.251058 -1.183562,0 -1.479452,0.654545 -1.479452,1.11183 0,0.286924 0.125529,0.52005 0.331756,0.71731 0.304856,0.277958 0.645579,0.340723 1.102864,0.42142 0.457285,0.089664 0.609714,0.116563 0.806974,0.268991 0.089664,0.071731 0.313823,0.242092 0.313823,0.582815 0,0.789041 -0.905604,0.789041 -1.031133,0.789041 -0.914571,0 -1.147696,-0.762142 -1.255293,-1.246327 -0.026899,-0.089663 -0.035865,-0.143462 -0.143462,-0.143462 -0.125529,0 -0.125529,0.071731 -0.125529,0.233126 v 1.147696 c 0,0.152429 0,0.233126 0.107596,0.233126 0.053799,0 0.062765,-0.008966 0.22416,-0.179327 0.035865,-0.053799 0.134495,-0.170362 0.179327,-0.215193 0.376588,0.367621 0.789041,0.39452 1.013201,0.39452 1.102864,0 1.488418,-0.645579 1.488418,-1.246326 0,-0.403487 -0.179327,-0.645579 -0.376588,-0.851806 C 2.636115,-2.295392 2.313325,-2.358157 1.649813,-2.483686 1.416687,-2.528518 0.762142,-2.645081 0.762142,-3.156164 c 0,-0.286924 0.206227,-0.663512 1.022167,-0.663512 0.968368,0 1.031133,0.744209 1.049066,0.968368 0.00897,0.107597 0.00897,0.161395 0.125529,0.161395 0.125529,0 0.125529,-0.062764 0.125529,-0.233126 z"
           id="equation_07_03"
           inkscape:connector-curvature="0" />
        <path
           d="m 1.909838,-3.58655 h 0.851806 c 0.161395,0 0.268991,0 0.268991,-0.161395 0,-0.116563 -0.089664,-0.116563 -0.251058,-0.116563 H 1.981569 l 0.367622,-1.488419 c 0,-0.143462 -0.116563,-0.260024 -0.277958,-0.260024 -0.286924,0 -0.358655,0.260024 -0.376588,0.349688 L 1.33599,-3.864508 H 0.493151 c -0.170361,0 -0.277958,0 -0.277958,0.161395 0,0.116563 0.09863,0.116563 0.260025,0.116563 h 0.798007 l -0.609713,2.438854 c -0.071731,0.268991 -0.071731,0.286924 -0.071731,0.412453 0,0.529016 0.403487,0.833873 0.869738,0.833873 0.932503,0 1.46152,-1.291158 1.46152,-1.380822 0,-0.044832 -0.0269,-0.107596 -0.116563,-0.107596 -0.089663,0 -0.09863,0.026899 -0.161395,0.179327 -0.277958,0.645579 -0.726277,1.084932 -1.165629,1.084932 -0.179327,0 -0.286924,-0.116563 -0.286924,-0.412454 0,-0.19726 0.026899,-0.304856 0.062765,-0.439352 z"
           id="equation_07_04"
           inkscape:connector-curvature="0" />
      </defs>
      <g
         id="equation_07_g">
        <use
           id="use1409"
           xlink:href="#equation_07_03"
           y="62.764633"
           x="76.712326"
           width="100%"
           height="100%" />
        <use
           id="use1411"
           xlink:href="#equation_07_01"
           y="62.764633"
           x="80.34729"
           width="100%"
           height="100%" />
        <use
           id="use1413"
           xlink:href="#equation_07_02"
           y="62.764633"
           x="82.90712"
           width="100%"
           height="100%" />
        <use
           id="use1415"
           xlink:href="#equation_07_00"
           y="62.764633"
           x="88.026779"
           width="100%"
           height="100%" />
        <use
           id="use1417"
           xlink:href="#equation_07_04"
           y="62.764633"
           x="94.682327"
           width="100%"
           height="100%" />
      </g>
    </g>
    <g
       title="{\small$x^2-y^2=1$}"
       style="fill:#000000"
       id="equation_08"
       transform="translate(70.380973,48.613695)">
      <defs
         id="defs1523">
        <path
           d="m 4.411457,-3.622416 c -0.331756,0.062765 -0.430386,0.349689 -0.430386,0.484184 0,0.170362 0.125529,0.32279 0.349689,0.32279 0.251058,0 0.49315,-0.215193 0.49315,-0.529016 0,-0.412454 -0.448318,-0.61868 -0.869738,-0.61868 -0.537983,0 -0.851806,0.475218 -0.959402,0.663512 -0.170362,-0.439353 -0.564882,-0.663512 -0.995268,-0.663512 -0.959402,0 -1.479452,1.147696 -1.479452,1.380822 0,0.080697 0.062764,0.107596 0.125529,0.107596 0.080697,0 0.107597,-0.044832 0.125529,-0.09863 0.277958,-0.887671 0.869739,-1.165629 1.210461,-1.165629 0.260025,0 0.493151,0.170361 0.493151,0.591781 0,0.32279 -0.385554,1.75741 -0.502117,2.187796 -0.071731,0.277957 -0.340723,0.833873 -0.833873,0.833873 -0.179328,0 -0.367622,-0.062765 -0.457285,-0.116563 0.242092,-0.044832 0.421419,-0.251059 0.421419,-0.484184 0,-0.22416 -0.170361,-0.32279 -0.340722,-0.32279 -0.260025,0 -0.493151,0.224159 -0.493151,0.529016 0,0.439353 0.484185,0.61868 0.860772,0.61868 0.52005,0 0.824907,-0.430386 0.959403,-0.672478 0.224159,0.591781 0.753175,0.672478 0.995267,0.672478 0.968369,0 1.479452,-1.165629 1.479452,-1.380822 0,-0.044832 -0.026899,-0.107596 -0.116562,-0.107596 -0.098631,0 -0.107597,0.035865 -0.152429,0.170361 -0.19726,0.645579 -0.71731,1.093898 -1.183561,1.093898 -0.260025,0 -0.502118,-0.161395 -0.502118,-0.591781 0,-0.19726 0.12553,-0.690411 0.206227,-1.031133 0.035866,-0.161395 0.277958,-1.129764 0.295891,-1.192528 0.107596,-0.32279 0.376587,-0.798008 0.833872,-0.798008 0.161395,0 0.331756,0.026899 0.466252,0.116563 z"
           id="equation_08_00"
           inkscape:connector-curvature="0" />
        <path
           d="m 4.501121,-3.452055 c 0.00897,-0.044832 0.026899,-0.09863 0.026899,-0.152428 0,-0.116563 -0.080697,-0.260025 -0.277958,-0.260025 -0.116563,0 -0.277957,0.071731 -0.349688,0.242092 -0.00897,0.035866 -0.098631,0.403487 -0.152429,0.600747 l -0.448319,1.793275 c -0.071731,0.260025 -0.071731,0.277958 -0.089663,0.358656 -0.00897,0.035865 -0.385555,0.744209 -1.031134,0.744209 -0.555915,0 -0.555915,-0.564882 -0.555915,-0.735243 0,-0.403487 0.116563,-0.842839 0.502117,-1.847074 0.071731,-0.206226 0.125529,-0.331755 0.125529,-0.502117 0,-0.439352 -0.331756,-0.753175 -0.771108,-0.753175 -0.860772,0 -1.219427,1.273225 -1.219427,1.380822 0,0.080697 0.062765,0.107596 0.125529,0.107596 0.09863,0 0.107597,-0.053798 0.143462,-0.170361 0.188294,-0.663512 0.546949,-1.093898 0.923537,-1.093898 0.215193,0 0.215193,0.170361 0.215193,0.295891 0,0.152428 -0.035866,0.313823 -0.116563,0.529016 C 1.129763,-1.802242 1.0132,-1.425654 1.0132,-0.995268 1.0132,0 1.820174,0.09863 2.15193,0.09863 c 0.439353,0 0.753176,-0.233126 0.914571,-0.39452 C 2.949938,0.161395 2.851308,0.564882 2.501619,1.0132 2.232628,1.371856 1.873973,1.613948 1.479452,1.613948 c -0.251058,0 -0.546949,-0.089664 -0.672478,-0.340723 0.475218,0 0.537982,-0.39452 0.537982,-0.484184 0,-0.19726 -0.143462,-0.322789 -0.340722,-0.322789 -0.215193,0 -0.502117,0.170361 -0.502117,0.582814 0,0.466252 0.412453,0.789041 0.977335,0.789041 0.91457,0 1.891905,-0.780075 2.15193,-1.829141 z"
           id="equation_08_01"
           inkscape:connector-curvature="0" />
        <path
           d="M 3.21594,-1.117808 H 2.99477 c -0.011956,0.083686 -0.071731,0.478207 -0.161395,0.54396 -0.041843,0.035865 -0.526028,0.035865 -0.609714,0.035865 H 1.105853 l 0.765131,-0.621668 c 0.203238,-0.161395 0.735243,-0.54396 0.920548,-0.723288 0.179327,-0.179328 0.424408,-0.484184 0.424408,-0.908593 0,-0.747198 -0.675467,-1.183561 -1.476463,-1.183561 -0.771108,0 -1.309091,0.508094 -1.309091,1.069987 0,0.304857 0.257036,0.340722 0.32279,0.340722 0.149439,0 0.322789,-0.107596 0.322789,-0.322789 0,-0.131507 -0.077708,-0.32279 -0.340722,-0.32279 0.137484,-0.304856 0.502117,-0.532005 0.91457,-0.532005 0.627647,0 0.962391,0.466252 0.962391,0.950436 0,0.424409 -0.280946,0.860772 -0.699377,1.243338 L 0.496139,-0.251059 C 0.436364,-0.191283 0.430386,-0.185305 0.430386,0 h 2.600249 z"
           id="equation_08_02"
           inkscape:connector-curvature="0" />
        <path
           d="m 6.052304,-2.0533 c 0.161395,0 0.331756,0 0.331756,-0.19726 0,-0.188294 -0.179328,-0.188294 -0.331756,-0.188294 h -4.94944 c -0.152428,0 -0.331756,0 -0.331756,0.188294 0,0.19726 0.170361,0.19726 0.331756,0.19726 z"
           id="equation_08_03"
           inkscape:connector-curvature="0" />
        <path
           d="m 2.725778,-5.729514 c 0,-0.22416 -0.00897,-0.242092 -0.233125,-0.242092 -0.555916,0.573848 -1.380822,0.573848 -1.65878,0.573848 v 0.277957 c 0.170361,0 0.71731,0 1.201494,-0.233126 v 4.635617 c 0,0.331756 -0.026899,0.439352 -0.860772,0.439352 H 0.887671 V 0 c 0.32279,-0.026899 1.120797,-0.026899 1.488419,-0.026899 0.367622,0 1.174595,0 1.497384,0.026899 V -0.277958 H 3.58655 c -0.833873,0 -0.860772,-0.107596 -0.860772,-0.439352 z"
           id="equation_08_04"
           inkscape:connector-curvature="0" />
        <path
           d="m 6.348194,-2.96787 c 0.12553,0 0.295891,0 0.295891,-0.188294 0,-0.197261 -0.197261,-0.197261 -0.331756,-0.197261 h -5.46949 c -0.134495,0 -0.331756,0 -0.331756,0.197261 0,0.188294 0.179328,0.188294 0.295891,0.188294 z m -0.035865,1.82914 c 0.134495,0 0.331756,0 0.331756,-0.19726 0,-0.188294 -0.170361,-0.188294 -0.295891,-0.188294 h -5.54122 c -0.116563,0 -0.295891,0 -0.295891,0.188294 0,0.19726 0.197261,0.19726 0.331756,0.19726 z"
           id="equation_08_05"
           inkscape:connector-curvature="0" />
      </defs>
      <g
         id="equation_08_g">
        <use
           id="use1525"
           xlink:href="#equation_08_00"
           y="62.764633"
           x="76.712326"
           width="100%"
           height="100%" />
        <use
           id="use1527"
           xlink:href="#equation_08_02"
           y="58.955627"
           x="81.935783"
           width="100%"
           height="100%" />
        <use
           id="use1529"
           xlink:href="#equation_08_03"
           y="62.764633"
           x="88.134689"
           width="100%"
           height="100%" />
        <use
           id="use1531"
           xlink:href="#equation_08_01"
           y="62.764633"
           x="97.350075"
           width="100%"
           height="100%" />
        <use
           id="use1533"
           xlink:href="#equation_08_02"
           y="58.955627"
           x="102.21028"
           width="100%"
           height="100%" />
        <use
           id="use1535"
           xlink:href="#equation_08_05"
           y="62.764633"
           x="108.92115"
           width="100%"
           height="100%" />
        <use
           id="use1537"
           xlink:href="#equation_08_04"
           y="62.764633"
           x="118.6485"
           width="100%"
           height="100%" />
      </g>
    </g>
  </g>
</svg>
