<?xml version="1.0" encoding="UTF-8" standalone="no"?>
<!-- Created with Inkscape (http://www.inkscape.org/) -->

<svg
   xmlns:dc="http://purl.org/dc/elements/1.1/"
   xmlns:cc="http://creativecommons.org/ns#"
   xmlns:rdf="http://www.w3.org/1999/02/22-rdf-syntax-ns#"
   xmlns:svg="http://www.w3.org/2000/svg"
   xmlns="http://www.w3.org/2000/svg"
   xmlns:xlink="http://www.w3.org/1999/xlink"
   xmlns:sodipodi="http://sodipodi.sourceforge.net/DTD/sodipodi-0.dtd"
   xmlns:inkscape="http://www.inkscape.org/namespaces/inkscape"
   id="svg8"
   version="1.1"
   viewBox="0 0 210 297"
   height="297mm"
   width="210mm"
   inkscape:version="0.92.4 (5da689c313, 2019-01-14)"
   sodipodi:docname="漸化式.svg">
  <defs
     id="defs2">
    <marker
       inkscape:stockid="Arrow1Mend"
       orient="auto"
       refY="0.0"
       refX="0.0"
       id="marker2350"
       style="overflow:visible;"
       inkscape:isstock="true">
      <path
         id="path2348"
         d="M 0.0,0.0 L 5.0,-5.0 L -12.5,0.0 L 5.0,5.0 L 0.0,0.0 z "
         style="fill-rule:evenodd;stroke:#000000;stroke-width:1pt;stroke-opacity:1;fill:#000000;fill-opacity:1"
         transform="scale(0.4) rotate(180) translate(10,0)" />
    </marker>
    <marker
       inkscape:stockid="Arrow1Mend"
       orient="auto"
       refY="0.0"
       refX="0.0"
       id="marker2286"
       style="overflow:visible;"
       inkscape:isstock="true">
      <path
         id="path2284"
         d="M 0.0,0.0 L 5.0,-5.0 L -12.5,0.0 L 5.0,5.0 L 0.0,0.0 z "
         style="fill-rule:evenodd;stroke:#000000;stroke-width:1pt;stroke-opacity:1;fill:#000000;fill-opacity:1"
         transform="scale(0.4) rotate(180) translate(10,0)" />
    </marker>
    <marker
       inkscape:stockid="Arrow1Mend"
       orient="auto"
       refY="0.0"
       refX="0.0"
       id="marker1924"
       style="overflow:visible;"
       inkscape:isstock="true">
      <path
         id="path1922"
         d="M 0.0,0.0 L 5.0,-5.0 L -12.5,0.0 L 5.0,5.0 L 0.0,0.0 z "
         style="fill-rule:evenodd;stroke:#000000;stroke-width:1pt;stroke-opacity:1;fill:#000000;fill-opacity:1"
         transform="scale(0.4) rotate(180) translate(10,0)" />
    </marker>
    <marker
       inkscape:stockid="Arrow1Mend"
       orient="auto"
       refY="0.0"
       refX="0.0"
       id="marker1710"
       style="overflow:visible;"
       inkscape:isstock="true">
      <path
         id="path1708"
         d="M 0.0,0.0 L 5.0,-5.0 L -12.5,0.0 L 5.0,5.0 L 0.0,0.0 z "
         style="fill-rule:evenodd;stroke:#000000;stroke-width:1pt;stroke-opacity:1;fill:#000000;fill-opacity:1"
         transform="scale(0.4) rotate(180) translate(10,0)" />
    </marker>
    <marker
       inkscape:stockid="Arrow1Mend"
       orient="auto"
       refY="0.0"
       refX="0.0"
       id="marker1294"
       style="overflow:visible;"
       inkscape:isstock="true">
      <path
         id="path1292"
         d="M 0.0,0.0 L 5.0,-5.0 L -12.5,0.0 L 5.0,5.0 L 0.0,0.0 z "
         style="fill-rule:evenodd;stroke:#000000;stroke-width:1pt;stroke-opacity:1;fill:#000000;fill-opacity:1"
         transform="scale(0.4) rotate(180) translate(10,0)" />
    </marker>
    <marker
       inkscape:stockid="Arrow1Mend"
       orient="auto"
       refY="0.0"
       refX="0.0"
       id="marker1252"
       style="overflow:visible;"
       inkscape:isstock="true">
      <path
         id="path1250"
         d="M 0.0,0.0 L 5.0,-5.0 L -12.5,0.0 L 5.0,5.0 L 0.0,0.0 z "
         style="fill-rule:evenodd;stroke:#000000;stroke-width:1pt;stroke-opacity:1;fill:#000000;fill-opacity:1"
         transform="scale(0.4) rotate(180) translate(10,0)" />
    </marker>
    <marker
       inkscape:isstock="true"
       style="overflow:visible;"
       id="marker1165"
       refX="0.0"
       refY="0.0"
       orient="auto"
       inkscape:stockid="Arrow1Mend">
      <path
         transform="scale(0.4) rotate(180) translate(10,0)"
         style="fill-rule:evenodd;stroke:#000000;stroke-width:1pt;stroke-opacity:1;fill:#000000;fill-opacity:1"
         d="M 0.0,0.0 L 5.0,-5.0 L -12.5,0.0 L 5.0,5.0 L 0.0,0.0 z "
         id="path1163" />
    </marker>
    <marker
       inkscape:stockid="Arrow1Mend"
       orient="auto"
       refY="0.0"
       refX="0.0"
       id="Arrow1Mend"
       style="overflow:visible;"
       inkscape:isstock="true"
       inkscape:collect="always">
      <path
         id="path830"
         d="M 0.0,0.0 L 5.0,-5.0 L -12.5,0.0 L 5.0,5.0 L 0.0,0.0 z "
         style="fill-rule:evenodd;stroke:#000000;stroke-width:1pt;stroke-opacity:1;fill:#000000;fill-opacity:1"
         transform="scale(0.4) rotate(180) translate(10,0)" />
    </marker>
    <marker
       inkscape:isstock="true"
       style="overflow:visible;"
       id="marker1105"
       refX="0.0"
       refY="0.0"
       orient="auto"
       inkscape:stockid="Arrow1Lend">
      <path
         transform="scale(0.8) rotate(180) translate(12.5,0)"
         style="fill-rule:evenodd;stroke:#000000;stroke-width:1pt;stroke-opacity:1;fill:#000000;fill-opacity:1"
         d="M 0.0,0.0 L 5.0,-5.0 L -12.5,0.0 L 5.0,5.0 L 0.0,0.0 z "
         id="path1103" />
    </marker>
  </defs>
  <sodipodi:namedview
     id="base"
     pagecolor="#ffffff"
     bordercolor="#666666"
     borderopacity="1.0"
     inkscape:pageopacity="0.0"
     inkscape:pageshadow="2"
     inkscape:zoom="0.98994949"
     inkscape:cx="180.20474"
     inkscape:cy="793.51281"
     inkscape:document-units="mm"
     inkscape:current-layer="layer1"
     showgrid="true"
     inkscape:window-width="1858"
     inkscape:window-height="1057"
     inkscape:window-x="-8"
     inkscape:window-y="-8"
     inkscape:window-maximized="1">
    <inkscape:grid
       id="grid815"
       type="xygrid" />
  </sodipodi:namedview>
  <metadata
     id="metadata5">
    <rdf:RDF>
      <cc:Work
         rdf:about="">
        <dc:format>image/svg+xml</dc:format>
        <dc:type
           rdf:resource="http://purl.org/dc/dcmitype/StillImage" />
        <dc:title></dc:title>
      </cc:Work>
    </rdf:RDF>
  </metadata>
  <g
     inkscape:label="レイヤー 1"
     inkscape:groupmode="layer"
     id="layer1">
    <path
       style="fill:none;stroke:#000000;stroke-width:1;stroke-linecap:butt;stroke-linejoin:miter;stroke-opacity:1;stroke-miterlimit:4;stroke-dasharray:none;marker-end:url(#marker1165)"
       d="M 5.2916666,170 C 206.375,170 206.375,170 206.375,170"
       id="path817"
       inkscape:connector-curvature="0" />
    <path
       style="fill:none;stroke:#000000;stroke-width:1;stroke-linecap:butt;stroke-linejoin:miter;stroke-opacity:1;stroke-miterlimit:4;stroke-dasharray:none;marker-end:url(#Arrow1Mend)"
       d="m 15.875,180.58333 c 0,-174.6249968 0,-174.6249968 0,-174.6249968"
       id="path819"
       inkscape:connector-curvature="0" />
    <path
       style="fill:none;stroke:#cccccc;stroke-width:0.60000002;stroke-linecap:butt;stroke-linejoin:miter;stroke-miterlimit:4;stroke-dasharray:none;stroke-opacity:1"
       d="M 5.2916666,179.52499 C 195.79166,4.8999998 195.79166,4.8999998 195.79166,4.8999998"
       id="path1185"
       inkscape:connector-curvature="0"
       inkscape:export-xdpi="300.10001"
       inkscape:export-ydpi="300.10001" />
    <path
       style="fill:none;stroke:#000000;stroke-width:0.6;stroke-linecap:butt;stroke-linejoin:miter;stroke-opacity:1;stroke-miterlimit:4;stroke-dasharray:none"
       d="M 15.875,106.5 C 195.79166,27.125001 195.79166,27.125001 195.79166,27.125001"
       id="path1187"
       inkscape:connector-curvature="0" />
    <path
       style="fill:#000000;fill-opacity:1;stroke:#000000;stroke-width:0.79752469;stroke-linecap:butt;stroke-linejoin:round;stroke-miterlimit:4;stroke-dasharray:none;stroke-dashoffset:0;stroke-opacity:0;paint-order:normal"
       id="path1189-2-6"
       sodipodi:type="arc"
       sodipodi:cx="15.839703"
       sodipodi:cy="106.23558"
       sodipodi:rx="1.7684119"
       sodipodi:ry="1.7485065"
       sodipodi:start="0"
       sodipodi:end="6.2831637"
       d="m 17.608114,106.23558 a 1.7684119,1.7485065 0 0 1 -1.768402,1.74851 1.7684119,1.7485065 0 0 1 -1.768421,-1.74849 1.7684119,1.7485065 0 0 1 1.768383,-1.74853 1.7684119,1.7485065 0 0 1 1.76844,1.74847"
       sodipodi:open="true"
       inkscape:transform-center-x="19.45255"
       inkscape:transform-center-y="-1.4988629" />
    <path
       style="fill:#000000;fill-opacity:1;stroke:#000000;stroke-width:0.79752469;stroke-linecap:butt;stroke-linejoin:round;stroke-miterlimit:4;stroke-dasharray:none;stroke-dashoffset:0;stroke-opacity:0;paint-order:normal"
       id="path1189-2-1"
       sodipodi:type="arc"
       sodipodi:cx="15.849667"
       sodipodi:cy="170.00003"
       sodipodi:rx="1.7684119"
       sodipodi:ry="1.7485065"
       sodipodi:start="0"
       sodipodi:end="6.2831637"
       d="m 17.618078,170.00003 a 1.7684119,1.7485065 0 0 1 -1.768402,1.74851 1.7684119,1.7485065 0 0 1 -1.768421,-1.74849 1.7684119,1.7485065 0 0 1 1.768383,-1.74853 1.7684119,1.7485065 0 0 1 1.76844,1.74847"
       sodipodi:open="true"
       inkscape:transform-center-x="19.45255"
       inkscape:transform-center-y="-1.4988629" />
    <path
       style="fill:none;stroke:#000000;stroke-width:0.265;stroke-linecap:butt;stroke-linejoin:miter;stroke-opacity:1;stroke-miterlimit:4;stroke-dasharray:none;marker-end:url(#marker1252)"
       d="m 13.229167,167.35417 c 0,-58.20834 0,-58.20834 0,-58.20834"
       id="path1248"
       inkscape:connector-curvature="0" />
    <path
       style="fill:none;stroke:#000000;stroke-width:0.25833982px;stroke-linecap:butt;stroke-linejoin:miter;stroke-opacity:1;marker-end:url(#marker1294)"
       d="m 18.520833,106.5 c 62.970834,0 62.970834,0 62.970834,0"
       id="path1290"
       inkscape:connector-curvature="0" />
    <path
       style="fill:#000000;fill-opacity:1;stroke:#000000;stroke-width:0.79752469;stroke-linecap:butt;stroke-linejoin:round;stroke-miterlimit:4;stroke-dasharray:none;stroke-dashoffset:0;stroke-opacity:0;paint-order:normal"
       id="path1189-2-9"
       sodipodi:type="arc"
       sodipodi:cx="84.636993"
       sodipodi:cy="106.50004"
       sodipodi:rx="1.7684119"
       sodipodi:ry="1.7485065"
       sodipodi:start="0"
       sodipodi:end="6.2831637"
       d="m 86.405405,106.50004 a 1.7684119,1.7485065 0 0 1 -1.768402,1.7485 1.7684119,1.7485065 0 0 1 -1.768421,-1.74848 1.7684119,1.7485065 0 0 1 1.768383,-1.74853 1.7684119,1.7485065 0 0 1 1.76844,1.74847"
       sodipodi:open="true"
       inkscape:transform-center-x="19.45255"
       inkscape:transform-center-y="-1.4988629" />
    <path
       style="fill:none;stroke:#000000;stroke-width:0.27749732px;stroke-linecap:butt;stroke-linejoin:miter;stroke-opacity:1;marker-end:url(#marker1710)"
       d="m 84.666666,106.5 c 0,-29.104167 0,-29.104167 0,-29.104167"
       id="path1683"
       inkscape:connector-curvature="0" />
    <path
       style="fill:none;stroke:#000000;stroke-width:0.27052975px;stroke-linecap:butt;stroke-linejoin:miter;stroke-opacity:1;marker-end:url(#marker1924)"
       d="M 84.666667,76.072917 H 115.09375"
       id="path1685"
       inkscape:connector-curvature="0" />
    <path
       style="fill:#000000;fill-opacity:1;stroke:#000000;stroke-width:0.79752469;stroke-linecap:butt;stroke-linejoin:round;stroke-miterlimit:4;stroke-dasharray:none;stroke-dashoffset:0;stroke-opacity:0;paint-order:normal"
       id="path1189-2-0"
       sodipodi:type="arc"
       sodipodi:cx="133.16908"
       sodipodi:cy="61.52087"
       sodipodi:rx="1.7684119"
       sodipodi:ry="1.7485065"
       sodipodi:start="0"
       sodipodi:end="6.2831637"
       d="m 134.93749,61.52087 a 1.7684119,1.7485065 0 0 1 -1.7684,1.748507 1.7684119,1.7485065 0 0 1 -1.76842,-1.748488 1.7684119,1.7485065 0 0 1 1.76838,-1.748525 1.7684119,1.7485065 0 0 1 1.76844,1.748468"
       sodipodi:open="true"
       inkscape:transform-center-x="19.45255"
       inkscape:transform-center-y="-1.4988629" />
    <path
       style="fill:#000000;fill-opacity:1;stroke:#000000;stroke-width:0.79752469;stroke-linecap:butt;stroke-linejoin:round;stroke-miterlimit:4;stroke-dasharray:none;stroke-dashoffset:0;stroke-opacity:0;paint-order:normal"
       id="path1189-2-2"
       sodipodi:type="arc"
       sodipodi:cx="117.74762"
       sodipodi:cy="76.044579"
       sodipodi:rx="1.7684119"
       sodipodi:ry="1.7485065"
       sodipodi:start="0"
       sodipodi:end="6.2831637"
       d="m 119.51603,76.044579 a 1.7684119,1.7485065 0 0 1 -1.7684,1.748506 1.7684119,1.7485065 0 0 1 -1.76842,-1.748488 1.7684119,1.7485065 0 0 1 1.76838,-1.748525 1.7684119,1.7485065 0 0 1 1.76844,1.748469"
       sodipodi:open="true"
       inkscape:transform-center-x="19.45255"
       inkscape:transform-center-y="-1.4988629" />
    <path
       style="fill:none;stroke:#000000;stroke-width:0.25854319px;stroke-linecap:butt;stroke-linejoin:miter;stroke-opacity:1;marker-end:url(#marker2350)"
       d="m 117.73958,74.749999 c 0,-12.632048 0,-12.632048 0,-12.632048"
       id="path2148"
       inkscape:connector-curvature="0" />
    <path
       style="fill:none;stroke:#000000;stroke-width:0.26458332px;stroke-linecap:butt;stroke-linejoin:miter;stroke-opacity:1;marker-end:url(#marker2286)"
       d="m 117.73958,61.520834 c 13.22917,0 13.22917,0 13.22917,0"
       id="path2282"
       inkscape:connector-curvature="0" />
    <path
       style="fill:none;stroke:#000000;stroke-width:0.4;stroke-linecap:butt;stroke-linejoin:miter;stroke-opacity:1;stroke-miterlimit:4;stroke-dasharray:1.6,1.6;stroke-dashoffset:0"
       d="m 84.666666,109.14583 c 0,60.85417 0,60.85417 0,60.85417"
       id="path2454"
       inkscape:connector-curvature="0" />
    <path
       style="fill:none;stroke:#000000;stroke-width:0.4;stroke-linecap:butt;stroke-linejoin:miter;stroke-opacity:1;stroke-miterlimit:4;stroke-dasharray:1.6,1.6;stroke-dashoffset:0"
       d="m 117.73958,77.395834 c 0,92.604166 0,92.604166 0,92.604166"
       id="path2456"
       inkscape:connector-curvature="0" />
    <path
       style="fill:none;stroke:#000000;stroke-width:0.4;stroke-linecap:butt;stroke-linejoin:miter;stroke-opacity:1;stroke-miterlimit:4;stroke-dasharray:1.6,1.6;stroke-dashoffset:0"
       d="m 133.61458,62.843751 c 0,107.156249 0,107.156249 0,107.156249"
       id="path2458"
       inkscape:connector-curvature="0" />
    <path
       style="fill:none;stroke:#000000;stroke-width:0.4;stroke-linecap:butt;stroke-linejoin:miter;stroke-opacity:1;stroke-miterlimit:4;stroke-dasharray:1.6,1.6;stroke-dashoffset:0"
       d="m 148.16666,48.291667 c 0,121.708333 0,121.708333 0,121.708333"
       id="path2460"
       inkscape:connector-curvature="0" />
    <g
       title="\Large$x$"
       style="fill:#000000"
       id="equation_00"
       transform="translate(123.14909,118.58354)">
      <defs
         id="defs2504">
        <path
           d="m 6.800097,-5.853248 c -0.459079,0.086077 -0.631233,0.430386 -0.631233,0.702964 0,0.344308 0.272578,0.459078 0.473425,0.459078 0.430385,0 0.731656,-0.373001 0.731656,-0.760348 0,-0.602541 -0.688618,-0.875118 -1.291158,-0.875118 -0.875118,0 -1.362889,0.860771 -1.492004,1.133349 -0.329963,-1.075965 -1.219427,-1.133349 -1.477659,-1.133349 -1.463311,0 -2.238006,1.879351 -2.238006,2.194968 0,0.057384 0.057385,0.129115 0.157808,0.129115 0.11477,0 0.143462,-0.086077 0.172154,-0.143462 0.487771,-1.592427 1.448966,-1.893697 1.865006,-1.893697 0.645579,0 0.774694,0.60254 0.774694,0.946849 0,0.315616 -0.086077,0.645578 -0.258231,1.334196 l -0.487771,1.965429 c -0.215193,0.860771 -0.631232,1.649812 -1.391581,1.649812 -0.071731,0 -0.430386,0 -0.731656,-0.186501 0.516463,-0.100423 0.631233,-0.530809 0.631233,-0.702963 0,-0.286924 -0.215193,-0.459078 -0.487771,-0.459078 -0.344308,0 -0.71731,0.30127 -0.71731,0.760348 0,0.60254 0.674272,0.875118 1.291158,0.875118 0.688617,0 1.176388,-0.545155 1.477658,-1.13335 0.229539,0.846426 0.946849,1.13335 1.477658,1.13335 1.463312,0 2.238007,-1.879352 2.238007,-2.194968 0,-0.071731 -0.057385,-0.129116 -0.143462,-0.129116 -0.129116,0 -0.143462,0.071731 -0.186501,0.186501 -0.387347,1.262465 -1.219426,1.850659 -1.865005,1.850659 -0.502117,0 -0.774695,-0.373001 -0.774695,-0.961195 0,-0.315616 0.057385,-0.545156 0.286924,-1.492004 l 0.502117,-1.951083 c 0.215193,-0.860772 0.702964,-1.492004 1.362889,-1.492004 0.028692,0 0.430386,0 0.731656,0.1865 z"
           id="equation_00_00"
           inkscape:connector-curvature="0" />
      </defs>
      <g
         id="equation_00_g">
        <use
           id="use2506"
           xlink:href="#equation_00_00"
           y="62.764633"
           x="76.712326"
           width="100%"
           height="100%" />
      </g>
    </g>
    <g
       title="\Large$y$"
       style="fill:#000000"
       id="equation_01"
       transform="translate(-72.162772,-51.04848)">
      <defs
         id="defs2565">
        <path
           d="M 3.773049,1.606774 C 3.385702,2.151929 2.826201,2.6397 2.123237,2.6397 c -0.172154,0 -0.860772,-0.028692 -1.075965,-0.688617 0.043039,0.014346 0.11477,0.014346 0.143462,0.014346 0.430386,0 0.71731,-0.373001 0.71731,-0.702964 0,-0.329963 -0.272578,-0.444732 -0.487771,-0.444732 -0.229539,0 -0.731656,0.172155 -0.731656,0.875118 0,0.731656 0.616887,1.233773 1.43462,1.233773 1.43462,0 2.883585,-1.31985 3.285279,-2.912278 L 6.814443,-5.58067 c 0.014346,-0.071731 0.043039,-0.157808 0.043039,-0.243885 0,-0.215193 -0.172155,-0.358655 -0.387348,-0.358655 -0.129116,0 -0.430386,0.057384 -0.545155,0.48777 L 4.86336,-1.477658 c -0.071731,0.258231 -0.071731,0.286924 -0.1865,0.444732 -0.286924,0.401693 -0.760349,0.889464 -1.448966,0.889464 -0.803387,0 -0.875118,-0.789041 -0.875118,-1.176388 0,-0.817733 0.387347,-1.92239 0.774695,-2.955316 0.157808,-0.41604 0.243885,-0.616887 0.243885,-0.903811 0,-0.60254 -0.430386,-1.147695 -1.133349,-1.147695 -1.31985,0 -1.85066,2.080198 -1.85066,2.194968 0,0.057384 0.057385,0.129115 0.157808,0.129115 0.129116,0 0.143462,-0.057384 0.200847,-0.258231 0.344309,-1.205081 0.889464,-1.778928 1.448966,-1.778928 0.129116,0 0.373001,0 0.373001,0.473424 0,0.373001 -0.157808,0.789041 -0.373001,1.334196 -0.702964,1.879352 -0.702964,2.352776 -0.702964,2.697085 0,1.362889 0.975542,1.678505 1.692851,1.678505 0.41604,0 0.932503,-0.129116 1.43462,-0.659925 l 0.014346,0.014346 C 4.418628,0.344309 4.275166,0.90381 3.773049,1.606774 Z"
           id="equation_01_00"
           inkscape:connector-curvature="0" />
      </defs>
      <g
         id="equation_01_g">
        <use
           id="use2567"
           xlink:href="#equation_01_00"
           y="62.764633"
           x="76.712326"
           width="100%"
           height="100%" />
      </g>
    </g>
    <g
       title="\Large$O$"
       style="fill: black;"
       id="equation_02">
      <defs
         id="defs2631">
        <path
           d="M10.415338-6.283634C10.415338-8.650756 8.865949-10.099722 6.857482-10.099722C3.787396-10.099722 .688617-6.800097 .688617-3.486126C.688617-1.233773 2.180622 .30127 4.26082 .30127C7.273521 .30127 10.415338-2.840547 10.415338-6.283634ZM4.346897-.028692C3.170509-.028692 1.92239-.889464 1.92239-3.127471C1.92239-4.432974 2.395815-6.570558 3.572203-8.005177C4.619475-9.267642 5.824555-9.784105 6.785751-9.784105C8.048216-9.784105 9.267642-8.865949 9.267642-6.800097C9.267642-5.523285 8.722487-3.529164 7.761292-2.166276C6.71402-.702964 5.408516-.028692 4.346897-.028692Z"
           id="equation_02_00" />
      </defs>
      <g
         id="equation_02_g"
         transform="translate(-75.784397,103.88285)">
        <use
           id="use2633"
           xlink:href="#equation_02_00"
           y="62.764633"
           x="76.712326"
           width="100%"
           height="100%" />
      </g>
      <g
         title="\large$y=\frac12x+1$"
         style="fill:#000000"
         id="equation_04"
         transform="translate(-49.519969,4.6299113)">
        <defs
           id="defs2797">
          <path
             d="m 5.66675,-4.877709 c -0.382566,0.071731 -0.526028,0.358655 -0.526028,0.585804 0,0.286924 0.227148,0.382565 0.394521,0.382565 0.358655,0 0.609713,-0.310834 0.609713,-0.633624 0,-0.502117 -0.573848,-0.729265 -1.075965,-0.729265 -0.729265,0 -1.135741,0.71731 -1.243337,0.944458 -0.274969,-0.896637 -1.016189,-0.944458 -1.231383,-0.944458 -1.219427,0 -1.865006,1.566127 -1.865006,1.829141 0,0.04782 0.047821,0.107596 0.131507,0.107596 0.095641,0 0.119552,-0.071731 0.143462,-0.119552 0.406476,-1.327023 1.207472,-1.578082 1.554172,-1.578082 0.537983,0 0.645579,0.502117 0.645579,0.789041 0,0.263014 -0.071731,0.537983 -0.215193,1.111831 l -0.406476,1.637858 c -0.179327,0.71731 -0.526027,1.374844 -1.159651,1.374844 -0.059776,0 -0.358655,0 -0.609714,-0.155417 0.430386,-0.083686 0.526028,-0.442341 0.526028,-0.585803 0,-0.239103 -0.179328,-0.382565 -0.406476,-0.382565 -0.286924,0 -0.597758,0.251058 -0.597758,0.633623 0,0.502117 0.561893,0.729266 1.075965,0.729266 0.573848,0 0.980324,-0.454297 1.231382,-0.944459 0.191283,0.705355 0.789041,0.944459 1.231382,0.944459 1.219428,0 1.865007,-1.566127 1.865007,-1.829141 0,-0.059776 -0.047821,-0.107597 -0.119552,-0.107597 -0.107596,0 -0.119552,0.059776 -0.155417,0.155418 -0.32279,1.052054 -1.016189,1.542216 -1.554172,1.542216 -0.418431,0 -0.645579,-0.310834 -0.645579,-0.800996 0,-0.263014 0.047821,-0.454296 0.239103,-1.243337 l 0.418431,-1.625903 c 0.179328,-0.71731 0.585803,-1.243338 1.135741,-1.243338 0.02391,0 0.358655,0 0.609714,0.155417 z"
             id="equation_04_00"
             inkscape:connector-curvature="0" />
          <path
             d="M 3.144209,1.338979 C 2.82142,1.793275 2.355168,2.199751 1.769365,2.199751 c -0.143462,0 -0.71731,-0.02391 -0.896638,-0.573848 0.035866,0.011955 0.095642,0.011955 0.119552,0.011955 0.358655,0 0.597758,-0.310834 0.597758,-0.585803 0,-0.274969 -0.227148,-0.37061 -0.406475,-0.37061 -0.191283,0 -0.609714,0.143462 -0.609714,0.729265 0,0.609713 0.514072,1.028144 1.195517,1.028144 1.195517,0 2.402989,-1.099875 2.737733,-2.426899 L 5.678705,-4.65056 C 5.69066,-4.710336 5.71457,-4.782067 5.71457,-4.853798 c 0,-0.179328 -0.143462,-0.298879 -0.322789,-0.298879 -0.107597,0 -0.358655,0.04782 -0.454297,0.406475 l -0.884682,3.51482 c -0.059776,0.215193 -0.059776,0.239103 -0.155417,0.37061 -0.239104,0.334745 -0.633624,0.74122 -1.207472,0.74122 -0.66949,0 -0.729265,-0.657534 -0.729265,-0.980323 0,-0.681445 0.322789,-1.601993 0.645579,-2.462765 0.131506,-0.3467 0.203238,-0.514072 0.203238,-0.753176 0,-0.502117 -0.358656,-0.956413 -0.944459,-0.956413 -1.099875,0 -1.542216,1.733499 -1.542216,1.829141 0,0.04782 0.04782,0.107596 0.131506,0.107596 0.107597,0 0.119552,-0.047821 0.167373,-0.215193 0.286924,-1.004234 0.74122,-1.482441 1.207472,-1.482441 0.107596,0 0.310834,0 0.310834,0.394521 0,0.310834 -0.131507,0.657534 -0.310834,1.11183 -0.585804,1.566127 -0.585804,1.960648 -0.585804,2.247572 0,1.135741 0.812952,1.398755 1.41071,1.398755 0.3467,0 0.777086,-0.107597 1.195517,-0.549938 l 0.011955,0.011955 C 3.682192,0.286924 3.56264,0.753176 3.144209,1.338979 Z"
             id="equation_04_01"
             inkscape:connector-curvature="0" />
          <path
             d="m 4.770112,-2.761644 h 3.299626 c 0.167373,0 0.382566,0 0.382566,-0.215193 0,-0.227148 -0.203238,-0.227148 -0.382566,-0.227148 H 4.770112 v -3.299626 c 0,-0.167373 0,-0.382566 -0.215193,-0.382566 -0.227148,0 -0.227148,0.203238 -0.227148,0.382566 v 3.299626 H 1.028144 c -0.167372,0 -0.382565,0 -0.382565,0.215193 0,0.227148 0.203238,0.227148 0.382565,0.227148 h 3.299627 v 3.299627 c 0,0.167372 0,0.382565 0.215193,0.382565 0.227148,0 0.227148,-0.203238 0.227148,-0.382565 z"
             id="equation_04_02"
             inkscape:connector-curvature="0" />
          <path
             d="m 3.443088,-7.663263 c 0,-0.274969 0,-0.286924 -0.239103,-0.286924 -0.286924,0.32279 -0.884682,0.765131 -2.116065,0.765131 v 0.3467 c 0.274969,0 0.872728,0 1.530262,-0.310835 v 6.228643 c 0,0.430386 -0.035866,0.573848 -1.08792,0.573848 H 1.159651 V 0 c 0.32279,-0.02391 1.482441,-0.02391 1.876962,-0.02391 0.394521,0 1.542216,0 1.865006,0.02391 v -0.3467 h -0.37061 c -1.052055,0 -1.087921,-0.143462 -1.087921,-0.573848 z"
             id="equation_04_03"
             inkscape:connector-curvature="0" />
          <path
             d="m 8.069738,-3.873474 c 0.167373,0 0.382566,0 0.382566,-0.215193 0,-0.227149 -0.203238,-0.227149 -0.382566,-0.227149 H 1.028144 c -0.167372,0 -0.382565,0 -0.382565,0.215193 0,0.227149 0.203238,0.227149 0.382565,0.227149 z m 0,2.223661 c 0.167373,0 0.382566,0 0.382566,-0.215193 0,-0.227148 -0.203238,-0.227148 -0.382566,-0.227148 H 1.028144 c -0.167372,0 -0.382565,0 -0.382565,0.215193 0,0.227148 0.203238,0.227148 0.382565,0.227148 z"
             id="equation_04_04"
             inkscape:connector-curvature="0" />
          <path
             d="m 2.502615,-5.076961 c 0,-0.215193 -0.01594,-0.223164 -0.231133,-0.223164 -0.326775,0.318805 -0.749191,0.510088 -1.506351,0.510088 v 0.263013 c 0.215193,0 0.645579,0 1.107845,-0.215193 v 4.088668 c 0,0.294894 -0.02391,0.390535 -0.781071,0.390535 H 0.812951 V 0 c 0.326775,-0.02391 1.012205,-0.02391 1.37086,-0.02391 0.358655,0 1.052055,0 1.378829,0.02391 V -0.263014 H 3.283686 c -0.75716,0 -0.781071,-0.095641 -0.781071,-0.390535 z"
             id="equation_04_05"
             inkscape:connector-curvature="0" />
          <path
             d="m 2.247572,-1.625903 c 0.127521,-0.119552 0.462266,-0.382565 0.589788,-0.494147 0.494147,-0.454296 0.964383,-0.892652 0.964383,-1.617933 0,-0.948443 -0.797011,-1.562142 -1.793275,-1.562142 -0.956413,0 -1.586052,0.725281 -1.586052,1.434621 0,0.390535 0.310834,0.446326 0.422416,0.446326 0.167372,0 0.414446,-0.119552 0.414446,-0.422416 0,-0.414446 -0.398506,-0.414446 -0.494147,-0.414446 0.231133,-0.581818 0.765131,-0.781071 1.155666,-0.781071 0.74122,0 1.123786,0.629639 1.123786,1.299128 0,0.828892 -0.581818,1.434621 -1.522292,2.399004 L 0.518057,-0.302864 C 0.422416,-0.215193 0.422416,-0.199253 0.422416,0 H 3.57061 L 3.801743,-1.42665 H 3.55467 c -0.02391,0.159402 -0.087671,0.557908 -0.183313,0.70934 -0.04782,0.063761 -0.653549,0.063761 -0.781071,0.063761 h -1.41868 z"
             id="equation_04_06"
             inkscape:connector-curvature="0" />
        </defs>
        <g
           id="equation_04_g">
          <use
             id="use2799"
             xlink:href="#equation_04_01"
             y="62.764633"
             x="76.712326"
             width="100%"
             height="100%" />
          <use
             id="use2801"
             xlink:href="#equation_04_04"
             y="62.764633"
             x="86.169807"
             width="100%"
             height="100%" />
          <use
             id="use2803"
             xlink:href="#equation_04_05"
             y="58.057507"
             x="99.790802"
             width="100%"
             height="100%" />
          <rect
             id="rect2805"
             width="4.2341828"
             height="0.47818699"
             y="59.536747"
             x="99.790802" />
          <use
             id="use2807"
             xlink:href="#equation_04_06"
             y="66.887268"
             x="99.790802"
             width="100%"
             height="100%" />
          <use
             id="use2809"
             xlink:href="#equation_04_00"
             y="62.764633"
             x="105.2205"
             width="100%"
             height="100%" />
          <use
             id="use2811"
             xlink:href="#equation_04_02"
             y="62.764633"
             x="114.52925"
             width="100%"
             height="100%" />
          <use
             id="use2813"
             xlink:href="#equation_04_03"
             y="62.764633"
             x="126.29057"
             width="100%"
             height="100%" />
        </g>
      </g>
      <g
         title="\large$y=x$"
         style="fill:#000000"
         id="equation_03"
         transform="translate(75.904546,-50.513941)">
        <defs
           id="defs2921">
          <path
             d="m 5.66675,-4.877709 c -0.382566,0.071731 -0.526028,0.358655 -0.526028,0.585804 0,0.286924 0.227148,0.382565 0.394521,0.382565 0.358655,0 0.609713,-0.310834 0.609713,-0.633624 0,-0.502117 -0.573848,-0.729265 -1.075965,-0.729265 -0.729265,0 -1.135741,0.71731 -1.243337,0.944458 -0.274969,-0.896637 -1.016189,-0.944458 -1.231383,-0.944458 -1.219427,0 -1.865006,1.566127 -1.865006,1.829141 0,0.04782 0.047821,0.107596 0.131507,0.107596 0.095641,0 0.119552,-0.071731 0.143462,-0.119552 0.406476,-1.327023 1.207472,-1.578082 1.554172,-1.578082 0.537983,0 0.645579,0.502117 0.645579,0.789041 0,0.263014 -0.071731,0.537983 -0.215193,1.111831 l -0.406476,1.637858 c -0.179327,0.71731 -0.526027,1.374844 -1.159651,1.374844 -0.059776,0 -0.358655,0 -0.609714,-0.155417 0.430386,-0.083686 0.526028,-0.442341 0.526028,-0.585803 0,-0.239103 -0.179328,-0.382565 -0.406476,-0.382565 -0.286924,0 -0.597758,0.251058 -0.597758,0.633623 0,0.502117 0.561893,0.729266 1.075965,0.729266 0.573848,0 0.980324,-0.454297 1.231382,-0.944459 0.191283,0.705355 0.789041,0.944459 1.231382,0.944459 1.219428,0 1.865007,-1.566127 1.865007,-1.829141 0,-0.059776 -0.047821,-0.107597 -0.119552,-0.107597 -0.107596,0 -0.119552,0.059776 -0.155417,0.155418 -0.32279,1.052054 -1.016189,1.542216 -1.554172,1.542216 -0.418431,0 -0.645579,-0.310834 -0.645579,-0.800996 0,-0.263014 0.047821,-0.454296 0.239103,-1.243337 l 0.418431,-1.625903 c 0.179328,-0.71731 0.585803,-1.243338 1.135741,-1.243338 0.02391,0 0.358655,0 0.609714,0.155417 z"
             id="equation_03_00"
             inkscape:connector-curvature="0" />
          <path
             d="M 3.144209,1.338979 C 2.82142,1.793275 2.355168,2.199751 1.769365,2.199751 c -0.143462,0 -0.71731,-0.02391 -0.896638,-0.573848 0.035866,0.011955 0.095642,0.011955 0.119552,0.011955 0.358655,0 0.597758,-0.310834 0.597758,-0.585803 0,-0.274969 -0.227148,-0.37061 -0.406475,-0.37061 -0.191283,0 -0.609714,0.143462 -0.609714,0.729265 0,0.609713 0.514072,1.028144 1.195517,1.028144 1.195517,0 2.402989,-1.099875 2.737733,-2.426899 L 5.678705,-4.65056 C 5.69066,-4.710336 5.71457,-4.782067 5.71457,-4.853798 c 0,-0.179328 -0.143462,-0.298879 -0.322789,-0.298879 -0.107597,0 -0.358655,0.04782 -0.454297,0.406475 l -0.884682,3.51482 c -0.059776,0.215193 -0.059776,0.239103 -0.155417,0.37061 -0.239104,0.334745 -0.633624,0.74122 -1.207472,0.74122 -0.66949,0 -0.729265,-0.657534 -0.729265,-0.980323 0,-0.681445 0.322789,-1.601993 0.645579,-2.462765 0.131506,-0.3467 0.203238,-0.514072 0.203238,-0.753176 0,-0.502117 -0.358656,-0.956413 -0.944459,-0.956413 -1.099875,0 -1.542216,1.733499 -1.542216,1.829141 0,0.04782 0.04782,0.107596 0.131506,0.107596 0.107597,0 0.119552,-0.047821 0.167373,-0.215193 0.286924,-1.004234 0.74122,-1.482441 1.207472,-1.482441 0.107596,0 0.310834,0 0.310834,0.394521 0,0.310834 -0.131507,0.657534 -0.310834,1.11183 -0.585804,1.566127 -0.585804,1.960648 -0.585804,2.247572 0,1.135741 0.812952,1.398755 1.41071,1.398755 0.3467,0 0.777086,-0.107597 1.195517,-0.549938 l 0.011955,0.011955 C 3.682192,0.286924 3.56264,0.753176 3.144209,1.338979 Z"
             id="equation_03_01"
             inkscape:connector-curvature="0" />
          <path
             d="m 8.069738,-3.873474 c 0.167373,0 0.382566,0 0.382566,-0.215193 0,-0.227149 -0.203238,-0.227149 -0.382566,-0.227149 H 1.028144 c -0.167372,0 -0.382565,0 -0.382565,0.215193 0,0.227149 0.203238,0.227149 0.382565,0.227149 z m 0,2.223661 c 0.167373,0 0.382566,0 0.382566,-0.215193 0,-0.227148 -0.203238,-0.227148 -0.382566,-0.227148 H 1.028144 c -0.167372,0 -0.382565,0 -0.382565,0.215193 0,0.227148 0.203238,0.227148 0.382565,0.227148 z"
             id="equation_03_02"
             inkscape:connector-curvature="0" />
        </defs>
        <g
           id="equation_03_g">
          <use
             id="use2923"
             xlink:href="#equation_03_01"
             y="62.764633"
             x="76.712326"
             width="100%"
             height="100%" />
          <use
             id="use2925"
             xlink:href="#equation_03_02"
             y="62.764633"
             x="86.169807"
             width="100%"
             height="100%" />
          <use
             id="use2927"
             xlink:href="#equation_03_00"
             y="62.764633"
             x="98.595291"
             width="100%"
             height="100%" />
        </g>
      </g>
      <g
         title="\large$ya_1=0$"
         style="fill:#000000"
         id="equation_05"
         transform="translate(-0.132238,-0.32936206)">
        <defs
           id="defs3031">
          <path
             d="m 5.355915,-3.825654 c 0,-0.992279 -0.059776,-1.960647 -0.490162,-2.86924 -0.490161,-0.992279 -1.350934,-1.255293 -1.936737,-1.255293 -0.6934,0 -1.542216,0.3467 -1.984558,1.338979 -0.334744,0.753176 -0.454296,1.494396 -0.454296,2.785554 0,1.159652 0.083686,2.032379 0.514072,2.881196 0.466252,0.908592 1.291158,1.195517 1.912827,1.195517 1.0401,0 1.637858,-0.621669 1.984558,-1.315069 0.430386,-0.896638 0.454296,-2.068244 0.454296,-2.761644 z M 2.917061,0.011955 c -0.382565,0 -1.159651,-0.215193 -1.386799,-1.518306 -0.131507,-0.71731 -0.131507,-1.625903 -0.131507,-2.462765 0,-0.980324 0,-1.865006 0.191282,-2.570361 0.203238,-0.800996 0.812952,-1.171606 1.327024,-1.171606 0.454296,0 1.147696,0.274968 1.374844,1.303113 0.155418,0.681444 0.155418,1.625903 0.155418,2.438854 0,0.800996 0,1.709589 -0.131507,2.438854 -0.227149,1.315069 -0.980324,1.542217 -1.398755,1.542217 z"
             id="equation_05_00"
             inkscape:connector-curvature="0" />
          <path
             d="m 8.069738,-3.873474 c 0.167373,0 0.382566,0 0.382566,-0.215193 0,-0.227149 -0.203238,-0.227149 -0.382566,-0.227149 H 1.028144 c -0.167372,0 -0.382565,0 -0.382565,0.215193 0,0.227149 0.203238,0.227149 0.382565,0.227149 z m 0,2.223661 c 0.167373,0 0.382566,0 0.382566,-0.215193 0,-0.227148 -0.203238,-0.227148 -0.382566,-0.227148 H 1.028144 c -0.167372,0 -0.382565,0 -0.382565,0.215193 0,0.227148 0.203238,0.227148 0.382565,0.227148 z"
             id="equation_05_01"
             inkscape:connector-curvature="0" />
          <path
             d="m 3.598506,-1.422665 c -0.059776,0.203238 -0.059776,0.227148 -0.227149,0.454296 -0.263013,0.334745 -0.789041,0.848817 -1.350934,0.848817 -0.490161,0 -0.76513,-0.442341 -0.76513,-1.147696 0,-0.657534 0.37061,-1.996513 0.597758,-2.49863 0.406476,-0.836862 0.968369,-1.267248 1.43462,-1.267248 0.789041,0 0.944459,0.980324 0.944459,1.075965 0,0.011956 -0.035866,0.167373 -0.047821,0.191283 z m 0.76513,-3.060523 C 4.23213,-4.794022 3.90934,-5.272229 3.287671,-5.272229 c -1.350934,0 -2.809464,1.745454 -2.809464,3.514819 0,1.183562 0.693399,1.876962 1.506351,1.876962 0.657534,0 1.219427,-0.514073 1.554172,-0.908593 0.119551,0.705355 0.681444,0.908593 1.040099,0.908593 0.358655,0 0.645579,-0.215193 0.860772,-0.645579 0.191283,-0.406476 0.358656,-1.135741 0.358656,-1.183562 0,-0.059776 -0.047821,-0.107597 -0.119552,-0.107597 -0.107597,0 -0.119552,0.059776 -0.167372,0.239104 -0.179328,0.705355 -0.406476,1.45853 -0.896638,1.45853 -0.3467,0 -0.37061,-0.310834 -0.37061,-0.549937 0,-0.274969 0.035865,-0.406476 0.143462,-0.872728 0.083686,-0.298879 0.143462,-0.561893 0.239103,-0.908592 0.442341,-1.793276 0.549938,-2.223662 0.549938,-2.295393 0,-0.167372 -0.131507,-0.298879 -0.310835,-0.298879 -0.382565,0 -0.478206,0.418431 -0.502117,0.561893 z"
             id="equation_05_02"
             inkscape:connector-curvature="0" />
          <path
             d="M 3.144209,1.338979 C 2.82142,1.793275 2.355168,2.199751 1.769365,2.199751 c -0.143462,0 -0.71731,-0.02391 -0.896638,-0.573848 0.035866,0.011955 0.095642,0.011955 0.119552,0.011955 0.358655,0 0.597758,-0.310834 0.597758,-0.585803 0,-0.274969 -0.227148,-0.37061 -0.406475,-0.37061 -0.191283,0 -0.609714,0.143462 -0.609714,0.729265 0,0.609713 0.514072,1.028144 1.195517,1.028144 1.195517,0 2.402989,-1.099875 2.737733,-2.426899 L 5.678705,-4.65056 C 5.69066,-4.710336 5.71457,-4.782067 5.71457,-4.853798 c 0,-0.179328 -0.143462,-0.298879 -0.322789,-0.298879 -0.107597,0 -0.358655,0.04782 -0.454297,0.406475 l -0.884682,3.51482 c -0.059776,0.215193 -0.059776,0.239103 -0.155417,0.37061 -0.239104,0.334745 -0.633624,0.74122 -1.207472,0.74122 -0.66949,0 -0.729265,-0.657534 -0.729265,-0.980323 0,-0.681445 0.322789,-1.601993 0.645579,-2.462765 0.131506,-0.3467 0.203238,-0.514072 0.203238,-0.753176 0,-0.502117 -0.358656,-0.956413 -0.944459,-0.956413 -1.099875,0 -1.542216,1.733499 -1.542216,1.829141 0,0.04782 0.04782,0.107596 0.131506,0.107596 0.107597,0 0.119552,-0.047821 0.167373,-0.215193 0.286924,-1.004234 0.74122,-1.482441 1.207472,-1.482441 0.107596,0 0.310834,0 0.310834,0.394521 0,0.310834 -0.131507,0.657534 -0.310834,1.11183 -0.585804,1.566127 -0.585804,1.960648 -0.585804,2.247572 0,1.135741 0.812952,1.398755 1.41071,1.398755 0.3467,0 0.777086,-0.107597 1.195517,-0.549938 l 0.011955,0.011955 C 3.682192,0.286924 3.56264,0.753176 3.144209,1.338979 Z"
             id="equation_05_03"
             inkscape:connector-curvature="0" />
          <path
             d="m 2.502615,-5.076961 c 0,-0.215193 -0.01594,-0.223164 -0.231133,-0.223164 -0.326775,0.318805 -0.749191,0.510088 -1.506351,0.510088 v 0.263013 c 0.215193,0 0.645579,0 1.107845,-0.215193 v 4.088668 c 0,0.294894 -0.02391,0.390535 -0.781071,0.390535 H 0.812951 V 0 c 0.326775,-0.02391 1.012205,-0.02391 1.37086,-0.02391 0.358655,0 1.052055,0 1.378829,0.02391 V -0.263014 H 3.283686 c -0.75716,0 -0.781071,-0.095641 -0.781071,-0.390535 z"
             id="equation_05_04"
             inkscape:connector-curvature="0" />
        </defs>
        <g
           title="\large$a_1=0$"
           style="fill: black;"
           id="equation_06">
          <defs
             id="defs3154">
            <path
               d="M3.598506-1.422665C3.53873-1.219427 3.53873-1.195517 3.371357-.968369C3.108344-.633624 2.582316-.119552 2.020423-.119552C1.530262-.119552 1.255293-.561893 1.255293-1.267248C1.255293-1.924782 1.625903-3.263761 1.853051-3.765878C2.259527-4.60274 2.82142-5.033126 3.287671-5.033126C4.076712-5.033126 4.23213-4.052802 4.23213-3.957161C4.23213-3.945205 4.196264-3.789788 4.184309-3.765878L3.598506-1.422665ZM4.363636-4.483188C4.23213-4.794022 3.90934-5.272229 3.287671-5.272229C1.936737-5.272229 .478207-3.526775 .478207-1.75741C.478207-.573848 1.171606 .119552 1.984558 .119552C2.642092 .119552 3.203985-.394521 3.53873-.789041C3.658281-.083686 4.220174 .119552 4.578829 .119552S5.224408-.095641 5.439601-.526027C5.630884-.932503 5.798257-1.661768 5.798257-1.709589C5.798257-1.769365 5.750436-1.817186 5.678705-1.817186C5.571108-1.817186 5.559153-1.75741 5.511333-1.578082C5.332005-.872727 5.104857-.119552 4.614695-.119552C4.267995-.119552 4.244085-.430386 4.244085-.669489C4.244085-.944458 4.27995-1.075965 4.387547-1.542217C4.471233-1.841096 4.531009-2.10411 4.62665-2.450809C5.068991-4.244085 5.176588-4.674471 5.176588-4.746202C5.176588-4.913574 5.045081-5.045081 4.865753-5.045081C4.483188-5.045081 4.387547-4.62665 4.363636-4.483188Z"
               id="equation_06_00" />
            <path
               d="M5.355915-3.825654C5.355915-4.817933 5.296139-5.786301 4.865753-6.694894C4.375592-7.687173 3.514819-7.950187 2.929016-7.950187C2.235616-7.950187 1.3868-7.603487 .944458-6.611208C.609714-5.858032 .490162-5.116812 .490162-3.825654C.490162-2.666002 .573848-1.793275 1.004234-.944458C1.470486-.035866 2.295392 .251059 2.917061 .251059C3.957161 .251059 4.554919-.37061 4.901619-1.06401C5.332005-1.960648 5.355915-3.132254 5.355915-3.825654ZM2.917061 .011955C2.534496 .011955 1.75741-.203238 1.530262-1.506351C1.398755-2.223661 1.398755-3.132254 1.398755-3.969116C1.398755-4.94944 1.398755-5.834122 1.590037-6.539477C1.793275-7.340473 2.402989-7.711083 2.917061-7.711083C3.371357-7.711083 4.064757-7.436115 4.291905-6.40797C4.447323-5.726526 4.447323-4.782067 4.447323-3.969116C4.447323-3.16812 4.447323-2.259527 4.315816-1.530262C4.088667-.215193 3.335492 .011955 2.917061 .011955Z"
               id="equation_06_01" />
            <path
               d="M8.069738-3.873474C8.237111-3.873474 8.452304-3.873474 8.452304-4.088667C8.452304-4.315816 8.249066-4.315816 8.069738-4.315816H1.028144C.860772-4.315816 .645579-4.315816 .645579-4.100623C.645579-3.873474 .848817-3.873474 1.028144-3.873474H8.069738ZM8.069738-1.649813C8.237111-1.649813 8.452304-1.649813 8.452304-1.865006C8.452304-2.092154 8.249066-2.092154 8.069738-2.092154H1.028144C.860772-2.092154 .645579-2.092154 .645579-1.876961C.645579-1.649813 .848817-1.649813 1.028144-1.649813H8.069738Z"
               id="equation_06_02" />
            <path
               d="M2.502615-5.076961C2.502615-5.292154 2.486675-5.300125 2.271482-5.300125C1.944707-4.98132 1.522291-4.790037 .765131-4.790037V-4.527024C.980324-4.527024 1.41071-4.527024 1.872976-4.742217V-.653549C1.872976-.358655 1.849066-.263014 1.091905-.263014H.812951V0C1.139726-.02391 1.825156-.02391 2.183811-.02391S3.235866-.02391 3.56264 0V-.263014H3.283686C2.526526-.263014 2.502615-.358655 2.502615-.653549V-5.076961Z"
               id="equation_06_03" />
          </defs>
          <g
             id="equation_06_g"
             transform="translate(-57.701744,117.42115)">
            <use
               id="use3156"
               xlink:href="#equation_06_00"
               y="62.764633"
               x="76.712326"
               width="100%"
               height="100%" />
            <use
               id="use3158"
               xlink:href="#equation_06_03"
               y="64.557899"
               x="82.857269"
               width="100%"
               height="100%" />
            <use
               id="use3160"
               xlink:href="#equation_06_02"
               y="62.764633"
               x="90.910416"
               width="100%"
               height="100%" />
            <use
               id="use3162"
               xlink:href="#equation_06_01"
               y="62.764633"
               x="103.3359"
               width="100%"
               height="100%" />
          </g>
          <g
             title="\large$a_2$"
             style="fill:#000000"
             id="equation_07"
             transform="translate(4.698381,115.48416)">
            <defs
               id="defs3403">
              <path
                 d="m 3.598506,-1.422665 c -0.059776,0.203238 -0.059776,0.227148 -0.227149,0.454296 -0.263013,0.334745 -0.789041,0.848817 -1.350934,0.848817 -0.490161,0 -0.76513,-0.442341 -0.76513,-1.147696 0,-0.657534 0.37061,-1.996513 0.597758,-2.49863 0.406476,-0.836862 0.968369,-1.267248 1.43462,-1.267248 0.789041,0 0.944459,0.980324 0.944459,1.075965 0,0.011956 -0.035866,0.167373 -0.047821,0.191283 z m 0.76513,-3.060523 C 4.23213,-4.794022 3.90934,-5.272229 3.287671,-5.272229 c -1.350934,0 -2.809464,1.745454 -2.809464,3.514819 0,1.183562 0.693399,1.876962 1.506351,1.876962 0.657534,0 1.219427,-0.514073 1.554172,-0.908593 0.119551,0.705355 0.681444,0.908593 1.040099,0.908593 0.358655,0 0.645579,-0.215193 0.860772,-0.645579 0.191283,-0.406476 0.358656,-1.135741 0.358656,-1.183562 0,-0.059776 -0.047821,-0.107597 -0.119552,-0.107597 -0.107597,0 -0.119552,0.059776 -0.167372,0.239104 -0.179328,0.705355 -0.406476,1.45853 -0.896638,1.45853 -0.3467,0 -0.37061,-0.310834 -0.37061,-0.549937 0,-0.274969 0.035865,-0.406476 0.143462,-0.872728 0.083686,-0.298879 0.143462,-0.561893 0.239103,-0.908592 0.442341,-1.793276 0.549938,-2.223662 0.549938,-2.295393 0,-0.167372 -0.131507,-0.298879 -0.310835,-0.298879 -0.382565,0 -0.478206,0.418431 -0.502117,0.561893 z"
                 id="equation_07_00"
                 inkscape:connector-curvature="0" />
              <path
                 d="m 2.247572,-1.625903 c 0.127521,-0.119552 0.462266,-0.382565 0.589788,-0.494147 0.494147,-0.454296 0.964383,-0.892652 0.964383,-1.617933 0,-0.948443 -0.797011,-1.562142 -1.793275,-1.562142 -0.956413,0 -1.586052,0.725281 -1.586052,1.434621 0,0.390535 0.310834,0.446326 0.422416,0.446326 0.167372,0 0.414446,-0.119552 0.414446,-0.422416 0,-0.414446 -0.398506,-0.414446 -0.494147,-0.414446 0.231133,-0.581818 0.765131,-0.781071 1.155666,-0.781071 0.74122,0 1.123786,0.629639 1.123786,1.299128 0,0.828892 -0.581818,1.434621 -1.522292,2.399004 L 0.518057,-0.302864 C 0.422416,-0.215193 0.422416,-0.199253 0.422416,0 H 3.57061 L 3.801743,-1.42665 H 3.55467 c -0.02391,0.159402 -0.087671,0.557908 -0.183313,0.70934 -0.04782,0.063761 -0.653549,0.063761 -0.781071,0.063761 h -1.41868 z"
                 id="equation_07_01"
                 inkscape:connector-curvature="0" />
            </defs>
            <g
               id="equation_07_g">
              <use
                 id="use3405"
                 xlink:href="#equation_07_00"
                 y="62.764633"
                 x="76.712326"
                 width="100%"
                 height="100%" />
              <use
                 id="use3407"
                 xlink:href="#equation_07_01"
                 y="64.557899"
                 x="82.857269"
                 width="100%"
                 height="100%" />
            </g>
          </g>
          <g
             title="\large$a_3$"
             style="fill:#000000"
             id="equation_08"
             transform="translate(35.157467,114.78304)">
            <defs
               id="defs3531">
              <path
                 d="m 3.598506,-1.422665 c -0.059776,0.203238 -0.059776,0.227148 -0.227149,0.454296 -0.263013,0.334745 -0.789041,0.848817 -1.350934,0.848817 -0.490161,0 -0.76513,-0.442341 -0.76513,-1.147696 0,-0.657534 0.37061,-1.996513 0.597758,-2.49863 0.406476,-0.836862 0.968369,-1.267248 1.43462,-1.267248 0.789041,0 0.944459,0.980324 0.944459,1.075965 0,0.011956 -0.035866,0.167373 -0.047821,0.191283 z m 0.76513,-3.060523 C 4.23213,-4.794022 3.90934,-5.272229 3.287671,-5.272229 c -1.350934,0 -2.809464,1.745454 -2.809464,3.514819 0,1.183562 0.693399,1.876962 1.506351,1.876962 0.657534,0 1.219427,-0.514073 1.554172,-0.908593 0.119551,0.705355 0.681444,0.908593 1.040099,0.908593 0.358655,0 0.645579,-0.215193 0.860772,-0.645579 0.191283,-0.406476 0.358656,-1.135741 0.358656,-1.183562 0,-0.059776 -0.047821,-0.107597 -0.119552,-0.107597 -0.107597,0 -0.119552,0.059776 -0.167372,0.239104 -0.179328,0.705355 -0.406476,1.45853 -0.896638,1.45853 -0.3467,0 -0.37061,-0.310834 -0.37061,-0.549937 0,-0.274969 0.035865,-0.406476 0.143462,-0.872728 0.083686,-0.298879 0.143462,-0.561893 0.239103,-0.908592 0.442341,-1.793276 0.549938,-2.223662 0.549938,-2.295393 0,-0.167372 -0.131507,-0.298879 -0.310835,-0.298879 -0.382565,0 -0.478206,0.418431 -0.502117,0.561893 z"
                 id="equation_08_00"
                 inkscape:connector-curvature="0" />
              <path
                 d="m 2.016438,-2.662017 c 0.629639,0 1.028145,0.462266 1.028145,1.299128 0,0.996264 -0.565878,1.291158 -0.988294,1.291158 -0.438356,0 -1.036115,-0.159402 -1.315069,-0.581818 0.286924,0 0.486177,-0.183313 0.486177,-0.446326 0,-0.255044 -0.183312,-0.438357 -0.438356,-0.438357 -0.215193,0 -0.438356,0.135492 -0.438356,0.454297 0,0.75716 0.812951,1.251307 1.721544,1.251307 1.060025,0 1.801245,-0.73325 1.801245,-1.530261 0,-0.661519 -0.526027,-1.267248 -1.338978,-1.44259 0.629638,-0.223164 1.099875,-0.765131 1.099875,-1.40274 0,-0.637609 -0.71731,-1.091906 -1.546202,-1.091906 -0.852802,0 -1.498381,0.462267 -1.498381,1.067995 0,0.294895 0.199253,0.422416 0.406476,0.422416 0.247073,0 0.406476,-0.175342 0.406476,-0.406475 0,-0.294894 -0.255044,-0.406476 -0.430386,-0.414446 0.334744,-0.438356 0.948443,-0.462267 1.091905,-0.462267 0.207223,0 0.812951,0.063761 0.812951,0.884683 0,0.557908 -0.231133,0.892652 -0.342714,1.020174 -0.239104,0.247074 -0.422416,0.263014 -0.908593,0.294894 -0.151432,0.00797 -0.215193,0.015941 -0.215193,0.119552 0,0.111582 0.071731,0.111582 0.207223,0.111582 z"
                 id="equation_08_01"
                 inkscape:connector-curvature="0" />
            </defs>
            <g
               id="equation_08_g">
              <use
                 id="use3533"
                 xlink:href="#equation_08_00"
                 y="62.764633"
                 x="76.712326"
                 width="100%"
                 height="100%" />
              <use
                 id="use3535"
                 xlink:href="#equation_08_01"
                 y="64.557899"
                 x="82.857269"
                 width="100%"
                 height="100%" />
            </g>
          </g>
          <g
             title="\large$a_4$"
             style="fill:#000000"
             id="equation_09"
             transform="translate(51.709682,116.07395)">
            <defs
               id="defs3666">
              <path
                 d="m 3.140224,-5.156663 c 0,-0.159402 0,-0.223163 -0.167372,-0.223163 -0.103612,0 -0.111582,0.00797 -0.191283,0.119552 l -2.542466,3.690162 v 0.263014 h 2.247572 v 0.661519 c 0,0.294894 -0.02391,0.382565 -0.637609,0.382565 H 1.665753 V 0 c 0.67746,-0.02391 0.6934,-0.02391 1.147697,-0.02391 0.454297,0 0.470236,0 1.147696,0.02391 V -0.263014 H 3.777833 c -0.613699,0 -0.637609,-0.087671 -0.637609,-0.382565 V -1.307098 H 3.985056 V -1.570112 H 3.140224 Z m -0.597758,0.64558 v 2.940971 H 0.518057 Z"
                 id="equation_09_00"
                 inkscape:connector-curvature="0" />
              <path
                 d="m 3.598506,-1.422665 c -0.059776,0.203238 -0.059776,0.227148 -0.227149,0.454296 -0.263013,0.334745 -0.789041,0.848817 -1.350934,0.848817 -0.490161,0 -0.76513,-0.442341 -0.76513,-1.147696 0,-0.657534 0.37061,-1.996513 0.597758,-2.49863 0.406476,-0.836862 0.968369,-1.267248 1.43462,-1.267248 0.789041,0 0.944459,0.980324 0.944459,1.075965 0,0.011956 -0.035866,0.167373 -0.047821,0.191283 z m 0.76513,-3.060523 C 4.23213,-4.794022 3.90934,-5.272229 3.287671,-5.272229 c -1.350934,0 -2.809464,1.745454 -2.809464,3.514819 0,1.183562 0.693399,1.876962 1.506351,1.876962 0.657534,0 1.219427,-0.514073 1.554172,-0.908593 0.119551,0.705355 0.681444,0.908593 1.040099,0.908593 0.358655,0 0.645579,-0.215193 0.860772,-0.645579 0.191283,-0.406476 0.358656,-1.135741 0.358656,-1.183562 0,-0.059776 -0.047821,-0.107597 -0.119552,-0.107597 -0.107597,0 -0.119552,0.059776 -0.167372,0.239104 -0.179328,0.705355 -0.406476,1.45853 -0.896638,1.45853 -0.3467,0 -0.37061,-0.310834 -0.37061,-0.549937 0,-0.274969 0.035865,-0.406476 0.143462,-0.872728 0.083686,-0.298879 0.143462,-0.561893 0.239103,-0.908592 0.442341,-1.793276 0.549938,-2.223662 0.549938,-2.295393 0,-0.167372 -0.131507,-0.298879 -0.310835,-0.298879 -0.382565,0 -0.478206,0.418431 -0.502117,0.561893 z"
                 id="equation_09_01"
                 inkscape:connector-curvature="0" />
            </defs>
            <g
               id="equation_09_g">
              <use
                 id="use3668"
                 xlink:href="#equation_09_01"
                 y="62.764633"
                 x="76.712326"
                 width="100%"
                 height="100%" />
              <use
                 id="use3670"
                 xlink:href="#equation_09_00"
                 y="64.557899"
                 x="82.857269"
                 width="100%"
                 height="100%" />
            </g>
          </g>
          <g
             title="\large$2$"
             style="fill:#000000"
             id="equation_10"
             transform="translate(70.159028,118.2615)">
            <defs
               id="defs3807">
              <path
                 d="M 5.260274,-2.008468 H 4.99726 C 4.961395,-1.80523 4.865753,-1.147696 4.746202,-0.956413 4.662516,-0.848817 3.981071,-0.848817 3.622416,-0.848817 H 1.41071 c 0.322789,-0.274969 1.052055,-1.0401 1.362889,-1.327024 1.817186,-1.673723 2.486675,-2.295392 2.486675,-3.478954 0,-1.374844 -1.08792,-2.295392 -2.47472,-2.295392 -1.3868,0 -2.199751,1.183562 -2.199751,2.211706 0,0.609714 0.526028,0.609714 0.561893,0.609714 0.251059,0 0.561893,-0.179328 0.561893,-0.561893 0,-0.334745 -0.227148,-0.561893 -0.561893,-0.561893 -0.107596,0 -0.131507,0 -0.167372,0.011955 0.227148,-0.812951 0.872727,-1.362889 1.649813,-1.362889 1.016189,0 1.637858,0.848817 1.637858,1.948692 0,1.01619 -0.585803,1.900872 -1.267248,2.666003 L 0.585803,-0.286924 V 0 H 4.94944 Z"
                 id="equation_10_00"
                 inkscape:connector-curvature="0" />
            </defs>
            <g
               id="equation_10_g">
              <use
                 id="use3809"
                 xlink:href="#equation_10_00"
                 y="62.764633"
                 x="76.712326"
                 width="100%"
                 height="100%" />
            </g>
          </g>
          <g
             title="\large$1$"
             style="fill:#000000"
             id="equation_11"
             transform="translate(-70.915214,45.975187)">
            <defs
               id="defs3949">
              <path
                 d="m 3.443088,-7.663263 c 0,-0.274969 0,-0.286924 -0.239103,-0.286924 -0.286924,0.32279 -0.884682,0.765131 -2.116065,0.765131 v 0.3467 c 0.274969,0 0.872728,0 1.530262,-0.310835 v 6.228643 c 0,0.430386 -0.035866,0.573848 -1.08792,0.573848 H 1.159651 V 0 c 0.32279,-0.02391 1.482441,-0.02391 1.876962,-0.02391 0.394521,0 1.542216,0 1.865006,0.02391 v -0.3467 h -0.37061 c -1.052055,0 -1.087921,-0.143462 -1.087921,-0.573848 z"
                 id="equation_11_00"
                 inkscape:connector-curvature="0" />
            </defs>
            <g
               id="equation_11_g">
              <use
                 id="use3951"
                 xlink:href="#equation_11_00"
                 y="62.764633"
                 x="76.712326"
                 width="100%"
                 height="100%" />
            </g>
          </g>
          <rect
             style="fill:none;fill-opacity:1;stroke:#000000;stroke-width:0.4;stroke-linecap:butt;stroke-linejoin:round;stroke-miterlimit:4;stroke-dasharray:0,4.4;stroke-dashoffset:0;stroke-opacity:0;paint-order:normal"
             id="rect3966"
             width="211.66666"
             height="187.85417"
             x="0.132238"
             y="0.99602032"
             inkscape:export-filename="C:\Users\h-nakashima\rect3966.png"
             inkscape:export-xdpi="300.10001"
             inkscape:export-ydpi="300.10001" />
        </g>
      </g>
    </g>
    <rect
       style="opacity:0.62295077;fill:none;fill-opacity:1;stroke:none;stroke-width:0.4025237;stroke-linecap:butt;stroke-linejoin:round;stroke-miterlimit:4;stroke-dasharray:0, 4.42776046999999995;stroke-dashoffset:0;stroke-opacity:1;paint-order:normal"
       id="rect3970"
       width="211.66666"
       height="182.5625"
       x="-1.2434498e-14"
       y="0.66665828"
       inkscape:export-filename="C:\Users\h-nakashima\rect3970.png"
       inkscape:export-xdpi="300.10001"
       inkscape:export-ydpi="300.10001" />
  </g>
</svg>
