<?xml version="1.0" encoding="UTF-8" standalone="no"?>
<!-- Created with Inkscape (http://www.inkscape.org/) -->

<svg
   xmlns:dc="http://purl.org/dc/elements/1.1/"
   xmlns:cc="http://creativecommons.org/ns#"
   xmlns:rdf="http://www.w3.org/1999/02/22-rdf-syntax-ns#"
   xmlns:svg="http://www.w3.org/2000/svg"
   xmlns="http://www.w3.org/2000/svg"
   xmlns:xlink="http://www.w3.org/1999/xlink"
   xmlns:sodipodi="http://sodipodi.sourceforge.net/DTD/sodipodi-0.dtd"
   xmlns:inkscape="http://www.inkscape.org/namespaces/inkscape"
   width="210mm"
   height="297mm"
   viewBox="0 0 210 297"
   version="1.1"
   id="svg8"
   inkscape:version="0.92.4 (5da689c313, 2019-01-14)"
   sodipodi:docname="第14回.svg">
  <defs
     id="defs2">
    <marker
       inkscape:stockid="Arrow1Mend"
       orient="auto"
       refY="0.0"
       refX="0.0"
       id="Arrow1Mend"
       style="overflow:visible;"
       inkscape:isstock="true">
      <path
         id="path830"
         d="M 0.0,0.0 L 5.0,-5.0 L -12.5,0.0 L 5.0,5.0 L 0.0,0.0 z "
         style="fill-rule:evenodd;stroke:#000000;stroke-width:1pt;stroke-opacity:1;fill:#000000;fill-opacity:1"
         transform="scale(0.4) rotate(180) translate(10,0)" />
    </marker>
    <marker
       inkscape:stockid="Arrow1Mend"
       orient="auto"
       refY="0"
       refX="0"
       id="Arrow1Mend-9"
       style="overflow:visible"
       inkscape:isstock="true">
      <path
         inkscape:connector-curvature="0"
         id="path830-2"
         d="M 0,0 5,-5 -12.5,0 5,5 Z"
         style="fill:#000000;fill-opacity:1;fill-rule:evenodd;stroke:#000000;stroke-width:1.00000003pt;stroke-opacity:1"
         transform="matrix(-0.4,0,0,-0.4,-4,0)" />
    </marker>
    <marker
       inkscape:stockid="Arrow1Mend"
       orient="auto"
       refY="0"
       refX="0"
       id="Arrow1Mend-6"
       style="overflow:visible"
       inkscape:isstock="true">
      <path
         inkscape:connector-curvature="0"
         id="path830-3"
         d="M 0,0 5,-5 -12.5,0 5,5 Z"
         style="fill:#000000;fill-opacity:1;fill-rule:evenodd;stroke:#000000;stroke-width:1.00000003pt;stroke-opacity:1"
         transform="matrix(-0.4,0,0,-0.4,-4,0)" />
    </marker>
    <marker
       inkscape:stockid="Arrow1Mend"
       orient="auto"
       refY="0"
       refX="0"
       id="Arrow1Mend-9-2"
       style="overflow:visible"
       inkscape:isstock="true">
      <path
         inkscape:connector-curvature="0"
         id="path830-2-3"
         d="M 0,0 5,-5 -12.5,0 5,5 Z"
         style="fill:#000000;fill-opacity:1;fill-rule:evenodd;stroke:#000000;stroke-width:1.00000003pt;stroke-opacity:1"
         transform="matrix(-0.4,0,0,-0.4,-4,0)" />
    </marker>
    <marker
       inkscape:stockid="Arrow1Mend"
       orient="auto"
       refY="0"
       refX="0"
       id="Arrow1Mend-8"
       style="overflow:visible"
       inkscape:isstock="true">
      <path
         inkscape:connector-curvature="0"
         id="path830-6"
         d="M 0,0 5,-5 -12.5,0 5,5 Z"
         style="fill:#000000;fill-opacity:1;fill-rule:evenodd;stroke:#000000;stroke-width:1.00000003pt;stroke-opacity:1"
         transform="matrix(-0.4,0,0,-0.4,-4,0)" />
    </marker>
    <path
       d="m 4.241096,-2.86924 c 0,-0.600748 -0.026899,-1.371856 -0.340722,-2.044334 -0.394521,-0.842839 -1.075966,-1.058032 -1.596015,-1.058032 -0.537983,0 -1.219427,0.215193 -1.613948,1.075965 -0.286924,0.61868 -0.331756,1.344956 -0.331756,2.026401 0,0.582814 0.017933,1.452553 0.403487,2.160896 0.42142,0.762142 1.120797,0.905604 1.53325,0.905604 0.582815,0 1.246327,-0.251058 1.622914,-1.075965 0.268992,-0.600747 0.32279,-1.273225 0.32279,-1.990535 z m -1.936737,2.842341 c -0.268992,0 -0.914571,-0.125529 -1.084932,-1.13873 -0.089664,-0.529016 -0.089664,-1.300124 -0.089664,-1.811208 0,-0.609713 0,-1.318057 0.107597,-1.811208 0.179327,-0.798007 0.753175,-0.959402 1.058032,-0.959402 0.340723,0 0.905604,0.179327 1.075965,1.0132 0.098631,0.493151 0.098631,1.192528 0.098631,1.75741 0,0.555915 0,1.309091 -0.089664,1.838107 -0.188294,1.022167 -0.851806,1.111831 -1.075965,1.111831 z"
       id="equation_00_00-5"
       inkscape:connector-curvature="0" />
    <path
       d="m 2.725778,-5.729514 c 0,-0.22416 -0.00897,-0.242092 -0.233125,-0.242092 -0.555916,0.573848 -1.380822,0.573848 -1.65878,0.573848 v 0.277957 c 0.170361,0 0.71731,0 1.201494,-0.233126 v 4.635617 c 0,0.331756 -0.026899,0.439352 -0.860772,0.439352 H 0.887671 V 0 c 0.32279,-0.026899 1.120797,-0.026899 1.488419,-0.026899 0.367622,0 1.174595,0 1.497384,0.026899 V -0.277958 H 3.58655 c -0.833873,0 -0.860772,-0.107596 -0.860772,-0.439352 z"
       id="equation_01_00-6"
       inkscape:connector-curvature="0" />
    <path
       d="m 4.411457,-3.622416 c -0.331756,0.062765 -0.430386,0.349689 -0.430386,0.484184 0,0.170362 0.125529,0.32279 0.349689,0.32279 0.251058,0 0.49315,-0.215193 0.49315,-0.529016 0,-0.412454 -0.448318,-0.61868 -0.869738,-0.61868 -0.537983,0 -0.851806,0.475218 -0.959402,0.663512 -0.170362,-0.439353 -0.564882,-0.663512 -0.995268,-0.663512 -0.959402,0 -1.479452,1.147696 -1.479452,1.380822 0,0.080697 0.062764,0.107596 0.125529,0.107596 0.080697,0 0.107597,-0.044832 0.125529,-0.09863 0.277958,-0.887671 0.869739,-1.165629 1.210461,-1.165629 0.260025,0 0.493151,0.170361 0.493151,0.591781 0,0.32279 -0.385554,1.75741 -0.502117,2.187796 -0.071731,0.277957 -0.340723,0.833873 -0.833873,0.833873 -0.179328,0 -0.367622,-0.062765 -0.457285,-0.116563 0.242092,-0.044832 0.421419,-0.251059 0.421419,-0.484184 0,-0.22416 -0.170361,-0.32279 -0.340722,-0.32279 -0.260025,0 -0.493151,0.224159 -0.493151,0.529016 0,0.439353 0.484185,0.61868 0.860772,0.61868 0.52005,0 0.824907,-0.430386 0.959403,-0.672478 0.224159,0.591781 0.753175,0.672478 0.995267,0.672478 0.968369,0 1.479452,-1.165629 1.479452,-1.380822 0,-0.044832 -0.026899,-0.107596 -0.116562,-0.107596 -0.098631,0 -0.107597,0.035865 -0.152429,0.170361 -0.19726,0.645579 -0.71731,1.093898 -1.183561,1.093898 -0.260025,0 -0.502118,-0.161395 -0.502118,-0.591781 0,-0.19726 0.12553,-0.690411 0.206227,-1.031133 0.035866,-0.161395 0.277958,-1.129764 0.295891,-1.192528 0.107596,-0.32279 0.376587,-0.798008 0.833872,-0.798008 0.161395,0 0.331756,0.026899 0.466252,0.116563 z"
       id="equation_02_00-8"
       inkscape:connector-curvature="0" />
  </defs>
  <sodipodi:namedview
     id="base"
     pagecolor="#ffffff"
     bordercolor="#666666"
     borderopacity="1.0"
     inkscape:pageopacity="0.0"
     inkscape:pageshadow="2"
     inkscape:zoom="0.49497475"
     inkscape:cx="-1740.5412"
     inkscape:cy="1011.0351"
     inkscape:document-units="mm"
     inkscape:current-layer="layer1"
     showgrid="true"
     inkscape:window-width="1389"
     inkscape:window-height="1039"
     inkscape:window-x="456"
     inkscape:window-y="0"
     inkscape:window-maximized="0">
    <inkscape:grid
       id="grid817"
       type="xygrid" />
  </sodipodi:namedview>
  <metadata
     id="metadata5">
    <rdf:RDF>
      <cc:Work
         rdf:about="">
        <dc:format>image/svg+xml</dc:format>
        <dc:type
           rdf:resource="http://purl.org/dc/dcmitype/StillImage" />
        <dc:title />
      </cc:Work>
    </rdf:RDF>
  </metadata>
  <g
     inkscape:label="レイヤー 1"
     inkscape:groupmode="layer"
     id="layer1">
    <rect
       style="opacity:1;fill:none;fill-opacity:1;fill-rule:nonzero;stroke:#000000;stroke-width:0;stroke-miterlimit:4;stroke-dasharray:none;stroke-dashoffset:0;stroke-opacity:1"
       id="rect815"
       width="200"
       height="80"
       x="-483.80951"
       y="-18.988094"
       inkscape:export-xdpi="300"
       inkscape:export-ydpi="300" />
    <path
       style="fill:none;stroke:#000000;stroke-width:0.8;stroke-linecap:butt;stroke-linejoin:miter;stroke-opacity:1;stroke-miterlimit:4;stroke-dasharray:none;marker-end:url(#Arrow1Mend)"
       d="m -481.54166,21.833333 c 190.5,0 190.5,0 190.5,0"
       id="path819"
       inkscape:connector-curvature="0" />
    <path
       style="fill:none;stroke:#000000;stroke-width:0.26458332px;stroke-linecap:butt;stroke-linejoin:miter;stroke-opacity:1"
       d="m -441.85416,27.125001 c 0,-10.583335 0,-10.583335 0,-10.583335"
       id="path1103"
       inkscape:connector-curvature="0" />
    <path
       style="fill:none;stroke:#000000;stroke-width:0.26458332px;stroke-linecap:butt;stroke-linejoin:miter;stroke-opacity:1"
       d="m -410.10413,27.124998 c 0,-10.583335 0,-10.583335 0,-10.583335"
       id="path1103-8"
       inkscape:connector-curvature="0" />
    <g
       title="{\small$0$}"
       style="fill:#000000"
       id="equation_00"
       transform="translate(-515.59603,21.860232)">
      <defs
         id="defs1131">
        <path
           d="m 4.241096,-2.86924 c 0,-0.600748 -0.026899,-1.371856 -0.340722,-2.044334 -0.394521,-0.842839 -1.075966,-1.058032 -1.596015,-1.058032 -0.537983,0 -1.219427,0.215193 -1.613948,1.075965 -0.286924,0.61868 -0.331756,1.344956 -0.331756,2.026401 0,0.582814 0.017933,1.452553 0.403487,2.160896 0.42142,0.762142 1.120797,0.905604 1.53325,0.905604 0.582815,0 1.246327,-0.251058 1.622914,-1.075965 0.268992,-0.600747 0.32279,-1.273225 0.32279,-1.990535 z m -1.936737,2.842341 c -0.268992,0 -0.914571,-0.125529 -1.084932,-1.13873 -0.089664,-0.529016 -0.089664,-1.300124 -0.089664,-1.811208 0,-0.609713 0,-1.318057 0.107597,-1.811208 0.179327,-0.798007 0.753175,-0.959402 1.058032,-0.959402 0.340723,0 0.905604,0.179327 1.075965,1.0132 0.098631,0.493151 0.098631,1.192528 0.098631,1.75741 0,0.555915 0,1.309091 -0.089664,1.838107 -0.188294,1.022167 -0.851806,1.111831 -1.075965,1.111831 z"
           id="equation_00_00"
           inkscape:connector-curvature="0" />
      </defs>
      <g
         id="equation_00_g">
        <use
           id="use1133"
           xlink:href="#equation_00_00"
           y="62.764633"
           x="76.712326"
           width="100%"
           height="100%" />
      </g>
    </g>
    <g
       title="{\small$1$}"
       style="fill:#000000"
       id="equation_01"
       transform="translate(-503.596,-25.791667)">
      <defs
         id="defs1161">
        <path
           d="m 2.725778,-5.729514 c 0,-0.22416 -0.00897,-0.242092 -0.233125,-0.242092 -0.555916,0.573848 -1.380822,0.573848 -1.65878,0.573848 v 0.277957 c 0.170361,0 0.71731,0 1.201494,-0.233126 v 4.635617 c 0,0.331756 -0.026899,0.439352 -0.860772,0.439352 H 0.887671 V 0 c 0.32279,-0.026899 1.120797,-0.026899 1.488419,-0.026899 0.367622,0 1.174595,0 1.497384,0.026899 V -0.277958 H 3.58655 c -0.833873,0 -0.860772,-0.107596 -0.860772,-0.439352 z"
           id="equation_01_00"
           inkscape:connector-curvature="0" />
      </defs>
      <g
         id="equation_01_g">
        <use
           id="use1163"
           xlink:href="#equation_01_00"
           y="62.764633"
           x="76.712326"
           width="100%"
           height="100%" />
      </g>
    </g>
    <path
       style="fill:none;stroke:#000000;stroke-width:0.26458332px;stroke-linecap:butt;stroke-linejoin:miter;stroke-opacity:1"
       d="m -330.72909,27.125002 c 0,-10.583335 0,-10.583335 0,-10.583335"
       id="path1103-8-0"
       inkscape:connector-curvature="0" />
    <g
       title="{\small$x$}"
       style="fill:#000000"
       id="equation_02"
       transform="translate(-460.46818,-62.323971)">
      <defs
         id="defs1212">
        <path
           d="m 4.411457,-3.622416 c -0.331756,0.062765 -0.430386,0.349689 -0.430386,0.484184 0,0.170362 0.125529,0.32279 0.349689,0.32279 0.251058,0 0.49315,-0.215193 0.49315,-0.529016 0,-0.412454 -0.448318,-0.61868 -0.869738,-0.61868 -0.537983,0 -0.851806,0.475218 -0.959402,0.663512 -0.170362,-0.439353 -0.564882,-0.663512 -0.995268,-0.663512 -0.959402,0 -1.479452,1.147696 -1.479452,1.380822 0,0.080697 0.062764,0.107596 0.125529,0.107596 0.080697,0 0.107597,-0.044832 0.125529,-0.09863 0.277958,-0.887671 0.869739,-1.165629 1.210461,-1.165629 0.260025,0 0.493151,0.170361 0.493151,0.591781 0,0.32279 -0.385554,1.75741 -0.502117,2.187796 -0.071731,0.277957 -0.340723,0.833873 -0.833873,0.833873 -0.179328,0 -0.367622,-0.062765 -0.457285,-0.116563 0.242092,-0.044832 0.421419,-0.251059 0.421419,-0.484184 0,-0.22416 -0.170361,-0.32279 -0.340722,-0.32279 -0.260025,0 -0.493151,0.224159 -0.493151,0.529016 0,0.439353 0.484185,0.61868 0.860772,0.61868 0.52005,0 0.824907,-0.430386 0.959403,-0.672478 0.224159,0.591781 0.753175,0.672478 0.995267,0.672478 0.968369,0 1.479452,-1.165629 1.479452,-1.380822 0,-0.044832 -0.026899,-0.107596 -0.116562,-0.107596 -0.098631,0 -0.107597,0.035865 -0.152429,0.170361 -0.19726,0.645579 -0.71731,1.093898 -1.183561,1.093898 -0.260025,0 -0.502118,-0.161395 -0.502118,-0.591781 0,-0.19726 0.12553,-0.690411 0.206227,-1.031133 0.035866,-0.161395 0.277958,-1.129764 0.295891,-1.192528 0.107596,-0.32279 0.376587,-0.798008 0.833872,-0.798008 0.161395,0 0.331756,0.026899 0.466252,0.116563 z"
           id="equation_02_00"
           inkscape:connector-curvature="0" />
      </defs>
      <g
         id="equation_02_g">
        <use
           id="use1214"
           xlink:href="#equation_02_00"
           y="62.764633"
           x="76.712326"
           width="100%"
           height="100%" />
      </g>
    </g>
    <path
       style="fill:none;stroke:#000000;stroke-width:0.26458332px;stroke-linecap:butt;stroke-linejoin:miter;stroke-opacity:1"
       d="m -441.85416,22.306731 c 15.875,10.583334 31.75,0 31.75,0"
       id="path1226"
       inkscape:connector-curvature="0" />
    <path
       style="fill:none;stroke:#000000;stroke-width:0.26458332px;stroke-linecap:butt;stroke-linejoin:miter;stroke-opacity:1"
       d="m -441.85416,21.304166 c 60.85416,-31.750001 111.125,0 111.125,0"
       id="path1243"
       inkscape:connector-curvature="0" />
    <rect
       style="opacity:1;fill:none;fill-opacity:1;fill-rule:nonzero;stroke:#000000;stroke-width:0;stroke-miterlimit:4;stroke-dasharray:none;stroke-dashoffset:0;stroke-opacity:1"
       id="rect4552"
       width="200"
       height="168.25002"
       x="-495.29996"
       y="233.49998"
       inkscape:export-xdpi="300.10001"
       inkscape:export-ydpi="300.10001" />
    <path
       style="fill:none;stroke:#000000;stroke-width:0.80000001;stroke-linecap:butt;stroke-linejoin:miter;stroke-miterlimit:4;stroke-dasharray:none;stroke-opacity:1;marker-end:url(#Arrow1Mend-9)"
       d="m -490.53746,376.37502 c 190.5,0 190.5,0 190.5,0"
       id="path819-8"
       inkscape:connector-curvature="0" />
    <path
       style="fill:none;stroke:#000000;stroke-width:0.80000001;stroke-linecap:butt;stroke-linejoin:miter;stroke-miterlimit:4;stroke-dasharray:none;stroke-opacity:1;marker-end:url(#Arrow1Mend-6)"
       d="m -459.31664,395.95415 c 0,-146.57916 0,-146.57916 0,-146.57916"
       id="path819-9"
       inkscape:connector-curvature="0" />
    <rect
       style="opacity:1;fill:none;fill-opacity:1;fill-rule:nonzero;stroke:#000000;stroke-width:0.30000001;stroke-miterlimit:4;stroke-dasharray:none;stroke-dashoffset:0;stroke-opacity:1"
       id="rect4871"
       width="160"
       height="160"
       x="-709.08307"
       y="159.41667" />
    <path
       id="path5077"
       title="atan(x)"
       d="m -458.25817,375.50839 c 0.0534,-0.35591 0.10677,-0.71182 0.16016,-1.06759 0.0534,-0.35577 0.10677,-0.7114 0.16016,-1.06674 0.0534,-0.35534 0.10677,-0.7104 0.16016,-1.06503 0.0534,-0.35463 0.10677,-0.70884 0.16016,-1.06248 0.0534,-0.35365 0.10677,-0.70673 0.16016,-1.05911 0.0534,-0.35238 0.10677,-0.70406 0.16016,-1.05491 0.0534,-0.35085 0.10677,-0.70086 0.16016,-1.04992 0.0534,-0.34906 0.10677,-0.69715 0.16016,-1.04416 0.0534,-0.34701 0.10677,-0.69294 0.16016,-1.03766 0.0534,-0.34472 0.10677,-0.68823 0.16016,-1.03043 0.0534,-0.3422 0.10677,-0.68307 0.16016,-1.02252 0.0534,-0.33945 0.10677,-0.67747 0.16016,-1.01396 0.0534,-0.3365 0.10677,-0.67145 0.16016,-1.00479 0.0534,-0.33333 0.10677,-0.66503 0.16016,-0.99502 0.0534,-0.32999 0.10677,-0.65826 0.16016,-0.98473 0.0534,-0.32648 0.10677,-0.65114 0.16016,-0.97394 0.0534,-0.32279 0.10677,-0.6437 0.16016,-0.96267 0.0534,-0.31896 0.10677,-0.63598 0.16016,-0.95098 0.0534,-0.31501 0.10677,-0.628 0.16016,-0.93893 0.0534,-0.31092 0.10677,-0.61977 0.16016,-0.92651 0.0534,-0.30674 0.10677,-0.61135 0.16016,-0.9138 0.0534,-0.30246 0.10677,-0.60274 0.16016,-0.90083 0.0534,-0.29809 0.10677,-0.59397 0.16016,-0.88762 0.0534,-0.29365 0.10677,-0.58507 0.16016,-0.87423 0.0534,-0.28915 0.10677,-0.57605 0.16016,-0.86066 0.0534,-0.28462 0.10677,-0.56695 0.16016,-0.84699 0.0534,-0.28004 0.10677,-0.55778 0.16016,-0.83321 0.0534,-0.27544 0.10677,-0.54856 0.16016,-0.81938 0.0534,-0.27081 0.10677,-0.53931 0.16016,-0.8055 0.0534,-0.26619 0.10677,-0.53006 0.16016,-0.79162 0.0534,-0.26156 0.10677,-0.52081 0.16016,-0.77775 0.0534,-0.25695 0.10678,-0.51159 0.16016,-0.76393 0.0534,-0.25235 0.10678,-0.50239 0.16016,-0.75016 0.0534,-0.24777 0.10678,-0.49326 0.16016,-0.73648 0.0534,-0.24322 0.10678,-0.48417 0.16016,-0.72288 0.0534,-0.23872 0.10678,-0.47517 0.16016,-0.70942 0.0534,-0.23424 0.10678,-0.46625 0.16016,-0.69606 0.0534,-0.22982 0.10678,-0.45743 0.16016,-0.68287 0.0534,-0.22544 0.10678,-0.4487 0.16016,-0.66981 0.0534,-0.22112 0.10678,-0.44008 0.16016,-0.65694 0.0534,-0.21685 0.10678,-0.43157 0.16016,-0.64422 0.0534,-0.21265 0.10678,-0.4232 0.16016,-0.6317 0.0534,-0.2085 0.10678,-0.41494 0.16016,-0.61936 0.0534,-0.20442 0.10678,-0.40682 0.16016,-0.60722 0.0534,-0.20041 0.10678,-0.39882 0.16016,-0.59529 0.0534,-0.19646 0.10678,-0.39096 0.16016,-0.58354 0.0534,-0.19259 0.10678,-0.38325 0.16016,-0.57202 0.0534,-0.18878 0.10678,-0.37567 0.16016,-0.56071 0.0534,-0.18504 0.10678,-0.36822 0.16016,-0.54959 0.0534,-0.18138 0.10678,-0.36093 0.16016,-0.53871 0.0534,-0.17778 0.10678,-0.35378 0.16016,-0.52803 0.0534,-0.17426 0.10678,-0.34676 0.16016,-0.51757 0.0534,-0.1708 0.10678,-0.33989 0.16017,-0.50732 0.0534,-0.16742 0.10677,-0.33316 0.16016,-0.49727 0.0534,-0.16412 0.10677,-0.32658 0.16016,-0.48746 0.0534,-0.16087 0.10677,-0.32013 0.16016,-0.47783 0.0534,-0.1577 0.10677,-0.31383 0.16016,-0.46842 0.0534,-0.1546 0.10677,-0.30766 0.16016,-0.45922 0.0534,-0.15157 0.10677,-0.30163 0.16016,-0.45022 0.0534,-0.1486 0.10677,-0.29572 0.16016,-0.44142 0.0534,-0.14569 0.10677,-0.28995 0.16016,-0.43281 0.0534,-0.14285 0.10677,-0.28431 0.16016,-0.42439 0.0534,-0.14009 0.10677,-0.2788 0.16016,-0.41618 0.0534,-0.13738 0.10677,-0.27341 0.16016,-0.40814 0.0534,-0.13473 0.10677,-0.26815 0.16016,-0.40029 0.0534,-0.13215 0.10677,-0.26301 0.16016,-0.39263 0.0534,-0.12962 0.10677,-0.25798 0.16016,-0.38513 0.0534,-0.12715 0.10677,-0.25307 0.16016,-0.37781 0.0534,-0.12474 0.10677,-0.24828 0.16016,-0.37067 0.0534,-0.12238 0.10677,-0.24359 0.16016,-0.36368 0.0534,-0.12008 0.10677,-0.23902 0.16016,-0.35686 0.0534,-0.11783 0.10677,-0.23455 0.16016,-0.35019 0.0534,-0.11564 0.10677,-0.2302 0.16016,-0.3437 0.0534,-0.11349 0.10677,-0.22593 0.16016,-0.33734 0.0534,-0.1114 0.10677,-0.22177 0.16016,-0.33113 0.0534,-0.10936 0.10677,-0.21771 0.16016,-0.32507 0.0534,-0.10736 0.10677,-0.21374 0.16016,-0.31915 0.0534,-0.10542 0.10677,-0.20986 0.16016,-0.31337 0.0534,-0.10351 0.10677,-0.20608 0.16016,-0.30773 0.0534,-0.10165 0.10677,-0.20238 0.16016,-0.30221 0.0534,-0.0998 0.10677,-0.19876 0.16016,-0.29682 0.0534,-0.0981 0.10677,-0.19523 0.16016,-0.29156 0.0534,-0.0963 0.10677,-0.19179 0.16016,-0.28642 0.0534,-0.0946 0.10677,-0.18842 0.16016,-0.28139 0.0534,-0.093 0.10677,-0.18513 0.16016,-0.27649 0.0534,-0.0914 0.10677,-0.18192 0.16016,-0.2717 0.0534,-0.0898 0.10677,-0.17877 0.16016,-0.26701 0.0534,-0.0882 0.10677,-0.17571 0.16016,-0.26243 0.0534,-0.0867 0.10677,-0.17271 0.16016,-0.25797 0.0534,-0.0852 0.10677,-0.16977 0.16016,-0.25359 0.0534,-0.0838 0.10677,-0.16691 0.16016,-0.24932 0.0534,-0.0824 0.10677,-0.16411 0.16016,-0.24514 0.0534,-0.081 0.10677,-0.16138 0.16016,-0.24106 0.0534,-0.0797 0.10678,-0.15871 0.16016,-0.23708 0.0534,-0.0784 0.10678,-0.15608 0.16016,-0.23317 0.0534,-0.0771 0.10678,-0.15353 0.16016,-0.22935 0.0534,-0.0758 0.10678,-0.15103 0.16016,-0.22563 0.0534,-0.0746 0.10678,-0.14859 0.16016,-0.22198 0.0534,-0.0734 0.10678,-0.1462 0.16016,-0.21842 0.0534,-0.0722 0.10678,-0.14385 0.16016,-0.21492 0.0534,-0.0711 0.10678,-0.14157 0.16016,-0.21151 0.0534,-0.0699 0.10678,-0.13933 0.16016,-0.20817 0.0534,-0.0688 0.10678,-0.13714 0.16016,-0.20491 0.0534,-0.0678 0.10678,-0.135 0.16016,-0.20171 0.0534,-0.0667 0.10678,-0.1329 0.16016,-0.19858 0.0534,-0.0657 0.10678,-0.13085 0.16016,-0.19552 0.0534,-0.0647 0.10678,-0.12885 0.16016,-0.19253 0.0534,-0.0637 0.10678,-0.12688 0.16016,-0.1896 0.0534,-0.0627 0.10678,-0.12495 0.16016,-0.18672 0.0534,-0.0618 0.10678,-0.12307 0.16016,-0.18391 0.0534,-0.0608 0.10678,-0.12123 0.16016,-0.18116 0.0534,-0.0599 0.10678,-0.11943 0.16016,-0.17847 0.0534,-0.0591 0.10678,-0.11766 0.16016,-0.17583 0.0534,-0.0582 0.10678,-0.11592 0.16016,-0.17325 0.0534,-0.0573 0.10678,-0.11422 0.16017,-0.17071 0.0534,-0.0565 0.10677,-0.11256 0.16016,-0.16824 0.0534,-0.0557 0.10677,-0.11093 0.16016,-0.1658 0.0534,-0.0549 0.10677,-0.10934 0.16016,-0.16343 0.0534,-0.0541 0.10677,-0.10777 0.16016,-0.16109 0.0534,-0.0533 0.10677,-0.10625 0.16016,-0.15881 0.0534,-0.0526 0.10677,-0.10474 0.16016,-0.15656 0.0534,-0.0518 0.10677,-0.10328 0.16016,-0.15437 0.0534,-0.0511 0.10677,-0.10184 0.16016,-0.15222 0.0534,-0.0504 0.10677,-0.10042 0.16016,-0.15011 0.0534,-0.0497 0.10677,-0.099 0.16016,-0.14804 0.0534,-0.049 0.10677,-0.0977 0.16016,-0.14602 0.0534,-0.0483 0.10677,-0.0963 0.16016,-0.14402 0.0534,-0.0477 0.10677,-0.095 0.16016,-0.14207 0.0534,-0.047 0.10677,-0.0937 0.16016,-0.14016 0.0534,-0.0464 0.10677,-0.0925 0.16016,-0.13828 0.0534,-0.0458 0.10677,-0.0913 0.16016,-0.13644 0.0534,-0.0452 0.10677,-0.0901 0.16016,-0.13464 0.0534,-0.0446 0.10677,-0.0889 0.16016,-0.13286 0.0534,-0.044 0.10677,-0.0877 0.16016,-0.13112 0.0534,-0.0434 0.10677,-0.0865 0.16016,-0.12941 0.0534,-0.0429 0.10677,-0.0854 0.16016,-0.12774 0.0534,-0.0423 0.10677,-0.0843 0.16016,-0.12609 0.0534,-0.0418 0.10677,-0.0833 0.16016,-0.12448 0.0534,-0.0412 0.10677,-0.0822 0.16016,-0.1229 0.0534,-0.0407 0.10677,-0.0812 0.16016,-0.12134 0.0534,-0.0402 0.10677,-0.0801 0.16016,-0.11981 0.0534,-0.0397 0.10677,-0.0791 0.16016,-0.11831 0.0534,-0.0392 0.10677,-0.0781 0.16016,-0.11684 0.0534,-0.0387 0.10677,-0.0772 0.16016,-0.11539 0.0534,-0.0382 0.10677,-0.0762 0.16016,-0.11396 0.0534,-0.0378 0.10677,-0.0753 0.16016,-0.11258 0.0534,-0.0373 0.10677,-0.0743 0.16016,-0.11119 0.0534,-0.0368 0.10677,-0.0735 0.16016,-0.10986 0.0534,-0.0364 0.10677,-0.0726 0.16016,-0.10852 0.0534,-0.036 0.10677,-0.0717 0.16016,-0.10723 0.0534,-0.0355 0.10677,-0.0708 0.16016,-0.10594 0.0534,-0.0351 0.10677,-0.07 0.16016,-0.10469 0.0534,-0.0347 0.10677,-0.0692 0.16016,-0.10345 0.0534,-0.0343 0.10677,-0.0684 0.16016,-0.10224 0.0534,-0.0339 0.10677,-0.0676 0.16016,-0.10104 0.0534,-0.0335 0.10677,-0.0668 0.16016,-0.0999 0.0534,-0.0331 0.10678,-0.066 0.16016,-0.0987 0.0534,-0.0327 0.10678,-0.0652 0.16016,-0.0976 0.0534,-0.0323 0.10678,-0.0645 0.16016,-0.0965 0.0534,-0.032 0.10678,-0.0637 0.16016,-0.0954 0.0534,-0.0316 0.10678,-0.063 0.16016,-0.0943 0.0534,-0.0312 0.10678,-0.0623 0.16016,-0.0932 0.0534,-0.0309 0.10678,-0.0616 0.16016,-0.0922 0.0534,-0.0306 0.10678,-0.0609 0.16016,-0.0911 0.0534,-0.0302 0.10678,-0.0603 0.16016,-0.0901 0.0534,-0.0299 0.10678,-0.0596 0.16016,-0.0891 0.0534,-0.0296 0.10678,-0.0589 0.16016,-0.0882 0.0534,-0.0292 0.10678,-0.0583 0.16016,-0.0872 0.0534,-0.0289 0.10678,-0.0577 0.16016,-0.0863 0.0534,-0.0286 0.10678,-0.057 0.16016,-0.0853 0.0534,-0.0283 0.10678,-0.0564 0.16016,-0.0844 0.0534,-0.028 0.10678,-0.0558 0.16016,-0.0835 0.0534,-0.0277 0.10678,-0.0552 0.16016,-0.0826 0.0534,-0.0274 0.10678,-0.0546 0.16016,-0.0817 0.0534,-0.0271 0.10678,-0.054 0.16016,-0.0809 0.0534,-0.0268 0.10678,-0.0535 0.16016,-0.08 0.0534,-0.0265 0.10678,-0.0529 0.16017,-0.0792 0.0534,-0.0263 0.10677,-0.0524 0.16016,-0.0784 0.0534,-0.026 0.10677,-0.0518 0.16016,-0.0775 0.0534,-0.0257 0.10677,-0.0513 0.16016,-0.0767 0.0534,-0.0255 0.10677,-0.0508 0.16016,-0.076 0.0534,-0.0252 0.10677,-0.0502 0.16016,-0.0752 0.0534,-0.0249 0.10677,-0.0497 0.16016,-0.0744 0.0534,-0.0247 0.10677,-0.0492 0.16016,-0.0737 0.0534,-0.0244 0.10677,-0.0487 0.16016,-0.0729 0.0534,-0.0242 0.10677,-0.0482 0.16016,-0.0722 0.0534,-0.0239 0.10677,-0.0478 0.16016,-0.0715 0.0534,-0.0237 0.10677,-0.0473 0.16016,-0.0708 0.0534,-0.0235 0.10677,-0.0468 0.16016,-0.0701 0.0534,-0.0232 0.10677,-0.0464 0.16016,-0.0694 0.0534,-0.023 0.10677,-0.0459 0.16016,-0.0687 0.0534,-0.0228 0.10677,-0.0455 0.16016,-0.068 0.0534,-0.0226 0.10677,-0.045 0.16016,-0.0674 0.0534,-0.0223 0.10677,-0.0446 0.16016,-0.0667 0.0534,-0.0221 0.10677,-0.0442 0.16016,-0.0661 0.0534,-0.0219 0.10677,-0.0437 0.16016,-0.0654 0.0534,-0.0217 0.10677,-0.0433 0.16016,-0.0648 0.0534,-0.0215 0.10677,-0.0429 0.16016,-0.0642 0.0534,-0.0213 0.10677,-0.0425 0.16016,-0.0636 0.0534,-0.0211 0.10677,-0.0421 0.16016,-0.063 0.0534,-0.0209 0.10677,-0.0417 0.16016,-0.0624 0.0534,-0.0207 0.10677,-0.0413 0.16016,-0.0618 0.0534,-0.0205 0.10677,-0.0409 0.16016,-0.0612 0.0534,-0.0203 0.10677,-0.0405 0.16016,-0.0607 0.0534,-0.0201 0.10677,-0.0402 0.16016,-0.0601 0.0534,-0.0199 0.10677,-0.0398 0.16016,-0.0596 0.0534,-0.0198 0.10677,-0.0394 0.16016,-0.059 0.0534,-0.0196 0.10677,-0.0391 0.16016,-0.0585 0.0534,-0.0194 0.10677,-0.0387 0.16016,-0.058 0.0534,-0.0192 0.10677,-0.0384 0.16016,-0.0574 0.0534,-0.0191 0.10677,-0.038 0.16016,-0.0569 0.0534,-0.0189 0.10677,-0.0377 0.16016,-0.0564 0.0534,-0.0187 0.10677,-0.0374 0.16016,-0.0559 0.0534,-0.0186 0.10677,-0.037 0.16016,-0.0554 0.0534,-0.0184 0.10677,-0.0367 0.16016,-0.0549 0.0534,-0.0182 0.10677,-0.0364 0.16016,-0.0544 0.0534,-0.0181 0.10677,-0.0361 0.16016,-0.054 0.0534,-0.0179 0.10677,-0.0357 0.16016,-0.0535 0.0534,-0.0178 0.10678,-0.0354 0.16016,-0.053 0.0534,-0.0176 0.10678,-0.0351 0.16016,-0.0526 0.0534,-0.0174 0.10678,-0.0348 0.16016,-0.0521 0.0534,-0.0173 0.10678,-0.0345 0.16016,-0.0517 0.0534,-0.0171 0.10678,-0.0342 0.16016,-0.0512 0.0534,-0.017 0.10678,-0.0339 0.16016,-0.0508 0.0534,-0.0169 0.10678,-0.0336 0.16016,-0.0504 0.0534,-0.0167 0.10678,-0.0334 0.16016,-0.0499 0.0534,-0.0166 0.10678,-0.0331 0.16016,-0.0495 0.0534,-0.0164 0.10678,-0.0328 0.16016,-0.0491 0.0534,-0.0163 0.10678,-0.0325 0.16016,-0.0487 0.0534,-0.0162 0.10678,-0.0323 0.16016,-0.0483 0.0534,-0.016 0.10678,-0.032 0.16016,-0.0479 0.0534,-0.0159 0.10678,-0.0317 0.16016,-0.0475 0.0534,-0.0158 0.10678,-0.0315 0.16016,-0.0471 0.0534,-0.0156 0.10678,-0.0312 0.16016,-0.0467 0.0534,-0.0155 0.10678,-0.0309 0.16016,-0.0463 0.0534,-0.0154 0.10678,-0.0307 0.16016,-0.046 0.0534,-0.0153 0.10678,-0.0305 0.16016,-0.0456 0.0534,-0.0151 0.10678,-0.0302 0.16016,-0.0452 0.0534,-0.015 0.10678,-0.03 0.16016,-0.0449 0.0534,-0.0149 0.10678,-0.0297 0.16017,-0.0445 0.0534,-0.0148 0.10677,-0.0295 0.16016,-0.0442 0.0534,-0.0147 0.10677,-0.0293 0.16016,-0.0438 0.0534,-0.0145 0.10677,-0.029 0.16016,-0.0435 0.0534,-0.0144 0.10677,-0.0288 0.16016,-0.0431 0.0534,-0.0143 0.10677,-0.0286 0.16016,-0.0428 0.0534,-0.0142 0.10677,-0.0284 0.16016,-0.0425 0.0534,-0.0141 0.10677,-0.0281 0.16016,-0.0421 0.0534,-0.014 0.10677,-0.0279 0.16016,-0.0418 0.0534,-0.0139 0.10677,-0.0277 0.16016,-0.0415 0.0534,-0.0138 0.10677,-0.0275 0.16016,-0.0412 0.0534,-0.0137 0.10677,-0.0273 0.16016,-0.0408 0.0534,-0.0136 0.10677,-0.0271 0.16016,-0.0405 0.0534,-0.0135 0.10677,-0.0269 0.16016,-0.0402 0.0534,-0.0134 0.10677,-0.0266 0.16016,-0.0399 0.0534,-0.0133 0.10677,-0.0265 0.16016,-0.0396 0.0534,-0.0131 0.10677,-0.0263 0.16016,-0.0393 0.0534,-0.013 0.10677,-0.026 0.16016,-0.039 0.0534,-0.013 0.10677,-0.0259 0.16016,-0.0387 0.0534,-0.0129 0.10677,-0.0257 0.16016,-0.0384 0.0534,-0.0128 0.10677,-0.0255 0.16016,-0.0382 0.0534,-0.0127 0.10677,-0.0253 0.16016,-0.0379 0.0534,-0.0126 0.10677,-0.0251 0.16016,-0.0376 0.0534,-0.0125 0.10677,-0.0249 0.16016,-0.0373 0.0534,-0.0124 0.10677,-0.0247 0.16016,-0.037 0.0534,-0.0123 0.10677,-0.0246 0.16016,-0.0368 0.0534,-0.0122 0.10677,-0.0244 0.16016,-0.0365 0.0534,-0.0121 0.10677,-0.0242 0.16016,-0.0362 0.0534,-0.012 0.10677,-0.024 0.16016,-0.036 0.0534,-0.0119 0.10677,-0.0239 0.16016,-0.0357 0.0534,-0.0119 0.10677,-0.0237 0.16016,-0.0355 0.0534,-0.0118 0.10677,-0.0235 0.16016,-0.0352 0.0534,-0.0117 0.10677,-0.0233 0.16016,-0.035 0.0534,-0.0116 0.10677,-0.0232 0.16016,-0.0347 0.0534,-0.0115 0.10677,-0.023 0.16016,-0.0345 0.0534,-0.0114 0.10677,-0.0229 0.16016,-0.0342 0.0534,-0.0114 0.10677,-0.0227 0.16016,-0.034 0.0534,-0.0113 0.10677,-0.0225 0.16016,-0.0337 0.0534,-0.0112 0.10677,-0.0224 0.16016,-0.0335 0.0534,-0.0111 0.10677,-0.0222 0.16016,-0.0333 0.0534,-0.011 0.10677,-0.0221 0.16016,-0.033 0.0534,-0.011 0.10677,-0.0219 0.16016,-0.0328 0.0534,-0.0109 0.10678,-0.0218 0.16016,-0.0326 0.0534,-0.0108 0.10678,-0.0216 0.16016,-0.0324 0.0534,-0.0108 0.10678,-0.0215 0.16016,-0.0322 0.0534,-0.0107 0.10678,-0.0213 0.16016,-0.0319 0.0534,-0.0106 0.10678,-0.0212 0.16016,-0.0317 0.0534,-0.0105 0.10678,-0.021 0.16016,-0.0315 0.0534,-0.0105 0.10678,-0.0209 0.16016,-0.0313 0.0534,-0.0104 0.10678,-0.0208 0.16016,-0.0311 0.0534,-0.0103 0.10678,-0.0206 0.16016,-0.0309 0.0534,-0.0102 0.10678,-0.0205 0.16016,-0.0307 0.0534,-0.0102 0.10678,-0.0203 0.16016,-0.0305 0.0534,-0.0101 0.10678,-0.0202 0.16016,-0.0303 0.0534,-0.0101 0.10678,-0.0201 0.16016,-0.0301 0.0534,-0.01 0.10678,-0.0199 0.16016,-0.0298 0.0534,-0.01 0.10678,-0.0198 0.16016,-0.0297 0.0534,-0.01 0.10678,-0.0197 0.16016,-0.0295 0.0534,-0.01 0.10678,-0.0196 0.16016,-0.0293 0.0534,-0.01 0.10678,-0.0194 0.16016,-0.0291 0.0534,-0.01 0.10678,-0.0193 0.16016,-0.0289 0.0534,-0.01 0.10678,-0.0192 0.16016,-0.0287 0.0534,-0.01 0.10678,-0.019 0.16017,-0.0285 0.0534,-0.009 0.10677,-0.0189 0.16016,-0.0283 0.0534,-0.009 0.10677,-0.0188 0.16016,-0.0281 0.0534,-0.009 0.10677,-0.0187 0.16016,-0.028 0.0534,-0.009 0.10677,-0.0186 0.16016,-0.0278 0.0534,-0.009 0.10677,-0.0184 0.16016,-0.0276 0.0534,-0.009 0.10677,-0.0183 0.16016,-0.0274 0.0534,-0.009 0.10677,-0.0182 0.16016,-0.0273 0.0534,-0.009 0.10677,-0.0181 0.16016,-0.0271 0.0534,-0.009 0.10677,-0.018 0.16016,-0.0269 0.0534,-0.009 0.10677,-0.0179 0.16016,-0.0268 0.0534,-0.009 0.10677,-0.0178 0.16016,-0.0266 0.0534,-0.009 0.10677,-0.0177 0.16016,-0.0264 0.0534,-0.009 0.10677,-0.0175 0.16016,-0.0263 0.0534,-0.009 0.10677,-0.0174 0.16016,-0.0261 0.0534,-0.009 0.10677,-0.0173 0.16016,-0.0259 0.0534,-0.009 0.10677,-0.0172 0.16016,-0.0258 0.0534,-0.009 0.10677,-0.0171 0.16016,-0.0256 0.0534,-0.009 0.10677,-0.017 0.16016,-0.0255 0.0534,-0.008 0.10677,-0.0169 0.16016,-0.0253 0.0534,-0.008 0.10677,-0.0168 0.16016,-0.0252 0.0534,-0.008 0.10677,-0.0167 0.16016,-0.025 0.0534,-0.008 0.10677,-0.0166 0.16016,-0.0249 0.0534,-0.008 0.10677,-0.0165 0.16016,-0.0247 0.0534,-0.008 0.10677,-0.0164 0.16016,-0.0246 0.0534,-0.008 0.10677,-0.0163 0.16016,-0.0244 0.0534,-0.008 0.10677,-0.0162 0.16016,-0.0243 0.0534,-0.008 0.10677,-0.0161 0.16016,-0.0241 0.0534,-0.008 0.10677,-0.016 0.16016,-0.024 0.0534,-0.008 0.10677,-0.0159 0.16016,-0.0239 0.0534,-0.008 0.10677,-0.0158 0.16016,-0.0237 0.0534,-0.008 0.10677,-0.0157 0.16016,-0.0236 0.0534,-0.008 0.10677,-0.0156 0.16016,-0.0234 0.0534,-0.008 0.10677,-0.0156 0.16016,-0.0233 0.0534,-0.008 0.10677,-0.0155 0.16016,-0.0232 0.0534,-0.008 0.10677,-0.0154 0.16016,-0.023 0.0534,-0.008 0.10677,-0.0153 0.16016,-0.0229 0.0534,-0.008 0.10677,-0.0152 0.16016,-0.0228 0.0534,-0.008 0.10677,-0.0151 0.16016,-0.0226 0.0534,-0.008 0.10677,-0.015 0.16016,-0.0225 0.0534,-0.007 0.10677,-0.0149 0.16016,-0.0224 0.0534,-0.007 0.10677,-0.0148 0.16016,-0.0222 0.0534,-0.007 0.10678,-0.0148 0.16016,-0.0221 0.0534,-0.007 0.10678,-0.0147 0.16016,-0.022 0.0534,-0.007 0.10678,-0.0146 0.16016,-0.0219 0.0534,-0.007 0.10678,-0.0145 0.16016,-0.0217 0.0534,-0.007 0.10678,-0.0144 0.16016,-0.0216 0.0534,-0.007 0.10678,-0.0144 0.16016,-0.0215 0.0534,-0.007 0.10678,-0.0143 0.16016,-0.0214 0.0534,-0.007 0.10678,-0.0142 0.16016,-0.0213 0.0534,-0.007 0.10678,-0.0141 0.16016,-0.0211 0.0534,-0.007 0.10678,-0.014 0.16016,-0.021 0.0534,-0.007 0.10678,-0.014 0.16016,-0.0209 0.0534,-0.007 0.10678,-0.0139 0.16016,-0.0208 0.0534,-0.007 0.10678,-0.0138 0.16016,-0.0207 0.0534,-0.007 0.10678,-0.0137 0.16016,-0.0206 0.0534,-0.007 0.10678,-0.0137 0.16016,-0.0204 0.0534,-0.007 0.10678,-0.0136 0.16016,-0.0203 0.0534,-0.007 0.10678,-0.0135 0.16016,-0.0202 0.0534,-0.007 0.10678,-0.0134 0.16016,-0.0201 0.0534,-0.007 0.10678,-0.0134 0.16016,-0.02 0.0534,-0.007 0.10678,-0.0133 0.16016,-0.0199 0.0534,-0.007 0.10678,-0.0132 0.16016,-0.0198 0.0534,-0.007 0.10678,-0.0131 0.16017,-0.0197 0.0534,-0.007 0.10677,-0.0131 0.16016,-0.0196 0.0534,-0.007 0.10677,-0.013 0.16016,-0.0195 0.0534,-0.006 0.10677,-0.0129 0.16016,-0.0194 0.0534,-0.006 0.10677,-0.0129 0.16016,-0.0193 0.0534,-0.006 0.10677,-0.0128 0.16016,-0.0192 0.0534,-0.006 0.10677,-0.0127 0.16016,-0.0191 0.0534,-0.006 0.10677,-0.0127 0.16016,-0.019 0.0534,-0.006 0.10677,-0.0126 0.16016,-0.0189 0.0534,-0.006 0.10677,-0.0125 0.16016,-0.0188 0.0534,-0.006 0.10677,-0.0125 0.16016,-0.0187 0.0534,-0.006 0.10677,-0.0124 0.16016,-0.0186 0.0534,-0.006 0.10677,-0.0123 0.16016,-0.0185 0.0534,-0.006 0.10677,-0.0123 0.16016,-0.0184 0.0534,-0.006 0.10677,-0.0122 0.16016,-0.0183 0.0534,-0.006 0.10677,-0.0121 0.16016,-0.0182 0.0534,-0.006 0.10677,-0.0121 0.16016,-0.0181 0.0534,-0.006 0.10677,-0.012 0.16016,-0.018 0.0534,-0.006 0.10677,-0.012 0.16016,-0.0179 0.0534,-0.006 0.10677,-0.0119 0.16016,-0.0178 0.0534,-0.006 0.10677,-0.0118 0.16016,-0.0177 0.0534,-0.006 0.10677,-0.0118 0.16016,-0.0176 0.0534,-0.006 0.10677,-0.0117 0.16016,-0.0175 0.0534,-0.006 0.10677,-0.0117 0.16016,-0.0174 0.0534,-0.006 0.10677,-0.0116 0.16016,-0.0174 0.0534,-0.006 0.10677,-0.0115 0.16016,-0.0173 0.0534,-0.006 0.10677,-0.0115 0.16016,-0.0172 0.0534,-0.006 0.10677,-0.0114 0.16016,-0.0171 0.0534,-0.006 0.10677,-0.0114 0.16016,-0.017 0.0534,-0.006 0.10677,-0.0113 0.16016,-0.0169 0.0534,-0.006 0.10677,-0.0112 0.16016,-0.0169 0.0534,-0.006 0.10677,-0.0112 0.16016,-0.0168 0.0534,-0.006 0.10677,-0.0111 0.16016,-0.0167 0.0534,-0.006 0.10677,-0.0111 0.16016,-0.0166 0.0534,-0.006 0.10677,-0.011 0.16016,-0.0165 0.0534,-0.005 0.10677,-0.011 0.16016,-0.0164 0.0534,-0.005 0.10677,-0.0109 0.16016,-0.0164 0.0534,-0.005 0.10677,-0.0109 0.16016,-0.0163 0.0534,-0.005 0.10677,-0.0108 0.16016,-0.0162 0.0534,-0.005 0.10677,-0.0108 0.16016,-0.0161 0.0534,-0.005 0.10677,-0.0107 0.16016,-0.016 0.0534,-0.005 0.10677,-0.0106 0.16016,-0.016 0.0534,-0.005 0.10678,-0.0106 0.16016,-0.0159 0.0534,-0.005 0.10678,-0.0105 0.16016,-0.0158 0.0534,-0.005 0.10678,-0.0105 0.16016,-0.0157 0.0534,-0.005 0.10678,-0.0104 0.16016,-0.0157 0.0534,-0.005 0.10678,-0.0104 0.16016,-0.0156 0.0534,-0.005 0.10678,-0.0104 0.16016,-0.0155 0.0534,-0.005 0.10678,-0.0103 0.16016,-0.0154 0.0534,-0.005 0.10678,-0.0102 0.16016,-0.0154 0.0534,-0.005 0.10678,-0.0102 0.16016,-0.0153 0.0534,-0.005 0.10678,-0.0102 0.16016,-0.0152 0.0534,-0.005 0.10678,-0.0101 0.16016,-0.0151 0.0534,-0.005 0.10678,-0.0101 0.16016,-0.0151 0.0534,-0.005 0.10678,-0.01 0.16016,-0.015 0.0534,-0.005 0.10678,-0.01 0.16016,-0.0149 0.0534,-0.005 0.10678,-0.01 0.16016,-0.0149 0.0534,-0.005 0.10678,-0.01 0.16016,-0.0148 0.0534,-0.005 0.10678,-0.01 0.16016,-0.0147 0.0534,-0.005 0.10678,-0.01 0.16016,-0.0146 0.0534,-0.005 0.10678,-0.01 0.16016,-0.0146 0.0534,-0.005 0.10678,-0.01 0.16016,-0.0145 0.0534,-0.005 0.10678,-0.01 0.16017,-0.0144 0.0534,-0.005 0.10677,-0.01 0.16016,-0.0144 0.0534,-0.005 0.10677,-0.01 0.16016,-0.0143 0.0534,-0.005 0.10677,-0.01 0.16016,-0.0143 0.0534,-0.005 0.10677,-0.009 0.16016,-0.0142 0.0534,-0.005 0.10677,-0.009 0.16016,-0.0141 0.0534,-0.005 0.10677,-0.009 0.16016,-0.014 0.0534,-0.005 0.10677,-0.009 0.16016,-0.014 0.0534,-0.005 0.10677,-0.009 0.16016,-0.0139 0.0534,-0.005 0.10677,-0.009 0.16016,-0.0139 0.0534,-0.005 0.10677,-0.009 0.16016,-0.0138 0.0534,-0.005 0.10677,-0.009 0.16016,-0.0137 0.0534,-0.005 0.10677,-0.009 0.16016,-0.0137 0.0534,-0.005 0.10677,-0.009 0.16016,-0.0136 0.0534,-0.005 0.10677,-0.009 0.16016,-0.0136 0.0534,-0.005 0.10677,-0.009 0.16016,-0.0135 0.0534,-0.004 0.10677,-0.009 0.16016,-0.0134 0.0534,-0.004 0.10677,-0.009 0.16016,-0.0134 0.0534,-0.004 0.10677,-0.009 0.16016,-0.0133 0.0534,-0.004 0.10677,-0.009 0.16016,-0.0133 0.0534,-0.004 0.10677,-0.009 0.16016,-0.0132 0.0534,-0.004 0.10677,-0.009 0.16016,-0.0131 0.0534,-0.004 0.10677,-0.009 0.16016,-0.0131 0.0534,-0.004 0.10677,-0.009 0.16016,-0.013 0.0534,-0.004 0.10677,-0.009 0.16016,-0.013 0.0534,-0.004 0.10677,-0.009 0.16016,-0.0129 0.0534,-0.004 0.10677,-0.009 0.16016,-0.0129 0.0534,-0.004 0.10677,-0.009 0.16016,-0.0128 0.0534,-0.004 0.10677,-0.008 0.16016,-0.0127 0.0534,-0.004 0.10677,-0.008 0.16016,-0.0127 0.0534,-0.004 0.10677,-0.008 0.16016,-0.0126 0.0534,-0.004 0.10677,-0.008 0.16016,-0.0126 0.0534,-0.004 0.10677,-0.008 0.16016,-0.0125 0.0534,-0.004 0.10677,-0.008 0.16016,-0.0125 0.0534,-0.004 0.10677,-0.008 0.16016,-0.0124 0.0534,-0.004 0.10677,-0.008 0.16016,-0.0124 0.0534,-0.004 0.10677,-0.008 0.16016,-0.0123 0.0534,-0.004 0.10677,-0.008 0.16016,-0.0123 0.0534,-0.004 0.10677,-0.008 0.16016,-0.0122 0.0534,-0.004 0.10677,-0.008 0.16016,-0.0121 0.0534,-0.004 0.10677,-0.008 0.16016,-0.0121 0.0534,-0.004 0.10677,-0.008 0.16016,-0.012 0.0534,-0.004 0.10678,-0.008 0.16016,-0.012 0.0534,-0.004 0.10678,-0.008 0.16016,-0.012 0.0534,-0.004 0.10678,-0.008 0.16016,-0.0119 0.0534,-0.004 0.10678,-0.008 0.16016,-0.0118 0.0534,-0.004 0.10678,-0.008 0.16016,-0.0118 0.0534,-0.004 0.10678,-0.008 0.16016,-0.0117 0.0534,-0.004 0.10678,-0.008 0.16016,-0.0117 0.0534,-0.004 0.10678,-0.008 0.16016,-0.0117 0.0534,-0.004 0.10678,-0.008 0.16016,-0.0116 0.0534,-0.004 0.10678,-0.008 0.16016,-0.0116 0.0534,-0.004 0.10678,-0.008 0.16016,-0.0115 0.0534,-0.004 0.10678,-0.008 0.16016,-0.0115 0.0534,-0.004 0.10678,-0.008 0.16016,-0.0114 0.0534,-0.004 0.10678,-0.008 0.16016,-0.0114 0.0534,-0.004 0.10678,-0.008 0.16016,-0.0113 0.0534,-0.004 0.10678,-0.008 0.16016,-0.0113 0.0534,-0.004 0.10678,-0.007 0.16016,-0.0112 0.0534,-0.004 0.10678,-0.007 0.16016,-0.0112 0.0534,-0.004 0.10678,-0.007 0.16016,-0.0111 0.0534,-0.004 0.10678,-0.007 0.16016,-0.0111 0.0534,-0.004 0.10678,-0.007 0.16016,-0.0111 0.0534,-0.004 0.10678,-0.007 0.16017,-0.011 0.0534,-0.004 0.10677,-0.007 0.16016,-0.011 0.0534,-0.004 0.10677,-0.007 0.16016,-0.0109 0.0534,-0.004 0.10677,-0.007 0.16016,-0.0109 0.0534,-0.004 0.10677,-0.007 0.16016,-0.0108 0.0534,-0.004 0.10677,-0.007 0.16016,-0.0108 0.0534,-0.004 0.10677,-0.007 0.16016,-0.0107 0.0534,-0.004 0.10677,-0.007 0.16016,-0.0107 0.0534,-0.004 0.10677,-0.007 0.16016,-0.0107 0.0534,-0.004 0.10677,-0.007 0.16016,-0.0106 0.0534,-0.004 0.10677,-0.007 0.16016,-0.0106 0.0534,-0.004 0.10677,-0.007 0.16016,-0.0105 0.0534,-0.004 0.10677,-0.007 0.16016,-0.0105 0.0534,-0.003 0.10677,-0.007 0.16016,-0.0104 0.0534,-0.003 0.10677,-0.007 0.16016,-0.0104 0.0534,-0.003 0.10677,-0.007 0.16016,-0.0104 0.0534,-0.003 0.10677,-0.007 0.16016,-0.0103 0.0534,-0.003 0.10677,-0.007 0.16016,-0.0103 0.0534,-0.003 0.10677,-0.007 0.16016,-0.0102 0.0534,-0.003 0.10677,-0.007 0.16016,-0.0102 0.0534,-0.003 0.10677,-0.007 0.16016,-0.0102 0.0534,-0.003 0.10677,-0.007 0.16016,-0.0101 0.0534,-0.003 0.10677,-0.007 0.16016,-0.0101 0.0534,-0.003 0.10677,-0.007 0.16016,-0.0101 0.0534,-0.003 0.10677,-0.007 0.16016,-0.01 0.0534,-0.003 0.10677,-0.007 0.16016,-0.01 0.0534,-0.003 0.10677,-0.007 0.16016,-0.01 0.0534,-0.003 0.10677,-0.007 0.16016,-0.01 0.0534,-0.003 0.10677,-0.007 0.16016,-0.01 0.0534,-0.003 0.10677,-0.007 0.16016,-0.01 0.0534,-0.003 0.10677,-0.007 0.16016,-0.01 0.0534,-0.003 0.10677,-0.006 0.16016,-0.01 0.0534,-0.003 0.10677,-0.006 0.16016,-0.01 0.0534,-0.003 0.10677,-0.006 0.16016,-0.01 0.0534,-0.003 0.10677,-0.006 0.16016,-0.01 0.0534,-0.003 0.10677,-0.006 0.16016,-0.01 0.0534,-0.003 0.10677,-0.006 0.16016,-0.01 0.0534,-0.003 0.10677,-0.006 0.16016,-0.01 0.0534,-0.003 0.10677,-0.006 0.16016,-0.009 0.0534,-0.003 0.10677,-0.006 0.16016,-0.009 0.0534,-0.003 0.10677,-0.006 0.16016,-0.009 0.0534,-0.003 0.10677,-0.006 0.16016,-0.009 0.0534,-0.003 0.10678,-0.006 0.16016,-0.009 0.0534,-0.003 0.10678,-0.006 0.16016,-0.009 0.0534,-0.003 0.10678,-0.006 0.16016,-0.009 0.0534,-0.003 0.10678,-0.006 0.16016,-0.009 0.0534,-0.003 0.10678,-0.006 0.16016,-0.009 0.0534,-0.003 0.10678,-0.006 0.16016,-0.009 0.0534,-0.003 0.10678,-0.006 0.16016,-0.009 0.0534,-0.003 0.10678,-0.006 0.16016,-0.009 0.0534,-0.003 0.10678,-0.006 0.16016,-0.009 0.0534,-0.003 0.10678,-0.006 0.16016,-0.009 0.0534,-0.003 0.10678,-0.006 0.16016,-0.009 0.0534,-0.003 0.10678,-0.006 0.16016,-0.009 0.0534,-0.003 0.10678,-0.006 0.16016,-0.009 0.0534,-0.003 0.10678,-0.006 0.16016,-0.009 0.0534,-0.003 0.10678,-0.006 0.16016,-0.009 0.0534,-0.003 0.10678,-0.006 0.16016,-0.009 0.0534,-0.003 0.10678,-0.006 0.16016,-0.009 0.0534,-0.003 0.10678,-0.006 0.16016,-0.009 0.0534,-0.003 0.10678,-0.006 0.16016,-0.009 0.0534,-0.003 0.10678,-0.006 0.16016,-0.009 0.0534,-0.003 0.10678,-0.006 0.16017,-0.009 0.0534,-0.003 0.10677,-0.006 0.16016,-0.009 0.0534,-0.003 0.10677,-0.006 0.16016,-0.009 0.0534,-0.003 0.10677,-0.006 0.16016,-0.009 0.0534,-0.003 0.10677,-0.006 0.16016,-0.009 0.0534,-0.003 0.10677,-0.006 0.16016,-0.009 0.0534,-0.003 0.10677,-0.006 0.16016,-0.008 0.0534,-0.003 0.10677,-0.006 0.16016,-0.008 0.0534,-0.003 0.10677,-0.006 0.16016,-0.008 0.0534,-0.003 0.10677,-0.006 0.16016,-0.008 0.0534,-0.003 0.10677,-0.006 0.16016,-0.008 0.0534,-0.003 0.10677,-0.006 0.16016,-0.008 0.0534,-0.003 0.10677,-0.006 0.16016,-0.008 0.0534,-0.003 0.10677,-0.006 0.16016,-0.008 0.0534,-0.003 0.10677,-0.006 0.16016,-0.008 0.0534,-0.003 0.10677,-0.006 0.16016,-0.008 0.0534,-0.003 0.10677,-0.005 0.16016,-0.008 0.0534,-0.003 0.10677,-0.005 0.16016,-0.008 0.0534,-0.003 0.10677,-0.005 0.16016,-0.008 0.0534,-0.003 0.10677,-0.005 0.16016,-0.008 0.0534,-0.003 0.10677,-0.005 0.16016,-0.008 0.0534,-0.003 0.10677,-0.005 0.16016,-0.008 0.0534,-0.003 0.10677,-0.005 0.16016,-0.008 0.0534,-0.003 0.10677,-0.005 0.16016,-0.008 0.0534,-0.003 0.10677,-0.005 0.16016,-0.008 0.0534,-0.003 0.10677,-0.005 0.16016,-0.008 0.0534,-0.003 0.10677,-0.005 0.16016,-0.008 0.0534,-0.003 0.10677,-0.005 0.16016,-0.008 0.0534,-0.003 0.10677,-0.005 0.16016,-0.008 0.0534,-0.003 0.10677,-0.005 0.16016,-0.008 0.0534,-0.003 0.10677,-0.005 0.16016,-0.008 0.0534,-0.003 0.10677,-0.005 0.16016,-0.008 0.0534,-0.003 0.10677,-0.005 0.16016,-0.008 0.0534,-0.003 0.10677,-0.005 0.16016,-0.008 0.0534,-0.003 0.10677,-0.005 0.16016,-0.008 0.0534,-0.003 0.10677,-0.005 0.16016,-0.008 0.0534,-0.003 0.10677,-0.005 0.16016,-0.008 0.0534,-0.003 0.10677,-0.005 0.16016,-0.008 0.0534,-0.003 0.10677,-0.005 0.16016,-0.008 0.0534,-0.003 0.10677,-0.005 0.16016,-0.008 0.0534,-0.003 0.10677,-0.005 0.16016,-0.008 0.0534,-0.003 0.10677,-0.005 0.16016,-0.008 0.0534,-0.003 0.10678,-0.005 0.16016,-0.008 0.0534,-0.003 0.10678,-0.005 0.16016,-0.007 0.0534,-0.002 0.10678,-0.005 0.16016,-0.007 0.0534,-0.002 0.10678,-0.005 0.16016,-0.007 0.0534,-0.002 0.10678,-0.005 0.16016,-0.007 0.0534,-0.002 0.10678,-0.005 0.16016,-0.007 0.0534,-0.002 0.10678,-0.005 0.16016,-0.007 0.0534,-0.002 0.10678,-0.005 0.16016,-0.007 0.0534,-0.002 0.10678,-0.005 0.16016,-0.007 0.0534,-0.002 0.10678,-0.005 0.16016,-0.007 0.0534,-0.002 0.10678,-0.005 0.16016,-0.007 0.0534,-0.002 0.10678,-0.005 0.16016,-0.007 0.0534,-0.002 0.10678,-0.005 0.16016,-0.007 0.0534,-0.002 0.10678,-0.005 0.16016,-0.007 0.0534,-0.002 0.10678,-0.005 0.16016,-0.007 0.0534,-0.002 0.10678,-0.005 0.16016,-0.007 0.0534,-0.002 0.10678,-0.005 0.16016,-0.007 0.0534,-0.002 0.10678,-0.005 0.16016,-0.007 0.0534,-0.002 0.10678,-0.005 0.16016,-0.007 0.0534,-0.002 0.10678,-0.005 0.16016,-0.007 0.0534,-0.002 0.10678,-0.005 0.16017,-0.007 0.0534,-0.002 0.10677,-0.005 0.16016,-0.007 0.0534,-0.002 0.10677,-0.005 0.16016,-0.007 0.0534,-0.002 0.10677,-0.005 0.16016,-0.007 0.0534,-0.002 0.10677,-0.005 0.16016,-0.007 0.0534,-0.002 0.10677,-0.005 0.16016,-0.007 0.0534,-0.002 0.10677,-0.005 0.16016,-0.007 0.0534,-0.002 0.10677,-0.005 0.16016,-0.007 0.0534,-0.002 0.10677,-0.005 0.16016,-0.007 0.0534,-0.002 0.10677,-0.005 0.16016,-0.007 0.0534,-0.002 0.10677,-0.005 0.16016,-0.007 0.0534,-0.002 0.10677,-0.005 0.16016,-0.007 0.0534,-0.002 0.10677,-0.005 0.16016,-0.007 0.0534,-0.002 0.10677,-0.005 0.16016,-0.007 0.0534,-0.002 0.10677,-0.004 0.16016,-0.007 0.0534,-0.002 0.10677,-0.004 0.16016,-0.007 0.0534,-0.002 0.10677,-0.004 0.16016,-0.007 0.0534,-0.002 0.10677,-0.004 0.16016,-0.007 0.0534,-0.002 0.10677,-0.004 0.16016,-0.007 0.0534,-0.002 0.10677,-0.004 0.16016,-0.007 0.0534,-0.002 0.10677,-0.004 0.16016,-0.007 0.0534,-0.002 0.10677,-0.004 0.16016,-0.007 0.0534,-0.002 0.10677,-0.004 0.16016,-0.007 0.0534,-0.002 0.10677,-0.004 0.16016,-0.007 0.0534,-0.002 0.10677,-0.004 0.16016,-0.007 0.0534,-0.002 0.10677,-0.004 0.16016,-0.006 0.0534,-0.002 0.10677,-0.004 0.16016,-0.006 0.0534,-0.002 0.10677,-0.004 0.16016,-0.006 0.0534,-0.002 0.10677,-0.004 0.16016,-0.006 0.0534,-0.002 0.10677,-0.004 0.16016,-0.006 0.0534,-0.002 0.10677,-0.004 0.16016,-0.006 0.0534,-0.002 0.10677,-0.004 0.16016,-0.006 0.0534,-0.002 0.10677,-0.004 0.16016,-0.006 0.0534,-0.002 0.10677,-0.004 0.16016,-0.006 0.0534,-0.002 0.10677,-0.004 0.16016,-0.006 0.0534,-0.002 0.10677,-0.004 0.16016,-0.006 0.0534,-0.002 0.10677,-0.004 0.16016,-0.006 0.0534,-0.002 0.10677,-0.004 0.16016,-0.006 0.0534,-0.002 0.10677,-0.004 0.16016,-0.006 0.0534,-0.002 0.10677,-0.004 0.16016,-0.006 0.0534,-0.002 0.10677,-0.004 0.16016,-0.006 0.0534,-0.002 0.10677,-0.004 0.16016,-0.006 0.0534,-0.002 0.10678,-0.004 0.16016,-0.006 0.0534,-0.002 0.10678,-0.004 0.16016,-0.006 0.0534,-0.002 0.10678,-0.004 0.16016,-0.006 0.0534,-0.002 0.10678,-0.004 0.16016,-0.006 0.0534,-0.002 0.10678,-0.004 0.16016,-0.006 0.0534,-0.002 0.10678,-0.004 0.16016,-0.006 0.0534,-0.002 0.10678,-0.004 0.16016,-0.006 0.0534,-0.002 0.10678,-0.004 0.16016,-0.006 0.0534,-0.002 0.10678,-0.004 0.16016,-0.006 0.0534,-0.002 0.10678,-0.004 0.16016,-0.006 0.0534,-0.002 0.10678,-0.004 0.16016,-0.006 0.0534,-0.002 0.10678,-0.004 0.16016,-0.006 0.0534,-0.002 0.10678,-0.004 0.16016,-0.006 0.0534,-0.002 0.10678,-0.004 0.16016,-0.006 0.0534,-0.002 0.10678,-0.004 0.16016,-0.006 0.0534,-0.002 0.10678,-0.004 0.16016,-0.006 0.0534,-0.002 0.10678,-0.004 0.16016,-0.006 0.0534,-0.002 0.10678,-0.004 0.16016,-0.006 0.0534,-0.002 0.10678,-0.004 0.16016,-0.006 0.0534,-0.002 0.10678,-0.004 0.16016,-0.006 0.0534,-0.002 0.10678,-0.004 0.16016,-0.006 0.0534,-0.002 0.10678,-0.004 0.16017,-0.006 0.0534,-0.002 0.10677,-0.004 0.16016,-0.006 0.0534,-0.002 0.10677,-0.004 0.16016,-0.006 0.0534,-0.002 0.10677,-0.004 0.16016,-0.006 0.0534,-0.002 0.10677,-0.004 0.16016,-0.006 0.0534,-0.002 0.10677,-0.004 0.16016,-0.006 0.0534,-0.002 0.10677,-0.004 0.16016,-0.006 0.0534,-0.002 0.10677,-0.004 0.16016,-0.006 0.0534,-0.002 0.10677,-0.004 0.16016,-0.006 0.0534,-0.002 0.10677,-0.004 0.16016,-0.006 0.0534,-0.002 0.10677,-0.004 0.16016,-0.006 0.0534,-0.002 0.10677,-0.004 0.16016,-0.006 0.0534,-0.002 0.10677,-0.004 0.16016,-0.006 0.0534,-0.002 0.10677,-0.004 0.16016,-0.006 0.0534,-0.002 0.10677,-0.004 0.16016,-0.006 0.0534,-0.002 0.10677,-0.004 0.16016,-0.006 0.0534,-0.002 0.10677,-0.004 0.16016,-0.006 0.0534,-0.002 0.10677,-0.004 0.16016,-0.006 0.0534,-0.002 0.10677,-0.004 0.16016,-0.005 0.0534,-0.002 0.10677,-0.004 0.16016,-0.005 0.0534,-0.002 0.10677,-0.004 0.16016,-0.005 0.0534,-0.002 0.10677,-0.004 0.16016,-0.005 0.0534,-0.002 0.10677,-0.004 0.16016,-0.005 0.0534,-0.002 0.10677,-0.004 0.16016,-0.005 0.0534,-0.002 0.10677,-0.004 0.16016,-0.005 0.0534,-0.002 0.10677,-0.004 0.16016,-0.005 0.0534,-0.002 0.10677,-0.004 0.16016,-0.005 0.0534,-0.002 0.10677,-0.004 0.16016,-0.005 0.0534,-0.002 0.10677,-0.004 0.16016,-0.005 0.0534,-0.002 0.10677,-0.004 0.16016,-0.005 0.0534,-0.002 0.10677,-0.004 0.16016,-0.005 0.0534,-0.002 0.10677,-0.004 0.16016,-0.005 0.0534,-0.002 0.10677,-0.004 0.16016,-0.005 0.0534,-0.002 0.10677,-0.004 0.16016,-0.005 0.0534,-0.002 0.10677,-0.004 0.16016,-0.005 0.0534,-0.002 0.10677,-0.004 0.16016,-0.005 0.0534,-0.002 0.10677,-0.003 0.16016,-0.005 0.0534,-0.002 0.10677,-0.003 0.16016,-0.005 0.0534,-0.002 0.10677,-0.003 0.16016,-0.005 0.0534,-0.002 0.10677,-0.003 0.16016,-0.005 0.0534,-0.002 0.10677,-0.003 0.16016,-0.005 0.0534,-0.002 0.10677,-0.003 0.16016,-0.005 0.0534,-0.002 0.10678,-0.003 0.16016,-0.005 0.0534,-0.002 0.10678,-0.003 0.16016,-0.005 0.0534,-0.002 0.10678,-0.003 0.16016,-0.005 0.0534,-0.002 0.10678,-0.003 0.16016,-0.005 0.0534,-0.002 0.10678,-0.003 0.16016,-0.005 0.0534,-0.002 0.10678,-0.003 0.16016,-0.005 0.0534,-0.002 0.10678,-0.003 0.16016,-0.005 0.0534,-0.002 0.10678,-0.003 0.16016,-0.005 0.0534,-0.002 0.10678,-0.003 0.16016,-0.005 0.0534,-0.002 0.10678,-0.003 0.16016,-0.005 0.0534,-0.002 0.10678,-0.003 0.16016,-0.005 0.0534,-0.002 0.10678,-0.003 0.16016,-0.005 0.0534,-0.002 0.10678,-0.003 0.16016,-0.005 0.0534,-0.002 0.10678,-0.003 0.16016,-0.005 0.0534,-0.002 0.10678,-0.003 0.16016,-0.005 0.0534,-0.002 0.10678,-0.003 0.16016,-0.005 0.0534,-0.002 0.10678,-0.003 0.16016,-0.005 0.0534,-0.002 0.10678,-0.003 0.16016,-0.005 0.0534,-0.002 0.10678,-0.003 0.16016,-0.005 0.0534,-0.002 0.10678,-0.003 0.16016,-0.005 0.0534,-0.002 0.10678,-0.003 0.16017,-0.005 0.0534,-0.002 0.10677,-0.003 0.16016,-0.005 0.0534,-0.002 0.10677,-0.003 0.16016,-0.005 0.0534,-0.002 0.10677,-0.003 0.16016,-0.005 0.0534,-0.002 0.10677,-0.003 0.16016,-0.005 0.0534,-0.002 0.10677,-0.003 0.16016,-0.005 0.0534,-0.002 0.10677,-0.003 0.16016,-0.005 0.0534,-0.002 0.10677,-0.003 0.16016,-0.005 0.0534,-0.002 0.10677,-0.003 0.16016,-0.005 0.0534,-0.002 0.10677,-0.003 0.16016,-0.005 0.0534,-0.002 0.10677,-0.003 0.16016,-0.005 0.0534,-0.002 0.10677,-0.003 0.16016,-0.005 0.0534,-0.002 0.10677,-0.003 0.16016,-0.005 0.0534,-0.002 0.10677,-0.003 0.16016,-0.005 0.0534,-0.002 0.10677,-0.003 0.16016,-0.005 0.0534,-0.002 0.10677,-0.003 0.16016,-0.005 0.0534,-0.002 0.10677,-0.003 0.16016,-0.005 0.0534,-0.002 0.10677,-0.003 0.16016,-0.005 0.0534,-0.002 0.10677,-0.003 0.16016,-0.005 0.0534,-0.002 0.10677,-0.003 0.16016,-0.005 0.0534,-0.002 0.10677,-0.003 0.16016,-0.005 0.0534,-0.002 0.10677,-0.003 0.16016,-0.005 0.0534,-0.002 0.10677,-0.003 0.16016,-0.005 0.0534,-0.002 0.10677,-0.003 0.16016,-0.005 0.0534,-0.002 0.10677,-0.003 0.16016,-0.005 0.0534,-0.002 0.10677,-0.003 0.16016,-0.005 0.0534,-0.002 0.10677,-0.003 0.16016,-0.005 0.0534,-0.002 0.10677,-0.003 0.16016,-0.005 0.0534,-0.002 0.10677,-0.003 0.16016,-0.005 0.0534,-0.001 0.10677,-0.003 0.16016,-0.005 0.0534,-0.001 0.10677,-0.003 0.16016,-0.004 0.0534,-0.001 0.10677,-0.003 0.16016,-0.004 0.0534,-10e-4 0.10677,-0.003 0.16016,-0.004 0.0534,-0.001 0.10677,-0.003 0.16016,-0.004 0.0534,-0.001 0.10677,-0.003 0.16016,-0.004 0.0534,-10e-4 0.10677,-0.003 0.16016,-0.004 0.0534,-0.001 0.10677,-0.003 0.16016,-0.004 0.0534,-0.001 0.10677,-0.003 0.16016,-0.004 0.0534,-10e-4 0.10677,-0.003 0.16016,-0.004 0.0534,-0.001 0.10677,-0.003 0.16016,-0.004 0.0534,-0.001 0.10677,-0.003 0.16016,-0.004 0.0534,-10e-4 0.10677,-0.003 0.16016,-0.004 0.0534,-0.001 0.10678,-0.003 0.16016,-0.004 0.0534,-0.001 0.10678,-0.003 0.16016,-0.004 0.0534,-10e-4 0.10678,-0.003 0.16016,-0.004 0.0534,-0.001 0.10678,-0.003 0.16016,-0.004 0.0534,-10e-4 0.10678,-0.003 0.16016,-0.004 0.0534,-10e-4 0.10678,-0.003 0.16016,-0.004 0.0534,-0.001 0.10678,-0.003 0.16016,-0.004 0.0534,-10e-4 0.10678,-0.003 0.16016,-0.004 0.0534,-10e-4 0.10678,-0.003 0.16016,-0.004 0.0534,-0.001 0.10678,-0.003 0.16016,-0.004 0.0534,-10e-4 0.10678,-0.003 0.16016,-0.004 0.0534,-10e-4 0.10678,-0.003 0.16016,-0.004 0.0534,-0.001 0.10678,-0.003 0.16016,-0.004 0.0534,-10e-4 0.10678,-0.003 0.16016,-0.004 0.0534,-10e-4 0.10678,-0.003 0.16016,-0.004 0.0534,-0.001 0.10678,-0.003 0.16016,-0.004 0.0534,-10e-4 0.10678,-0.003 0.16016,-0.004 0.0534,-10e-4 0.10678,-0.003 0.16016,-0.004 0.0534,-0.001 0.10678,-0.003 0.16016,-0.004 0.0534,-10e-4 0.10678,-0.003 0.16016,-0.004 0.0534,-10e-4 0.10678,-0.003 0.16016,-0.004 0.0534,-0.001 0.10678,-0.003 0.16017,-0.004 0.0534,-10e-4 0.10677,-0.003 0.16016,-0.004 0.0534,-10e-4 0.10677,-0.003 0.16016,-0.004 0.0534,-0.001 0.10677,-0.003 0.16016,-0.004 0.0534,-10e-4 0.10677,-0.003 0.16016,-0.004 0.0534,-10e-4 0.10677,-0.003 0.16016,-0.004 0.0534,-0.001 0.10677,-0.003 0.16016,-0.004 0.0534,-10e-4 0.10677,-0.003 0.16016,-0.004 0.0534,-10e-4 0.10677,-0.003 0.16016,-0.004 0.0534,-0.001 0.10677,-0.003 0.16016,-0.004 0.0534,-10e-4 0.10677,-0.003 0.16016,-0.004 0.0534,-10e-4 0.10677,-0.003 0.16016,-0.004 0.0534,-0.001 0.10677,-0.003 0.16016,-0.004 0.0534,-10e-4 0.10677,-0.003 0.16016,-0.004 0.0534,-10e-4 0.10677,-0.003 0.16016,-0.004 0.0534,-0.001 0.10677,-0.003 0.16016,-0.004 0.0534,-10e-4 0.10677,-0.003 0.16016,-0.004 0.0534,-10e-4 0.10677,-0.003 0.16016,-0.004 0.0534,-0.001 0.10677,-0.003 0.16016,-0.004 0.0534,-10e-4 0.10677,-0.003 0.16016,-0.004 0.0534,-10e-4 0.10677,-0.003 0.16016,-0.004 0.0534,-0.001 0.10677,-0.003 0.16016,-0.004 0.0534,-10e-4 0.10677,-0.003 0.16016,-0.004 0.0534,-10e-4 0.10677,-0.003 0.16016,-0.004 0.0534,-0.001 0.10677,-0.003 0.16016,-0.004 0.0534,-10e-4 0.10677,-0.003 0.16016,-0.004 0.0534,-10e-4 0.10677,-0.003 0.16016,-0.004 0.0534,-0.001 0.10677,-0.003 0.16016,-0.004 0.0534,-10e-4 0.10677,-0.003 0.16016,-0.004 0.0534,-10e-4 0.10677,-0.003 0.16016,-0.004 0.0534,-0.001 0.10677,-0.003 0.16016,-0.004 0.0534,-10e-4 0.10677,-0.003 0.16016,-0.004 0.0534,-10e-4 0.10677,-0.003 0.16016,-0.004 0.0534,-0.001 0.10677,-0.003 0.16016,-0.004 0.0534,-10e-4 0.10677,-0.003 0.16016,-0.004 0.0534,-10e-4 0.10677,-0.003 0.16016,-0.004 0.0534,-0.001 0.10677,-0.003 0.16016,-0.004 0.0534,-10e-4 0.10677,-0.003 0.16016,-0.004 0.0534,-10e-4 0.10677,-0.003 0.16016,-0.004 0.0534,-0.001 0.10677,-0.002 0.16016,-0.004 0.0534,-10e-4 0.10677,-0.002 0.16016,-0.004 0.0534,-10e-4 0.10677,-0.002 0.16016,-0.004 0.0534,-0.001 0.10678,-0.002 0.16016,-0.004 0.0534,-10e-4 0.10678,-0.002 0.16016,-0.004 0.0534,-10e-4 0.10678,-0.002 0.16016,-0.004 0.0534,-0.001 0.10678,-0.002 0.16016,-0.004 0.0534,-10e-4 0.10678,-0.002 0.16016,-0.004 0.0534,-10e-4 0.10678,-0.002 0.16016,-0.004 0.0534,-0.001 0.10678,-0.002 0.16016,-0.004 0.0534,-10e-4 0.10678,-0.002 0.16016,-0.004 0.0534,-10e-4 0.10678,-0.002 0.16016,-0.004 0.0534,-0.001 0.10678,-0.002 0.16016,-0.004 0.0534,-10e-4 0.10678,-0.002 0.16016,-0.004 0.0534,-10e-4 0.10678,-0.002 0.16016,-0.004 0.0534,-0.001 0.10678,-0.002 0.16016,-0.004 0.0534,-10e-4 0.10678,-0.002 0.16016,-0.004 0.0534,-10e-4 0.10678,-0.002 0.16016,-0.004 0.0534,-0.001 0.10678,-0.002 0.16016,-0.004 0.0534,-10e-4 0.10678,-0.002 0.16016,-0.004 0.0534,-10e-4 0.10678,-0.002 0.16016,-0.004 0.0534,-0.001 0.10678,-0.002 0.16016,-0.004 0.0534,-10e-4 0.10678,-0.002 0.16016,-0.004 0.0534,-10e-4 0.10678,-0.002 0.16017,-0.004 0.0534,-0.001 0.10677,-0.002 0.16016,-0.004 0.0534,-10e-4 0.10677,-0.002 0.16016,-0.004 0.0534,-10e-4 0.10677,-0.002 0.16016,-0.004 0.0534,-0.001 0.10677,-0.002 0.16016,-0.004 0.0534,-10e-4 0.10677,-0.002 0.16016,-0.004 0.0534,-10e-4 0.10677,-0.002 0.16016,-0.004 0.0534,-0.001 0.10677,-0.002 0.16016,-0.004 0.0534,-10e-4 0.10677,-0.002 0.16016,-0.003 0.0534,-0.001 0.10677,-0.002 0.16016,-0.003 0.0534,-0.001 0.10677,-0.002 0.16016,-0.003 0.0534,-10e-4 0.10677,-0.002 0.16016,-0.003 0.0534,-10e-4 0.10677,-0.002 0.16016,-0.003 0.0534,-0.001 0.10677,-0.002 0.16016,-0.003 0.0534,-0.001 0.10677,-0.002 0.16016,-0.003 0.0534,-10e-4 0.10677,-0.002 0.16016,-0.003 0.0534,-10e-4 0.10677,-0.002 0.16016,-0.003 0.0534,-10e-4 0.10677,-0.002 0.16016,-0.003 0.0534,-0.001 0.10677,-0.002 0.16016,-0.003 0.0534,-10e-4 0.10677,-0.002 0.16016,-0.003 0.0534,-10e-4 0.10677,-0.002 0.16016,-0.003 0.0534,-10e-4 0.10677,-0.002 0.16016,-0.003 0.0534,-0.001 0.10677,-0.002 0.16016,-0.003 0.0534,-10e-4 0.10677,-0.002 0.16016,-0.003 0.0534,-10e-4 0.10677,-0.002 0.16016,-0.003 0.0534,-10e-4 0.10677,-0.002 0.16016,-0.003 0.0534,-0.001 0.10677,-0.002 0.16016,-0.003 0.0534,-10e-4 0.10677,-0.002 0.16016,-0.003 0.0534,-10e-4 0.10677,-0.002 0.16016,-0.003 0.0534,-10e-4 0.10677,-0.002 0.16016,-0.003 0.0534,-0.001 0.10677,-0.002 0.16016,-0.003 0.0534,-10e-4 0.10677,-0.002 0.16016,-0.003 0.0534,-10e-4 0.10677,-0.002 0.16016,-0.003 0.0534,-10e-4 0.10677,-0.002 0.16016,-0.003 0.0534,-0.001 0.10677,-0.002 0.16016,-0.003 0.0534,-10e-4 0.10677,-0.002 0.16016,-0.003 0.0534,-10e-4 0.10677,-0.002 0.16016,-0.003 0.0534,-10e-4 0.10677,-0.002 0.16016,-0.003 0.0534,-0.001 0.10677,-0.002 0.16016,-0.003 0.0534,-10e-4 0.10677,-0.002 0.16016,-0.003 0.0534,-10e-4 0.10677,-0.002 0.16016,-0.003 0.0534,-10e-4 0.10677,-0.002 0.16016,-0.003 0.0534,-0.001 0.10678,-0.002 0.16016,-0.003 0.0534,-10e-4 0.10678,-0.002 0.16016,-0.003 0.0534,-10e-4 0.10678,-0.002 0.16016,-0.003 0.0534,-10e-4 0.10678,-0.002 0.16016,-0.003 0.0534,-0.001 0.10678,-0.002 0.16016,-0.003 0.0534,-10e-4 0.10678,-0.002 0.16016,-0.003 0.0534,-10e-4 0.10678,-0.002 0.16016,-0.003 0.0534,-10e-4 0.10678,-0.002 0.16016,-0.003 0.0534,-0.001 0.10678,-0.002 0.16016,-0.003 0.0534,-10e-4 0.10678,-0.002 0.16016,-0.003 0.0534,-10e-4 0.10678,-0.002 0.16016,-0.003 0.0534,-10e-4 0.10678,-0.002 0.16016,-0.003 0.0534,-0.001 0.10678,-0.002 0.16016,-0.003 0.0534,-10e-4 0.10678,-0.002 0.16016,-0.003 0.0534,-10e-4 0.10678,-0.002 0.16016,-0.003 0.0534,-10e-4 0.10678,-0.002 0.16016,-0.003 0.0534,-0.001 0.10678,-0.002 0.16016,-0.003 0.0534,-0.001 0.10678,-0.002 0.16016,-0.003 0.0534,-10e-4 0.10678,-0.002 0.16016,-0.003 0.0534,-10e-4 0.10678,-0.002 0.16016,-0.003 0.0534,-0.001 0.10678,-0.002 0.16016,-0.003 0.0534,-0.001 0.10678,-0.002 0.16017,-0.003 0.0534,-10e-4 0.10677,-0.002 0.16016,-0.003 0.0534,-10e-4 0.10677,-0.002 0.16016,-0.003 0.0534,-0.001 0.10677,-0.002 0.16016,-0.003 0.0534,-0.001 0.10677,-0.002 0.16016,-0.003 0.0534,-10e-4 0.10677,-0.002 0.16016,-0.003 0.0534,-10e-4 0.10677,-0.002 0.16016,-0.003 0.0534,-0.001 0.10677,-0.002 0.16016,-0.003 0.0534,-0.001 0.10677,-0.002 0.16016,-0.003 0.0534,-10e-4 0.10677,-0.002 0.16016,-0.003 0.0534,-10e-4 0.10677,-0.002 0.16016,-0.003 0.0534,-0.001 0.10677,-0.002 0.16016,-0.003 0.0534,-0.001 0.10677,-0.002 0.16016,-0.003 0.0534,-10e-4 0.10677,-0.002 0.16016,-0.003 0.0534,-10e-4 0.10677,-0.002 0.16016,-0.003 0.0534,-0.001 0.10677,-0.002 0.16016,-0.003 0.0534,-0.001 0.10677,-0.002 0.16016,-0.003 0.0534,-9.9e-4 0.10677,-0.002 0.16016,-0.003 0.0534,-9.9e-4 0.10677,-0.002 0.16016,-0.003 0.0534,-9.9e-4 0.10677,-0.002 0.16016,-0.003 0.0534,-9.9e-4 0.10677,-0.002 0.16016,-0.003 0.0534,-9.9e-4 0.10677,-0.002 0.16016,-0.003 0.0534,-9.9e-4 0.10677,-0.002 0.16016,-0.003 0.0534,-9.8e-4 0.10677,-0.002 0.16016,-0.003 0.0534,-9.8e-4 0.10677,-0.002 0.16016,-0.003 0.0534,-9.8e-4 0.10677,-0.002 0.16016,-0.003 0.0534,-9.8e-4 0.10677,-0.002 0.16016,-0.003 0.0534,-9.7e-4 0.10677,-0.002 0.16016,-0.003 0.0534,-9.7e-4 0.10677,-0.002 0.16016,-0.003 0.0534,-9.8e-4 0.10677,-0.002 0.16016,-0.003 0.0534,-9.7e-4 0.10677,-0.002 0.16016,-0.003 0.0534,-9.7e-4 0.10677,-0.002 0.16016,-0.003 0.0534,-9.6e-4 0.10677,-0.002 0.16016,-0.003 0.0534,-9.6e-4 0.10677,-0.002 0.16016,-0.003 0.0534,-9.7e-4 0.10677,-0.002 0.16016,-0.003 0.0534,-9.6e-4 0.10677,-0.002 0.16016,-0.003 0.0534,-9.5e-4 0.10677,-0.002 0.16016,-0.003 0.0534,-9.5e-4 0.10677,-0.002 0.16016,-0.003 0.0534,-9.5e-4 0.10677,-0.002 0.16016,-0.003 0.0534,-9.5e-4 0.10677,-0.002 0.16016,-0.003 0.0534,-9.5e-4 0.10677,-0.002 0.16016,-0.003 0.0534,-9.5e-4 0.10677,-0.002 0.16016,-0.003 0.0534,-9.4e-4 0.10678,-0.002 0.16016,-0.003 0.0534,-9.4e-4 0.10678,-0.002 0.16016,-0.003 0.0534,-9.4e-4 0.10678,-0.002 0.16016,-0.003 0.0534,-9.4e-4 0.10678,-0.002 0.16016,-0.003 0.0534,-9.4e-4 0.10678,-0.002 0.16016,-0.003 0.0534,-9.4e-4 0.10678,-0.002 0.16016,-0.003 0.0534,-9.3e-4 0.10678,-0.002 0.16016,-0.003 0.0534,-9.3e-4 0.10678,-0.002 0.16016,-0.003 0.0534,-9.2e-4 0.10678,-0.002 0.16016,-0.003 0.0534,-9.3e-4 0.10678,-0.002 0.16016,-0.003 0.0534,-9.3e-4 0.10678,-0.002 0.16016,-0.003 0.0534,-9.2e-4 0.10678,-0.002 0.16016,-0.003 0.0534,-9.2e-4 0.10678,-0.002 0.16016,-0.003 0.0534,-9.2e-4 0.10678,-0.002 0.16016,-0.003 0.0534,-9.2e-4 0.10678,-0.002 0.16016,-0.003 0.0534,-9.2e-4 0.10678,-0.002 0.16016,-0.003 0.0534,-9.1e-4 0.10678,-0.002 0.16016,-0.003 0.0534,-9.1e-4 0.10678,-0.002 0.16016,-0.003 0.0534,-9.1e-4 0.10678,-0.002 0.16016,-0.003 0.0534,-9.1e-4 0.10678,-0.002 0.16016,-0.003 0.0534,-9.1e-4 0.10678,-0.002 0.16017,-0.003 0.0534,-9.1e-4 0.10677,-0.002 0.16016,-0.003 0.0534,-9.1e-4 0.10677,-0.002 0.16016,-0.003 0.0534,-9.1e-4 0.10677,-0.002 0.16016,-0.003 0.0534,-9e-4 0.10677,-0.002 0.16016,-0.003 0.0534,-9e-4 0.10677,-0.002 0.16016,-0.003 0.0534,-8.9e-4 0.10677,-0.002 0.16016,-0.003 0.0534,-9e-4 0.10677,-0.002 0.16016,-0.003 0.0534,-9e-4 0.10677,-0.002 0.16016,-0.003 0.0534,-8.9e-4 0.10677,-0.002 0.16016,-0.003 0.0534,-8.9e-4 0.10677,-0.002 0.16016,-0.003"
       style="opacity:1;fill:none;fill-opacity:1;fill-rule:nonzero;stroke:#000000;stroke-width:2.00000006;stroke-miterlimit:4;stroke-dasharray:2.00000006,4.00000011;stroke-dashoffset:0;stroke-opacity:1"
       inkscape:connector-curvature="0" />
    <path
       style="fill:none;stroke:#000000;stroke-width:0.40000001;stroke-linecap:butt;stroke-linejoin:miter;stroke-miterlimit:4;stroke-dasharray:1.6, 0.8;stroke-dashoffset:0;stroke-opacity:1"
       d="m -490.00828,285.35838 c 190.5,0 190.5,0 190.5,0"
       id="path819-8-2"
       inkscape:connector-curvature="0" />
    <g
       title="{\small$n$}"
       style="fill:#000000"
       id="equation_03"
       transform="translate(-385.61844,323.36791)">
      <defs
         id="defs5267">
        <path
           d="m 1.694645,-1.407721 c 0.09863,-0.42142 0.268991,-1.075965 0.277958,-1.147696 0.017932,-0.053798 0.242092,-0.484184 0.564881,-0.798008 0.260025,-0.242092 0.600748,-0.385554 0.950436,-0.385554 0.484185,0 0.484185,0.475218 0.484185,0.627646 0,0.546949 -0.42142,1.640847 -0.52005,1.918805 -0.107597,0.277958 -0.143462,0.367621 -0.143462,0.537983 0,0.484184 0.367621,0.753175 0.771108,0.753175 0.860772,0 1.210461,-1.282192 1.210461,-1.380822 0,-0.044832 -0.026899,-0.107596 -0.116563,-0.107596 -0.09863,0 -0.107597,0.044832 -0.143462,0.161394 -0.224159,0.762142 -0.600747,1.102865 -0.923537,1.102865 -0.062764,0 -0.224159,0 -0.224159,-0.286924 0,-0.22416 0.089664,-0.457285 0.161395,-0.654546 0.179327,-0.457285 0.537982,-1.407721 0.537982,-1.909838 0,-0.798007 -0.591781,-0.986301 -1.066999,-0.986301 -0.833873,0 -1.273225,0.591781 -1.416687,0.780074 -0.053798,-0.484184 -0.42142,-0.780074 -0.869738,-0.780074 -0.376588,0 -0.564882,0.277957 -0.690411,0.52005 -0.152429,0.313823 -0.277958,0.824906 -0.277958,0.860772 0,0.080697 0.062765,0.107596 0.125529,0.107596 0.09863,0 0.116563,-0.044832 0.161395,-0.224159 0.170361,-0.708344 0.358655,-1.0401 0.663512,-1.0401 0.268991,0 0.268991,0.286924 0.268991,0.42142 0,0.188294 -0.071731,0.466251 -0.125529,0.699377 -0.062765,0.233126 -0.152429,0.61868 -0.188294,0.726277 L 0.806974,-0.42142 c -0.062765,0.215193 -0.062765,0.233126 -0.062765,0.260025 0,0.116563 0.080698,0.260025 0.277958,0.260025 0.125529,0 0.260025,-0.080697 0.322789,-0.188294 0.0269,-0.053798 0.098631,-0.340722 0.143462,-0.52005 z"
           id="equation_03_00"
           inkscape:connector-curvature="0" />
      </defs>
      <g
         id="equation_03_g">
        <use
           id="use5269"
           xlink:href="#equation_03_00"
           y="62.764633"
           x="76.712326"
           width="100%"
           height="100%" />
      </g>
    </g>
    <g
       title="{\small$a_n$}"
       style="fill:#000000;stroke-width:0.65741515"
       id="equation_04"
       transform="matrix(1.5211088,0,0,1.5211088,-441.14505,212.4879)">
      <defs
         id="defs5328">
        <path
           d="M 3.425156,-3.407223 C 3.254795,-3.730012 2.976837,-3.963138 2.57335,-3.963138 c -1.0401,0 -2.196762,1.23736 -2.196762,2.609215 0,0.986302 0.627646,1.452553 1.228393,1.452553 0.582815,0 1.058033,-0.484184 1.201495,-0.654545 0.09863,0.49315 0.546949,0.654545 0.833873,0.654545 0.260025,0 0.484184,-0.116563 0.681444,-0.493151 0.161395,-0.29589 0.286924,-0.851805 0.286924,-0.887671 0,-0.044832 -0.026899,-0.107596 -0.116563,-0.107596 -0.107596,0 -0.116562,0.044832 -0.152428,0.215193 -0.19726,0.780074 -0.394521,1.049066 -0.672478,1.049066 -0.22416,0 -0.277958,-0.215193 -0.277958,-0.412454 0,-0.170361 0.044832,-0.349688 0.125529,-0.663511 l 0.22416,-0.923537 c 0.062764,-0.22416 0.224159,-0.896638 0.260025,-1.031133 0.035865,-0.12553 0.089663,-0.340723 0.089663,-0.367622 0,-0.143462 -0.116562,-0.260025 -0.277957,-0.260025 -0.116563,0 -0.340722,0.071731 -0.385554,0.376588 z m -0.582815,2.313325 c -0.044832,0.170361 -0.044832,0.179328 -0.188294,0.349689 -0.322789,0.385554 -0.690411,0.61868 -1.022167,0.61868 -0.439352,0 -0.59178,-0.457285 -0.59178,-0.84284 0,-0.439352 0.260025,-1.470485 0.475218,-1.900871 0.286924,-0.537983 0.699377,-0.869739 1.058032,-0.869739 0.600747,0 0.735243,0.71731 0.735243,0.780075 0,0.044832 -0.017933,0.09863 -0.026899,0.134496 z"
           id="equation_04_00"
           inkscape:connector-curvature="0" />
        <path
           d="M 1.751432,-2.068244 C 1.721544,-2.52254 1.303113,-2.636115 1.075965,-2.636115 c -0.227148,0 -0.382565,0.137485 -0.490162,0.328768 -0.149439,0.24508 -0.22117,0.561892 -0.22117,0.585803 0,0.065753 0.053798,0.089664 0.107596,0.089664 0.095641,0 0.101619,-0.041844 0.131507,-0.137485 0.119552,-0.478207 0.263014,-0.669489 0.454296,-0.669489 0.215193,0 0.215193,0.245081 0.215193,0.304856 0,0.095642 -0.059775,0.334745 -0.101619,0.502118 -0.041843,0.161394 -0.101618,0.406475 -0.131506,0.537982 -0.041843,0.14944 -0.077709,0.304857 -0.119552,0.454297 -0.041843,0.167372 -0.113574,0.466251 -0.113574,0.502117 0,0.131506 0.101619,0.19726 0.209215,0.19726 0.107596,0 0.209216,-0.071731 0.257036,-0.161395 0.011956,-0.035865 0.065754,-0.245081 0.095642,-0.364633 l 0.131507,-0.537982 c 0.041843,-0.155417 0.065753,-0.263014 0.101619,-0.400498 0.053798,-0.203238 0.263013,-0.52005 0.484184,-0.741221 0.119552,-0.113574 0.376588,-0.292901 0.699377,-0.292901 0.382566,0 0.382566,0.304856 0.382566,0.418431 0,0.352677 -0.257037,0.992279 -0.364633,1.26127 -0.035866,0.101619 -0.077709,0.19726 -0.077709,0.298879 0,0.304857 0.274969,0.52005 0.603736,0.52005 0.603736,0 0.902616,-0.789041 0.902616,-0.920548 0,-0.011955 -0.00598,-0.083686 -0.113575,-0.083686 -0.083686,0 -0.089663,0.029888 -0.125529,0.143462 -0.095641,0.316812 -0.340722,0.663512 -0.645579,0.663512 -0.113574,0 -0.161395,-0.089664 -0.161395,-0.215193 0,-0.119552 0.041843,-0.221171 0.095642,-0.3467 0.089663,-0.233126 0.358655,-0.908593 0.358655,-1.243338 0,-0.490162 -0.370611,-0.6934 -0.824907,-0.6934 -0.298879,0 -0.681444,0.095642 -1.06401,0.567871 z"
           id="equation_04_01"
           inkscape:connector-curvature="0" />
      </defs>
      <g
         id="equation_04_g"
         style="stroke-width:0.65741515">
        <use
           id="use5330"
           xlink:href="#equation_04_00"
           y="62.764633"
           x="76.712326"
           width="100%"
           height="100%"
           style="stroke-width:0.65741515" />
        <use
           id="use5332"
           xlink:href="#equation_04_01"
           y="63.76088"
           x="81.594337"
           width="100%"
           height="100%"
           style="stroke-width:0.65741515" />
      </g>
    </g>
    <path
       style="fill:none;stroke:#000000;stroke-width:0.80000001;stroke-linecap:butt;stroke-linejoin:miter;stroke-miterlimit:4;stroke-dasharray:none;stroke-opacity:1;marker-end:url(#Arrow1Mend-8)"
       d="m -211.66667,334.04167 c 190.500003,0 190.500003,0 190.500003,0"
       id="path819-0"
       inkscape:connector-curvature="0" />
    <path
       style="fill:none;stroke:#000000;stroke-width:0.26458332px;stroke-linecap:butt;stroke-linejoin:miter;stroke-opacity:1"
       d="m -187.85416,334.04167 c 0,-23.8125 0,-23.8125 0,-23.8125 145.520827,-1e-5 145.520827,-1e-5 145.520827,-1e-5 v 23.8125"
       id="path5611"
       inkscape:connector-curvature="0" />
    <path
       style="fill:none;stroke:#000000;stroke-width:0.26458332px;stroke-linecap:butt;stroke-linejoin:miter;stroke-opacity:1"
       d="m -148.16666,334.04166 c 0,-14.2875 0,-14.2875 0,-14.2875 87.312493,-1e-5 87.312493,-1e-5 87.312493,-1e-5 v 14.2875"
       id="path5611-3"
       inkscape:connector-curvature="0" />
    <path
       style="fill:none;stroke:#000000;stroke-width:0.26458332px;stroke-linecap:butt;stroke-linejoin:miter;stroke-opacity:1"
       d="m -137.58333,333.89735 c 0,-7.79319 0,-7.79319 0,-7.79319 47.624997,0 47.624997,0 47.624997,0 v 7.79318"
       id="path5611-3-3"
       inkscape:connector-curvature="0" />
    <path
       style="fill:none;stroke:#000000;stroke-width:0.26458332px;stroke-linecap:butt;stroke-linejoin:miter;stroke-opacity:1"
       d="m -129.64583,333.5125 c 0,-4.76251 0,-4.76251 0,-4.76251 29.10416,0 29.10416,0 29.10416,0 v 4.7625"
       id="path5611-3-3-6"
       inkscape:connector-curvature="0" />
    <g
       title="{\small$a_1$}"
       style="fill:#000000"
       id="equation_05"
       transform="translate(-269.26341,282.03827)">
      <defs
         id="defs5722">
        <path
           d="M 3.425156,-3.407223 C 3.254795,-3.730012 2.976837,-3.963138 2.57335,-3.963138 c -1.0401,0 -2.196762,1.23736 -2.196762,2.609215 0,0.986302 0.627646,1.452553 1.228393,1.452553 0.582815,0 1.058033,-0.484184 1.201495,-0.654545 0.09863,0.49315 0.546949,0.654545 0.833873,0.654545 0.260025,0 0.484184,-0.116563 0.681444,-0.493151 0.161395,-0.29589 0.286924,-0.851805 0.286924,-0.887671 0,-0.044832 -0.026899,-0.107596 -0.116563,-0.107596 -0.107596,0 -0.116562,0.044832 -0.152428,0.215193 -0.19726,0.780074 -0.394521,1.049066 -0.672478,1.049066 -0.22416,0 -0.277958,-0.215193 -0.277958,-0.412454 0,-0.170361 0.044832,-0.349688 0.125529,-0.663511 l 0.22416,-0.923537 c 0.062764,-0.22416 0.224159,-0.896638 0.260025,-1.031133 0.035865,-0.12553 0.089663,-0.340723 0.089663,-0.367622 0,-0.143462 -0.116562,-0.260025 -0.277957,-0.260025 -0.116563,0 -0.340722,0.071731 -0.385554,0.376588 z m -0.582815,2.313325 c -0.044832,0.170361 -0.044832,0.179328 -0.188294,0.349689 -0.322789,0.385554 -0.690411,0.61868 -1.022167,0.61868 -0.439352,0 -0.59178,-0.457285 -0.59178,-0.84284 0,-0.439352 0.260025,-1.470485 0.475218,-1.900871 0.286924,-0.537983 0.699377,-0.869739 1.058032,-0.869739 0.600747,0 0.735243,0.71731 0.735243,0.780075 0,0.044832 -0.017933,0.09863 -0.026899,0.134496 z"
           id="equation_05_00"
           inkscape:connector-curvature="0" />
        <path
           d="m 2.145953,-3.795766 c 0,-0.179327 -0.023911,-0.179327 -0.203238,-0.179327 -0.394521,0.382565 -1.004234,0.382565 -1.219427,0.382565 v 0.233126 c 0.155417,0 0.549937,0 0.908592,-0.167373 v 3.01868 c 0,0.197261 0,0.274969 -0.615691,0.274969 H 0.759153 V 0 c 0.328767,-0.02391 0.795019,-0.02391 1.129764,-0.02391 0.334745,0 0.800996,0 1.129763,0.02391 V -0.233126 H 2.761644 c -0.615691,0 -0.615691,-0.077708 -0.615691,-0.274969 z"
           id="equation_05_01"
           inkscape:connector-curvature="0" />
      </defs>
      <g
         id="equation_05_g">
        <use
           id="use5724"
           xlink:href="#equation_05_00"
           y="62.764633"
           x="76.712326"
           width="100%"
           height="100%" />
        <use
           id="use5726"
           xlink:href="#equation_05_01"
           y="63.76088"
           x="81.594337"
           width="100%"
           height="100%" />
      </g>
    </g>
    <g
       title="{\small$a_2$}"
       style="fill:#000000"
       id="equation_06"
       transform="translate(-232.90938,282.0329)">
      <defs
         id="defs5811">
        <path
           d="M 3.425156,-3.407223 C 3.254795,-3.730012 2.976837,-3.963138 2.57335,-3.963138 c -1.0401,0 -2.196762,1.23736 -2.196762,2.609215 0,0.986302 0.627646,1.452553 1.228393,1.452553 0.582815,0 1.058033,-0.484184 1.201495,-0.654545 0.09863,0.49315 0.546949,0.654545 0.833873,0.654545 0.260025,0 0.484184,-0.116563 0.681444,-0.493151 0.161395,-0.29589 0.286924,-0.851805 0.286924,-0.887671 0,-0.044832 -0.026899,-0.107596 -0.116563,-0.107596 -0.107596,0 -0.116562,0.044832 -0.152428,0.215193 -0.19726,0.780074 -0.394521,1.049066 -0.672478,1.049066 -0.22416,0 -0.277958,-0.215193 -0.277958,-0.412454 0,-0.170361 0.044832,-0.349688 0.125529,-0.663511 l 0.22416,-0.923537 c 0.062764,-0.22416 0.224159,-0.896638 0.260025,-1.031133 0.035865,-0.12553 0.089663,-0.340723 0.089663,-0.367622 0,-0.143462 -0.116562,-0.260025 -0.277957,-0.260025 -0.116563,0 -0.340722,0.071731 -0.385554,0.376588 z m -0.582815,2.313325 c -0.044832,0.170361 -0.044832,0.179328 -0.188294,0.349689 -0.322789,0.385554 -0.690411,0.61868 -1.022167,0.61868 -0.439352,0 -0.59178,-0.457285 -0.59178,-0.84284 0,-0.439352 0.260025,-1.470485 0.475218,-1.900871 0.286924,-0.537983 0.699377,-0.869739 1.058032,-0.869739 0.600747,0 0.735243,0.71731 0.735243,0.780075 0,0.044832 -0.017933,0.09863 -0.026899,0.134496 z"
           id="equation_06_00"
           inkscape:connector-curvature="0" />
        <path
           d="M 3.21594,-1.117808 H 2.99477 c -0.011956,0.083686 -0.071731,0.478207 -0.161395,0.54396 -0.041843,0.035865 -0.526028,0.035865 -0.609714,0.035865 H 1.105853 l 0.765131,-0.621668 c 0.203238,-0.161395 0.735243,-0.54396 0.920548,-0.723288 0.179327,-0.179328 0.424408,-0.484184 0.424408,-0.908593 0,-0.747198 -0.675467,-1.183561 -1.476463,-1.183561 -0.771108,0 -1.309091,0.508094 -1.309091,1.069987 0,0.304857 0.257036,0.340722 0.32279,0.340722 0.149439,0 0.322789,-0.107596 0.322789,-0.322789 0,-0.131507 -0.077708,-0.32279 -0.340722,-0.32279 0.137484,-0.304856 0.502117,-0.532005 0.91457,-0.532005 0.627647,0 0.962391,0.466252 0.962391,0.950436 0,0.424409 -0.280946,0.860772 -0.699377,1.243338 L 0.496139,-0.251059 C 0.436364,-0.191283 0.430386,-0.185305 0.430386,0 h 2.600249 z"
           id="equation_06_01"
           inkscape:connector-curvature="0" />
      </defs>
      <g
         id="equation_06_g">
        <use
           id="use5813"
           xlink:href="#equation_06_00"
           y="62.764633"
           x="76.712326"
           width="100%"
           height="100%" />
        <use
           id="use5815"
           xlink:href="#equation_06_01"
           y="63.76088"
           x="81.594337"
           width="100%"
           height="100%" />
      </g>
    </g>
    <g
       title="{\small$a_3$}"
       style="fill:#000000"
       id="equation_07"
       transform="translate(-218.74235,282.21889)">
      <defs
         id="defs5907">
        <path
           d="M 3.425156,-3.407223 C 3.254795,-3.730012 2.976837,-3.963138 2.57335,-3.963138 c -1.0401,0 -2.196762,1.23736 -2.196762,2.609215 0,0.986302 0.627646,1.452553 1.228393,1.452553 0.582815,0 1.058033,-0.484184 1.201495,-0.654545 0.09863,0.49315 0.546949,0.654545 0.833873,0.654545 0.260025,0 0.484184,-0.116563 0.681444,-0.493151 0.161395,-0.29589 0.286924,-0.851805 0.286924,-0.887671 0,-0.044832 -0.026899,-0.107596 -0.116563,-0.107596 -0.107596,0 -0.116562,0.044832 -0.152428,0.215193 -0.19726,0.780074 -0.394521,1.049066 -0.672478,1.049066 -0.22416,0 -0.277958,-0.215193 -0.277958,-0.412454 0,-0.170361 0.044832,-0.349688 0.125529,-0.663511 l 0.22416,-0.923537 c 0.062764,-0.22416 0.224159,-0.896638 0.260025,-1.031133 0.035865,-0.12553 0.089663,-0.340723 0.089663,-0.367622 0,-0.143462 -0.116562,-0.260025 -0.277957,-0.260025 -0.116563,0 -0.340722,0.071731 -0.385554,0.376588 z m -0.582815,2.313325 c -0.044832,0.170361 -0.044832,0.179328 -0.188294,0.349689 -0.322789,0.385554 -0.690411,0.61868 -1.022167,0.61868 -0.439352,0 -0.59178,-0.457285 -0.59178,-0.84284 0,-0.439352 0.260025,-1.470485 0.475218,-1.900871 0.286924,-0.537983 0.699377,-0.869739 1.058032,-0.869739 0.600747,0 0.735243,0.71731 0.735243,0.780075 0,0.044832 -0.017933,0.09863 -0.026899,0.134496 z"
           id="equation_07_00"
           inkscape:connector-curvature="0" />
        <path
           d="m 1.75741,-1.984558 c 0.508094,0 0.848817,0.340722 0.848817,0.950436 0,0.657534 -0.394521,0.944458 -0.830885,0.944458 -0.161394,0 -0.777085,-0.035865 -1.046077,-0.382565 0.233126,-0.02391 0.328767,-0.179328 0.328767,-0.340722 0,-0.203238 -0.143462,-0.340723 -0.340722,-0.340723 -0.161395,0 -0.340722,0.101619 -0.340722,0.352678 0,0.591781 0.657534,0.926525 1.416687,0.926525 0.884683,0 1.476463,-0.56787 1.476463,-1.159651 0,-0.436364 -0.334744,-0.896638 -1.046077,-1.075965 0.472229,-0.155417 0.854795,-0.537983 0.854795,-1.028145 0,-0.478206 -0.561893,-0.836861 -1.279203,-0.836861 -0.699378,0 -1.231383,0.322789 -1.231383,0.812951 0,0.257036 0.197261,0.328767 0.316812,0.328767 0.155418,0 0.316812,-0.107596 0.316812,-0.316812 0,-0.185305 -0.131506,-0.292901 -0.292901,-0.316812 0.280946,-0.310834 0.824906,-0.310834 0.878705,-0.310834 0.304856,0 0.687422,0.143462 0.687422,0.639601 0,0.328767 -0.185305,0.902616 -0.783064,0.938481 -0.107596,0.00598 -0.268991,0.017933 -0.322789,0.017933 -0.059776,0.00598 -0.12553,0.011955 -0.12553,0.101619 0,0.095641 0.065754,0.095641 0.167373,0.095641 z"
           id="equation_07_01"
           inkscape:connector-curvature="0" />
      </defs>
      <g
         id="equation_07_g">
        <use
           id="use5909"
           xlink:href="#equation_07_00"
           y="62.764633"
           x="76.712326"
           width="100%"
           height="100%" />
        <use
           id="use5911"
           xlink:href="#equation_07_01"
           y="63.76088"
           x="81.594337"
           width="100%"
           height="100%" />
      </g>
    </g>
    <g
       title="{\small$a_4$}"
       style="fill:#000000"
       id="equation_08"
       transform="translate(-206.9215,282.10533)">
      <defs
         id="defs6010">
        <path
           d="M 3.425156,-3.407223 C 3.254795,-3.730012 2.976837,-3.963138 2.57335,-3.963138 c -1.0401,0 -2.196762,1.23736 -2.196762,2.609215 0,0.986302 0.627646,1.452553 1.228393,1.452553 0.582815,0 1.058033,-0.484184 1.201495,-0.654545 0.09863,0.49315 0.546949,0.654545 0.833873,0.654545 0.260025,0 0.484184,-0.116563 0.681444,-0.493151 0.161395,-0.29589 0.286924,-0.851805 0.286924,-0.887671 0,-0.044832 -0.026899,-0.107596 -0.116563,-0.107596 -0.107596,0 -0.116562,0.044832 -0.152428,0.215193 -0.19726,0.780074 -0.394521,1.049066 -0.672478,1.049066 -0.22416,0 -0.277958,-0.215193 -0.277958,-0.412454 0,-0.170361 0.044832,-0.349688 0.125529,-0.663511 l 0.22416,-0.923537 c 0.062764,-0.22416 0.224159,-0.896638 0.260025,-1.031133 0.035865,-0.12553 0.089663,-0.340723 0.089663,-0.367622 0,-0.143462 -0.116562,-0.260025 -0.277957,-0.260025 -0.116563,0 -0.340722,0.071731 -0.385554,0.376588 z m -0.582815,2.313325 c -0.044832,0.170361 -0.044832,0.179328 -0.188294,0.349689 -0.322789,0.385554 -0.690411,0.61868 -1.022167,0.61868 -0.439352,0 -0.59178,-0.457285 -0.59178,-0.84284 0,-0.439352 0.260025,-1.470485 0.475218,-1.900871 0.286924,-0.537983 0.699377,-0.869739 1.058032,-0.869739 0.600747,0 0.735243,0.71731 0.735243,0.780075 0,0.044832 -0.017933,0.09863 -0.026899,0.134496 z"
           id="equation_08_00"
           inkscape:connector-curvature="0" />
        <path
           d="M 3.371357,-0.980324 V -1.21345 H 2.67198 v -2.642092 c 0,-0.137484 0,-0.179327 -0.14944,-0.179327 -0.107596,0 -0.119551,0.017933 -0.173349,0.089664 L 0.274969,-1.21345 v 0.233126 h 1.859029 v 0.478207 c 0,0.19726 0,0.268991 -0.502118,0.268991 H 1.458531 V 0 c 0.119551,-0.005978 0.681444,-0.02391 0.944458,-0.02391 0.263014,0 0.824906,0.017932 0.944458,0.02391 v -0.233126 h -0.17335 c -0.502117,0 -0.502117,-0.071731 -0.502117,-0.268991 V -0.980324 Z M 2.175841,-3.383313 V -1.21345 H 0.532005 Z"
           id="equation_08_01"
           inkscape:connector-curvature="0" />
      </defs>
      <g
         id="equation_08_g">
        <use
           id="use6012"
           xlink:href="#equation_08_00"
           y="62.764633"
           x="76.712326"
           width="100%"
           height="100%" />
        <use
           id="use6014"
           xlink:href="#equation_08_01"
           y="63.76088"
           x="81.594337"
           width="100%"
           height="100%" />
      </g>
    </g>
    <g
       title="{\small$b_4$}"
       style="fill:#000000"
       id="equation_09"
       transform="translate(-181.37521,282.7125)">
      <defs
         id="defs6120">
        <path
           d="m 2.142964,-5.917808 c 0.035865,-0.125529 0.035865,-0.143462 0.035865,-0.179328 0,-0.080697 -0.053798,-0.125529 -0.134495,-0.125529 -0.12553,0 -0.914571,0.071731 -1.093898,0.089664 -0.089664,0.00897 -0.188294,0.017933 -0.188294,0.170361 0,0.116563 0.09863,0.116563 0.242092,0.116563 0.42142,0 0.42142,0.062764 0.42142,0.143462 0,0.053798 0,0.071731 -0.062765,0.313823 L 0.887671,-3.496887 C 0.762142,-2.99477 0.645579,-2.537484 0.546949,-2.116065 0.484184,-1.891905 0.42142,-1.622914 0.42142,-1.33599 c 0,0.771108 0.430386,1.43462 1.201494,1.43462 1.049066,0 2.196762,-1.264259 2.196762,-2.609215 0,-0.914571 -0.564881,-1.452553 -1.23736,-1.452553 -0.457285,0 -0.851805,0.313823 -1.058032,0.511083 z m -0.744209,2.976837 c 0.251058,-0.358655 0.708343,-0.798008 1.165629,-0.798008 0.421419,0 0.59178,0.42142 0.59178,0.84284 0,0.403486 -0.251058,1.515317 -0.529016,1.990535 -0.331756,0.573848 -0.726276,0.780075 -1.004234,0.780075 -0.448319,0 -0.627646,-0.448319 -0.627646,-0.905604 0,-0.313823 0.062764,-0.555916 0.268991,-1.371856 z"
           id="equation_09_00"
           inkscape:connector-curvature="0" />
        <path
           d="M 3.371357,-0.980324 V -1.21345 H 2.67198 v -2.642092 c 0,-0.137484 0,-0.179327 -0.14944,-0.179327 -0.107596,0 -0.119551,0.017933 -0.173349,0.089664 L 0.274969,-1.21345 v 0.233126 h 1.859029 v 0.478207 c 0,0.19726 0,0.268991 -0.502118,0.268991 H 1.458531 V 0 c 0.119551,-0.005978 0.681444,-0.02391 0.944458,-0.02391 0.263014,0 0.824906,0.017932 0.944458,0.02391 v -0.233126 h -0.17335 c -0.502117,0 -0.502117,-0.071731 -0.502117,-0.268991 V -0.980324 Z M 2.175841,-3.383313 V -1.21345 H 0.532005 Z"
           id="equation_09_01"
           inkscape:connector-curvature="0" />
      </defs>
      <g
         id="equation_09_g">
        <use
           id="use6122"
           xlink:href="#equation_09_00"
           y="62.764633"
           x="76.712326"
           width="100%"
           height="100%" />
        <use
           id="use6124"
           xlink:href="#equation_09_01"
           y="63.76088"
           x="80.661385"
           width="100%"
           height="100%" />
      </g>
    </g>
    <g
       title="{\small$b_3$}"
       style="fill:#000000"
       id="equation_10"
       transform="translate(-168.74097,282.98955)">
      <defs
         id="defs6237">
        <path
           d="m 2.142964,-5.917808 c 0.035865,-0.125529 0.035865,-0.143462 0.035865,-0.179328 0,-0.080697 -0.053798,-0.125529 -0.134495,-0.125529 -0.12553,0 -0.914571,0.071731 -1.093898,0.089664 -0.089664,0.00897 -0.188294,0.017933 -0.188294,0.170361 0,0.116563 0.09863,0.116563 0.242092,0.116563 0.42142,0 0.42142,0.062764 0.42142,0.143462 0,0.053798 0,0.071731 -0.062765,0.313823 L 0.887671,-3.496887 C 0.762142,-2.99477 0.645579,-2.537484 0.546949,-2.116065 0.484184,-1.891905 0.42142,-1.622914 0.42142,-1.33599 c 0,0.771108 0.430386,1.43462 1.201494,1.43462 1.049066,0 2.196762,-1.264259 2.196762,-2.609215 0,-0.914571 -0.564881,-1.452553 -1.23736,-1.452553 -0.457285,0 -0.851805,0.313823 -1.058032,0.511083 z m -0.744209,2.976837 c 0.251058,-0.358655 0.708343,-0.798008 1.165629,-0.798008 0.421419,0 0.59178,0.42142 0.59178,0.84284 0,0.403486 -0.251058,1.515317 -0.529016,1.990535 -0.331756,0.573848 -0.726276,0.780075 -1.004234,0.780075 -0.448319,0 -0.627646,-0.448319 -0.627646,-0.905604 0,-0.313823 0.062764,-0.555916 0.268991,-1.371856 z"
           id="equation_10_00"
           inkscape:connector-curvature="0" />
        <path
           d="m 1.75741,-1.984558 c 0.508094,0 0.848817,0.340722 0.848817,0.950436 0,0.657534 -0.394521,0.944458 -0.830885,0.944458 -0.161394,0 -0.777085,-0.035865 -1.046077,-0.382565 0.233126,-0.02391 0.328767,-0.179328 0.328767,-0.340722 0,-0.203238 -0.143462,-0.340723 -0.340722,-0.340723 -0.161395,0 -0.340722,0.101619 -0.340722,0.352678 0,0.591781 0.657534,0.926525 1.416687,0.926525 0.884683,0 1.476463,-0.56787 1.476463,-1.159651 0,-0.436364 -0.334744,-0.896638 -1.046077,-1.075965 0.472229,-0.155417 0.854795,-0.537983 0.854795,-1.028145 0,-0.478206 -0.561893,-0.836861 -1.279203,-0.836861 -0.699378,0 -1.231383,0.322789 -1.231383,0.812951 0,0.257036 0.197261,0.328767 0.316812,0.328767 0.155418,0 0.316812,-0.107596 0.316812,-0.316812 0,-0.185305 -0.131506,-0.292901 -0.292901,-0.316812 0.280946,-0.310834 0.824906,-0.310834 0.878705,-0.310834 0.304856,0 0.687422,0.143462 0.687422,0.639601 0,0.328767 -0.185305,0.902616 -0.783064,0.938481 -0.107596,0.00598 -0.268991,0.017933 -0.322789,0.017933 -0.059776,0.00598 -0.12553,0.011955 -0.12553,0.101619 0,0.095641 0.065754,0.095641 0.167373,0.095641 z"
           id="equation_10_01"
           inkscape:connector-curvature="0" />
      </defs>
      <g
         id="equation_10_g">
        <use
           id="use6239"
           xlink:href="#equation_10_00"
           y="62.764633"
           x="76.712326"
           width="100%"
           height="100%" />
        <use
           id="use6241"
           xlink:href="#equation_10_01"
           y="63.76088"
           x="80.661385"
           width="100%"
           height="100%" />
      </g>
    </g>
    <g
       title="{\small$b_2$}"
       style="fill:#000000"
       id="equation_11"
       transform="translate(-141.67231,282.71248)">
      <defs
         id="defs6361">
        <path
           d="m 2.142964,-5.917808 c 0.035865,-0.125529 0.035865,-0.143462 0.035865,-0.179328 0,-0.080697 -0.053798,-0.125529 -0.134495,-0.125529 -0.12553,0 -0.914571,0.071731 -1.093898,0.089664 -0.089664,0.00897 -0.188294,0.017933 -0.188294,0.170361 0,0.116563 0.09863,0.116563 0.242092,0.116563 0.42142,0 0.42142,0.062764 0.42142,0.143462 0,0.053798 0,0.071731 -0.062765,0.313823 L 0.887671,-3.496887 C 0.762142,-2.99477 0.645579,-2.537484 0.546949,-2.116065 0.484184,-1.891905 0.42142,-1.622914 0.42142,-1.33599 c 0,0.771108 0.430386,1.43462 1.201494,1.43462 1.049066,0 2.196762,-1.264259 2.196762,-2.609215 0,-0.914571 -0.564881,-1.452553 -1.23736,-1.452553 -0.457285,0 -0.851805,0.313823 -1.058032,0.511083 z m -0.744209,2.976837 c 0.251058,-0.358655 0.708343,-0.798008 1.165629,-0.798008 0.421419,0 0.59178,0.42142 0.59178,0.84284 0,0.403486 -0.251058,1.515317 -0.529016,1.990535 -0.331756,0.573848 -0.726276,0.780075 -1.004234,0.780075 -0.448319,0 -0.627646,-0.448319 -0.627646,-0.905604 0,-0.313823 0.062764,-0.555916 0.268991,-1.371856 z"
           id="equation_11_00"
           inkscape:connector-curvature="0" />
        <path
           d="M 3.21594,-1.117808 H 2.99477 c -0.011956,0.083686 -0.071731,0.478207 -0.161395,0.54396 -0.041843,0.035865 -0.526028,0.035865 -0.609714,0.035865 H 1.105853 l 0.765131,-0.621668 c 0.203238,-0.161395 0.735243,-0.54396 0.920548,-0.723288 0.179327,-0.179328 0.424408,-0.484184 0.424408,-0.908593 0,-0.747198 -0.675467,-1.183561 -1.476463,-1.183561 -0.771108,0 -1.309091,0.508094 -1.309091,1.069987 0,0.304857 0.257036,0.340722 0.32279,0.340722 0.149439,0 0.322789,-0.107596 0.322789,-0.322789 0,-0.131507 -0.077708,-0.32279 -0.340722,-0.32279 0.137484,-0.304856 0.502117,-0.532005 0.91457,-0.532005 0.627647,0 0.962391,0.466252 0.962391,0.950436 0,0.424409 -0.280946,0.860772 -0.699377,1.243338 L 0.496139,-0.251059 C 0.436364,-0.191283 0.430386,-0.185305 0.430386,0 h 2.600249 z"
           id="equation_11_01"
           inkscape:connector-curvature="0" />
      </defs>
      <g
         id="equation_11_g">
        <use
           id="use6363"
           xlink:href="#equation_11_00"
           y="62.764633"
           x="76.712326"
           width="100%"
           height="100%" />
        <use
           id="use6365"
           xlink:href="#equation_11_01"
           y="63.76088"
           x="80.661385"
           width="100%"
           height="100%" />
      </g>
    </g>
    <g
       title="{\small$b_1$}"
       style="fill:#000000"
       id="equation_12"
       transform="translate(-123.12189,282.83223)">
      <defs
         id="defs6492">
        <path
           d="m 2.142964,-5.917808 c 0.035865,-0.125529 0.035865,-0.143462 0.035865,-0.179328 0,-0.080697 -0.053798,-0.125529 -0.134495,-0.125529 -0.12553,0 -0.914571,0.071731 -1.093898,0.089664 -0.089664,0.00897 -0.188294,0.017933 -0.188294,0.170361 0,0.116563 0.09863,0.116563 0.242092,0.116563 0.42142,0 0.42142,0.062764 0.42142,0.143462 0,0.053798 0,0.071731 -0.062765,0.313823 L 0.887671,-3.496887 C 0.762142,-2.99477 0.645579,-2.537484 0.546949,-2.116065 0.484184,-1.891905 0.42142,-1.622914 0.42142,-1.33599 c 0,0.771108 0.430386,1.43462 1.201494,1.43462 1.049066,0 2.196762,-1.264259 2.196762,-2.609215 0,-0.914571 -0.564881,-1.452553 -1.23736,-1.452553 -0.457285,0 -0.851805,0.313823 -1.058032,0.511083 z m -0.744209,2.976837 c 0.251058,-0.358655 0.708343,-0.798008 1.165629,-0.798008 0.421419,0 0.59178,0.42142 0.59178,0.84284 0,0.403486 -0.251058,1.515317 -0.529016,1.990535 -0.331756,0.573848 -0.726276,0.780075 -1.004234,0.780075 -0.448319,0 -0.627646,-0.448319 -0.627646,-0.905604 0,-0.313823 0.062764,-0.555916 0.268991,-1.371856 z"
           id="equation_12_00"
           inkscape:connector-curvature="0" />
        <path
           d="m 2.145953,-3.795766 c 0,-0.179327 -0.023911,-0.179327 -0.203238,-0.179327 -0.394521,0.382565 -1.004234,0.382565 -1.219427,0.382565 v 0.233126 c 0.155417,0 0.549937,0 0.908592,-0.167373 v 3.01868 c 0,0.197261 0,0.274969 -0.615691,0.274969 H 0.759153 V 0 c 0.328767,-0.02391 0.795019,-0.02391 1.129764,-0.02391 0.334745,0 0.800996,0 1.129763,0.02391 V -0.233126 H 2.761644 c -0.615691,0 -0.615691,-0.077708 -0.615691,-0.274969 z"
           id="equation_12_01"
           inkscape:connector-curvature="0" />
      </defs>
      <g
         id="equation_12_g">
        <use
           id="use6494"
           xlink:href="#equation_12_00"
           y="62.764633"
           x="76.712326"
           width="100%"
           height="100%" />
        <use
           id="use6496"
           xlink:href="#equation_12_01"
           y="63.76088"
           x="80.661385"
           width="100%"
           height="100%" />
      </g>
    </g>
    <rect
       style="opacity:1;fill:none;fill-opacity:1;fill-rule:nonzero;stroke:#000000;stroke-width:0;stroke-miterlimit:4;stroke-dasharray:none;stroke-dashoffset:0;stroke-opacity:1"
       id="rect6525"
       width="201.08333"
       height="63.5"
       x="-216.95833"
       y="297"
       inkscape:export-xdpi="300.10001"
       inkscape:export-ydpi="300.10001" />
    <path
       style="fill:none;stroke:#000000;stroke-width:0.26458332px;stroke-linecap:butt;stroke-linejoin:miter;stroke-opacity:1"
       d="m -465.66667,21.833318 c 11.90625,-7.937496 23.81249,0 23.81249,0"
       id="path1226-7"
       inkscape:connector-curvature="0" />
    <g
       title="{\small$-y$}"
       style="fill:#000000"
       id="equation_13"
       transform="translate(-542.16815,-52.164414)">
      <defs
         id="defs1125">
        <path
           d="m 6.052304,-2.0533 c 0.161395,0 0.331756,0 0.331756,-0.19726 0,-0.188294 -0.179328,-0.188294 -0.331756,-0.188294 h -4.94944 c -0.152428,0 -0.331756,0 -0.331756,0.188294 0,0.19726 0.170361,0.19726 0.331756,0.19726 z"
           id="equation_13_00"
           inkscape:connector-curvature="0" />
        <path
           d="m 4.501121,-3.452055 c 0.00897,-0.044832 0.026899,-0.09863 0.026899,-0.152428 0,-0.116563 -0.080697,-0.260025 -0.277958,-0.260025 -0.116563,0 -0.277957,0.071731 -0.349688,0.242092 -0.00897,0.035866 -0.098631,0.403487 -0.152429,0.600747 l -0.448319,1.793275 c -0.071731,0.260025 -0.071731,0.277958 -0.089663,0.358656 -0.00897,0.035865 -0.385555,0.744209 -1.031134,0.744209 -0.555915,0 -0.555915,-0.564882 -0.555915,-0.735243 0,-0.403487 0.116563,-0.842839 0.502117,-1.847074 0.071731,-0.206226 0.125529,-0.331755 0.125529,-0.502117 0,-0.439352 -0.331756,-0.753175 -0.771108,-0.753175 -0.860772,0 -1.219427,1.273225 -1.219427,1.380822 0,0.080697 0.062765,0.107596 0.125529,0.107596 0.09863,0 0.107597,-0.053798 0.143462,-0.170361 0.188294,-0.663512 0.546949,-1.093898 0.923537,-1.093898 0.215193,0 0.215193,0.170361 0.215193,0.295891 0,0.152428 -0.035866,0.313823 -0.116563,0.529016 C 1.129763,-1.802242 1.0132,-1.425654 1.0132,-0.995268 1.0132,0 1.820174,0.09863 2.15193,0.09863 c 0.439353,0 0.753176,-0.233126 0.914571,-0.39452 C 2.949938,0.161395 2.851308,0.564882 2.501619,1.0132 2.232628,1.371856 1.873973,1.613948 1.479452,1.613948 c -0.251058,0 -0.546949,-0.089664 -0.672478,-0.340723 0.475218,0 0.537982,-0.39452 0.537982,-0.484184 0,-0.19726 -0.143462,-0.322789 -0.340722,-0.322789 -0.215193,0 -0.502117,0.170361 -0.502117,0.582814 0,0.466252 0.412453,0.789041 0.977335,0.789041 0.91457,0 1.891905,-0.780075 2.15193,-1.829141 z"
           id="equation_13_01"
           inkscape:connector-curvature="0" />
      </defs>
      <g
         id="equation_13_g">
        <use
           id="use1127"
           xlink:href="#equation_13_00"
           y="62.764633"
           x="76.712326"
           width="100%"
           height="100%" />
        <use
           id="use1129"
           xlink:href="#equation_13_01"
           y="62.764633"
           x="83.879845"
           width="100%"
           height="100%" />
      </g>
    </g>
    <g
       title="{\small$O$}"
       style="fill:#000000"
       id="equation_14"
       transform="translate(-522.38484,-22.536452)">
      <defs
         id="defs1271">
        <path
           d="m 6.796513,-3.882441 c 0,-1.416687 -0.950436,-2.438854 -2.358157,-2.438854 -2.008468,0 -3.990037,2.062266 -3.990037,4.1066 0,1.470486 1.0132,2.411955 2.367123,2.411955 1.999502,0 3.981071,-1.999502 3.981071,-4.079701 z m -3.918306,3.81071 c -0.860772,0 -1.569116,-0.654545 -1.569116,-1.918804 0,-0.466252 0.152428,-1.793276 0.896638,-2.815443 0.645579,-0.878704 1.506351,-1.264259 2.169863,-1.264259 0.878704,0 1.604981,0.636613 1.604981,1.847074 0,0.582814 -0.233126,1.891905 -0.986302,2.905106 -0.672478,0.896637 -1.497384,1.246326 -2.116064,1.246326 z"
           id="equation_14_00"
           inkscape:connector-curvature="0" />
      </defs>
      <g
         id="equation_14_g">
        <use
           id="use1273"
           xlink:href="#equation_14_00"
           y="62.764633"
           x="76.712326"
           width="100%"
           height="100%" />
      </g>
    </g>
    <g
       title="{\small$P$}"
       style="fill:#000000"
       id="equation_15"
       transform="translate(-411.13642,-22.391811)">
      <defs
         id="defs1418">
        <path
           d="m 2.77061,-2.815442 h 1.497385 c 1.452553,0 2.636115,-0.995268 2.636115,-1.945704 0,-0.708343 -0.636613,-1.362889 -1.811208,-1.362889 H 2.133998 c -0.161395,0 -0.268992,0 -0.268992,0.161395 0,0.116563 0.080698,0.116563 0.268992,0.116563 0.035865,0 0.19726,0 0.340722,0.017933 0.152428,0.017932 0.215193,0.035865 0.215193,0.134495 0,0.044832 -0.00897,0.080698 -0.035866,0.179328 l -1.21046,4.832876 c -0.080698,0.32279 -0.098631,0.403487 -0.771109,0.403487 -0.170361,0 -0.268991,0 -0.268991,0.161395 C 0.403487,-0.017933 0.475218,0 0.537983,0 c 0.170361,0 0.39452,-0.008966 0.564881,-0.017933 0.268992,-0.008966 0.286924,-0.008966 0.573848,-0.008966 0.286924,0 0.304857,0 0.573848,0.008966 C 2.429888,-0.008966 2.663014,0 2.833375,0 c 0.062764,0 0.179327,0 0.179327,-0.161395 0,-0.116563 -0.089663,-0.116563 -0.277957,-0.116563 -0.035866,0 -0.197261,0 -0.340723,-0.017932 -0.19726,-0.0269 -0.206226,-0.062765 -0.206226,-0.143462 0,-0.0269 0,-0.044832 0.044832,-0.206227 z m 0.645579,-2.680947 c 0.080698,-0.322789 0.09863,-0.349688 0.475218,-0.349688 h 0.905604 c 0.699378,0 1.255293,0.215193 1.255293,0.869738 0,0.188294 -0.09863,1.031134 -0.564882,1.46152 -0.19726,0.179327 -0.609713,0.448318 -1.380822,0.448318 H 2.806476 Z"
           id="equation_15_00"
           inkscape:connector-curvature="0" />
      </defs>
      <g
         id="equation_15_g">
        <use
           id="use1420"
           xlink:href="#equation_15_00"
           y="62.764633"
           x="76.712326"
           width="100%"
           height="100%" />
      </g>
    </g>
    <path
       style="fill:none;stroke:#000000;stroke-width:0.26458332px;stroke-linecap:butt;stroke-linejoin:miter;stroke-opacity:1"
       d="m -465.66665,27.125002 c 0,-10.583335 0,-10.583335 0,-10.583335"
       id="path1103-8-9"
       inkscape:connector-curvature="0" />
  </g>
</svg>
