<?xml version="1.0" encoding="UTF-8" standalone="no"?>
<!-- Created with Inkscape (http://www.inkscape.org/) -->

<svg
   xmlns:dc="http://purl.org/dc/elements/1.1/"
   xmlns:cc="http://creativecommons.org/ns#"
   xmlns:rdf="http://www.w3.org/1999/02/22-rdf-syntax-ns#"
   xmlns:svg="http://www.w3.org/2000/svg"
   xmlns="http://www.w3.org/2000/svg"
   xmlns:xlink="http://www.w3.org/1999/xlink"
   xmlns:sodipodi="http://sodipodi.sourceforge.net/DTD/sodipodi-0.dtd"
   xmlns:inkscape="http://www.inkscape.org/namespaces/inkscape"
   width="210mm"
   height="297mm"
   viewBox="0 0 210 297"
   version="1.1"
   id="svg8"
   inkscape:version="0.92.4 (5da689c313, 2019-01-14)"
   sodipodi:docname="第6回.svg">
  <defs
     id="defs2">
    <marker
       inkscape:isstock="true"
       style="overflow:visible;"
       id="marker1107"
       refX="0.0"
       refY="0.0"
       orient="auto"
       inkscape:stockid="Arrow2Mend">
      <path
         transform="scale(0.6) rotate(180) translate(0,0)"
         d="M 8.7185878,4.0337352 L -2.2072895,0.016013256 L 8.7185884,-4.0017078 C 6.9730900,-1.6296469 6.9831476,1.6157441 8.7185878,4.0337352 z "
         style="fill-rule:evenodd;stroke-width:0.625;stroke-linejoin:round;stroke:#000000;stroke-opacity:1;fill:#000000;fill-opacity:1"
         id="path1105" />
    </marker>
    <marker
       inkscape:stockid="Arrow2Mend"
       orient="auto"
       refY="0.0"
       refX="0.0"
       id="Arrow2Mend"
       style="overflow:visible;"
       inkscape:isstock="true"
       inkscape:collect="always">
      <path
         id="path848"
         style="fill-rule:evenodd;stroke-width:0.625;stroke-linejoin:round;stroke:#000000;stroke-opacity:1;fill:#000000;fill-opacity:1"
         d="M 8.7185878,4.0337352 L -2.2072895,0.016013256 L 8.7185884,-4.0017078 C 6.9730900,-1.6296469 6.9831476,1.6157441 8.7185878,4.0337352 z "
         transform="scale(0.6) rotate(180) translate(0,0)" />
    </marker>
  </defs>
  <sodipodi:namedview
     id="base"
     pagecolor="#ffffff"
     bordercolor="#666666"
     borderopacity="1.0"
     inkscape:pageopacity="0.0"
     inkscape:pageshadow="2"
     inkscape:zoom="0.7"
     inkscape:cx="623.06099"
     inkscape:cy="805.2773"
     inkscape:document-units="mm"
     inkscape:current-layer="layer1"
     showgrid="true"
     inkscape:window-width="1858"
     inkscape:window-height="1057"
     inkscape:window-x="-8"
     inkscape:window-y="-8"
     inkscape:window-maximized="1">
    <inkscape:grid
       type="xygrid"
       id="grid815" />
  </sodipodi:namedview>
  <metadata
     id="metadata5">
    <rdf:RDF>
      <cc:Work
         rdf:about="">
        <dc:format>image/svg+xml</dc:format>
        <dc:type
           rdf:resource="http://purl.org/dc/dcmitype/StillImage" />
        <dc:title></dc:title>
      </cc:Work>
    </rdf:RDF>
  </metadata>
  <g
     inkscape:label="レイヤー 1"
     inkscape:groupmode="layer"
     id="layer1">
    <rect
       style="opacity:1;fill:none;fill-opacity:1;fill-rule:nonzero;stroke:#000000;stroke-width:0;stroke-miterlimit:4;stroke-dasharray:none;stroke-dashoffset:0;stroke-opacity:1"
       id="rect817"
       width="200"
       height="157.66667"
       x="5.2916665"
       y="32.416664"
       inkscape:export-xdpi="300.10001"
       inkscape:export-ydpi="300.10001" />
    <path
       style="fill:none;stroke:#000000;stroke-width:0.60000002;stroke-linecap:butt;stroke-linejoin:miter;stroke-miterlimit:4;stroke-dasharray:none;stroke-opacity:1;marker-end:url(#Arrow2Mend)"
       d="m 14.816669,164.70835 c 185.208351,0 185.208351,0 185.208351,0"
       id="path819"
       inkscape:connector-curvature="0" />
    <path
       inkscape:connector-curvature="0"
       id="path1103"
       d="m 106.74139,179.52493 c 0,-127.529099 0,-127.529099 0,-127.529099"
       style="fill:none;stroke:#000000;stroke-width:0.60000002;stroke-linecap:butt;stroke-linejoin:miter;stroke-miterlimit:4;stroke-dasharray:none;stroke-opacity:1;marker-end:url(#marker1107)" />
    <path
       style="opacity:1;fill:none;fill-opacity:1;fill-rule:nonzero;stroke:#000000;stroke-width:0.60000002;stroke-miterlimit:4;stroke-dasharray:none;stroke-dashoffset:0;stroke-opacity:1"
       id="path1406"
       sodipodi:type="arc"
       sodipodi:cx="106.73017"
       sodipodi:cy="164.39738"
       sodipodi:rx="71.38726"
       sodipodi:ry="71.512154"
       sodipodi:start="3.1415927"
       sodipodi:end="0"
       sodipodi:open="true"
       d="M 35.342911,164.39738 A 71.38726,71.512154 0 0 1 106.73017,92.885231 71.38726,71.512154 0 0 1 178.11743,164.39738" />
    <g
       title="{\small$y=\sqrt{1-x^2}$}"
       style="fill:#000000"
       id="equation_00"
       transform="translate(67.794141,-1.8529544)">
      <defs
         id="defs1643">
        <path
           d="m 4.411457,-3.622416 c -0.331756,0.062765 -0.430386,0.349689 -0.430386,0.484184 0,0.170362 0.125529,0.32279 0.349689,0.32279 0.251058,0 0.49315,-0.215193 0.49315,-0.529016 0,-0.412454 -0.448318,-0.61868 -0.869738,-0.61868 -0.537983,0 -0.851806,0.475218 -0.959402,0.663512 -0.170362,-0.439353 -0.564882,-0.663512 -0.995268,-0.663512 -0.959402,0 -1.479452,1.147696 -1.479452,1.380822 0,0.080697 0.062764,0.107596 0.125529,0.107596 0.080697,0 0.107597,-0.044832 0.125529,-0.09863 0.277958,-0.887671 0.869739,-1.165629 1.210461,-1.165629 0.260025,0 0.493151,0.170361 0.493151,0.591781 0,0.32279 -0.385554,1.75741 -0.502117,2.187796 -0.071731,0.277957 -0.340723,0.833873 -0.833873,0.833873 -0.179328,0 -0.367622,-0.062765 -0.457285,-0.116563 0.242092,-0.044832 0.421419,-0.251059 0.421419,-0.484184 0,-0.22416 -0.170361,-0.32279 -0.340722,-0.32279 -0.260025,0 -0.493151,0.224159 -0.493151,0.529016 0,0.439353 0.484185,0.61868 0.860772,0.61868 0.52005,0 0.824907,-0.430386 0.959403,-0.672478 0.224159,0.591781 0.753175,0.672478 0.995267,0.672478 0.968369,0 1.479452,-1.165629 1.479452,-1.380822 0,-0.044832 -0.026899,-0.107596 -0.116562,-0.107596 -0.098631,0 -0.107597,0.035865 -0.152429,0.170361 -0.19726,0.645579 -0.71731,1.093898 -1.183561,1.093898 -0.260025,0 -0.502118,-0.161395 -0.502118,-0.591781 0,-0.19726 0.12553,-0.690411 0.206227,-1.031133 0.035866,-0.161395 0.277958,-1.129764 0.295891,-1.192528 0.107596,-0.32279 0.376587,-0.798008 0.833872,-0.798008 0.161395,0 0.331756,0.026899 0.466252,0.116563 z"
           id="equation_00_00"
           inkscape:connector-curvature="0" />
        <path
           d="m 4.501121,-3.452055 c 0.00897,-0.044832 0.026899,-0.09863 0.026899,-0.152428 0,-0.116563 -0.080697,-0.260025 -0.277958,-0.260025 -0.116563,0 -0.277957,0.071731 -0.349688,0.242092 -0.00897,0.035866 -0.098631,0.403487 -0.152429,0.600747 l -0.448319,1.793275 c -0.071731,0.260025 -0.071731,0.277958 -0.089663,0.358656 -0.00897,0.035865 -0.385555,0.744209 -1.031134,0.744209 -0.555915,0 -0.555915,-0.564882 -0.555915,-0.735243 0,-0.403487 0.116563,-0.842839 0.502117,-1.847074 0.071731,-0.206226 0.125529,-0.331755 0.125529,-0.502117 0,-0.439352 -0.331756,-0.753175 -0.771108,-0.753175 -0.860772,0 -1.219427,1.273225 -1.219427,1.380822 0,0.080697 0.062765,0.107596 0.125529,0.107596 0.09863,0 0.107597,-0.053798 0.143462,-0.170361 0.188294,-0.663512 0.546949,-1.093898 0.923537,-1.093898 0.215193,0 0.215193,0.170361 0.215193,0.295891 0,0.152428 -0.035866,0.313823 -0.116563,0.529016 C 1.129763,-1.802242 1.0132,-1.425654 1.0132,-0.995268 1.0132,0 1.820174,0.09863 2.15193,0.09863 c 0.439353,0 0.753176,-0.233126 0.914571,-0.39452 C 2.949938,0.161395 2.851308,0.564882 2.501619,1.0132 2.232628,1.371856 1.873973,1.613948 1.479452,1.613948 c -0.251058,0 -0.546949,-0.089664 -0.672478,-0.340723 0.475218,0 0.537982,-0.39452 0.537982,-0.484184 0,-0.19726 -0.143462,-0.322789 -0.340722,-0.322789 -0.215193,0 -0.502117,0.170361 -0.502117,0.582814 0,0.466252 0.412453,0.789041 0.977335,0.789041 0.91457,0 1.891905,-0.780075 2.15193,-1.829141 z"
           id="equation_00_01"
           inkscape:connector-curvature="0" />
        <path
           d="m 2.725778,-5.729514 c 0,-0.22416 -0.00897,-0.242092 -0.233125,-0.242092 -0.555916,0.573848 -1.380822,0.573848 -1.65878,0.573848 v 0.277957 c 0.170361,0 0.71731,0 1.201494,-0.233126 v 4.635617 c 0,0.331756 -0.026899,0.439352 -0.860772,0.439352 H 0.887671 V 0 c 0.32279,-0.026899 1.120797,-0.026899 1.488419,-0.026899 0.367622,0 1.174595,0 1.497384,0.026899 V -0.277958 H 3.58655 c -0.833873,0 -0.860772,-0.107596 -0.860772,-0.439352 z"
           id="equation_00_02"
           inkscape:connector-curvature="0" />
        <path
           d="m 6.348194,-2.96787 c 0.12553,0 0.295891,0 0.295891,-0.188294 0,-0.197261 -0.197261,-0.197261 -0.331756,-0.197261 h -5.46949 c -0.134495,0 -0.331756,0 -0.331756,0.197261 0,0.188294 0.179328,0.188294 0.295891,0.188294 z m -0.035865,1.82914 c 0.134495,0 0.331756,0 0.331756,-0.19726 0,-0.188294 -0.170361,-0.188294 -0.295891,-0.188294 h -5.54122 c -0.116563,0 -0.295891,0 -0.295891,0.188294 0,0.19726 0.197261,0.19726 0.331756,0.19726 z"
           id="equation_00_03"
           inkscape:connector-curvature="0" />
        <path
           d="m 6.052304,-2.0533 c 0.161395,0 0.331756,0 0.331756,-0.19726 0,-0.188294 -0.179328,-0.188294 -0.331756,-0.188294 h -4.94944 c -0.152428,0 -0.331756,0 -0.331756,0.188294 0,0.19726 0.170361,0.19726 0.331756,0.19726 z"
           id="equation_00_04"
           inkscape:connector-curvature="0" />
        <path
           d="M 3.58655,7.62142 1.95467,4.133499 C 1.891905,3.999004 1.85604,3.990037 1.811208,3.990037 c -0.044832,0 -0.062765,0.017933 -0.134496,0.071731 L 0.780075,4.716314 C 0.699377,4.770112 0.663512,4.805978 0.663512,4.868742 c 0,0.035866 0.026899,0.107597 0.107596,0.107597 0.053799,0 0.107597,-0.044832 0.304857,-0.197261 C 1.156663,4.72528 1.273225,4.635616 1.371856,4.563885 L 3.183064,8.43736 c 0.071731,0.152428 0.116562,0.152428 0.19726,0.152428 0.134495,0 0.170361,-0.035865 0.242092,-0.179327 l 4.178331,-8.419427 c 0.026899,-0.053799 0.062765,-0.12553 0.062765,-0.179328 0,-0.116563 -0.089664,-0.19726 -0.188294,-0.19726 -0.080697,0 -0.143462,0.035865 -0.224159,0.19726 z"
           id="equation_00_05"
           inkscape:connector-curvature="0" />
        <path
           d="M 3.21594,-1.117808 H 2.99477 c -0.011956,0.083686 -0.071731,0.478207 -0.161395,0.54396 -0.041843,0.035865 -0.526028,0.035865 -0.609714,0.035865 H 1.105853 l 0.765131,-0.621668 c 0.203238,-0.161395 0.735243,-0.54396 0.920548,-0.723288 0.179327,-0.179328 0.424408,-0.484184 0.424408,-0.908593 0,-0.747198 -0.675467,-1.183561 -1.476463,-1.183561 -0.771108,0 -1.309091,0.508094 -1.309091,1.069987 0,0.304857 0.257036,0.340722 0.32279,0.340722 0.149439,0 0.322789,-0.107596 0.322789,-0.322789 0,-0.131507 -0.077708,-0.32279 -0.340722,-0.32279 0.137484,-0.304856 0.502117,-0.532005 0.91457,-0.532005 0.627647,0 0.962391,0.466252 0.962391,0.950436 0,0.424409 -0.280946,0.860772 -0.699377,1.243338 L 0.496139,-0.251059 C 0.436364,-0.191283 0.430386,-0.185305 0.430386,0 h 2.600249 z"
           id="equation_00_06"
           inkscape:connector-curvature="0" />
      </defs>
      <g
         id="equation_00_g">
        <use
           id="use1645"
           xlink:href="#equation_00_01"
           y="62.764633"
           x="76.712326"
           width="100%"
           height="100%" />
        <use
           id="use1647"
           xlink:href="#equation_00_03"
           y="62.764633"
           x="84.132362"
           width="100%"
           height="100%" />
        <use
           id="use1649"
           xlink:href="#equation_00_05"
           y="55.436279"
           x="93.859711"
           width="100%"
           height="100%" />
        <rect
           id="rect1651"
           width="25.245434"
           height="0.37858501"
           y="55.057693"
           x="101.53919" />
        <use
           id="use1653"
           xlink:href="#equation_00_02"
           y="62.764633"
           x="101.53919"
           width="100%"
           height="100%" />
        <use
           id="use1655"
           xlink:href="#equation_00_04"
           y="62.764633"
           x="108.19475"
           width="100%"
           height="100%" />
        <use
           id="use1657"
           xlink:href="#equation_00_00"
           y="62.764633"
           x="117.41013"
           width="100%"
           height="100%" />
        <use
           id="use1659"
           xlink:href="#equation_00_06"
           y="60.190956"
           x="122.63358"
           width="100%"
           height="100%" />
      </g>
    </g>
    <g
       title="{\small$y$}"
       style="fill:#000000"
       id="equation_01"
       transform="translate(36.244711,-8.0521202)">
      <defs
         id="defs1715">
        <path
           d="m 4.501121,-3.452055 c 0.00897,-0.044832 0.026899,-0.09863 0.026899,-0.152428 0,-0.116563 -0.080697,-0.260025 -0.277958,-0.260025 -0.116563,0 -0.277957,0.071731 -0.349688,0.242092 -0.00897,0.035866 -0.098631,0.403487 -0.152429,0.600747 l -0.448319,1.793275 c -0.071731,0.260025 -0.071731,0.277958 -0.089663,0.358656 -0.00897,0.035865 -0.385555,0.744209 -1.031134,0.744209 -0.555915,0 -0.555915,-0.564882 -0.555915,-0.735243 0,-0.403487 0.116563,-0.842839 0.502117,-1.847074 0.071731,-0.206226 0.125529,-0.331755 0.125529,-0.502117 0,-0.439352 -0.331756,-0.753175 -0.771108,-0.753175 -0.860772,0 -1.219427,1.273225 -1.219427,1.380822 0,0.080697 0.062765,0.107596 0.125529,0.107596 0.09863,0 0.107597,-0.053798 0.143462,-0.170361 0.188294,-0.663512 0.546949,-1.093898 0.923537,-1.093898 0.215193,0 0.215193,0.170361 0.215193,0.295891 0,0.152428 -0.035866,0.313823 -0.116563,0.529016 C 1.129763,-1.802242 1.0132,-1.425654 1.0132,-0.995268 1.0132,0 1.820174,0.09863 2.15193,0.09863 c 0.439353,0 0.753176,-0.233126 0.914571,-0.39452 C 2.949938,0.161395 2.851308,0.564882 2.501619,1.0132 2.232628,1.371856 1.873973,1.613948 1.479452,1.613948 c -0.251058,0 -0.546949,-0.089664 -0.672478,-0.340723 0.475218,0 0.537982,-0.39452 0.537982,-0.484184 0,-0.19726 -0.143462,-0.322789 -0.340722,-0.322789 -0.215193,0 -0.502117,0.170361 -0.502117,0.582814 0,0.466252 0.412453,0.789041 0.977335,0.789041 0.91457,0 1.891905,-0.780075 2.15193,-1.829141 z"
           id="equation_01_00"
           inkscape:connector-curvature="0" />
      </defs>
      <g
         id="equation_01_g">
        <use
           id="use1717"
           xlink:href="#equation_01_00"
           y="62.764633"
           x="76.712326"
           width="100%"
           height="100%" />
      </g>
    </g>
    <g
       title="{\small$x$}"
       style="fill:#000000"
       id="equation_02"
       transform="translate(119.41356,112.23909)">
      <defs
         id="defs1765">
        <path
           d="m 4.411457,-3.622416 c -0.331756,0.062765 -0.430386,0.349689 -0.430386,0.484184 0,0.170362 0.125529,0.32279 0.349689,0.32279 0.251058,0 0.49315,-0.215193 0.49315,-0.529016 0,-0.412454 -0.448318,-0.61868 -0.869738,-0.61868 -0.537983,0 -0.851806,0.475218 -0.959402,0.663512 -0.170362,-0.439353 -0.564882,-0.663512 -0.995268,-0.663512 -0.959402,0 -1.479452,1.147696 -1.479452,1.380822 0,0.080697 0.062764,0.107596 0.125529,0.107596 0.080697,0 0.107597,-0.044832 0.125529,-0.09863 0.277958,-0.887671 0.869739,-1.165629 1.210461,-1.165629 0.260025,0 0.493151,0.170361 0.493151,0.591781 0,0.32279 -0.385554,1.75741 -0.502117,2.187796 -0.071731,0.277957 -0.340723,0.833873 -0.833873,0.833873 -0.179328,0 -0.367622,-0.062765 -0.457285,-0.116563 0.242092,-0.044832 0.421419,-0.251059 0.421419,-0.484184 0,-0.22416 -0.170361,-0.32279 -0.340722,-0.32279 -0.260025,0 -0.493151,0.224159 -0.493151,0.529016 0,0.439353 0.484185,0.61868 0.860772,0.61868 0.52005,0 0.824907,-0.430386 0.959403,-0.672478 0.224159,0.591781 0.753175,0.672478 0.995267,0.672478 0.968369,0 1.479452,-1.165629 1.479452,-1.380822 0,-0.044832 -0.026899,-0.107596 -0.116562,-0.107596 -0.098631,0 -0.107597,0.035865 -0.152429,0.170361 -0.19726,0.645579 -0.71731,1.093898 -1.183561,1.093898 -0.260025,0 -0.502118,-0.161395 -0.502118,-0.591781 0,-0.19726 0.12553,-0.690411 0.206227,-1.031133 0.035866,-0.161395 0.277958,-1.129764 0.295891,-1.192528 0.107596,-0.32279 0.376587,-0.798008 0.833872,-0.798008 0.161395,0 0.331756,0.026899 0.466252,0.116563 z"
           id="equation_02_00"
           inkscape:connector-curvature="0" />
      </defs>
      <g
         id="equation_02_g">
        <use
           id="use1767"
           xlink:href="#equation_02_00"
           y="62.764633"
           x="76.712326"
           width="100%"
           height="100%" />
      </g>
    </g>
    <g
       title="{\small$O$}"
       style="fill:#000000"
       id="equation_03"
       transform="translate(17.759293,113.98007)">
      <defs
         id="defs1820">
        <path
           d="m 6.796513,-3.882441 c 0,-1.416687 -0.950436,-2.438854 -2.358157,-2.438854 -2.008468,0 -3.990037,2.062266 -3.990037,4.1066 0,1.470486 1.0132,2.411955 2.367123,2.411955 1.999502,0 3.981071,-1.999502 3.981071,-4.079701 z m -3.918306,3.81071 c -0.860772,0 -1.569116,-0.654545 -1.569116,-1.918804 0,-0.466252 0.152428,-1.793276 0.896638,-2.815443 0.645579,-0.878704 1.506351,-1.264259 2.169863,-1.264259 0.878704,0 1.604981,0.636613 1.604981,1.847074 0,0.582814 -0.233126,1.891905 -0.986302,2.905106 -0.672478,0.896637 -1.497384,1.246326 -2.116064,1.246326 z"
           id="equation_03_00"
           inkscape:connector-curvature="0" />
      </defs>
      <g
         id="equation_03_g">
        <use
           id="use1822"
           xlink:href="#equation_03_00"
           y="62.764633"
           x="76.712326"
           width="100%"
           height="100%" />
      </g>
    </g>
    <g
       title="{\small$1$}"
       style="fill:#000000"
       id="equation_04"
       transform="translate(98.784849,113.12796)">
      <defs
         id="defs1880">
        <path
           d="m 2.725778,-5.729514 c 0,-0.22416 -0.00897,-0.242092 -0.233125,-0.242092 -0.555916,0.573848 -1.380822,0.573848 -1.65878,0.573848 v 0.277957 c 0.170361,0 0.71731,0 1.201494,-0.233126 v 4.635617 c 0,0.331756 -0.026899,0.439352 -0.860772,0.439352 H 0.887671 V 0 c 0.32279,-0.026899 1.120797,-0.026899 1.488419,-0.026899 0.367622,0 1.174595,0 1.497384,0.026899 V -0.277958 H 3.58655 c -0.833873,0 -0.860772,-0.107596 -0.860772,-0.439352 z"
           id="equation_04_00"
           inkscape:connector-curvature="0" />
      </defs>
      <g
         id="equation_04_g">
        <use
           id="use1882"
           xlink:href="#equation_04_00"
           y="62.764633"
           x="76.712326"
           width="100%"
           height="100%" />
      </g>
    </g>
    <g
       title="{\small$-1$}"
       style="fill:#000000"
       id="equation_05"
       transform="translate(-48.072866,113.44043)">
      <defs
         id="defs1946">
        <path
           d="m 6.052304,-2.0533 c 0.161395,0 0.331756,0 0.331756,-0.19726 0,-0.188294 -0.179328,-0.188294 -0.331756,-0.188294 h -4.94944 c -0.152428,0 -0.331756,0 -0.331756,0.188294 0,0.19726 0.170361,0.19726 0.331756,0.19726 z"
           id="equation_05_00"
           inkscape:connector-curvature="0" />
        <path
           d="m 2.725778,-5.729514 c 0,-0.22416 -0.00897,-0.242092 -0.233125,-0.242092 -0.555916,0.573848 -1.380822,0.573848 -1.65878,0.573848 v 0.277957 c 0.170361,0 0.71731,0 1.201494,-0.233126 v 4.635617 c 0,0.331756 -0.026899,0.439352 -0.860772,0.439352 H 0.887671 V 0 c 0.32279,-0.026899 1.120797,-0.026899 1.488419,-0.026899 0.367622,0 1.174595,0 1.497384,0.026899 V -0.277958 H 3.58655 c -0.833873,0 -0.860772,-0.107596 -0.860772,-0.439352 z"
           id="equation_05_01"
           inkscape:connector-curvature="0" />
      </defs>
      <g
         id="equation_05_g">
        <use
           id="use1948"
           xlink:href="#equation_05_00"
           y="62.764633"
           x="76.712326"
           width="100%"
           height="100%" />
        <use
           id="use1950"
           xlink:href="#equation_05_01"
           y="62.764633"
           x="83.879845"
           width="100%"
           height="100%" />
      </g>
    </g>
    <g
       transform="translate(20.468178,25.28628)"
       id="g1972"
       style="fill:#000000"
       title="{\small$1$}">
      <defs
         id="defs1966">
        <path
           inkscape:connector-curvature="0"
           id="path1964"
           d="m 2.725778,-5.729514 c 0,-0.22416 -0.00897,-0.242092 -0.233125,-0.242092 -0.555916,0.573848 -1.380822,0.573848 -1.65878,0.573848 v 0.277957 c 0.170361,0 0.71731,0 1.201494,-0.233126 v 4.635617 c 0,0.331756 -0.026899,0.439352 -0.860772,0.439352 H 0.887671 V 0 c 0.32279,-0.026899 1.120797,-0.026899 1.488419,-0.026899 0.367622,0 1.174595,0 1.497384,0.026899 V -0.277958 H 3.58655 c -0.833873,0 -0.860772,-0.107596 -0.860772,-0.439352 z" />
      </defs>
      <g
         id="g1970">
        <use
           height="100%"
           width="100%"
           x="76.712326"
           y="62.764633"
           xlink:href="#equation_04_00"
           id="use1968" />
      </g>
    </g>
  </g>
</svg>
