<?xml version="1.0" encoding="UTF-8" standalone="no"?>
<!-- Created with Inkscape (http://www.inkscape.org/) -->

<svg
   xmlns:dc="http://purl.org/dc/elements/1.1/"
   xmlns:cc="http://creativecommons.org/ns#"
   xmlns:rdf="http://www.w3.org/1999/02/22-rdf-syntax-ns#"
   xmlns:svg="http://www.w3.org/2000/svg"
   xmlns="http://www.w3.org/2000/svg"
   xmlns:xlink="http://www.w3.org/1999/xlink"
   xmlns:sodipodi="http://sodipodi.sourceforge.net/DTD/sodipodi-0.dtd"
   xmlns:inkscape="http://www.inkscape.org/namespaces/inkscape"
   width="210mm"
   height="297mm"
   viewBox="0 0 210 297"
   version="1.1"
   id="svg8"
   inkscape:version="0.92.4 (5da689c313, 2019-01-14)"
   sodipodi:docname="絶対値関数.svg">
  <defs
     id="defs2">
    <marker
       inkscape:isstock="true"
       style="overflow:visible;"
       id="marker1231"
       refX="0.0"
       refY="0.0"
       orient="auto"
       inkscape:stockid="Arrow2Lend">
      <path
         transform="scale(1.1) rotate(180) translate(1,0)"
         d="M 8.7185878,4.0337352 L -2.2072895,0.016013256 L 8.7185884,-4.0017078 C 6.9730900,-1.6296469 6.9831476,1.6157441 8.7185878,4.0337352 z "
         style="fill-rule:evenodd;stroke-width:0.625;stroke-linejoin:round;stroke:#000000;stroke-opacity:1;fill:#000000;fill-opacity:1"
         id="path1229" />
    </marker>
    <marker
       inkscape:stockid="Arrow2Lend"
       orient="auto"
       refY="0.0"
       refX="0.0"
       id="Arrow2Lend"
       style="overflow:visible;"
       inkscape:isstock="true"
       inkscape:collect="always">
      <path
         id="path846"
         style="fill-rule:evenodd;stroke-width:0.625;stroke-linejoin:round;stroke:#000000;stroke-opacity:1;fill:#000000;fill-opacity:1"
         d="M 8.7185878,4.0337352 L -2.2072895,0.016013256 L 8.7185884,-4.0017078 C 6.9730900,-1.6296469 6.9831476,1.6157441 8.7185878,4.0337352 z "
         transform="scale(1.1) rotate(180) translate(1,0)" />
    </marker>
    <marker
       inkscape:isstock="true"
       style="overflow:visible;"
       id="marker1171"
       refX="0.0"
       refY="0.0"
       orient="auto"
       inkscape:stockid="Arrow1Lend">
      <path
         transform="scale(0.8) rotate(180) translate(12.5,0)"
         style="fill-rule:evenodd;stroke:#000000;stroke-width:1pt;stroke-opacity:1;fill:#000000;fill-opacity:1"
         d="M 0.0,0.0 L 5.0,-5.0 L -12.5,0.0 L 5.0,5.0 L 0.0,0.0 z "
         id="path1169" />
    </marker>
    <marker
       inkscape:isstock="true"
       style="overflow:visible;"
       id="marker1109"
       refX="0.0"
       refY="0.0"
       orient="auto"
       inkscape:stockid="Arrow1Lend">
      <path
         transform="scale(0.8) rotate(180) translate(12.5,0)"
         style="fill-rule:evenodd;stroke:#000000;stroke-width:1pt;stroke-opacity:1;fill:#000000;fill-opacity:1"
         d="M 0.0,0.0 L 5.0,-5.0 L -12.5,0.0 L 5.0,5.0 L 0.0,0.0 z "
         id="path1107" />
    </marker>
  </defs>
  <sodipodi:namedview
     id="base"
     pagecolor="#ffffff"
     bordercolor="#666666"
     borderopacity="1.0"
     inkscape:pageopacity="0.0"
     inkscape:pageshadow="2"
     inkscape:zoom="0.7"
     inkscape:cx="346.05545"
     inkscape:cy="767.07792"
     inkscape:document-units="mm"
     inkscape:current-layer="layer1"
     showgrid="true"
     inkscape:window-width="1858"
     inkscape:window-height="1057"
     inkscape:window-x="-8"
     inkscape:window-y="-8"
     inkscape:window-maximized="1">
    <inkscape:grid
       type="xygrid"
       id="grid815" />
  </sodipodi:namedview>
  <metadata
     id="metadata5">
    <rdf:RDF>
      <cc:Work
         rdf:about="">
        <dc:format>image/svg+xml</dc:format>
        <dc:type
           rdf:resource="http://purl.org/dc/dcmitype/StillImage" />
        <dc:title></dc:title>
      </cc:Work>
    </rdf:RDF>
  </metadata>
  <g
     inkscape:label="レイヤー 1"
     inkscape:groupmode="layer"
     id="layer1">
    <path
       style="fill:none;stroke:#000000;stroke-width:0.7894035;stroke-linecap:butt;stroke-linejoin:miter;stroke-miterlimit:4;stroke-dasharray:none;stroke-opacity:1;marker-end:url(#marker1231)"
       d="m 5.2916666,159.41667 c 195.7916634,0 195.7916634,0 195.7916634,0"
       id="path817"
       inkscape:connector-curvature="0"
       inkscape:export-xdpi="300.10001"
       inkscape:export-ydpi="300.10001" />
    <path
       style="fill:none;stroke:#000000;stroke-width:0.71802199;stroke-linecap:butt;stroke-linejoin:miter;stroke-miterlimit:4;stroke-dasharray:none;stroke-opacity:1;marker-end:url(#Arrow2Lend)"
       d="m 105.83333,196.45833 c 0,-153.458338 0,-153.458338 0,-153.458338"
       id="path819"
       inkscape:connector-curvature="0"
       inkscape:export-xdpi="300.10001"
       inkscape:export-ydpi="300.10001" />
    <path
       style="fill:none;stroke:#000000;stroke-width:0.53841877;stroke-linecap:butt;stroke-linejoin:miter;stroke-miterlimit:4;stroke-dasharray:none;stroke-opacity:1"
       d="M 105.83333,159.41667 C 195.79167,64.166667 195.79167,64.166667 195.79167,64.166667"
       id="path821"
       inkscape:connector-curvature="0"
       inkscape:export-xdpi="300.10001"
       inkscape:export-ydpi="300.10001" />
    <path
       style="fill:none;stroke:#000000;stroke-width:0.6;stroke-linecap:butt;stroke-linejoin:miter;stroke-opacity:1;stroke-miterlimit:4;stroke-dasharray:none"
       d="M 105.83333,159.41667 C 5.2916666,64.166667 5.2916666,64.166667 5.2916666,64.166667"
       id="path823"
       inkscape:connector-curvature="0"
       inkscape:export-xdpi="300.10001"
       inkscape:export-ydpi="300.10001" />
    <g
       title="\Large$O$"
       style="fill:#000000"
       id="equation_00"
       transform="translate(11.528103,111.82035)"
       inkscape:export-xdpi="300.10001"
       inkscape:export-ydpi="300.10001">
      <defs
         id="defs1390">
        <path
           d="m 10.415338,-6.283634 c 0,-2.367122 -1.549389,-3.816088 -3.557856,-3.816088 -3.070086,0 -6.168865,3.299625 -6.168865,6.613596 0,2.252353 1.492005,3.787396 3.572203,3.787396 3.012701,0 6.154518,-3.141817 6.154518,-6.584904 z m -6.068441,6.254942 c -1.176388,0 -2.424507,-0.860772 -2.424507,-3.098779 0,-1.305503 0.473425,-3.443087 1.649813,-4.877706 1.047272,-1.262465 2.252352,-1.778928 3.213548,-1.778928 1.262465,0 2.481891,0.918156 2.481891,2.984008 0,1.276812 -0.545155,3.270933 -1.50635,4.633821 -1.047272,1.463312 -2.352776,2.137584 -3.414395,2.137584 z"
           id="equation_00_00"
           inkscape:connector-curvature="0" />
      </defs>
      <g
         id="equation_00_g">
        <use
           id="use1392"
           xlink:href="#equation_00_00"
           y="62.764633"
           x="76.712326"
           width="100%"
           height="100%" />
      </g>
    </g>
    <g
       title="\Large$x$"
       style="fill:#000000"
       id="equation_01"
       transform="translate(107.95449,107.48988)"
       inkscape:export-xdpi="300.10001"
       inkscape:export-ydpi="300.10001">
      <defs
         id="defs1426">
        <path
           d="m 6.800097,-5.853248 c -0.459079,0.086077 -0.631233,0.430386 -0.631233,0.702964 0,0.344308 0.272578,0.459078 0.473425,0.459078 0.430385,0 0.731656,-0.373001 0.731656,-0.760348 0,-0.602541 -0.688618,-0.875118 -1.291158,-0.875118 -0.875118,0 -1.362889,0.860771 -1.492004,1.133349 -0.329963,-1.075965 -1.219427,-1.133349 -1.477659,-1.133349 -1.463311,0 -2.238006,1.879351 -2.238006,2.194968 0,0.057384 0.057385,0.129115 0.157808,0.129115 0.11477,0 0.143462,-0.086077 0.172154,-0.143462 0.487771,-1.592427 1.448966,-1.893697 1.865006,-1.893697 0.645579,0 0.774694,0.60254 0.774694,0.946849 0,0.315616 -0.086077,0.645578 -0.258231,1.334196 l -0.487771,1.965429 c -0.215193,0.860771 -0.631232,1.649812 -1.391581,1.649812 -0.071731,0 -0.430386,0 -0.731656,-0.186501 0.516463,-0.100423 0.631233,-0.530809 0.631233,-0.702963 0,-0.286924 -0.215193,-0.459078 -0.487771,-0.459078 -0.344308,0 -0.71731,0.30127 -0.71731,0.760348 0,0.60254 0.674272,0.875118 1.291158,0.875118 0.688617,0 1.176388,-0.545155 1.477658,-1.13335 0.229539,0.846426 0.946849,1.13335 1.477658,1.13335 1.463312,0 2.238007,-1.879352 2.238007,-2.194968 0,-0.071731 -0.057385,-0.129116 -0.143462,-0.129116 -0.129116,0 -0.143462,0.071731 -0.186501,0.186501 -0.387347,1.262465 -1.219426,1.850659 -1.865005,1.850659 -0.502117,0 -0.774695,-0.373001 -0.774695,-0.961195 0,-0.315616 0.057385,-0.545156 0.286924,-1.492004 l 0.502117,-1.951083 c 0.215193,-0.860772 0.702964,-1.492004 1.362889,-1.492004 0.028692,0 0.430386,0 0.731656,0.1865 z"
           id="equation_01_00"
           inkscape:connector-curvature="0" />
      </defs>
      <g
         id="equation_01_g">
        <use
           id="use1428"
           xlink:href="#equation_01_00"
           y="62.764633"
           x="76.712326"
           width="100%"
           height="100%" />
      </g>
    </g>
    <g
       title="\Large$y$"
       style="fill:#000000"
       id="equation_02"
       transform="translate(12.101951,-11.523449)"
       inkscape:export-xdpi="300.10001"
       inkscape:export-ydpi="300.10001">
      <defs
         id="defs1467">
        <path
           d="M 3.773049,1.606774 C 3.385702,2.151929 2.826201,2.6397 2.123237,2.6397 c -0.172154,0 -0.860772,-0.028692 -1.075965,-0.688617 0.043039,0.014346 0.11477,0.014346 0.143462,0.014346 0.430386,0 0.71731,-0.373001 0.71731,-0.702964 0,-0.329963 -0.272578,-0.444732 -0.487771,-0.444732 -0.229539,0 -0.731656,0.172155 -0.731656,0.875118 0,0.731656 0.616887,1.233773 1.43462,1.233773 1.43462,0 2.883585,-1.31985 3.285279,-2.912278 L 6.814443,-5.58067 c 0.014346,-0.071731 0.043039,-0.157808 0.043039,-0.243885 0,-0.215193 -0.172155,-0.358655 -0.387348,-0.358655 -0.129116,0 -0.430386,0.057384 -0.545155,0.48777 L 4.86336,-1.477658 c -0.071731,0.258231 -0.071731,0.286924 -0.1865,0.444732 -0.286924,0.401693 -0.760349,0.889464 -1.448966,0.889464 -0.803387,0 -0.875118,-0.789041 -0.875118,-1.176388 0,-0.817733 0.387347,-1.92239 0.774695,-2.955316 0.157808,-0.41604 0.243885,-0.616887 0.243885,-0.903811 0,-0.60254 -0.430386,-1.147695 -1.133349,-1.147695 -1.31985,0 -1.85066,2.080198 -1.85066,2.194968 0,0.057384 0.057385,0.129115 0.157808,0.129115 0.129116,0 0.143462,-0.057384 0.200847,-0.258231 0.344309,-1.205081 0.889464,-1.778928 1.448966,-1.778928 0.129116,0 0.373001,0 0.373001,0.473424 0,0.373001 -0.157808,0.789041 -0.373001,1.334196 -0.702964,1.879352 -0.702964,2.352776 -0.702964,2.697085 0,1.362889 0.975542,1.678505 1.692851,1.678505 0.41604,0 0.932503,-0.129116 1.43462,-0.659925 l 0.014346,0.014346 C 4.418628,0.344309 4.275166,0.90381 3.773049,1.606774 Z"
           id="equation_02_00"
           inkscape:connector-curvature="0" />
      </defs>
      <g
         id="equation_02_g">
        <use
           id="use1469"
           xlink:href="#equation_02_00"
           y="62.764633"
           x="76.712326"
           width="100%"
           height="100%" />
      </g>
    </g>
    <g
       title="\Large$y=|x|$"
       style="fill:#000000"
       id="equation_03"
       transform="translate(61.218955,-4.9651577)"
       inkscape:export-xdpi="300.10001"
       inkscape:export-ydpi="300.10001">
      <defs
         id="defs1612">
        <path
           d="m 6.800097,-5.853248 c -0.459079,0.086077 -0.631233,0.430386 -0.631233,0.702964 0,0.344308 0.272578,0.459078 0.473425,0.459078 0.430385,0 0.731656,-0.373001 0.731656,-0.760348 0,-0.602541 -0.688618,-0.875118 -1.291158,-0.875118 -0.875118,0 -1.362889,0.860771 -1.492004,1.133349 -0.329963,-1.075965 -1.219427,-1.133349 -1.477659,-1.133349 -1.463311,0 -2.238006,1.879351 -2.238006,2.194968 0,0.057384 0.057385,0.129115 0.157808,0.129115 0.11477,0 0.143462,-0.086077 0.172154,-0.143462 0.487771,-1.592427 1.448966,-1.893697 1.865006,-1.893697 0.645579,0 0.774694,0.60254 0.774694,0.946849 0,0.315616 -0.086077,0.645578 -0.258231,1.334196 l -0.487771,1.965429 c -0.215193,0.860771 -0.631232,1.649812 -1.391581,1.649812 -0.071731,0 -0.430386,0 -0.731656,-0.186501 0.516463,-0.100423 0.631233,-0.530809 0.631233,-0.702963 0,-0.286924 -0.215193,-0.459078 -0.487771,-0.459078 -0.344308,0 -0.71731,0.30127 -0.71731,0.760348 0,0.60254 0.674272,0.875118 1.291158,0.875118 0.688617,0 1.176388,-0.545155 1.477658,-1.13335 0.229539,0.846426 0.946849,1.13335 1.477658,1.13335 1.463312,0 2.238007,-1.879352 2.238007,-2.194968 0,-0.071731 -0.057385,-0.129116 -0.143462,-0.129116 -0.129116,0 -0.143462,0.071731 -0.186501,0.186501 -0.387347,1.262465 -1.219426,1.850659 -1.865005,1.850659 -0.502117,0 -0.774695,-0.373001 -0.774695,-0.961195 0,-0.315616 0.057385,-0.545156 0.286924,-1.492004 l 0.502117,-1.951083 c 0.215193,-0.860772 0.702964,-1.492004 1.362889,-1.492004 0.028692,0 0.430386,0 0.731656,0.1865 z"
           id="equation_03_00"
           inkscape:connector-curvature="0" />
        <path
           d="M 3.773049,1.606774 C 3.385702,2.151929 2.826201,2.6397 2.123237,2.6397 c -0.172154,0 -0.860772,-0.028692 -1.075965,-0.688617 0.043039,0.014346 0.11477,0.014346 0.143462,0.014346 0.430386,0 0.71731,-0.373001 0.71731,-0.702964 0,-0.329963 -0.272578,-0.444732 -0.487771,-0.444732 -0.229539,0 -0.731656,0.172155 -0.731656,0.875118 0,0.731656 0.616887,1.233773 1.43462,1.233773 1.43462,0 2.883585,-1.31985 3.285279,-2.912278 L 6.814443,-5.58067 c 0.014346,-0.071731 0.043039,-0.157808 0.043039,-0.243885 0,-0.215193 -0.172155,-0.358655 -0.387348,-0.358655 -0.129116,0 -0.430386,0.057384 -0.545155,0.48777 L 4.86336,-1.477658 c -0.071731,0.258231 -0.071731,0.286924 -0.1865,0.444732 -0.286924,0.401693 -0.760349,0.889464 -1.448966,0.889464 -0.803387,0 -0.875118,-0.789041 -0.875118,-1.176388 0,-0.817733 0.387347,-1.92239 0.774695,-2.955316 0.157808,-0.41604 0.243885,-0.616887 0.243885,-0.903811 0,-0.60254 -0.430386,-1.147695 -1.133349,-1.147695 -1.31985,0 -1.85066,2.080198 -1.85066,2.194968 0,0.057384 0.057385,0.129115 0.157808,0.129115 0.129116,0 0.143462,-0.057384 0.200847,-0.258231 0.344309,-1.205081 0.889464,-1.778928 1.448966,-1.778928 0.129116,0 0.373001,0 0.373001,0.473424 0,0.373001 -0.157808,0.789041 -0.373001,1.334196 -0.702964,1.879352 -0.702964,2.352776 -0.702964,2.697085 0,1.362889 0.975542,1.678505 1.692851,1.678505 0.41604,0 0.932503,-0.129116 1.43462,-0.659925 l 0.014346,0.014346 C 4.418628,0.344309 4.275166,0.90381 3.773049,1.606774 Z"
           id="equation_03_01"
           inkscape:connector-curvature="0" />
        <path
           d="m 9.683682,-4.648167 c 0.200847,0 0.459078,0 0.459078,-0.258232 0,-0.272578 -0.243885,-0.272578 -0.459078,-0.272578 H 1.233773 c -0.200847,0 -0.459078,0 -0.459078,0.258232 0,0.272578 0.243885,0.272578 0.459078,0.272578 z m 0,2.668392 c 0.200847,0 0.459078,0 0.459078,-0.258232 0,-0.272577 -0.243885,-0.272577 -0.459078,-0.272577 H 1.233773 c -0.200847,0 -0.459078,0 -0.459078,0.258231 0,0.272578 0.243885,0.272578 0.459078,0.272578 z"
           id="equation_03_02"
           inkscape:connector-curvature="0" />
        <path
           d="m 2.281045,-10.243184 c 0,-0.258231 0,-0.516463 -0.286924,-0.516463 -0.286924,0 -0.286924,0.258232 -0.286924,0.516463 v 13.31327 c 0,0.258231 0,0.516463 0.286924,0.516463 0.286924,0 0.286924,-0.258232 0.286924,-0.516463 z"
           id="equation_03_03"
           inkscape:connector-curvature="0" />
      </defs>
      <g
         id="equation_03_g">
        <use
           id="use1614"
           xlink:href="#equation_03_01"
           y="63.56163"
           x="76.712326"
           width="100%"
           height="100%" />
        <use
           id="use1616"
           xlink:href="#equation_03_02"
           y="63.56163"
           x="88.061295"
           width="100%"
           height="100%" />
        <use
           id="use1618"
           xlink:href="#equation_03_03"
           y="63.56163"
           x="102.97187"
           width="100%"
           height="100%" />
        <use
           id="use1620"
           xlink:href="#equation_03_00"
           y="63.56163"
           x="106.95694"
           width="100%"
           height="100%" />
        <use
           id="use1622"
           xlink:href="#equation_03_03"
           y="63.56163"
           x="114.93944"
           width="100%"
           height="100%" />
      </g>
    </g>
  </g>
</svg>
