<?xml version="1.0" encoding="UTF-8" standalone="no"?>
<!-- Created with Inkscape (http://www.inkscape.org/) -->

<svg
   xmlns:dc="http://purl.org/dc/elements/1.1/"
   xmlns:cc="http://creativecommons.org/ns#"
   xmlns:rdf="http://www.w3.org/1999/02/22-rdf-syntax-ns#"
   xmlns:svg="http://www.w3.org/2000/svg"
   xmlns="http://www.w3.org/2000/svg"
   xmlns:xlink="http://www.w3.org/1999/xlink"
   xmlns:sodipodi="http://sodipodi.sourceforge.net/DTD/sodipodi-0.dtd"
   xmlns:inkscape="http://www.inkscape.org/namespaces/inkscape"
   id="svg8"
   version="1.1"
   viewBox="0 0 210 297"
   height="297mm"
   width="210mm"
   inkscape:version="0.92.4 (5da689c313, 2019-01-14)"
   sodipodi:docname="調和数列.svg"
   inkscape:export-filename="D:\h-nakashima\OneDrive\HP\Inkscape\調和数列.png"
   inkscape:export-xdpi="300.10001"
   inkscape:export-ydpi="300.10001">
  <defs
     id="defs2">
    <marker
       inkscape:isstock="true"
       style="overflow:visible;"
       id="marker1150"
       refX="0.0"
       refY="0.0"
       orient="auto"
       inkscape:stockid="Arrow2Mend">
      <path
         transform="scale(0.6) rotate(180) translate(0,0)"
         d="M 8.7185878,4.0337352 L -2.2072895,0.016013256 L 8.7185884,-4.0017078 C 6.9730900,-1.6296469 6.9831476,1.6157441 8.7185878,4.0337352 z "
         style="fill-rule:evenodd;stroke-width:0.625;stroke-linejoin:round;stroke:#000000;stroke-opacity:1;fill:#000000;fill-opacity:1"
         id="path1148" />
    </marker>
    <marker
       inkscape:stockid="Arrow2Mend"
       orient="auto"
       refY="0.0"
       refX="0.0"
       id="Arrow2Mend"
       style="overflow:visible;"
       inkscape:isstock="true"
       inkscape:collect="always">
      <path
         id="path853"
         style="fill-rule:evenodd;stroke-width:0.625;stroke-linejoin:round;stroke:#000000;stroke-opacity:1;fill:#000000;fill-opacity:1"
         d="M 8.7185878,4.0337352 L -2.2072895,0.016013256 L 8.7185884,-4.0017078 C 6.9730900,-1.6296469 6.9831476,1.6157441 8.7185878,4.0337352 z "
         transform="scale(0.6) rotate(180) translate(0,0)" />
    </marker>
    <path
       d="m 3.443088,-7.663263 c 0,-0.274969 0,-0.286924 -0.239103,-0.286924 -0.286924,0.32279 -0.884682,0.765131 -2.116065,0.765131 v 0.3467 c 0.274969,0 0.872728,0 1.530262,-0.310835 v 6.228643 c 0,0.430386 -0.035866,0.573848 -1.08792,0.573848 H 1.159651 V 0 c 0.32279,-0.02391 1.482441,-0.02391 1.876962,-0.02391 0.394521,0 1.542216,0 1.865006,0.02391 v -0.3467 h -0.37061 c -1.052055,0 -1.087921,-0.143462 -1.087921,-0.573848 z"
       id="equation_04_00-2"
       inkscape:connector-curvature="0" />
  </defs>
  <sodipodi:namedview
     id="base"
     pagecolor="#ffffff"
     bordercolor="#666666"
     borderopacity="1.0"
     inkscape:pageopacity="0.0"
     inkscape:pageshadow="2"
     inkscape:zoom="0.98994949"
     inkscape:cx="677.44896"
     inkscape:cy="692.65824"
     inkscape:document-units="mm"
     inkscape:current-layer="layer1"
     showgrid="true"
     inkscape:window-width="1858"
     inkscape:window-height="1057"
     inkscape:window-x="-8"
     inkscape:window-y="-8"
     inkscape:window-maximized="1">
    <inkscape:grid
       id="grid10"
       type="xygrid" />
  </sodipodi:namedview>
  <metadata
     id="metadata5">
    <rdf:RDF>
      <cc:Work
         rdf:about="">
        <dc:format>image/svg+xml</dc:format>
        <dc:type
           rdf:resource="http://purl.org/dc/dcmitype/StillImage" />
        <dc:title></dc:title>
      </cc:Work>
    </rdf:RDF>
  </metadata>
  <g
     inkscape:label="レイヤー 1"
     inkscape:groupmode="layer"
     id="layer1">
    <rect
       style="opacity:1;fill:none;fill-opacity:0.82211537;fill-rule:evenodd;stroke:#000000;stroke-width:0.10062306;stroke-linecap:butt;stroke-linejoin:bevel;stroke-miterlimit:4;stroke-dasharray:none;stroke-dashoffset:0;stroke-opacity:1;paint-order:normal"
       id="rect12"
       width="198.4375"
       height="214.3125"
       x="5.2916665"
       y="0.66665828"
       inkscape:export-xdpi="300.10001"
       inkscape:export-ydpi="300.10001" />
    <path
       style="fill:none;stroke:#000000;stroke-width:1;stroke-linecap:butt;stroke-linejoin:miter;stroke-miterlimit:4;stroke-dasharray:none;stroke-opacity:1;marker-end:url(#Arrow2Mend)"
       d="m 2.6458333,196.45832 c 198.4374967,0 198.4374967,0 198.4374967,0"
       id="path824"
       inkscape:connector-curvature="0" />
    <path
       style="fill:none;stroke:#000000;stroke-width:1;stroke-linecap:butt;stroke-linejoin:miter;stroke-miterlimit:4;stroke-dasharray:none;stroke-opacity:1;marker-end:url(#marker1150)"
       d="m 21.166667,214.97916 c 0,-211.6666718 0,-211.6666718 0,-211.6666718"
       id="path1108"
       inkscape:connector-curvature="0" />
    <path
       id="path2005"
       title="1/x"
       d="m 21.16667,-221.05634 c 0.06621,-0.007 0.132424,19.80051 0.198636,19.79325 0.06621,-0.007 0.132424,18.03264 0.198636,18.02504 0.06621,-0.008 0.132425,16.49156 0.198637,16.48362 0.06621,-0.008 0.132424,15.14011 0.198636,15.13183 0.06621,-0.008 0.132424,13.9484 0.198636,13.93978 0.06621,-0.009 0.132424,12.8922 0.198636,12.88324 0.06621,-0.009 0.132424,11.95173 0.198636,11.94244 0.06621,-0.009 0.132424,11.11069 0.198636,11.10105 0.06621,-0.01 0.132424,10.355551 0.198636,10.345574 0.06621,-0.01 0.132425,9.674982 0.198637,9.664666 0.06621,-0.01032 0.132424,9.059497 0.198636,9.048841 0.06621,-0.01066 0.132424,8.501055 0.198636,8.49006 0.06621,-0.01099 0.132424,7.992821 0.198636,7.981486 0.06621,-0.01133 0.132424,7.528956 0.198636,7.517282 0.06621,-0.01167 0.132424,7.104443 0.198636,7.092429 0.06621,-0.01201 0.132424,6.714958 0.198636,6.702604 0.06621,-0.01235 0.132424,6.356752 0.198637,6.344059 0.06621,-0.01269 0.132424,6.026566 0.198636,6.013534 0.06621,-0.01303 0.132424,5.721555 0.198636,5.708183 0.06621,-0.01337 0.132424,5.439226 0.198636,5.425514 0.06621,-0.01371 0.132424,5.1773853 0.198636,5.1633347 0.06621,-0.014051 0.132424,4.9341008 0.198636,4.9197107 0.06621,-0.01439 0.132424,4.7076615 0.198636,4.692932 0.06621,-0.01473 0.132424,4.4965493 0.198636,4.4814803 0.06621,-0.015069 0.132425,4.2994133 0.198637,4.2840053 0.06621,-0.01541 0.132424,4.115049 0.198636,4.099301 0.06621,-0.01575 0.132424,3.942377 0.198636,3.92629 0.06621,-0.01609 0.132424,3.780432 0.198636,3.764005 0.06621,-0.01643 0.132424,3.628346 0.198636,3.611579 0.06621,-0.01677 0.132424,3.485333 0.198636,3.468228 0.06621,-0.01711 0.132424,3.35069 0.198636,3.333244 0.06621,-0.01744 0.132425,3.223777 0.198637,3.205992 0.06621,-0.01779 0.132424,3.104014 0.198636,3.08589 0.06621,-0.01812 0.132424,2.990876 0.198636,2.972412 0.06621,-0.01846 0.132424,2.883885 0.198636,2.865082 0.06621,-0.0188 0.132424,2.782603 0.198636,2.76346 0.06621,-0.01914 0.132424,2.686635 0.198636,2.667153 0.06621,-0.01948 0.132424,2.595614 0.198636,2.575792 0.06621,-0.01982 0.132424,2.509209 0.198636,2.489047 0.06621,-0.02016 0.132425,2.427113 0.198637,2.406612 0.06621,-0.0205 0.132424,2.349046 0.198636,2.328205 0.06621,-0.02084 0.132424,2.274748 0.198636,2.253569 0.06621,-0.02118 0.132424,2.203983 0.198636,2.182464 0.06621,-0.02152 0.132424,2.136532 0.198636,2.114673 0.06621,-0.02186 0.132424,2.07219 0.198636,2.049992 0.06621,-0.0222 0.132424,2.010771 0.198636,1.988233 0.06621,-0.02254 0.132425,1.952103 0.198637,1.929225 0.06621,-0.02288 0.132424,1.896022 0.198636,1.872805 0.06621,-0.02322 0.132424,1.842381 0.198636,1.818824 0.06621,-0.02356 0.132424,1.79104 0.198636,1.767144 0.06621,-0.0239 0.132424,1.741871 0.198636,1.717636 0.06621,-0.02423 0.132424,1.694753 0.198636,1.670179 0.06621,-0.02457 0.132424,1.649576 0.198636,1.624662 0.06621,-0.02491 0.132424,1.606235 0.198637,1.580982 0.06621,-0.02525 0.132424,1.564632 0.198636,1.539039 0.06621,-0.02559 0.132424,1.524676 0.198636,1.498743 0.06621,-0.02593 0.132424,1.486282 0.198636,1.46001 0.06621,-0.02627 0.132424,1.449371 0.198636,1.422759 0.06621,-0.02661 0.132424,1.413867 0.198636,1.386916 0.06621,-0.02695 0.132424,1.379701 0.198636,1.35241 0.06621,-0.02729 0.132424,1.346807 0.198636,1.319177 0.06621,-0.02763 0.132425,1.315122 0.198637,1.287153 0.06621,-0.02797 0.132424,1.28459 0.198636,1.256281 0.06621,-0.02831 0.132424,1.255157 0.198636,1.226507 0.06621,-0.02865 0.132424,1.22677 0.198636,1.19778 0.06621,-0.029 0.132424,1.19938 0.198636,1.17005 0.06621,-0.0293 0.132424,1.17293 0.198636,1.14327 0.06621,-0.0297 0.132424,1.14741 0.198636,1.1174 0.06621,-0.03 0.132425,1.12274 0.198637,1.0924 0.06621,-0.0303 0.132424,1.09891 0.198636,1.06823 0.06621,-0.0307 0.132424,1.07587 0.198636,1.04485 0.06621,-0.031 0.132424,1.05359 0.198636,1.02223 0.06621,-0.0314 0.132424,1.03204 0.198636,1.00034 0.06621,-0.0317 0.132424,1.01119 0.198636,0.97914 0.06621,-0.032 0.132424,0.991 0.198636,0.95862 0.06621,-0.0324 0.132424,0.97144 0.198637,0.93872 0.06621,-0.0327 0.132424,0.95251 0.198636,0.91944 0.06621,-0.0331 0.132424,0.93416 0.198636,0.90076 0.06621,-0.0334 0.132424,0.91637 0.198636,0.88263 0.06621,-0.0337 0.132424,0.89912 0.198636,0.86504 0.06621,-0.0341 0.132424,0.8824 0.198636,0.84798 0.06621,-0.0344 0.132424,0.86618 0.198636,0.83142 0.06621,-0.0348 0.132424,0.85043 0.198636,0.81533 0.06621,-0.0351 0.132425,0.83515 0.198637,0.79971 0.06621,-0.0354 0.132424,0.82031 0.198636,0.78454 0.06621,-0.0358 0.132424,0.8059 0.198636,0.76978 0.06621,-0.0361 0.132424,0.79191 0.198636,0.75545 0.06621,-0.0365 0.132424,0.77831 0.198636,0.74151 0.06621,-0.0368 0.132424,0.76509 0.198636,0.72795 0.06621,-0.0371 0.132424,0.75224 0.198636,0.71477 0.06621,-0.0375 0.132425,0.73974 0.198637,0.70193 0.06621,-0.0378 0.132424,0.72759 0.198636,0.68943 0.06621,-0.0382 0.132424,0.71578 0.198636,0.67728 0.06621,-0.0385 0.132424,0.70427 0.198636,0.66544 0.06621,-0.0388 0.132424,0.69307 0.198636,0.6539 0.06621,-0.0392 0.132424,0.68218 0.198636,0.64266 0.06621,-0.0395 0.132424,0.67157 0.198636,0.63172 0.06621,-0.0399 0.132424,0.66124 0.198637,0.62104 0.06621,-0.0402 0.132424,0.65118 0.198636,0.61064 0.06621,-0.0405 0.132424,0.64137 0.198636,0.6005 0.06621,-0.0409 0.132424,0.63181 0.198636,0.5906 0.06621,-0.0412 0.132424,0.6225 0.198636,0.58095 0.06621,-0.0416 0.132424,0.61342 0.198636,0.57154 0.06621,-0.0419 0.132424,0.60457 0.198636,0.56234 0.06621,-0.0422 0.132424,0.59594 0.198636,0.55337 0.06621,-0.0426 0.132425,0.58753 0.198637,0.54462 0.06621,-0.0429 0.132424,0.57932 0.198636,0.53607 0.06621,-0.0433 0.132424,0.5713 0.198636,0.52772 0.06621,-0.0436 0.132424,0.56348 0.198636,0.51955 0.06621,-0.0439 0.132424,0.55586 0.198636,0.51159 0.06621,-0.0443 0.132424,0.54841 0.198636,0.50381 0.06621,-0.0446 0.132424,0.54113 0.198636,0.49619 0.06621,-0.045 0.132425,0.53403 0.198637,0.48875 0.06621,-0.0453 0.132424,0.5271 0.198636,0.48148 0.06621,-0.0456 0.132424,0.52032 0.198636,0.47436 0.06621,-0.046 0.132424,0.51371 0.198636,0.46741 0.06621,-0.0463 0.132424,0.50725 0.198636,0.46061 0.06621,-0.0466 0.132424,0.50093 0.198636,0.45394 0.06621,-0.047 0.132424,0.49476 0.198636,0.44744 0.06621,-0.0473 0.132424,0.48872 0.198637,0.44106 0.06621,-0.0477 0.132424,0.48282 0.198636,0.43482 0.06621,-0.048 0.132424,0.47705 0.198636,0.42871 0.06621,-0.0483 0.132424,0.47142 0.198636,0.42274 0.06621,-0.0487 0.132424,0.46589 0.198636,0.41688 0.06621,-0.049 0.132424,0.4605 0.198636,0.41114 0.06621,-0.0494 0.132424,0.45522 0.198636,0.40553 0.06621,-0.0497 0.132424,0.45006 0.198636,0.40002 0.06621,-0.05 0.132425,0.44501 0.198637,0.39463 0.06621,-0.0504 0.132424,0.44007 0.198636,0.38935 0.06621,-0.0507 0.132424,0.43523 0.198636,0.38417 0.06621,-0.0511 0.132424,0.43049 0.198636,0.3791 0.06621,-0.0514 0.132424,0.42585 0.198636,0.37412 0.06621,-0.0517 0.132424,0.42131 0.198636,0.36924 0.06621,-0.0521 0.132424,0.41687 0.198636,0.36446 0.06621,-0.0524 0.132425,0.41252 0.198637,0.35977 0.06621,-0.0528 0.132424,0.40825 0.198636,0.35516 0.06621,-0.0531 0.132424,0.40409 0.198636,0.35066 0.06621,-0.0534 0.132424,0.39999 0.198636,0.34622 0.06621,-0.0538 0.132424,0.39599 0.198636,0.34188 0.06621,-0.0541 0.132424,0.39207 0.198636,0.33762 0.06621,-0.0545 0.132424,0.38823 0.198636,0.33344 0.06621,-0.0548 0.132424,0.38445 0.198637,0.32932 0.06621,-0.0551 0.132424,0.38077 0.198636,0.3253 0.06621,-0.0555 0.132424,0.37715 0.198636,0.32134 0.06621,-0.0558 0.132424,0.3736 0.198636,0.31745 0.06621,-0.0562 0.132424,0.37012 0.198636,0.31364 0.06621,-0.0565 0.132424,0.36671 0.198636,0.30989 0.06621,-0.0568 0.132424,0.36337 0.198636,0.30621 0.06621,-0.0572 0.132424,0.36009 0.198636,0.30259 0.06621,-0.0575 0.132425,0.35689 0.198637,0.29904 0.06621,-0.0578 0.132424,0.35374 0.198636,0.29555 0.06621,-0.0582 0.132424,0.35065 0.198636,0.29213 0.06621,-0.0585 0.132424,0.34761 0.198636,0.28875 0.06621,-0.0589 0.132424,0.34464 0.198636,0.28544 0.06621,-0.0592 0.132424,0.34173 0.198636,0.28219 0.06621,-0.0595 0.132424,0.33887 0.198636,0.27898 0.06621,-0.0599 0.132425,0.33607 0.198637,0.27585 0.06621,-0.0602 0.132424,0.33331 0.198636,0.27275 0.06621,-0.0606 0.132424,0.3306 0.198636,0.2697 0.06621,-0.0609 0.132424,0.32796 0.198636,0.26672 0.06621,-0.0612 0.132424,0.32536 0.198636,0.26378 0.06621,-0.0616 0.132424,0.3228 0.198636,0.26088 0.06621,-0.0619 0.132424,0.3203 0.198636,0.25804 0.06621,-0.0623 0.132424,0.31784 0.198637,0.25524 0.06621,-0.0626 0.132424,0.31543 0.198636,0.25249 0.06621,-0.0629 0.132424,0.31305 0.198636,0.24978 0.06621,-0.0633 0.132424,0.31072 0.198636,0.24711 0.06621,-0.0636 0.132424,0.30844 0.198636,0.24449 0.06621,-0.064 0.132424,0.3062 0.198636,0.2419 0.06621,-0.0643 0.132424,0.304 0.198636,0.23937 0.06621,-0.0646 0.132424,0.30184 0.198636,0.23686 0.06621,-0.065 0.132425,0.29972 0.198637,0.2344 0.06621,-0.0653 0.132424,0.29763 0.198636,0.23198 0.06621,-0.0657 0.132424,0.29558 0.198636,0.22959 0.06621,-0.066 0.132424,0.29357 0.198636,0.22724 0.06621,-0.0663 0.132424,0.2916 0.198636,0.22493 0.06621,-0.0667 0.132424,0.28966 0.198636,0.22265 0.06621,-0.067 0.132424,0.28775 0.198636,0.2204 0.06621,-0.0674 0.132425,0.28588 0.198637,0.21819 0.06621,-0.0677 0.132424,0.28404 0.198636,0.21601 0.06621,-0.068 0.132424,0.28224 0.198636,0.21387 0.06621,-0.0684 0.132424,0.28047 0.198636,0.21176 0.06621,-0.0687 0.132424,0.27872 0.198636,0.20967 0.06621,-0.0691 0.132424,0.27701 0.198636,0.20762 0.06621,-0.0694 0.132424,0.27533 0.198636,0.2056 0.06621,-0.0697 0.132424,0.27368 0.198637,0.20361 0.06621,-0.0701 0.132424,0.27205 0.198636,0.20164 0.06621,-0.0704 0.132424,0.27046 0.198636,0.19971 0.06621,-0.0707 0.132424,0.26889 0.198636,0.1978 0.06621,-0.0711 0.132424,0.26735 0.198636,0.19592 0.06621,-0.0714 0.132424,0.26583 0.198636,0.19407 0.06621,-0.0718 0.132424,0.26434 0.198636,0.19224 0.06621,-0.0721 0.132424,0.26288 0.198636,0.19044 0.06621,-0.0724 0.132425,0.26144 0.198637,0.18866 0.06621,-0.0728 0.132424,0.26003 0.198636,0.18691 0.06621,-0.0731 0.132424,0.25864 0.198636,0.18518 0.06621,-0.0735 0.132424,0.25728 0.198636,0.18348 0.06621,-0.0738 0.132424,0.25594 0.198636,0.1818 0.06621,-0.0741 0.132424,0.25462 0.198636,0.18014 0.06621,-0.0745 0.132424,0.25332 0.198636,0.1785 0.06621,-0.0748 0.132425,0.25205 0.198637,0.17689 0.06621,-0.0752 0.132424,0.2508 0.198636,0.17531 0.06621,-0.0755 0.132424,0.24957 0.198636,0.17373 0.06621,-0.0758 0.132424,0.24836 0.198636,0.17218 0.06621,-0.0762 0.132424,0.24718 0.198636,0.17066 0.06621,-0.0765 0.132424,0.246 0.198636,0.16915 0.06621,-0.0769 0.132424,0.24486 0.198636,0.16766 0.06621,-0.0772 0.132424,0.24373 0.198637,0.16619 0.06621,-0.0775 0.132424,0.24262 0.198636,0.16475 0.06621,-0.0779 0.132424,0.24152 0.198636,0.16331 0.06621,-0.0782 0.132424,0.24045 0.198636,0.1619 0.06621,-0.0786 0.132424,0.2394 0.198636,0.16051 0.06621,-0.0789 0.132424,0.23837 0.198636,0.15913 0.06621,-0.0792 0.132424,0.23735 0.198636,0.15778 0.06621,-0.0796 0.132424,0.23634 0.198636,0.15643 0.06621,-0.0799 0.132425,0.23537 0.198637,0.15511 0.06621,-0.0803 0.132424,0.2344 0.198636,0.15381 0.06621,-0.0806 0.132424,0.23344 0.198636,0.15251 0.06621,-0.0809 0.132424,0.23251 0.198636,0.15124 0.06621,-0.0813 0.132424,0.23159 0.198636,0.14998 0.06621,-0.0816 0.132424,0.23069 0.198636,0.14874 0.06621,-0.0819 0.132424,0.2298 0.198636,0.14751 0.06621,-0.0823 0.132425,0.22893 0.198637,0.1463 0.06621,-0.0826 0.132424,0.22807 0.198636,0.14511 0.06621,-0.083 0.132424,0.22722 0.198636,0.14392 0.06621,-0.0833 0.132424,0.22639 0.198636,0.14275 0.06621,-0.0837 0.132424,0.22558 0.198636,0.14159 0.06621,-0.084 0.132424,0.22479 0.198636,0.14046 0.06621,-0.0843 0.132424,0.224 0.198636,0.13933 0.06621,-0.0847 0.132424,0.22322 0.198637,0.13822 0.06621,-0.085 0.132424,0.22246 0.198636,0.13712 0.06621,-0.0854 0.132424,0.22171 0.198636,0.13603 0.06621,-0.0857 0.132424,0.22098 0.198636,0.13496 0.06621,-0.086 0.132424,0.22025 0.198636,0.13389 0.06621,-0.0864 0.132424,0.21955 0.198636,0.13285 0.06621,-0.0867 0.132424,0.21885 0.198636,0.13181 0.06621,-0.087 0.132424,0.21817 0.198636,0.13079 0.06621,-0.0874 0.132425,0.2175 0.198637,0.12978 0.06621,-0.0877 0.132424,0.21683 0.198636,0.12877 0.06621,-0.0881 0.132424,0.21618 0.198636,0.12779 0.06621,-0.0884 0.132424,0.21554 0.198636,0.1268 0.06621,-0.0887 0.132424,0.21492 0.198636,0.12585 0.06621,-0.0891 0.132424,0.2143 0.198636,0.12488 0.06621,-0.0894 0.132424,0.2137 0.198636,0.12394 0.06621,-0.0898 0.132424,0.2131 0.198637,0.12301 0.06621,-0.0901 0.132424,0.21252 0.198636,0.12208 0.06621,-0.0904 0.132424,0.21195 0.198636,0.12117 0.06621,-0.0908 0.132424,0.21138 0.198636,0.12027 0.06621,-0.0911 0.132424,0.21083 0.198636,0.11937 0.06621,-0.0914 0.132424,0.21029 0.198636,0.1185 0.06621,-0.0918 0.132424,0.20975 0.198636,0.11761 0.06621,-0.0921 0.132424,0.20923 0.198636,0.11676 0.06621,-0.0925 0.132425,0.20871 0.198637,0.1159 0.06621,-0.0928 0.132424,0.20821 0.198636,0.11506 0.06621,-0.0932 0.132424,0.20771 0.198636,0.11422 0.06621,-0.0935 0.132424,0.20722 0.198636,0.11339 0.06621,-0.0938 0.132424,0.20674 0.198636,0.11257 0.06621,-0.0942 0.132424,0.20628 0.198636,0.11177 0.06621,-0.0945 0.132424,0.20582 0.198636,0.11097 0.06621,-0.0948 0.132425,0.20536 0.198637,0.11017 0.06621,-0.0952 0.132424,0.20492 0.198636,0.1094 0.06621,-0.0955 0.132424,0.20448 0.198636,0.10861 0.06621,-0.0959 0.132424,0.20406 0.198636,0.10786 0.06621,-0.0962 0.132424,0.20363 0.198636,0.10709 0.06621,-0.0966 0.132424,0.20323 0.198636,0.10634 0.06621,-0.0969 0.132424,0.20283 0.198636,0.1056 0.06621,-0.0972 0.132424,0.20243 0.198637,0.10487 0.06621,-0.0976 0.132424,0.20204 0.198636,0.10413 0.06621,-0.0979 0.132424,0.20166 0.198636,0.10342 0.06621,-0.0982 0.132424,0.20129 0.198636,0.10271 0.06621,-0.0986 0.132424,0.20092 0.198636,0.102 0.06621,-0.0989 0.132424,0.20056 0.198636,0.1013 0.06621,-0.0993 0.132424,0.20021 0.198636,0.10061 0.06621,-0.0996 0.132424,0.19987 0.198636,0.0999 0.06621,-0.0999 0.132425,0.19953 0.198637,0.0993 0.06621,-0.10028 0.132424,0.1992 0.198636,0.0986 0.06621,-0.10062 0.132424,0.19888 0.198636,0.0979 0.06621,-0.10096 0.132424,0.19857 0.198636,0.0973 0.06621,-0.1013 0.132424,0.19825 0.198636,0.0966 0.06621,-0.10164 0.132424,0.19795 0.198636,0.096 0.06621,-0.10198 0.132424,0.19765 0.198636,0.0953 0.06621,-0.10231 0.132425,0.19736 0.198637,0.0947 0.06621,-0.10266 0.132424,0.19707 0.198636,0.0941 0.06621,-0.10299 0.132424,0.1968 0.198636,0.0935 0.06621,-0.10333 0.132424,0.19653 0.198636,0.0928 0.06621,-0.10367 0.132424,0.19626 0.198636,0.0922 0.06621,-0.10401 0.132424,0.196 0.198636,0.0916 0.06621,-0.10436 0.132424,0.19574 0.198636,0.091 0.06621,-0.10469 0.132424,0.1955 0.198637,0.0905 0.06621,-0.10503 0.132424,0.19525 0.198636,0.0899 0.06621,-0.10537 0.132424,0.19501 0.198636,0.0893 0.06621,-0.10571 0.132424,0.19478 0.198636,0.0887 0.06621,-0.10605 0.132424,0.19456 0.198636,0.0882 0.06621,-0.1064 0.132424,0.19433 0.198636,0.0876 0.06621,-0.10673 0.132424,0.19411 0.198636,0.087 0.06621,-0.10707 0.132424,0.1939 0.198636,0.0865 0.06621,-0.1074 0.132425,0.1937 0.198637,0.0859 0.06621,-0.10775 0.132424,0.1935 0.198636,0.0854 0.06621,-0.10809 0.132424,0.19331 0.198636,0.0849 0.06621,-0.10843 0.132424,0.19311 0.198636,0.0843 0.06621,-0.10876 0.132424,0.19293 0.198636,0.0838 0.06621,-0.1091 0.132424,0.19275 0.198636,0.0833 0.06621,-0.10944 0.132424,0.19257 0.198636,0.0828 0.06621,-0.10979 0.132425,0.1924 0.198637,0.0823 0.06621,-0.11012 0.132424,0.19223 0.198636,0.0818 0.06621,-0.11047 0.132424,0.19207 0.198636,0.0813 0.06621,-0.11081 0.132424,0.19191 0.198636,0.0808 0.06621,-0.11115 0.132424,0.19176 0.198636,0.0803 0.06621,-0.11149 0.132424,0.19161 0.198636,0.0798 0.06621,-0.11182 0.132424,0.19147 0.198636,0.0793 0.06621,-0.11216 0.132424,0.19133 0.198637,0.0788 0.06621,-0.1125 0.132424,0.19119 0.198636,0.0784 0.06621,-0.11284 0.132424,0.19107 0.198636,0.0779 0.06621,-0.11318 0.132424,0.19094 0.198636,0.0774 0.06621,-0.11352 0.132424,0.19082 0.198636,0.077 0.06621,-0.11386 0.132424,0.1907 0.198636,0.0765 0.06621,-0.1142 0.132424,0.19058 0.198636,0.076 0.06621,-0.11453 0.132424,0.19048 0.198636,0.0756 0.06621,-0.11488 0.132425,0.19037 0.198637,0.0752 0.06621,-0.11521 0.132424,0.19027 0.198636,0.0747 0.06621,-0.11555 0.132424,0.19017 0.198636,0.0743 0.06621,-0.1159 0.132424,0.19007 0.198636,0.0738 0.06621,-0.11624 0.132424,0.18998 0.198636,0.0734 0.06621,-0.11657 0.132424,0.1899 0.198636,0.073 0.06621,-0.11692 0.132424,0.18981 0.198636,0.0726 0.06621,-0.11726 0.132425,0.18973 0.198637,0.0721 0.06621,-0.1176 0.132424,0.18966 0.198636,0.0717 0.06621,-0.11793 0.132424,0.18959 0.198636,0.0713 0.06621,-0.11827 0.132424,0.18952 0.198636,0.0709 0.06621,-0.11861 0.132424,0.18946 0.198636,0.0705 0.06621,-0.11895 0.132424,0.1894 0.198636,0.0701 0.06621,-0.11929 0.132424,0.18934 0.198636,0.0697 0.06621,-0.11963 0.132424,0.18927 0.198637,0.0693 0.06621,-0.11997 0.132424,0.18923 0.198636,0.0689 0.06621,-0.12031 0.132424,0.18918 0.198636,0.0685 0.06621,-0.12065 0.132424,0.18913 0.198636,0.0681 0.06621,-0.12099 0.132424,0.18909 0.198636,0.0678 0.06621,-0.12132 0.132424,0.18906 0.198636,0.0674 0.06621,-0.12167 0.132424,0.18902 0.198636,0.067 0.06621,-0.12201 0.132424,0.18898 0.198636,0.0666 0.06621,-0.12235 0.132425,0.18895 0.198637,0.0663 0.06621,-0.12268 0.132424,0.18893 0.198636,0.0659 0.06621,-0.12303 0.132424,0.1889 0.198636,0.0655 0.06621,-0.12337 0.132424,0.18888 0.198636,0.0652 0.06621,-0.12371 0.132424,0.18887 0.198636,0.0648 0.06621,-0.12404 0.132424,0.18886 0.198636,0.0645 0.06621,-0.12438 0.132424,0.18884 0.198636,0.0641 0.06621,-0.12472 0.132425,0.18883 0.198637,0.0638 0.06621,-0.12506 0.132424,0.18883 0.198636,0.0634 0.06621,-0.1254 0.132424,0.18882 0.198636,0.0631 0.06621,-0.12574 0.132424,0.18882 0.198636,0.0627 0.06621,-0.12608 0.132424,0.18883 0.198636,0.0624 0.06621,-0.12642 0.132424,0.18883 0.198636,0.0621 0.06621,-0.12676 0.132424,0.18884 0.198636,0.0617 0.06621,-0.1271 0.132424,0.18885 0.198637,0.0614 0.06621,-0.12743 0.132424,0.18887 0.198636,0.0611 0.06621,-0.12778 0.132424,0.18888 0.198636,0.0608 0.06621,-0.12812 0.132424,0.1889 0.198636,0.0604 0.06621,-0.12846 0.132424,0.18892 0.198636,0.0601 0.06621,-0.12879 0.132424,0.18895 0.198636,0.0598 0.06621,-0.12914 0.132424,0.18897 0.198636,0.0595 0.06621,-0.12948 0.132424,0.189 0.198636,0.0592 0.06621,-0.12981 0.132425,0.18903 0.198637,0.0589 0.06621,-0.13015 0.132424,0.18906 0.198636,0.0586 0.06621,-0.13049 0.132424,0.1891 0.198636,0.0583 0.06621,-0.13083 0.132424,0.18914 0.198636,0.058 0.06621,-0.13117 0.132424,0.18918 0.198636,0.0577 0.06621,-0.13151 0.132424,0.18922 0.198636,0.0574 0.06621,-0.13186 0.132424,0.18926 0.198636,0.0571 0.06621,-0.1322 0.132425,0.1893 0.198637,0.0568 0.06622,-0.13253 0.132426,0.18936 0.198636,0.0565 0.0662,-0.13287 0.13242,0.18941 0.19864,0.0562 0.0662,-0.13321 0.13242,0.18946 0.19863,0.0559 0.0662,-0.13355 0.13243,0.18952 0.19864,0.0556 0.0662,-0.13389 0.13242,0.18958 0.19863,0.0554 0.0662,-0.13423 0.13243,0.18964 0.19864,0.0551 0.0662,-0.13457 0.13242,0.1897 0.19864,0.0548 0.0662,-0.13491 0.13242,0.18977 0.19863,0.0545 0.0662,-0.13525 0.13243,0.18983 0.19864,0.0542 0.0662,-0.13558 0.13242,0.1899 0.19863,0.054 0.0662,-0.13593 0.13243,0.18997 0.19864,0.0537 0.0662,-0.13627 0.13243,0.19004 0.19864,0.0534 0.0662,-0.13661 0.13242,0.19011 0.19863,0.0532 0.0662,-0.13695 0.13243,0.19019 0.19864,0.0529 0.0662,-0.13729 0.13242,0.19027 0.19864,0.0526 0.0662,-0.13763 0.13242,0.19035 0.19863,0.0524 0.0662,-0.13797 0.13243,0.19043 0.19864,0.0521 0.0662,-0.1383 0.13242,0.19052 0.19863,0.0519 0.0662,-0.13864 0.13243,0.19061 0.19864,0.0516 0.0662,-0.13898 0.13242,0.19069 0.19864,0.0514 0.0662,-0.13932 0.13242,0.19078 0.19863,0.0511 0.0662,-0.13966 0.13243,0.19087 0.19864,0.0509 0.0662,-0.14 0.13242,0.19097 0.19863,0.0506 0.0662,-0.14034 0.13243,0.19106 0.19864,0.0504 0.0662,-0.14068 0.13242,0.19116 0.19864,0.0501 0.0662,-0.14102 0.13242,0.19125 0.19863,0.0499 0.0662,-0.14136 0.13243,0.19135 0.198643,0.0497 0.0662,-0.1417 0.13242,0.19146 0.19864,0.0494 0.0662,-0.14204 0.13242,0.19157 0.19863,0.0492 0.0662,-0.14238 0.13243,0.19167 0.19864,0.049 0.0662,-0.14271 0.13242,0.19178 0.19863,0.0487 0.0662,-0.14305 0.13243,0.19189 0.19864,0.0485 0.0662,-0.14339 0.13242,0.192 0.19864,0.0483 0.0662,-0.14374 0.13242,0.1921 0.19863,0.048 0.0662,-0.14407 0.13243,0.19222 0.19864,0.0478 0.0662,-0.14441 0.13242,0.19234 0.19863,0.0476 0.0662,-0.14475 0.13243,0.19246 0.19864,0.0474 0.0662,-0.14509 0.13242,0.19258 0.19864,0.0471 0.0662,-0.14543 0.13242,0.1927 0.19863,0.0469 0.0662,-0.14578 0.13243,0.19281 0.19864,0.0467 0.0662,-0.14611 0.13242,0.19293 0.19864,0.0465 0.0662,-0.14645 0.13242,0.19307 0.19863,0.0463 0.0662,-0.14679 0.13243,0.19318 0.19864,0.0461 0.0662,-0.14713 0.13242,0.19332 0.19863,0.0459 0.0662,-0.14747 0.13243,0.19344 0.19864,0.0456 0.0662,-0.1478 0.13242,0.19358 0.19864,0.0454 0.0662,-0.14815 0.13242,0.19371 0.19863,0.0452 0.0662,-0.14849 0.13243,0.19384 0.19864,0.045 0.0662,-0.14883 0.13242,0.19397 0.19863,0.0448 0.0662,-0.14917 0.13243,0.19411 0.19864,0.0446 0.0662,-0.14951 0.13242,0.19425 0.19864,0.0444 0.0662,-0.14984 0.13242,0.19439 0.19863,0.0442 0.0662,-0.15018 0.13243,0.19453 0.19864,0.044 0.0662,-0.15052 0.13242,0.19467 0.19863,0.0438 0.0662,-0.15087 0.13243,0.19481 0.19864,0.0436 0.0662,-0.1512 0.13243,0.19496 0.19864,0.0434 0.0662,-0.15154 0.13242,0.1951 0.19863,0.0432 0.0662,-0.15188 0.13243,0.19525 0.19864,0.043 0.0662,-0.15223 0.13242,0.19539 0.19864,0.0428 0.0662,-0.15256 0.13242,0.19554 0.19863,0.0426 0.0662,-0.1529 0.13243,0.19569 0.19864,0.0425 0.0662,-0.15324 0.13242,0.19585 0.19863,0.0423 0.0662,-0.15358 0.13243,0.196 0.19864,0.0421 0.0662,-0.15392 0.13242,0.19615 0.19864,0.0419 0.0662,-0.15425 0.13242,0.19631 0.19863,0.0417 0.0662,-0.1546 0.13243,0.19646 0.19864,0.0415 0.0662,-0.15493 0.13242,0.19663 0.19863,0.0414 0.0662,-0.15528 0.13243,0.19678 0.19864,0.0412 0.0662,-0.15561 0.13242,0.19695 0.19864,0.041 0.0662,-0.15596 0.13242,0.1971 0.19863,0.0408 0.0662,-0.1563 0.13243,0.19727 0.19864,0.0406 0.0662,-0.15663 0.13242,0.19743 0.19864,0.0405 0.0662,-0.15698 0.13242,0.19759 0.19863,0.0403 0.0662,-0.15732 0.13243,0.19776 0.19864,0.0401 0.0662,-0.15765 0.13242,0.19793 0.19863,0.0399 0.0662,-0.15799 0.13243,0.1981 0.19864,0.0398 0.0662,-0.15833 0.13242,0.19827 0.19864,0.0396 0.0662,-0.15867 0.13242,0.19843 0.19863,0.0394 0.0662,-0.15901 0.13243,0.19861 0.19864,0.0393 0.0662,-0.15935 0.13242,0.19878 0.19863,0.0391 0.0662,-0.15969 0.13243,0.19895 0.19864,0.0389 0.0662,-0.16003 0.13242,0.19913 0.19864,0.0388 0.0662,-0.16037 0.13242,0.19931 0.19863,0.0386 0.0662,-0.16071 0.13243,0.19948 0.19864,0.0384 0.0662,-0.16105 0.13242,0.19966 0.19864,0.0383 0.0662,-0.16139 0.13242,0.19984 0.19863,0.0381 0.0662,-0.16173 0.13243,0.20002 0.19864,0.0379 0.0662,-0.16206 0.13242,0.2002 0.19863,0.0378 0.0662,-0.1624 0.13243,0.20038 0.19864,0.0376 0.0662,-0.16275 0.13242,0.20056 0.19864,0.0375 0.0662,-0.16309 0.13242,0.20074 0.19863,0.0373 0.0662,-0.16343 0.13243,0.20093 0.19864,0.0372 0.0662,-0.16377 0.13242,0.20111 0.19863,0.037 0.0662,-0.1641 0.13243,0.2013 0.19864,0.0369 0.0662,-0.16444 0.13242,0.20149 0.19864,0.0367 0.0662,-0.16478 0.13242,0.20168 0.19863,0.0366 0.0662,-0.16513 0.13243,0.20187 0.19864,0.0364 0.0662,-0.16546 0.13242,0.20206 0.19863,0.0363 0.0662,-0.1658 0.13243,0.20225 0.19864,0.0361 0.0662,-0.16614 0.13243,0.20245 0.19864,0.036 0.0662,-0.16648 0.13242,0.20263 0.19863,0.0358 0.0662,-0.16682 0.13243,0.20283 0.19864,0.0357 0.0662,-0.16716 0.13242,0.20302 0.19864,0.0355 0.0662,-0.1675 0.13242,0.20322 0.19863,0.0354 0.0662,-0.16784 0.13243,0.20341 0.19864,0.0352 0.0662,-0.16818 0.13242,0.20361 0.19863,0.0351 0.0662,-0.16851 0.13243,0.20382 0.19864,0.035 0.0662,-0.16886 0.13242,0.20401 0.19864,0.0348 0.0662,-0.1692 0.13242,0.20421 0.19863,0.0347 0.0662,-0.16954 0.13243,0.20441 0.19864,0.0345 0.0662,-0.16987 0.13242,0.20462 0.19863,0.0344 0.0662,-0.17022 0.13243,0.20481 0.19864,0.0343 0.0662,-0.17055 0.13242,0.20502 0.19864,0.0341 0.0662,-0.1709 0.13242,0.20522 0.19863,0.034 0.0662,-0.17123 0.13243,0.20543 0.19864,0.0339 0.0662,-0.17157 0.13242,0.20563 0.19864,0.0337 0.0662,-0.17191 0.13242,0.20584 0.19863,0.0336 0.0662,-0.17225 0.13243,0.20605 0.19864,0.0335 0.0662,-0.17259 0.13242,0.20626 0.19863,0.0333 0.0662,-0.17293 0.13243,0.20647 0.19864,0.0332 0.0662,-0.17327 0.13242,0.20667 0.19864,0.0331 0.0662,-0.17361 0.13242,0.20688 0.19863,0.0329 0.0662,-0.17394 0.13243,0.2071 0.19864,0.0328 0.0662,-0.17428 0.13242,0.20731 0.19863,0.0327 0.0662,-0.17463 0.13243,0.20752 0.19864,0.0326 0.0662,-0.17496 0.13242,0.20774 0.19864,0.0324 0.0662,-0.1753 0.13242,0.20795 0.19863,0.0323 0.0662,-0.17565 0.13243,0.20816 0.19864,0.0322 0.0662,-0.17599 0.13242,0.20838 0.19864,0.032 0.0662,-0.17632 0.13242,0.2086 0.19863,0.0319 0.0662,-0.17666 0.13243,0.20882 0.19864,0.0318 0.0662,-0.177 0.13242,0.20904 0.19863,0.0317 0.0662,-0.17734 0.13243,0.20925 0.19864,0.0316 0.0662,-0.17768 0.13242,0.20947 0.19864,0.0315 0.0662,-0.17803 0.13242,0.20969 0.19863,0.0313 0.0662,-0.17836 0.13243,0.20991 0.19864,0.0312 0.0662,-0.1787 0.13242,0.21013 0.19863,0.0311 0.0662,-0.17904 0.13243,0.21035 0.19864,0.031 0.0662,-0.17938 0.13242,0.21058 0.19864,0.0309 0.0662,-0.17972 0.13242,0.2108 0.19863,0.0307 0.0662,-0.18006 0.13243,0.21102 0.19864,0.0306 0.0662,-0.1804 0.13242,0.21125 0.19863,0.0305 0.0662,-0.18074 0.13243,0.21147 0.19864,0.0304 0.0662,-0.18108 0.13243,0.2117 0.19864,0.0303 0.0662,-0.18142 0.13242,0.21192 0.19863,0.0302 0.0662,-0.18176 0.13243,0.21215 0.19864,0.0301 0.0662,-0.18209 0.13242,0.21238 0.19864,0.0299 0.0662,-0.18243 0.13242,0.21261 0.19863,0.0298 0.0662,-0.18277 0.13243,0.21284 0.19864,0.0297 0.0662,-0.18312 0.13242,0.21306 0.19863,0.0296 0.0662,-0.18346 0.13243,0.21329 0.19864,0.0295 0.0662,-0.1838 0.13242,0.21352 0.19864,0.0294 0.0662,-0.18413 0.13242,0.21376 0.19863,0.0293 0.0662,-0.18447 0.13243,0.21399 0.19864,0.0292 0.0662,-0.18481 0.13242,0.21422 0.19863,0.0291 0.0662,-0.18515 0.13243,0.21445 0.19864,0.029 0.0662,-0.18549 0.13242,0.21469 0.19864,0.0289 0.0662,-0.18583 0.13242,0.21492 0.19863,0.0288 0.0662,-0.18617 0.13243,0.21516 0.19864,0.0286 0.0662,-0.18651 0.13242,0.21539 0.19864,0.0285 0.0662,-0.18685 0.13242,0.21563 0.19863,0.0284 0.0662,-0.18719 0.13243,0.21587 0.19864,0.0283 0.0662,-0.18753 0.13242,0.2161 0.19863,0.0282 0.0662,-0.18786 0.13243,0.21634 0.19864,0.0281 0.0662,-0.18821 0.13242,0.21657 0.19864,0.028 0.0662,-0.18855 0.13242,0.21681 0.19863,0.0279 0.0662,-0.18889 0.13243,0.21705 0.19864,0.0278 0.0662,-0.18923 0.13242,0.21729 0.19863,0.0277 0.0662,-0.18957 0.13243,0.21753 0.19864,0.0276 0.0662,-0.1899 0.13242,0.21778 0.19864,0.0275 0.0662,-0.19024 0.13242,0.21802 0.19863,0.0274 0.0662,-0.19059 0.13243,0.21826 0.19864,0.0273 0.0662,-0.19092 0.13242,0.21851 0.19864,0.0272 0.0662,-0.19126 0.13242,0.21875 0.19863,0.0272 0.0662,-0.1916 0.13243,0.21899 0.19864,0.0271 0.0662,-0.19195 0.13242,0.21923 0.19863,0.0269 0.0662,-0.19228 0.13243,0.21948 0.19864,0.0268 0.0662,-0.19262 0.13242,0.21973 0.19864,0.0268 0.0662,-0.19296 0.13242,0.21997 0.19863,0.0267 0.0662,-0.1933 0.13243,0.22021 0.19864,0.0266 0.0662,-0.19364 0.13242,0.22046 0.19863,0.0265 0.0662,-0.19398 0.13243,0.22071 0.19864,0.0264 0.0662,-0.19432 0.13242,0.22096 0.19864,0.0263 0.0662,-0.19466 0.13242,0.2212 0.19863,0.0262 0.0662,-0.195 0.13243,0.22145 0.19864,0.0261 0.0662,-0.19534 0.13242,0.2217 0.19863,0.026 0.0662,-0.19567 0.13243,0.22195 0.19864,0.0259 0.0662,-0.19602 0.13243,0.2222 0.19864,0.0258 0.0662,-0.19635 0.13242,0.22245 0.19863,0.0258 0.0662,-0.1967 0.13243,0.2227 0.19864,0.0257 0.0662,-0.19703 0.13242,0.22296 0.19864,0.0256 0.0662,-0.19737 0.13242,0.22321 0.19863,0.0255 0.0662,-0.19771 0.13243,0.22346 0.19864,0.0254 0.0662,-0.19806 0.13242,0.2237 0.19863,0.0253 0.0662,-0.19839 0.13243,0.22396 0.19864,0.0252 0.0662,-0.19873 0.13242,0.22421 0.19864,0.0251 0.0662,-0.19907 0.13242,0.22447 0.19863,0.0251 0.0662,-0.19941 0.13243,0.22472 0.19864,0.025 0.0662,-0.19975 0.13242,0.22498 0.19863,0.0249 0.0662,-0.20009 0.13243,0.22523 0.19864,0.0248 0.0662,-0.20043 0.13242,0.22548 0.19864,0.0247 0.0662,-0.20077 0.13242,0.22574 0.19863,0.0246 0.0662,-0.20111 0.13243,0.226 0.19864,0.0246 0.0662,-0.20144 0.13242,0.22626 0.19864,0.0245 0.0662,-0.20179 0.13242,0.22651 0.19863,0.0244 0.0662,-0.20212 0.13243,0.22678 0.19864,0.0243 0.0662,-0.20247 0.13242,0.22703 0.19863,0.0242 0.0662,-0.20281 0.13243,0.22728 0.19864,0.0241 0.0662,-0.20314 0.13242,0.22755 0.19864,0.0241 0.0662,-0.20348 0.13242,0.22781 0.19863,0.024 0.0662,-0.20383 0.13243,0.22806 0.19864,0.0239 0.0662,-0.20416 0.13242,0.22833 0.19863,0.0238 0.0662,-0.2045 0.13243,0.22859 0.19864,0.0238 0.0662,-0.20484 0.13242,0.22885 0.19864,0.0237 0.0662,-0.20518 0.13242,0.22911 0.19863,0.0236 0.0662,-0.20553 0.13243,0.22937 0.19864,0.0235 0.0662,-0.20586 0.13242,0.22963 0.19864,0.0234 0.0662,-0.2062 0.13242,0.2299 0.19863,0.0234 0.0662,-0.20654 0.13243,0.23015 0.19864,0.0233 0.0662,-0.20688 0.13242,0.23042 0.19863,0.0232 0.0662,-0.20722 0.13243,0.23068 0.19864,0.0231 0.0662,-0.20756 0.13242,0.23095 0.19864,0.023 0.0662,-0.2079 0.13242,0.23121 0.19863,0.023 0.0662,-0.20824 0.13243,0.23147 0.19864,0.0229 0.0662,-0.20858 0.13242,0.23174 0.19863,0.0228 0.0662,-0.20892 0.13243,0.232 0.19864,0.0228 0.0662,-0.20926 0.13242,0.23227 0.19864,0.0227 0.0662,-0.2096 0.13242,0.23254 0.19863,0.0226 0.0662,-0.20994 0.13243,0.2328 0.19864,0.0225 0.0662,-0.21027 0.13242,0.23307 0.19863,0.0225 0.0662,-0.21061 0.13243,0.23334 0.19864,0.0224 0.0662,-0.21095 0.13243,0.23361 0.19864,0.0223 0.0662,-0.21129 0.13242,0.23388 0.19863,0.0223 0.0662,-0.21163 0.13243,0.23414 0.19864,0.0222 0.0662,-0.21197 0.13242,0.23442 0.19864,0.0221 0.0662,-0.21231 0.13242,0.23468 0.19863,0.022 0.0662,-0.21265 0.13243,0.23495 0.19864,0.022 0.0662,-0.21299 0.13242,0.23522 0.19863,0.0219 0.0662,-0.21333 0.13243,0.23549 0.19864,0.0218 0.0662,-0.21367 0.13242,0.23576 0.19864,0.0217 0.0662,-0.21401 0.13242,0.23603 0.19863,0.0217 0.0662,-0.21434 0.13243,0.23631 0.19864,0.0216 0.0662,-0.21469 0.13242,0.23657 0.19863,0.0216 0.0662,-0.21503 0.13243,0.23684 0.19864,0.0215 0.0662,-0.21537 0.13242,0.23711 0.19864,0.0214 0.0662,-0.21571 0.13242,0.23739 0.19863,0.0213 0.0662,-0.21604 0.13243,0.23767 0.19864,0.0213 0.0662,-0.21638 0.13242,0.23794 0.19864,0.0212 0.0662,-0.21672 0.13242,0.23821 0.19863,0.0212 0.0662,-0.21707 0.13243,0.23848 0.19864,0.0211 0.0662,-0.21741 0.13242,0.23875 0.19863,0.021 0.0662,-0.21774 0.13243,0.23903 0.19864,0.0209 0.0662,-0.21809 0.13242,0.2393 0.19864,0.0209 0.0662,-0.21842 0.13242,0.23958 0.19863,0.0208 0.0662,-0.21876 0.13243,0.23985 0.19864,0.0207 0.0662,-0.2191 0.13242,0.24013 0.19863,0.0207 0.0662,-0.21944 0.13243,0.2404 0.19864,0.0206 0.0662,-0.21978 0.13242,0.24068 0.19864,0.0206 0.0662,-0.22011 0.13242,0.24096 0.19863,0.0205 0.0662,-0.22046 0.13243,0.24124 0.19864,0.0204 0.0662,-0.2208 0.13242,0.24151 0.19864,0.0204 0.0662,-0.22114 0.13242,0.24179 0.19863,0.0203 0.0662,-0.22148 0.13243,0.24206 0.19864,0.0203 0.0662,-0.22182 0.13242,0.24234 0.19863,0.0202 0.0662,-0.22215 0.13243,0.24262 0.19864,0.0201 0.0662,-0.2225 0.13242,0.2429 0.19864,0.0201 0.0662,-0.22283 0.13242,0.24318 0.19863,0.02 0.0662,-0.22317 0.13243,0.24346 0.19864,0.0199 0.0662,-0.22351 0.13242,0.24374 0.19863,0.0199 0.0662,-0.22385 0.13243,0.24402 0.19864,0.0198 0.0662,-0.22419 0.13242,0.2443 0.19864,0.0198 0.0662,-0.22453 0.13242,0.24458 0.19863,0.0197 0.0662,-0.22488 0.13243,0.24485 0.19864,0.0196 0.0662,-0.22521 0.13242,0.24513 0.19863,0.0196 0.0662,-0.22555 0.13243,0.24541 0.19864,0.0195 0.0662,-0.22589 0.13243,0.2457 0.19864,0.0195 0.0662,-0.22623 0.13242,0.24597 0.19863,0.0194 0.0662,-0.22657 0.13243,0.24626 0.19864,0.0194 0.0662,-0.22691 0.13242,0.24654 0.19864,0.0193 0.0662,-0.22725 0.13242,0.24682 0.19863,0.0192 0.0662,-0.22759 0.13243,0.2471 0.19864,0.0192 0.0662,-0.22793 0.13242,0.24739 0.19863,0.0191 0.0662,-0.22827 0.13243,0.24767 0.19864,0.0191 0.0662,-0.2286 0.13242,0.24795 0.19864,0.019 0.0662,-0.22895 0.13242,0.24823 0.19863,0.0189 0.0662,-0.22929 0.13243,0.24851 0.19864,0.0189 0.0662,-0.22962 0.13242,0.2488 0.19863,0.0188 0.0662,-0.22997 0.13243,0.24908 0.19864,0.0188 0.0662,-0.2303 0.13242,0.24937 0.19864,0.0187 0.0662,-0.23065 0.13242,0.24965 0.19863,0.0187 0.0662,-0.23099 0.13243,0.24994 0.19864,0.0186 0.0662,-0.23132 0.13242,0.25023 0.19864,0.0186 0.0662,-0.23167 0.13242,0.2505 0.19863,0.0185 0.0662,-0.232 0.13243,0.2508 0.19864,0.0185 0.0662,-0.23234 0.13242,0.25108 0.19863,0.0184 0.0662,-0.23268 0.13243,0.25136 0.19864,0.0183 0.0662,-0.23302 0.13242,0.25165 0.19864,0.0183 0.0662,-0.23336 0.13242,0.25193 0.19863,0.0182 0.0662,-0.2337 0.13243,0.25222 0.19864,0.0182 0.0662,-0.23404 0.13242,0.25251 0.19863,0.0181 0.0662,-0.23438 0.13243,0.25279 0.19864,0.0181 0.0662,-0.23472 0.13242,0.25308 0.19864,0.018 0.0662,-0.23506 0.13242,0.25337 0.19863,0.018 0.0662,-0.23539 0.13243,0.25367 0.19864,0.0179 0.0662,-0.23573 0.13242,0.25395 0.19864,0.0179 0.0662,-0.23607 0.13242,0.25424 0.19863,0.0178 0.0662,-0.23642 0.13243,0.25452 0.19864,0.0178 0.0662,-0.23676 0.13242,0.25481 0.19863,0.0177 0.0662,-0.23709 0.13243,0.2551 0.19864,0.0177 0.0662,-0.23743 0.13242,0.25539 0.19864,0.0176 0.0662,-0.23777 0.13242,0.25568 0.19863,0.0176 0.0662,-0.23811 0.13243,0.25597 0.19864,0.0175 0.0662,-0.23845 0.13242,0.25626 0.19863,0.0175 0.0662,-0.23879 0.13243,0.25655 0.19864,0.0174 0.0662,-0.23913 0.13242,0.25684 0.19864,0.0174 0.0662,-0.23947 0.13242,0.25713 0.19863,0.0173 0.0662,-0.23981 0.13243,0.25742 0.19864,0.0173 0.0662,-0.24015 0.13242,0.25771 0.19863,0.0172 0.0662,-0.24048 0.13243,0.25801 0.19864,0.0172 0.0662,-0.24083 0.13243,0.25829 0.19864,0.0171 0.0662,-0.24117 0.13242,0.25858 0.19863,0.0171 0.0662,-0.2415 0.13243,0.25888 0.19864,0.017 0.0662,-0.24185 0.13242,0.25916 0.19864,0.017 0.0662,-0.24219 0.13242,0.25946 0.19863,0.0169 0.0662,-0.24252 0.13243,0.25976 0.19864,0.0169 0.0662,-0.24286 0.13242,0.26005 0.19863,0.0168 0.0662,-0.2432 0.13243,0.26034 0.19864,0.0168 0.0662,-0.24355 0.13242,0.26063 0.19864,0.0167 0.0662,-0.24388 0.13242,0.26093 0.19863,0.0167 0.0662,-0.24422 0.13243,0.26122 0.19864,0.0167 0.0662,-0.24456 0.13242,0.26151 0.19863,0.0166 0.0662,-0.24491 0.13243,0.2618 0.19864,0.0166 0.0662,-0.24524 0.13242,0.26209 0.19864,0.0165 0.0662,-0.24558 0.13242,0.26239 0.19863,0.0165 0.0662,-0.24592 0.13243,0.26269 0.19864,0.0164 0.0662,-0.24626 0.13242,0.26298 0.19864,0.0164 0.0662,-0.2466 0.13242,0.26327 0.19863,0.0163 0.0662,-0.24693 0.13243,0.26357 0.19864,0.0163 0.0662,-0.24727 0.13242,0.26387 0.19863,0.0162 0.0662,-0.24762 0.13243,0.26416 0.19864,0.0162 0.0662,-0.24796 0.13242,0.26445 0.19864,0.0162 0.0662,-0.2483 0.13242,0.26475 0.19863,0.0161 0.0662,-0.24864 0.13243,0.26504 0.19864,0.0161 0.0662,-0.24898 0.13242,0.26534 0.19863,0.016 0.0662,-0.24931 0.13243,0.26564 0.19864,0.016 0.0662,-0.24965 0.13242,0.26594 0.19864,0.0159 0.0662,-0.24999 0.13242,0.26623 0.19863,0.0159 0.0662,-0.25034 0.13243,0.26652 0.19864,0.0159 0.0662,-0.25067 0.13242,0.26682 0.19864,0.0158 0.0662,-0.25101 0.13242,0.26711 0.19863,0.0158 0.0662,-0.25135 0.13243,0.26742 0.19864,0.0157 0.0662,-0.25169 0.13242,0.26771 0.19863,0.0157 0.0662,-0.25203 0.13243,0.26801 0.19864,0.0156 0.0662,-0.25237 0.13242,0.2683 0.19864,0.0156 0.0662,-0.25271 0.13242,0.26861 0.19863,0.0156 0.0662,-0.25305 0.13243,0.2689 0.19864,0.0155 0.0662,-0.25339 0.13242,0.2692 0.19863,0.0155 0.0662,-0.25372 0.13243,0.2695 0.19864,0.0154 0.0662,-0.25406 0.13242,0.2698 0.19864,0.0154 0.0662,-0.2544 0.13242,0.2701 0.19863,0.0154 0.0662,-0.25474 0.13243,0.2704 0.19864,0.0153 0.0662,-0.25509 0.13242,0.27069 0.19863,0.0153 0.0662,-0.25543 0.13243,0.27099 0.19864,0.0152 0.0662,-0.25576 0.13243,0.27129 0.19864,0.0152 0.0662,-0.25611 0.13242,0.27159 0.19863,0.0151 0.0662,-0.25644 0.13243,0.27189 0.19864,0.0151 0.0662,-0.25678 0.13242,0.27219 0.19864,0.0151 0.0662,-0.25712 0.13242,0.27249 0.19863,0.015 0.0662,-0.25746 0.13243,0.27279 0.19864,0.015 0.0662,-0.2578 0.13242,0.27309 0.19863,0.0149 0.0662,-0.25814 0.13243,0.27339 0.19864,0.0149 0.0662,-0.25848 0.13242,0.27369 0.19864,0.0149 0.0662,-0.25882 0.13242,0.27399 0.19863,0.0148 0.0662,-0.25916 0.13243,0.27429 0.19864,0.0148 0.0662,-0.2595 0.13242,0.27459 0.19863,0.0148 0.0662,-0.25984 0.13243,0.2749 0.19864,0.0147 0.0662,-0.26018 0.13242,0.27519 0.19864,0.0147 0.0662,-0.26052 0.13242,0.2755 0.19863,0.0146 0.0662,-0.26086 0.13243,0.2758 0.19864,0.0146 0.0662,-0.2612 0.13242,0.2761 0.19864,0.0146 0.0662,-0.26154 0.13242,0.2764 0.19863,0.0145 0.0662,-0.26187 0.13243,0.2767 0.19864,0.0145 0.0662,-0.26222 0.13242,0.277 0.19863,0.0145 0.0662,-0.26256 0.13243,0.2773 0.19864,0.0144 0.0662,-0.2629 0.13242,0.27761 0.19864,0.0144 0.0662,-0.26323 0.13242,0.27791 0.19863,0.0143 0.0662,-0.26357 0.13243,0.27821 0.19864,0.0143 0.0662,-0.26391 0.13242,0.27851 0.19863,0.0143 0.0662,-0.26425 0.13243,0.27882 0.19864,0.0142 0.0662,-0.26459 0.13242,0.27912 0.19864,0.0142 0.0662,-0.26493 0.13242,0.27942 0.19863,0.0142 0.0662,-0.26527 0.13243,0.27973 0.19864,0.0141 0.0662,-0.26561 0.13242,0.28003 0.19864,0.0141 0.0662,-0.26595 0.13242,0.28034 0.19863,0.014 0.0662,-0.26629 0.13243,0.28064 0.19864,0.014 0.0662,-0.26663 0.13242,0.28094 0.19863,0.014 0.0662,-0.26697 0.13243,0.28125 0.19864,0.0139 0.0662,-0.26731 0.13242,0.28155 0.19864,0.0139 0.0662,-0.26764 0.13242,0.28186 0.19863,0.0139 0.0662,-0.26798 0.13243,0.28216 0.19864,0.0138 0.0662,-0.26833 0.13242,0.28246 0.19863,0.0138 0.0662,-0.26866 0.13243,0.28277 0.19864,0.0138 0.0662,-0.26901 0.13242,0.28307 0.19864,0.0137 0.0662,-0.26935 0.13242,0.28337 0.19863,0.0137 0.0662,-0.26968 0.13243,0.28368 0.19864,0.0137 0.0662,-0.27002 0.13242,0.28399 0.19863,0.0136 0.0662,-0.27037 0.13243,0.28429 0.19864,0.0136 0.0662,-0.27071 0.13243,0.2846 0.19864,0.0135 0.0662,-0.27104 0.13242,0.28491 0.19863,0.0135 0.0662,-0.27138 0.13243,0.28521 0.19864,0.0135 0.0662,-0.27172 0.13242,0.28551 0.19864,0.0134 0.0662,-0.27206 0.13242,0.28582 0.19863,0.0134 0.0662,-0.2724 0.13243,0.28613 0.19864,0.0134 0.0662,-0.27274 0.13242,0.28644 0.19863,0.0134 0.0662,-0.27308 0.13243,0.28674 0.19864,0.0133 0.0662,-0.27342 0.13242,0.28705 0.19864,0.0133 0.0662,-0.27376 0.13242,0.28735 0.19863,0.0133 0.0662,-0.2741 0.13243,0.28766 0.19864,0.0132 0.0662,-0.27444 0.13242,0.28797 0.19863,0.0132 0.0662,-0.27477 0.13243,0.28828 0.19864,0.0132 0.0662,-0.27512 0.13242,0.28858 0.19864,0.0131 0.0662,-0.27546 0.13242,0.28888 0.19863,0.0131 0.0662,-0.2758 0.13243,0.28919 0.19864,0.0131 0.0662,-0.27613 0.13242,0.2895 0.19864,0.013 0.0662,-0.27647 0.13242,0.28981 0.19863,0.013 0.0662,-0.27682 0.13243,0.29012 0.19864,0.013 0.0662,-0.27715 0.13242,0.29043 0.19863,0.0129 0.0662,-0.27749 0.13243,0.29073 0.19864,0.0129 0.0662,-0.27783 0.13242,0.29104 0.19864,0.0129 0.0662,-0.27817 0.13242,0.29135 0.19863,0.0128 0.0662,-0.27851 0.13243,0.29166 0.19864,0.0128 0.0662,-0.27885 0.13242,0.29196 0.19863,0.0128 0.0662,-0.27919 0.13243,0.29228 0.19864,0.0128 0.0662,-0.27953 0.13242,0.29258 0.19864,0.0127 0.0662,-0.27987 0.13242,0.29289 0.19863,0.0127 0.0662,-0.28021 0.13243,0.2932 0.19864,0.0127 0.0662,-0.28054 0.13242,0.29351 0.19864,0.0126 0.0662,-0.28089 0.13242,0.29381 0.19863,0.0126 0.0662,-0.28123 0.13243,0.29413 0.19864,0.0126 0.0662,-0.28157 0.13242,0.29444 0.19863,0.0125 0.0662,-0.2819 0.13243,0.29475 0.19864,0.0125 0.0662,-0.28224 0.13242,0.29506 0.19864,0.0125 0.0662,-0.28259 0.13242,0.29536 0.19863,0.0124 0.0662,-0.28293 0.13243,0.29567 0.19864,0.0124 0.0662,-0.28326 0.13242,0.29598 0.19863,0.0124 0.0662,-0.2836 0.13243,0.2963 0.19864,0.0123 0.0662,-0.28394 0.13242,0.29661 0.19864,0.0123 0.0662,-0.28429 0.13242,0.29691 0.19863,0.0123 0.0662,-0.28462 0.13243,0.29723 0.19864,0.0123 0.0662,-0.28496 0.13242,0.29754 0.19863,0.0122 0.0662,-0.2853 0.13243,0.29785 0.19864,0.0122 0.0662,-0.28564 0.13243,0.29815 0.19864,0.0122 0.0662,-0.28598 0.13242,0.29847 0.19863,0.0122 0.0662,-0.28632 0.13243,0.29878 0.19864,0.0121 0.0662,-0.28666 0.13242,0.29909 0.19864,0.0121 0.0662,-0.287 0.13242,0.2994 0.19863,0.0121 0.0662,-0.28733 0.13243,0.29971 0.19864,0.012 0.0662,-0.28768 0.13242,0.30002 0.19863,0.012 0.0662,-0.28801 0.13243,0.30034 0.19864,0.012 0.0662,-0.28836 0.13242,0.30064 0.19864,0.012 0.0662,-0.2887 0.13242,0.30095 0.19863,0.0119 0.0662,-0.28904 0.13243,0.30127 0.19864,0.0119 0.0662,-0.28937 0.13242,0.30158 0.19863,0.0119 0.0662,-0.28972 0.13243,0.30189 0.19864,0.0118 0.0662,-0.29005 0.13242,0.30221 0.19864,0.0118 0.0662,-0.29039 0.13242,0.30252 0.19863,0.0118 0.0662,-0.29074 0.13243,0.30282 0.19864,0.0117 0.0662,-0.29107 0.13242,0.30314 0.19864,0.0117 0.0662,-0.29141 0.13242,0.30345 0.19863,0.0117 0.0662,-0.29175 0.13243,0.30376 0.19864,0.0117 0.0662,-0.29209 0.13242,0.30408 0.19863,0.0117 0.0662,-0.29243 0.13243,0.30438 0.19864,0.0116 0.0662,-0.29276 0.13242,0.3047 0.19864,0.0116 0.0662,-0.29311 0.13242,0.30501 0.19863,0.0116 0.0662,-0.29345 0.13243,0.30533 0.19864,0.0115 0.0662,-0.29379 0.13242,0.30564 0.19863,0.0115 0.0662,-0.29413 0.13243,0.30595 0.19864,0.0115 0.0662,-0.29447 0.13242,0.30626 0.19864,0.0114 0.0662,-0.2948 0.13242,0.30658 0.19863,0.0114 0.0662,-0.29515 0.13243,0.30689 0.19864,0.0114 0.0662,-0.29548 0.13242,0.30721 0.19864,0.0114 0.0662,-0.29582 0.13242,0.30752 0.19863,0.0113 0.0662,-0.29616 0.13243,0.30784 0.19864,0.0113 0.0662,-0.2965 0.13242,0.30815 0.19863,0.0113 0.0662,-0.29684 0.13243,0.30846 0.19864,0.0113 0.0662,-0.29718 0.13242,0.30877 0.19864,0.0112 0.0662,-0.29752 0.13242,0.30909 0.19863,0.0112 0.0662,-0.29786 0.13243,0.3094 0.19864,0.0112 0.0662,-0.2982 0.13242,0.30972 0.19863,0.0112 0.0662,-0.29854 0.13243,0.31002 0.19864,0.0111 0.0662,-0.29888 0.13242,0.31035 0.19864,0.0111 0.0662,-0.29922 0.13242,0.31065 0.19863,0.0111 0.0662,-0.29955 0.13243,0.31097 0.19864,0.0111 0.0662,-0.2999 0.13242,0.31128 0.19863,0.011 0.0662,-0.30023 0.13243,0.3116 0.19864,0.011 0.0662,-0.30058 0.13243,0.31191 0.19864,0.011 0.0662,-0.30091 0.13242,0.31223 0.19863,0.011 0.0662,-0.30126 0.13243,0.31254 0.19864,0.0109 0.0662,-0.30159 0.13242,0.31286 0.19864,0.0109 0.0662,-0.30194 0.13242,0.31317 0.19863,0.0109 0.0662,-0.30228 0.13243,0.31349 0.19864,0.0109 0.0662,-0.30261 0.13242,0.31381 0.19863,0.0109 0.0662,-0.30295 0.13243,0.31412 0.19864,0.0108 0.0662,-0.3033 0.13242,0.31443 0.19864,0.0108 0.0662,-0.30363 0.13242,0.31475 0.19863,0.0108 0.0662,-0.30398 0.13243,0.31506 0.19864,0.0108 0.0662,-0.30431 0.13242,0.31538 0.19863,0.0107 0.0662,-0.30465 0.13243,0.31569 0.19864,0.0107 0.0662,-0.30499 0.13242,0.31602 0.19864,0.0107 0.0662,-0.30533 0.13242,0.31632 0.19863,0.0107 0.0662,-0.30567 0.13243,0.31665 0.19864,0.0106 0.0662,-0.30601 0.13242,0.31696 0.19864,0.0106 0.0662,-0.30635 0.13242,0.31727 0.19863,0.0106 0.0662,-0.30669 0.13243,0.31759 0.19864,0.0106 0.0662,-0.30703 0.13242,0.31791 0.19863,0.0105 0.0662,-0.30737 0.13243,0.31822 0.19864,0.0105 0.0662,-0.30771 0.13242,0.31854 0.19864,0.0105 0.0662,-0.30804 0.13242,0.31886 0.19863,0.0105 0.0662,-0.30838 0.13243,0.31918 0.19864,0.0104 0.0662,-0.30872 0.13242,0.31949 0.19863,0.0104 0.0662,-0.30907 0.13243,0.3198 0.19864,0.0104 0.0662,-0.30941 0.13242,0.32012 0.19864,0.0104 0.0662,-0.30975 0.13242,0.32044 0.19863,0.0104 0.0662,-0.31008 0.13243,0.32076 0.19864,0.0103 0.0662,-0.31042 0.13242,0.32107 0.19864,0.0103 0.0662,-0.31076 0.13242,0.32139 0.19863,0.0103 0.0662,-0.3111 0.13243,0.32171 0.19864,0.0103 0.0662,-0.31145 0.13242,0.32202 0.19863,0.0102 0.0662,-0.31178 0.13243,0.32234 0.19864,0.0102 0.0662,-0.31212 0.13242,0.32266 0.19864,0.0102 0.0662,-0.31246 0.13242,0.32298 0.19863,0.0102 0.0662,-0.3128 0.13243,0.32329 0.19864,0.0101 0.0662,-0.31313 0.13242,0.32361 0.19863,0.0101 0.0662,-0.31348 0.13243,0.32393 0.19864,0.0101 0.0662,-0.31382 0.13242,0.32424 0.19864,0.0101 0.0662,-0.31416 0.13242,0.32456 0.19863,0.0101 0.0662,-0.3145 0.13243,0.32488 0.19864,0.01 0.0662,-0.31483 0.13242,0.3252 0.19863,0.01 0.0662,-0.31518 0.13243,0.32551 0.19864,0.01 0.0662,-0.31552 0.13243,0.32583 0.19864,0.01 0.0662,-0.31585 0.13242,0.32615 0.19863,0.01 0.0662,-0.31619 0.13243,0.32647 0.19864,0.01 0.0662,-0.31653 0.13242,0.32679 0.19864,0.01 0.0662,-0.31688 0.13242,0.3271 0.19863,0.01 0.0662,-0.31721 0.13243,0.32743 0.19864,0.01 0.0662,-0.31755 0.13242,0.32774 0.19863,0.01 0.0662,-0.31789 0.13243,0.32806 0.19864,0.01 0.0662,-0.31823 0.13242,0.32839 0.19864,0.01 0.0662,-0.31857 0.13242,0.3287 0.19863,0.01 0.0662,-0.31891 0.13243,0.32902 0.19864,0.01 0.0662,-0.31925 0.13242,0.32933 0.19863,0.01 0.0662,-0.31959 0.13243,0.32965 0.19864,0.01 0.0662,-0.31992 0.13242,0.32998 0.19864,0.01 0.0662,-0.32026 0.13242,0.3303 0.19863,0.01 0.0662,-0.32061 0.13243,0.33061 0.19864,0.01 0.0662,-0.32095 0.13242,0.33093 0.19864,0.01 0.0662,-0.32128 0.13242,0.33126 0.19863,0.01 0.0662,-0.32163 0.13243,0.33157 0.19864,0.01 0.0662,-0.32197 0.13242,0.33189 0.19863,0.01 0.0662,-0.3223 0.13243,0.33221 0.19864,0.01 0.0662,-0.32265 0.13242,0.33253 0.19864,0.01 0.0662,-0.32298 0.13242,0.33285 0.19863,0.01 0.0662,-0.32332 0.13243,0.33317 0.19864,0.01 0.0662,-0.32366 0.13242,0.33349 0.19863,0.009 0.0662,-0.324 0.13243,0.33381 0.19864,0.009 0.0662,-0.32434 0.13242,0.33413 0.19864,0.009 0.0662,-0.32468 0.13242,0.33445 0.19863,0.009 0.0662,-0.32502 0.13243,0.33476 0.19864,0.009 0.0662,-0.32536 0.13242,0.33509 0.19864,0.009 0.0662,-0.3257 0.13242,0.33541 0.19863,0.009 0.0662,-0.32604 0.13243,0.33572 0.19864,0.009 0.0662,-0.32637 0.13242,0.33605 0.19863,0.009 0.0662,-0.32672 0.13243,0.33637 0.19864,0.009 0.0662,-0.32706 0.13242,0.33669 0.19864,0.009 0.0662,-0.3274 0.13242,0.33701 0.19863,0.009 0.0662,-0.32773 0.13243,0.33733 0.19864,0.009 0.0662,-0.32807 0.13242,0.33765 0.19863,0.009 0.0662,-0.32841 0.13243,0.33797 0.19864,0.009 0.0662,-0.32876 0.13242,0.33829 0.19864,0.009 0.0662,-0.32909 0.13242,0.33861 0.19863,0.009 0.0662,-0.32944 0.13243,0.33893 0.19864,0.009 0.0662,-0.32977 0.13242,0.33925 0.19863,0.009 0.0662,-0.33011 0.13243,0.33957 0.19864,0.009 0.0662,-0.33045 0.13243,0.33989 0.19864,0.009 0.0662,-0.33079 0.13242,0.34021 0.19863,0.009 0.0662,-0.33113 0.13243,0.34053 0.19864,0.009 0.0662,-0.33147 0.13242,0.34086 0.19864,0.009 0.0662,-0.33181 0.13242,0.34117 0.19863,0.009 0.0662,-0.33215 0.13243,0.3415 0.19864,0.009 0.0662,-0.33249 0.13242,0.34182 0.19863,0.009 0.0662,-0.33283 0.13243,0.34214 0.19864,0.009 0.0662,-0.33317 0.13242,0.34246 0.19864,0.009 0.0662,-0.33351 0.13242,0.34278 0.19863,0.009 0.0662,-0.33384 0.13243,0.34311 0.19864,0.009 0.0662,-0.33419 0.13242,0.34342 0.19863,0.009 0.0662,-0.33453 0.13243,0.34374 0.19864,0.009 0.0662,-0.33487 0.13242,0.34406 0.19864,0.009 0.0662,-0.33521 0.13242,0.34439 0.19863,0.009 0.0662,-0.33554 0.13243,0.34471 0.19864,0.009 0.0662,-0.33588 0.13242,0.34503 0.19864,0.009 0.0662,-0.33623 0.13242,0.34535 0.19863,0.009 0.0662,-0.33657 0.13243,0.34567 0.19864,0.009 0.0662,-0.3369 0.13242,0.346 0.19863,0.009 0.0662,-0.33724 0.13243,0.34632 0.19864,0.009 0.0662,-0.33758 0.13242,0.34664 0.19864,0.009 0.0662,-0.33792 0.13242,0.34696 0.19863,0.009 0.0662,-0.33826 0.13243,0.34729 0.19864,0.009 0.0662,-0.3386 0.13242,0.34761 0.19863,0.009 0.0662,-0.33894 0.13243,0.34793 0.19864,0.009 0.0662,-0.33928 0.13242,0.34825 0.19864,0.009 0.0662,-0.33962 0.13242,0.34857 0.19863,0.009 0.0662,-0.33995 0.13243,0.3489 0.19864,0.009 0.0662,-0.34029 0.13242,0.34922 0.19864,0.009 0.0662,-0.34063 0.13242,0.34954 0.19863,0.009 0.0662,-0.34098 0.13243,0.34986 0.19864,0.009 0.0662,-0.34132 0.13242,0.35018 0.19863,0.009 0.0662,-0.34166 0.13243,0.3505 0.19864,0.009 0.0662,-0.342 0.13242,0.35083 0.19864,0.008 0.0662,-0.34233 0.13242,0.35116 0.19863,0.008 0.0662,-0.34267 0.13243,0.35148 0.19864,0.008 0.0662,-0.34302 0.13242,0.3518 0.19863,0.008 0.0662,-0.34335 0.13243,0.35212 0.19864,0.008 0.0662,-0.34369 0.13242,0.35245 0.19864,0.008 0.0662,-0.34403 0.13242,0.35277 0.19863,0.008 0.0662,-0.34437 0.13243,0.35309 0.19864,0.008 0.0662,-0.34471 0.13242,0.35341 0.19863,0.008 0.0662,-0.34505 0.13243,0.35374 0.19864,0.008 0.0662,-0.34539 0.13243,0.35406 0.19864,0.008 0.0662,-0.34573 0.13242,0.35438 0.19863,0.008"
       style="opacity:1;fill:none;fill-opacity:0.82211537;fill-rule:evenodd;stroke:#000000;stroke-width:0.8;stroke-linecap:butt;stroke-linejoin:bevel;stroke-miterlimit:4;stroke-dasharray:none;stroke-dashoffset:0;stroke-opacity:1;paint-order:normal"
       inkscape:connector-curvature="0" />
    <rect
       style="opacity:1;fill:none;fill-opacity:0.82211537;fill-rule:evenodd;stroke:#000000;stroke-width:0.2;stroke-linecap:butt;stroke-linejoin:bevel;stroke-miterlimit:4;stroke-dasharray:none;stroke-dashoffset:0;stroke-opacity:1;paint-order:normal"
       id="rect2011"
       width="21.166666"
       height="55.562504"
       x="44.979168"
       y="140.89583" />
    <rect
       style="opacity:1;fill:none;fill-opacity:0.82211537;fill-rule:evenodd;stroke:#000000;stroke-width:0.2;stroke-linecap:butt;stroke-linejoin:bevel;stroke-miterlimit:4;stroke-dasharray:none;stroke-dashoffset:0;stroke-opacity:1;paint-order:normal"
       id="rect2011-2"
       width="21.166666"
       height="29.104174"
       x="66.145836"
       y="167.35416" />
    <rect
       style="opacity:1;fill:none;fill-opacity:0.82211537;fill-rule:evenodd;stroke:#000000;stroke-width:0.2;stroke-linecap:butt;stroke-linejoin:bevel;stroke-miterlimit:4;stroke-dasharray:none;stroke-dashoffset:0;stroke-opacity:1;paint-order:normal"
       id="rect2011-7"
       width="21.166666"
       height="18.52084"
       x="87.3125"
       y="177.93748" />
    <rect
       style="opacity:1;fill:none;fill-opacity:0.82211537;fill-rule:evenodd;stroke:#000000;stroke-width:0.2;stroke-linecap:butt;stroke-linejoin:bevel;stroke-miterlimit:4;stroke-dasharray:none;stroke-dashoffset:0;stroke-opacity:1;paint-order:normal"
       id="rect2011-5"
       width="21.166666"
       height="13.229174"
       x="108.47916"
       y="183.22916" />
    <rect
       style="opacity:1;fill:none;fill-opacity:0.82211537;fill-rule:evenodd;stroke:#000000;stroke-width:0.2;stroke-linecap:butt;stroke-linejoin:bevel;stroke-miterlimit:4;stroke-dasharray:none;stroke-dashoffset:0;stroke-opacity:1;paint-order:normal"
       id="rect2011-4"
       width="21.166666"
       height="9.2604237"
       x="129.64583"
       y="187.19791" />
    <rect
       style="opacity:1;fill:none;fill-opacity:0.82211537;fill-rule:evenodd;stroke:#000000;stroke-width:0.2;stroke-linecap:butt;stroke-linejoin:bevel;stroke-miterlimit:4;stroke-dasharray:none;stroke-dashoffset:0;stroke-opacity:1;paint-order:normal"
       id="rect2011-6"
       width="21.166666"
       height="6.6145887"
       x="150.8125"
       y="189.84373" />
    <rect
       style="opacity:1;fill:none;fill-opacity:0.82211537;fill-rule:evenodd;stroke:#000000;stroke-width:0.2;stroke-linecap:butt;stroke-linejoin:bevel;stroke-miterlimit:4;stroke-dasharray:none;stroke-dashoffset:0;stroke-opacity:1;paint-order:normal"
       id="rect2011-28"
       width="21.166666"
       height="5.2916737"
       x="171.97917"
       y="191.16666" />
    <g
       title="\large$x$"
       style="fill:#000000"
       id="equation_00"
       transform="translate(116.42041,144.36657)">
      <defs
         id="defs2078">
        <path
           d="m 5.66675,-4.877709 c -0.382566,0.071731 -0.526028,0.358655 -0.526028,0.585804 0,0.286924 0.227148,0.382565 0.394521,0.382565 0.358655,0 0.609713,-0.310834 0.609713,-0.633624 0,-0.502117 -0.573848,-0.729265 -1.075965,-0.729265 -0.729265,0 -1.135741,0.71731 -1.243337,0.944458 -0.274969,-0.896637 -1.016189,-0.944458 -1.231383,-0.944458 -1.219427,0 -1.865006,1.566127 -1.865006,1.829141 0,0.04782 0.047821,0.107596 0.131507,0.107596 0.095641,0 0.119552,-0.071731 0.143462,-0.119552 0.406476,-1.327023 1.207472,-1.578082 1.554172,-1.578082 0.537983,0 0.645579,0.502117 0.645579,0.789041 0,0.263014 -0.071731,0.537983 -0.215193,1.111831 l -0.406476,1.637858 c -0.179327,0.71731 -0.526027,1.374844 -1.159651,1.374844 -0.059776,0 -0.358655,0 -0.609714,-0.155417 0.430386,-0.083686 0.526028,-0.442341 0.526028,-0.585803 0,-0.239103 -0.179328,-0.382565 -0.406476,-0.382565 -0.286924,0 -0.597758,0.251058 -0.597758,0.633623 0,0.502117 0.561893,0.729266 1.075965,0.729266 0.573848,0 0.980324,-0.454297 1.231382,-0.944459 0.191283,0.705355 0.789041,0.944459 1.231382,0.944459 1.219428,0 1.865007,-1.566127 1.865007,-1.829141 0,-0.059776 -0.047821,-0.107597 -0.119552,-0.107597 -0.107596,0 -0.119552,0.059776 -0.155417,0.155418 -0.32279,1.052054 -1.016189,1.542216 -1.554172,1.542216 -0.418431,0 -0.645579,-0.310834 -0.645579,-0.800996 0,-0.263014 0.047821,-0.454296 0.239103,-1.243337 l 0.418431,-1.625903 c 0.179328,-0.71731 0.585803,-1.243338 1.135741,-1.243338 0.02391,0 0.358655,0 0.609714,0.155417 z"
           id="equation_00_00"
           inkscape:connector-curvature="0" />
      </defs>
      <g
         id="equation_00_g">
        <use
           id="use2080"
           xlink:href="#equation_00_00"
           y="62.764633"
           x="76.712326"
           width="100%"
           height="100%" />
      </g>
    </g>
    <g
       title="\large$y$"
       style="fill:#000000"
       id="equation_01"
       transform="translate(-67.351921,-51.04848)">
      <defs
         id="defs2117">
        <path
           d="M 3.144209,1.338979 C 2.82142,1.793275 2.355168,2.199751 1.769365,2.199751 c -0.143462,0 -0.71731,-0.02391 -0.896638,-0.573848 0.035866,0.011955 0.095642,0.011955 0.119552,0.011955 0.358655,0 0.597758,-0.310834 0.597758,-0.585803 0,-0.274969 -0.227148,-0.37061 -0.406475,-0.37061 -0.191283,0 -0.609714,0.143462 -0.609714,0.729265 0,0.609713 0.514072,1.028144 1.195517,1.028144 1.195517,0 2.402989,-1.099875 2.737733,-2.426899 L 5.678705,-4.65056 C 5.69066,-4.710336 5.71457,-4.782067 5.71457,-4.853798 c 0,-0.179328 -0.143462,-0.298879 -0.322789,-0.298879 -0.107597,0 -0.358655,0.04782 -0.454297,0.406475 l -0.884682,3.51482 c -0.059776,0.215193 -0.059776,0.239103 -0.155417,0.37061 -0.239104,0.334745 -0.633624,0.74122 -1.207472,0.74122 -0.66949,0 -0.729265,-0.657534 -0.729265,-0.980323 0,-0.681445 0.322789,-1.601993 0.645579,-2.462765 0.131506,-0.3467 0.203238,-0.514072 0.203238,-0.753176 0,-0.502117 -0.358656,-0.956413 -0.944459,-0.956413 -1.099875,0 -1.542216,1.733499 -1.542216,1.829141 0,0.04782 0.04782,0.107596 0.131506,0.107596 0.107597,0 0.119552,-0.047821 0.167373,-0.215193 0.286924,-1.004234 0.74122,-1.482441 1.207472,-1.482441 0.107596,0 0.310834,0 0.310834,0.394521 0,0.310834 -0.131507,0.657534 -0.310834,1.11183 -0.585804,1.566127 -0.585804,1.960648 -0.585804,2.247572 0,1.135741 0.812952,1.398755 1.41071,1.398755 0.3467,0 0.777086,-0.107597 1.195517,-0.549938 l 0.011955,0.011955 C 3.682192,0.286924 3.56264,0.753176 3.144209,1.338979 Z"
           id="equation_01_00"
           inkscape:connector-curvature="0" />
      </defs>
      <g
         id="equation_01_g">
        <use
           id="use2119"
           xlink:href="#equation_01_00"
           y="62.764633"
           x="76.712326"
           width="100%"
           height="100%" />
      </g>
    </g>
    <g
       title="\large$O$"
       style="fill:#000000"
       id="equation_02"
       transform="translate(-67.122416,144.62389)">
      <defs
         id="defs2161">
        <path
           d="m 8.679452,-5.236364 c 0,-1.972602 -1.291158,-3.180074 -2.964882,-3.180074 -2.558406,0 -5.140722,2.749688 -5.140722,5.511332 0,1.876962 1.243338,3.156165 2.976837,3.156165 2.510585,0 5.128767,-2.618182 5.128767,-5.487423 z M 3.622416,-0.02391 c -0.980324,0 -2.020423,-0.71731 -2.020423,-2.582317 0,-1.08792 0.39452,-2.86924 1.374844,-4.064757 0.872727,-1.052055 1.876961,-1.482441 2.677958,-1.482441 1.052054,0 2.068244,0.765131 2.068244,2.486675 0,1.06401 -0.454297,2.725779 -1.255293,3.86152 -0.872727,1.219427 -1.960648,1.78132 -2.84533,1.78132 z"
           id="equation_02_00"
           inkscape:connector-curvature="0" />
      </defs>
      <g
         id="equation_02_g">
        <use
           id="use2163"
           xlink:href="#equation_02_00"
           y="62.764633"
           x="76.712326"
           width="100%"
           height="100%" />
      </g>
    </g>
    <g
       title="\large$\displaystyle y=\frac{1}{x}$"
       style="fill:#000000"
       id="equation_03"
       transform="translate(88.063365,-36.073657)">
      <defs
         id="defs2213">
        <path
           d="m 5.66675,-4.877709 c -0.382566,0.071731 -0.526028,0.358655 -0.526028,0.585804 0,0.286924 0.227148,0.382565 0.394521,0.382565 0.358655,0 0.609713,-0.310834 0.609713,-0.633624 0,-0.502117 -0.573848,-0.729265 -1.075965,-0.729265 -0.729265,0 -1.135741,0.71731 -1.243337,0.944458 -0.274969,-0.896637 -1.016189,-0.944458 -1.231383,-0.944458 -1.219427,0 -1.865006,1.566127 -1.865006,1.829141 0,0.04782 0.047821,0.107596 0.131507,0.107596 0.095641,0 0.119552,-0.071731 0.143462,-0.119552 0.406476,-1.327023 1.207472,-1.578082 1.554172,-1.578082 0.537983,0 0.645579,0.502117 0.645579,0.789041 0,0.263014 -0.071731,0.537983 -0.215193,1.111831 l -0.406476,1.637858 c -0.179327,0.71731 -0.526027,1.374844 -1.159651,1.374844 -0.059776,0 -0.358655,0 -0.609714,-0.155417 0.430386,-0.083686 0.526028,-0.442341 0.526028,-0.585803 0,-0.239103 -0.179328,-0.382565 -0.406476,-0.382565 -0.286924,0 -0.597758,0.251058 -0.597758,0.633623 0,0.502117 0.561893,0.729266 1.075965,0.729266 0.573848,0 0.980324,-0.454297 1.231382,-0.944459 0.191283,0.705355 0.789041,0.944459 1.231382,0.944459 1.219428,0 1.865007,-1.566127 1.865007,-1.829141 0,-0.059776 -0.047821,-0.107597 -0.119552,-0.107597 -0.107596,0 -0.119552,0.059776 -0.155417,0.155418 -0.32279,1.052054 -1.016189,1.542216 -1.554172,1.542216 -0.418431,0 -0.645579,-0.310834 -0.645579,-0.800996 0,-0.263014 0.047821,-0.454296 0.239103,-1.243337 l 0.418431,-1.625903 c 0.179328,-0.71731 0.585803,-1.243338 1.135741,-1.243338 0.02391,0 0.358655,0 0.609714,0.155417 z"
           id="equation_03_00"
           inkscape:connector-curvature="0" />
        <path
           d="M 3.144209,1.338979 C 2.82142,1.793275 2.355168,2.199751 1.769365,2.199751 c -0.143462,0 -0.71731,-0.02391 -0.896638,-0.573848 0.035866,0.011955 0.095642,0.011955 0.119552,0.011955 0.358655,0 0.597758,-0.310834 0.597758,-0.585803 0,-0.274969 -0.227148,-0.37061 -0.406475,-0.37061 -0.191283,0 -0.609714,0.143462 -0.609714,0.729265 0,0.609713 0.514072,1.028144 1.195517,1.028144 1.195517,0 2.402989,-1.099875 2.737733,-2.426899 L 5.678705,-4.65056 C 5.69066,-4.710336 5.71457,-4.782067 5.71457,-4.853798 c 0,-0.179328 -0.143462,-0.298879 -0.322789,-0.298879 -0.107597,0 -0.358655,0.04782 -0.454297,0.406475 l -0.884682,3.51482 c -0.059776,0.215193 -0.059776,0.239103 -0.155417,0.37061 -0.239104,0.334745 -0.633624,0.74122 -1.207472,0.74122 -0.66949,0 -0.729265,-0.657534 -0.729265,-0.980323 0,-0.681445 0.322789,-1.601993 0.645579,-2.462765 0.131506,-0.3467 0.203238,-0.514072 0.203238,-0.753176 0,-0.502117 -0.358656,-0.956413 -0.944459,-0.956413 -1.099875,0 -1.542216,1.733499 -1.542216,1.829141 0,0.04782 0.04782,0.107596 0.131506,0.107596 0.107597,0 0.119552,-0.047821 0.167373,-0.215193 0.286924,-1.004234 0.74122,-1.482441 1.207472,-1.482441 0.107596,0 0.310834,0 0.310834,0.394521 0,0.310834 -0.131507,0.657534 -0.310834,1.11183 -0.585804,1.566127 -0.585804,1.960648 -0.585804,2.247572 0,1.135741 0.812952,1.398755 1.41071,1.398755 0.3467,0 0.777086,-0.107597 1.195517,-0.549938 l 0.011955,0.011955 C 3.682192,0.286924 3.56264,0.753176 3.144209,1.338979 Z"
           id="equation_03_01"
           inkscape:connector-curvature="0" />
        <path
           d="m 3.443088,-7.663263 c 0,-0.274969 0,-0.286924 -0.239103,-0.286924 -0.286924,0.32279 -0.884682,0.765131 -2.116065,0.765131 v 0.3467 c 0.274969,0 0.872728,0 1.530262,-0.310835 v 6.228643 c 0,0.430386 -0.035866,0.573848 -1.08792,0.573848 H 1.159651 V 0 c 0.32279,-0.02391 1.482441,-0.02391 1.876962,-0.02391 0.394521,0 1.542216,0 1.865006,0.02391 v -0.3467 h -0.37061 c -1.052055,0 -1.087921,-0.143462 -1.087921,-0.573848 z"
           id="equation_03_02"
           inkscape:connector-curvature="0" />
        <path
           d="m 8.069738,-3.873474 c 0.167373,0 0.382566,0 0.382566,-0.215193 0,-0.227149 -0.203238,-0.227149 -0.382566,-0.227149 H 1.028144 c -0.167372,0 -0.382565,0 -0.382565,0.215193 0,0.227149 0.203238,0.227149 0.382565,0.227149 z m 0,2.223661 c 0.167373,0 0.382566,0 0.382566,-0.215193 0,-0.227148 -0.203238,-0.227148 -0.382566,-0.227148 H 1.028144 c -0.167372,0 -0.382565,0 -0.382565,0.215193 0,0.227148 0.203238,0.227148 0.382565,0.227148 z"
           id="equation_03_03"
           inkscape:connector-curvature="0" />
      </defs>
      <g
         id="equation_03_g">
        <use
           id="use2215"
           xlink:href="#equation_03_01"
           y="68.594185"
           x="76.712326"
           width="100%"
           height="100%" />
        <use
           id="use2217"
           xlink:href="#equation_03_03"
           y="68.594185"
           x="86.169807"
           width="100%"
           height="100%" />
        <use
           id="use2219"
           xlink:href="#equation_03_02"
           y="60.506424"
           x="100.19035"
           width="100%"
           height="100%" />
        <rect
           id="rect2221"
           width="6.6520872"
           height="0.47818699"
           y="65.366295"
           x="99.790802" />
        <use
           id="use2223"
           xlink:href="#equation_03_00"
           y="76.794846"
           x="99.790802"
           width="100%"
           height="100%" />
      </g>
    </g>
    <g
       title="\large$1$"
       style="fill:#000000"
       id="equation_04"
       transform="translate(-32.83792,144.55918)">
      <defs
         id="defs2289">
        <path
           d="m 3.443088,-7.663263 c 0,-0.274969 0,-0.286924 -0.239103,-0.286924 -0.286924,0.32279 -0.884682,0.765131 -2.116065,0.765131 v 0.3467 c 0.274969,0 0.872728,0 1.530262,-0.310835 v 6.228643 c 0,0.430386 -0.035866,0.573848 -1.08792,0.573848 H 1.159651 V 0 c 0.32279,-0.02391 1.482441,-0.02391 1.876962,-0.02391 0.394521,0 1.542216,0 1.865006,0.02391 v -0.3467 h -0.37061 c -1.052055,0 -1.087921,-0.143462 -1.087921,-0.573848 z"
           id="equation_04_00"
           inkscape:connector-curvature="0" />
      </defs>
      <g
         id="equation_04_g">
        <use
           id="use2291"
           xlink:href="#equation_04_00"
           y="62.764633"
           x="76.712326"
           width="100%"
           height="100%" />
      </g>
    </g>
    <g
       title="\large$2$"
       style="fill:#000000"
       id="equation_05"
       transform="translate(-11.096203,144.49807)">
      <defs
         id="defs2355">
        <path
           d="M 5.260274,-2.008468 H 4.99726 C 4.961395,-1.80523 4.865753,-1.147696 4.746202,-0.956413 4.662516,-0.848817 3.981071,-0.848817 3.622416,-0.848817 H 1.41071 c 0.322789,-0.274969 1.052055,-1.0401 1.362889,-1.327024 1.817186,-1.673723 2.486675,-2.295392 2.486675,-3.478954 0,-1.374844 -1.08792,-2.295392 -2.47472,-2.295392 -1.3868,0 -2.199751,1.183562 -2.199751,2.211706 0,0.609714 0.526028,0.609714 0.561893,0.609714 0.251059,0 0.561893,-0.179328 0.561893,-0.561893 0,-0.334745 -0.227148,-0.561893 -0.561893,-0.561893 -0.107596,0 -0.131507,0 -0.167372,0.011955 0.227148,-0.812951 0.872727,-1.362889 1.649813,-1.362889 1.016189,0 1.637858,0.848817 1.637858,1.948692 0,1.01619 -0.585803,1.900872 -1.267248,2.666003 L 0.585803,-0.286924 V 0 H 4.94944 Z"
           id="equation_05_00"
           inkscape:connector-curvature="0" />
      </defs>
      <g
         id="equation_05_g">
        <use
           id="use2357"
           xlink:href="#equation_05_00"
           y="62.764633"
           x="76.712326"
           width="100%"
           height="100%" />
      </g>
    </g>
    <g
       title="\large$3$"
       style="fill:#000000"
       id="equation_06"
       transform="translate(10.434796,144.57487)">
      <defs
         id="defs2426">
        <path
           d="m 2.199751,-4.291905 c -0.203238,0.011955 -0.251059,0.02391 -0.251059,0.131506 0,0.119552 0.059776,0.119552 0.274969,0.119552 h 0.549938 c 1.016189,0 1.470486,0.836862 1.470486,1.984558 0,1.566127 -0.812952,1.984558 -1.398755,1.984558 -0.573848,0 -1.554172,-0.274969 -1.900872,-1.06401 0.382566,0.059776 0.729266,-0.155417 0.729266,-0.585803 0,-0.3467 -0.251059,-0.585803 -0.585804,-0.585803 -0.286924,0 -0.597758,0.167372 -0.597758,0.621668 0,1.06401 1.06401,1.936738 2.391034,1.936738 1.422665,0 2.474719,-1.087921 2.474719,-2.295393 0,-1.099875 -0.884682,-1.960647 -2.032378,-2.163885 1.040099,-0.298879 1.709589,-1.171607 1.709589,-2.10411 0,-0.944458 -0.980324,-1.637858 -2.139975,-1.637858 -1.195517,0 -2.0802,0.729265 -2.0802,1.601993 0,0.478206 0.370611,0.573848 0.549938,0.573848 0.251059,0 0.537983,-0.179328 0.537983,-0.537983 0,-0.382565 -0.286924,-0.549938 -0.549938,-0.549938 -0.071731,0 -0.095641,0 -0.131507,0.011956 0.454297,-0.812952 1.578082,-0.812952 1.637858,-0.812952 0.394521,0 1.171607,0.179328 1.171607,1.350934 0,0.227148 -0.035866,0.896638 -0.382566,1.41071 -0.358655,0.526027 -0.76513,0.561893 -1.08792,0.573848 z"
           id="equation_06_00"
           inkscape:connector-curvature="0" />
      </defs>
      <g
         id="equation_06_g">
        <use
           id="use2428"
           xlink:href="#equation_06_00"
           y="62.764633"
           x="76.712326"
           width="100%"
           height="100%" />
      </g>
    </g>
    <g
       title="\large$4$"
       style="fill:#000000"
       id="equation_07"
       transform="translate(31.556174,144.66882)">
      <defs
         id="defs2502">
        <path
           d="m 4.315816,-7.782814 c 0,-0.227149 0,-0.286924 -0.167373,-0.286924 -0.095641,0 -0.131507,0 -0.227148,0.143462 L 0.32279,-2.343213 v 0.3467 h 3.144209 v 1.08792 c 0,0.442341 -0.023911,0.561893 -0.896638,0.561893 H 2.331258 V 0 c 0.274969,-0.02391 1.219427,-0.02391 1.554172,-0.02391 0.334745,0 1.291158,0 1.566127,0.02391 V -0.3467 H 5.212453 c -0.860772,0 -0.896637,-0.119552 -0.896637,-0.561893 v -1.08792 h 1.207472 v -0.3467 H 4.315816 Z m -0.789041,0.932503 v 4.507098 H 0.621669 Z"
           id="equation_07_00"
           inkscape:connector-curvature="0" />
      </defs>
      <g
         id="equation_07_g">
        <use
           id="use2504"
           xlink:href="#equation_07_00"
           y="62.764633"
           x="76.712326"
           width="100%"
           height="100%" />
      </g>
    </g>
    <g
       title="\large$\frac12$"
       style="fill:#000000"
       id="equation_08"
       transform="translate(-63.621192,103.63503)">
      <defs
         id="defs2584">
        <path
           d="m 2.502615,-5.076961 c 0,-0.215193 -0.01594,-0.223164 -0.231133,-0.223164 -0.326775,0.318805 -0.749191,0.510088 -1.506351,0.510088 v 0.263013 c 0.215193,0 0.645579,0 1.107845,-0.215193 v 4.088668 c 0,0.294894 -0.02391,0.390535 -0.781071,0.390535 H 0.812951 V 0 c 0.326775,-0.02391 1.012205,-0.02391 1.37086,-0.02391 0.358655,0 1.052055,0 1.378829,0.02391 V -0.263014 H 3.283686 c -0.75716,0 -0.781071,-0.095641 -0.781071,-0.390535 z"
           id="equation_08_00"
           inkscape:connector-curvature="0" />
        <path
           d="m 2.247572,-1.625903 c 0.127521,-0.119552 0.462266,-0.382565 0.589788,-0.494147 0.494147,-0.454296 0.964383,-0.892652 0.964383,-1.617933 0,-0.948443 -0.797011,-1.562142 -1.793275,-1.562142 -0.956413,0 -1.586052,0.725281 -1.586052,1.434621 0,0.390535 0.310834,0.446326 0.422416,0.446326 0.167372,0 0.414446,-0.119552 0.414446,-0.422416 0,-0.414446 -0.398506,-0.414446 -0.494147,-0.414446 0.231133,-0.581818 0.765131,-0.781071 1.155666,-0.781071 0.74122,0 1.123786,0.629639 1.123786,1.299128 0,0.828892 -0.581818,1.434621 -1.522292,2.399004 L 0.518057,-0.302864 C 0.422416,-0.215193 0.422416,-0.199253 0.422416,0 H 3.57061 L 3.801743,-1.42665 H 3.55467 c -0.02391,0.159402 -0.087671,0.557908 -0.183313,0.70934 -0.04782,0.063761 -0.653549,0.063761 -0.781071,0.063761 h -1.41868 z"
           id="equation_08_01"
           inkscape:connector-curvature="0" />
      </defs>
      <g
         id="equation_08_g">
        <use
           id="use2586"
           xlink:href="#equation_08_00"
           y="58.057507"
           x="77.907845"
           width="100%"
           height="100%" />
        <rect
           id="rect2588"
           width="4.2341828"
           height="0.47818699"
           y="59.536747"
           x="77.907845" />
        <use
           id="use2590"
           xlink:href="#equation_08_01"
           y="66.887268"
           x="77.907845"
           width="100%"
           height="100%" />
      </g>
    </g>
    <g
       title="\large$\frac13$"
       style="fill:#000000"
       id="equation_09"
       transform="translate(-63.620344,122.1559)">
      <defs
         id="defs2681">
        <path
           d="m 2.502615,-5.076961 c 0,-0.215193 -0.01594,-0.223164 -0.231133,-0.223164 -0.326775,0.318805 -0.749191,0.510088 -1.506351,0.510088 v 0.263013 c 0.215193,0 0.645579,0 1.107845,-0.215193 v 4.088668 c 0,0.294894 -0.02391,0.390535 -0.781071,0.390535 H 0.812951 V 0 c 0.326775,-0.02391 1.012205,-0.02391 1.37086,-0.02391 0.358655,0 1.052055,0 1.378829,0.02391 V -0.263014 H 3.283686 c -0.75716,0 -0.781071,-0.095641 -0.781071,-0.390535 z"
           id="equation_09_00"
           inkscape:connector-curvature="0" />
        <path
           d="m 2.016438,-2.662017 c 0.629639,0 1.028145,0.462266 1.028145,1.299128 0,0.996264 -0.565878,1.291158 -0.988294,1.291158 -0.438356,0 -1.036115,-0.159402 -1.315069,-0.581818 0.286924,0 0.486177,-0.183313 0.486177,-0.446326 0,-0.255044 -0.183312,-0.438357 -0.438356,-0.438357 -0.215193,0 -0.438356,0.135492 -0.438356,0.454297 0,0.75716 0.812951,1.251307 1.721544,1.251307 1.060025,0 1.801245,-0.73325 1.801245,-1.530261 0,-0.661519 -0.526027,-1.267248 -1.338978,-1.44259 0.629638,-0.223164 1.099875,-0.765131 1.099875,-1.40274 0,-0.637609 -0.71731,-1.091906 -1.546202,-1.091906 -0.852802,0 -1.498381,0.462267 -1.498381,1.067995 0,0.294895 0.199253,0.422416 0.406476,0.422416 0.247073,0 0.406476,-0.175342 0.406476,-0.406475 0,-0.294894 -0.255044,-0.406476 -0.430386,-0.414446 0.334744,-0.438356 0.948443,-0.462267 1.091905,-0.462267 0.207223,0 0.812951,0.063761 0.812951,0.884683 0,0.557908 -0.231133,0.892652 -0.342714,1.020174 -0.239104,0.247074 -0.422416,0.263014 -0.908593,0.294894 -0.151432,0.00797 -0.215193,0.015941 -0.215193,0.119552 0,0.111582 0.071731,0.111582 0.207223,0.111582 z"
           id="equation_09_01"
           inkscape:connector-curvature="0" />
      </defs>
      <g
         id="equation_09_g">
        <use
           id="use2683"
           xlink:href="#equation_09_00"
           y="58.057507"
           x="77.907845"
           width="100%"
           height="100%" />
        <rect
           id="rect2685"
           width="4.2341828"
           height="0.47818699"
           y="59.536747"
           x="77.907845" />
        <use
           id="use2687"
           xlink:href="#equation_09_01"
           y="66.887268"
           x="77.907845"
           width="100%"
           height="100%" />
      </g>
    </g>
    <g
       title="\large$1$"
       style="fill:#000000"
       id="equation_04-1"
       transform="translate(-63.529583,76.296681)">
      <defs
         id="defs2289-4">
        <path
           d="m 3.443088,-7.663263 c 0,-0.274969 0,-0.286924 -0.239103,-0.286924 -0.286924,0.32279 -0.884682,0.765131 -2.116065,0.765131 v 0.3467 c 0.274969,0 0.872728,0 1.530262,-0.310835 v 6.228643 c 0,0.430386 -0.035866,0.573848 -1.08792,0.573848 H 1.159651 V 0 c 0.32279,-0.02391 1.482441,-0.02391 1.876962,-0.02391 0.394521,0 1.542216,0 1.865006,0.02391 v -0.3467 h -0.37061 c -1.052055,0 -1.087921,-0.143462 -1.087921,-0.573848 z"
           id="path2725"
           inkscape:connector-curvature="0" />
      </defs>
      <g
         id="equation_04_g-0">
        <use
           id="use2291-0"
           xlink:href="#equation_04_00-2"
           y="62.764633"
           x="76.712326"
           width="100%"
           height="100%" />
      </g>
    </g>
    <path
       style="fill:none;stroke:#000000;stroke-width:0.4;stroke-linecap:butt;stroke-linejoin:miter;stroke-opacity:1;stroke-miterlimit:4;stroke-dasharray:1.19999999,1.19999999;stroke-dashoffset:0"
       d="m 44.979166,140.89582 c -23.812499,0 -23.812499,0 -23.812499,0"
       id="path2731"
       inkscape:connector-curvature="0" />
    <path
       style="fill:none;stroke:#000000;stroke-width:0.4;stroke-linecap:butt;stroke-linejoin:miter;stroke-opacity:1;stroke-miterlimit:4;stroke-dasharray:1.19999999,1.19999999;stroke-dashoffset:0"
       d="m 66.145832,167.35416 c -44.979165,0 -44.979165,0 -44.979165,0"
       id="path2733"
       inkscape:connector-curvature="0" />
    <path
       style="fill:none;stroke:#000000;stroke-width:0.4;stroke-linecap:butt;stroke-linejoin:miter;stroke-opacity:1;stroke-miterlimit:4;stroke-dasharray:1.19999999,1.19999999;stroke-dashoffset:0"
       d="m 87.312499,177.93749 c -66.145833,0 -66.145833,0 -66.145833,0"
       id="path2735"
       inkscape:connector-curvature="0" />
    <path
       style="opacity:1;fill:#cccccc;fill-opacity:0.82211537;fill-rule:evenodd;stroke:#000000;stroke-width:0.38178992;stroke-linecap:butt;stroke-linejoin:bevel;stroke-miterlimit:4;stroke-dasharray:1.14536981, 1.14536981;stroke-dashoffset:0;stroke-opacity:1;paint-order:normal"
       d="m 170.44743,638.87763 c 0,-89.47061 0.0446,-101.63594 0.37078,-101.20465 0.20392,0.26961 0.37439,0.58874 0.3788,0.70918 0.009,0.24858 5.05125,10.35046 6.3192,12.66047 0.45743,0.83338 1.07877,1.9698 1.38075,2.52538 1.49593,2.75217 2.54666,4.62943 3.03903,5.42957 0.29915,0.48614 0.62208,1.05435 0.71764,1.26269 0.0956,0.20835 0.39808,0.71974 0.67228,1.13642 0.2742,0.41669 0.61556,0.9849 0.75858,1.26269 0.14302,0.2778 0.48395,0.84601 0.75761,1.2627 0.27367,0.41668 0.61779,0.98489 0.76471,1.26269 0.4515,0.85367 1.39133,2.34083 3.75043,5.93464 0.775,1.18062 1.52508,2.34154 1.66684,2.57982 0.14176,0.23828 0.83389,1.26106 1.53806,2.27284 0.70417,1.01178 1.83055,2.63463 2.50308,3.60634 1.27984,1.84918 7.1802,9.75773 7.44305,9.97629 0.0835,0.0694 1.10636,1.31951 2.27296,2.77792 1.76027,2.20057 4.33256,5.25521 5.44096,6.46125 0.13889,0.15113 1.10239,1.23089 2.14109,2.39947 1.03871,1.16858 4.44798,4.68959 7.57615,7.82447 4.86103,4.87146 7.22234,7.09882 11.7485,11.08206 0.62418,0.5493 4.24665,3.58352 6.31345,5.28819 0.27779,0.22912 1.4679,1.15284 2.64469,2.05272 1.17678,0.89987 2.37003,1.8421 2.65165,2.09384 0.28162,0.25174 0.99482,0.76313 1.58487,1.13643 1.03519,0.65489 1.34785,1.05752 0.82121,1.05752 -0.1389,0 -0.25254,0.39774 -0.25254,0.88388 v 0.88388 h 1.71726 c 0.99893,0 1.84402,0.12677 2.0203,0.30305 0.23379,0.23378 0.30305,12.46977 0.30305,53.53808 v 53.23504 h -39.52222 -39.52222 z m 5.55584,33.63584 v -0.88388 h -2.39911 -2.39912 v 0.88388 0.88389 h 2.39912 2.39911 z m 9.09137,0 v -0.88388 h -2.39911 -2.39911 v 0.88388 0.88389 h 2.39911 2.39911 z m 8.83884,0 v -0.88388 h -2.27285 -2.27284 v 0.88388 0.88389 h 2.27284 2.27285 z m 9.09137,0 v -0.88388 h -2.27284 -2.27285 v 0.88388 0.88389 h 2.27285 2.27284 z m 9.09137,0 v -0.88388 h -2.39911 -2.39911 v 0.88388 0.88389 h 2.39911 2.39911 z m 9.09138,0 v -0.88388 h -2.39912 -2.39911 v 0.88388 0.88389 h 2.39911 2.39912 z m 9.09137,0 v -0.88388 h -2.39911 -2.39912 v 0.88388 0.88389 h 2.39912 2.39911 z m 9.09137,0 v -0.88388 h -2.39911 -2.39911 v 0.88388 0.88389 h 2.39911 2.39911 z m 9.09137,0 v -0.88388 h -2.39911 -2.39911 v 0.88388 0.88389 h 2.39911 2.39911 z M 177.5185,632.61245 v -0.88388 h -2.39911 -2.39912 v 0.88388 0.88388 h 2.39912 2.39911 z m 9.09137,0 v -0.88388 h -2.39911 -2.39911 v 0.88388 0.88388 h 2.39911 2.39911 z m 9.09137,0 v -0.88388 h -2.39911 -2.39911 v 0.88388 0.88388 h 2.39911 2.39911 z m 9.09138,0 v -0.88388 h -2.39912 -2.39911 v 0.88388 0.88388 h 2.39911 2.39912 z m 9.09137,0 v -0.88388 h -2.39911 -2.39911 v 0.88388 0.88388 h 2.39911 2.39911 z m 9.04424,-0.0631 0.0791,-0.82074 h -2.41511 -2.41511 v 0.89336 0.89336 l 2.33598,-0.0726 2.33597,-0.0726 z m 9.09137,0 0.0791,-0.82074 h -2.41512 -2.41511 v 0.89336 0.89336 l 2.33598,-0.0726 2.33598,-0.0726 z m 9.09138,0 0.0791,-0.82074 h -2.41511 -2.41512 v 0.89336 0.89336 l 2.33598,-0.0726 2.33598,-0.0726 z"
       id="path2743"
       inkscape:connector-curvature="0"
       transform="scale(0.26458333)" />
    <path
       style="opacity:1;fill:#cccccc;fill-opacity:0.82211537;fill-rule:evenodd;stroke:#000000;stroke-width:0.19089496;stroke-linecap:butt;stroke-linejoin:bevel;stroke-miterlimit:4;stroke-dasharray:0.57268491, 0.57268491;stroke-dashoffset:0;stroke-opacity:1;paint-order:normal"
       d="m 250.4825,687.65958 v -52.96904 l 0.53702,0.40954 c 0.4879,0.37209 3.99114,2.75892 4.49325,3.06135 0.11544,0.0695 1.20427,0.78401 2.41961,1.58773 1.21534,0.80371 2.48463,1.62755 2.82064,1.83074 0.33602,0.20319 0.7439,0.45468 0.90642,0.55885 0.30767,0.19721 1.98497,1.22856 2.35945,1.45078 0.11825,0.0702 0.62963,0.38328 1.1364,0.69579 0.50678,0.31252 0.96855,0.58866 1.02616,0.61365 0.0576,0.025 0.39726,0.23807 0.75476,0.47351 0.35749,0.23544 0.68895,0.42807 0.73655,0.42807 0.0476,0 0.38854,0.19887 0.75762,0.44194 0.36908,0.24307 0.72469,0.44194 0.79026,0.44194 0.0656,0 0.20891,0.0768 0.31855,0.17065 0.10964,0.0938 0.45504,0.30513 0.76756,0.4695 0.31251,0.16438 0.65344,0.36581 0.75761,0.44763 0.10417,0.0818 0.63983,0.38332 1.19036,0.67002 0.55052,0.28669 1.06191,0.57051 1.13642,0.63072 0.0745,0.0602 0.5859,0.34431 1.13642,0.63134 0.55052,0.28704 1.06191,0.56924 1.13642,0.62712 0.1294,0.10052 1.072,0.60656 4.42862,2.37756 2.56606,1.3539 13.19965,6.60237 13.37661,6.60237 0.0251,0 0.7627,0.34093 1.6391,0.75761 0.87639,0.41669 1.62425,0.75762 1.6619,0.75762 0.0376,0 0.5557,0.22934 1.15121,0.50965 0.59551,0.2803 1.62903,0.74094 2.2967,1.02364 0.66768,0.28269 1.52647,0.65657 1.90843,0.83082 2.38095,1.08623 10.837,4.51841 16.03617,6.50884 0.73253,0.28044 5.27602,1.95696 6.6607,2.45775 0.50527,0.18275 0.53664,0.22261 0.53664,0.68202 v 0.48792 l 1.42053,0.01 c 1.0111,0.007 1.60249,0.0738 2.05187,0.23187 l 0.63135,0.22209 0.0318,33.41883 0.0318,33.41884 H 290.00496 250.4825 Z m 7.00794,-15.15312 v -0.75762 l -2.30441,-0.0344 -2.30441,-0.0344 v 0.82645 0.82644 l 2.30441,-0.0344 2.30441,-0.0344 z m 9.02823,0 v -0.82075 h -2.27284 -2.27284 v 0.82075 0.82075 h 2.27284 2.27284 z m 9.09138,0 v -0.82075 h -2.33598 -2.33598 v 0.82075 0.82075 h 2.33598 2.33598 z m 9.09137,0 v -0.82075 h -2.33598 -2.33598 v 0.82075 0.82075 h 2.33598 2.33598 z m 9.09137,0 v -0.82075 h -2.33597 -2.33598 v 0.82075 0.82075 h 2.33598 2.33597 z m 9.09138,0 v -0.82075 h -2.33598 -2.33598 v 0.82075 0.82075 h 2.33598 2.33598 z m 9.06583,0.0316 -0.0376,-0.78919 -2.30441,-0.0344 -2.30441,-0.0344 v 0.8236 0.8236 h 2.34201 2.342 z m 8.99064,-0.0316 v -0.82075 h -2.27284 -2.27284 v 0.82075 0.82075 h 2.27284 2.27284 z"
       id="path2745"
       inkscape:connector-curvature="0"
       transform="scale(0.26458333)" />
    <path
       style="opacity:1;fill:#cccccc;fill-opacity:0.82211537;fill-rule:evenodd;stroke:#000000;stroke-width:0.13498312;stroke-linecap:butt;stroke-linejoin:bevel;stroke-miterlimit:4;stroke-dasharray:0.40494938, 0.40494938;stroke-dashoffset:0;stroke-opacity:1;paint-order:normal"
       d="m 330.4282,707.36652 c 0,-18.26785 0.0232,-33.21428 0.0515,-33.21428 0.0283,0 0.82184,0.26323 1.7634,0.58495 2.62656,0.89749 4.62061,1.55831 7.11371,2.35747 1.25223,0.4014 2.37723,0.76621 2.5,0.81068 0.34807,0.12608 3.41159,1.07854 5.58036,1.73495 1.08035,0.32699 2.26562,0.69027 2.63393,0.80728 1.13587,0.36088 7.03425,2.07004 9.91071,2.87181 1.64704,0.45908 6.43281,1.76562 7.41071,2.02315 0.46652,0.12286 1.41072,0.3719 2.09822,0.55343 0.6875,0.18152 1.61161,0.42475 2.05357,0.5405 1.30937,0.34294 10.61576,2.67037 11.875,2.96982 2.03615,0.4842 4.173,0.98923 4.95536,1.17117 0.41741,0.0971 1.1808,0.27558 1.69643,0.39668 1.9847,0.46614 4.21687,0.96662 8.34821,1.87178 4.00352,0.87715 5.75105,1.25358 8.39286,1.8079 0.58928,0.12364 1.44308,0.30574 1.89732,0.40466 l 0.82589,0.17985 v 22.67125 22.67124 H 369.98177 330.4282 Z"
       id="path2747"
       inkscape:connector-curvature="0"
       transform="scale(0.26458333)" />
    <path
       style="opacity:1;fill:#cccccc;fill-opacity:0.82211537;fill-rule:evenodd;stroke:#000000;stroke-width:0.13498312;stroke-linecap:butt;stroke-linejoin:bevel;stroke-miterlimit:4;stroke-dasharray:0.40494938, 0.40494938;stroke-dashoffset:0;stroke-opacity:1;paint-order:normal"
       d="m 410.42115,717.98184 v -22.59896 l 0.20089,0.0504 c 0.21287,0.0534 8,1.60928 9.66518,1.93114 1.50489,0.29087 4.65259,0.89021 5.40179,1.02852 0.3683,0.068 1.55357,0.28867 2.63393,0.49039 2.16431,0.40413 4.52151,0.83406 5.625,1.02595 0.39285,0.0683 1.15625,0.20554 1.69642,0.30493 0.54018,0.0994 1.58483,0.28456 2.32143,0.41148 3.70332,0.6381 4.51403,0.77767 6.20536,1.06835 2.13562,0.36703 6.9016,1.15622 9.73214,1.61151 1.91152,0.30747 3.23,0.51905 3.88393,0.62326 0.44197,0.0704 1.30581,0.20927 1.91965,0.30854 0.61383,0.0993 1.53794,0.24264 2.05357,0.31861 0.51562,0.076 1.03946,0.1559 1.16408,0.17764 0.12462,0.0217 0.78757,0.12379 1.47322,0.22677 3.16123,0.47481 3.57235,0.53725 3.78961,0.57552 0.12739,0.0224 0.77251,0.12051 1.4336,0.21791 0.66109,0.0974 1.34261,0.19889 1.51449,0.2255 2.61633,0.40517 11.87169,1.71784 16.38393,2.3237 0.93303,0.12528 1.78683,0.24784 1.89732,0.27236 l 0.20089,0.0446 v 15.98045 15.98044 h -39.59822 -39.59821 z"
       id="path2749"
       inkscape:connector-curvature="0"
       transform="scale(0.26458333)" />
    <path
       style="opacity:1;fill:#cccccc;fill-opacity:0.82211537;fill-rule:evenodd;stroke:#000000;stroke-width:0.09544749;stroke-linecap:butt;stroke-linejoin:bevel;stroke-miterlimit:4;stroke-dasharray:0.28634245, 0.28634245;stroke-dashoffset:0;stroke-opacity:1;paint-order:normal"
       d="m 490.43634,724.62718 c 0,-15.15599 0.005,-15.9442 0.11048,-15.91507 0.0608,0.0169 0.28095,0.0486 0.48929,0.0705 0.20835,0.0219 0.66292,0.0802 1.01016,0.12948 0.34724,0.0493 0.75919,0.10583 0.91545,0.12568 0.15625,0.0199 0.48298,0.0636 0.72604,0.0971 0.24307,0.0336 0.76867,0.10329 1.16799,0.15495 0.39933,0.0517 0.93913,0.12231 1.19956,0.157 0.97536,0.1299 1.85268,0.24486 2.17814,0.2854 0.1389,0.0173 0.46562,0.0612 0.72605,0.0975 0.26043,0.0364 0.81443,0.10874 1.23112,0.16087 0.41669,0.0521 1.07013,0.13475 1.4521,0.1836 0.68801,0.088 1.47398,0.18731 2.99889,0.37892 0.43405,0.0545 1.1159,0.14106 1.51522,0.19226 0.96091,0.12321 3.19087,0.40096 4.48256,0.55832 0.43405,0.0529 1.15852,0.14169 1.60993,0.19735 0.45141,0.0557 0.92018,0.11145 1.04172,0.12397 0.21522,0.0222 1.13454,0.1351 1.57836,0.19386 0.12153,0.0161 0.5761,0.0707 1.01015,0.12139 0.43405,0.0507 1.14432,0.13612 1.57837,0.18989 0.43405,0.0538 0.91703,0.11163 1.07328,0.12857 0.28773,0.0312 1.17347,0.13835 1.57837,0.19095 0.23754,0.0308 1.76238,0.20853 2.17814,0.25379 0.13889,0.0151 0.49403,0.0579 0.78918,0.0951 0.29515,0.0372 0.63608,0.0779 0.75761,0.0905 0.12154,0.0126 0.61872,0.0692 1.10486,0.12586 0.48613,0.0566 0.98332,0.1141 1.10485,0.12773 0.12154,0.0136 0.61872,0.0705 1.10486,0.12638 0.48613,0.0559 1.01173,0.11498 1.16799,0.13131 0.15625,0.0163 0.65344,0.0722 1.10485,0.12414 0.45141,0.0519 1.19009,0.13516 1.6415,0.18494 0.45141,0.0498 0.94859,0.107 1.10485,0.12718 0.27002,0.0349 1.08378,0.12557 3.72494,0.41523 0.64239,0.0705 1.25322,0.13825 1.35739,0.15066 0.10417,0.0124 0.61556,0.0677 1.13642,0.12298 0.52086,0.0552 1.04646,0.11291 1.16799,0.12817 0.12154,0.0153 0.66134,0.0743 1.19956,0.13118 0.53822,0.0569 1.04961,0.11163 1.13642,0.12165 0.123,0.0142 1.84793,0.19894 2.96732,0.3178 0.0868,0.009 0.75446,0.0789 1.48367,0.15478 0.7292,0.0759 1.41105,0.14746 1.51522,0.15901 0.10418,0.0115 0.77182,0.0806 1.48367,0.15356 0.71184,0.0729 1.39388,0.14568 1.51565,0.16171 0.12176,0.016 0.81501,0.0878 1.54054,0.15955 0.72553,0.0717 1.4214,0.14298 1.54638,0.15837 0.12497,0.0154 0.36927,0.0419 0.54289,0.059 0.4973,0.0489 2.94341,0.29513 3.18829,0.32098 0.12154,0.0128 0.95965,0.0955 1.86247,0.18363 1.63695,0.15986 2.11038,0.20727 2.58852,0.25918 0.1389,0.0151 1.00542,0.1006 1.9256,0.19002 0.92019,0.0894 1.78711,0.17411 1.92648,0.18817 0.13938,0.0141 0.40928,0.0413 0.59978,0.0606 0.77755,0.0785 2.93815,0.28522 2.98223,0.28526 0.026,3e-5 0.0473,5.14235 0.0473,11.4274 v 11.42735 h -39.58535 -39.58535 z"
       id="path2751"
       inkscape:connector-curvature="0"
       transform="scale(0.26458333)" />
    <path
       style="opacity:1;fill:#cccccc;fill-opacity:0.82211537;fill-rule:evenodd;stroke:#000000;stroke-width:0.09544749;stroke-linecap:butt;stroke-linejoin:bevel;stroke-miterlimit:4;stroke-dasharray:0.28634245, 0.28634245;stroke-dashoffset:0;stroke-opacity:1;paint-order:normal"
       d="m 570.42624,729.23283 v -11.34008 l 0.83653,0.0322 c 0.66916,0.0258 3.31407,0.25466 5.25595,0.45485 0.17362,0.0179 0.45773,0.0473 0.63135,0.0653 0.17362,0.018 1.72199,0.15954 3.44083,0.31451 1.71884,0.15498 3.26721,0.29657 3.44083,0.31465 0.17362,0.0181 0.48614,0.0467 0.69448,0.0636 0.20834,0.0169 0.52086,0.046 0.69448,0.0648 0.84472,0.091 5.26552,0.49211 5.91138,0.5363 0.40389,0.0276 0.79865,0.0847 0.87725,0.12673 0.0927,0.0496 0.26719,0.0624 0.49681,0.0364 0.20202,-0.0228 0.50292,-0.008 0.70111,0.0356 0.19097,0.0416 0.64552,0.0819 1.01012,0.0895 0.57116,0.0119 1.30259,0.0675 2.46225,0.18708 0.15626,0.0161 0.48298,0.043 0.72605,0.0597 0.24306,0.0167 0.58399,0.0439 0.75761,0.0603 0.44776,0.0423 1.0782,0.098 1.48366,0.13091 0.19098,0.0155 0.48929,0.0416 0.66291,0.058 0.17362,0.0164 0.52876,0.0468 0.78919,0.0677 0.26043,0.0209 0.61556,0.0514 0.78918,0.0677 0.17362,0.0164 0.50034,0.0444 0.72605,0.0623 0.77903,0.0617 1.04319,0.0836 1.45209,0.12007 0.22571,0.0201 0.56663,0.0499 0.75761,0.0662 0.19099,0.0163 0.47509,0.0582 0.63135,0.0933 0.21412,0.048 11.2273,0.9876 11.90086,1.01535 0.13372,0.006 0.71687,0.0473 1.29426,0.0928 0.47553,0.0374 1.20422,0.0869 1.35739,0.0922 0.0695,0.002 2.34229,0.18712 5.05076,0.41055 2.70847,0.22343 4.98132,0.40814 5.05076,0.41046 0.0694,0.002 0.32515,0.0177 0.56822,0.0341 0.24306,0.0164 0.51296,0.0334 0.59977,0.0377 0.0868,0.004 1.35108,0.10442 2.80949,0.22246 2.52336,0.20425 2.92207,0.23282 4.21391,0.30194 0.30365,0.0163 1.61054,0.1141 2.90419,0.21744 1.29364,0.10335 2.3947,0.19063 2.44678,0.19396 0.0521,0.003 0.29358,0.021 0.53665,0.0392 0.24306,0.0183 0.51296,0.0354 0.59977,0.0381 0.30299,0.009 4.07438,0.30412 4.3405,0.33926 l 0.26832,0.0354 v 8.04578 8.04579 h -39.58535 -39.58535 z"
       id="path2753"
       inkscape:connector-curvature="0"
       transform="scale(0.26458333)" />
  </g>
</svg>
