<?xml version="1.0" encoding="UTF-8" standalone="no"?>
<!-- Created with Inkscape (http://www.inkscape.org/) -->

<svg
   xmlns:dc="http://purl.org/dc/elements/1.1/"
   xmlns:cc="http://creativecommons.org/ns#"
   xmlns:rdf="http://www.w3.org/1999/02/22-rdf-syntax-ns#"
   xmlns:svg="http://www.w3.org/2000/svg"
   xmlns="http://www.w3.org/2000/svg"
   xmlns:xlink="http://www.w3.org/1999/xlink"
   xmlns:sodipodi="http://sodipodi.sourceforge.net/DTD/sodipodi-0.dtd"
   xmlns:inkscape="http://www.inkscape.org/namespaces/inkscape"
   width="210mm"
   height="297mm"
   viewBox="0 0 210 297"
   version="1.1"
   id="svg8"
   inkscape:version="0.92.4 (5da689c313, 2019-01-14)"
   sodipodi:docname="逆三角関数.svg">
  <defs
     id="defs2">
    <marker
       inkscape:isstock="true"
       style="overflow:visible;"
       id="marker1362"
       refX="0.0"
       refY="0.0"
       orient="auto"
       inkscape:stockid="Arrow1Lend">
      <path
         transform="scale(0.8) rotate(180) translate(12.5,0)"
         style="fill-rule:evenodd;stroke:#000000;stroke-width:1pt;stroke-opacity:1;fill:#000000;fill-opacity:1"
         d="M 0.0,0.0 L 5.0,-5.0 L -12.5,0.0 L 5.0,5.0 L 0.0,0.0 z "
         id="path1360" />
    </marker>
    <marker
       inkscape:stockid="Arrow1Lend"
       orient="auto"
       refY="0.0"
       refX="0.0"
       id="Arrow1Lend"
       style="overflow:visible;"
       inkscape:isstock="true"
       inkscape:collect="always">
      <path
         id="path893"
         d="M 0.0,0.0 L 5.0,-5.0 L -12.5,0.0 L 5.0,5.0 L 0.0,0.0 z "
         style="fill-rule:evenodd;stroke:#000000;stroke-width:1pt;stroke-opacity:1;fill:#000000;fill-opacity:1"
         transform="scale(0.8) rotate(180) translate(12.5,0)" />
    </marker>
    <marker
       inkscape:isstock="true"
       style="overflow:visible"
       id="marker1362-8"
       refX="0"
       refY="0"
       orient="auto"
       inkscape:stockid="Arrow1Lend">
      <path
         inkscape:connector-curvature="0"
         transform="matrix(-0.8,0,0,-0.8,-10,0)"
         style="fill:#000000;fill-opacity:1;fill-rule:evenodd;stroke:#000000;stroke-width:1.00000003pt;stroke-opacity:1"
         d="M 0,0 5,-5 -12.5,0 5,5 Z"
         id="path1360-5" />
    </marker>
  </defs>
  <sodipodi:namedview
     id="base"
     pagecolor="#ffffff"
     bordercolor="#666666"
     borderopacity="1.0"
     inkscape:pageopacity="0.0"
     inkscape:pageshadow="2"
     inkscape:zoom="0.49497475"
     inkscape:cx="456.86512"
     inkscape:cy="1251.1801"
     inkscape:document-units="mm"
     inkscape:current-layer="layer1"
     showgrid="true"
     inkscape:window-width="1858"
     inkscape:window-height="1057"
     inkscape:window-x="-8"
     inkscape:window-y="-8"
     inkscape:window-maximized="1">
    <inkscape:grid
       id="grid10"
       type="xygrid" />
  </sodipodi:namedview>
  <metadata
     id="metadata5">
    <rdf:RDF>
      <cc:Work
         rdf:about="">
        <dc:format>image/svg+xml</dc:format>
        <dc:type
           rdf:resource="http://purl.org/dc/dcmitype/StillImage" />
        <dc:title></dc:title>
      </cc:Work>
    </rdf:RDF>
  </metadata>
  <g
     inkscape:label="レイヤー 1"
     inkscape:groupmode="layer"
     id="layer1">
    <path
       id="path19"
       title="asin(x)"
       d=" M 5.2916665 219.611325215 C 5.96871474916 219.926093274 6.64576299832 209.891318173 7.32281124747 210.199727281 C 7.99985949663 210.508136389 8.67690774579 205.976586641 9.35395599495 206.278636798 C 10.0310042441 206.580686955 10.7080524933 202.958457976 11.3851007424 203.254149182 C 12.0621489916 203.549840389 12.7391972407 200.401677962 13.4162454899 200.691010218 C 14.0932937391 200.980342473 14.7703419882 198.137918779 15.4473902374 198.420892084 C 16.1244384865 198.703865389 16.8014867357 196.08097036 17.4785349848 196.357584714 C 18.155583234 196.634199068 18.8326314832 194.179682288 19.5096797323 194.449937691 C 20.1867279815 194.720193095 20.8637762306 192.400762511 21.5408244798 192.664658964 C 22.217872729 192.928555417 22.8949209781 190.721106867 23.5719692273 190.97864437 C 24.2490174764 191.236181872 24.9260657256 189.123905244 25.6031139747 189.375083796 C 26.2801622239 189.626262348 26.9572104731 187.596473782 27.6342587222 187.841293383 C 28.3113069714 188.086112984 28.9883552205 186.128961191 29.6654034697 186.367421841 C 30.3424517189 186.605882491 31.019499968 184.713533589 31.6965482172 184.945635288 C 32.3735964663 185.177736988 33.0506447155 183.34383787 33.7276929646 183.569580619 C 34.4047412138 183.795323368 35.081789463 182.014635458 35.7588377121 182.234019257 C 36.4358859613 182.453403055 37.1129342104 180.721544665 37.7899824596 180.934569512 C 38.4670307088 181.14759436 39.1440789579 179.460854717 39.8211272071 179.667520614 C 40.4981754562 179.874186511 41.1752237054 178.229388503 41.8522719545 178.429695449 C 42.5293202037 178.630002395 43.2063684529 177.024399284 43.883416702 177.218347279 C 44.5604649512 177.412295275 45.2375132003 175.843491638 45.9145614495 176.031080683 C 46.5916096987 176.218669727 47.2686579478 174.684560022 47.945706197 174.865790116 C 48.6227544461 175.04702021 49.2998026953 173.545740376 49.9768509444 173.720611519 C 50.6538991936 173.895482663 51.3309474428 172.425371533 52.0079956919 172.593883726 C 52.6850439411 172.762395919 53.3620921902 171.321964108 54.0391404394 171.48411735 C 54.7161886886 171.646270592 55.3932369377 170.234175157 56.0702851869 170.389969449 C 56.747333436 170.545763741 57.4243816852 169.160787352 58.1014299343 169.310222693 C 58.7784781835 169.459658034 59.4555264327 168.100691709 60.1325746818 168.243768099 C 60.809622931 168.386844489 61.4866711801 167.05287316 62.1637194293 167.1895906 C 62.8407676785 167.326308039 63.5178159276 166.016398409 64.1948641768 166.146756898 C 64.8719124259 166.277115386 65.5489606751 164.990405625 66.2260089242 165.114405163 C 66.9030571734 165.238404701 67.5801054226 163.97409566 68.2571536717 164.091736247 C 68.9342019209 164.209376835 69.61125017 162.966724497 70.2882984192 163.078006134 C 70.9653466684 163.189287771 71.6423949175 161.96759673 72.3194431667 162.072519416 C 72.9964914158 162.177442102 73.673539665 160.976059893 74.3505879141 161.074623628 C 75.0276361633 161.173187364 75.7046844125 159.991499507 76.3817326616 160.083704292 C 77.0587809108 160.175909076 77.7358291599 159.013334721 78.4128774091 159.099180555 C 79.0899256582 159.185026389 79.7669739074 158.041014459 80.4440221566 158.120501342 C 81.1210704057 158.199988226 81.7981186549 157.074013995 82.475166904 157.147141928 C 83.1522151532 157.220269861 83.8292634024 156.111831886 84.5063116515 156.178600868 C 85.1833599007 156.24536985 85.8604081498 155.15398721 86.537456399 155.214397241 C 87.2145046481 155.274807273 87.8915528973 154.200017068 88.5686011465 154.254068149 C 89.2456493956 154.30811923 89.9226976448 153.249474306 90.5997458939 153.297166436 C 91.2767941431 153.344858566 91.9538423923 152.301925419 92.6308906414 152.343258598 C 93.3079388906 152.384591777 93.9849871397 151.356948614 94.6620353889 151.391922843 C 95.339083638 151.426897071 96.0161318872 150.41413201 96.6931801364 150.442747288 C 97.3702283855 150.471362566 98.0472766347 149.473071939 98.7243248838 149.495328267 C 99.401373133 149.517584594 100.078421382 148.533371337 100.755469631 148.549268714 C 101.43251788 148.56516609 102.10956613 147.594638209 102.786614379 147.604176635 C 103.463662628 147.613715061 104.140710877 146.656484142 104.817759126 146.659663617 C 105.494807375 146.662843092 106.171855625 145.718522858 106.848903874 145.715343383 C 107.525952123 145.712163908 108.203000372 144.780368791 108.880048621 144.770830365 C 109.55709687 144.761291939 110.23414512 143.841635663 110.911193369 143.825738286 C 111.588241618 143.80984091 112.265289867 142.901935061 112.942338116 142.879678733 C 113.619386365 142.857422406 114.296434614 141.96087499 114.973482864 141.932259712 C 115.650531113 141.903644434 116.327579362 141.018058386 117.004627611 140.983084157 C 117.68167586 140.948109929 118.358724109 140.073081581 119.035772359 140.031748402 C 119.712820608 139.990415223 120.389868857 139.125532694 121.066917106 139.077840564 C 121.743965355 139.030148434 122.421013604 138.174989932 123.098061854 138.120938851 C 123.775110103 138.06688777 124.452158352 137.22101979 125.129206601 137.160609759 C 125.80625485 137.100199727 126.483303099 136.263175114 127.160351348 136.196406132 C 127.837399598 136.12963715 128.514447847 135.300993005 129.191496096 135.227865072 C 129.868544345 135.154737139 130.545592594 134.333992541 131.222640843 134.254505658 C 131.899689093 134.175018774 132.576737342 133.361672279 133.253785591 133.275826445 C 133.93083384 133.189980611 134.607882089 132.383507493 135.284930338 132.291302708 C 135.961978588 132.199097924 136.639026837 131.398947107 137.316075086 131.300383372 C 137.993123335 131.201819636 138.670171584 130.40741027 139.347219833 130.302487584 C 140.024268082 130.197564898 140.701316332 129.408282503 141.378364581 129.297000866 C 142.05541283 129.185719229 142.732461079 128.40091134 143.409509328 128.283270753 C 144.086557577 128.165630165 144.763605827 127.384601375 145.440654076 127.260601837 C 146.117702325 127.136602299 146.794750574 126.358608591 147.471798823 126.228250102 C 148.148847072 126.097891614 148.825895322 125.32213384 149.502943571 125.1854164 C 150.17999182 125.048698961 150.857040069 124.274315291 151.534088318 124.131238901 C 152.211136567 123.988162511 152.888184816 123.214219648 153.565233066 123.064784307 C 154.242281315 122.915348966 154.919329564 122.140831843 155.596377813 121.985037551 C 156.273426062 121.829243259 156.950474311 121.053042892 157.627522561 120.89088965 C 158.30457081 120.728736408 158.981619059 119.949635467 159.658667308 119.781123274 C 160.335715557 119.612611081 161.012763806 118.829266624 161.689812056 118.654395481 C 162.366860305 118.479524337 163.043908554 117.690446978 163.720956803 117.509216884 C 164.398005052 117.32798679 165.075053301 116.531515362 165.752101551 116.343926317 C 166.4291498 116.156337273 167.106198049 115.350607716 167.783246298 115.156659721 C 168.460294547 114.962711725 169.137342796 114.145618497 169.814391045 113.945311551 C 170.491439295 113.745004605 171.168487544 112.914152283 171.845535793 112.707486386 C 172.522584042 112.500820489 173.199632291 111.653462335 173.87668054 111.440437488 C 174.55372879 111.22741264 175.230777039 110.360371542 175.907825288 110.140987743 C 176.584873537 109.921603945 177.261921786 109.03116913 177.938970035 108.805426381 C 178.616018285 108.579683632 179.293066534 107.661473411 179.970114783 107.429371712 C 180.647163032 107.197270012 181.324211281 106.246045809 182.00125953 106.007585159 C 182.678307779 105.769124509 183.355356029 104.778533218 184.032404278 104.533713617 C 184.709452527 104.288894016 185.386500776 103.251101756 186.063549025 102.999923204 C 186.740597274 102.748744652 187.417645524 101.653900133 188.094693773 101.39636263 C 188.771742022 101.138825128 189.448790271 99.9742444894 190.12583852 99.7103480364 C 190.802886769 99.4464515835 191.479935019 98.1953247122 192.156983268 97.9250693085 C 192.834031517 97.6548139049 193.511079766 96.2940366402 194.188128015 96.0174222859 C 194.865176264 95.7408079315 195.542224513 94.2370882213 196.219272763 93.9541149163 C 196.896321012 93.6711416113 197.573369261 91.9733290379 198.25041751 91.6839967822 C 198.927465759 91.3946645265 199.604514008 89.4165490241 200.281562258 89.1208578178 C 200.958610507 88.8251666114 201.635658756 86.3984203591 202.312707005 86.0963702021 C 202.989755254 85.7943200451 203.666803503 82.4836888266 204.343851753 82.175279719 C 205.020900002 81.8668706113 205.697948251 73.0784498432 206.3749965 72.7636817848"
       style="fill:none;fill-opacity:1;stroke:#ff0000;stroke-width:0.6;stroke-linecap:butt;stroke-linejoin:round;stroke-miterlimit:4;stroke-dasharray:none;stroke-dashoffset:0;stroke-opacity:1;paint-order:normal"
       inkscape:export-xdpi="300.10001"
       inkscape:export-ydpi="300.10001" />
    <path
       id="path47"
       title="-asin(x)"
       d="m 5.2916667,220.27082 c 0.6770482,0.31477 1.3540964,9.10319 2.0311447,9.4116 0.6770482,0.30841 1.3540965,3.61904 2.0311447,3.92109 0.6770479,0.30205 1.3540969,2.72879 2.0311449,3.02448 0.677048,0.2957 1.354096,2.27381 2.031145,2.56314 0.677048,0.28934 1.354096,1.98715 2.031144,2.27012 0.677048,0.28297 1.354097,1.78669 2.031145,2.06331 0.677048,0.27661 1.354096,1.63739 2.031145,1.90765 0.677048,0.27025 1.354096,1.52138 2.031144,1.78527 0.677049,0.2639 1.354097,1.42848 2.031145,1.68602 0.677048,0.25754 1.354097,1.35238 2.031145,1.60356 0.677048,0.25118 1.354096,1.28897 2.031145,1.53379 0.677048,0.24482 1.354096,1.23541 2.031144,1.47387 0.677049,0.23846 1.354097,1.18969 2.031145,1.42179 0.677048,0.2321 1.354097,1.15031 2.031145,1.37605 0.677048,0.22575 1.354096,1.11618 2.031145,1.33556 0.677048,0.21939 1.354096,1.08643 2.031144,1.29945 0.677049,0.21303 1.354097,1.06039 2.031145,1.26705 0.677048,0.20667 1.354097,1.03752 2.031145,1.23783 0.677048,0.2003 1.354096,1.0174 2.031145,1.21135 0.677048,0.19394 1.354096,0.99967 2.031144,1.18726 0.677049,0.18759 1.354097,0.98406 2.031145,1.16529 0.677048,0.18123 1.354097,0.97031 2.031145,1.14518 0.677048,0.17487 1.354096,0.95822 2.031145,1.12673 0.677048,0.16851 1.354096,0.94761 2.031144,1.10977 0.677049,0.16215 1.354097,0.93835 2.031145,1.09414 0.677048,0.1558 1.354097,0.93032 2.031145,1.07975 0.677048,0.14944 1.354096,0.92338 2.031145,1.06646 0.677048,0.14307 1.354096,0.91746 2.031144,1.05417 0.677049,0.13672 1.354097,0.91248 2.031145,1.04284 0.677048,0.13035 1.354097,0.90835 2.031145,1.03235 0.677048,0.124 1.354096,0.90503 2.031145,1.02267 0.677048,0.11764 1.354096,0.90245 2.031144,1.01373 0.677049,0.11128 1.354097,0.90056 2.031145,1.00548 0.677048,0.10493 1.354096,0.89934 2.031145,0.9979 0.677048,0.0986 1.354096,0.89871 2.031144,0.99092 0.677049,0.0922 1.354097,0.89868 2.031145,0.98452 0.677048,0.0858 1.354097,0.8992 2.031145,0.97868 0.677048,0.0795 1.354096,0.90023 2.031145,0.97336 0.677048,0.0731 1.354096,0.90177 2.031144,0.96854 0.677049,0.0668 1.354097,0.9038 2.031145,0.96421 0.677048,0.0604 1.354097,0.90627 2.031145,0.96033 0.677048,0.0541 1.354096,0.9092 2.031145,0.9569 0.677048,0.0477 1.354096,0.91257 2.031144,0.9539 0.677049,0.0413 1.354097,0.91637 2.031145,0.95134 0.677048,0.035 1.354097,0.92056 2.031145,0.94918 0.677048,0.0286 1.354096,0.92516 2.031145,0.94742 0.677048,0.0222 1.354095,0.93016 2.031145,0.94605 0.67705,0.0159 1.3541,0.93556 2.03114,0.9451 0.67705,0.01 1.3541,0.94133 2.03115,0.94451 0.67704,0.003 1.35409,0.9475 2.03114,0.94432 0.67705,-0.003 1.3541,0.95405 2.03115,0.94451 0.67704,-0.01 1.35409,0.96099 2.03114,0.9451 0.67705,-0.0159 1.3541,0.96831 2.03114,0.94605 0.67705,-0.0222 1.3541,0.97604 2.03115,0.94742 0.67705,-0.0286 1.3541,0.98415 2.03114,0.94918 0.67705,-0.035 1.3541,0.99267 2.03115,0.95133 0.67705,-0.0413 1.3541,1.0016 2.03114,0.95391 0.67705,-0.0477 1.3541,1.01096 2.03115,0.9569 0.67705,-0.054 1.3541,1.02074 2.03114,0.96033 0.67705,-0.0604 1.3541,1.03098 2.03115,0.96421 0.67705,-0.0668 1.35409,1.04167 2.03114,0.96854 0.67705,-0.0731 1.3541,1.05284 2.03115,0.97336 0.67705,-0.0795 1.35409,1.06452 2.03114,0.97868 0.67705,-0.0858 1.3541,1.07673 2.03115,0.98452 0.67705,-0.0922 1.35409,1.08948 2.03114,0.99092 0.67705,-0.0986 1.3541,1.10282 2.03115,0.9979 0.67704,-0.10493 1.35409,1.11676 2.03114,1.00548 0.67705,-0.11128 1.3541,1.13137 2.03115,1.01373 0.67704,-0.11764 1.35409,1.14667 2.03114,1.02267 0.67705,-0.124 1.3541,1.16271 2.03115,1.03235 0.67704,-0.13036 1.35409,1.17955 2.03114,1.04284 0.67705,-0.13672 1.3541,1.19725 2.03115,1.05417 0.67704,-0.14307 1.35409,1.21589 2.03114,1.06646 0.67705,-0.14944 1.3541,1.23554 2.03114,1.07975 0.67705,-0.1558 1.3541,1.2563 2.03115,1.09414 0.67705,-0.16215 1.3541,1.27828 2.03114,1.10977 0.67705,-0.16851 1.3541,1.3016 2.03115,1.12673 0.67705,-0.17487 1.3541,1.32641 2.03114,1.14518 0.67705,-0.18123 1.3541,1.35288 2.03115,1.16529 0.67705,-0.18759 1.35409,1.38121 2.03114,1.18726 0.67705,-0.19394 1.3541,1.41166 2.03115,1.21135 0.67705,-0.20031 1.35409,1.44449 2.03114,1.23783 0.67705,-0.20667 1.3541,1.48007 2.03115,1.26705 0.67705,-0.21303 1.35409,1.51883 2.03114,1.29945 0.67705,-0.21939 1.3541,1.5613 2.03115,1.33556 0.67705,-0.22575 1.35409,1.60815 2.03114,1.37605 0.67705,-0.2321 1.3541,1.66025 2.03115,1.42179 0.67704,-0.23846 1.35409,1.71869 2.03114,1.47387 0.67705,-0.24482 1.3541,1.78497 2.03115,1.53379 0.67704,-0.25118 1.35409,1.8611 2.03114,1.60356 0.67705,-0.25754 1.3541,1.94991 2.03115,1.68602 0.67704,-0.2639 1.35409,2.05553 2.03114,1.78527 0.67705,-0.27025 1.3541,2.18427 2.03114,1.90765 0.67705,-0.27661 1.3541,2.34628 2.03115,2.06331 0.67705,-0.28297 1.3541,2.55945 2.03114,2.27012 0.67705,-0.28934 1.3541,2.85883 2.03115,2.56314 0.67705,-0.2957 1.3541,3.32653 2.03114,3.02448 0.67705,-0.30205 1.3541,4.2295 2.03115,3.92109 0.67705,-0.30841 1.3541,9.72637 2.03114,9.4116"
       style="fill:none;fill-opacity:0.92307691;stroke:#000000;stroke-width:0.6;stroke-linecap:butt;stroke-linejoin:round;stroke-miterlimit:4;stroke-dasharray:none;stroke-dashoffset:0;stroke-opacity:1;paint-order:normal"
       inkscape:connector-curvature="0"
       inkscape:export-xdpi="300.10001"
       inkscape:export-ydpi="300.10001" />
    <path
       style="fill:none;stroke:#000000;stroke-width:1.16139448;stroke-linecap:butt;stroke-linejoin:miter;stroke-miterlimit:4;stroke-dasharray:none;stroke-opacity:1;marker-end:url(#Arrow1Lend)"
       d="m -52.916667,143.54166 c 306.916667,0 306.916667,0 306.916667,0"
       id="path53"
       inkscape:connector-curvature="0"
       inkscape:export-xdpi="300.10001"
       inkscape:export-ydpi="300.10001" />
    <path
       inkscape:connector-curvature="0"
       id="path19-8"
       title="asin(x)"
       d="m 5.2916667,-74.739592 c 0.677048,0.31476 1.354097,-9.72001 2.031145,-9.4116 0.677048,0.30841 1.354096,-4.22314 2.031145,-3.92109 0.6770483,0.30205 1.3540963,-3.32018 2.0311453,-3.02449 0.677048,0.29569 1.354096,-2.85247 2.031144,-2.56314 0.677049,0.28933 1.354097,-2.55309 2.031145,-2.27012 0.677048,0.28298 1.354097,-2.33992 2.031145,-2.06331 0.677048,0.27662 1.354096,-2.177898 2.031145,-1.90764 0.677048,0.27025 1.354096,-2.049188 2.031144,-1.785288 0.677049,0.2639 1.354097,-1.94355 2.031145,-1.68602 0.677048,0.25754 1.354097,-1.85473 2.031145,-1.60356 0.677048,0.25118 1.354096,-1.77861 2.031145,-1.53379 0.677048,0.24482 1.354096,-1.71233 2.031144,-1.47387 0.677049,0.23846 1.354097,-1.65389 2.031146,-1.42178 0.677047,0.2321 1.354097,-1.6018 2.031145,-1.37606 0.677048,0.22574 1.354095,-1.55494 2.031145,-1.33556 0.677048,0.21938 1.354096,-1.51248 2.031143,-1.29945 0.67705,0.21302 1.354098,-1.47372 2.031146,-1.26705 0.677047,0.20667 1.354097,-1.43813 2.031145,-1.23782 0.677048,0.2003 1.354094,-1.4053 2.031144,-1.21135 0.677048,0.19395 1.354096,-1.37486 2.031143,-1.18727 0.67705,0.18759 1.354098,-1.34652 2.031146,-1.16529 0.677047,0.18123 1.354097,-1.32005 2.031145,-1.14518 0.677048,0.17487 1.354095,-1.29524 2.031145,-1.12673 0.677048,0.16852 1.354096,-1.27192 2.031143,-1.10976 0.67705,0.16215 1.354098,-1.24994 2.031146,-1.09415 0.677047,0.15579 1.354097,-1.22918 2.031145,-1.07975 0.677047,0.14944 1.354095,-1.20953 2.031145,-1.06645 0.677048,0.14307 1.354095,-1.1909 2.031143,-1.05418 0.67705,0.13672 1.354099,-1.17319 2.031146,-1.04283 0.677048,0.13036 1.354098,-1.15635 2.031146,-1.03235 0.677047,0.12399 1.354095,-1.14031 2.031145,-1.02267 0.677048,0.11764 1.354095,-1.12502 2.031143,-1.01373 0.67705,0.11128 1.354098,-1.11041 2.031145,-1.00549 0.677048,0.10492 1.354098,-1.09646 2.031146,-0.9979 0.677047,0.0986 1.354095,-1.08312 2.031145,-0.99092 0.677048,0.0922 1.354095,-1.07037 2.031143,-0.98452 0.67705,0.0859 1.354098,-1.05817 2.031145,-0.97868 0.677048,0.0795 1.354098,-1.04649 2.031146,-0.97336 0.677047,0.0731 1.354095,-1.03531 2.031141,-0.96854 0.67705,0.0668 1.3541,-1.02461 2.03115,-0.9642 0.67705,0.0604 1.35409,-1.01438 2.03114,-0.96033 0.67705,0.054 1.3541,-1.0046 2.03115,-0.9569 0.67704,0.0477 1.35409,-0.99524 2.03114,-0.95391 0.67705,0.0413 1.3541,-0.98631 2.03115,-0.95134 0.67705,0.035 1.35409,-0.97779 2.03114,-0.94917 0.67705,0.0286 1.3541,-0.96968 2.03115,-0.94742 0.67704,0.0223 1.35409,-0.96196 2.03114,-0.94606 0.67705,0.0159 1.3541,-0.95463 2.03114,-0.94509 0.67705,0.01 1.3541,-0.9477 2.03115,-0.94452 0.67705,0.003 1.3541,-0.94114 2.03114,-0.94432 0.67705,-0.003 1.3541,-0.93497 2.03115,-0.94451 0.67705,-0.01 1.3541,-0.92919 2.03114,-0.94509 0.67705,-0.0159 1.3541,-0.9238 2.03115,-0.94606 0.67705,-0.0223 1.35409,-0.91881 2.03114,-0.94742 0.67705,-0.0286 1.3541,-0.9142 2.03115,-0.94918 0.67705,-0.035 1.35409,-0.91 2.03114,-0.95133 0.67705,-0.0413 1.3541,-0.90622 2.03115,-0.95391 0.67705,-0.0477 1.35409,-0.90285 2.03114,-0.9569 0.67705,-0.054 1.3541,-0.89992 2.03115,-0.96033 0.67704,-0.0604 1.35409,-0.89743 2.03114,-0.9642 0.67705,-0.0668 1.3541,-0.89542 2.03115,-0.96854 0.67704,-0.0731 1.35409,-0.89388 2.03114,-0.97336 0.67705,-0.0795 1.3541,-0.89284 2.03115,-0.97868 0.67704,-0.0859 1.35409,-0.89232 2.03114,-0.98453 0.67705,-0.0922 1.3541,-0.89235 2.03115,-0.99092 0.67704,-0.0986 1.35409,-0.89297 2.03114,-0.99789 0.67705,-0.10493 1.3541,-0.89421 2.03114,-1.00549 0.67705,-0.11128 1.3541,-0.89609 2.03115,-1.01373 0.67705,-0.11764 1.3541,-0.89867 2.03114,-1.02267 0.67705,-0.124 1.3541,-0.90199 2.03115,-1.03235 0.67705,-0.13036 1.3541,-0.90612 2.03114,-1.04283 0.67705,-0.13672 1.3541,-0.9111 2.03115,-1.05418 0.67705,-0.14308 1.35409,-0.91702 2.03114,-1.06646 0.67705,-0.14943 1.3541,-0.92395 2.03115,-1.07974 0.67705,-0.1558 1.35409,-0.932 2.03114,-1.09415 0.67705,-0.16215 1.3541,-0.94125 2.03115,-1.10977 0.67705,-0.16851 1.35409,-0.95185 2.03114,-1.12672 0.67705,-0.17488 1.3541,-0.96395 2.03115,-1.14518 0.67705,-0.18123 1.35409,-0.9777 2.03114,-1.16529 0.67705,-0.18759 1.3541,-0.99332 2.03115,-1.18727 0.67704,-0.19395 1.35409,-1.01104 2.03114,-1.21135 0.67705,-0.20031 1.3541,-1.03116 2.03115,-1.23782 0.67704,-0.20667 1.35409,-1.05403 2.03114,-1.26705 0.67705,-0.21303 1.3541,-1.08007 2.03115,-1.29945 0.67704,-0.21939 1.35409,-1.10982 2.03114,-1.33556 0.67705,-0.22575 1.3541,-1.14396 2.03114,-1.37606 0.67705,-0.2321 1.3541,-1.18332 2.03115,-1.42178 0.67705,-0.23847 1.3541,-1.22906 2.03114,-1.47388 0.67705,-0.24482 1.3541,-1.28261 2.03115,-1.53379 0.67705,-0.25118 1.3541,-1.34602 2.03114,-1.60356 0.67705,-0.25753 1.3541,-1.42212 2.03115,-1.68601 0.67705,-0.2639 1.3541,-1.51503 2.03114,-1.78528 0.67705,-0.27026 1.3541,-1.63103 2.03115,-1.90765 0.67705,-0.27661 1.35409,-1.78033 2.03114,-2.06331 0.67705,-0.28297 1.3541,-1.98078 2.03115,-2.27011 0.67705,-0.28934 1.35409,-2.26745 2.03114,-2.56314 0.67705,-0.29569 1.3541,-2.72244 2.03115,-3.02449 0.67705,-0.30205 1.35409,-3.61268 2.03114,-3.92109 0.67705,-0.30841 1.3541,-9.09683 2.03115,-9.4116"
       style="fill:none;fill-opacity:0.92307691;stroke:#000000;stroke-width:0.6;stroke-linecap:butt;stroke-linejoin:round;stroke-miterlimit:4;stroke-dasharray:none;stroke-dashoffset:0;stroke-opacity:1;paint-order:normal"
       inkscape:export-xdpi="300.10001"
       inkscape:export-ydpi="300.10001" />
    <path
       inkscape:connector-curvature="0"
       id="path47-9"
       title="-asin(x)"
       d="m 5.29166,-74.743482 c 0.67705,0.314768 1.3541,9.103189 2.03114,9.411598 0.67705,0.308409 1.3541,3.619041 2.03115,3.921091 0.67705,0.30205 1.3541,2.728796 2.03114,3.024488 0.67705,0.295692 1.3541,2.273807 2.03115,2.563138 0.67705,0.289333 1.3541,1.987146 2.03114,2.270119 0.67705,0.282974 1.3541,1.786696 2.03115,2.063306 0.67705,0.27661 1.35409,1.63739 2.03114,1.90765 0.67705,0.27025 1.3541,1.52138 2.03115,1.78528 0.67705,0.26389 1.35409,1.42847 2.03114,1.68601 0.67705,0.25754 1.3541,1.35238 2.03115,1.60356 0.67705,0.25118 1.35409,1.28897 2.03114,1.53379 0.67705,0.24482 1.3541,1.23541 2.03115,1.47387 0.67705,0.23846 1.35409,1.18969 2.03114,1.42179 0.67705,0.2321 1.3541,1.15031 2.03115,1.37605 0.67704,0.22575 1.35409,1.11618 2.03114,1.33557 0.67705,0.21938 1.3541,1.08642 2.03115,1.29944 0.67704,0.21303 1.35409,1.06039 2.03114,1.26705 0.67705,0.20667 1.3541,1.03752 2.03115,1.23783 0.67704,0.20031 1.35409,1.0174 2.03114,1.21135 0.67705,0.19395 1.3541,0.99967 2.03114,1.18726 0.67705,0.18759 1.3541,0.98406 2.03115,1.16529 0.67705,0.18123 1.3541,0.97031 2.03114,1.14518 0.67705,0.17487 1.3541,0.95822 2.03115,1.12673 0.67705,0.16851 1.3541,0.94761 2.03114,1.10977 0.67705,0.16215 1.3541,0.93835 2.03115,1.09415 0.67705,0.15579 1.3541,0.93031 2.03114,1.07974 0.67705,0.14944 1.3541,0.92338 2.03115,1.06646 0.67705,0.14307 1.35409,0.91746 2.03114,1.05417 0.67705,0.13672 1.3541,0.91248 2.03115,1.04284 0.67705,0.13036 1.35409,0.90835 2.03114,1.03235 0.67705,0.124 1.3541,0.90503 2.03115,1.02267 0.67705,0.11764 1.35409,0.90245 2.03114,1.01373 0.67705,0.11128 1.3541,0.90056 2.03115,1.00549 0.67704,0.10492 1.35409,0.89933 2.03114,0.99789 0.67705,0.0986 1.3541,0.89872 2.03115,0.99092 0.67704,0.0922 1.35409,0.89868 2.03114,0.98452 0.67705,0.0859 1.3541,0.8992 2.03115,0.97868 0.67704,0.0795 1.35409,0.90023 2.03114,0.97336 0.67705,0.0731 1.3541,0.90177 2.03115,0.96854 0.67704,0.0668 1.35409,0.9038 2.03114,0.96421 0.67705,0.0604 1.3541,0.9062802 2.03114,0.9603302 0.67705,0.054 1.3541,0.90921 2.03115,0.9569 0.67705,0.0477 1.3541,0.91257 2.03114,0.95391 0.67705,0.0413 1.3541,0.91636 2.03115,0.95133 0.67705,0.035 1.3541,0.92056 2.03114,0.94918 0.67705,0.0286 1.3541,0.92516 2.03115,0.94742 0.67705,0.0223 1.35409,0.93016 2.03114,0.94606 0.67705,0.0159 1.3541,0.93555 2.03115,0.94509 0.67705,0.01 1.35409,0.94133 2.03114,0.94451 0.67706,0.003 1.35411,0.94750001 2.03115,0.94432001 0.67705,-0.003 1.35409,0.95404996 2.03114,0.94450996 0.67705,-0.01 1.3541,0.96099003 2.03115,0.94510003 0.67705,-0.0159 1.35409,0.96831 2.03114,0.94606 0.67706,-0.0223 1.35411,0.97603 2.03116,0.94741 0.67704,-0.0286 1.35409,0.98415 2.03114,0.94918 0.67705,-0.035 1.3541,0.99267 2.03115,0.95134 0.67704,-0.0413 1.35409,1.0016 2.03114,0.9539 0.67704,-0.0477 1.35409,1.01096 2.03114,0.95691 0.67704,-0.0541 1.35409,1.02073 2.03114,0.96032 0.67705,-0.0604 1.35411,1.0309801 2.03114,0.96421 0.67706,-0.0668 1.35411,1.0416701 2.03116,0.9685401 0.67704,-0.0731 1.35409,1.0528497 2.03114,0.9733597 0.67705,-0.0795 1.3541,1.06452 2.03114,0.97868 0.67705,-0.0858 1.3541,1.07673 2.03115,0.98452 0.67705,-0.0922 1.35409,1.08948 2.03114,0.99092 0.67705,-0.0986 1.3541,1.10282 2.03115,0.9979 0.67705,-0.10493 1.35409,1.11677 2.03114,1.00548 0.67705,-0.11128 1.3541,1.13137 2.03115,1.01373 0.67705,-0.11764 1.3541,1.14667 2.03114,1.02267 0.67705,-0.124 1.3541,1.16271 2.03115,1.03235 0.67705,-0.13035 1.35409,1.17956 2.03114,1.04284 0.67705,-0.13672 1.3541,1.19725 2.03115,1.05418 0.67704,-0.14308 1.35409,1.21589 2.03114,1.06645 0.67705,-0.14944 1.3541,1.23554 2.03115,1.07975 0.67705,-0.1558 1.35409,1.2563 2.03114,1.09414 0.67705,-0.16215 1.3541,1.27828 2.03115,1.10977 0.67705,-0.16851 1.35409,1.3016 2.03114,1.12673 0.67705,-0.17487 1.3541,1.32641 2.03115,1.14518 0.67704,-0.18123 1.35409,1.35288 2.03114,1.16529 0.67705,-0.18759 1.3541,1.38121 2.03114,1.18726 0.67705,-0.19394 1.3541,1.41166 2.03115,1.21135 0.67705,-0.2003 1.3541,1.44449 2.03115,1.23783 0.67704,-0.20667 1.35409,1.48007 2.03114,1.26705 0.67705,-0.21303 1.3541,1.51883 2.03114,1.29945 0.67705,-0.21939 1.3541,1.5613 2.03115,1.33556 0.67705,-0.22574 1.3541,1.60815 2.03114,1.37605 0.67705,-0.2321 1.3541,1.66025 2.03115,1.42179 0.67705,-0.23846 1.35409,1.71869 2.03115,1.47387 0.67704,-0.24482 1.35409,1.78497 2.03114,1.53379 0.67705,-0.25118 1.3541,1.8611 2.03114,1.60356 0.67705,-0.25754 1.3541,1.94991 2.03115,1.68602 0.67705,-0.2639 1.35409,2.05553 2.03114,1.78528 0.67705,-0.27026 1.3541,2.18426 2.03115,1.90764 0.67705,-0.27661 1.35409,2.34628 2.03114,2.06331 0.67705,-0.28297 1.3541,2.55945 2.03115,2.27012 0.67705,-0.28933 1.35409,2.85883 2.03114,2.56314 0.67705,-0.29569 1.3541,3.32653 2.03115,3.02448 0.67705,-0.30205 1.35409,4.2295 2.03114,3.92109 0.67705,-0.3084 1.3541,9.72637 2.03115,9.4116"
       style="fill:none;fill-opacity:0.92307691;stroke:#000000;stroke-width:0.6;stroke-linecap:butt;stroke-linejoin:round;stroke-miterlimit:4;stroke-dasharray:none;stroke-dashoffset:0;stroke-opacity:1;paint-order:normal"
       inkscape:export-xdpi="300.10001"
       inkscape:export-ydpi="300.10001" />
    <path
       style="fill:none;stroke:#000000;stroke-width:1;stroke-linecap:butt;stroke-linejoin:miter;stroke-opacity:1;stroke-miterlimit:4;stroke-dasharray:none;marker-end:url(#marker1362)"
       d="m 105.83333,381.66667 c 0,-645.58334 0,-645.58334 0,-645.58334"
       id="path1352"
       inkscape:connector-curvature="0"
       inkscape:export-xdpi="300.10001"
       inkscape:export-ydpi="300.10001" />
    <path
       style="fill:none;stroke:#000000;stroke-width:1;stroke-linecap:butt;stroke-linejoin:miter;stroke-miterlimit:4;stroke-dasharray:6.00000017, 6.00000017;stroke-dashoffset:0;stroke-opacity:1"
       d="m 4.7625015,381.66666 c 0,-645.58335 0,-645.58335 0,-645.58335"
       id="path1352-7"
       inkscape:connector-curvature="0"
       inkscape:export-xdpi="300.10001"
       inkscape:export-ydpi="300.10001" />
    <path
       style="fill:none;stroke:#000000;stroke-width:1;stroke-linecap:butt;stroke-linejoin:miter;stroke-miterlimit:4;stroke-dasharray:6.00000023, 6.00000023;stroke-dashoffset:0;stroke-opacity:1"
       d="m 206.37503,392.24999 c 0,-645.58336 0,-645.58336 0,-645.58336"
       id="path1352-7-6"
       inkscape:connector-curvature="0"
       inkscape:export-xdpi="300.10001"
       inkscape:export-ydpi="300.10001" />
    <g
       title="\Large$x$"
       style="fill:#000000"
       id="equation_00"
       transform="translate(162.53324,101.76991)"
       inkscape:export-xdpi="300.10001"
       inkscape:export-ydpi="300.10001">
      <defs
         id="defs1701">
        <path
           d="m 6.800097,-5.853248 c -0.459079,0.086077 -0.631233,0.430386 -0.631233,0.702964 0,0.344308 0.272578,0.459078 0.473425,0.459078 0.430385,0 0.731656,-0.373001 0.731656,-0.760348 0,-0.602541 -0.688618,-0.875118 -1.291158,-0.875118 -0.875118,0 -1.362889,0.860771 -1.492004,1.133349 -0.329963,-1.075965 -1.219427,-1.133349 -1.477659,-1.133349 -1.463311,0 -2.238006,1.879351 -2.238006,2.194968 0,0.057384 0.057385,0.129115 0.157808,0.129115 0.11477,0 0.143462,-0.086077 0.172154,-0.143462 0.487771,-1.592427 1.448966,-1.893697 1.865006,-1.893697 0.645579,0 0.774694,0.60254 0.774694,0.946849 0,0.315616 -0.086077,0.645578 -0.258231,1.334196 l -0.487771,1.965429 c -0.215193,0.860771 -0.631232,1.649812 -1.391581,1.649812 -0.071731,0 -0.430386,0 -0.731656,-0.186501 0.516463,-0.100423 0.631233,-0.530809 0.631233,-0.702963 0,-0.286924 -0.215193,-0.459078 -0.487771,-0.459078 -0.344308,0 -0.71731,0.30127 -0.71731,0.760348 0,0.60254 0.674272,0.875118 1.291158,0.875118 0.688617,0 1.176388,-0.545155 1.477658,-1.13335 0.229539,0.846426 0.946849,1.13335 1.477658,1.13335 1.463312,0 2.238007,-1.879352 2.238007,-2.194968 0,-0.071731 -0.057385,-0.129116 -0.143462,-0.129116 -0.129116,0 -0.143462,0.071731 -0.186501,0.186501 -0.387347,1.262465 -1.219426,1.850659 -1.865005,1.850659 -0.502117,0 -0.774695,-0.373001 -0.774695,-0.961195 0,-0.315616 0.057385,-0.545156 0.286924,-1.492004 l 0.502117,-1.951083 c 0.215193,-0.860772 0.702964,-1.492004 1.362889,-1.492004 0.028692,0 0.430386,0 0.731656,0.1865 z"
           id="equation_00_00"
           inkscape:connector-curvature="0" />
      </defs>
      <g
         id="equation_00_g">
        <use
           id="use1703"
           xlink:href="#equation_00_00"
           y="62.764633"
           x="76.712326"
           width="100%"
           height="100%" />
      </g>
    </g>
    <g
       title="\Large$y$"
       style="fill:#000000"
       id="equation_01"
       transform="translate(5.9495123,-305.74789)"
       inkscape:export-xdpi="300.10001"
       inkscape:export-ydpi="300.10001">
      <defs
         id="defs1739">
        <path
           d="M 3.773049,1.606774 C 3.385702,2.151929 2.826201,2.6397 2.123237,2.6397 c -0.172154,0 -0.860772,-0.028692 -1.075965,-0.688617 0.043039,0.014346 0.11477,0.014346 0.143462,0.014346 0.430386,0 0.71731,-0.373001 0.71731,-0.702964 0,-0.329963 -0.272578,-0.444732 -0.487771,-0.444732 -0.229539,0 -0.731656,0.172155 -0.731656,0.875118 0,0.731656 0.616887,1.233773 1.43462,1.233773 1.43462,0 2.883585,-1.31985 3.285279,-2.912278 L 6.814443,-5.58067 c 0.014346,-0.071731 0.043039,-0.157808 0.043039,-0.243885 0,-0.215193 -0.172155,-0.358655 -0.387348,-0.358655 -0.129116,0 -0.430386,0.057384 -0.545155,0.48777 L 4.86336,-1.477658 c -0.071731,0.258231 -0.071731,0.286924 -0.1865,0.444732 -0.286924,0.401693 -0.760349,0.889464 -1.448966,0.889464 -0.803387,0 -0.875118,-0.789041 -0.875118,-1.176388 0,-0.817733 0.387347,-1.92239 0.774695,-2.955316 0.157808,-0.41604 0.243885,-0.616887 0.243885,-0.903811 0,-0.60254 -0.430386,-1.147695 -1.133349,-1.147695 -1.31985,0 -1.85066,2.080198 -1.85066,2.194968 0,0.057384 0.057385,0.129115 0.157808,0.129115 0.129116,0 0.143462,-0.057384 0.200847,-0.258231 0.344309,-1.205081 0.889464,-1.778928 1.448966,-1.778928 0.129116,0 0.373001,0 0.373001,0.473424 0,0.373001 -0.157808,0.789041 -0.373001,1.334196 -0.702964,1.879352 -0.702964,2.352776 -0.702964,2.697085 0,1.362889 0.975542,1.678505 1.692851,1.678505 0.41604,0 0.932503,-0.129116 1.43462,-0.659925 l 0.014346,0.014346 C 4.418628,0.344309 4.275166,0.90381 3.773049,1.606774 Z"
           id="equation_01_00"
           inkscape:connector-curvature="0" />
      </defs>
      <g
         id="equation_01_g">
        <use
           id="use1741"
           xlink:href="#equation_01_00"
           y="62.764633"
           x="76.712326"
           width="100%"
           height="100%" />
      </g>
    </g>
    <g
       title="\Large$-1$"
       style="fill:#000000"
       id="equation_02"
       transform="translate(-66.641817,72.745683)"
       inkscape:export-xdpi="300.10001"
       inkscape:export-ydpi="300.10001">
      <defs
         id="defs1783">
        <path
           d="m 9.454143,-3.299625 c 0.243885,0 0.502117,0 0.502117,-0.286924 0,-0.286924 -0.258232,-0.286924 -0.502117,-0.286924 H 1.692851 c -0.243885,0 -0.502117,0 -0.502117,0.286924 0,0.286924 0.258232,0.286924 0.502117,0.286924 z"
           id="equation_02_00"
           inkscape:connector-curvature="0" />
        <path
           d="m 4.131704,-9.195911 c 0,-0.329963 0,-0.344309 -0.286924,-0.344309 -0.344308,0.387347 -1.061618,0.918156 -2.539276,0.918156 v 0.41604 c 0.329962,0 1.047272,0 1.836313,-0.373001 v 7.474368 c 0,0.516463 -0.043039,0.688617 -1.305504,0.688617 H 1.391581 V 0 c 0.387347,-0.028692 1.778928,-0.028692 2.252353,-0.028692 0.473425,0 1.850659,0 2.238006,0.028692 V -0.41604 H 5.437208 c -1.262465,0 -1.305504,-0.172154 -1.305504,-0.688617 z"
           id="equation_02_01"
           inkscape:connector-curvature="0" />
      </defs>
      <g
         id="equation_02_g">
        <use
           id="use1785"
           xlink:href="#equation_02_00"
           y="62.764633"
           x="76.712326"
           width="100%"
           height="100%" />
        <use
           id="use1787"
           xlink:href="#equation_02_01"
           y="62.764633"
           x="87.870522"
           width="100%"
           height="100%" />
      </g>
    </g>
    <g
       title="\Large$1$"
       style="fill:#000000"
       id="equation_03"
       transform="translate(110.53473,95.916658)"
       inkscape:export-xdpi="300.10001"
       inkscape:export-ydpi="300.10001">
      <defs
         id="defs1837">
        <path
           d="m 4.131704,-9.195911 c 0,-0.329963 0,-0.344309 -0.286924,-0.344309 -0.344308,0.387347 -1.061618,0.918156 -2.539276,0.918156 v 0.41604 c 0.329962,0 1.047272,0 1.836313,-0.373001 v 7.474368 c 0,0.516463 -0.043039,0.688617 -1.305504,0.688617 H 1.391581 V 0 c 0.387347,-0.028692 1.778928,-0.028692 2.252353,-0.028692 0.473425,0 1.850659,0 2.238006,0.028692 V -0.41604 H 5.437208 c -1.262465,0 -1.305504,-0.172154 -1.305504,-0.688617 z"
           id="equation_03_00"
           inkscape:connector-curvature="0" />
      </defs>
      <g
         id="equation_03_g">
        <use
           id="use1839"
           xlink:href="#equation_03_00"
           y="62.764633"
           x="76.712326"
           width="100%"
           height="100%" />
      </g>
    </g>
    <path
       style="fill:none;stroke:#000000;stroke-width:0.77974355;stroke-linecap:butt;stroke-linejoin:miter;stroke-miterlimit:4;stroke-dasharray:0.77974356, 1.55948712;stroke-dashoffset:0;stroke-opacity:1"
       d="m 5.2916667,72.10416 c 201.0833333,0 201.0833333,0 201.0833333,0"
       id="path1851"
       inkscape:connector-curvature="0"
       inkscape:export-xdpi="300.10001"
       inkscape:export-ydpi="300.10001" />
    <path
       style="fill:none;stroke:#000000;stroke-width:0.77974355;stroke-linecap:butt;stroke-linejoin:miter;stroke-miterlimit:4;stroke-dasharray:0.77974357, 1.55948714;stroke-dashoffset:0;stroke-opacity:1"
       d="m 5.2916667,-76.062508 c 201.0833433,0 201.0833433,0 201.0833433,0"
       id="path1851-4"
       inkscape:connector-curvature="0"
       inkscape:export-xdpi="300.10001"
       inkscape:export-ydpi="300.10001" />
    <path
       style="fill:none;stroke:#000000;stroke-width:0.77974355;stroke-linecap:butt;stroke-linejoin:miter;stroke-miterlimit:4;stroke-dasharray:0.77974357, 1.55948714;stroke-dashoffset:0;stroke-opacity:1"
       d="m 5.2916667,220.27083 c 201.0833433,0 201.0833433,0 201.0833433,0"
       id="path1851-7"
       inkscape:connector-curvature="0"
       inkscape:export-xdpi="300.10001"
       inkscape:export-ydpi="300.10001" />
    <g
       title="\Large$\frac{\pi}{2}$"
       style="fill:#000000"
       id="equation_04"
       transform="translate(11.30574,-0.59000473)"
       inkscape:export-xdpi="300.10001"
       inkscape:export-ydpi="300.10001">
      <defs
         id="defs1919">
        <path
           d="m 2.6401,-3.716065 h 1.125778 c -0.328767,1.474471 -0.418431,1.902865 -0.418431,2.570361 0,0.14944 0,0.418431 0.079701,0.757161 0.099627,0.438356 0.209216,0.498132 0.358655,0.498132 0.199253,0 0.408468,-0.179327 0.408468,-0.37858 0,-0.059776 0,-0.079701 -0.059775,-0.219178 -0.288917,-0.71731 -0.288917,-1.364882 -0.288917,-1.643836 0,-0.52802 0.069739,-1.066002 0.179328,-1.58406 h 1.135741 c 0.129514,0 0.488169,0 0.488169,-0.33873 0,-0.239103 -0.209216,-0.239103 -0.398506,-0.239103 H 1.912827 c -0.219178,0 -0.597759,0 -1.036115,0.468244 -0.348692,0.388543 -0.607721,0.846825 -0.607721,0.896638 0,0.00996 0,0.099626 0.119552,0.099626 0.079701,0 0.099626,-0.03985 0.159402,-0.119551 0.48817,-0.767124 1.066003,-0.767124 1.265255,-0.767124 h 0.567871 c -0.318804,1.20548 -0.856787,2.410959 -1.275218,3.317559 -0.079701,0.14944 -0.079701,0.169365 -0.079701,0.239104 0,0.18929 0.159402,0.268991 0.288916,0.268991 0.29888,0 0.378581,-0.278954 0.498132,-0.647572 0.139477,-0.458281 0.139477,-0.478206 0.268992,-0.976338 z"
           id="equation_04_00"
           inkscape:connector-curvature="0" />
        <path
           d="m 1.265255,-0.767123 1.05604,-1.026152 c 1.554172,-1.374845 2.15193,-1.912827 2.15193,-2.909091 0,-1.135741 -0.896637,-1.932752 -2.112079,-1.932752 -1.125779,0 -1.863014,0.916563 -1.863014,1.803238 0,0.557907 0.498132,0.557907 0.52802,0.557907 0.169365,0 0.518057,-0.119551 0.518057,-0.52802 0,-0.259028 -0.179327,-0.518057 -0.52802,-0.518057 -0.079701,0 -0.099626,0 -0.129514,0.00996 0.229141,-0.647572 0.767123,-1.016189 1.344956,-1.016189 0.906601,0 1.334994,0.806973 1.334994,1.62391 0,0.797011 -0.498132,1.58406 -1.046077,2.201743 L 0.607721,-0.368618 C 0.498132,-0.259029 0.498132,-0.239103 0.498132,0 H 4.194271 L 4.473225,-1.733499 H 4.224159 c -0.049813,0.298879 -0.119551,0.737235 -0.219178,0.886675 -0.069738,0.079701 -0.727272,0.079701 -0.94645,0.079701 z"
           id="equation_04_01"
           inkscape:connector-curvature="0" />
      </defs>
      <g
         id="equation_04_g">
        <use
           id="use1921"
           xlink:href="#equation_04_00"
           y="57.116077"
           x="77.907845"
           width="100%"
           height="100%" />
        <rect
           id="rect1923"
           width="6.0364151"
           height="0.57382202"
           y="58.891174"
           x="77.907845" />
        <use
           id="use1925"
           xlink:href="#equation_04_01"
           y="67.711761"
           x="78.435387"
           width="100%"
           height="100%" />
      </g>
    </g>
    <g
       title="\Large$-\frac{\pi}{2}$"
       style="fill:#000000"
       id="equation_05"
       transform="translate(6.1839676,147.57666)"
       inkscape:export-xdpi="300.10001"
       inkscape:export-ydpi="300.10001">
      <defs
         id="defs1994">
        <path
           d="m 9.454143,-3.299625 c 0.243885,0 0.502117,0 0.502117,-0.286924 0,-0.286924 -0.258232,-0.286924 -0.502117,-0.286924 H 1.692851 c -0.243885,0 -0.502117,0 -0.502117,0.286924 0,0.286924 0.258232,0.286924 0.502117,0.286924 z"
           id="equation_05_00"
           inkscape:connector-curvature="0" />
        <path
           d="m 2.6401,-3.716065 h 1.125778 c -0.328767,1.474471 -0.418431,1.902865 -0.418431,2.570361 0,0.14944 0,0.418431 0.079701,0.757161 0.099627,0.438356 0.209216,0.498132 0.358655,0.498132 0.199253,0 0.408468,-0.179327 0.408468,-0.37858 0,-0.059776 0,-0.079701 -0.059775,-0.219178 -0.288917,-0.71731 -0.288917,-1.364882 -0.288917,-1.643836 0,-0.52802 0.069739,-1.066002 0.179328,-1.58406 h 1.135741 c 0.129514,0 0.488169,0 0.488169,-0.33873 0,-0.239103 -0.209216,-0.239103 -0.398506,-0.239103 H 1.912827 c -0.219178,0 -0.597759,0 -1.036115,0.468244 -0.348692,0.388543 -0.607721,0.846825 -0.607721,0.896638 0,0.00996 0,0.099626 0.119552,0.099626 0.079701,0 0.099626,-0.03985 0.159402,-0.119551 0.48817,-0.767124 1.066003,-0.767124 1.265255,-0.767124 h 0.567871 c -0.318804,1.20548 -0.856787,2.410959 -1.275218,3.317559 -0.079701,0.14944 -0.079701,0.169365 -0.079701,0.239104 0,0.18929 0.159402,0.268991 0.288916,0.268991 0.29888,0 0.378581,-0.278954 0.498132,-0.647572 0.139477,-0.458281 0.139477,-0.478206 0.268992,-0.976338 z"
           id="equation_05_01"
           inkscape:connector-curvature="0" />
        <path
           d="m 1.265255,-0.767123 1.05604,-1.026152 c 1.554172,-1.374845 2.15193,-1.912827 2.15193,-2.909091 0,-1.135741 -0.896637,-1.932752 -2.112079,-1.932752 -1.125779,0 -1.863014,0.916563 -1.863014,1.803238 0,0.557907 0.498132,0.557907 0.52802,0.557907 0.169365,0 0.518057,-0.119551 0.518057,-0.52802 0,-0.259028 -0.179327,-0.518057 -0.52802,-0.518057 -0.079701,0 -0.099626,0 -0.129514,0.00996 0.229141,-0.647572 0.767123,-1.016189 1.344956,-1.016189 0.906601,0 1.334994,0.806973 1.334994,1.62391 0,0.797011 -0.498132,1.58406 -1.046077,2.201743 L 0.607721,-0.368618 C 0.498132,-0.259029 0.498132,-0.239103 0.498132,0 H 4.194271 L 4.473225,-1.733499 H 4.224159 c -0.049813,0.298879 -0.119551,0.737235 -0.219178,0.886675 -0.069738,0.079701 -0.727272,0.079701 -0.94645,0.079701 z"
           id="equation_05_02"
           inkscape:connector-curvature="0" />
      </defs>
      <g
         id="equation_05_g">
        <use
           id="use1996"
           xlink:href="#equation_05_00"
           y="62.764633"
           x="76.712326"
           width="100%"
           height="100%" />
        <use
           id="use1998"
           xlink:href="#equation_05_01"
           y="57.116077"
           x="89.066032"
           width="100%"
           height="100%" />
        <rect
           id="rect2000"
           width="6.0364151"
           height="0.57382202"
           y="58.891174"
           x="89.066032" />
        <use
           id="use2002"
           xlink:href="#equation_05_02"
           y="67.711761"
           x="89.593582"
           width="100%"
           height="100%" />
      </g>
    </g>
    <g
       title="\Large$\pi$"
       style="fill:#000000"
       id="equation_06"
       transform="translate(15.413843,-146.81139)"
       inkscape:export-xdpi="300.10001"
       inkscape:export-ydpi="300.10001">
      <defs
         id="defs2081">
        <path
           d="m 3.715665,-5.408516 h 1.62112 c -0.387347,1.606774 -0.631233,2.654046 -0.631233,3.801742 0,0.200847 0,1.750236 0.588194,1.750236 0.30127,0 0.559502,-0.272578 0.559502,-0.516463 0,-0.071731 0,-0.100423 -0.100424,-0.315616 -0.387347,-0.989888 -0.387347,-2.223661 -0.387347,-2.324084 0,-0.086077 0,-1.104657 0.30127,-2.395815 h 1.606774 c 0.186501,0 0.659925,0 0.659925,-0.459078 0,-0.315616 -0.272578,-0.315616 -0.530809,-0.315616 H 2.682739 c -0.329963,0 -0.817734,0 -1.477659,0.702963 -0.373001,0.41604 -0.832079,1.176388 -0.832079,1.262465 0,0.086077 0.071731,0.11477 0.157808,0.11477 0.100424,0 0.11477,-0.043039 0.186501,-0.129116 0.746002,-1.176388 1.492004,-1.176388 1.850659,-1.176388 h 0.817733 c -0.315616,1.075965 -0.674271,2.324084 -1.850659,4.834668 -0.11477,0.229539 -0.11477,0.258232 -0.11477,0.344309 0,0.30127 0.258232,0.373001 0.387348,0.373001 0.416039,0 0.530809,-0.373001 0.702963,-0.975541 0.229539,-0.731656 0.229539,-0.760349 0.373001,-1.334197 z"
           id="equation_06_00"
           inkscape:connector-curvature="0" />
      </defs>
      <g
         id="equation_06_g">
        <use
           id="use2083"
           xlink:href="#equation_06_00"
           y="62.764633"
           x="76.712326"
           width="100%"
           height="100%" />
      </g>
    </g>
  </g>
</svg>
