<?xml version="1.0" encoding="UTF-8" standalone="no"?>
<!-- Created with Inkscape (http://www.inkscape.org/) -->

<svg
   xmlns:dc="http://purl.org/dc/elements/1.1/"
   xmlns:cc="http://creativecommons.org/ns#"
   xmlns:rdf="http://www.w3.org/1999/02/22-rdf-syntax-ns#"
   xmlns:svg="http://www.w3.org/2000/svg"
   xmlns="http://www.w3.org/2000/svg"
   xmlns:xlink="http://www.w3.org/1999/xlink"
   xmlns:sodipodi="http://sodipodi.sourceforge.net/DTD/sodipodi-0.dtd"
   xmlns:inkscape="http://www.inkscape.org/namespaces/inkscape"
   width="210mm"
   height="297mm"
   viewBox="0 0 210 297"
   version="1.1"
   id="svg8"
   inkscape:version="0.92.4 (5da689c313, 2019-01-14)"
   sodipodi:docname="関数の極限.svg">
  <defs
     id="defs2">
    <marker
       inkscape:stockid="Arrow1Lstart"
       orient="auto"
       refY="0.0"
       refX="0.0"
       id="Arrow1Lstart"
       style="overflow:visible"
       inkscape:isstock="true">
      <path
         id="path844"
         d="M 0.0,0.0 L 5.0,-5.0 L -12.5,0.0 L 5.0,5.0 L 0.0,0.0 z "
         style="fill-rule:evenodd;stroke:#000000;stroke-width:1pt;stroke-opacity:1;fill:#000000;fill-opacity:1"
         transform="scale(0.8) translate(12.5,0)" />
    </marker>
    <marker
       inkscape:isstock="true"
       style="overflow:visible;"
       id="marker2983"
       refX="0.0"
       refY="0.0"
       orient="auto"
       inkscape:stockid="Arrow1Lend">
      <path
         transform="scale(0.8) rotate(180) translate(12.5,0)"
         style="fill-rule:evenodd;stroke:#000000;stroke-width:1pt;stroke-opacity:1;fill:#000000;fill-opacity:1"
         d="M 0.0,0.0 L 5.0,-5.0 L -12.5,0.0 L 5.0,5.0 L 0.0,0.0 z "
         id="path2981" />
    </marker>
    <marker
       inkscape:stockid="Arrow2Mend"
       orient="auto"
       refY="0.0"
       refX="0.0"
       id="Arrow2Mend"
       style="overflow:visible;"
       inkscape:isstock="true">
      <path
         id="path871"
         style="fill-rule:evenodd;stroke-width:0.625;stroke-linejoin:round;stroke:#000000;stroke-opacity:1;fill:#000000;fill-opacity:1"
         d="M 8.7185878,4.0337352 L -2.2072895,0.016013256 L 8.7185884,-4.0017078 C 6.9730900,-1.6296469 6.9831476,1.6157441 8.7185878,4.0337352 z "
         transform="scale(0.6) rotate(180) translate(0,0)" />
    </marker>
    <marker
       inkscape:isstock="true"
       style="overflow:visible;"
       id="marker1309"
       refX="0.0"
       refY="0.0"
       orient="auto"
       inkscape:stockid="Arrow2Lend">
      <path
         transform="scale(1.1) rotate(180) translate(1,0)"
         d="M 8.7185878,4.0337352 L -2.2072895,0.016013256 L 8.7185884,-4.0017078 C 6.9730900,-1.6296469 6.9831476,1.6157441 8.7185878,4.0337352 z "
         style="fill-rule:evenodd;stroke-width:0.625;stroke-linejoin:round;stroke:#000000;stroke-opacity:1;fill:#000000;fill-opacity:1"
         id="path1307" />
    </marker>
    <marker
       inkscape:stockid="Arrow2Lend"
       orient="auto"
       refY="0.0"
       refX="0.0"
       id="Arrow2Lend"
       style="overflow:visible;"
       inkscape:isstock="true"
       inkscape:collect="always">
      <path
         id="path865"
         style="fill-rule:evenodd;stroke-width:0.625;stroke-linejoin:round;stroke:#000000;stroke-opacity:1;fill:#000000;fill-opacity:1"
         d="M 8.7185878,4.0337352 L -2.2072895,0.016013256 L 8.7185884,-4.0017078 C 6.9730900,-1.6296469 6.9831476,1.6157441 8.7185878,4.0337352 z "
         transform="scale(1.1) rotate(180) translate(1,0)" />
    </marker>
    <marker
       inkscape:isstock="true"
       style="overflow:visible;"
       id="marker1229"
       refX="0.0"
       refY="0.0"
       orient="auto"
       inkscape:stockid="Arrow1Lend">
      <path
         transform="scale(0.8) rotate(180) translate(12.5,0)"
         style="fill-rule:evenodd;stroke:#000000;stroke-width:1pt;stroke-opacity:1;fill:#000000;fill-opacity:1"
         d="M 0.0,0.0 L 5.0,-5.0 L -12.5,0.0 L 5.0,5.0 L 0.0,0.0 z "
         id="path1227" />
    </marker>
    <marker
       inkscape:isstock="true"
       style="overflow:visible;"
       id="marker1136"
       refX="0.0"
       refY="0.0"
       orient="auto"
       inkscape:stockid="Arrow1Lend">
      <path
         transform="scale(0.8) rotate(180) translate(12.5,0)"
         style="fill-rule:evenodd;stroke:#000000;stroke-width:1pt;stroke-opacity:1;fill:#000000;fill-opacity:1"
         d="M 0.0,0.0 L 5.0,-5.0 L -12.5,0.0 L 5.0,5.0 L 0.0,0.0 z "
         id="path1134" />
    </marker>
    <marker
       inkscape:stockid="Arrow1Lend"
       orient="auto"
       refY="0.0"
       refX="0.0"
       id="Arrow1Lend"
       style="overflow:visible;"
       inkscape:isstock="true"
       inkscape:collect="always">
      <path
         id="path847"
         d="M 0.0,0.0 L 5.0,-5.0 L -12.5,0.0 L 5.0,5.0 L 0.0,0.0 z "
         style="fill-rule:evenodd;stroke:#000000;stroke-width:1pt;stroke-opacity:1;fill:#000000;fill-opacity:1"
         transform="scale(0.8) rotate(180) translate(12.5,0)" />
    </marker>
  </defs>
  <sodipodi:namedview
     id="base"
     pagecolor="#ffffff"
     bordercolor="#666666"
     borderopacity="1.0"
     inkscape:pageopacity="0.0"
     inkscape:pageshadow="2"
     inkscape:zoom="0.7"
     inkscape:cx="727.08627"
     inkscape:cy="801.17571"
     inkscape:document-units="mm"
     inkscape:current-layer="layer1"
     showgrid="true"
     inkscape:window-width="1858"
     inkscape:window-height="1057"
     inkscape:window-x="-8"
     inkscape:window-y="-8"
     inkscape:window-maximized="1">
    <inkscape:grid
       type="xygrid"
       id="grid815" />
  </sodipodi:namedview>
  <metadata
     id="metadata5">
    <rdf:RDF>
      <cc:Work
         rdf:about="">
        <dc:format>image/svg+xml</dc:format>
        <dc:type
           rdf:resource="http://purl.org/dc/dcmitype/StillImage" />
        <dc:title></dc:title>
      </cc:Work>
    </rdf:RDF>
  </metadata>
  <g
     inkscape:label="レイヤー 1"
     inkscape:groupmode="layer"
     id="layer1">
    <path
       id="path836"
       title="x*x"
       d="m 5.2916667,48.291658 c 0.6770482,0.979939 1.3540965,4.8502 2.0311447,5.805392 0.6770483,0.955193 1.3540965,4.72647 2.0311448,5.656917 0.6770478,0.930446 1.3540968,4.60274 2.0311448,5.50844 0.677048,0.905701 1.354096,4.479011 2.031145,5.359966 0.677048,0.880954 1.354096,4.355281 2.031144,5.21149 0.677049,0.856208 1.354097,4.231551 2.031145,5.063014 0.677048,0.831463 1.354097,4.107822 2.031145,4.914539 0.677048,0.806717 1.354096,3.984093 2.031145,4.766063 0.677048,0.781971 1.354096,3.860363 2.031144,4.617588 0.677049,0.757225 1.354097,3.736634 2.031145,4.469113 0.677048,0.73248 1.354097,3.6129 2.031145,4.32064 0.677048,0.70773 1.354096,3.48917 2.031145,4.17216 0.677048,0.68299 1.354096,3.36544 2.031144,4.02368 0.677049,0.65825 1.354097,3.24172 2.031145,3.87521 0.677048,0.6335 1.354097,3.11799 2.031145,3.72674 0.677048,0.60875 1.354096,2.99426 2.031145,3.57826 0.677048,0.584 1.354096,2.87053 2.031144,3.42978 0.677049,0.55926 1.354097,2.7468 2.031145,3.28131 0.677048,0.53451 1.354097,2.62307 2.031145,3.13283 0.677048,0.50977 1.354096,2.49934 2.031145,2.98436 0.677048,0.48502 1.354096,2.37561 2.031144,2.83588 0.677049,0.46028 1.354097,2.25188 2.031145,2.68741 0.677048,0.43553 1.354097,2.12815 2.031145,2.53893 0.677048,0.41078 1.354096,2.00442 2.031145,2.39046 0.677048,0.38603 1.354096,1.88069 2.031144,2.24198 0.677049,0.36129 1.354097,1.75696 2.031145,2.0935 0.677048,0.33655 1.354097,1.63323 2.031145,1.94503 0.677048,0.3118 1.354096,1.5095 2.031145,1.79655 0.677048,0.28706 1.354096,1.38577 2.031144,1.64808 0.677049,0.26231 1.354097,1.26204 2.031145,1.4996 0.677048,0.23756 1.354097,1.13832 2.031145,1.35113 0.677048,0.21282 1.354096,1.01458 2.031145,1.20265 0.677048,0.18807 1.354096,0.89086 2.031144,1.05418 0.677049,0.16332 1.354097,0.76712 2.031145,0.9057 0.677048,0.13858 1.354097,0.64339 2.031145,0.75722 0.677048,0.11384 1.354096,0.51967 2.031145,0.60875 0.677048,0.0891 1.354096,0.39594 2.031144,0.46028 0.677049,0.0643 1.354097,0.2722 2.031145,0.3118 0.677048,0.0396 1.354097,0.14847 2.031145,0.16332 0.677048,0.0148 1.354096,0.0247 2.031145,0.0148 0.677048,-0.01 1.354096,-0.099 2.031144,-0.13363 0.677049,-0.0346 1.354097,-0.22271 2.031145,-0.2821 0.677048,-0.0594 1.354097,-0.34645 2.031145,-0.43058 0.677048,-0.0841 1.354096,-0.47018 2.031145,-0.57906 0.677048,-0.10888 1.354096,-0.5939 2.031144,-0.72753 0.677049,-0.13363 1.354097,-0.71763 2.031145,-0.876 0.677048,-0.15838 1.354095,-0.84136 2.031145,-1.02448 0.67705,-0.18312 1.3541,-0.96509 2.03114,-1.17296 0.67705,-0.20787 1.3541,-1.08882 2.03115,-1.32143 0.67705,-0.23261 1.3541,-1.21255 2.03114,-1.46991 0.67705,-0.25736 1.3541,-1.33628 2.03115,-1.61838 0.67705,-0.28211 1.3541,-1.46001 2.03114,-1.76686 0.67705,-0.30685 1.3541,-1.58374 2.03115,-1.91534 0.67705,-0.33159 1.35409,-1.70746 2.03114,-2.0638 0.67705,-0.35635 1.3541,-1.8312 2.03115,-2.21229 0.67705,-0.38109 1.35409,-1.95493 2.03114,-2.36076 0.67705,-0.40583 1.3541,-2.07866 2.03115,-2.50924 0.67705,-0.43057 1.35409,-2.20238 2.03114,-2.65771 0.67705,-0.45532 1.3541,-2.32611 2.03115,-2.80618 0.67705,-0.48007 1.35409,-2.44985 2.03114,-2.95467 0.67705,-0.50481 1.3541,-2.57357 2.03115,-3.10313 0.67704,-0.52957 1.35409,-2.69731 2.03114,-3.25162 0.67705,-0.55431 1.3541,-2.82103 2.03115,-3.40009 0.67704,-0.57905 1.35409,-2.94476 2.03114,-3.54856 0.67705,-0.6038 1.3541,-3.06849 2.03115,-3.69704 0.67704,-0.62855 1.35409,-3.19222 2.03114,-3.84552 0.67705,-0.65329 1.3541,-3.31595 2.03114,-3.99399 0.67705,-0.67803 1.3541,-3.43968 2.03115,-4.14246 0.67705,-0.70279 1.3541,-3.56341 2.03114,-4.29094 0.67705,-0.727535 1.3541,-3.687146 2.03115,-4.439422 0.67705,-0.752276 1.3541,-3.810871 2.03114,-4.587893 0.67705,-0.777022 1.3541,-3.934601 2.03115,-4.736368 0.67705,-0.801768 1.35409,-4.05833 2.03114,-4.884844 0.67705,-0.826514 1.3541,-4.18206 2.03115,-5.033319 0.67705,-0.85126 1.35409,-4.30579 2.03114,-5.181795 0.67705,-0.876006 1.3541,-4.429519 2.03115,-5.33027 0.67705,-0.900752 1.35409,-4.553249 2.03114,-5.478746 0.67705,-0.925497 1.3541,-4.676978 2.03115,-5.627222 0.67705,-0.950243 1.35409,-4.800707 2.03114,-5.775696 0.67705,-0.974989 1.3541,-4.924438 2.03115,-5.924173 0.67704,-0.999735 1.35409,-5.048166 2.03114,-6.072647 0.67705,-1.024481 1.3541,-5.171897 2.03115,-6.221124 0.67704,-1.049226 1.35409,-5.295626 2.03114,-6.369598 0.67705,-1.073973 1.3541,-5.419356 2.03115,-6.518075 0.67704,-1.098718 1.35409,-5.543085 2.03114,-6.666549 0.67705,-1.123465 1.3541,-5.6668152 2.03114,-6.8150257 0.67705,-1.1482105 1.3541,-5.7905443 2.03115,-6.9635007 0.67705,-1.1729564 1.3541,-5.9142739 2.03114,-7.1119763 0.67705,-1.1977023 1.3541,-6.0380033 2.03115,-7.2604513 0.67705,-1.222449 1.3541,-6.161733 2.03114,-7.408928 0.67705,-1.247194 1.3541,-6.285462 2.03115,-7.557402 0.67705,-1.27194 1.3541,-6.409193 2.03114,-7.705879 0.67705,-1.296686 1.3541,-6.532921 2.03115,-7.854353 0.67705,-1.321432 1.35409,-6.656652 2.03114,-8.00283 0.67705,-1.346177 1.3541,-6.780381 2.03115,-8.151304 0.67705,-1.370924 1.35409,-6.904111 2.03114,-8.29978 0.67705,-1.39567 1.3541,-7.027841 2.03115,-8.448256 0.67705,-1.420416 1.35409,-7.15157 2.03114,-8.596731 0.67705,-1.445162 1.3541,-7.2753 2.03115,-8.745207"
       style="fill:none;fill-opacity:1;stroke:#000000;stroke-width:0.60000002;stroke-linecap:butt;stroke-linejoin:round;stroke-miterlimit:4;stroke-dasharray:none;stroke-dashoffset:0;stroke-opacity:1;paint-order:normal"
       inkscape:connector-curvature="0" />
    <path
       style="fill:none;stroke:#000000;stroke-width:0.6;stroke-linecap:butt;stroke-linejoin:miter;stroke-opacity:1;stroke-miterlimit:4;stroke-dasharray:none;marker-end:url(#Arrow1Lend)"
       d="m 0,164.70832 c 206.375,0 206.375,0 206.375,0"
       id="path842"
       inkscape:connector-curvature="0" />
    <path
       style="fill:none;stroke:#000000;stroke-width:0.63532388;stroke-linecap:butt;stroke-linejoin:miter;stroke-miterlimit:4;stroke-dasharray:none;stroke-opacity:1;marker-end:url(#marker1136)"
       d="M 85.989582,201.74999 V 5.9583248"
       id="path1126"
       inkscape:connector-curvature="0" />
    <path
       style="fill:none;stroke:#000000;stroke-width:0.6;stroke-linecap:butt;stroke-linejoin:miter;stroke-opacity:1;stroke-miterlimit:4;stroke-dasharray:1.8,1.8;stroke-dashoffset:0"
       d="m 148.16666,164.70832 v -70.11458 0 0"
       id="path1204"
       inkscape:connector-curvature="0" />
    <path
       style="fill:none;stroke:#000000;stroke-width:0.6;stroke-linecap:butt;stroke-linejoin:miter;stroke-opacity:1;stroke-miterlimit:4;stroke-dasharray:1.8,1.8;stroke-dashoffset:0"
       d="m 148.16666,94.59374 c -62.177078,0 -62.177078,0 -62.177078,0"
       id="path1206"
       inkscape:connector-curvature="0" />
    <ellipse
       style="fill:#ffffff;fill-opacity:1;stroke:#000000;stroke-width:0.16221067;stroke-linecap:butt;stroke-linejoin:round;stroke-miterlimit:4;stroke-dasharray:none;stroke-dashoffset:0;stroke-opacity:1;paint-order:normal"
       id="path1208"
       cx="148.14772"
       cy="94.570099"
       rx="1.610338"
       ry="1.6339614" />
    <path
       style="fill:none;stroke:#000000;stroke-width:0.26499999;stroke-linecap:butt;stroke-linejoin:miter;stroke-miterlimit:4;stroke-dasharray:none;stroke-opacity:1;marker-end:url(#Arrow2Lend)"
       d="m 132.15024,112.41363 c 8.07893,-13.143272 8.07893,-13.143272 8.07893,-13.143272"
       id="path1219"
       inkscape:connector-curvature="0" />
    <path
       style="fill:none;stroke:#000000;stroke-width:0.26458332px;stroke-linecap:butt;stroke-linejoin:miter;stroke-opacity:1;marker-end:url(#marker1309)"
       d="m 152.13542,74.749991 c -5.29167,13.229171 -5.29167,13.229171 -5.29167,13.229171"
       id="path1299"
       inkscape:connector-curvature="0" />
    <g
       title="\Large$a$"
       style="fill:#000000"
       id="equation_00"
       transform="translate(69.062165,111.01904)">
      <defs
         id="defs2624">
        <path
           d="m 4.318205,-1.707197 c -0.071731,0.243885 -0.071731,0.272577 -0.272578,0.545155 -0.315616,0.401694 -0.946849,1.01858 -1.62112,1.01858 -0.588194,0 -0.918156,-0.530809 -0.918156,-1.377235 0,-0.789041 0.444732,-2.395814 0.717309,-2.998355 0.487771,-1.004233 1.162042,-1.520696 1.721544,-1.520696 0.946849,0 1.133349,1.176388 1.133349,1.291157 0,0.014346 -0.043038,0.200847 -0.057385,0.229539 z M 5.236361,-5.379823 C 5.078553,-5.752824 4.691206,-6.326672 3.945204,-6.326672 c -1.62112,0 -3.371356,2.094544 -3.371356,4.217781 0,1.420274 0.832079,2.252353 1.80762,2.252353 0.789041,0 1.463312,-0.616886 1.865006,-1.090311 0.143462,0.846426 0.817733,1.090311 1.248119,1.090311 0.430386,0 0.774695,-0.258232 1.032926,-0.774695 0.229539,-0.48777 0.430386,-1.362888 0.430386,-1.420273 0,-0.071731 -0.057385,-0.129116 -0.143462,-0.129116 -0.129116,0 -0.143462,0.071731 -0.200847,0.286924 -0.215193,0.846426 -0.48777,1.750236 -1.075964,1.750236 -0.41604,0 -0.444733,-0.373001 -0.444733,-0.659925 0,-0.329962 0.043039,-0.487771 0.172155,-1.047272 0.100423,-0.358655 0.172154,-0.674271 0.286924,-1.090311 0.530809,-2.151929 0.659925,-2.668393 0.659925,-2.75447 0,-0.200846 -0.157808,-0.358655 -0.373001,-0.358655 -0.459079,0 -0.573848,0.502117 -0.602541,0.674272 z"
           id="equation_00_00"
           inkscape:connector-curvature="0" />
      </defs>
      <g
         id="equation_00_g">
        <use
           id="use2626"
           xlink:href="#equation_00_00"
           y="62.764633"
           x="76.712326"
           width="100%"
           height="100%" />
      </g>
    </g>
    <g
       title="\Large$x$"
       style="fill:#000000"
       id="equation_01"
       transform="translate(118.53782,112.78155)">
      <defs
         id="defs2666">
        <path
           d="m 6.800097,-5.853248 c -0.459079,0.086077 -0.631233,0.430386 -0.631233,0.702964 0,0.344308 0.272578,0.459078 0.473425,0.459078 0.430385,0 0.731656,-0.373001 0.731656,-0.760348 0,-0.602541 -0.688618,-0.875118 -1.291158,-0.875118 -0.875118,0 -1.362889,0.860771 -1.492004,1.133349 -0.329963,-1.075965 -1.219427,-1.133349 -1.477659,-1.133349 -1.463311,0 -2.238006,1.879351 -2.238006,2.194968 0,0.057384 0.057385,0.129115 0.157808,0.129115 0.11477,0 0.143462,-0.086077 0.172154,-0.143462 0.487771,-1.592427 1.448966,-1.893697 1.865006,-1.893697 0.645579,0 0.774694,0.60254 0.774694,0.946849 0,0.315616 -0.086077,0.645578 -0.258231,1.334196 l -0.487771,1.965429 c -0.215193,0.860771 -0.631232,1.649812 -1.391581,1.649812 -0.071731,0 -0.430386,0 -0.731656,-0.186501 0.516463,-0.100423 0.631233,-0.530809 0.631233,-0.702963 0,-0.286924 -0.215193,-0.459078 -0.487771,-0.459078 -0.344308,0 -0.71731,0.30127 -0.71731,0.760348 0,0.60254 0.674272,0.875118 1.291158,0.875118 0.688617,0 1.176388,-0.545155 1.477658,-1.13335 0.229539,0.846426 0.946849,1.13335 1.477658,1.13335 1.463312,0 2.238007,-1.879352 2.238007,-2.194968 0,-0.071731 -0.057385,-0.129116 -0.143462,-0.129116 -0.129116,0 -0.143462,0.071731 -0.186501,0.186501 -0.387347,1.262465 -1.219426,1.850659 -1.865005,1.850659 -0.502117,0 -0.774695,-0.373001 -0.774695,-0.961195 0,-0.315616 0.057385,-0.545156 0.286924,-1.492004 l 0.502117,-1.951083 c 0.215193,-0.860772 0.702964,-1.492004 1.362889,-1.492004 0.028692,0 0.430386,0 0.731656,0.1865 z"
           id="equation_01_00"
           inkscape:connector-curvature="0" />
      </defs>
      <g
         id="equation_01_g">
        <use
           id="use2668"
           xlink:href="#equation_01_00"
           y="62.764633"
           x="76.712326"
           width="100%"
           height="100%" />
      </g>
    </g>
    <g
       title="\Large$y$"
       style="fill:#000000"
       id="equation_02"
       transform="translate(-3.773049,-48.565116)">
      <defs
         id="defs2713">
        <path
           d="M 3.773049,1.606774 C 3.385702,2.151929 2.826201,2.6397 2.123237,2.6397 c -0.172154,0 -0.860772,-0.028692 -1.075965,-0.688617 0.043039,0.014346 0.11477,0.014346 0.143462,0.014346 0.430386,0 0.71731,-0.373001 0.71731,-0.702964 0,-0.329963 -0.272578,-0.444732 -0.487771,-0.444732 -0.229539,0 -0.731656,0.172155 -0.731656,0.875118 0,0.731656 0.616887,1.233773 1.43462,1.233773 1.43462,0 2.883585,-1.31985 3.285279,-2.912278 L 6.814443,-5.58067 c 0.014346,-0.071731 0.043039,-0.157808 0.043039,-0.243885 0,-0.215193 -0.172155,-0.358655 -0.387348,-0.358655 -0.129116,0 -0.430386,0.057384 -0.545155,0.48777 L 4.86336,-1.477658 c -0.071731,0.258231 -0.071731,0.286924 -0.1865,0.444732 -0.286924,0.401693 -0.760349,0.889464 -1.448966,0.889464 -0.803387,0 -0.875118,-0.789041 -0.875118,-1.176388 0,-0.817733 0.387347,-1.92239 0.774695,-2.955316 0.157808,-0.41604 0.243885,-0.616887 0.243885,-0.903811 0,-0.60254 -0.430386,-1.147695 -1.133349,-1.147695 -1.31985,0 -1.85066,2.080198 -1.85066,2.194968 0,0.057384 0.057385,0.129115 0.157808,0.129115 0.129116,0 0.143462,-0.057384 0.200847,-0.258231 0.344309,-1.205081 0.889464,-1.778928 1.448966,-1.778928 0.129116,0 0.373001,0 0.373001,0.473424 0,0.373001 -0.157808,0.789041 -0.373001,1.334196 -0.702964,1.879352 -0.702964,2.352776 -0.702964,2.697085 0,1.362889 0.975542,1.678505 1.692851,1.678505 0.41604,0 0.932503,-0.129116 1.43462,-0.659925 l 0.014346,0.014346 C 4.418628,0.344309 4.275166,0.90381 3.773049,1.606774 Z"
           id="equation_02_00"
           inkscape:connector-curvature="0" />
      </defs>
      <g
         id="equation_02_g">
        <use
           id="use2715"
           xlink:href="#equation_02_00"
           y="62.764633"
           x="76.712326"
           width="100%"
           height="100%" />
      </g>
    </g>
    <g
       title="\Large$O$"
       style="fill:#000000"
       id="equation_03"
       transform="translate(-5.1236713,116.48782)">
      <defs
         id="defs2765">
        <path
           d="m 10.415338,-6.283634 c 0,-2.367122 -1.549389,-3.816088 -3.557856,-3.816088 -3.070086,0 -6.168865,3.299625 -6.168865,6.613596 0,2.252353 1.492005,3.787396 3.572203,3.787396 3.012701,0 6.154518,-3.141817 6.154518,-6.584904 z m -6.068441,6.254942 c -1.176388,0 -2.424507,-0.860772 -2.424507,-3.098779 0,-1.305503 0.473425,-3.443087 1.649813,-4.877706 1.047272,-1.262465 2.252352,-1.778928 3.213548,-1.778928 1.262465,0 2.481891,0.918156 2.481891,2.984008 0,1.276812 -0.545155,3.270933 -1.50635,4.633821 -1.047272,1.463312 -2.352776,2.137584 -3.414395,2.137584 z"
           id="equation_03_00"
           inkscape:connector-curvature="0" />
      </defs>
      <g
         id="equation_03_g">
        <use
           id="use2767"
           xlink:href="#equation_03_00"
           y="62.764633"
           x="76.712326"
           width="100%"
           height="100%" />
      </g>
    </g>
    <g
       title="\Large$A$"
       style="fill: black;"
       id="equation_04"
       inkscape:export-xdpi="300.10001"
       inkscape:export-ydpi="300.10001">
      <defs
         id="defs2822">
        <path
           d="M2.438853-1.592428C1.936736-.746002 1.448966-.459078 .760348-.41604C.60254-.401693 .487771-.401693 .487771-.143462C.487771-.057385 .559502 0 .659925 0C.918157 0 1.563735-.028692 1.821967-.028692C2.238007-.028692 2.697085 0 3.098778 0C3.184855 0 3.35701 0 3.35701-.272578C3.35701-.401693 3.24224-.41604 3.156163-.41604C2.826201-.444732 2.553623-.559502 2.553623-.90381C2.553623-1.104657 2.6397-1.262465 2.826201-1.578082L3.916511-3.385702H7.574791C7.589138-3.256586 7.589138-3.141817 7.603484-3.012701C7.646522-2.6397 7.818677-1.147696 7.818677-.875118C7.818677-.444732 7.087021-.41604 6.857482-.41604C6.699673-.41604 6.541865-.41604 6.541865-.157808C6.541865 0 6.670981 0 6.757058 0C7.000943 0 7.287867-.028692 7.531753-.028692H8.349486C9.224604-.028692 9.855836 0 9.870183 0C9.970606 0 10.128414 0 10.128414-.272578C10.128414-.41604 9.999298-.41604 9.784105-.41604C8.995065-.41604 8.980718-.545155 8.93768-.975541L8.062562-9.927567C8.03387-10.214491 7.976485-10.243184 7.818677-10.243184C7.675215-10.243184 7.589138-10.214491 7.460022-9.999298L2.438853-1.592428ZM4.160397-3.801742L7.043982-8.622064L7.531753-3.801742H4.160397Z"
           id="equation_04_00" />
      </defs>
      <g
         id="equation_04_g"
         transform="translate(-7.531753,36.2184)">
        <use
           id="use2824"
           xlink:href="#equation_04_00"
           y="62.764633"
           x="76.712326"
           width="100%"
           height="100%" />
      </g>
      <g
         title="\Large$y=f(x)$"
         style="fill:#000000"
         id="equation_05"
         transform="translate(30.24157,-25.230094)">
        <defs
           id="defs2888">
          <path
             d="m 6.398403,-5.767171 c 0.286924,0 0.401694,0 0.401694,-0.272577 0,-0.143462 -0.11477,-0.143462 -0.373001,-0.143462 H 5.265054 c 0.272578,-1.477658 0.473424,-2.496238 0.588194,-2.955317 0.086077,-0.344308 0.387347,-0.674271 0.760348,-0.674271 0.30127,0 0.60254,0.129116 0.746002,0.258232 -0.559501,0.057384 -0.731656,0.473424 -0.731656,0.717309 0,0.286924 0.215193,0.459079 0.487771,0.459079 0.286924,0 0.71731,-0.243886 0.71731,-0.789041 0,-0.60254 -0.60254,-0.932503 -1.233773,-0.932503 -0.616886,0 -1.219427,0.459079 -1.506351,1.01858 -0.258231,0.502117 -0.401693,1.01858 -0.731656,2.897932 H 3.400048 c -0.272577,0 -0.416039,0 -0.416039,0.258231 0,0.157808 0.086077,0.157808 0.373001,0.157808 H 4.275166 C 4.016935,-4.432974 3.428741,-1.190734 3.098778,0.344309 2.854893,1.592428 2.6397,2.6397 1.92239,2.6397 c -0.043038,0 -0.459078,0 -0.71731,-0.272578 0.731656,-0.057384 0.731656,-0.688617 0.731656,-0.702963 0,-0.286924 -0.215193,-0.459079 -0.48777,-0.459079 -0.286924,0 -0.71731,0.243886 -0.71731,0.789041 0,0.616887 0.631233,0.932503 1.190734,0.932503 1.463312,0 2.065852,-2.625354 2.223661,-3.342664 0.258231,-1.104657 0.961195,-4.920745 1.032926,-5.351131 z"
             id="equation_05_00"
             inkscape:connector-curvature="0" />
          <path
             d="m 6.800097,-5.853248 c -0.459079,0.086077 -0.631233,0.430386 -0.631233,0.702964 0,0.344308 0.272578,0.459078 0.473425,0.459078 0.430385,0 0.731656,-0.373001 0.731656,-0.760348 0,-0.602541 -0.688618,-0.875118 -1.291158,-0.875118 -0.875118,0 -1.362889,0.860771 -1.492004,1.133349 -0.329963,-1.075965 -1.219427,-1.133349 -1.477659,-1.133349 -1.463311,0 -2.238006,1.879351 -2.238006,2.194968 0,0.057384 0.057385,0.129115 0.157808,0.129115 0.11477,0 0.143462,-0.086077 0.172154,-0.143462 0.487771,-1.592427 1.448966,-1.893697 1.865006,-1.893697 0.645579,0 0.774694,0.60254 0.774694,0.946849 0,0.315616 -0.086077,0.645578 -0.258231,1.334196 l -0.487771,1.965429 c -0.215193,0.860771 -0.631232,1.649812 -1.391581,1.649812 -0.071731,0 -0.430386,0 -0.731656,-0.186501 0.516463,-0.100423 0.631233,-0.530809 0.631233,-0.702963 0,-0.286924 -0.215193,-0.459078 -0.487771,-0.459078 -0.344308,0 -0.71731,0.30127 -0.71731,0.760348 0,0.60254 0.674272,0.875118 1.291158,0.875118 0.688617,0 1.176388,-0.545155 1.477658,-1.13335 0.229539,0.846426 0.946849,1.13335 1.477658,1.13335 1.463312,0 2.238007,-1.879352 2.238007,-2.194968 0,-0.071731 -0.057385,-0.129116 -0.143462,-0.129116 -0.129116,0 -0.143462,0.071731 -0.186501,0.186501 -0.387347,1.262465 -1.219426,1.850659 -1.865005,1.850659 -0.502117,0 -0.774695,-0.373001 -0.774695,-0.961195 0,-0.315616 0.057385,-0.545156 0.286924,-1.492004 l 0.502117,-1.951083 c 0.215193,-0.860772 0.702964,-1.492004 1.362889,-1.492004 0.028692,0 0.430386,0 0.731656,0.1865 z"
             id="equation_05_01"
             inkscape:connector-curvature="0" />
          <path
             d="M 3.773049,1.606774 C 3.385702,2.151929 2.826201,2.6397 2.123237,2.6397 c -0.172154,0 -0.860772,-0.028692 -1.075965,-0.688617 0.043039,0.014346 0.11477,0.014346 0.143462,0.014346 0.430386,0 0.71731,-0.373001 0.71731,-0.702964 0,-0.329963 -0.272578,-0.444732 -0.487771,-0.444732 -0.229539,0 -0.731656,0.172155 -0.731656,0.875118 0,0.731656 0.616887,1.233773 1.43462,1.233773 1.43462,0 2.883585,-1.31985 3.285279,-2.912278 L 6.814443,-5.58067 c 0.014346,-0.071731 0.043039,-0.157808 0.043039,-0.243885 0,-0.215193 -0.172155,-0.358655 -0.387348,-0.358655 -0.129116,0 -0.430386,0.057384 -0.545155,0.48777 L 4.86336,-1.477658 c -0.071731,0.258231 -0.071731,0.286924 -0.1865,0.444732 -0.286924,0.401693 -0.760349,0.889464 -1.448966,0.889464 -0.803387,0 -0.875118,-0.789041 -0.875118,-1.176388 0,-0.817733 0.387347,-1.92239 0.774695,-2.955316 0.157808,-0.41604 0.243885,-0.616887 0.243885,-0.903811 0,-0.60254 -0.430386,-1.147695 -1.133349,-1.147695 -1.31985,0 -1.85066,2.080198 -1.85066,2.194968 0,0.057384 0.057385,0.129115 0.157808,0.129115 0.129116,0 0.143462,-0.057384 0.200847,-0.258231 0.344309,-1.205081 0.889464,-1.778928 1.448966,-1.778928 0.129116,0 0.373001,0 0.373001,0.473424 0,0.373001 -0.157808,0.789041 -0.373001,1.334196 -0.702964,1.879352 -0.702964,2.352776 -0.702964,2.697085 0,1.362889 0.975542,1.678505 1.692851,1.678505 0.41604,0 0.932503,-0.129116 1.43462,-0.659925 l 0.014346,0.014346 C 4.418628,0.344309 4.275166,0.90381 3.773049,1.606774 Z"
             id="equation_05_02"
             inkscape:connector-curvature="0" />
          <path
             d="m 4.662514,3.486126 c 0,-0.043039 0,-0.071731 -0.243886,-0.315617 -1.434619,-1.448966 -2.238006,-3.816088 -2.238006,-6.742712 0,-2.783162 0.674271,-5.178976 2.33843,-6.871827 0.143462,-0.129116 0.143462,-0.157809 0.143462,-0.200847 0,-0.08608 -0.071731,-0.11477 -0.129116,-0.11477 -0.186501,0 -1.362889,1.032926 -2.065852,2.438854 -0.731656,1.448965 -1.061619,2.984008 -1.061619,4.74859 0,1.276812 0.200847,2.984009 0.946849,4.519052 0.846426,1.721543 2.022814,2.654046 2.180622,2.654046 0.057385,0 0.129116,-0.028692 0.129116,-0.114769 z"
             id="equation_05_03"
             inkscape:connector-curvature="0" />
          <path
             d="m 4.045627,-3.572203 c 0,-1.090311 -0.143462,-2.869239 -0.946849,-4.533398 -0.846425,-1.721543 -2.022813,-2.654046 -2.180621,-2.654046 -0.057385,0 -0.129116,0.02869 -0.129116,0.11477 0,0.04304 0,0.07173 0.243885,0.315616 1.43462,1.448966 2.238007,3.816088 2.238007,6.742712 0,2.783162 -0.674272,5.178977 -2.33843,6.871828 -0.143462,0.129116 -0.143462,0.157808 -0.143462,0.200847 0,0.086077 0.071731,0.114769 0.129116,0.114769 0.1865,0 1.362888,-1.032926 2.065852,-2.438853 0.731656,-1.463312 1.061618,-3.012701 1.061618,-4.734245 z"
             id="equation_05_04"
             inkscape:connector-curvature="0" />
          <path
             d="m 9.683682,-4.648167 c 0.200847,0 0.459078,0 0.459078,-0.258232 0,-0.272578 -0.243885,-0.272578 -0.459078,-0.272578 H 1.233773 c -0.200847,0 -0.459078,0 -0.459078,0.258232 0,0.272578 0.243885,0.272578 0.459078,0.272578 z m 0,2.668392 c 0.200847,0 0.459078,0 0.459078,-0.258232 0,-0.272577 -0.243885,-0.272577 -0.459078,-0.272577 H 1.233773 c -0.200847,0 -0.459078,0 -0.459078,0.258231 0,0.272578 0.243885,0.272578 0.459078,0.272578 z"
             id="equation_05_05"
             inkscape:connector-curvature="0" />
        </defs>
        <g
           id="equation_05_g">
          <use
             id="use2890"
             xlink:href="#equation_05_02"
             y="63.56163"
             x="76.712326"
             width="100%"
             height="100%" />
          <use
             id="use2892"
             xlink:href="#equation_05_05"
             y="63.56163"
             x="88.061295"
             width="100%"
             height="100%" />
          <use
             id="use2894"
             xlink:href="#equation_05_00"
             y="63.56163"
             x="102.97187"
             width="100%"
             height="100%" />
          <use
             id="use2896"
             xlink:href="#equation_05_03"
             y="63.56163"
             x="111.42758"
             width="100%"
             height="100%" />
          <use
             id="use2898"
             xlink:href="#equation_05_01"
             y="63.56163"
             x="116.89037"
             width="100%"
             height="100%" />
          <use
             id="use2900"
             xlink:href="#equation_05_04"
             y="63.56163"
             x="124.87287"
             width="100%"
             height="100%" />
        </g>
      </g>
      <path
         style="fill:none;stroke:#000000;stroke-width:0.26458332px;stroke-linecap:butt;stroke-linejoin:miter;stroke-opacity:1;marker-end:url(#marker2983)"
         d="m 132.29166,159.41666 c 13.22917,0 13.22917,0 13.22917,0 0,0 0,0 0,0"
         id="path2923"
         inkscape:connector-curvature="0" />
      <path
         style="fill:none;stroke:#000000;stroke-width:0.26458332px;stroke-linecap:butt;stroke-linejoin:miter;stroke-opacity:1;marker-end:url(#Arrow1Lstart)"
         d="m 164.04166,159.41666 c -13.22916,0 -13.22916,0 -13.22916,0 v 0"
         id="path3039"
         inkscape:connector-curvature="0" />
      <rect
         style="fill:none;fill-opacity:1;stroke:#000000;stroke-width:0.26499999;stroke-linecap:butt;stroke-linejoin:round;stroke-miterlimit:4;stroke-dasharray:none;stroke-dashoffset:0;stroke-opacity:1;paint-order:normal"
         id="rect3103"
         width="206.375"
         height="201.08333"
         x="5.2916665"
         y="0.66665828"
         inkscape:export-filename="C:\Users\h-nakashima\rect3103.png"
         inkscape:export-xdpi="300.10001"
         inkscape:export-ydpi="300.10001" />
    </g>
  </g>
</svg>
