<?xml version="1.0" encoding="UTF-8" standalone="no"?>
<!-- Created with Inkscape (http://www.inkscape.org/) -->

<svg
   xmlns:dc="http://purl.org/dc/elements/1.1/"
   xmlns:cc="http://creativecommons.org/ns#"
   xmlns:rdf="http://www.w3.org/1999/02/22-rdf-syntax-ns#"
   xmlns:svg="http://www.w3.org/2000/svg"
   xmlns="http://www.w3.org/2000/svg"
   xmlns:xlink="http://www.w3.org/1999/xlink"
   xmlns:sodipodi="http://sodipodi.sourceforge.net/DTD/sodipodi-0.dtd"
   xmlns:inkscape="http://www.inkscape.org/namespaces/inkscape"
   sodipodi:docname="関数の極限2.svg"
   inkscape:version="0.92.4 (5da689c313, 2019-01-14)"
   width="210mm"
   height="297mm"
   viewBox="0 0 210 297"
   version="1.1"
   id="svg2783">
  <defs
     id="defs2777">
    <marker
       inkscape:isstock="true"
       style="overflow:visible"
       id="marker4576"
       refX="0"
       refY="0"
       orient="auto"
       inkscape:stockid="Arrow2Send">
      <path
         transform="matrix(-0.3,0,0,-0.3,0.69,0)"
         d="M 8.7185878,4.0337352 -2.2072895,0.01601326 8.7185884,-4.0017078 c -1.7454984,2.3720609 -1.7354408,5.6174519 -6e-7,8.035443 z"
         style="fill:#000000;fill-opacity:1;fill-rule:evenodd;stroke:#000000;stroke-width:0.625;stroke-linejoin:round;stroke-opacity:1"
         id="path4574"
         inkscape:connector-curvature="0" />
    </marker>
    <marker
       inkscape:stockid="Arrow2Send"
       orient="auto"
       refY="0.0"
       refX="0.0"
       id="Arrow2Send"
       style="overflow:visible;"
       inkscape:isstock="true">
      <path
         id="path856"
         style="fill-rule:evenodd;stroke-width:0.625;stroke-linejoin:round;stroke:#000000;stroke-opacity:1;fill:#000000;fill-opacity:1"
         d="M 8.7185878,4.0337352 L -2.2072895,0.016013256 L 8.7185884,-4.0017078 C 6.9730900,-1.6296469 6.9831476,1.6157441 8.7185878,4.0337352 z "
         transform="scale(0.3) rotate(180) translate(-2.3,0)" />
    </marker>
    <marker
       inkscape:isstock="true"
       style="overflow:visible;"
       id="marker4063"
       refX="0.0"
       refY="0.0"
       orient="auto"
       inkscape:stockid="Arrow2Mend">
      <path
         transform="scale(0.6) rotate(180) translate(0,0)"
         d="M 8.7185878,4.0337352 L -2.2072895,0.016013256 L 8.7185884,-4.0017078 C 6.9730900,-1.6296469 6.9831476,1.6157441 8.7185878,4.0337352 z "
         style="fill-rule:evenodd;stroke-width:0.625;stroke-linejoin:round;stroke:#000000;stroke-opacity:1;fill:#000000;fill-opacity:1"
         id="path4061" />
    </marker>
    <marker
       inkscape:isstock="true"
       style="overflow:visible;"
       id="marker3358"
       refX="0.0"
       refY="0.0"
       orient="auto"
       inkscape:stockid="Arrow2Mend">
      <path
         transform="scale(0.6) rotate(180) translate(0,0)"
         d="M 8.7185878,4.0337352 L -2.2072895,0.016013256 L 8.7185884,-4.0017078 C 6.9730900,-1.6296469 6.9831476,1.6157441 8.7185878,4.0337352 z "
         style="fill-rule:evenodd;stroke-width:0.625;stroke-linejoin:round;stroke:#000000;stroke-opacity:1;fill:#000000;fill-opacity:1"
         id="path3356" />
    </marker>
    <marker
       inkscape:stockid="Arrow2Mend"
       orient="auto"
       refY="0.0"
       refX="0.0"
       id="Arrow2Mend"
       style="overflow:visible;"
       inkscape:isstock="true"
       inkscape:collect="always">
      <path
         id="path850"
         style="fill-rule:evenodd;stroke-width:0.625;stroke-linejoin:round;stroke:#000000;stroke-opacity:1;fill:#000000;fill-opacity:1"
         d="M 8.7185878,4.0337352 L -2.2072895,0.016013256 L 8.7185884,-4.0017078 C 6.9730900,-1.6296469 6.9831476,1.6157441 8.7185878,4.0337352 z "
         transform="scale(0.6) rotate(180) translate(0,0)" />
    </marker>
    <marker
       inkscape:stockid="Arrow2Send"
       orient="auto"
       refY="0"
       refX="0"
       id="Arrow2Send-2"
       style="overflow:visible"
       inkscape:isstock="true"
       inkscape:collect="always">
      <path
         inkscape:connector-curvature="0"
         id="path856-9"
         style="fill:#000000;fill-opacity:1;fill-rule:evenodd;stroke:#000000;stroke-width:0.625;stroke-linejoin:round;stroke-opacity:1"
         d="M 8.7185878,4.0337352 -2.2072895,0.01601326 8.7185884,-4.0017078 c -1.7454984,2.3720609 -1.7354408,5.6174519 -6e-7,8.035443 z"
         transform="matrix(-0.3,0,0,-0.3,0.69,0)" />
    </marker>
    <marker
       inkscape:isstock="true"
       style="overflow:visible"
       id="marker4576-1"
       refX="0"
       refY="0"
       orient="auto"
       inkscape:stockid="Arrow2Send">
      <path
         transform="matrix(-0.3,0,0,-0.3,0.69,0)"
         d="M 8.7185878,4.0337352 -2.2072895,0.01601326 8.7185884,-4.0017078 c -1.7454984,2.3720609 -1.7354408,5.6174519 -6e-7,8.035443 z"
         style="fill:#000000;fill-opacity:1;fill-rule:evenodd;stroke:#000000;stroke-width:0.625;stroke-linejoin:round;stroke-opacity:1"
         id="path4574-0"
         inkscape:connector-curvature="0" />
    </marker>
    <marker
       inkscape:isstock="true"
       style="overflow:visible"
       id="marker4576-6"
       refX="0"
       refY="0"
       orient="auto"
       inkscape:stockid="Arrow2Send">
      <path
         transform="matrix(-0.3,0,0,-0.3,0.69,0)"
         d="M 8.7185878,4.0337352 -2.2072895,0.01601326 8.7185884,-4.0017078 c -1.7454984,2.3720609 -1.7354408,5.6174519 -6e-7,8.035443 z"
         style="fill:#000000;fill-opacity:1;fill-rule:evenodd;stroke:#000000;stroke-width:0.625;stroke-linejoin:round;stroke-opacity:1"
         id="path4574-5"
         inkscape:connector-curvature="0" />
    </marker>
  </defs>
  <sodipodi:namedview
     id="base"
     pagecolor="#ffffff"
     bordercolor="#666666"
     borderopacity="1.0"
     inkscape:pageopacity="0.0"
     inkscape:pageshadow="2"
     inkscape:zoom="0.98994949"
     inkscape:cx="168.36273"
     inkscape:cy="784.96835"
     inkscape:document-units="mm"
     inkscape:current-layer="layer1"
     showgrid="true"
     inkscape:window-width="1858"
     inkscape:window-height="1057"
     inkscape:window-x="-8"
     inkscape:window-y="-8"
     inkscape:window-maximized="1">
    <inkscape:grid
       id="grid3328"
       type="xygrid" />
  </sodipodi:namedview>
  <metadata
     id="metadata2780">
    <rdf:RDF>
      <cc:Work
         rdf:about="">
        <dc:format>image/svg+xml</dc:format>
        <dc:type
           rdf:resource="http://purl.org/dc/dcmitype/StillImage" />
        <dc:title />
      </cc:Work>
    </rdf:RDF>
  </metadata>
  <g
     inkscape:label="レイヤー 1"
     inkscape:groupmode="layer"
     id="layer1">
    <rect
       style="opacity:1;fill:none;fill-opacity:1;stroke:#000000;stroke-width:0;stroke-linecap:butt;stroke-linejoin:round;stroke-miterlimit:4;stroke-dasharray:none;stroke-dashoffset:0;stroke-opacity:1;paint-order:normal"
       id="rect3330"
       width="206.375"
       height="216.95834"
       x="2.6458333"
       y="0.66665828"
       inkscape:export-xdpi="300.10001"
       inkscape:export-ydpi="300.10001" />
    <path
       style="fill:none;stroke:#000000;stroke-width:0.99356908;stroke-linecap:butt;stroke-linejoin:miter;stroke-miterlimit:4;stroke-dasharray:none;stroke-opacity:1;marker-end:url(#marker3358)"
       d="m 2.6458333,180.58333 c 203.7291667,0 203.7291667,0 203.7291667,0"
       id="path3332"
       inkscape:connector-curvature="0" />
    <path
       style="fill:none;stroke:#000000;stroke-width:1;stroke-linecap:butt;stroke-linejoin:miter;stroke-opacity:1;stroke-miterlimit:4;stroke-dasharray:none;marker-end:url(#Arrow2Mend)"
       d="m 66.145832,217.625 c 0,-214.3125001 0,-214.3125001 0,-214.3125001"
       id="path3334"
       inkscape:connector-curvature="0" />
    <g
       title="\large$y$"
       style="fill:#000000"
       id="equation_00"
       transform="translate(-21.381562,-53.453906)">
      <defs
         id="defs3396">
        <path
           d="M 3.144209,1.338979 C 2.82142,1.793275 2.355168,2.199751 1.769365,2.199751 c -0.143462,0 -0.71731,-0.02391 -0.896638,-0.573848 0.035866,0.011955 0.095642,0.011955 0.119552,0.011955 0.358655,0 0.597758,-0.310834 0.597758,-0.585803 0,-0.274969 -0.227148,-0.37061 -0.406475,-0.37061 -0.191283,0 -0.609714,0.143462 -0.609714,0.729265 0,0.609713 0.514072,1.028144 1.195517,1.028144 1.195517,0 2.402989,-1.099875 2.737733,-2.426899 L 5.678705,-4.65056 C 5.69066,-4.710336 5.71457,-4.782067 5.71457,-4.853798 c 0,-0.179328 -0.143462,-0.298879 -0.322789,-0.298879 -0.107597,0 -0.358655,0.04782 -0.454297,0.406475 l -0.884682,3.51482 c -0.059776,0.215193 -0.059776,0.239103 -0.155417,0.37061 -0.239104,0.334745 -0.633624,0.74122 -1.207472,0.74122 -0.66949,0 -0.729265,-0.657534 -0.729265,-0.980323 0,-0.681445 0.322789,-1.601993 0.645579,-2.462765 0.131506,-0.3467 0.203238,-0.514072 0.203238,-0.753176 0,-0.502117 -0.358656,-0.956413 -0.944459,-0.956413 -1.099875,0 -1.542216,1.733499 -1.542216,1.829141 0,0.04782 0.04782,0.107596 0.131506,0.107596 0.107597,0 0.119552,-0.047821 0.167373,-0.215193 0.286924,-1.004234 0.74122,-1.482441 1.207472,-1.482441 0.107596,0 0.310834,0 0.310834,0.394521 0,0.310834 -0.131507,0.657534 -0.310834,1.11183 -0.585804,1.566127 -0.585804,1.960648 -0.585804,2.247572 0,1.135741 0.812952,1.398755 1.41071,1.398755 0.3467,0 0.777086,-0.107597 1.195517,-0.549938 l 0.011955,0.011955 C 3.682192,0.286924 3.56264,0.753176 3.144209,1.338979 Z"
           id="equation_00_00"
           inkscape:connector-curvature="0" />
      </defs>
      <g
         id="equation_00_g">
        <use
           id="use3398"
           xlink:href="#equation_00_00"
           y="62.764633"
           x="76.712326"
           width="100%"
           height="100%" />
      </g>
    </g>
    <g
       title="\large$x$"
       style="fill:#000000"
       id="equation_01"
       transform="translate(124.35791,128.49157)">
      <defs
         id="defs3445">
        <path
           d="m 5.66675,-4.877709 c -0.382566,0.071731 -0.526028,0.358655 -0.526028,0.585804 0,0.286924 0.227148,0.382565 0.394521,0.382565 0.358655,0 0.609713,-0.310834 0.609713,-0.633624 0,-0.502117 -0.573848,-0.729265 -1.075965,-0.729265 -0.729265,0 -1.135741,0.71731 -1.243337,0.944458 -0.274969,-0.896637 -1.016189,-0.944458 -1.231383,-0.944458 -1.219427,0 -1.865006,1.566127 -1.865006,1.829141 0,0.04782 0.047821,0.107596 0.131507,0.107596 0.095641,0 0.119552,-0.071731 0.143462,-0.119552 0.406476,-1.327023 1.207472,-1.578082 1.554172,-1.578082 0.537983,0 0.645579,0.502117 0.645579,0.789041 0,0.263014 -0.071731,0.537983 -0.215193,1.111831 l -0.406476,1.637858 c -0.179327,0.71731 -0.526027,1.374844 -1.159651,1.374844 -0.059776,0 -0.358655,0 -0.609714,-0.155417 0.430386,-0.083686 0.526028,-0.442341 0.526028,-0.585803 0,-0.239103 -0.179328,-0.382565 -0.406476,-0.382565 -0.286924,0 -0.597758,0.251058 -0.597758,0.633623 0,0.502117 0.561893,0.729266 1.075965,0.729266 0.573848,0 0.980324,-0.454297 1.231382,-0.944459 0.191283,0.705355 0.789041,0.944459 1.231382,0.944459 1.219428,0 1.865007,-1.566127 1.865007,-1.829141 0,-0.059776 -0.047821,-0.107597 -0.119552,-0.107597 -0.107596,0 -0.119552,0.059776 -0.155417,0.155418 -0.32279,1.052054 -1.016189,1.542216 -1.554172,1.542216 -0.418431,0 -0.645579,-0.310834 -0.645579,-0.800996 0,-0.263014 0.047821,-0.454296 0.239103,-1.243337 l 0.418431,-1.625903 c 0.179328,-0.71731 0.585803,-1.243338 1.135741,-1.243338 0.02391,0 0.358655,0 0.609714,0.155417 z"
           id="equation_01_00"
           inkscape:connector-curvature="0" />
      </defs>
      <g
         id="equation_01_g">
        <use
           id="use3447"
           xlink:href="#equation_01_00"
           y="62.764633"
           x="76.712326"
           width="100%"
           height="100%" />
      </g>
    </g>
    <g
       title="\large$O$"
       style="fill:#000000"
       id="equation_02"
       transform="translate(-22.143249,130.3364)">
      <defs
         id="defs3564">
        <path
           d="m 8.679452,-5.236364 c 0,-1.972602 -1.291158,-3.180074 -2.964882,-3.180074 -2.558406,0 -5.140722,2.749688 -5.140722,5.511332 0,1.876962 1.243338,3.156165 2.976837,3.156165 2.510585,0 5.128767,-2.618182 5.128767,-5.487423 z M 3.622416,-0.02391 c -0.980324,0 -2.020423,-0.71731 -2.020423,-2.582317 0,-1.08792 0.39452,-2.86924 1.374844,-4.064757 0.872727,-1.052055 1.876961,-1.482441 2.677958,-1.482441 1.052054,0 2.068244,0.765131 2.068244,2.486675 0,1.06401 -0.454297,2.725779 -1.255293,3.86152 -0.872727,1.219427 -1.960648,1.78132 -2.84533,1.78132 z"
           id="equation_02_00"
           inkscape:connector-curvature="0" />
      </defs>
      <g
         id="equation_02_g">
        <use
           id="use3566"
           xlink:href="#equation_02_00"
           y="62.764633"
           x="76.712326"
           width="100%"
           height="100%" />
      </g>
    </g>
    <path
       id="path3732"
       title="x*x"
       d="m 12.700002,158.35823 c 0.06886,0.029 0.137721,0.14456 0.206582,0.1734 0.06886,0.0288 0.137721,0.14397 0.206581,0.17269 0.06886,0.0287 0.137722,0.1434 0.206582,0.172 0.06886,0.0286 0.137721,0.14282 0.206582,0.17131 0.06886,0.0285 0.137721,0.14223 0.206582,0.17061 0.06886,0.0284 0.137721,0.14165 0.206581,0.16991 0.06886,0.0283 0.137721,0.14108 0.206582,0.16922 0.06886,0.0282 0.137721,0.1405 0.206582,0.16853 0.06886,0.028 0.137721,0.13991 0.206581,0.16782 0.06886,0.0279 0.137721,0.13934 0.206582,0.16713 0.06886,0.0278 0.137721,0.13876 0.206582,0.16644 0.06886,0.0277 0.137721,0.13818 0.206581,0.16574 0.06886,0.0276 0.137722,0.1376 0.206582,0.16505 0.06886,0.0274 0.137721,0.13701 0.206582,0.16434 0.06886,0.0273 0.137721,0.13644 0.206581,0.16366 0.06886,0.0272 0.137722,0.13585 0.206582,0.16296 0.06886,0.0271 0.137721,0.13527 0.206582,0.16226 0.06886,0.027 0.137721,0.13469 0.206582,0.16156 0.06886,0.0269 0.137721,0.13412 0.206581,0.16088 0.06886,0.0267 0.137721,0.13353 0.206582,0.16017 0.06886,0.0266 0.137721,0.13296 0.206582,0.15948 0.06886,0.0265 0.137721,0.13238 0.206581,0.15878 0.06886,0.0264 0.137721,0.1318 0.206582,0.15809 0.06886,0.0263 0.137721,0.13122 0.206582,0.15739 0.06886,0.0262 0.137721,0.13064 0.206581,0.1567 0.06886,0.0261 0.137722,0.13006 0.206582,0.156 0.06886,0.0259 0.137721,0.12948 0.206582,0.15531 0.06886,0.0258 0.137721,0.1289 0.206582,0.15461 0.06886,0.0257 0.137721,0.12832 0.206581,0.15391 0.06886,0.0256 0.137721,0.12774 0.206582,0.15322 0.06886,0.0255 0.137721,0.12716 0.206582,0.15252 0.06886,0.0254 0.137721,0.12658 0.206581,0.15183 0.06886,0.0252 0.137721,0.126 0.206582,0.15113 0.06886,0.0251 0.137721,0.12542 0.206582,0.15044 0.06886,0.025 0.137721,0.12484 0.206581,0.14974 0.06886,0.0249 0.137722,0.12426 0.206582,0.14904 0.06886,0.0248 0.137721,0.12368 0.206582,0.14835 0.06886,0.0247 0.137721,0.1231 0.206581,0.14765 0.06886,0.0246 0.137721,0.12253 0.206582,0.14696 0.06886,0.0244 0.137721,0.12195 0.206582,0.14626 0.06886,0.0243 0.137721,0.12137 0.206581,0.14557 0.06886,0.0242 0.137721,0.12078 0.206582,0.14487 0.06886,0.0241 0.137721,0.1202 0.206581,0.14418 0.06886,0.024 0.137721,0.11962 0.206582,0.14348 0.06886,0.0238 0.137721,0.11904 0.206581,0.14278 0.06886,0.0237 0.137722,0.11846 0.206582,0.14209 0.06886,0.0236 0.137721,0.11788 0.206582,0.14139 0.06886,0.0235 0.137721,0.1173 0.206581,0.1407 0.06886,0.0234 0.137721,0.11672 0.206582,0.14 0.06886,0.0233 0.137721,0.11614 0.206581,0.1393 0.06886,0.0232 0.137721,0.11557 0.206582,0.13861 0.06886,0.023 0.137721,0.11499 0.206582,0.13792 0.06886,0.0229 0.137721,0.1144 0.206581,0.13721 0.06886,0.0228 0.137721,0.11383 0.206582,0.13653 0.06886,0.0227 0.137721,0.11324 0.206581,0.13582 0.06886,0.0226 0.137721,0.11267 0.206582,0.13514 0.06886,0.0225 0.137721,0.11208 0.206581,0.13443 0.06886,0.0223 0.137722,0.11151 0.206582,0.13374 0.06886,0.0222 0.137721,0.11093 0.206582,0.13305 0.06886,0.0221 0.137721,0.11035 0.206581,0.13235 0.06886,0.022 0.137721,0.10976 0.206582,0.13165 0.06886,0.0219 0.137721,0.10919 0.206581,0.13096 0.06886,0.0218 0.137721,0.10861 0.206582,0.13026 0.06886,0.0216 0.137721,0.10803 0.206582,0.12956 0.06886,0.0215 0.137721,0.10745 0.206581,0.12887 0.06886,0.0214 0.137721,0.10687 0.206582,0.12818 0.06886,0.0213 0.137721,0.10629 0.206581,0.12748 0.06886,0.0212 0.137721,0.10571 0.206582,0.12678 0.06886,0.0211 0.137721,0.10513 0.206581,0.12609 0.06886,0.021 0.137721,0.10455 0.206582,0.12539 0.06886,0.0208 0.137721,0.10397 0.206582,0.1247 0.06886,0.0207 0.137721,0.10339 0.206581,0.124 0.06886,0.0206 0.137721,0.10281 0.206582,0.1233 0.06886,0.0205 0.137721,0.10224 0.206581,0.12261 0.06886,0.0204 0.137721,0.10166 0.206582,0.12192 0.06886,0.0203 0.137721,0.10107 0.206582,0.12122 0.06886,0.0201 0.137721,0.10049 0.206581,0.12052 0.06886,0.02 0.137721,0.0999 0.206582,0.11983 0.06886,0.0199 0.137721,0.0993 0.206581,0.11913 0.06886,0.0198 0.137721,0.0987 0.206582,0.11843 0.06886,0.0197 0.137721,0.0982 0.206581,0.11774 0.06886,0.0196 0.137721,0.0976 0.206582,0.11705 0.06886,0.0195 0.137721,0.097 0.206582,0.11635 0.06886,0.0193 0.137721,0.0964 0.206581,0.11565 0.06886,0.0192 0.137721,0.0959 0.206582,0.11496 0.06886,0.0191 0.137721,0.0953 0.206581,0.11426 0.06886,0.019 0.137721,0.0947 0.206582,0.11356 0.06886,0.0189 0.137721,0.0941 0.206581,0.11287 0.06886,0.0188 0.137722,0.0935 0.206582,0.11218 0.06886,0.0186 0.137721,0.093 0.206582,0.11148 0.06886,0.0185 0.137721,0.0924 0.206581,0.11078 0.06886,0.0184 0.137721,0.0918 0.206582,0.11009 0.06886,0.0183 0.137721,0.0912 0.206581,0.10939 0.06886,0.0182 0.137721,0.0906 0.206582,0.1087 0.06886,0.0181 0.137721,0.0901 0.206582,0.108 0.06886,0.0179 0.137721,0.0895 0.206581,0.1073 0.06886,0.0178 0.137721,0.0889 0.206582,0.10661 0.06886,0.0177 0.137721,0.0883 0.206581,0.10592 0.06886,0.0176 0.137721,0.0877 0.206582,0.10522 0.06886,0.0175 0.137721,0.0872 0.206581,0.10452 0.06886,0.0174 0.137722,0.0866 0.206582,0.10383 0.06886,0.0172 0.137721,0.086 0.206582,0.10313 0.06886,0.0171 0.137721,0.0854 0.206581,0.10243 0.06886,0.017 0.137721,0.0848 0.206582,0.10174 0.06886,0.0169 0.137721,0.0843 0.206581,0.10105 0.06886,0.0168 0.137721,0.0837 0.206582,0.10034 0.06886,0.0167 0.137721,0.0831 0.206582,0.0997 0.06886,0.0166 0.137721,0.0825 0.206581,0.099 0.06886,0.0164 0.137721,0.082 0.206582,0.0983 0.06886,0.0163 0.137721,0.0814 0.206581,0.0976 0.06886,0.0162 0.137721,0.0808 0.206582,0.0969 0.06886,0.0161 0.137721,0.0802 0.206581,0.0962 0.06886,0.016 0.137721,0.0796 0.206582,0.0955 0.06886,0.0159 0.137721,0.079 0.206582,0.0948 0.06886,0.0157 0.137721,0.0785 0.206581,0.0941 0.06886,0.0156 0.137721,0.0779 0.206582,0.0934 0.06886,0.0155 0.137721,0.0773 0.206581,0.0927 0.06886,0.0154 0.137721,0.0767 0.206582,0.092 0.06886,0.0153 0.137721,0.0761 0.206582,0.0913 0.06886,0.0152 0.137721,0.0756 0.206581,0.0906 0.06886,0.015 0.137721,0.075 0.206582,0.0899 0.06886,0.0149 0.137721,0.0744 0.206581,0.0892 0.06886,0.0148 0.137721,0.0738 0.206582,0.0885 0.06886,0.0147 0.137721,0.0733 0.206581,0.0878 0.06886,0.0146 0.137721,0.0727 0.206582,0.0871 0.06886,0.0145 0.137721,0.0721 0.206582,0.0864 0.06886,0.0144 0.137721,0.0715 0.206581,0.0857 0.06886,0.0142 0.137721,0.0709 0.206582,0.085 0.06886,0.0141 0.137721,0.0703 0.206581,0.0844 0.06886,0.014 0.137721,0.0698 0.206582,0.0837 0.06886,0.0139 0.137721,0.0692 0.206581,0.083 0.06886,0.0138 0.137722,0.0686 0.206582,0.0823 0.06886,0.0137 0.137721,0.068 0.206582,0.0816 0.06886,0.0135 0.137721,0.0675 0.206581,0.0809 0.06886,0.0134 0.137721,0.0669 0.206582,0.0802 0.06886,0.0133 0.137721,0.0663 0.206581,0.0795 0.06886,0.0132 0.137721,0.0657 0.206582,0.0788 0.06886,0.0131 0.137721,0.0651 0.206582,0.0781 0.06886,0.013 0.137721,0.0645 0.206581,0.0774 0.06886,0.0128 0.137721,0.064 0.206582,0.0767 0.06886,0.0127 0.137721,0.0634 0.206581,0.076 0.06886,0.0126 0.137721,0.0628 0.206582,0.0753 0.06886,0.0125 0.137721,0.0622 0.206581,0.0746 0.06886,0.0124 0.137722,0.0617 0.206582,0.0739 0.06886,0.0123 0.137721,0.0611 0.206582,0.0732 0.06886,0.0121 0.137721,0.0605 0.206581,0.0725 0.06886,0.012 0.137721,0.0599 0.206582,0.0718 0.06886,0.0119 0.137721,0.0593 0.206581,0.0711 0.06886,0.0118 0.137721,0.0588 0.206582,0.0704 0.06886,0.0117 0.137721,0.0582 0.206582,0.0697 0.06886,0.0116 0.137721,0.0576 0.206581,0.069 0.06886,0.0114 0.137721,0.057 0.206582,0.0684 0.06886,0.0113 0.137721,0.0564 0.206581,0.0677 0.06886,0.0112 0.137721,0.0559 0.206582,0.067 0.06886,0.0111 0.137721,0.0553 0.206581,0.0663 0.06886,0.011 0.137721,0.0547 0.206582,0.0656 0.06886,0.0109 0.137721,0.0541 0.206582,0.0649 0.06886,0.0108 0.137721,0.0535 0.206581,0.0642 0.06886,0.0106 0.137721,0.053 0.206582,0.0635 0.06886,0.0105 0.137721,0.0524 0.206581,0.0628 0.06886,0.0104 0.137721,0.0518 0.206582,0.0621 0.06886,0.0103 0.137721,0.0512 0.206582,0.0614 0.06886,0.0102 0.137721,0.0506 0.206581,0.0607 0.06886,0.0101 0.137721,0.0501 0.206582,0.06 0.06886,0.01 0.137721,0.0495 0.206581,0.0593 0.06886,0.01 0.137721,0.0489 0.206582,0.0586 0.06886,0.01 0.137721,0.0483 0.206581,0.0579 0.06886,0.01 0.137721,0.0477 0.206582,0.0572 0.06886,0.009 0.137721,0.0472 0.206582,0.0565 0.06886,0.009 0.137721,0.0466 0.206581,0.0558 0.06886,0.009 0.137721,0.046 0.206582,0.0551 0.06886,0.009 0.137721,0.0454 0.206581,0.0544 0.06886,0.009 0.137721,0.0448 0.206582,0.0537 0.06886,0.009 0.137721,0.0443 0.206581,0.0531 0.06886,0.009 0.137722,0.0437 0.206582,0.0523 0.06886,0.009 0.137721,0.0431 0.206582,0.0517 0.06886,0.009 0.137721,0.0425 0.206581,0.051 0.06886,0.008 0.137721,0.042 0.206582,0.0503 0.06886,0.008 0.137721,0.0414 0.206581,0.0496 0.06886,0.008 0.137721,0.0408 0.206582,0.0489 0.06886,0.008 0.137721,0.0402 0.206582,0.0482 0.06886,0.008 0.137721,0.0396 0.206581,0.0475 0.06886,0.008 0.137721,0.0391 0.206582,0.0468 0.06886,0.008 0.137721,0.0385 0.206581,0.0461 0.06886,0.008 0.137721,0.0379 0.206582,0.0454 0.06886,0.008 0.137721,0.0373 0.206581,0.0447 0.06886,0.007 0.137722,0.0367 0.206582,0.044 0.06886,0.007 0.137721,0.0362 0.206582,0.0433 0.06886,0.007 0.137721,0.0356 0.206581,0.0426 0.06886,0.007 0.137721,0.035 0.206582,0.0419 0.06886,0.007 0.137721,0.0344 0.206581,0.0412 0.06886,0.007 0.137721,0.0338 0.206582,0.0405 0.06886,0.007 0.137721,0.0332 0.206582,0.0398 0.06886,0.007 0.137721,0.0327 0.206581,0.0391 0.06886,0.006 0.137721,0.0321 0.206582,0.0384 0.06886,0.006 0.137721,0.0315 0.206581,0.0377 0.06886,0.006 0.137721,0.0309 0.206582,0.037 0.06886,0.006 0.137721,0.0303 0.206581,0.0363 0.06886,0.006 0.137722,0.0298 0.206582,0.0357 0.06886,0.006 0.137721,0.0292 0.206582,0.035 0.06886,0.006 0.137721,0.0286 0.206581,0.0343 0.06886,0.006 0.137721,0.028 0.206582,0.0336 0.06886,0.006 0.137721,0.0274 0.206581,0.0329 0.06886,0.005 0.137721,0.0269 0.206582,0.0322 0.06886,0.005 0.137721,0.0263 0.206582,0.0315 0.06886,0.005 0.137721,0.0257 0.206581,0.0308 0.06886,0.005 0.137721,0.0251 0.206582,0.0301 0.06886,0.005 0.137721,0.0246 0.206581,0.0294 0.06886,0.005 0.137721,0.024 0.206582,0.0287 0.06886,0.005 0.137721,0.0234 0.206581,0.028 0.06886,0.005 0.137721,0.0228 0.206582,0.0273 0.06886,0.004 0.137721,0.0222 0.206582,0.0266 0.06886,0.004 0.137721,0.0216 0.206581,0.0259 0.06886,0.004 0.137721,0.0211 0.206582,0.0252 0.06886,0.004 0.137721,0.0205 0.206581,0.0245 0.06886,0.004 0.137721,0.0199 0.206582,0.0238 0.06886,0.004 0.137721,0.0193 0.206582,0.0231 0.06886,0.004 0.137721,0.0188 0.206581,0.0224 0.06886,0.004 0.137721,0.0182 0.206582,0.0217 0.06886,0.004 0.137721,0.0176 0.206581,0.0211 0.06886,0.003 0.137721,0.017 0.206582,0.0204 0.06886,0.003 0.137721,0.0164 0.206581,0.0196 0.06886,0.003 0.137721,0.0159 0.206582,0.019 0.06886,0.003 0.137721,0.0153 0.206582,0.0183 0.06886,0.003 0.137721,0.0147 0.206581,0.0176 0.06886,0.003 0.137721,0.0141 0.206582,0.0169 0.06886,0.003 0.137721,0.0135 0.206581,0.0162 0.06886,0.003 0.137721,0.013 0.206582,0.0155 0.06886,0.003 0.137721,0.0124 0.206581,0.0148 0.06886,0.002 0.137722,0.0118 0.206582,0.0141 0.06886,0.002 0.137721,0.0112 0.206582,0.0134 0.06886,0.002 0.137721,0.0106 0.206581,0.0127 0.06886,0.002 0.137721,0.0101 0.206582,0.012 0.06886,0.002 0.137721,0.009 0.206581,0.0113 0.06886,0.002 0.137721,0.009 0.206582,0.0106 0.06886,0.002 0.137721,0.008 0.206582,0.01 0.06886,0.002 0.137721,0.008 0.206581,0.009 0.06886,0.001 0.137721,0.007 0.206582,0.009 0.06886,0.001 0.137721,0.007 0.206581,0.008 0.06886,0.001 0.137721,0.006 0.206582,0.007 0.06886,0.001 0.137721,0.005 0.206581,0.006 0.06886,0.001 0.137722,0.005 0.206582,0.006 0.06886,8.9e-4 0.137721,0.004 0.206582,0.005 0.06886,7.8e-4 0.137721,0.004 0.206581,0.004 0.06886,6.6e-4 0.137721,0.003 0.206582,0.004 0.06886,5.5e-4 0.137721,0.003 0.206581,0.003 0.06886,4.3e-4 0.137721,0.002 0.206582,0.002 0.06886,3.2e-4 0.137721,0.001 0.206582,0.002 0.06886,2.1e-4 0.137721,7.9e-4 0.206581,8.7e-4 0.06886,9e-5 0.137721,2e-4 0.206582,1.8e-4 0.06886,-3e-5 0.137721,-3.8e-4 0.206581,-5.3e-4 0.06886,-1.4e-4 0.137721,-9.5e-4 0.206582,-0.001 0.06886,-2.6e-4 0.137721,-0.002 0.206581,-0.002 0.06886,-3.7e-4 0.137721,-0.002 0.206582,-0.003 0.06886,-4.9e-4 0.137721,-0.003 0.206582,-0.003 0.06886,-6.1e-4 0.137721,-0.003 0.206581,-0.004 0.06886,-7.2e-4 0.137721,-0.004 0.206582,-0.005 0.06886,-8.4e-4 0.137721,-0.004 0.206581,-0.005 0.06886,-9.5e-4 0.137721,-0.005 0.206582,-0.006 0.06886,-0.001 0.137721,-0.006 0.206582,-0.007 0.06886,-0.001 0.137721,-0.006 0.206581,-0.007 0.06886,-0.001 0.137721,-0.007 0.206582,-0.008 0.06886,-0.001 0.137721,-0.007 0.206581,-0.009 0.06886,-0.002 0.137721,-0.008 0.206582,-0.01 0.06886,-0.002 0.137721,-0.008 0.206581,-0.0103 0.06886,-0.002 0.137721,-0.009 0.206582,-0.011 0.06886,-0.002 0.137721,-0.01 0.206582,-0.0117 0.06886,-0.002 0.137721,-0.0102 0.206581,-0.0123 0.06886,-0.002 0.137721,-0.0108 0.206582,-0.013 0.06886,-0.002 0.137721,-0.0114 0.206581,-0.0137 0.06886,-0.002 0.137721,-0.012 0.206582,-0.0144 0.06886,-0.002 0.137721,-0.0126 0.206581,-0.0151 0.06886,-0.003 0.137722,-0.0131 0.206582,-0.0158 0.06886,-0.003 0.137721,-0.0137 0.206582,-0.0165 0.06886,-0.003 0.137721,-0.0143 0.206581,-0.0172 0.06886,-0.003 0.137721,-0.0149 0.206582,-0.0179 0.06886,-0.003 0.137721,-0.0155 0.206581,-0.0186 0.06886,-0.003 0.137721,-0.016 0.206582,-0.0193 0.06886,-0.003 0.137721,-0.0166 0.206582,-0.02 0.06886,-0.003 0.137721,-0.0172 0.206581,-0.0207 0.06886,-0.003 0.137721,-0.0178 0.206582,-0.0214 0.06886,-0.004 0.137721,-0.0183 0.206581,-0.0221 0.06886,-0.004 0.137721,-0.0189 0.206582,-0.0228 0.06886,-0.004 0.137721,-0.0195 0.206581,-0.0235 0.06886,-0.004 0.137722,-0.0201 0.206582,-0.0242 0.06886,-0.004 0.137721,-0.0207 0.206582,-0.0249 0.06886,-0.004 0.137721,-0.0212 0.206581,-0.0256 0.06886,-0.004 0.137721,-0.0218 0.206582,-0.0263 0.06886,-0.004 0.137721,-0.0224 0.206581,-0.0269 0.06886,-0.005 0.137721,-0.023 0.206582,-0.0277 0.06886,-0.005 0.137721,-0.0236 0.206582,-0.0283 0.06886,-0.005 0.137721,-0.0242 0.206581,-0.0291 0.06886,-0.005 0.137721,-0.0247 0.206582,-0.0297 0.06886,-0.005 0.137721,-0.0253 0.206581,-0.0304 0.06886,-0.005 0.137721,-0.0259 0.206582,-0.0311 0.06886,-0.005 0.137721,-0.0265 0.206581,-0.0318 0.06886,-0.005 0.137722,-0.027 0.206582,-0.0325 0.06886,-0.005 0.137721,-0.0276 0.206582,-0.0332 0.06886,-0.006 0.137721,-0.0282 0.206581,-0.0339 0.06886,-0.006 0.137721,-0.0288 0.206582,-0.0346 0.06886,-0.006 0.137721,-0.0294 0.206581,-0.0353 0.06886,-0.006 0.137721,-0.0299 0.206582,-0.036 0.06886,-0.006 0.137721,-0.0305 0.206582,-0.0367 0.06886,-0.006 0.137721,-0.0311 0.206581,-0.0374 0.06886,-0.006 0.137721,-0.0317 0.206582,-0.0381 0.06886,-0.006 0.137721,-0.0323 0.206581,-0.0388 0.06886,-0.007 0.137721,-0.0328 0.206582,-0.0395 0.06886,-0.007 0.137721,-0.0334 0.206581,-0.0402 0.06886,-0.007 0.137721,-0.034 0.206582,-0.0409 0.06886,-0.007 0.137721,-0.0346 0.206582,-0.0416 0.06886,-0.007 0.137721,-0.0352 0.206581,-0.0423 0.06886,-0.007 0.137721,-0.0357 0.206582,-0.043 0.06886,-0.007 0.137721,-0.0363 0.206581,-0.0437 0.06886,-0.007 0.137721,-0.0369 0.206582,-0.0444 0.06886,-0.007 0.137721,-0.0375 0.206581,-0.045 0.06886,-0.008 0.137722,-0.0381 0.206582,-0.0457 0.06886,-0.008 0.137721,-0.0386 0.206582,-0.0464 0.06886,-0.008 0.137721,-0.0392 0.206581,-0.0471 0.06886,-0.008 0.137721,-0.0398 0.206582,-0.0478 0.06886,-0.008 0.137721,-0.0404 0.206581,-0.0485 0.06886,-0.008 0.137721,-0.041 0.206582,-0.0492 0.06886,-0.008 0.137721,-0.0415 0.206582,-0.0499 0.06886,-0.008 0.137721,-0.0421 0.206581,-0.0506 0.06886,-0.008 0.137721,-0.0427 0.206582,-0.0513 0.06886,-0.009 0.137721,-0.0433 0.206581,-0.052 0.06886,-0.009 0.137721,-0.0439 0.206582,-0.0527 0.06886,-0.009 0.137721,-0.0444 0.206581,-0.0534 0.06886,-0.009 0.137722,-0.045 0.206582,-0.0541 0.06886,-0.009 0.137721,-0.0456 0.206582,-0.0548 0.06886,-0.009 0.137721,-0.0462 0.206581,-0.0555 0.06886,-0.009 0.137721,-0.0468 0.206582,-0.0562 0.06886,-0.009 0.137721,-0.0473 0.206581,-0.0569 0.06886,-0.01 0.137721,-0.0479 0.206582,-0.0576 0.06886,-0.01 0.137721,-0.0485 0.206582,-0.0583 0.06886,-0.01 0.137721,-0.0491 0.206581,-0.059 0.06886,-0.01 0.137721,-0.0496 0.206582,-0.0597 0.06886,-0.01 0.137721,-0.0502 0.206581,-0.0603 0.06886,-0.0101 0.137721,-0.0508 0.206582,-0.061 0.06886,-0.0102 0.137721,-0.0514 0.206581,-0.0617 0.06886,-0.0103 0.137722,-0.052 0.206582,-0.0624 0.06886,-0.0105 0.137721,-0.0525 0.206582,-0.0631 0.06886,-0.0106 0.137721,-0.0531 0.206581,-0.0638 0.06886,-0.0107 0.137721,-0.0537 0.206582,-0.0645 0.06886,-0.0108 0.137721,-0.0543 0.206581,-0.0652 0.06886,-0.0109 0.137721,-0.0549 0.206582,-0.0659 0.06886,-0.011 0.137721,-0.0555 0.206582,-0.0666 0.06886,-0.0112 0.137721,-0.056 0.206581,-0.0673 0.06886,-0.0113 0.137721,-0.0566 0.206582,-0.068 0.06886,-0.0114 0.137721,-0.0572 0.206581,-0.0687 0.06886,-0.0115 0.137721,-0.0578 0.206582,-0.0694 0.06886,-0.0116 0.137721,-0.0584 0.206581,-0.0701 0.06886,-0.0117 0.137721,-0.0589 0.206582,-0.0708 0.06886,-0.0119 0.137721,-0.0595 0.206582,-0.0715 0.06886,-0.012 0.137721,-0.0601 0.206581,-0.0722 0.06886,-0.0121 0.137721,-0.0607 0.206582,-0.0729 0.06886,-0.0122 0.137721,-0.0612 0.206581,-0.0736 0.06886,-0.0123 0.137721,-0.0618 0.206582,-0.0743 0.06886,-0.0124 0.137721,-0.0624 0.206582,-0.075 0.06886,-0.0126 0.137721,-0.063 0.206581,-0.0756 0.06886,-0.0127 0.137721,-0.0636 0.206582,-0.0763 0.06886,-0.0128 0.137721,-0.0642 0.206581,-0.0771 0.06886,-0.0129 0.137721,-0.0647 0.206582,-0.0777 0.06886,-0.013 0.137721,-0.0653 0.206581,-0.0784 0.06886,-0.0131 0.137721,-0.0659 0.206582,-0.0791 0.06886,-0.0132 0.137721,-0.0665 0.206582,-0.0798 0.06886,-0.0134 0.137721,-0.067 0.206581,-0.0805 0.06886,-0.0135 0.137721,-0.0676 0.206582,-0.0812 0.06886,-0.0136 0.137721,-0.0682 0.206581,-0.0819 0.06886,-0.0137 0.137721,-0.0688 0.206582,-0.0826 0.06886,-0.0138 0.137721,-0.0694 0.206581,-0.0833 0.06886,-0.0139 0.137722,-0.0699 0.206582,-0.084 0.06886,-0.0141 0.137721,-0.0705 0.206582,-0.0847 0.06886,-0.0142 0.137721,-0.0711 0.206581,-0.0854 0.06886,-0.0143 0.137721,-0.0717 0.206582,-0.0861 0.06886,-0.0144 0.137721,-0.0723 0.206581,-0.0868 0.06886,-0.0145 0.137721,-0.0728 0.206582,-0.0875 0.06886,-0.0146 0.137721,-0.0734 0.206582,-0.0882 0.06886,-0.0148 0.137721,-0.074 0.206581,-0.0889 0.06886,-0.0149 0.137721,-0.0746 0.206582,-0.0896 0.06886,-0.015 0.137721,-0.0752 0.206581,-0.0903 0.06886,-0.0151 0.137721,-0.0757 0.206582,-0.0909 0.06886,-0.0152 0.137721,-0.0763 0.206581,-0.0917 0.06886,-0.0153 0.137722,-0.0769 0.206582,-0.0924 0.06886,-0.0154 0.137721,-0.0775 0.206582,-0.093 0.06886,-0.0156 0.137721,-0.0781 0.206581,-0.0937 0.06886,-0.0157 0.137721,-0.0786 0.206582,-0.0944 0.06886,-0.0158 0.137721,-0.0792 0.206581,-0.0951 0.06886,-0.0159 0.137721,-0.0798 0.206582,-0.0958 0.06886,-0.016 0.137721,-0.0804 0.206582,-0.0965 0.06886,-0.0161 0.137721,-0.0809 0.206581,-0.0972 0.06886,-0.0163 0.137721,-0.0815 0.206582,-0.0979 0.06886,-0.0164 0.137721,-0.0821 0.206581,-0.0986 0.06886,-0.0165 0.137721,-0.0827 0.206582,-0.0993 0.06886,-0.0166 0.137721,-0.0833 0.206581,-0.1 0.06886,-0.0167 0.137721,-0.0839 0.206582,-0.1007 0.06886,-0.0168 0.137721,-0.0844 0.206582,-0.10139 0.06886,-0.017 0.137721,-0.085 0.206581,-0.10209 0.06886,-0.0171 0.137721,-0.0856 0.206582,-0.10278 0.06886,-0.0172 0.137721,-0.0862 0.206581,-0.10348 0.06886,-0.0173 0.137721,-0.0868 0.206582,-0.10418 0.06886,-0.0174 0.137721,-0.0873 0.206582,-0.10487 0.06886,-0.0175 0.137721,-0.0879 0.206581,-0.10556 0.06886,-0.0177 0.137721,-0.0885 0.206582,-0.10626 0.06886,-0.0178 0.137721,-0.0891 0.206581,-0.10696 0.06886,-0.0179 0.137721,-0.0897 0.206582,-0.10765 0.06886,-0.018 0.137721,-0.0902 0.206581,-0.10835 0.06886,-0.0181 0.137721,-0.0908 0.206582,-0.10905 0.06886,-0.0182 0.137721,-0.0914 0.206582,-0.10974 0.06886,-0.0183 0.137721,-0.092 0.206581,-0.11043 0.06886,-0.0185 0.137721,-0.0925 0.206582,-0.11113 0.06886,-0.0186 0.137721,-0.0931 0.206581,-0.11183 0.06886,-0.0187 0.137721,-0.0937 0.206582,-0.11252 0.06886,-0.0188 0.137724,-0.0943 0.206584,-0.11322 0.0689,-0.0189 0.13772,-0.0949 0.20658,-0.11392 0.0689,-0.019 0.13772,-0.0954 0.206577,-0.11461 0.0689,-0.0191 0.13772,-0.096 0.20658,-0.1153 0.0689,-0.0193 0.13773,-0.0966 0.20659,-0.116 0.0689,-0.0194 0.137717,-0.0972 0.206577,-0.1167 0.0689,-0.0195 0.13772,-0.0978 0.20658,-0.11739 0.0689,-0.0196 0.13772,-0.0984 0.20658,-0.11809 0.0689,-0.0197 0.137727,-0.0989 0.206587,-0.11878 0.0689,-0.0199 0.13772,-0.0995 0.20658,-0.11948 0.0689,-0.02 0.137717,-0.10009 0.206577,-0.12018 0.0689,-0.0201 0.13773,-0.10066 0.20659,-0.12087 0.0689,-0.0202 0.13772,-0.10124 0.20658,-0.12156 0.0689,-0.0203 0.13772,-0.10183 0.20658,-0.12226 0.0689,-0.0204 0.13772,-0.10241 0.20658,-0.12296 0.0689,-0.0206 0.13773,-0.10299 0.20659,-0.12365 0.0689,-0.0207 0.13772,-0.10357 0.20658,-0.12435 0.0689,-0.0208 0.13772,-0.10415 0.20658,-0.12505 0.0688,-0.0209 0.13773,-0.10472 0.20659,-0.12574 0.0689,-0.021 0.13772,-0.1053 0.20658,-0.12643 0.0689,-0.0211 0.13772,-0.10589 0.20658,-0.12713 0.0689,-0.0213 0.13772,-0.10647 0.20658,-0.12783 0.0689,-0.0214 0.13773,-0.10705 0.20659,-0.12852 0.0689,-0.0215 0.13772,-0.10763 0.20658,-0.12922 0.0689,-0.0216 0.13772,-0.10821 0.20658,-0.12992 0.0689,-0.0217 0.13772,-0.10878 0.20659,-0.13061 0.0689,-0.0218 0.13772,-0.10936 0.20658,-0.1313 0.0689,-0.0219 0.13772,-0.10994 0.20658,-0.132 0.0689,-0.0221 0.13772,-0.11052 0.20658,-0.1327 0.0689,-0.0222 0.13773,-0.1111 0.20659,-0.13339 0.0689,-0.0223 0.13772,-0.11168 0.20658,-0.13409 0.0689,-0.0224 0.13772,-0.11226 0.20658,-0.13478 0.0689,-0.0225 0.13772,-0.11284 0.20658,-0.13548 0.0689,-0.0226 0.13773,-0.11342 0.20659,-0.13618 0.0689,-0.0228 0.13772,-0.114 0.20658,-0.13687 0.0689,-0.0229 0.13772,-0.11458 0.20658,-0.13756 0.0688,-0.023 0.13773,-0.11516 0.20659,-0.13827 0.0689,-0.0231 0.13772,-0.11574 0.20658,-0.13895 0.0689,-0.0232 0.13772,-0.11632 0.20658,-0.13966 0.0689,-0.0233 0.13772,-0.1169 0.20658,-0.14035 0.0689,-0.0234 0.13772,-0.11747 0.20659,-0.14104 0.0689,-0.0236 0.13772,-0.11806 0.20658,-0.14174 0.0689,-0.0237 0.13772,-0.11864 0.20658,-0.14244 0.0689,-0.0238 0.13772,-0.11921 0.20659,-0.14313 0.0689,-0.0239 0.13772,-0.1198 0.20658,-0.14382 0.0689,-0.024 0.13772,-0.12038 0.20658,-0.14453 0.0689,-0.0241 0.13772,-0.12095 0.20658,-0.14522 0.0689,-0.0243 0.13772,-0.12153 0.20659,-0.14591 0.0689,-0.0244 0.13772,-0.12212 0.20658,-0.14661 0.0689,-0.0245 0.13772,-0.1227 0.20658,-0.1473 0.0689,-0.0246 0.13772,-0.12328 0.20658,-0.14801 0.0689,-0.0247 0.13773,-0.12385 0.20659,-0.14869 0.0689,-0.0248 0.13772,-0.12444 0.20658,-0.1494 0.0689,-0.0249 0.13772,-0.12501 0.20658,-0.15008 0.0689,-0.0251 0.13772,-0.1256 0.20659,-0.15079 0.0689,-0.0252 0.13772,-0.12617 0.20658,-0.15148 0.0689,-0.0253 0.13772,-0.12675 0.20658,-0.15217 0.0689,-0.0254 0.13772,-0.12734 0.20658,-0.15287 0.0689,-0.0255 0.13772,-0.12792 0.20658,-0.15357 0.0689,-0.0257 0.13773,-0.12849 0.20659,-0.15426 0.0689,-0.0258 0.13772,-0.12907 0.20658,-0.15496 0.0689,-0.0259 0.13772,-0.12965 0.20658,-0.15565 0.0689,-0.026 0.13772,-0.13023 0.20658,-0.15635 0.0689,-0.0261 0.13773,-0.13081 0.20659,-0.15705 0.0689,-0.0262 0.13772,-0.13139 0.20658,-0.15774 0.0689,-0.0263 0.13772,-0.13197 0.20658,-0.15843 0.0689,-0.0265 0.13772,-0.13255 0.20658,-0.15913 0.0689,-0.0266 0.13772,-0.13313 0.20658,-0.15983 0.0689,-0.0267 0.13772,-0.13371 0.20658,-0.16052 0.0689,-0.0268 0.13773,-0.13429 0.20659,-0.16122 0.0689,-0.0269 0.13772,-0.13487 0.20658,-0.16192 0.0689,-0.027 0.13772,-0.13545 0.20658,-0.16261 0.0689,-0.0272 0.13772,-0.13603 0.20658,-0.1633 0.0689,-0.0273 0.13772,-0.13661 0.20658,-0.164 0.0689,-0.0274 0.13772,-0.13719 0.20658,-0.1647 0.0689,-0.0275 0.13772,-0.13777 0.20659,-0.16539 0.0689,-0.0276 0.13772,-0.13835 0.20658,-0.16609 0.0689,-0.0277 0.13772,-0.13893 0.20658,-0.16678 0.0689,-0.0279 0.13772,-0.13951 0.20658,-0.16748 0.0689,-0.028 0.13772,-0.14009 0.20658,-0.16818 0.0689,-0.0281 0.13772,-0.14067 0.20658,-0.16887 0.0689,-0.0282 0.13772,-0.14125 0.20658,-0.16957 0.0689,-0.0283 0.13773,-0.14182 0.20659,-0.17026 0.0689,-0.0284 0.13772,-0.1424 0.20658,-0.17096 0.0689,-0.0285 0.13772,-0.14298 0.20658,-0.17165 0.0689,-0.0287 0.13772,-0.14357 0.20658,-0.17235 0.0689,-0.0288 0.13772,-0.14414 0.20658,-0.17304 0.0689,-0.0289 0.13772,-0.14473 0.20658,-0.17374 0.0689,-0.029 0.13773,-0.14531 0.20659,-0.17444 0.0689,-0.0291 0.13772,-0.14588 0.20658,-0.17513 0.0689,-0.0292 0.13772,-0.14647 0.20658,-0.17583 0.0689,-0.0294 0.13772,-0.14704 0.20658,-0.17652 0.0689,-0.0295 0.13772,-0.14763 0.20658,-0.17722 0.0689,-0.0296 0.13772,-0.1482 0.20658,-0.17791 0.0689,-0.0297 0.13772,-0.14879 0.20659,-0.17861 0.0689,-0.0298 0.13772,-0.14937 0.20658,-0.17931 0.0689,-0.0299 0.13772,-0.14994 0.20658,-0.18 0.0689,-0.0301 0.13772,-0.15052 0.20658,-0.1807 0.0689,-0.0302 0.13772,-0.1511 0.20658,-0.18139 0.0689,-0.0303 0.13772,-0.15168 0.20658,-0.18209 0.0689,-0.0304 0.13772,-0.15226 0.20658,-0.18278 0.0689,-0.0305 0.13773,-0.15285 0.20659,-0.18348 0.0689,-0.0306 0.13772,-0.15342 0.20658,-0.18418 0.0689,-0.0307 0.13772,-0.154 0.20658,-0.18487 0.0689,-0.0309 0.13772,-0.15458 0.20658,-0.18557 0.0689,-0.031 0.13772,-0.15516 0.20658,-0.18626 0.0689,-0.0311 0.13772,-0.15574 0.20658,-0.18696 0.0689,-0.0312 0.13773,-0.15632 0.20659,-0.18765 0.0689,-0.0313 0.13772,-0.1569 0.20658,-0.18835 0.0689,-0.0315 0.13772,-0.15748 0.20658,-0.18904 0.0689,-0.0316 0.13772,-0.15806 0.20658,-0.18974 0.0689,-0.0317 0.13772,-0.15864 0.20658,-0.19044 0.0689,-0.0318 0.13772,-0.15922 0.20658,-0.19113 0.0689,-0.0319 0.13772,-0.1598 0.20659,-0.19183 0.0689,-0.032 0.13772,-0.16038 0.20658,-0.19252 0.0689,-0.0322 0.13772,-0.16096 0.20658,-0.19322 0.0689,-0.0323 0.13772,-0.16154 0.20658,-0.19392 0.0689,-0.0324 0.13772,-0.16211 0.20658,-0.19461 0.0689,-0.0325 0.13772,-0.16269 0.20658,-0.1953 0.0689,-0.0326 0.13772,-0.16328 0.20658,-0.196 0.0689,-0.0327 0.13773,-0.16386 0.20659,-0.1967 0.0689,-0.0328 0.13772,-0.16444 0.20658,-0.19739 0.0689,-0.033 0.13772,-0.16502 0.20658,-0.19809 0.0689,-0.0331 0.13772,-0.1656 0.20658,-0.19879 0.0689,-0.0332 0.13772,-0.16617 0.20658,-0.19948 0.0689,-0.0333 0.13772,-0.16675 0.20658,-0.20017 0.0689,-0.0334 0.13773,-0.16734 0.20659,-0.20087 0.0689,-0.0335 0.13772,-0.16792 0.20658,-0.20157 0.0689,-0.0336 0.13772,-0.16849 0.20658,-0.20226 0.0689,-0.0338 0.13772,-0.16908 0.20658,-0.20296 0.0689,-0.0339 0.13772,-0.16965 0.20658,-0.20365 0.0689,-0.034 0.13772,-0.17024 0.20658,-0.20435 0.0689,-0.0341 0.13772,-0.17082 0.20659,-0.20505 0.0689,-0.0342 0.13772,-0.17139 0.20658,-0.20574 0.0689,-0.0344 0.13772,-0.17197 0.20658,-0.20643 0.0689,-0.0345 0.13772,-0.17256 0.20658,-0.20714 0.0689,-0.0346 0.13772,-0.17313 0.20658,-0.20782 0.0689,-0.0347 0.13772,-0.17372 0.20658,-0.20853 0.0689,-0.0348 0.13772,-0.17429 0.20658,-0.20922 0.0689,-0.0349 0.13773,-0.17487 0.20659,-0.20991 0.0689,-0.035 0.13772,-0.17545 0.20658,-0.21061 0.0689,-0.0352 0.13772,-0.17603 0.20658,-0.21131 0.0689,-0.0353 0.13772,-0.17661 0.20658,-0.212 0.0689,-0.0354 0.13772,-0.17719 0.20658,-0.2127 0.0689,-0.0355 0.13772,-0.17777 0.20658,-0.21339 0.0689,-0.0356 0.13773,-0.17835 0.20659,-0.21409 0.0689,-0.0357 0.13772,-0.17893 0.20658,-0.21478 0.0689,-0.0359 0.13772,-0.17951 0.20658,-0.21548 0.0689,-0.036 0.13772,-0.18009 0.20658,-0.21618 0.0689,-0.0361 0.13772,-0.18066 0.20658,-0.21687 0.0689,-0.0362 0.13772,-0.18125 0.20658,-0.21756 0.0689,-0.0363 0.13772,-0.18183 0.20659,-0.21827 0.0689,-0.0364 0.13772,-0.1824 0.20658,-0.21896 0.0689,-0.0365 0.13772,-0.18298 0.20658,-0.21965 0.0689,-0.0367 0.13772,-0.18357 0.20658,-0.22035 0.0689,-0.0368 0.13772,-0.18414 0.20658,-0.22104 0.0689,-0.0369 0.13772,-0.18473 0.20658,-0.22174 0.0689,-0.037 0.13772,-0.18531 0.20658,-0.22244 0.0689,-0.0371 0.13773,-0.18589 0.20659,-0.22313 0.0689,-0.0373 0.13772,-0.18647 0.20658,-0.22383 0.0689,-0.0374 0.13772,-0.18705 0.20658,-0.22452 0.0689,-0.0375 0.13772,-0.18763 0.20658,-0.22522 0.0689,-0.0376 0.13772,-0.18821 0.20658,-0.22592 0.0689,-0.0377 0.13772,-0.18878 0.20658,-0.22661 0.0689,-0.0378 0.13773,-0.18936 0.20659,-0.2273 0.0689,-0.0379 0.13772,-0.18995 0.20658,-0.22801 0.0689,-0.038 0.13772,-0.19052 0.20658,-0.22869 0.0689,-0.0382 0.13772,-0.19111 0.20658,-0.2294 0.0689,-0.0383 0.13772,-0.19168 0.20658,-0.23008 0.0689,-0.0384 0.13772,-0.19227 0.20658,-0.23079 0.0689,-0.0385 0.13772,-0.19284 0.20659,-0.23148 0.0689,-0.0386 0.13772,-0.19342 0.20658,-0.23217 0.0689,-0.0388 0.13772,-0.19401 0.20658,-0.23288 0.0689,-0.0389 0.13772,-0.19458 0.20658,-0.23356 0.0689,-0.039 0.13772,-0.19516 0.20658,-0.23427 0.0689,-0.0391 0.13772,-0.19574 0.20658,-0.23495 0.0689,-0.0392 0.13772,-0.19632 0.20658,-0.23566 0.0689,-0.0393 0.13773,-0.1969 0.20659,-0.23635 0.0689,-0.0394 0.13772,-0.19748 0.20658,-0.23704 0.0689,-0.0396 0.13772,-0.19806 0.20658,-0.23774 0.0689,-0.0397 0.13772,-0.19864 0.20658,-0.23844 0.0689,-0.0398 0.13772,-0.19922 0.20658,-0.23913 0.0689,-0.0399 0.13772,-0.1998 0.20658,-0.23983 0.0689,-0.04 0.13773,-0.20038 0.20659,-0.24052 0.0689,-0.0402 0.13772,-0.20096 0.20658,-0.24122 0.0689,-0.0403 0.13772,-0.20154 0.20658,-0.24192 0.0689,-0.0404 0.13772,-0.20211 0.20658,-0.24261 0.0689,-0.0405 0.13772,-0.2027 0.20658,-0.2433 0.0689,-0.0406 0.13772,-0.20328 0.20658,-0.24401 0.0689,-0.0407 0.13772,-0.20385 0.20659,-0.24469 0.0689,-0.0408 0.13772,-0.20444 0.20658,-0.2454 0.0689,-0.041 0.13772,-0.20501 0.20658,-0.24609 0.0689,-0.0411 0.13772,-0.20559 0.20658,-0.24678 0.0689,-0.0412 0.13772,-0.20618 0.20658,-0.24748 0.0689,-0.0413 0.13772,-0.20676 0.20658,-0.24818 0.0689,-0.0414 0.13772,-0.20733 0.20658,-0.24887 0.0689,-0.0415 0.13773,-0.20791 0.20659,-0.24956 0.0689,-0.0417 0.13772,-0.2085 0.20658,-0.25027 0.0689,-0.0418 0.13772,-0.20907 0.20658,-0.25096 0.0689,-0.0419 0.13772,-0.20965 0.20658,-0.25165 0.0689,-0.042 0.13772,-0.21023 0.20658,-0.25235 0.0689,-0.0421 0.13772,-0.21081 0.20658,-0.25304 0.0689,-0.0422 0.13773,-0.2114 0.20659,-0.25375 0.0689,-0.0423 0.13772,-0.21197 0.20658,-0.25443 0.0689,-0.0425 0.13772,-0.21255 0.20658,-0.25513 0.0689,-0.0426 0.13772,-0.21314 0.20658,-0.25583 0.0689,-0.0427 0.13772,-0.21371 0.20658,-0.25653 0.0689,-0.0428 0.13772,-0.21429 0.20658,-0.25722 0.0689,-0.0429 0.13772,-0.21487 0.20659,-0.25791 0.0689,-0.043 0.13772,-0.21545 0.20658,-0.25861 0.0689,-0.0432 0.13772,-0.21603 0.20658,-0.25931 0.0689,-0.0433 0.13772,-0.21661 0.20658,-0.26 0.0689,-0.0434 0.13772,-0.21719 0.20658,-0.2607 0.0689,-0.0435 0.13772,-0.21777 0.20658,-0.26139 0.0689,-0.0436 0.13772,-0.21835 0.20658,-0.26209 0.0689,-0.0437 0.13773,-0.21893 0.20659,-0.26278 0.0689,-0.0439 0.13772,-0.21951 0.20658,-0.26348 0.0689,-0.044 0.13772,-0.22009 0.20658,-0.26418 0.0689,-0.0441 0.13772,-0.22067 0.20658,-0.26487 0.0689,-0.0442 0.13772,-0.22125 0.20658,-0.26557 0.0689,-0.0443 0.13772,-0.22183 0.20658,-0.26626 0.0689,-0.0444 0.13773,-0.22241 0.20659,-0.26696 0.0689,-0.0445 0.13772,-0.22299 0.20658,-0.26765 0.0689,-0.0447 0.13772,-0.22357 0.20658,-0.26835 0.0689,-0.0448 0.13772,-0.22415 0.20658,-0.26905 0.0689,-0.0449 0.13772,-0.22472 0.20658,-0.26974 0.0689,-0.045 0.13772,-0.22531 0.20658,-0.27044 0.0689,-0.0451 0.13772,-0.22588 0.20659,-0.27113 0.0689,-0.0453 0.13772,-0.22646 0.20658,-0.27183 0.0689,-0.0454 0.13772,-0.22704 0.20658,-0.27252 0.0689,-0.0455 0.13772,-0.22763 0.20658,-0.27322 0.0689,-0.0456 0.13772,-0.2282 0.20658,-0.27392 0.0689,-0.0457 0.13772,-0.22878 0.20658,-0.27461 0.0689,-0.0458 0.13772,-0.22936 0.20659,-0.2753 0.0689,-0.0459 0.13772,-0.22995 0.20658,-0.276 0.0689,-0.0461 0.13772,-0.23053 0.20658,-0.2767 0.0689,-0.0462 0.13772,-0.23111 0.20658,-0.2774 0.0689,-0.0463 0.13772,-0.23168 0.20658,-0.27808 0.0689,-0.0464 0.13772,-0.23227 0.20658,-0.27879 0.0689,-0.0465 0.13772,-0.23284 0.20658,-0.27948 0.0689,-0.0466 0.13773,-0.23342 0.20659,-0.28018 0.0689,-0.0468 0.13772,-0.234 0.20658,-0.28087 0.0689,-0.0469 0.13772,-0.23458 0.20658,-0.28156 0.0689,-0.047 0.13772,-0.23517 0.20658,-0.28227 0.0689,-0.0471 0.13772,-0.23574 0.20658,-0.28296 0.0689,-0.0472 0.13772,-0.23632 0.20658,-0.28365 0.0689,-0.0473 0.13773,-0.2369 0.20659,-0.28435 0.0689,-0.0474 0.13772,-0.23748 0.20658,-0.28505 0.0689,-0.0476 0.13772,-0.23806 0.20658,-0.28574 0.0689,-0.0477 0.13772,-0.23864 0.20658,-0.28643 0.0689,-0.0478 0.13772,-0.23922 0.20658,-0.28714 0.0689,-0.0479 0.13772,-0.2398 0.20658,-0.28782 0.0689,-0.048 0.13772,-0.24038 0.20659,-0.28853 0.0689,-0.0481 0.13772,-0.24096 0.20658,-0.28922 0.0689,-0.0483 0.13772,-0.24154 0.20658,-0.28991 0.0689,-0.0484 0.13772,-0.24212 0.20658,-0.29061 0.0689,-0.0485 0.13772,-0.2427 0.20658,-0.29131 0.0689,-0.0486 0.13772,-0.24328 0.20658,-0.292 0.0689,-0.0487 0.13772,-0.24386 0.20658,-0.2927 0.0689,-0.0488 0.13773,-0.24444 0.20659,-0.29339 0.0689,-0.049 0.13772,-0.24502 0.20658,-0.29409 0.0689,-0.0491 0.13772,-0.2456 0.20658,-0.29479 0.0689,-0.0492 0.13772,-0.24617 0.20658,-0.29548 0.0689,-0.0493 0.13772,-0.24675 0.20658,-0.29617 0.0689,-0.0494 0.13772,-0.24734 0.20658,-0.29688 0.0689,-0.0495 0.13773,-0.24791 0.20659,-0.29756 0.0689,-0.0497 0.13772,-0.2485 0.20658,-0.29827 0.0689,-0.0498 0.13772,-0.24907 0.20658,-0.29896 0.0689,-0.0499 0.13772,-0.24965 0.20658,-0.29965 0.0689,-0.05 0.13772,-0.25023 0.20658,-0.30035 0.0689,-0.0501 0.13772,-0.25081 0.20658,-0.30105 0.0689,-0.0502 0.13772,-0.25139 0.20659,-0.30174 0.0689,-0.0503 0.13772,-0.25197 0.20658,-0.30243 0.0689,-0.0505 0.13772,-0.25256 0.20658,-0.30314 0.0689,-0.0506 0.13772,-0.25313 0.20658,-0.30382 0.0689,-0.0507 0.13772,-0.25372 0.20658,-0.30453 0.0689,-0.0508 0.13772,-0.25429 0.20658,-0.30522 0.0689,-0.0509 0.13772,-0.25487 0.20658,-0.30591 0.0689,-0.0511 0.13773,-0.25545 0.20659,-0.30661 0.0689,-0.0512 0.13772,-0.25604 0.20658,-0.30731 0.0689,-0.0513 0.13772,-0.25661 0.20658,-0.308 0.0689,-0.0514 0.13772,-0.25719 0.20658,-0.3087 0.0689,-0.0515 0.13772,-0.25777 0.20658,-0.3094 0.0689,-0.0516 0.13772,-0.25834 0.20658,-0.31008 0.0689,-0.0517 0.13773,-0.25893 0.20659,-0.31079 0.0689,-0.0519 0.13772,-0.25951 0.20658,-0.31148 0.0689,-0.052 0.13772,-0.26009 0.20658,-0.31218 0.0689,-0.0521 0.13772,-0.26066 0.20658,-0.31287 0.0689,-0.0522 0.13772,-0.26125 0.20658,-0.31357 0.0689,-0.0523 0.13772,-0.26182 0.20658,-0.31426 0.0689,-0.0524 0.13772,-0.26241 0.20659,-0.31496 0.0689,-0.0525 0.13772,-0.26298 0.20658,-0.31565 0.0689,-0.0527 0.13772,-0.26357 0.20658,-0.31635 0.0689,-0.0528 0.13772,-0.26415 0.20658,-0.31705 0.0689,-0.0529 0.13772,-0.26472 0.20658,-0.31774 0.0689,-0.053 0.13772,-0.26531 0.20658,-0.31844 0.0689,-0.0531 0.13772,-0.26588 0.20658,-0.31913 0.0689,-0.0533 0.13773,-0.26647 0.20659,-0.31983 0.0689,-0.0534 0.13772,-0.26704 0.20658,-0.32052 0.0689,-0.0535 0.13772,-0.26763 0.20658,-0.32122 0.0689,-0.0536 0.13772,-0.26821 0.20658,-0.32192 0.0689,-0.0537 0.13772,-0.26878 0.20658,-0.32261 0.0689,-0.0538 0.13772,-0.26936 0.20658,-0.3233 0.0689,-0.054 0.13773,-0.26995 0.20659,-0.32401 0.0689,-0.0541 0.13772,-0.27052 0.20658,-0.3247 0.0689,-0.0542 0.13772,-0.2711 0.20658,-0.32539 0.0689,-0.0543 0.13772,-0.27168 0.20658,-0.32609 0.0689,-0.0544 0.13772,-0.27226 0.20658,-0.32678 0.0689,-0.0545 0.13772,-0.27285 0.20658,-0.32748 0.0689,-0.0546 0.13772,-0.27343 0.20659,-0.32818 0.0689,-0.0547 0.13772,-0.274 0.20658,-0.32887 0.0689,-0.0549 0.13772,-0.27458 0.20658,-0.32957 0.0689,-0.055 0.13772,-0.27516 0.20658,-0.33026 0.0689,-0.0551 0.13772,-0.27574 0.20658,-0.33096 0.0689,-0.0552 0.13772,-0.27632 0.20658,-0.33166 0.0689,-0.0553 0.13772,-0.2769 0.20658,-0.33235 0.0689,-0.0554 0.13773,-0.27748 0.20659,-0.33304 0.0689,-0.0556 0.13772,-0.278057 0.20658,-0.333737 0.0689,-0.0557 0.13772,-0.27864 0.20658,-0.33444 0.0689,-0.0558 0.13772,-0.279217 0.20658,-0.335127 0.0689,-0.0559 0.13772,-0.279797 0.20658,-0.335827 0.0689,-0.056 0.13772,-0.28038 0.20658,-0.33653 0.0689,-0.0561 0.13773,-0.280957 0.20659,-0.337217 0.0689,-0.0563 0.13772,-0.281537 0.20658,-0.337907 0.0689,-0.0564 0.13772,-0.28212 0.20658,-0.33861 0.0689,-0.0565 0.13772,-0.282697 0.20658,-0.339307 0.0689,-0.0566 0.13772,-0.28328 0.20658,-0.339997 0.0689,-0.0567 0.13772,-0.28386 0.20658,-0.3407 0.0689,-0.0568 0.13772,-0.284437 0.20659,-0.341397 0.0689,-0.057 0.13772,-0.28501 0.20658,-0.34209 0.0689,-0.0571 0.13772,-0.285587 0.20658,-0.342777 0.0689,-0.0572 0.13772,-0.286177 0.20658,-0.343477 0.0689,-0.0573 0.13772,-0.28676 0.20658,-0.34418 0.0689,-0.0574 0.13772,-0.287327 0.20658,-0.344867 0.0689,-0.0575 0.13772,-0.287907 0.20658,-0.345567 0.0689,-0.0577 0.13773,-0.28849 0.20659,-0.34626 0.0689,-0.0578 0.13772,-0.289077 0.20658,-0.346957 0.0689,-0.0579 0.13772,-0.289647 0.20658,-0.347647 0.0689,-0.058 0.13772,-0.29024 0.20658,-0.34836 0.0689,-0.0581 0.13772,-0.290807 0.20658,-0.349037 0.0689,-0.0582 0.13772,-0.291387 0.20658,-0.349737 0.0689,-0.0583 0.13773,-0.29198 0.20659,-0.35044 0.0689,-0.0585 0.13772,-0.292547 0.20658,-0.351127 0.0689,-0.0586 0.13772,-0.293137 0.20658,-0.351827 0.0689,-0.0587 0.13772,-0.29371 0.20658,-0.35253 0.0689,-0.0588 0.13772,-0.294287 0.20658,-0.353217 0.0689,-0.0589 0.13772,-0.294867 0.20658,-0.353907 0.0689,-0.059 0.13772,-0.29545 0.20659,-0.35461 0.0689,-0.0592 0.13772,-0.296027 0.20658,-0.355307 0.0689,-0.0593 0.13772,-0.296607 0.20658,-0.355997 0.0689,-0.0594 0.13772,-0.29719 0.20658,-0.3567 0.0689,-0.0595 0.13772,-0.297767 0.20658,-0.357397 0.0689,-0.0596 0.13772,-0.298347 0.20658,-0.358077 0.0689,-0.0597 0.13772,-0.29893 0.20658,-0.35879 0.0689,-0.0599 0.13773,-0.299507 0.20659,-0.359477 0.0689,-0.06 0.13772,-0.300087 0.20658,-0.360177 0.0689,-0.0601 0.13772,-0.30067 0.20658,-0.36087 0.0689,-0.0602 0.13772,-0.301247 0.20658,-0.361567 0.0689,-0.0603 0.13772,-0.301827 0.20658,-0.362257 0.0689,-0.0604 0.13772,-0.30241 0.20658,-0.36296 0.0689,-0.0606 0.13773,-0.302987 0.20659,-0.363657 0.0689,-0.0607 0.13772,-0.303563 0.20658,-0.364346 0.0689,-0.06078 0.13772,-0.304147 0.20658,-0.365046 0.0689,-0.0609 0.13772,-0.304727 0.20658,-0.365742 0.0689,-0.06101 0.13772,-0.305306 0.20658,-0.366437 0.0689,-0.06113 0.13772,-0.305886 0.20658,-0.367133 0.0689,-0.06125 0.13772,-0.306466 0.20659,-0.367829 0.0689,-0.06136 0.13772,-0.307046 0.20658,-0.368524 0.0689,-0.06148 0.13772,-0.307626 0.20658,-0.369221 0.0689,-0.06159 0.13772,-0.308205 0.20658,-0.369915 0.0689,-0.06171 0.13772,-0.308785 0.20658,-0.370612 0.0689,-0.06183 0.13772,-0.309364 0.20658,-0.371307 0.0689,-0.06194 0.13772,-0.309944 0.20658,-0.372003 0.0689,-0.06206 0.13773,-0.310524 0.20659,-0.372698 0.0689,-0.06217 0.13772,-0.311104 0.20658,-0.373394 0.0689,-0.06229 0.13772,-0.311684 0.20658,-0.37409 0.0689,-0.06241 0.13772,-0.312263 0.20658,-0.374785 0.0689,-0.06252 0.13772,-0.312843 0.20658,-0.375481 0.0689,-0.06264 0.13772,-0.313423 0.20658,-0.376177 0.0689,-0.06275 0.13773,-0.314002 0.20659,-0.376872 0.0689,-0.06287 0.13772,-0.314582 0.20658,-0.377568 0.0689,-0.06299 0.13772,-0.315162 0.20658,-0.378264 0.0689,-0.0631 0.13772,-0.315741 0.20658,-0.378959 0.0689,-0.06322 0.13772,-0.316321 0.20658,-0.379655 0.0689,-0.06333 0.13772,-0.316901 0.20658,-0.380351 0.0689,-0.06345 0.13772,-0.31748 0.20659,-0.381046 0.0689,-0.06357 0.13772,-0.31806 0.20658,-0.381742 0.0689,-0.06368 0.13772,-0.31864 0.20658,-0.382438 0.0689,-0.0638 0.13772,-0.319219 0.20658,-0.383133 0.0689,-0.06391 0.13772,-0.319799 0.20658,-0.383829 0.0689,-0.06403 0.13772,-0.320379 0.20658,-0.384524 0.0689,-0.06415 0.13772,-0.320959 0.20658,-0.385221 0.0689,-0.06426 0.13773,-0.321538 0.20659,-0.385916 0.0689,-0.06438 0.13772,-0.322118 0.20658,-0.386611 0.0689,-0.06449 0.13772,-0.322698 0.20658,-0.387307 0.0689,-0.06461 0.13772,-0.323278 0.20658,-0.388003 0.0689,-0.06472 0.13772,-0.323858 0.20658,-0.388699 0.0689,-0.06484 0.13772,-0.324437 0.20658,-0.389394 0.0689,-0.06496 0.13773,-0.325017 0.20659,-0.39009 0.0689,-0.06507 0.13772,-0.325596 0.20658,-0.390785 0.0689,-0.06519 0.13772,-0.326177 0.20658,-0.391481 0.0689,-0.06531 0.13772,-0.326756 0.20658,-0.392177 0.0689,-0.06542 0.13772,-0.327336 0.20658,-0.392873 0.0689,-0.06554 0.13772,-0.327915 0.20658,-0.393568 0.0689,-0.06565 0.13772,-0.328495 0.20659,-0.394264 0.0689,-0.06577 0.13772,-0.329074 0.20658,-0.394959 0.0689,-0.06588 0.13772,-0.329655 0.20658,-0.395655 0.0689,-0.066 0.13772,-0.330234 0.20658,-0.396351 0.0689,-0.06612 0.13772,-0.330814 0.20658,-0.397046 0.0689,-0.06623 0.13772,-0.331394 0.20658,-0.397742 0.0689,-0.06635 0.13772,-0.331974 0.20658,-0.398438 0.0689,-0.06646 0.13773,-0.332553 0.20659,-0.399133 0.0689,-0.06658 0.13772,-0.333133 0.20658,-0.399829 0.0689,-0.0667 0.13772,-0.333713 0.20658,-0.400525 0.0689,-0.06681 0.13772,-0.334292 0.20658,-0.40122 0.0689,-0.06693 0.13772,-0.334873 0.20658,-0.401916 0.0689,-0.06704 0.13772,-0.335452 0.20658,-0.402612 0.0689,-0.06716 0.13773,-0.336032 0.20659,-0.403307 0.0689,-0.06728 0.13772,-0.336612 0.20658,-0.404003 0.0689,-0.06739 0.13772,-0.337191 0.20658,-0.404699 0.0689,-0.06751 0.13772,-0.337771 0.20658,-0.405394 0.0689,-0.06762 0.13772,-0.338351 0.20658,-0.40609 0.0689,-0.06774 0.13772,-0.33893 0.20658,-0.406786 0.0689,-0.06786 0.13772,-0.33951 0.20659,-0.407481 0.0689,-0.06797 0.13772,-0.34009 0.20658,-0.408177 0.0689,-0.06809 0.13772,-0.340669 0.20658,-0.408873 0.0689,-0.0682 0.13772,-0.341249 0.20658,-0.409568 0.0689,-0.06832 0.13772,-0.341829 0.20658,-0.410264 0.0689,-0.06843 0.13772,-0.342408 0.20658,-0.410959 0.0689,-0.06855 0.13772,-0.342988 0.20658,-0.411656 0.0689,-0.06867 0.13773,-0.343567 0.20659,-0.41235 0.0689,-0.06878 0.13772,-0.344148 0.20658,-0.413047 0.0689,-0.0689 0.13772,-0.344727 0.20658,-0.413742 0.0689,-0.06902 0.13772,-0.345307 0.20658,-0.414438 0.0689,-0.06913 0.13772,-0.345887 0.20658,-0.415134 0.0689,-0.06925 0.13772,-0.346466 0.20658,-0.415829 0.0689,-0.06936 0.13773,-0.347046 0.20659,-0.416525 0.0689,-0.06948 0.13772,-0.347625 0.20658,-0.41722 0.0689,-0.0696 0.13772,-0.348205 0.20658,-0.417916 0.0689,-0.06971 0.13772,-0.348785 0.20658,-0.418612 0.0689,-0.06983 0.13772,-0.349365 0.20658,-0.419307 0.0689,-0.06994 0.13772,-0.349945 0.20658,-0.420003 0.0689,-0.07006 0.13773,-0.350525 0.20659,-0.420699 0.0689,-0.07017 0.13772,-0.351104 0.20658,-0.421395 0.0689,-0.07029 0.13772,-0.351683 0.20658,-0.42209 0.0689,-0.07041 0.13772,-0.352263 0.20658,-0.422785 0.0689,-0.07052 0.13772,-0.352844 0.20658,-0.423482 0.0689,-0.07064 0.13772,-0.353423 0.20658,-0.424177 0.0689,-0.07075 0.13772,-0.354002 0.20659,-0.424873 0.0689,-0.07087 0.13772,-0.354582 0.20658,-0.425568 0.0689,-0.07099 0.13772,-0.355162 0.20658,-0.426264 0.0689,-0.0711 0.13772,-0.355742 0.20658,-0.42696 0.0689,-0.07122 0.13772,-0.356321 0.20658,-0.427655 0.0689,-0.07133 0.13772,-0.356901 0.20658,-0.428351 0.0689,-0.07145 0.13772,-0.357481 0.20658,-0.429047 0.0689,-0.07156 0.13773,-0.35806 0.20659,-0.429742 0.0689,-0.07168 0.13772,-0.35864 0.20658,-0.430438 0.0689,-0.0718 0.13772,-0.35922 0.20658,-0.431133 0.0689,-0.07191 0.13772,-0.3598 0.20658,-0.43183 0.0689,-0.07203 0.13772,-0.360379 0.20658,-0.432525 0.0689,-0.07214 0.13772,-0.360959 0.20658,-0.43322 0.0689,-0.07226 0.13773,-0.361539 0.20659,-0.433916 0.0689,-0.07238 0.13772,-0.362119 0.20658,-0.434612 0.0689,-0.07249 0.13772,-0.362699 0.20658,-0.435308 0.0689,-0.07261 0.13772,-0.363278 0.20658,-0.436003 0.0689,-0.07273 0.13772,-0.363858 0.20658,-0.436699 0.0689,-0.07284 0.13772,-0.364437 0.20658,-0.437395 0.0689,-0.07296 0.13772,-0.365017 0.20659,-0.43809 0.0689,-0.07307 0.13772,-0.365597 0.20658,-0.438786 0.0689,-0.07319 0.13772,-0.366176 0.20658,-0.439481 0.0689,-0.0733 0.13772,-0.366756 0.20658,-0.440177 0.0689,-0.07342 0.13772,-0.367336 0.20658,-0.440873 0.0689,-0.07354 0.13772,-0.367916 0.20658,-0.441569 0.0689,-0.07365 0.13772,-0.368495 0.20658,-0.442264 0.0689,-0.07377 0.13773,-0.369075 0.20659,-0.442959 0.0689,-0.07389 0.13772,-0.369655 0.20658,-0.443656 0.0689,-0.074 0.13772,-0.370235 0.20658,-0.444351 0.0689,-0.07412 0.13772,-0.370814 0.20658,-0.445047 0.0689,-0.07423 0.13772,-0.371394 0.20658,-0.445742 0.0689,-0.07435 0.13772,-0.371974 0.20658,-0.446438 0.0689,-0.07447 0.13773,-0.372554 0.20659,-0.447134 0.0689,-0.07458 0.13772,-0.373133 0.20658,-0.447829 0.0689,-0.0747 0.13772,-0.373713 0.20658,-0.448525 0.0689,-0.07481 0.13772,-0.374293 0.20658,-0.449221 0.0689,-0.07493 0.13772,-0.374872 0.20658,-0.449916 0.0689,-0.07505 0.13772,-0.375453 0.20658,-0.450613 0.0689,-0.07516 0.13772,-0.376031 0.20659,-0.451307 0.0689,-0.07528 0.13772,-0.376612 0.20658,-0.452004 0.0689,-0.07539 0.13772,-0.377191 0.20658,-0.452699 0.0689,-0.07551 0.13772,-0.37777 0.20658,-0.453394 0.0689,-0.07562 0.13772,-0.378351 0.20658,-0.45409 0.0689,-0.07574 0.13772,-0.378931 0.20658,-0.454786 0.0689,-0.07586 0.13772,-0.37951 0.20658,-0.455482 0.0689,-0.07597 0.13773,-0.38009 0.20659,-0.456177 0.0689,-0.07609 0.13772,-0.38067 0.20658,-0.456873 0.0689,-0.0762 0.13772,-0.381249 0.20658,-0.457569 0.0689,-0.07632 0.13772,-0.381829 0.20658,-0.458264 0.0689,-0.07643 0.13772,-0.382409 0.20658,-0.45896 0.0689,-0.07655 0.13772,-0.382988 0.20658,-0.459656 0.0689,-0.07667 0.13773,-0.383568 0.20659,-0.460351 0.0689,-0.07678 0.13772,-0.384148 0.20658,-0.461047 0.0689,-0.0769 0.13772,-0.384727 0.20658,-0.461742 0.0689,-0.07702 0.13772,-0.385307 0.20658,-0.462438 0.0689,-0.07713 0.13772,-0.385887 0.20658,-0.463134 0.0689,-0.07725 0.13772,-0.386467 0.20658,-0.46383 0.0689,-0.07736 0.13772,-0.387046 0.20659,-0.464525 0.0689,-0.07748 0.13772,-0.387626 0.20658,-0.465221 0.0689,-0.0776 0.13772,-0.388206 0.20658,-0.465916 0.0689,-0.07771 0.13772,-0.388786 0.20658,-0.466612 0.0689,-0.07783 0.13772,-0.389366 0.20658,-0.467308 0.0689,-0.07794 0.13772,-0.389945 0.20658,-0.468004 0.0689,-0.07806 0.13772,-0.390524 0.20658,-0.468699 0.0689,-0.07817 0.13773,-0.391104 0.20659,-0.469395 0.0689,-0.07829 0.13772,-0.391684 0.20658,-0.47009 0.0689,-0.07841 0.13772,-0.392264 0.20658,-0.470786 0.0689,-0.07852 0.13772,-0.392844 0.20658,-0.471482 0.0689,-0.07864 0.13772,-0.393423 0.20658,-0.472177 0.0689,-0.07875 0.13772,-0.394003 0.20658,-0.472873 0.0689,-0.07887 0.13773,-0.394583 0.20659,-0.473569 0.0689,-0.07899 0.13772,-0.395162 0.20658,-0.474264 0.0689,-0.0791 0.13772,-0.395742 0.20658,-0.47496 0.0689,-0.07922 0.13772,-0.396322 0.20658,-0.475656 0.0689,-0.07933 0.13772,-0.396902 0.20658,-0.476351 0.0689,-0.07945 0.13772,-0.397482 0.20658,-0.477047 0.0689,-0.07957 0.13772,-0.398061 0.20659,-0.477743 0.0689,-0.07968 0.13772,-0.398641 0.20658,-0.478438 0.0689,-0.0798 0.13772,-0.399221 0.20658,-0.479134 0.0689,-0.07991 0.13772,-0.3998 0.20658,-0.47983 0.0689,-0.08003 0.13772,-0.40038 0.20658,-0.480525 0.0689,-0.08015 0.13772,-0.40096 0.20658,-0.481221 0.0689,-0.08026 0.13772,-0.401539 0.20658,-0.481917 0.0689,-0.08038 0.13773,-0.402119 0.20659,-0.482612 0.0689,-0.08049 0.13772,-0.402699 0.20658,-0.483308 0.0689,-0.08061 0.13772,-0.403278 0.20658,-0.484004 0.0689,-0.08073 0.13772,-0.403858 0.20658,-0.484699 0.0689,-0.08084 0.13772,-0.404437 0.20658,-0.485395 0.0689,-0.08096 0.13772,-0.405017 0.20658,-0.4860897 0.0689,-0.08107 0.13773,-0.405597 0.20659,-0.486786 0.0689,-0.08119 0.13772,-0.4061767 0.20658,-0.4874817 0.0689,-0.08131 0.13772,-0.4067567 0.20658,-0.4881777 0.0689,-0.08142 0.13772,-0.4073357 0.20658,-0.4888727 0.0689,-0.08154 0.13772,-0.4079157 0.20658,-0.4895687 0.0689,-0.08165 0.13772,-0.4084957 0.20658,-0.4902637 0.0689,-0.08177 0.13772,-0.4090757 0.20659,-0.4909597 0.0689,-0.08188 0.13772,-0.4096557 0.20658,-0.4916557 0.0689,-0.082 0.13772,-0.4102347 0.20658,-0.4923517 0.0689,-0.08212 0.13772,-0.4108137 0.20658,-0.4930467 0.0689,-0.08223 0.13772,-0.4113937 0.20658,-0.4937427 0.0689,-0.08235 0.13772,-0.411974 0.20658,-0.4944377 0.0689,-0.08246 0.13772,-0.412554 0.20658,-0.4951337 0.0689,-0.08258 0.13773,-0.413134 0.20659,-0.4958297 0.0689,-0.0827 0.13772,-0.413713 0.20658,-0.496525 0.0689,-0.08281 0.13772,-0.4142927 0.20658,-0.4972207 0.0689,-0.08293 0.13772,-0.4148727 0.20658,-0.4979167 0.0689,-0.08304 0.13772,-0.4154517 0.20658,-0.4986117 0.0689,-0.08316 0.13772,-0.41603167 0.20658,-0.49930767 0.0689,-0.08328 0.13773,-0.41661167 0.20659,-0.50000367 0.0689,-0.08339 0.13772,-0.41719162 0.20658,-0.50069862 0.0689,-0.08351 0.13772,-0.41777167 0.20658,-0.50139467 0.0689,-0.08362 0.13772,-0.41835067 0.20658,-0.50209067 0.0689,-0.08374 0.13772,-0.4189307 0.20658,-0.5027857 0.0689,-0.08386 0.13772,-0.4195107 0.20658,-0.5034817 0.0689,-0.08397 0.13772,-0.4200897 0.20659,-0.5041777 0.0689,-0.08409 0.13772,-0.4206697 0.20658,-0.5048727 0.0689,-0.0842 0.13772,-0.4212497 0.20658,-0.5055687 0.0689,-0.08432 0.13772,-0.4218287 0.20658,-0.5062647 0.0689,-0.08444 0.13772,-0.4224087 0.20658,-0.5069597 0.0689,-0.08455 0.13772,-0.4229888 0.20658,-0.507656 0.0689,-0.084667 0.13772,-0.4235685 0.20658,-0.5083516 0.0689,-0.084783 0.13773,-0.4241482 0.20659,-0.5090472 0.0689,-0.084899 0.13772,-0.4247279 0.20658,-0.5097429 0.0689,-0.085015 0.13772,-0.4253076 0.20658,-0.5104386 0.0689,-0.085131 0.13772,-0.4258873 0.20658,-0.5111343 0.0689,-0.085247 0.13772,-0.4264668 0.20658,-0.5118298 0.0689,-0.085363 0.13772,-0.4270466 0.20658,-0.5125251 0.0689,-0.08548 0.13773,-0.427627 0.20659,-0.5132217 0.0689,-0.0856 0.13772,-0.428206 0.20658,-0.5139167 0.0689,-0.08571 0.13772,-0.428786 0.20658,-0.514613 0.0689,-0.08583 0.13772,-0.429365 0.20658,-0.515308 0.0689,-0.08594 0.13772,-0.429945 0.20658,-0.516004 0.0689,-0.08606 0.13772,-0.430525 0.20658,-0.5167 0.0689,-0.08617 0.13772,-0.431105 0.20659,-0.517395 0.0689,-0.08629 0.13772,-0.431685 0.20658,-0.518091 0.0689,-0.08641 0.13772,-0.432265 0.20658,-0.518787 0.0689,-0.08652 0.13772,-0.432844 0.20658,-0.519482 0.0689,-0.08664 0.13772,-0.433424 0.20658,-0.520179 0.0689,-0.08675 0.13772,-0.434003 0.20658,-0.520873"
       style="opacity:1;fill:none;fill-opacity:1;stroke:#000000;stroke-width:0.60000002;stroke-linecap:butt;stroke-linejoin:round;stroke-miterlimit:4;stroke-dasharray:none;stroke-dashoffset:0;stroke-opacity:1;paint-order:normal"
       inkscape:connector-curvature="0" />
    <path
       style="fill:none;stroke:#000000;stroke-width:0.5;stroke-linecap:butt;stroke-linejoin:miter;stroke-opacity:1;stroke-miterlimit:4;stroke-dasharray:1.5,1.5;stroke-dashoffset:0"
       d="m 164.04166,180.58332 c 0,-82.020831 0,-82.020831 0,-82.020831"
       id="path3738"
       inkscape:connector-curvature="0" />
    <path
       style="fill:none;stroke:#000000;stroke-width:0.5;stroke-linecap:butt;stroke-linejoin:miter;stroke-opacity:1;stroke-miterlimit:4;stroke-dasharray:1.5,1.5;stroke-dashoffset:0"
       d="m 66.145832,98.562489 c 97.895828,0 97.895828,0 97.895828,0"
       id="path3740"
       inkscape:connector-curvature="0" />
    <path
       style="opacity:1;fill:#ffffff;fill-opacity:1;stroke:#000000;stroke-width:0.666673;stroke-linecap:butt;stroke-linejoin:round;stroke-miterlimit:4;stroke-dasharray:none;stroke-dashoffset:0;stroke-opacity:1;paint-order:normal"
       id="path3742"
       sodipodi:type="arc"
       sodipodi:cx="163.51251"
       sodipodi:cy="99.091705"
       sodipodi:rx="2.6458333"
       sodipodi:ry="2.6458838"
       sodipodi:start="0"
       sodipodi:end="6.2831679"
       sodipodi:open="true"
       d="m 166.15835,99.091705 a 2.6458333,2.6458838 0 0 1 -2.64583,2.645885 2.6458333,2.6458838 0 0 1 -2.64584,-2.645862 2.6458333,2.6458838 0 0 1 2.6458,-2.645906 2.6458333,2.6458838 0 0 1 2.64587,2.645837" />
    <g
       title="\large$a$"
       style="fill:#000000"
       id="equation_03"
       transform="translate(83.77377,128.4557)">
      <defs
         id="defs3775">
        <path
           d="m 3.598506,-1.422665 c -0.059776,0.203238 -0.059776,0.227148 -0.227149,0.454296 -0.263013,0.334745 -0.789041,0.848817 -1.350934,0.848817 -0.490161,0 -0.76513,-0.442341 -0.76513,-1.147696 0,-0.657534 0.37061,-1.996513 0.597758,-2.49863 0.406476,-0.836862 0.968369,-1.267248 1.43462,-1.267248 0.789041,0 0.944459,0.980324 0.944459,1.075965 0,0.011956 -0.035866,0.167373 -0.047821,0.191283 z m 0.76513,-3.060523 C 4.23213,-4.794022 3.90934,-5.272229 3.287671,-5.272229 c -1.350934,0 -2.809464,1.745454 -2.809464,3.514819 0,1.183562 0.693399,1.876962 1.506351,1.876962 0.657534,0 1.219427,-0.514073 1.554172,-0.908593 0.119551,0.705355 0.681444,0.908593 1.040099,0.908593 0.358655,0 0.645579,-0.215193 0.860772,-0.645579 0.191283,-0.406476 0.358656,-1.135741 0.358656,-1.183562 0,-0.059776 -0.047821,-0.107597 -0.119552,-0.107597 -0.107597,0 -0.119552,0.059776 -0.167372,0.239104 -0.179328,0.705355 -0.406476,1.45853 -0.896638,1.45853 -0.3467,0 -0.37061,-0.310834 -0.37061,-0.549937 0,-0.274969 0.035865,-0.406476 0.143462,-0.872728 0.083686,-0.298879 0.143462,-0.561893 0.239103,-0.908592 0.442341,-1.793276 0.549938,-2.223662 0.549938,-2.295393 0,-0.167372 -0.131507,-0.298879 -0.310835,-0.298879 -0.382565,0 -0.478206,0.418431 -0.502117,0.561893 z"
           id="equation_03_00"
           inkscape:connector-curvature="0" />
      </defs>
      <g
         id="equation_03_g">
        <use
           id="use3777"
           xlink:href="#equation_03_00"
           y="62.764633"
           x="76.712326"
           width="100%"
           height="100%" />
      </g>
    </g>
    <g
       title="\large$A$"
       style="fill:#000000"
       id="equation_04"
       transform="translate(-27.44313,38.230612)">
      <defs
         id="defs3825">
        <path
           d="M 2.032379,-1.327024 C 1.613948,-0.621669 1.207472,-0.382565 0.633624,-0.3467 0.502117,-0.334745 0.406476,-0.334745 0.406476,-0.119552 0.406476,-0.047821 0.466252,0 0.549938,0 0.765131,0 1.303113,-0.02391 1.518306,-0.02391 1.865006,-0.02391 2.247572,0 2.582316,0 2.654047,0 2.797509,0 2.797509,-0.227148 2.797509,-0.334745 2.701868,-0.3467 2.630137,-0.3467 2.355168,-0.37061 2.12802,-0.466252 2.12802,-0.753176 c 0,-0.167372 0.071731,-0.298879 0.227148,-0.561892 L 3.263761,-2.82142 h 3.048568 c 0.011955,0.107597 0.011955,0.203238 0.02391,0.310835 0.035866,0.310834 0.179328,1.554172 0.179328,1.78132 0,0.358655 -0.609714,0.382565 -0.800997,0.382565 -0.131506,0 -0.263013,0 -0.263013,0.215193 C 5.451557,0 5.559153,0 5.630884,0 5.834122,0 6.073225,-0.02391 6.276463,-0.02391 H 6.957908 C 7.687173,-0.02391 8.2132,0 8.225156,0 8.308842,0 8.440349,0 8.440349,-0.227148 8.440349,-0.3467 8.332752,-0.3467 8.153425,-0.3467 7.49589,-0.3467 7.483935,-0.454296 7.44807,-0.812951 L 6.718804,-8.272976 C 6.694894,-8.51208 6.647073,-8.53599 6.515567,-8.53599 c -0.119552,0 -0.191283,0.02391 -0.29888,0.203238 z m 1.43462,-1.841096 2.402989,-4.016936 0.406475,4.016936 z"
           id="equation_04_00"
           inkscape:connector-curvature="0" />
      </defs>
      <g
         id="equation_04_g">
        <use
           id="use3827"
           xlink:href="#equation_04_00"
           y="62.764633"
           x="76.712326"
           width="100%"
           height="100%" />
      </g>
    </g>
    <g
       title="\large$y=f(x)$"
       style="fill:#000000"
       id="equation_05"
       transform="translate(59.868374,-37.417734)">
      <defs
         id="defs3885">
        <path
           d="m 5.332005,-4.805978 c 0.239103,0 0.334745,0 0.334745,-0.227148 0,-0.119551 -0.095642,-0.119551 -0.310835,-0.119551 H 4.387547 c 0.227148,-1.231383 0.39452,-2.0802 0.490162,-2.462765 0.071731,-0.286924 0.322789,-0.561893 0.633624,-0.561893 0.251058,0 0.502117,0.107597 0.621668,0.215193 -0.466251,0.047821 -0.609713,0.394521 -0.609713,0.597758 0,0.239104 0.179327,0.382566 0.406475,0.382566 0.239104,0 0.597759,-0.203238 0.597759,-0.657534 0,-0.502117 -0.502117,-0.777086 -1.028145,-0.777086 -0.514072,0 -1.016189,0.382565 -1.255292,0.848817 -0.215193,0.41843 -0.334745,0.848817 -0.609714,2.414944 H 2.833375 c -0.227148,0 -0.3467,0 -0.3467,0.215193 0,0.131506 0.071731,0.131506 0.310834,0.131506 H 3.56264 c -0.215193,1.111831 -0.705355,3.813699 -0.980324,5.092902 -0.203238,1.0401 -0.382565,1.912827 -0.980323,1.912827 -0.035866,0 -0.382566,0 -0.597759,-0.227148 C 1.613948,1.924782 1.613948,1.398755 1.613948,1.3868 c 0,-0.239104 -0.179328,-0.382566 -0.406476,-0.382566 -0.239103,0 -0.597758,0.203238 -0.597758,0.657534 0,0.514073 0.526027,0.777086 0.992279,0.777086 1.219427,0 1.721544,-2.187795 1.853051,-2.785554 0.215193,-0.920548 0.800996,-4.100623 0.860772,-4.459278 z"
           id="equation_05_00"
           inkscape:connector-curvature="0" />
        <path
           d="m 5.66675,-4.877709 c -0.382566,0.071731 -0.526028,0.358655 -0.526028,0.585804 0,0.286924 0.227148,0.382565 0.394521,0.382565 0.358655,0 0.609713,-0.310834 0.609713,-0.633624 0,-0.502117 -0.573848,-0.729265 -1.075965,-0.729265 -0.729265,0 -1.135741,0.71731 -1.243337,0.944458 -0.274969,-0.896637 -1.016189,-0.944458 -1.231383,-0.944458 -1.219427,0 -1.865006,1.566127 -1.865006,1.829141 0,0.04782 0.047821,0.107596 0.131507,0.107596 0.095641,0 0.119552,-0.071731 0.143462,-0.119552 0.406476,-1.327023 1.207472,-1.578082 1.554172,-1.578082 0.537983,0 0.645579,0.502117 0.645579,0.789041 0,0.263014 -0.071731,0.537983 -0.215193,1.111831 l -0.406476,1.637858 c -0.179327,0.71731 -0.526027,1.374844 -1.159651,1.374844 -0.059776,0 -0.358655,0 -0.609714,-0.155417 0.430386,-0.083686 0.526028,-0.442341 0.526028,-0.585803 0,-0.239103 -0.179328,-0.382565 -0.406476,-0.382565 -0.286924,0 -0.597758,0.251058 -0.597758,0.633623 0,0.502117 0.561893,0.729266 1.075965,0.729266 0.573848,0 0.980324,-0.454297 1.231382,-0.944459 0.191283,0.705355 0.789041,0.944459 1.231382,0.944459 1.219428,0 1.865007,-1.566127 1.865007,-1.829141 0,-0.059776 -0.047821,-0.107597 -0.119552,-0.107597 -0.107596,0 -0.119552,0.059776 -0.155417,0.155418 -0.32279,1.052054 -1.016189,1.542216 -1.554172,1.542216 -0.418431,0 -0.645579,-0.310834 -0.645579,-0.800996 0,-0.263014 0.047821,-0.454296 0.239103,-1.243337 l 0.418431,-1.625903 c 0.179328,-0.71731 0.585803,-1.243338 1.135741,-1.243338 0.02391,0 0.358655,0 0.609714,0.155417 z"
           id="equation_05_01"
           inkscape:connector-curvature="0" />
        <path
           d="M 3.144209,1.338979 C 2.82142,1.793275 2.355168,2.199751 1.769365,2.199751 c -0.143462,0 -0.71731,-0.02391 -0.896638,-0.573848 0.035866,0.011955 0.095642,0.011955 0.119552,0.011955 0.358655,0 0.597758,-0.310834 0.597758,-0.585803 0,-0.274969 -0.227148,-0.37061 -0.406475,-0.37061 -0.191283,0 -0.609714,0.143462 -0.609714,0.729265 0,0.609713 0.514072,1.028144 1.195517,1.028144 1.195517,0 2.402989,-1.099875 2.737733,-2.426899 L 5.678705,-4.65056 C 5.69066,-4.710336 5.71457,-4.782067 5.71457,-4.853798 c 0,-0.179328 -0.143462,-0.298879 -0.322789,-0.298879 -0.107597,0 -0.358655,0.04782 -0.454297,0.406475 l -0.884682,3.51482 c -0.059776,0.215193 -0.059776,0.239103 -0.155417,0.37061 -0.239104,0.334745 -0.633624,0.74122 -1.207472,0.74122 -0.66949,0 -0.729265,-0.657534 -0.729265,-0.980323 0,-0.681445 0.322789,-1.601993 0.645579,-2.462765 0.131506,-0.3467 0.203238,-0.514072 0.203238,-0.753176 0,-0.502117 -0.358656,-0.956413 -0.944459,-0.956413 -1.099875,0 -1.542216,1.733499 -1.542216,1.829141 0,0.04782 0.04782,0.107596 0.131506,0.107596 0.107597,0 0.119552,-0.047821 0.167373,-0.215193 0.286924,-1.004234 0.74122,-1.482441 1.207472,-1.482441 0.107596,0 0.310834,0 0.310834,0.394521 0,0.310834 -0.131507,0.657534 -0.310834,1.11183 -0.585804,1.566127 -0.585804,1.960648 -0.585804,2.247572 0,1.135741 0.812952,1.398755 1.41071,1.398755 0.3467,0 0.777086,-0.107597 1.195517,-0.549938 l 0.011955,0.011955 C 3.682192,0.286924 3.56264,0.753176 3.144209,1.338979 Z"
           id="equation_05_02"
           inkscape:connector-curvature="0" />
        <path
           d="m 3.88543,2.905106 c 0,-0.035866 0,-0.059776 -0.203238,-0.263014 C 2.486675,1.43462 1.817186,-0.537983 1.817186,-2.976837 c 0,-2.319302 0.561892,-4.315816 1.948692,-5.726525 0.119552,-0.107597 0.119552,-0.131507 0.119552,-0.167373 0,-0.071731 -0.059776,-0.095641 -0.107597,-0.095641 -0.155417,0 -1.135741,0.860772 -1.721544,2.032378 -0.609714,1.207472 -0.884683,2.486675 -0.884683,3.957161 0,1.06401 0.167373,2.486675 0.789042,3.765878 0.705354,1.43462 1.685678,2.211706 1.817185,2.211706 0.047821,0 0.107597,-0.02391 0.107597,-0.095641 z"
           id="equation_05_03"
           inkscape:connector-curvature="0" />
        <path
           d="m 3.371357,-2.976837 c 0,-0.908593 -0.119551,-2.391033 -0.789041,-3.777833 -0.705355,-1.43462 -1.685678,-2.211706 -1.817185,-2.211706 -0.047821,0 -0.107597,0.02391 -0.107597,0.095641 0,0.035866 0,0.059776 0.203238,0.263014 1.195517,1.207472 1.865006,3.180075 1.865006,5.618929 0,2.319303 -0.561893,4.315816 -1.948692,5.726525 C 0.657534,2.84533 0.657534,2.86924 0.657534,2.905106 c 0,0.071731 0.059776,0.095641 0.107597,0.095641 0.155417,0 1.135741,-0.860772 1.721544,-2.032378 0.609714,-1.219428 0.884682,-2.510586 0.884682,-3.945206 z"
           id="equation_05_04"
           inkscape:connector-curvature="0" />
        <path
           d="m 8.069738,-3.873474 c 0.167373,0 0.382566,0 0.382566,-0.215193 0,-0.227149 -0.203238,-0.227149 -0.382566,-0.227149 H 1.028144 c -0.167372,0 -0.382565,0 -0.382565,0.215193 0,0.227149 0.203238,0.227149 0.382565,0.227149 z m 0,2.223661 c 0.167373,0 0.382566,0 0.382566,-0.215193 0,-0.227148 -0.203238,-0.227148 -0.382566,-0.227148 H 1.028144 c -0.167372,0 -0.382565,0 -0.382565,0.215193 0,0.227148 0.203238,0.227148 0.382565,0.227148 z"
           id="equation_05_05"
           inkscape:connector-curvature="0" />
      </defs>
      <g
         id="equation_05_g">
        <use
           id="use3887"
           xlink:href="#equation_05_02"
           y="62.764633"
           x="76.712326"
           width="100%"
           height="100%" />
        <use
           id="use3889"
           xlink:href="#equation_05_05"
           y="62.764633"
           x="86.169807"
           width="100%"
           height="100%" />
        <use
           id="use3891"
           xlink:href="#equation_05_00"
           y="62.764633"
           x="98.595291"
           width="100%"
           height="100%" />
        <use
           id="use3893"
           xlink:href="#equation_05_03"
           y="62.764633"
           x="105.64172"
           width="100%"
           height="100%" />
        <use
           id="use3895"
           xlink:href="#equation_05_01"
           y="62.764633"
           x="110.19405"
           width="100%"
           height="100%" />
        <use
           id="use3897"
           xlink:href="#equation_05_04"
           y="62.764633"
           x="116.84614"
           width="100%"
           height="100%" />
      </g>
    </g>
    <path
       style="fill:none;stroke:#000000;stroke-width:1;stroke-linecap:butt;stroke-linejoin:miter;stroke-miterlimit:4;stroke-dasharray:none;stroke-opacity:1;marker-end:url(#Arrow2Send);opacity:0.5"
       d="m 137.44969,176.61457 c 18.52083,0 18.52083,0 18.52083,0"
       id="path3919"
       inkscape:connector-curvature="0" />
    <path
       style="fill:none;stroke:#000000;stroke-width:1;stroke-linecap:butt;stroke-linejoin:miter;stroke-miterlimit:4;stroke-dasharray:none;stroke-opacity:1;marker-end:url(#Arrow2Send-2);opacity:0.5"
       d="m 190.6203,176.59368 c -18.52082,0.0209 -18.52082,0.0209 -18.52082,0.0209"
       id="path3919-6"
       inkscape:connector-curvature="0" />
    <path
       style="opacity:0.5;fill:none;stroke:#000000;stroke-width:1;stroke-linecap:butt;stroke-linejoin:miter;stroke-miterlimit:4;stroke-dasharray:none;stroke-opacity:1;marker-end:url(#marker4576)"
       d="m 147.41378,117.04174 c 8.69039,-12.32847 8.69039,-12.32847 8.69039,-12.32847"
       id="path4566"
       inkscape:connector-curvature="0" />
    <path
       style="opacity:0.5;fill:none;stroke:#000000;stroke-width:1;stroke-linecap:butt;stroke-linejoin:miter;stroke-miterlimit:4;stroke-dasharray:none;stroke-opacity:1;marker-end:url(#marker4576-6)"
       d="m 172.50834,77.92499 -7.9375,13.229167"
       id="path4566-1"
       inkscape:connector-curvature="0"
       sodipodi:nodetypes="cc" />
  </g>
</svg>
