<?xml version="1.0" encoding="UTF-8" standalone="no"?>
<!-- Created with Inkscape (http://www.inkscape.org/) -->

<svg
   xmlns:dc="http://purl.org/dc/elements/1.1/"
   xmlns:cc="http://creativecommons.org/ns#"
   xmlns:rdf="http://www.w3.org/1999/02/22-rdf-syntax-ns#"
   xmlns:svg="http://www.w3.org/2000/svg"
   xmlns="http://www.w3.org/2000/svg"
   xmlns:xlink="http://www.w3.org/1999/xlink"
   xmlns:sodipodi="http://sodipodi.sourceforge.net/DTD/sodipodi-0.dtd"
   xmlns:inkscape="http://www.inkscape.org/namespaces/inkscape"
   width="210mm"
   height="297mm"
   viewBox="0 0 210 297"
   version="1.1"
   id="svg3117"
   inkscape:version="0.92.4 (5da689c313, 2019-01-14)"
   sodipodi:docname="関数3-1.svg">
  <defs
     id="defs3111">
    <marker
       inkscape:isstock="true"
       style="overflow:visible;"
       id="marker3695"
       refX="0.0"
       refY="0.0"
       orient="auto"
       inkscape:stockid="Arrow1Lend">
      <path
         transform="scale(0.8) rotate(180) translate(12.5,0)"
         style="fill-rule:evenodd;stroke:#000000;stroke-width:1pt;stroke-opacity:1;fill:#000000;fill-opacity:1"
         d="M 0.0,0.0 L 5.0,-5.0 L -12.5,0.0 L 5.0,5.0 L 0.0,0.0 z "
         id="path3693" />
    </marker>
    <marker
       inkscape:stockid="Arrow1Lend"
       orient="auto"
       refY="0.0"
       refX="0.0"
       id="Arrow1Lend"
       style="overflow:visible;"
       inkscape:isstock="true"
       inkscape:collect="always">
      <path
         id="path847"
         d="M 0.0,0.0 L 5.0,-5.0 L -12.5,0.0 L 5.0,5.0 L 0.0,0.0 z "
         style="fill-rule:evenodd;stroke:#000000;stroke-width:1pt;stroke-opacity:1;fill:#000000;fill-opacity:1"
         transform="scale(0.8) rotate(180) translate(12.5,0)" />
    </marker>
  </defs>
  <sodipodi:namedview
     id="base"
     pagecolor="#ffffff"
     bordercolor="#666666"
     borderopacity="1.0"
     inkscape:pageopacity="0.0"
     inkscape:pageshadow="2"
     inkscape:zoom="0.98994949"
     inkscape:cx="294.70319"
     inkscape:cy="724.95896"
     inkscape:document-units="mm"
     inkscape:current-layer="layer1"
     showgrid="true"
     inkscape:window-width="1858"
     inkscape:window-height="1057"
     inkscape:window-x="-8"
     inkscape:window-y="-8"
     inkscape:window-maximized="1">
    <inkscape:grid
       id="grid3662"
       type="xygrid" />
  </sodipodi:namedview>
  <metadata
     id="metadata3114">
    <rdf:RDF>
      <cc:Work
         rdf:about="">
        <dc:format>image/svg+xml</dc:format>
        <dc:type
           rdf:resource="http://purl.org/dc/dcmitype/StillImage" />
        <dc:title></dc:title>
      </cc:Work>
    </rdf:RDF>
  </metadata>
  <g
     inkscape:label="レイヤー 1"
     inkscape:groupmode="layer"
     id="layer1">
    <path
       style="fill:none;stroke:#000000;stroke-width:0.6;stroke-linecap:butt;stroke-linejoin:miter;stroke-opacity:1;stroke-miterlimit:4;stroke-dasharray:none;marker-end:url(#Arrow1Lend)"
       d="m 5.2916666,138.25 c 201.0833334,0 201.0833334,0 201.0833334,0"
       id="path3667"
       inkscape:connector-curvature="0"
       inkscape:export-xdpi="300.10001"
       inkscape:export-ydpi="300.10001" />
    <path
       style="fill:none;stroke:#000000;stroke-width:0.6;stroke-linecap:butt;stroke-linejoin:miter;stroke-opacity:1;stroke-miterlimit:4;stroke-dasharray:none;marker-end:url(#marker3695)"
       d="m 105.83333,175.29167 c 0,-169.3333368 0,-169.3333368 0,-169.3333368"
       id="path3669"
       inkscape:connector-curvature="0"
       inkscape:export-xdpi="300.10001"
       inkscape:export-ydpi="300.10001" />
    <path
       style="fill:none;stroke:#000000;stroke-width:0.6;stroke-linecap:butt;stroke-linejoin:miter;stroke-opacity:1;stroke-miterlimit:4;stroke-dasharray:none"
       d="m 10.583333,90.625 c 195.791667,0 195.791667,0 195.791667,0"
       id="path3671"
       inkscape:connector-curvature="0"
       inkscape:export-xdpi="300.10001"
       inkscape:export-ydpi="300.10001" />
    <circle
       style="fill:#000000;fill-opacity:0.92307693;stroke:#000000;stroke-width:0.60000002;stroke-linecap:butt;stroke-linejoin:round;stroke-miterlimit:4;stroke-dasharray:none;stroke-dashoffset:0;stroke-opacity:1;paint-order:normal"
       id="path3721"
       cx="105.8231"
       cy="138.19987"
       r="1.984375"
       inkscape:export-xdpi="300.10001"
       inkscape:export-ydpi="300.10001" />
    <circle
       style="fill:#ffffff;fill-opacity:1;stroke:#000000;stroke-width:0.60000002;stroke-linecap:butt;stroke-linejoin:round;stroke-miterlimit:4;stroke-dasharray:none;stroke-dashoffset:0;stroke-opacity:1;paint-order:normal"
       id="path3721-8"
       cx="105.84308"
       cy="90.645149"
       r="1.984375"
       inkscape:export-xdpi="300.10001"
       inkscape:export-ydpi="300.10001" />
    <g
       title="\Large$y=f(x)$"
       style="fill:#000000"
       id="equation_00"
       transform="translate(-64.627216,17.580718)"
       inkscape:export-xdpi="300.10001"
       inkscape:export-ydpi="300.10001">
      <defs
         id="defs3757">
        <path
           d="m 4.662514,3.486126 c 0,-0.043039 0,-0.071731 -0.243886,-0.315617 -1.434619,-1.448966 -2.238006,-3.816088 -2.238006,-6.742712 0,-2.783162 0.674271,-5.178976 2.33843,-6.871827 0.143462,-0.129116 0.143462,-0.157809 0.143462,-0.200847 0,-0.08608 -0.071731,-0.11477 -0.129116,-0.11477 -0.186501,0 -1.362889,1.032926 -2.065852,2.438854 -0.731656,1.448965 -1.061619,2.984008 -1.061619,4.74859 0,1.276812 0.200847,2.984009 0.946849,4.519052 0.846426,1.721543 2.022814,2.654046 2.180622,2.654046 0.057385,0 0.129116,-0.028692 0.129116,-0.114769 z"
           id="equation_00_00"
           inkscape:connector-curvature="0" />
        <path
           d="m 4.045627,-3.572203 c 0,-1.090311 -0.143462,-2.869239 -0.946849,-4.533398 -0.846425,-1.721543 -2.022813,-2.654046 -2.180621,-2.654046 -0.057385,0 -0.129116,0.02869 -0.129116,0.11477 0,0.04304 0,0.07173 0.243885,0.315616 1.43462,1.448966 2.238007,3.816088 2.238007,6.742712 0,2.783162 -0.674272,5.178977 -2.33843,6.871828 -0.143462,0.129116 -0.143462,0.157808 -0.143462,0.200847 0,0.086077 0.071731,0.114769 0.129116,0.114769 0.1865,0 1.362888,-1.032926 2.065852,-2.438853 0.731656,-1.463312 1.061618,-3.012701 1.061618,-4.734245 z"
           id="equation_00_01"
           inkscape:connector-curvature="0" />
        <path
           d="m 9.683682,-4.648167 c 0.200847,0 0.459078,0 0.459078,-0.258232 0,-0.272578 -0.243885,-0.272578 -0.459078,-0.272578 H 1.233773 c -0.200847,0 -0.459078,0 -0.459078,0.258232 0,0.272578 0.243885,0.272578 0.459078,0.272578 z m 0,2.668392 c 0.200847,0 0.459078,0 0.459078,-0.258232 0,-0.272577 -0.243885,-0.272577 -0.459078,-0.272577 H 1.233773 c -0.200847,0 -0.459078,0 -0.459078,0.258231 0,0.272578 0.243885,0.272578 0.459078,0.272578 z"
           id="equation_00_02"
           inkscape:connector-curvature="0" />
        <path
           d="m 6.398403,-5.767171 c 0.286924,0 0.401694,0 0.401694,-0.272577 0,-0.143462 -0.11477,-0.143462 -0.373001,-0.143462 H 5.265054 c 0.272578,-1.477658 0.473424,-2.496238 0.588194,-2.955317 0.086077,-0.344308 0.387347,-0.674271 0.760348,-0.674271 0.30127,0 0.60254,0.129116 0.746002,0.258232 -0.559501,0.057384 -0.731656,0.473424 -0.731656,0.717309 0,0.286924 0.215193,0.459079 0.487771,0.459079 0.286924,0 0.71731,-0.243886 0.71731,-0.789041 0,-0.60254 -0.60254,-0.932503 -1.233773,-0.932503 -0.616886,0 -1.219427,0.459079 -1.506351,1.01858 -0.258231,0.502117 -0.401693,1.01858 -0.731656,2.897932 H 3.400048 c -0.272577,0 -0.416039,0 -0.416039,0.258231 0,0.157808 0.086077,0.157808 0.373001,0.157808 H 4.275166 C 4.016935,-4.432974 3.428741,-1.190734 3.098778,0.344309 2.854893,1.592428 2.6397,2.6397 1.92239,2.6397 c -0.043038,0 -0.459078,0 -0.71731,-0.272578 0.731656,-0.057384 0.731656,-0.688617 0.731656,-0.702963 0,-0.286924 -0.215193,-0.459079 -0.48777,-0.459079 -0.286924,0 -0.71731,0.243886 -0.71731,0.789041 0,0.616887 0.631233,0.932503 1.190734,0.932503 1.463312,0 2.065852,-2.625354 2.223661,-3.342664 0.258231,-1.104657 0.961195,-4.920745 1.032926,-5.351131 z"
           id="equation_00_03"
           inkscape:connector-curvature="0" />
        <path
           d="m 6.800097,-5.853248 c -0.459079,0.086077 -0.631233,0.430386 -0.631233,0.702964 0,0.344308 0.272578,0.459078 0.473425,0.459078 0.430385,0 0.731656,-0.373001 0.731656,-0.760348 0,-0.602541 -0.688618,-0.875118 -1.291158,-0.875118 -0.875118,0 -1.362889,0.860771 -1.492004,1.133349 -0.329963,-1.075965 -1.219427,-1.133349 -1.477659,-1.133349 -1.463311,0 -2.238006,1.879351 -2.238006,2.194968 0,0.057384 0.057385,0.129115 0.157808,0.129115 0.11477,0 0.143462,-0.086077 0.172154,-0.143462 0.487771,-1.592427 1.448966,-1.893697 1.865006,-1.893697 0.645579,0 0.774694,0.60254 0.774694,0.946849 0,0.315616 -0.086077,0.645578 -0.258231,1.334196 l -0.487771,1.965429 c -0.215193,0.860771 -0.631232,1.649812 -1.391581,1.649812 -0.071731,0 -0.430386,0 -0.731656,-0.186501 0.516463,-0.100423 0.631233,-0.530809 0.631233,-0.702963 0,-0.286924 -0.215193,-0.459078 -0.487771,-0.459078 -0.344308,0 -0.71731,0.30127 -0.71731,0.760348 0,0.60254 0.674272,0.875118 1.291158,0.875118 0.688617,0 1.176388,-0.545155 1.477658,-1.13335 0.229539,0.846426 0.946849,1.13335 1.477658,1.13335 1.463312,0 2.238007,-1.879352 2.238007,-2.194968 0,-0.071731 -0.057385,-0.129116 -0.143462,-0.129116 -0.129116,0 -0.143462,0.071731 -0.186501,0.186501 -0.387347,1.262465 -1.219426,1.850659 -1.865005,1.850659 -0.502117,0 -0.774695,-0.373001 -0.774695,-0.961195 0,-0.315616 0.057385,-0.545156 0.286924,-1.492004 l 0.502117,-1.951083 c 0.215193,-0.860772 0.702964,-1.492004 1.362889,-1.492004 0.028692,0 0.430386,0 0.731656,0.1865 z"
           id="equation_00_04"
           inkscape:connector-curvature="0" />
        <path
           d="M 3.773049,1.606774 C 3.385702,2.151929 2.826201,2.6397 2.123237,2.6397 c -0.172154,0 -0.860772,-0.028692 -1.075965,-0.688617 0.043039,0.014346 0.11477,0.014346 0.143462,0.014346 0.430386,0 0.71731,-0.373001 0.71731,-0.702964 0,-0.329963 -0.272578,-0.444732 -0.487771,-0.444732 -0.229539,0 -0.731656,0.172155 -0.731656,0.875118 0,0.731656 0.616887,1.233773 1.43462,1.233773 1.43462,0 2.883585,-1.31985 3.285279,-2.912278 L 6.814443,-5.58067 c 0.014346,-0.071731 0.043039,-0.157808 0.043039,-0.243885 0,-0.215193 -0.172155,-0.358655 -0.387348,-0.358655 -0.129116,0 -0.430386,0.057384 -0.545155,0.48777 L 4.86336,-1.477658 c -0.071731,0.258231 -0.071731,0.286924 -0.1865,0.444732 -0.286924,0.401693 -0.760349,0.889464 -1.448966,0.889464 -0.803387,0 -0.875118,-0.789041 -0.875118,-1.176388 0,-0.817733 0.387347,-1.92239 0.774695,-2.955316 0.157808,-0.41604 0.243885,-0.616887 0.243885,-0.903811 0,-0.60254 -0.430386,-1.147695 -1.133349,-1.147695 -1.31985,0 -1.85066,2.080198 -1.85066,2.194968 0,0.057384 0.057385,0.129115 0.157808,0.129115 0.129116,0 0.143462,-0.057384 0.200847,-0.258231 0.344309,-1.205081 0.889464,-1.778928 1.448966,-1.778928 0.129116,0 0.373001,0 0.373001,0.473424 0,0.373001 -0.157808,0.789041 -0.373001,1.334196 -0.702964,1.879352 -0.702964,2.352776 -0.702964,2.697085 0,1.362889 0.975542,1.678505 1.692851,1.678505 0.41604,0 0.932503,-0.129116 1.43462,-0.659925 l 0.014346,0.014346 C 4.418628,0.344309 4.275166,0.90381 3.773049,1.606774 Z"
           id="equation_00_05"
           inkscape:connector-curvature="0" />
      </defs>
      <g
         id="equation_00_g">
        <use
           id="use3759"
           xlink:href="#equation_00_05"
           y="63.56163"
           x="76.712326"
           width="100%"
           height="100%" />
        <use
           id="use3761"
           xlink:href="#equation_00_02"
           y="63.56163"
           x="88.061295"
           width="100%"
           height="100%" />
        <use
           id="use3763"
           xlink:href="#equation_00_03"
           y="63.56163"
           x="102.97187"
           width="100%"
           height="100%" />
        <use
           id="use3765"
           xlink:href="#equation_00_00"
           y="63.56163"
           x="111.42758"
           width="100%"
           height="100%" />
        <use
           id="use3767"
           xlink:href="#equation_00_04"
           y="63.56163"
           x="116.89037"
           width="100%"
           height="100%" />
        <use
           id="use3769"
           xlink:href="#equation_00_01"
           y="63.56163"
           x="124.87287"
           width="100%"
           height="100%" />
      </g>
    </g>
    <g
       title="\Large$y$"
       style="fill:#000000"
       id="equation_01"
       transform="translate(35.814117,-50.246671)"
       inkscape:export-xdpi="300.10001"
       inkscape:export-ydpi="300.10001">
      <defs
         id="defs3820">
        <path
           d="M 3.773049,1.606774 C 3.385702,2.151929 2.826201,2.6397 2.123237,2.6397 c -0.172154,0 -0.860772,-0.028692 -1.075965,-0.688617 0.043039,0.014346 0.11477,0.014346 0.143462,0.014346 0.430386,0 0.71731,-0.373001 0.71731,-0.702964 0,-0.329963 -0.272578,-0.444732 -0.487771,-0.444732 -0.229539,0 -0.731656,0.172155 -0.731656,0.875118 0,0.731656 0.616887,1.233773 1.43462,1.233773 1.43462,0 2.883585,-1.31985 3.285279,-2.912278 L 6.814443,-5.58067 c 0.014346,-0.071731 0.043039,-0.157808 0.043039,-0.243885 0,-0.215193 -0.172155,-0.358655 -0.387348,-0.358655 -0.129116,0 -0.430386,0.057384 -0.545155,0.48777 L 4.86336,-1.477658 c -0.071731,0.258231 -0.071731,0.286924 -0.1865,0.444732 -0.286924,0.401693 -0.760349,0.889464 -1.448966,0.889464 -0.803387,0 -0.875118,-0.789041 -0.875118,-1.176388 0,-0.817733 0.387347,-1.92239 0.774695,-2.955316 0.157808,-0.41604 0.243885,-0.616887 0.243885,-0.903811 0,-0.60254 -0.430386,-1.147695 -1.133349,-1.147695 -1.31985,0 -1.85066,2.080198 -1.85066,2.194968 0,0.057384 0.057385,0.129115 0.157808,0.129115 0.129116,0 0.143462,-0.057384 0.200847,-0.258231 0.344309,-1.205081 0.889464,-1.778928 1.448966,-1.778928 0.129116,0 0.373001,0 0.373001,0.473424 0,0.373001 -0.157808,0.789041 -0.373001,1.334196 -0.702964,1.879352 -0.702964,2.352776 -0.702964,2.697085 0,1.362889 0.975542,1.678505 1.692851,1.678505 0.41604,0 0.932503,-0.129116 1.43462,-0.659925 l 0.014346,0.014346 C 4.418628,0.344309 4.275166,0.90381 3.773049,1.606774 Z"
           id="equation_01_00"
           inkscape:connector-curvature="0" />
      </defs>
      <g
         id="equation_01_g">
        <use
           id="use3822"
           xlink:href="#equation_01_00"
           y="62.764633"
           x="76.712326"
           width="100%"
           height="100%" />
      </g>
    </g>
    <g
       title="\Large$x$"
       style="fill:#000000"
       id="equation_02"
       transform="translate(118.53782,86.323213)"
       inkscape:export-xdpi="300.10001"
       inkscape:export-ydpi="300.10001">
      <defs
         id="defs3868">
        <path
           d="m 6.800097,-5.853248 c -0.459079,0.086077 -0.631233,0.430386 -0.631233,0.702964 0,0.344308 0.272578,0.459078 0.473425,0.459078 0.430385,0 0.731656,-0.373001 0.731656,-0.760348 0,-0.602541 -0.688618,-0.875118 -1.291158,-0.875118 -0.875118,0 -1.362889,0.860771 -1.492004,1.133349 -0.329963,-1.075965 -1.219427,-1.133349 -1.477659,-1.133349 -1.463311,0 -2.238006,1.879351 -2.238006,2.194968 0,0.057384 0.057385,0.129115 0.157808,0.129115 0.11477,0 0.143462,-0.086077 0.172154,-0.143462 0.487771,-1.592427 1.448966,-1.893697 1.865006,-1.893697 0.645579,0 0.774694,0.60254 0.774694,0.946849 0,0.315616 -0.086077,0.645578 -0.258231,1.334196 l -0.487771,1.965429 c -0.215193,0.860771 -0.631232,1.649812 -1.391581,1.649812 -0.071731,0 -0.430386,0 -0.731656,-0.186501 0.516463,-0.100423 0.631233,-0.530809 0.631233,-0.702963 0,-0.286924 -0.215193,-0.459078 -0.487771,-0.459078 -0.344308,0 -0.71731,0.30127 -0.71731,0.760348 0,0.60254 0.674272,0.875118 1.291158,0.875118 0.688617,0 1.176388,-0.545155 1.477658,-1.13335 0.229539,0.846426 0.946849,1.13335 1.477658,1.13335 1.463312,0 2.238007,-1.879352 2.238007,-2.194968 0,-0.071731 -0.057385,-0.129116 -0.143462,-0.129116 -0.129116,0 -0.143462,0.071731 -0.186501,0.186501 -0.387347,1.262465 -1.219426,1.850659 -1.865005,1.850659 -0.502117,0 -0.774695,-0.373001 -0.774695,-0.961195 0,-0.315616 0.057385,-0.545156 0.286924,-1.492004 l 0.502117,-1.951083 c 0.215193,-0.860772 0.702964,-1.492004 1.362889,-1.492004 0.028692,0 0.430386,0 0.731656,0.1865 z"
           id="equation_02_00"
           inkscape:connector-curvature="0" />
      </defs>
      <g
         id="equation_02_g">
        <use
           id="use3870"
           xlink:href="#equation_02_00"
           y="62.764633"
           x="76.712326"
           width="100%"
           height="100%" />
      </g>
    </g>
    <g
       title="\Large$O$"
       style="fill:#000000"
       id="equation_03"
       transform="translate(14.173936,88.00785)"
       inkscape:export-xdpi="300.10001"
       inkscape:export-ydpi="300.10001">
      <defs
         id="defs3921">
        <path
           d="m 10.415338,-6.283634 c 0,-2.367122 -1.549389,-3.816088 -3.557856,-3.816088 -3.070086,0 -6.168865,3.299625 -6.168865,6.613596 0,2.252353 1.492005,3.787396 3.572203,3.787396 3.012701,0 6.154518,-3.141817 6.154518,-6.584904 z m -6.068441,6.254942 c -1.176388,0 -2.424507,-0.860772 -2.424507,-3.098779 0,-1.305503 0.473425,-3.443087 1.649813,-4.877706 1.047272,-1.262465 2.252352,-1.778928 3.213548,-1.778928 1.262465,0 2.481891,0.918156 2.481891,2.984008 0,1.276812 -0.545155,3.270933 -1.50635,4.633821 -1.047272,1.463312 -2.352776,2.137584 -3.414395,2.137584 z"
           id="equation_03_00"
           inkscape:connector-curvature="0" />
      </defs>
      <g
         id="equation_03_g">
        <use
           id="use3923"
           xlink:href="#equation_03_00"
           y="62.764633"
           x="76.712326"
           width="100%"
           height="100%" />
      </g>
    </g>
    <g
       title="\Large$1$"
       style="fill:#000000"
       id="equation_04"
       transform="translate(17.93056,22.249365)"
       inkscape:export-xdpi="300.10001"
       inkscape:export-ydpi="300.10001">
      <defs
         id="defs3979">
        <path
           d="m 4.131704,-9.195911 c 0,-0.329963 0,-0.344309 -0.286924,-0.344309 -0.344308,0.387347 -1.061618,0.918156 -2.539276,0.918156 v 0.41604 c 0.329962,0 1.047272,0 1.836313,-0.373001 v 7.474368 c 0,0.516463 -0.043039,0.688617 -1.305504,0.688617 H 1.391581 V 0 c 0.387347,-0.028692 1.778928,-0.028692 2.252353,-0.028692 0.473425,0 1.850659,0 2.238006,0.028692 V -0.41604 H 5.437208 c -1.262465,0 -1.305504,-0.172154 -1.305504,-0.688617 z"
           id="equation_04_00"
           inkscape:connector-curvature="0" />
      </defs>
      <g
         id="equation_04_g">
        <use
           id="use3981"
           xlink:href="#equation_04_00"
           y="62.764633"
           x="76.712326"
           width="100%"
           height="100%" />
      </g>
    </g>
  </g>
</svg>
